<?xml version="1.0" encoding="utf-8"?>
<!-- Generator: Adobe Illustrator 18.0.0, SVG Export Plug-In . SVG Version: 6.00 Build 0)  -->
<!DOCTYPE svg PUBLIC "-//W3C//DTD SVG 1.1//EN" "http://www.w3.org/Graphics/SVG/1.1/DTD/svg11.dtd">
<svg version="1.1" id="Layer_1" xmlns="http://www.w3.org/2000/svg" xmlns:xlink="http://www.w3.org/1999/xlink" x="0px" y="0px"
	 viewBox="392.2 388.3 618.1 191.2" enable-background="new 392.2 388.3 618.1 191.2" xml:space="preserve">
<path fill="none" stroke="#000000" stroke-width="5" stroke-miterlimit="10" d="M621,441.1c0.1-1.4-0.3-2.5-1.3-3.6
	c-0.1-0.2-0.3-0.4-0.4-0.5c-5.3-5-11.5-5.1-17.7-4.4c-0.9,0.1-1.8,0.2-2.7,0.3c-5.5,0.7-11,1.7-16.5,1.5c-0.7,0-1.3-0.1-2-0.2
	c-4.5-0.9-8.5-3.7-12.2-8.1l-0.3-0.2c-0.2-0.8-5.3-17.7-16.4-19.2c-11.5-1.6-12.4-11.8-25.9-14.5c-7.3-1.4-13.6-1.6-17.8-1.5
	c-4.2-0.1-10.5,0.1-17.8,1.5c-13.5,2.7-14.4,12.9-25.9,14.5c-11.1,1.6-16.2,18.4-16.4,19.2l-0.3,0.2c-3.7,4.4-7.7,7.2-12.2,8.1
	c-0.6,0.1-1.3,0.2-2,0.2c-5.5,0.1-11-0.8-16.5-1.5c-0.9-0.1-1.8-0.2-2.7-0.3c-6.2-0.7-12.3-0.6-17.7,4.4c-0.1,0.1-0.3,0.3-0.4,0.5
	c-0.9,1-1.4,2.1-1.3,3.6c-0.1,0.5,0,0.9,0.1,1.3c6.2,18.1,16.6,30,32.8,33.1c3.3,0.6,6.7,0.7,10,1.1c0.2,0.8,0.4,1.5,0.5,2.2
	c1.9,18.3,7.8,34.3,17.9,48c0.7,1,0.9,3.2,0.7,4.6c-2.9,21.8,8.2,41.8,25.8,44.3c1.5,0.3,3.1,0.6,4.7,0.7c2.9,0.2,5.7,0.3,8.6,0.4
	c4,0.2,8,0.3,12,0.2c4,0,8-0.1,12-0.2c2.9-0.1,5.7-0.2,8.6-0.4c1.6-0.1,3.2-0.3,4.7-0.7c17.7-2.5,28.7-22.6,25.8-44.3
	c-0.2-1.5,0-3.6,0.7-4.6c10.1-13.7,16-29.7,17.9-48c0.1-0.7,0.3-1.3,0.5-2.2c3.3-0.3,6.7-0.4,10-1.1c16.2-3.1,26.7-15,32.8-33.1
	C621,442.1,621.1,441.6,621,441.1z"/>
<path fill-rule="evenodd" clip-rule="evenodd" fill="none" stroke="#000000" stroke-width="5" stroke-miterlimit="10" d="
	M781.6,474.5c-4.7-0.7-8.4-2.3-11.1-6.9c0.1-0.6,0.2-1.2,0.3-1.8c3.9-24.2,28.7-8.3,28.7-8.3s3.8-0.9-16-15.9
	c-19.8-15-35.8,12.3-35.8,12.3s0,0.1-0.1,0.2c-7.4-1.4-14.6-1.8-21.7-0.2c0,0-16.1-27.3-35.8-12.3c-19.8,15-16,15.9-16,15.9
	s24.8-15.8,28.7,8.3c-1.6,2.1-3.1,4.2-4.8,6.1c-0.8,0.9-1.9,1.8-2.9,1.8c-9.9-0.1-16.6,6.8-23.4,15.3c5.7,2.3,10.6,3.7,15.9,1
	c2.2-1.1,2.8-0.5,2.4,2.5c-0.1,0.7-0.3,1.4-0.4,2.1c-2.4,13.9-2.1,27.4,4.4,39.8c7.8,14.9,18.7,25.3,32,32.1
	c6.9,3.5,13.9,3.5,20.6-0.3c5.1-2.9,10.1-6.2,14.7-10c7.2-6,13-13.8,17.4-23c6-12.5,6-25.7,3.6-39.4c-0.2-1.3,0-2.7,0-4
	c1,0.2,2,0.3,3,0.7c5,2.1,9.7,0.8,14.8-1.4C794.7,482,789.2,475.7,781.6,474.5z"/>
<path fill-rule="evenodd" clip-rule="evenodd" fill="none" stroke="#000000" stroke-width="4.8882" stroke-miterlimit="10" d="
	M891.2,518.9c-0.8,0.3-1.6,0.5-2.4,0.8c-2.9,0.9-5.8,1.6-8.9,1.8c-2.3,0.2-4.6,0.3-6.9,0.2c-2.9-0.1-5.7-0.6-8.5-1.4
	c-1.8-0.5-2.6-2-2.4-4c0.3-2.7,0.8-5.3,1.6-7.8c1.9-6,5.3-11,9.6-15.5c4.4-4.5,9.2-8.3,14.8-11.2c2.1-1.1,4.5-2,6.7-3
	c0.2-0.1,0.3-0.1,0.5-0.2c-0.1-0.2-0.2-0.3-0.3-0.4c-1.8-2.1-2.8-4.5-3.1-7.2c-0.4-4,0.7-7.5,3.5-10.4c0.8-0.8,1.2-1.7,1.5-2.7
	c1-3.8,3.1-6.9,6.4-9c4.5-2.9,9.2-2.9,13.8-0.1c0.2,0.1,0.4,0.2,0.6,0.4c0.2-0.3,0.4-0.6,0.5-0.8c1.4-2.4,3.5-3.8,6.2-4.3
	c1.4-0.3,2.9-0.1,4.2,0.4c0.4,0.1,0.8,0.1,1.2-0.1c1.4-0.7,2.9-1.1,4.4-1.2c2.9-0.2,5.4,0.8,7.6,2.5c0.7,0.5,1.2,1.2,1.9,1.8
	c0.2,0.2,0.6,0.3,0.9,0.3c1.9-0.2,3.7-0.1,5.5,0.6c0.5,0.2,0.8,0.1,1.2-0.2c2.2-1.5,4.6-2.2,7.2-2.1c4.4,0.1,8,1.9,10.6,5.6
	c0.3,0.4,0.7,0.7,1.2,0.8c3.5,0.6,6.5,3.6,7.1,7.1c0.2,1.3,0.2,2.6-0.1,3.9c-0.1,0.4-0.1,0.8,0.1,1.2c0.9,2.2,1.3,4.5,1.1,6.8
	c-0.2,2.4-0.9,4.6-2.2,6.6c-0.1,0.1-0.2,0.3-0.3,0.4c0,0,0,0.1,0,0.2c0.3,0.1,0.7,0.3,1,0.4c6.4,2.3,12.4,5.4,17.7,9.7
	c6.3,5,10.8,11.3,12.9,19.1c0.5,1.9-0.1,3.4-1.9,4.3c-3.8,1.9-7.8,3.1-12,3.8c-2.7,0.4-5.4,0.6-8.1,0.5c-3-0.1-6-0.5-9-1.2
	c-0.2,0-0.4-0.1-0.7-0.1c0.1,1.1,0.2,2.1,0.3,3c0.1,1.9,0.3,3.8,0.4,5.6c0.1,2.3,0.1,4.5,0.1,6.8c-0.2,9.1-3.2,17.2-9,24.3
	c-5.7,6.9-12.9,11.4-21.4,14.1c-3.1,1-6.3,1.6-9.5,1.8c-12.1,0.7-22.6-2.9-31.4-11.2c-5.3-5-9.2-11-11.8-17.8
	c-1.1-3-1.8-6.2-2.2-9.4c-0.2-1.9-0.4-3.8-0.4-5.7c-0.1-2.3,0-4.7,0.1-7C891.3,519.1,891.3,519,891.2,518.9z"/>
</svg>
