<?xml version="1.0" encoding="utf-8"?>
<!-- Generator: Adobe Illustrator 18.0.0, SVG Export Plug-In . SVG Version: 6.00 Build 0)  -->
<!DOCTYPE svg PUBLIC "-//W3C//DTD SVG 1.1//EN" "http://www.w3.org/Graphics/SVG/1.1/DTD/svg11.dtd">
<svg version="1.1" id="Layer_1" xmlns="http://www.w3.org/2000/svg" xmlns:xlink="http://www.w3.org/1999/xlink" x="0px" y="0px"
	 viewBox="305.6 364.6 792.1 235.4" enable-background="new 305.6 364.6 792.1 235.4" xml:space="preserve">
<g>
	<path d="M481,457c0,0-0.5-0.4-1.6-1.3c-1-0.8-2.5-2-4.4-3.5c-1.9-1.5-4.3-3.3-7-5.3c-2.7-2-5.8-4.3-9.2-6.8
		c-3.3-2.5-6.8-5.4-10.5-8.4c-1.8-1.5-3.7-3.1-5.6-4.8c-0.9-0.8-1.9-1.7-2.9-2.5l-0.4-0.3l-0.4-0.4c-0.2-0.2-0.5-0.4-0.7-0.7
		c-0.2-0.3-0.5-0.6-0.7-0.8l-0.6-0.9c-1.5-2.4-2.1-5.3-1.7-8.1c0.2-1.4,0.6-2.8,1.2-4c0.6-1.3,1.5-2.4,2.5-3.4
		c2.1-2,4.9-3.2,7.8-3.4c2.9-0.2,5.9,0.7,8.3,2.5c2.2,1.7,4.4,3.4,6.6,5c2.2,1.7,4.4,3.4,6.5,5.1c4.3,3.4,8.5,6.8,12.6,10
		c2.1,1.6,4,3.2,6,4.8c2,1.6,3.8,3.1,5.7,4.7c0.9,0.8,1.8,1.5,2.7,2.3c0.5,0.4,0.9,0.8,1.4,1.2c0.4,0.4,0.8,0.7,1.3,1.3
		c1.7,2,2.7,4.3,3,6.6c0.6,4.6-1.6,8.8-4.3,11c-2.8,2.4-6,2.9-8.5,2.8c-2.5-0.1-4.3-0.9-5.5-1.6c-0.3-0.2-0.5-0.3-0.7-0.5
		c-0.2-0.2-0.4-0.3-0.5-0.4C481.2,457.1,481,457,481,457z M481.2,456.8c0,0,0.1,0.1,0.4,0.3c0.1,0.1,0.3,0.2,0.5,0.4
		c0.2,0.1,0.5,0.3,0.7,0.4c1.1,0.6,2.9,1.4,5.3,1.3c2.3,0,5.3-0.9,7.5-3.2c2.3-2.3,3.6-6,2.7-9.7c-0.2-0.9-0.5-1.8-1-2.7
		c-0.2-0.4-0.5-0.8-0.7-1.2c-0.3-0.4-0.6-0.8-0.9-1.1c-0.3-0.3-0.8-0.7-1.2-1.1c-0.4-0.3-0.9-0.7-1.3-1c-0.9-0.7-1.8-1.5-2.8-2.2
		c-1.9-1.5-3.8-3-5.7-4.6c-1.9-1.6-3.9-3.2-5.9-4.9c-4-3.4-8.1-6.8-12.3-10.4c-2.1-1.8-4.2-3.6-6.3-5.4c-2.1-1.8-4.2-3.7-6.3-5.5
		c-2-1.7-4.6-2.7-7.2-2.6c-2.6,0-5.3,1.1-7.2,2.9c-1.9,1.8-3.1,4.3-3.3,6.9c-0.2,2.6,0.6,5.1,2,7.1l0.6,0.7c0.2,0.2,0.4,0.4,0.6,0.6
		c0.2,0.2,0.5,0.4,0.7,0.6l0.3,0.3l0.4,0.3c1,0.8,2,1.5,3,2.3c2,1.5,4,3,5.8,4.5c3.7,3,7.2,5.9,10.4,8.6c3.1,2.8,6,5.4,8.5,7.6
		c2.5,2.3,4.7,4.3,6.6,5.9c1.8,1.6,3.3,2.8,4.3,3.7C480.7,456.3,481.2,456.8,481.2,456.8z"/>
</g>
<g>
	<path d="M461.7,387.8c0,0-0.6,0.3-1.8,0.9c-1.2,0.6-2.9,1.5-5,2.7c-2.1,1.2-4.7,2.6-7.6,4.3c-2.9,1.7-6.2,3.6-9.9,5.7
		c-3.6,2-7.7,4.1-11.9,6.3c-2.1,1.1-4.4,2.1-6.6,3.2c-1.1,0.5-2.3,1.1-3.5,1.6l-0.4,0.2l-0.5,0.2c-0.3,0.1-0.6,0.3-0.9,0.3
		c-0.3,0.1-0.7,0.2-1,0.3l-1,0.2c-2.8,0.4-5.7-0.2-8.1-1.6c-1.2-0.7-2.3-1.6-3.2-2.7c-0.9-1.1-1.6-2.4-2.1-3.6c-1-2.7-1-5.7,0-8.5
		c1-2.7,3-5.2,5.6-6.6c2.4-1.4,4.9-2.7,7.3-4.1c2.4-1.3,4.9-2.6,7.3-4c4.8-2.6,9.6-5.1,14.2-7.5c2.3-1.2,4.6-2.4,6.8-3.5
		c2.2-1.2,4.4-2.3,6.6-3.3c1.1-0.5,2.1-1.1,3.2-1.6c0.5-0.3,1.1-0.5,1.6-0.8c0.5-0.2,1-0.5,1.7-0.7c2.5-0.8,5-0.7,7.2-0.1
		c4.5,1.3,7.5,5,8.4,8.4c1,3.5,0.3,6.7-0.8,8.9c-1.1,2.2-2.6,3.6-3.7,4.4c-0.3,0.2-0.5,0.4-0.7,0.5c-0.2,0.1-0.4,0.2-0.6,0.3
		C461.9,387.7,461.7,387.8,461.7,387.8z M461.6,387.5c0,0,0.1-0.1,0.4-0.3c0.1-0.1,0.3-0.2,0.5-0.3c0.2-0.1,0.4-0.3,0.7-0.5
		c1-0.8,2.4-2.1,3.3-4.3c0.9-2.1,1.3-5.3,0.1-8.2c-1.2-3-4.1-5.7-7.8-6.4c-0.9-0.2-1.9-0.3-2.8-0.2c-0.5,0-1,0.1-1.4,0.2
		c-0.5,0.1-1,0.2-1.4,0.4c-0.4,0.1-0.9,0.4-1.5,0.6c-0.5,0.3-1,0.5-1.5,0.8c-1,0.5-2.1,1.1-3.1,1.6c-2.1,1.1-4.3,2.3-6.5,3.4
		c-2.2,1.1-4.5,2.3-6.9,3.5c-4.7,2.3-9.5,4.7-14.4,7.1c-2.5,1.2-5,2.4-7.5,3.6c-2.5,1.2-5,2.4-7.6,3.5c-2.3,1.1-4.3,3.1-5.3,5.5
		c-1,2.4-1.1,5.3-0.2,7.7c0.9,2.5,2.7,4.6,5,5.8c2.3,1.2,4.9,1.5,7.3,1l0.9-0.2c0.3-0.1,0.5-0.2,0.8-0.3c0.3-0.1,0.6-0.3,0.8-0.4
		l0.4-0.2l0.4-0.2c1.1-0.6,2.2-1.2,3.3-1.9c2.2-1.2,4.3-2.4,6.5-3.5c4.2-2.2,8.3-4.3,12.1-6c3.8-1.8,7.3-3.3,10.4-4.7
		c3.1-1.4,5.8-2.6,8-3.7c2.2-1,3.9-1.9,5.1-2.5C460.9,387.8,461.6,387.5,461.6,387.5z"/>
</g>
<g>
	<path d="M509.8,408.3c0,0-0.5-0.1-1.3-0.2c-0.9-0.1-2.1-0.2-3.7-0.3c-1.6-0.1-3.6-0.2-5.8-0.3c-2.2-0.1-4.8-0.2-7.5-0.4
		c-1.4-0.1-2.8-0.2-4.3-0.4l-0.6-0.1l-0.6-0.1c-0.4-0.1-0.9-0.2-1.3-0.3c-0.8-0.3-1.6-0.6-2.4-1.1c-3.1-1.8-5.3-5.2-5.7-8.8
		c-0.3-1.8-0.1-3.8,0.5-5.5c0.6-1.8,1.5-3.5,2.8-4.8c1.3-1.4,2.8-2.5,4.6-3.3c1.8-0.7,3.7-1.1,5.7-0.9c3.7,0.2,7.4,0.5,11,0.8
		c3.6,0.4,7.2,0.7,10.6,1.1l0.6,0.1l0.3,0l0.2,0l0.2,0c0.4,0.1,0.8,0.1,1.3,0.2c1,0.3,1.9,0.6,2.7,1c1.7,0.8,3.2,2.1,4.3,3.5
		c2.3,2.8,3.1,6.4,2.6,9.4l0,0.3l0,0.1l0,0.1l0,0l0,0.1l-0.1,0.5l-0.1,0.5l-0.2,0.5c-0.2,0.7-0.6,1.4-0.9,2c-0.7,1.2-1.5,2.2-2.4,3
		c-0.9,0.8-1.8,1.4-2.7,1.9c-0.5,0.2-0.9,0.4-1.3,0.6c-0.4,0.2-0.8,0.3-1.2,0.4c-1.6,0.4-2.9,0.5-3.8,0.5
		C510.2,408.3,509.8,408.3,509.8,408.3z M509.8,408c0,0,0.5,0,1.3,0.1c0.8,0,2.1-0.1,3.6-0.7c1.5-0.5,3.1-1.6,4.4-3.3
		c0.6-0.8,1.2-1.8,1.6-2.9c0.2-0.5,0.4-1.1,0.4-1.7l0.1-0.4l0-0.5l0.1-0.5l0-0.1l0,0c0,0.1,0,0,0,0l0-0.1v-0.2
		c0.1-2.4-0.7-5.1-2.5-7.2c-0.9-1-2-1.9-3.3-2.6c-0.6-0.3-1.3-0.6-2-0.7c-0.3-0.1-0.8-0.2-1.2-0.2l-0.1,0l0,0c0.1,0,0,0,0,0l-0.2,0
		l-0.3,0l-0.6-0.1c-3.4-0.5-6.9-1-10.5-1.5c-3.6-0.5-7.2-1.2-10.8-1.8c-1.7-0.3-3.5-0.2-5.1,0.4c-1.7,0.5-3.2,1.6-4.3,2.8
		c-0.3,0.3-0.6,0.7-0.8,1c-0.2,0.4-0.5,0.7-0.7,1.1c-0.4,0.8-0.7,1.6-0.9,2.4c-0.1,0.4-0.2,0.8-0.2,1.3l0,0.3l0,0.3l0,0.6
		c0,0.4,0.1,0.8,0.1,1.2c0.1,0.4,0.1,0.8,0.2,1.2c0.8,3.1,3,5.5,5.5,6.8c0.3,0.2,0.6,0.3,0.9,0.5c0.3,0.1,0.6,0.3,1,0.4
		c0.3,0.1,0.6,0.2,0.9,0.2c0.3,0.1,0.7,0.1,1,0.2c1.5,0.2,2.9,0.4,4.3,0.7c2.7,0.5,5.2,1,7.4,1.5c2.2,0.5,4.1,0.8,5.7,1.1
		c1.6,0.3,2.8,0.5,3.7,0.6C509.3,407.9,509.8,408,509.8,408z"/>
</g>
<g>
	<g>
		<path d="M863.7,427.5c0,0-0.4,0-1,0c-0.7,0-1.6,0-2.9,0.1c-0.3,0-0.6,0-1,0c-0.4,0-0.7,0-1.1-0.1c-0.8-0.1-1.6-0.3-2.5-0.5
			c-1.7-0.5-3.6-1.5-5.2-3.2c-1.6-1.7-2.8-4.1-3.1-6.7c-0.1-0.7-0.1-1.4,0-2c0-0.6,0.1-1.2,0.1-1.9c0.1-0.7,0.1-1.2,0.2-2
			c0-0.3,0.1-0.6,0.1-1l0.2-1.1c0.8-2.7,2.4-5.2,4.6-7c2.2-1.8,5-3.1,8-3.3l2.1-0.2l1.1-0.1c0.2,0,0.3,0,0.6,0l0.5,0
			c0.3,0,0.7,0,1.1,0c0.4,0,0.8,0.1,1.2,0.2c0.8,0.1,1.5,0.4,2.2,0.6c2.9,1.1,5.3,3.3,6.7,5.9c0.7,1.3,1.2,2.7,1.5,4.1
			c0.1,0.7,0.2,1.4,0.2,2.1c0,0.7,0,1.2,0,1.9c0,0.6,0,1.2,0,1.8c0,0.8,0,1.2-0.2,1.9c-0.2,1.4-0.6,2.5-1.1,3.5
			c-1.1,2.1-2.7,3.6-4.1,4.6c-1.5,1-3,1.6-4.2,1.9c-1.2,0.3-2.2,0.4-2.9,0.5C864,427.4,863.7,427.5,863.7,427.5z M863.7,427.2
			c0,0,0.3,0,1-0.1c0.6-0.1,1.6-0.2,2.7-0.7c1.1-0.4,2.4-1.2,3.5-2.4c1.1-1.2,2.1-2.8,2.7-4.5c0.1-0.5,0.3-0.9,0.3-1.4
			c0-0.2,0.1-0.5,0.1-0.7c0-0.2,0-0.5,0.1-0.7c0-0.4,0-1.2,0-1.6c0-0.6,0-1.2,0-1.8c0-0.6,0-1.2,0-1.8c0-0.5,0-1.1-0.2-1.6
			c-0.2-1.1-0.5-2.2-1-3.2c-1-2-2.8-3.8-5-4.9c-0.6-0.2-1.1-0.5-1.7-0.6c-0.3-0.1-0.6-0.1-0.9-0.2c-0.1,0-0.3-0.1-0.4-0.1l-0.5-0.1
			l-0.5-0.1c-0.1,0-0.3,0-0.5,0l-1.1-0.1l-2.1-0.2c-2.6-0.2-5.4,0.6-7.4,2.4c-2.1,1.7-3.3,4.2-3.6,6.7l-0.1,0.9c0,0.3,0,0.6,0,1
			c0,0.5,0.1,1.3,0.1,1.9c0,0.6,0.1,1.3,0.1,1.9c0,0.6,0.1,1.1,0.2,1.7c0.3,2.1,1.2,4,2.3,5.5c1.1,1.5,2.5,2.8,3.9,3.6
			c0.4,0.2,0.7,0.4,1.1,0.5c0.4,0.1,0.7,0.3,1.1,0.4c0.3,0.1,0.7,0.2,1,0.2c0.3,0,0.7,0.1,1,0.1c1.2,0.1,2.2,0.1,2.8,0.1
			C863.3,427.1,863.7,427.2,863.7,427.2z"/>
	</g>
	<g>
		<path d="M878.5,441.8c0,0-0.3-0.2-0.8-0.6c-0.5-0.4-1.3-0.9-2.3-1.7c-0.2-0.2-0.5-0.4-0.8-0.6c-0.3-0.2-0.5-0.5-0.8-0.7
			c-0.5-0.5-1.1-1.2-1.7-1.9c-1.1-1.5-2-3.4-2.2-5.7c-0.3-2.3,0.2-4.9,1.6-7.2c0.3-0.6,0.8-1.1,1.2-1.6c0.4-0.5,0.8-0.9,1.2-1.4
			c0.4-0.5,0.8-0.9,1.3-1.5c0.2-0.2,0.4-0.5,0.7-0.7l0.8-0.7c2.3-1.7,5-2.7,7.9-2.9c2.9-0.1,5.8,0.6,8.4,2.2l1.8,1.2l0.9,0.6
			c0.2,0.1,0.3,0.2,0.5,0.3l0.4,0.3c0.3,0.2,0.6,0.4,0.9,0.7c0.3,0.3,0.6,0.5,0.8,0.8c0.5,0.6,1,1.2,1.4,1.8
			c1.6,2.6,2.2,5.8,1.8,8.7c-0.2,1.5-0.7,2.9-1.3,4.2c-0.3,0.6-0.7,1.2-1.1,1.8c-0.4,0.5-0.8,1-1.1,1.5c-0.4,0.5-0.7,0.9-1.1,1.4
			c-0.5,0.6-0.7,0.9-1.3,1.4c-1,1-2,1.6-3,2.1c-2.1,1-4.3,1.2-6.1,1.1c-1.8-0.1-3.3-0.6-4.5-1c-1.2-0.5-2-1-2.6-1.4
			C878.8,442,878.5,441.8,878.5,441.8z M878.7,441.6c0,0,0.3,0.2,0.8,0.6c0.6,0.3,1.4,0.8,2.6,1.1c1.1,0.3,2.6,0.5,4.2,0.2
			c1.6-0.2,3.3-0.9,4.9-2c0.4-0.3,0.8-0.6,1.1-0.9c0.2-0.2,0.4-0.3,0.5-0.5l0.5-0.5c0.3-0.3,0.8-0.9,1-1.2c0.3-0.5,0.7-1,1-1.4
			c0.3-0.5,0.7-1,1.1-1.5c0.3-0.4,0.6-0.9,0.9-1.4c0.5-1,0.9-2,1.1-3.2c0.4-2.3,0.1-4.7-1-6.9c-0.3-0.5-0.6-1.1-1-1.6
			c-0.2-0.3-0.4-0.5-0.6-0.7c-0.1-0.1-0.2-0.2-0.3-0.3l-0.4-0.4l-0.4-0.4c0-0.1-0.2-0.2-0.3-0.3l-0.8-0.7l-1.6-1.4
			c-2-1.8-4.7-2.7-7.3-2.6c-2.7,0.1-5.2,1.3-6.9,3.1l-0.6,0.7c-0.2,0.2-0.4,0.5-0.6,0.8c-0.3,0.4-0.7,1.1-1,1.6
			c-0.4,0.5-0.7,1.1-1,1.6c-0.3,0.5-0.6,0.9-0.9,1.4c-1,1.9-1.4,3.9-1.5,5.8c0,1.9,0.3,3.7,1,5.2c0.2,0.4,0.3,0.7,0.5,1.1
			c0.2,0.3,0.4,0.6,0.6,0.9c0.2,0.3,0.4,0.5,0.6,0.8c0.2,0.2,0.5,0.5,0.7,0.7c0.9,0.8,1.7,1.4,2.2,1.8
			C878.4,441.4,878.7,441.6,878.7,441.6z"/>
	</g>
	<g>
		<path d="M927.2,442.5c0,0-0.2,0.3-0.6,0.8c-0.4,0.5-1,1.3-1.7,2.3c-0.2,0.2-0.4,0.5-0.6,0.8c-0.2,0.3-0.5,0.5-0.8,0.8
			c-0.6,0.5-1.2,1.1-1.9,1.6c-1.5,1-3.5,1.9-5.8,2.1c-2.3,0.2-4.9-0.3-7.2-1.8c-0.6-0.3-1.1-0.8-1.6-1.2c-0.5-0.4-0.9-0.8-1.4-1.3
			c-0.5-0.4-0.9-0.8-1.4-1.4c-0.2-0.2-0.4-0.4-0.7-0.7l-0.7-0.9c-1.6-2.3-2.6-5.1-2.7-7.9c-0.1-2.9,0.7-5.8,2.4-8.3l1.2-1.7l0.6-0.9
			c0.1-0.2,0.2-0.3,0.3-0.5l0.3-0.4c0.2-0.3,0.4-0.6,0.7-0.8c0.3-0.3,0.6-0.6,0.9-0.8c0.6-0.5,1.2-0.9,1.9-1.3
			c2.7-1.5,5.8-2.1,8.8-1.6c1.5,0.2,2.9,0.7,4.1,1.4c0.6,0.3,1.2,0.7,1.8,1.2c0.5,0.4,1,0.8,1.4,1.2c0.5,0.4,0.9,0.8,1.4,1.1
			c0.6,0.5,0.9,0.8,1.3,1.3c0.9,1,1.5,2,2.1,3.1c0.9,2.2,1.1,4.3,1,6.1c-0.2,1.8-0.6,3.3-1.1,4.5c-0.5,1.2-1,2-1.4,2.5
			C927.4,442.2,927.2,442.5,927.2,442.5z M927,442.3c0,0,0.2-0.3,0.6-0.8c0.3-0.5,0.8-1.4,1.1-2.5c0.4-1.1,0.5-2.6,0.3-4.2
			c-0.2-1.6-0.9-3.3-1.9-4.9c-0.3-0.4-0.5-0.8-0.9-1.1c-0.2-0.2-0.3-0.4-0.5-0.6l-0.5-0.5c-0.3-0.3-0.9-0.8-1.2-1
			c-0.5-0.4-0.9-0.7-1.4-1.1c-0.5-0.4-1-0.8-1.5-1.1c-0.4-0.3-0.9-0.6-1.4-0.9c-1-0.5-2-0.9-3.1-1.2c-2.2-0.4-4.7-0.2-7,0.9
			c-0.5,0.3-1.1,0.6-1.6,1c-0.3,0.2-0.5,0.4-0.7,0.5c-0.1,0.1-0.2,0.2-0.4,0.3l-0.4,0.4l-0.4,0.4c-0.1,0-0.2,0.2-0.3,0.3l-0.7,0.8
			l-1.4,1.6c-1.8,1.9-2.8,4.6-2.8,7.3c0,2.7,1.2,5.2,3,6.9l0.7,0.6c0.2,0.2,0.5,0.4,0.8,0.6c0.4,0.3,1.1,0.7,1.5,1.1
			c0.5,0.4,1,0.7,1.5,1.1c0.5,0.3,0.9,0.6,1.4,0.9c1.9,1.1,3.9,1.5,5.8,1.6c1.9,0.1,3.7-0.2,5.2-0.9c0.4-0.2,0.7-0.3,1.1-0.5
			c0.3-0.2,0.6-0.4,0.9-0.6c0.3-0.2,0.6-0.4,0.8-0.6c0.2-0.2,0.5-0.5,0.7-0.7c0.8-0.9,1.4-1.7,1.9-2.2
			C926.8,442.6,927,442.3,927,442.3z"/>
	</g>
	<g>
		<path d="M937.7,441c0,0-0.3-0.2-0.8-0.6c-0.5-0.4-1.3-0.9-2.4-1.6c-0.3-0.2-0.5-0.4-0.8-0.6c-0.3-0.2-0.6-0.5-0.9-0.7
			c-0.6-0.5-1.1-1.1-1.7-1.9c-1.1-1.4-2-3.4-2.4-5.7c-0.3-2.3,0.1-4.9,1.5-7.3c0.3-0.6,0.8-1.1,1.1-1.6c0.4-0.5,0.8-1,1.2-1.4
			c0.4-0.5,0.8-0.9,1.3-1.5c0.2-0.2,0.4-0.5,0.7-0.7l0.8-0.7c2.2-1.7,5-2.8,7.8-3c2.9-0.2,5.8,0.4,8.4,2l1.8,1.1l0.9,0.6
			c0.2,0.1,0.3,0.1,0.5,0.3l0.4,0.3c0.3,0.2,0.6,0.4,0.9,0.7c0.3,0.3,0.6,0.5,0.9,0.8c0.5,0.6,1,1.2,1.4,1.8c1.7,2.6,2.3,5.7,2,8.7
			c-0.2,1.5-0.6,2.9-1.2,4.2c-0.3,0.7-0.7,1.3-1.1,1.8c-0.4,0.5-0.7,1-1.1,1.5c-0.4,0.5-0.7,1-1.1,1.4c-0.5,0.6-0.7,0.9-1.2,1.4
			c-1,1-2,1.6-3,2.2c-2.1,1-4.2,1.3-6,1.3c-1.8-0.1-3.3-0.5-4.5-0.9c-1.2-0.5-2-0.9-2.6-1.3C938,441.2,937.7,441,937.7,441z
			 M937.9,440.7c0,0,0.3,0.2,0.8,0.5c0.6,0.3,1.4,0.7,2.6,1c1.2,0.3,2.6,0.4,4.2,0.1c1.6-0.3,3.3-1,4.8-2.1c0.4-0.3,0.8-0.6,1.1-0.9
			c0.2-0.2,0.4-0.3,0.5-0.5l0.5-0.5c0.3-0.3,0.7-0.9,1-1.3c0.3-0.5,0.7-1,1-1.5c0.3-0.5,0.7-1,1-1.5c0.3-0.4,0.6-0.9,0.8-1.4
			c0.5-1,0.8-2.1,1-3.2c0.3-2.3,0-4.7-1.2-6.9c-0.3-0.5-0.6-1.1-1-1.5c-0.2-0.3-0.4-0.5-0.6-0.7c-0.1-0.1-0.2-0.2-0.3-0.3l-0.4-0.4
			l-0.4-0.4c0-0.1-0.2-0.2-0.4-0.3l-0.8-0.7l-1.6-1.4c-2-1.7-4.7-2.6-7.4-2.4c-2.7,0.2-5.2,1.5-6.8,3.3l-0.6,0.7
			c-0.2,0.2-0.4,0.5-0.5,0.8c-0.3,0.5-0.7,1.1-1,1.6c-0.3,0.5-0.7,1.1-1,1.6c-0.3,0.5-0.6,0.9-0.8,1.4c-1,1.9-1.3,3.9-1.4,5.8
			c0,1.9,0.4,3.7,1.1,5.2c0.2,0.4,0.4,0.7,0.6,1c0.2,0.3,0.4,0.6,0.6,0.9c0.2,0.3,0.4,0.5,0.7,0.8c0.2,0.2,0.5,0.5,0.7,0.7
			c0.9,0.8,1.7,1.4,2.2,1.8C937.6,440.5,937.9,440.7,937.9,440.7z"/>
	</g>
	<g>
		<path d="M960.9,466.6c0,0-0.3-0.1-1-0.2c-0.6-0.2-1.6-0.3-2.8-0.6c-0.3-0.1-0.6-0.1-0.9-0.2c-0.3-0.1-0.7-0.2-1.1-0.3
			c-0.7-0.3-1.5-0.6-2.3-1.1c-1.6-0.9-3.2-2.4-4.3-4.4c-1.2-2-1.8-4.6-1.4-7.3c0.1-0.7,0.3-1.3,0.4-2c0.2-0.6,0.4-1.2,0.6-1.8
			c0.2-0.6,0.4-1.2,0.6-1.9c0.1-0.3,0.2-0.6,0.4-0.9l0.5-1c1.4-2.4,3.5-4.5,6.1-5.8c2.6-1.3,5.6-1.8,8.6-1.3l2.1,0.4l1,0.2
			c0.2,0,0.3,0,0.6,0.1l0.5,0.1c0.3,0.1,0.7,0.2,1.1,0.3c0.4,0.1,0.8,0.3,1.1,0.4c0.7,0.3,1.4,0.7,2,1.1c2.5,1.8,4.3,4.4,5.1,7.3
			c0.4,1.4,0.5,2.9,0.4,4.3c0,0.7-0.2,1.4-0.3,2.1c-0.2,0.6-0.3,1.2-0.5,1.8c-0.2,0.6-0.3,1.2-0.5,1.7c-0.2,0.7-0.3,1.1-0.6,1.8
			c-0.5,1.3-1.2,2.2-2,3.2c-1.6,1.7-3.4,2.8-5.1,3.5c-1.7,0.6-3.3,0.8-4.5,0.8c-1.3,0-2.2-0.1-2.9-0.2
			C961.2,466.7,960.9,466.6,960.9,466.6z M961,466.3c0,0,0.3,0.1,1,0.2c0.6,0.1,1.6,0.2,2.8,0c1.2-0.1,2.6-0.6,4-1.5
			c1.4-0.9,2.7-2.2,3.7-3.8c0.2-0.4,0.5-0.8,0.7-1.3c0.1-0.2,0.2-0.4,0.3-0.7c0.1-0.2,0.2-0.4,0.2-0.7c0.1-0.4,0.3-1.1,0.4-1.5
			c0.1-0.6,0.3-1.2,0.4-1.7c0.1-0.6,0.3-1.2,0.4-1.8c0.1-0.5,0.2-1.1,0.2-1.6c0.1-1.1,0-2.2-0.3-3.3c-0.5-2.2-1.8-4.4-3.7-6
			c-0.5-0.4-1-0.7-1.5-1c-0.3-0.2-0.5-0.3-0.8-0.4c-0.1-0.1-0.3-0.1-0.4-0.2l-0.5-0.2l-0.5-0.2c-0.1,0-0.3-0.1-0.4-0.2l-1-0.3
			l-2-0.6c-2.5-0.8-5.4-0.7-7.8,0.5c-2.4,1.2-4.2,3.3-5.1,5.6l-0.3,0.8c-0.1,0.3-0.1,0.6-0.2,0.9c-0.1,0.5-0.2,1.2-0.3,1.8
			c-0.1,0.6-0.2,1.2-0.3,1.9c-0.1,0.6-0.2,1.1-0.2,1.7c-0.2,2.1,0.3,4.2,0.9,5.9c0.7,1.7,1.8,3.3,3,4.4c0.3,0.3,0.6,0.5,0.9,0.8
			c0.3,0.2,0.6,0.4,0.9,0.6c0.3,0.2,0.6,0.3,0.9,0.5c0.3,0.1,0.6,0.2,0.9,0.3c1.1,0.4,2.1,0.6,2.7,0.8
			C960.6,466.3,961,466.3,961,466.3z"/>
	</g>
</g>
<g>
	<g>
		<path d="M745.8,546.4c0-0.9,0.4-1.4,1.2-1.3c0.4,0,0.9,0.2,1.5,0.5c0.6,0.3,1.2,0.5,1.7,0.5c0.5,0,1-0.2,1.5-0.8
			c0.5-0.6,1-1.3,1.3-2.2c0.6-1.8,0.9-3.5,0.9-5c0-1.5-0.3-3.1-0.8-4.9c-0.5-1.7-1.1-3.4-1.9-4.9c-0.7-1.5-1.5-3-2.2-4.5
			c-1.8-3.5-2.6-6.6-2.6-9.5c0-2.7,0.8-4.9,2.6-6.7c0.9-0.9,2-1.5,3.2-1.6c0.6-0.1,1.2,0,1.8,0.4c0.6,0.3,1,0.7,1.2,1.3
			c-0.4,0.5-0.5,0.8-0.9,1.3c-0.9,0.1-1.5,0-2-0.3c-0.6,0.1-1.2,0.5-1.7,1.1c-0.9,1.1-1.3,2.4-1.3,3.9c0,1.5,0.2,2.9,0.6,4.3
			c0.4,1.4,0.8,2.7,1.4,3.8c0.6,1.1,1.2,2.4,1.8,3.7c0.7,1.3,1.3,2.6,1.8,3.9c1.3,2.9,1.9,6.1,2,9.4c0,2.4-0.6,4.6-1.7,6.7
			c-0.5,1-1.3,1.8-2.2,2.3c-1,0.6-2,0.8-3.2,0.7c-1.3-0.1-2.2-0.4-3-0.9C746.2,547.2,745.8,546.8,745.8,546.4z"/>
		<path d="M764.7,547.8c0-1.8-0.1-2.6-0.1-4.4c0,0,0-0.7,0.1-1.9c-0.1-0.5-0.4-4.8-0.8-12.9s-0.6-13-0.7-14.8c-0.1,0-0.1,0-0.2,0
			c-2.8,0.1-4.2-0.3-4.2-1.4c0-0.3,0.2-0.6,0.6-0.9c0.4-0.3,0.7-0.4,1.1-0.4c2.8,0,4.2,0,7.1,0c0.3,0,0.5-0.1,0.8-0.1
			c1.1-0.1,1.6,0.4,1.6,1.3c0,0.5-0.2,0.9-0.5,1.2c-0.4,0.3-0.8,0.5-1.2,0.5c-1-0.1-1.4-0.2-2.4-0.3c0,0.2-0.1,0.4-0.1,0.6
			c0,3.6,0.3,9,0.9,16.3c0.6,7.3,0.9,12.7,0.9,16.4c0,0.5-0.2,0.8-0.6,1.2c-0.4,0.3-0.8,0.5-1.2,0.4
			C765.3,548.3,765.1,548.1,764.7,547.8z"/>
		<path d="M774.9,529.6c0,2.6,0,3.9-0.1,6.4c0,5.2,0.3,9.4,1,12.5c-0.2,0.6-0.4,0.9-0.6,1.6c-0.6,0-0.9-0.1-1.5-0.1
			c-0.3-0.4-0.4-0.6-0.7-0.9c0-1.8,0.1-3.7,0.1-5.9s-0.1-6.9-0.4-14.1c-0.3-7.2-0.4-12.5-0.4-16.1c0-1.9,0.6-2.8,1.7-2.9
			c1.8-0.1,3.3,0.3,4.6,1.3c1.2,1,1.9,2.6,1.9,4.6c0,1.7,0,2.6,0,4.3c0,1.2-0.2,2.2-0.6,3.2c-0.4,1-0.8,2-1.3,3s-0.8,1.6-0.8,1.8
			c0.2,1,0.5,2.9,1,5.8c1,6.3,2.1,10.9,3.4,13.7c0.4,0.8,0.5,1.5,0.5,1.9s-0.1,0.8-0.3,1.1c-0.2,0.3-0.5,0.4-0.9,0.4
			c-0.7-0.1-1.4-1.1-2.1-3.1c-0.7-2-1.2-4.2-1.6-6.5c-1.2-7.2-2-11.1-2.3-11.9C775.3,529.6,775.2,529.6,774.9,529.6z M775.1,512.1
			c-0.1,0.3-0.1,0.5-0.2,0.9c0,1.6,0,4,0.1,7c0.1,3.1,0.1,5.3,0.1,6.7c0.8-0.5,1.5-1.8,2-3.8c0.5-2.1,0.8-3.7,0.8-4.8
			c0-1.1,0-1.9-0.1-2.4c-0.1-0.5-0.2-1.1-0.3-1.7C777.1,512.7,776.4,512.1,775.1,512.1z"/>
		<path d="M785.7,519.2c-0.1-2.1-0.2-3.1-0.3-5.2c0-2.9,0.7-4.4,2.2-4.5c0.9-0.1,2.2,0.1,3.8,0.6c1.6,0.4,2.4,1.1,2.4,1.9
			c0,0.9-0.5,1.6-1.5,2c-1.6-0.6-2.9-0.9-4-1c0.1,0.9,0.1,1.8,0.1,2.7c-0.1,3.6-0.1,5.4-0.2,9c0,0,0.1,0.4,0.2,1
			c0.7,0,1.1-0.1,1.9-0.1c1.7,0,2.5,0.6,2.5,1.7c0,0.5-0.2,0.8-0.5,1.2c-0.3,0.3-0.7,0.5-1.2,0.5c-0.5,0-1,0-1.5-0.1
			c-0.5,0-0.8,0-1.3,0c0.1,1.6,0.2,3.2,0.2,4.7c-0.1,4.5-0.1,6.8-0.2,11.3c0,2.3,0,3.5,0.1,3.5c1.5,0,2.3,0.1,3.8,0.1
			c1.3,0.1,2,0.6,2,1.7c0,0.6-0.2,1.1-0.7,1.3c-0.5,0.3-1,0.4-1.6,0.3c-1.8-0.1-2.6-0.2-4.4-0.3c-0.5,0-0.9-0.3-1.2-0.7
			c-0.4-0.4-0.6-0.9-0.6-1.4c0-0.7,0-1,0-1.6c-0.1-4.2-0.2-6.3-0.3-10.4C785.5,530,785.6,526.4,785.7,519.2z"/>
		<path d="M797.3,523.5c0-2.4,0-3.7,0.1-6.1c0-2.6-0.1-4.6-0.4-5.9c0.2-1.5,0.7-2.3,1.4-2.3c0.9-0.1,1.4-0.1,2.3-0.1
			c2-0.1,3.4,0.9,4.2,2.9c0.7,1.8,1.1,3.9,1.1,6.4c0,3.1-0.1,4.9-0.2,5.6c-0.1,0.7-0.2,1.4-0.4,2c-0.1,0.6-0.3,1.1-0.5,1.5
			c-0.2,0.4-0.4,0.8-0.8,1.3c-0.3,0.5-0.7,0.8-1,1.2c-0.9,0.7-1.9,1.3-3.1,1.8c0,2.8,0,4.1,0,6.9c0.2,4.9,0.2,7.3,0.4,12.3
			c0,0.5-0.2,1-0.5,1.3c-0.4,0.3-0.8,0.5-1.2,0.5c-0.4-0.3-0.7-0.5-1.1-0.9c-0.4-2.4-0.6-5.5-0.6-9.4c0.1-4.6,0.1-6.8,0.2-11.4
			c-0.2-0.6-0.3-1.1-0.3-1.6c0-0.1,0-0.1,0-0.2C797.1,528.2,797.3,526.4,797.3,523.5z M799.9,516.2c0,5,0.1,7.5,0.1,12.6
			c0,0,0,0.1,0,0.1c2.1-0.3,3.1-4,3.1-11c0-2.1-0.2-3.5-0.6-4.2c-0.4-0.8-1.1-1.1-2-1.1c0-0.1-0.2-0.1-0.6-0.1
			C799.9,514,799.9,514.8,799.9,516.2z"/>
		<path d="M814,551.2c0-2.1-0.1-3.1-0.1-5.1c0,0,0-0.8,0.1-2.3c-0.1-0.6-0.4-5.6-0.8-15.1c-0.4-9.5-0.6-15.3-0.7-17.4
			c-0.1,0-0.1,0-0.2,0c-2.8,0.1-4.2-0.5-4.2-1.8c0-0.4,0.2-0.8,0.6-1c0.4-0.3,0.7-0.4,1.1-0.5c2.8,0.1,4.3,0.2,7.1,0.3
			c0.3,0,0.5,0,0.8-0.1c1.1-0.1,1.6,0.5,1.6,1.5c0,0.6-0.2,1-0.5,1.4c-0.4,0.4-0.8,0.5-1.2,0.6c-1-0.1-1.4-0.2-2.4-0.4
			c0,0.3-0.1,0.4-0.1,0.7c0,4.2,0.3,10.6,0.9,19.1c0.6,8.5,0.9,14.9,0.9,19.2c0,0.5-0.2,1-0.6,1.4c-0.4,0.4-0.8,0.6-1.2,0.5
			C814.6,551.8,814.4,551.6,814,551.2z"/>
		<path d="M821.3,531.8c0-1,0-1.6,0.1-2.6c0-0.2,0-0.3-0.1-0.3c0-0.5,0-0.7,0-1.2c0-7.1,0.3-12.2,0.9-15.3c0.5-2.6,1-4.2,1.5-4.8
			c0.5-0.6,1-0.9,1.5-1c4-0.2,6.8,2.4,8.4,7.8c0.9,3.1,1.3,7,1.3,11.6c0,0.2,0,0.3,0,0.5c0,3.2,0.1,4.8,0.1,7.9
			c0,13.4-2.3,20.1-7,19.8c-1.9-0.1-3.4-1.6-4.4-4.4c-1-2.7-1.6-5.4-1.8-8C821.5,538,821.3,534.7,821.3,531.8z M824.4,522.5
			c-0.1,2.5-0.2,3.8-0.3,6.3c0,6.6,0.4,12.4,1.2,17.4c0.9,2.9,1.7,4.7,2.5,5.2c0.6,0,1.2-0.3,1.7-0.9c0.5-0.7,0.9-1.5,1.2-2.7
			c0.3-1.1,0.6-2.3,0.8-3.6c0.2-1.2,0.3-2.6,0.4-4c0.2-2.5,0.3-4.6,0.3-6.3c0-1.7-0.1-4.4-0.3-8c-0.2-3.6-0.3-6.3-0.3-8.1
			c0-0.5,0-0.7,0-1.2c0-1.7-0.5-3.2-1.3-4.5c-0.8-1.3-1.8-1.9-3.1-1.9c-1.2,0-2,1-2.4,2.7c-0.3,1.5-0.5,3.3-0.5,5.5
			C824.4,520.1,824.4,520.9,824.4,522.5z"/>
		<path d="M837.8,536.5c0-1.7,0-2.5,0-4.1c0-0.7,0-1,0-1.7c0-6.9,0.3-11.8,0.8-14.5c0.6-3.4,1.5-5.7,2.6-7c1.5-1.8,3.4-2.8,5.6-2.9
			c0.5,0,0.9,0.1,1.2,0.5c0.3,0.3,0.4,0.8,0.4,1.2s-0.1,0.9-0.3,1.3c-0.2,0.4-0.5,0.6-0.8,0.6c-1,0-1.5,0-2.5,0.1
			c-0.7,0-1.3,0.7-1.9,1.9c-0.5,1.3-0.9,2.8-1.1,4.6c-0.4,3.4-0.7,6.3-0.6,8.5c0,0.1,0,0.2,0,0.3c-0.1,5.5-0.1,8.2-0.2,13.7
			c0,2.9,0.1,4.9,0.3,6c0.2,1.1,0.5,2,0.7,2.7c0.2,0.7,0.5,1.3,0.9,1.7c0.8,1,1.8,1.6,3,1.6c0.4,0,0.8-0.2,1.1-0.6
			c0.4,0,0.8,0.2,1.1,0.4c0.3,0.3,0.5,0.7,0.5,1.2c0,1.9-1,2.8-2.9,2.7c-0.8,0-1.6-0.2-2.5-0.6c-0.9-0.4-1.5-0.7-1.9-1.1
			C839,551.1,837.8,545.5,837.8,536.5z"/>
		<path d="M850.8,532c0-1.1,0-1.6,0.1-2.7c0-0.2,0-0.4-0.1-0.4c0-0.5,0-0.8,0-1.3c0-7.5,0.3-12.9,0.9-16.1c0.5-2.7,1-4.4,1.5-5.1
			c0.5-0.7,1-1,1.5-1c4.1-0.1,6.8,2.6,8.4,8.3c0.9,3.3,1.3,7.3,1.3,12.2c0,0.2,0,0.3,0,0.5c0,3.3,0.1,5,0.1,8.3
			c0,14.1-2.3,21-7,20.9c-1.9-0.1-3.4-1.6-4.4-4.6c-1-2.8-1.6-5.6-1.8-8.4C851,538.6,850.8,535,850.8,532z M853.9,522.2
			c-0.1,2.7-0.2,4-0.3,6.7c0,7,0.4,13.1,1.2,18.3c0.9,3.1,1.7,4.9,2.5,5.5c0.6,0,1.2-0.3,1.7-1c0.5-0.7,0.9-1.6,1.2-2.8
			c0.3-1.2,0.6-2.5,0.8-3.8c0.2-1.3,0.3-2.7,0.4-4.2c0.2-2.6,0.3-4.8,0.3-6.6c0-1.8-0.1-4.6-0.3-8.4c-0.2-3.8-0.3-6.6-0.3-8.5
			c0-0.5,0-0.8,0-1.3c0-1.8-0.5-3.4-1.3-4.7c-0.8-1.4-1.8-2-3.1-2c-1.2,0-2,1-2.4,2.9c-0.3,1.6-0.5,3.5-0.5,5.8
			C853.9,519.6,853.9,520.5,853.9,522.2z"/>
		<path d="M867.4,536.8c0-1.7,0-2.6,0-4.3c0-0.7,0-1.1,0-1.8c0-7.2,0.3-12.3,0.8-15.1c0.6-3.5,1.5-6,2.6-7.3
			c1.5-1.9,3.4-2.9,5.6-2.9c0.5,0,0.9,0.2,1.2,0.5c0.3,0.4,0.4,0.8,0.4,1.3s-0.1,1-0.3,1.4c-0.2,0.4-0.5,0.6-0.8,0.6
			c-1,0-1.5,0-2.5,0c-0.7,0-1.3,0.7-1.9,2c-0.5,1.3-0.9,2.9-1.1,4.8c-0.4,3.6-0.7,6.5-0.6,8.8c0,0.1,0,0.2,0,0.4
			c-0.1,5.7-0.1,8.5-0.2,14.2c0,3,0.1,5.1,0.3,6.2c0.2,1.2,0.5,2.1,0.7,2.8c0.2,0.7,0.5,1.3,0.9,1.8c0.8,1.1,1.8,1.6,3,1.7
			c0.4,0,0.8-0.2,1.1-0.6c0.4,0,0.8,0.1,1.1,0.4c0.3,0.3,0.5,0.7,0.5,1.2c0,2-1,2.9-2.9,2.9c-0.8,0-1.6-0.2-2.5-0.6
			c-0.9-0.3-1.5-0.7-1.9-1.1C868.5,552,867.4,546.3,867.4,536.8z"/>
		<path d="M880.3,536.9c0-1.7,0-2.6,0-4.4c0-0.7,0-1.1,0-1.8c0-7.3,0.3-12.4,0.8-15.3c0.6-3.6,1.5-6,2.6-7.4
			c1.5-1.9,3.4-2.9,5.6-2.9c0.5,0,0.9,0.2,1.2,0.5c0.3,0.4,0.4,0.8,0.4,1.3s-0.1,1-0.3,1.4c-0.2,0.4-0.5,0.6-0.8,0.7
			c-1,0-1.5,0-2.5,0c-0.7,0-1.3,0.7-1.9,2c-0.5,1.3-0.9,2.9-1.1,4.8c-0.4,3.6-0.7,6.6-0.6,8.9c0,0.1,0,0.2,0,0.4
			c-0.1,5.8-0.1,8.6-0.2,14.4c0,3,0.1,5.1,0.3,6.3c0.2,1.2,0.5,2.1,0.7,2.8c0.2,0.7,0.5,1.3,0.9,1.8c0.8,1.1,1.8,1.6,3,1.7
			c0.4,0,0.8-0.2,1.1-0.6c0.4,0,0.8,0.1,1.1,0.4c0.3,0.3,0.5,0.7,0.5,1.3c0,2-1,3-2.9,2.9c-0.8,0-1.6-0.2-2.5-0.5
			c-0.9-0.3-1.5-0.7-1.9-1.1C881.4,552.3,880.3,546.5,880.3,536.9z"/>
		<path d="M906.3,521.6c0,0.5,0,0.8,0.1,1.3c-0.2,9,0.6,31.4-6.7,33.5c-1.2,0.4-3-1-3.9-3.1c-0.9-2.1-1.4-4.2-1.6-6.3
			c-0.3-3.2-0.5-6.9-0.5-11c0-4.2-0.1-10.1-0.1-18c-0.1-4.3-0.1-6.5-0.2-10.8c0.3-1.1,0.7-1.6,1.1-1.6c0.4,0,0.8,0.4,1.1,1.4
			c0.3,0.9,0.5,1.9,0.5,2.9c0,8.2,0,12.3,0,20.5c0,1.8,0.1,4.5,0.4,8c0.2,3.5,0.4,6.2,0.4,8c0,3.7,2.5,6.1,3.3,5.6
			c5.1-3.1,3.6-28.1,3.7-40.6c0-1.7,0-2.5,0-4.2c0-0.5,0-0.8,0-1.3c0-0.6,0.1-1,0.3-1.3c0.2-0.3,0.5-0.4,1-0.5s0.8,0.1,1.1,0.3
			c0.2,0.2,0.4,0.5,0.5,0.9c0.1,0.6,0.2,1.4,0.2,2.4c-0.1,3-0.2,4.6-0.4,7.6C906.4,517.8,906.4,519.1,906.3,521.6z"/>
		<path d="M910.2,552.2c0.9,0.2,1.3,0.3,2.2,0.6c0.7,0,1.2-0.4,1.7-1.3c0.5-0.8,0.9-1.9,1.1-3.1c0.5-2.4,0.7-4.6,0.7-6.4
			c0-1.9-0.2-3.7-0.6-5.5c-0.4-1.8-0.9-3.5-1.6-5.1c-0.6-1.6-1.2-3.2-1.9-4.8c-1.5-3.8-2.2-7.6-2.2-11.3c0-2.3,0.3-4.3,0.8-6
			c1-3.3,2.3-4.9,3.9-4.9c0.6,0,1.2,0.3,1.8,0.8c0.6,0.6,0.8,1.2,0.8,1.9c0,1.2-0.4,1.7-1.3,1.7c-0.4,0-0.7-0.1-1.1-0.4
			c-1.1,0.1-1.9,1.9-2.2,5.4c-0.1,0.8-0.1,1.7-0.1,2.7c0,1,0.2,2.3,0.5,3.8c0.3,1.5,0.7,2.8,1.2,4c0.5,1.2,1,2.5,1.5,3.9
			c0.5,1.4,1,2.8,1.5,4.1c1.1,3.1,1.6,6.6,1.6,10.6c0,3-0.5,6-1.5,8.8c-0.5,1.4-1.2,2.5-2,3.4c-0.9,0.9-1.9,1.3-3,1.3
			c0,0.1,0,0.1,0,0.2c-1.4-0.3-2.2-1.3-2.4-2.9C909.8,553,910,552.7,910.2,552.2z"/>
		<path d="M932.2,554.2c0-2.3-0.1-3.5-0.1-5.8c0,0,0-0.9,0.1-2.6c-0.1-0.6-0.4-6.3-0.8-17.1c-0.4-10.8-0.6-17.3-0.7-19.7
			c-0.1,0-0.1,0-0.2,0c-2.8-0.1-4.2-0.8-4.2-2.3c0-0.5,0.2-0.9,0.6-1.2c0.4-0.3,0.7-0.5,1.1-0.5c2.8,0.3,4.3,0.4,7.1,0.7
			c0.3,0,0.5,0,0.8,0c1.1,0,1.6,0.6,1.6,1.8c0,0.6-0.2,1.1-0.5,1.5c-0.4,0.4-0.8,0.6-1.2,0.6c-1-0.2-1.4-0.3-2.4-0.5
			c0,0.3-0.1,0.5-0.1,0.8c0,4.8,0.3,11.9,0.9,21.5c0.6,9.5,0.9,16.7,0.9,21.5c0,0.6-0.2,1.1-0.6,1.6s-0.8,0.7-1.2,0.7
			C932.8,554.8,932.6,554.6,932.2,554.2z"/>
		<path d="M943.2,509.9c-0.1,7.5-0.1,11.3-0.2,18.8c0.6,0.2,1.6,0.4,2.9,0.4c0.8,0,1.1,0,1.9,0c0.1-0.2,0.1-1,0.1-2.4
			c0-1.4-0.1-4.5-0.3-9.2c-0.2-4.7-0.3-8.3-0.3-10.7c0-0.6,0.2-1,0.5-1.4c0.3-0.4,0.6-0.6,0.9-0.6c0.3,0,0.5,0,0.7,0.1
			c0.2,0.1,0.4,0.2,0.6,0.3c0.2,0.1,0.5,0.2,0.5,0.3c2.4,3.6,0.3,19.1,0.5,28.6c0.3,12.5,0.5,19,0.5,19.4s-0.2,0.8-0.5,1.2
			c-0.4,0.4-0.8,0.6-1.2,0.6c-0.5,0-0.8-0.5-1.1-1.4c-0.3-1-0.5-2.4-0.5-4.2c-0.1-1.9-0.2-3.5-0.2-4.9c0-0.6,0-1.3,0-2
			c0-1,0-2.2,0-3.5c0-2.3,0.1-3.7,0.1-4c0-0.1,0-0.2,0-0.3c0-0.9,0-1.3,0.1-2.2c-0.1-0.3-0.2-0.4-0.3-0.7c0,0,0,0,0-0.1
			c-0.3,0.1-0.6,0.1-0.9,0.1c-1.3-0.3-2-0.4-3.4-0.7c0,3.5,0,5.2,0,8.7c0.1,5,0.2,7.5,0.3,12.4c0,0.7-0.1,1.3-0.4,1.9
			c-0.3,0.6-0.6,0.8-1.1,0.8c-0.7,0-1.2-0.9-1.4-2.7c-0.3-1.8-0.4-4.3-0.4-7.5c0.1-4.6,0.1-6.9,0.2-11.5c0-2.4,0-3.7-0.1-3.9
			c0-0.1,0-0.2,0-0.4c0.1-2.6,0.2-4.1,0.2-4.4c-0.1-6.8-0.2-10.2-0.4-17.1c0-0.6,0.1-1.1,0.4-1.6c0.3-0.5,0.6-0.7,1-0.7
			C942.6,505.3,943.2,506.9,943.2,509.9z"/>
		<path d="M955.1,517.3c-0.1-2.5-0.2-3.8-0.3-6.3c0-3.5,0.7-5.3,2.2-5.3c0.9,0,2.2,0.3,3.8,1c1.6,0.6,2.4,1.5,2.4,2.4
			c0,1-0.5,1.8-1.5,2.3c-1.6-0.8-2.9-1.3-4-1.5c0.1,1.1,0.1,2.1,0.1,3.2c-0.1,4.3-0.1,6.4-0.2,10.7c0,0,0.1,0.4,0.2,1.2
			c0.7,0,1.1-0.1,1.9-0.1c1.7,0,2.5,0.7,2.5,2c0,0.5-0.2,1-0.5,1.4c-0.3,0.4-0.7,0.6-1.2,0.6c-0.5,0-1,0-1.5-0.1c-0.5,0-0.8,0-1.3,0
			c0.1,1.9,0.2,3.8,0.2,5.7c-0.1,5.4-0.1,8.1-0.2,13.6c0,2.8,0,4.2,0.1,4.2c1.5-0.1,2.3-0.2,3.9-0.3c1.3,0,2,0.6,2,1.8
			c0,0.8-0.2,1.3-0.7,1.7s-1,0.5-1.6,0.5c-1.8,0-2.7,0.1-4.4,0.1c-0.5,0-0.9-0.2-1.3-0.7c-0.4-0.4-0.6-1-0.6-1.6c0-0.8,0-1.2,0-2
			c-0.1-5.1-0.2-7.6-0.3-12.7C954.9,530.4,954.9,526,955.1,517.3z"/>
		<path d="M968.7,530c0,3.2,0,4.8-0.1,8c0,6.5,0.3,11.7,1,15.4c-0.2,0.8-0.4,1.2-0.6,2c-0.6,0-0.9,0-1.5,0c-0.3-0.4-0.4-0.6-0.7-1.1
			c0-2.2,0.1-4.7,0.1-7.5c0-2.8-0.1-8.7-0.4-17.8c-0.3-9.1-0.4-15.9-0.4-20.3c0-2.3,0.6-3.5,1.7-3.5c1.8,0,3.4,0.8,4.6,2.1
			c1.2,1.4,1.9,3.3,1.9,5.8c0,2.1,0,3.1,0,5.2c0,1.4-0.2,2.7-0.6,3.9c-0.4,1.2-0.8,2.4-1.3,3.7c-0.5,1.3-0.8,2-0.8,2.1
			c0.2,1.2,0.5,3.6,1,7.1c1,7.7,2.2,13.2,3.4,16.5c0.4,0.9,0.5,1.7,0.5,2.2s-0.1,1-0.3,1.4c-0.2,0.4-0.5,0.6-0.9,0.6
			c-0.7,0-1.4-1.1-2.1-3.5c-0.7-2.4-1.2-5-1.6-7.8c-1.2-8.8-2-13.7-2.3-14.6C969.1,530,969,530,968.7,530z M968.9,508.1
			c-0.1,0.4-0.1,0.6-0.2,1c0,2,0,5,0.1,8.8c0.1,3.8,0.1,6.6,0.1,8.3c0.8-0.6,1.5-2.2,2-4.7c0.5-2.5,0.8-4.5,0.8-5.8
			c0-1.3,0-2.3-0.1-3c-0.1-0.6-0.2-1.3-0.3-2.1C970.9,509.1,970.2,508.2,968.9,508.1z"/>
		<path d="M998.4,553.1c0-3.7,0-5.5,0-9.1c0-2.1-0.1-5.2-0.4-9.3c-0.3-4.1-0.4-6.8-0.4-8.3c0-1.4,0-3.1,0.1-5.1
			c0.1-2,0.1-3.4,0.1-4.4c-0.2,0.6-0.7,3.9-1.8,9.9c-2.7,15.4-4.6,23.3-5.7,23.3c-0.7,0-1.2-0.2-1.6-0.8c-0.4-0.6-0.6-1.3-0.6-2.2
			c0-2.3-0.7-7-2-14.1c-1.3-7.1-2.4-12.7-3.3-16.5c-0.4,11.6-0.9,23.2-1,34.8c0,0.9,0,1.3,0.1,2.2c0,0.8-0.1,1.4-0.4,1.8
			c-0.2,0.4-0.6,0.6-1.1,0.7c-0.5,0-0.9-0.1-1.3-0.5c-0.3-0.3-0.5-0.7-0.5-1.2c0-5,0.3-12.5,0.8-22.4c0.5-10,1.6-18.5,0.8-22.4
			c-0.1-0.4-0.3-1-0.3-1.5c0-0.6,0.2-1,0.6-1.3c0.4-0.3,0.9-0.4,1.4-0.4c0.7,0,2.2,5,4.4,14.7c2.2,9.8,3.6,16.4,4.1,20.1
			c0.2-0.7,0.5-2.5,1-5.4c0.5-2.9,1-5.8,1.5-8.9c0.5-3.1,1.1-6.2,1.8-9.3c1.5-7.2,2.7-10.7,3.7-10.7c0.5,0,0.9,0.2,1.3,0.6
			c0.4,0.4,0.6,0.8,0.6,1.4c0,3.4,0.1,8.5,0.3,15.4c0.2,6.8,0.3,11.7,0.3,14.8c-0.1,3-0.1,4.5-0.1,7.5c0,0,0,0,0,0
			c0,0.5,0.1,2.2,0.3,5.1c0,0.6,0.1,0.8,0.1,1.4c0.2,0.5,0.2,1,0.2,1.6s-0.2,1.2-0.5,1.8s-0.7,1-1.3,1
			C999,557.5,998.4,556.1,998.4,553.1z"/>
		<path d="M1004.5,532c0-1.1,0-1.6,0.1-2.7c0-0.2,0-0.3-0.1-0.3c0-0.5,0-0.8,0-1.3c0-7.4,0.3-12.7,0.9-15.8c0.5-2.6,1-4.2,1.5-4.8
			c0.5-0.6,1-0.9,1.5-0.9c4.1,0.2,6.8,3,8.4,8.4c0.9,3.1,1.3,6.9,1.3,11.5c0,0.2,0,0.3,0,0.5c0,3.1,0.1,4.7,0.1,7.8
			c0,13.2-2.3,19.9-7,20.2c-1.9,0.1-3.4-1.3-4.4-4.1c-1-2.7-1.6-5.4-1.8-8.1C1004.7,538.4,1004.5,534.9,1004.5,532z M1007.6,522.3
			c-0.1,2.6-0.2,3.9-0.3,6.5c0,6.8,0.4,12.7,1.2,17.7c0.9,2.9,1.7,4.6,2.5,5.1c0.6,0,1.2-0.4,1.7-1.1c0.5-0.7,0.9-1.6,1.2-2.8
			c0.3-1.2,0.6-2.4,0.8-3.6c0.2-1.2,0.3-2.6,0.4-4c0.2-2.5,0.3-4.6,0.3-6.3c0-1.7-0.1-4.4-0.3-8s-0.3-6.3-0.3-8c0-0.5,0-0.7,0-1.2
			c0-1.7-0.5-3.2-1.3-4.6c-0.8-1.3-1.8-2-3.1-2.1c-1.2,0-2,0.8-2.4,2.6c-0.3,1.5-0.5,3.4-0.5,5.6
			C1007.6,519.9,1007.6,520.7,1007.6,522.3z"/>
		<path d="M1022,523.2c0-2.6,0-3.9,0.1-6.5c0-2.8-0.1-4.9-0.4-6.3c0.2-1.6,0.7-2.4,1.4-2.3c0.9,0,1.4,0.1,2.3,0.1
			c2,0.1,3.4,1.2,4.2,3.4c0.7,1.9,1.1,4.1,1.1,6.6c0,3.1-0.1,5-0.2,5.7c-0.1,0.7-0.2,1.4-0.4,2c-0.1,0.6-0.3,1.1-0.5,1.5
			c-0.2,0.4-0.4,0.8-0.8,1.3c-0.3,0.5-0.7,0.9-1,1.2c-0.9,0.7-1.9,1.3-3.1,1.9c0,2.9,0,4.3,0,7.2c0.2,5.1,0.2,7.7,0.4,12.8
			c0,0.6-0.2,1-0.5,1.4c-0.4,0.4-0.8,0.6-1.2,0.7c-0.4-0.3-0.7-0.5-1.1-0.8c-0.4-2.5-0.6-5.8-0.6-10c0.1-4.9,0.1-7.3,0.2-12.2
			c-0.2-0.6-0.3-1.2-0.3-1.7c0-0.1,0-0.1,0-0.2C1021.8,528.2,1022,526.2,1022,523.2z M1024.6,515.6c0,5.3,0.1,7.9,0.1,13.2
			c0,0,0,0.1,0,0.1c2.1-0.4,3.1-4.1,3.1-11.4c0-2.1-0.2-3.6-0.6-4.4c-0.4-0.8-1.1-1.3-2-1.3c0-0.1-0.2-0.1-0.6-0.1
			C1024.6,513.3,1024.6,514.1,1024.6,515.6z"/>
		<path d="M1037.1,512.2c-0.1,6.6-0.1,9.8-0.2,16.4c0.6,0.2,1.6,0.3,2.9,0.3c0.8,0,1.1,0,1.9,0c0.1-0.2,0.1-0.9,0.1-2.1
			s-0.1-3.8-0.3-7.9c-0.2-4.1-0.3-7.2-0.3-9.3c0-0.5,0.2-0.9,0.5-1.2c0.3-0.3,0.6-0.5,0.9-0.4c0.3,0,0.5,0.1,0.7,0.1
			c0.2,0.1,0.4,0.2,0.6,0.3c0.2,0.1,0.5,0.2,0.5,0.2c1.4,2.1,0.2,13.8,0.5,24.5c0.3,10.7,0.5,16.2,0.5,16.6s-0.2,0.7-0.5,1.1
			c-0.4,0.4-0.8,0.6-1.2,0.6c-0.4,0-0.8-0.4-1.1-1.2c-0.3-0.8-0.5-2-0.5-3.6c-0.1-1.6-0.2-3-0.2-4.2c0-0.5,0-1.1,0-1.7
			c0-0.9,0-1.9,0-3c0-2,0.1-3.2,0.1-3.5c0-0.1,0-0.2,0-0.3c0-0.7,0-1.1,0.1-1.9c-0.1-0.2-0.2-0.4-0.3-0.6c0,0,0,0,0-0.1
			c-0.3,0.1-0.6,0.1-0.9,0.1c-1.3-0.2-2-0.3-3.4-0.6c0,3,0,4.5,0,7.5c0.1,4.3,0.2,6.5,0.3,10.8c0,0.6-0.1,1.2-0.4,1.7
			c-0.3,0.5-0.6,0.8-1.1,0.8c-0.7,0-1.2-0.7-1.4-2.3c-0.3-1.6-0.4-3.8-0.4-6.6c0.1-4,0.1-6.1,0.2-10.1c0-2.1,0-3.2-0.1-3.5
			c0-0.1,0-0.2,0-0.3c0.1-2.3,0.2-3.6,0.2-3.9c-0.1-6-0.2-9-0.4-15c0-0.5,0.1-1,0.4-1.4c0.3-0.4,0.6-0.6,1-0.5
			C1036.5,508.3,1037.1,509.6,1037.1,512.2z"/>
		<path d="M1054,529.9c0.1,5.3,0.2,8,0.3,13.3c0,0.7,0,1.1,0,1.9c0,0.7,0,1,0,1.7c0.3,0,0.4,0,0.7,0c0.6-0.1,0.9-0.1,1.5-0.2
			c1.4-0.1,2.1,0.4,2.1,1.4c0,0.5-0.2,1-0.5,1.4c-0.3,0.4-0.8,0.6-1.2,0.6c-0.9,0.1-1.4,0.1-2.3,0.2c-1.6,0.1-2.6,0.1-3,0.1
			c-0.3,0.1-0.5,0.1-0.6,0.1c-1.2,0.1-1.9-0.3-1.9-1.3c0-0.4,0.1-0.8,0.3-1.1c0.2-0.4,0.4-0.6,0.6-0.6c0.6,0,0.9-0.1,1.5-0.1
			c0-0.3,0.1-0.5,0.1-0.8c-0.1-5.3-0.2-8-0.4-13.4c0.1-5.6,0.2-8.4,0.3-14c0-2.4-0.1-4.7-0.3-6.8c-0.4,0-0.6,0-1,0
			c-0.5,0-0.7,0-1.2,0c-0.5,0-0.9-0.2-1.2-0.4c-0.3-0.3-0.4-0.7-0.4-1.4c0-1,0.9-1.4,2.6-1.3c2.5,0.1,3.7,0.2,6.2,0.4
			c1.4,0.1,2.1,0.6,2.1,1.4c0,0.4-0.2,0.7-0.5,1c-0.3,0.3-0.7,0.4-1,0.4c-1.1-0.1-1.6-0.1-2.7-0.1c0.1,1.7,0.2,3.7,0.2,5.8
			C1054.2,522.7,1054.1,525.1,1054,529.9z"/>
		<path d="M1064.3,516c0.1,5.8,0.1,8.7,0.2,14.5c-0.2,0.6-0.3,1.2-0.3,2.1c0,0.5,0,0.7,0,1.2c-0.1,3.8-0.1,5.8-0.2,9.6
			c0,2.8,0.6,4.1,1.8,4c0.9-0.1,1.3-0.1,2.2-0.2c1.9-0.1,2.8,0.4,2.8,1.5c0,0.4-0.2,0.8-0.5,1.1c-0.3,0.3-0.7,0.5-1.1,0.6
			c-1.3-0.4-2.8-0.5-4.7-0.3c-0.6,0.4-1.1,0.6-1.6,0.7c-0.5,0-0.9-0.1-1.2-0.5c-0.3-0.4-0.4-0.8-0.4-1.3c0-3,0.1-7.6,0.3-13.6
			c0.2-6.1,0.3-10.6,0.3-13.6c0-0.2,0-0.3,0-0.4c-0.2-2.5-0.3-4.5-0.3-5.7c0-3.9,0.6-5.7,1.8-5.7c0.4,0,0.7,0.2,0.9,0.5
			c0.3,0.3,0.4,0.7,0.4,1.1C1064.5,513.3,1064.4,514.2,1064.3,516z"/>
		<path d="M1085.6,523.4c0,0.4,0,0.6,0.1,0.9c0,16.4-2.3,24.8-6.7,25.2c-1.7,0.2-3-0.5-3.8-2c-0.9-1.6-1.4-3.1-1.6-4.7
			c-0.3-2.5-0.5-5.3-0.5-8.5c0-3.2-0.1-7.9-0.1-14c-0.1-3.3-0.1-5-0.2-8.4c0.3-0.8,0.7-1.2,1.1-1.2c0.4,0,0.8,0.4,1.1,1.1
			c0.3,0.7,0.5,1.5,0.5,2.3c0,6.3,0,9.4,0,15.7c0,1.4,0.1,3.4,0.4,6.1c0.2,2.7,0.4,4.7,0.4,6.1c0,2.8,2.2,4.6,3.3,4
			c4.8-2.6,3.8-21.9,3.7-30.4c0-1.3,0-1.9,0-3.1c0-0.4,0-0.6,0-0.9c0-0.4,0.1-0.8,0.3-1c0.2-0.2,0.5-0.3,1-0.3s0.8,0.1,1.1,0.3
			c0.2,0.2,0.4,0.4,0.5,0.7c0.1,0.5,0.2,1.1,0.2,1.8c-0.1,2.2-0.2,3.3-0.4,5.5C1085.8,520.6,1085.7,521.6,1085.6,523.4z"/>
		<path d="M1089.5,545.5c0.9,0.1,1.3,0.1,2.2,0.2c0.7-0.1,1.2-0.4,1.7-1c0.5-0.6,0.9-1.4,1.1-2.3c0.5-1.7,0.7-3.2,0.7-4.5
			c0-1.3-0.2-2.6-0.6-3.8c-0.4-1.3-0.9-2.4-1.6-3.5s-1.2-2.2-1.8-3.4c-1.5-2.8-2.2-5.5-2.2-8.2c0-1.6,0.3-3.1,0.8-4.3
			c1-2.3,2.3-3.3,3.9-3.2c0.6,0.1,1.2,0.3,1.7,0.7c0.6,0.4,0.8,0.9,0.8,1.4c0,0.8-0.4,1.2-1.3,1.1c-0.4,0-0.7-0.2-1.1-0.4
			c-1.1,0-1.8,1.2-2.2,3.7c-0.1,0.5-0.1,1.2-0.1,1.9c0,0.7,0.2,1.6,0.5,2.7c0.3,1.1,0.7,2,1.2,2.9c0.5,0.8,1,1.7,1.5,2.7
			c0.5,1,1,2,1.5,2.9c1.1,2.1,1.6,4.6,1.6,7.3c0,2.1-0.5,4.1-1.4,6.2c-0.5,1-1.1,1.8-2,2.5c-0.9,0.7-1.9,1.1-3,1.2
			c0,0.1,0,0.1,0,0.1c-1.4-0.1-2.2-0.7-2.3-1.9C1089.2,546.1,1089.3,545.9,1089.5,545.5z"/>
	</g>
</g>
<g>
	<g>
		<path d="M309,522c0,0.7,0,1,0.1,1.7c0,0.1,0,0.1,0,0.2c0.1,3,0.2,7.6,0.2,13.7c0,0.5,0,0.8,0,1.3c1.6,0,2.4,0,4-0.1
			c0.7,0.5,1.1,1,1.1,1.5c0,0.5-0.1,0.9-0.4,1.2c-0.3,0.3-0.5,0.5-0.8,0.5c-0.3,0-0.6-0.1-0.9-0.2c-0.3,0.1-0.6,0.1-1,0.1
			c-0.7,0-1,0-1.7-0.1c-0.4,0.4-0.8,0.7-1.3,0.7c-0.5,0-1-0.2-1.3-0.5c-0.4-0.3-0.5-0.7-0.5-1.2c0.1-0.9,0.2-1.4,0.3-2.3
			c0-4-0.2-9.9-0.5-17.8c-0.3-7.9-0.5-13.8-0.5-17.8c0-0.3,0.1-0.6,0.4-0.8c0.3-0.2,0.6-0.4,1-0.4c0.4,0,0.7,0.1,1,0.3
			c0.3,0.3,0.5,0.6,0.5,1C308.7,510.7,308.8,514.4,309,522z"/>
		<path d="M328.3,530.6c0.2,1.3,0.3,2,0.6,3.4c0,0.4,0.2,1.5,0.5,3.3c0.3,1.7,0.5,2.9,0.5,3.4c0,0,0,0,0,0.1c0,0.8-0.3,1.3-0.9,1.6
			c-0.7,0-1.3-0.1-1.7-0.4c-0.4-0.2-0.6-0.7-0.6-1.4c0-1.6-0.3-3.8-0.8-6.8c-2.1-0.3-3.1-0.4-5.1-0.7c-0.3,1.2-0.6,2.5-0.7,4
			c-0.2,1.4-0.3,2.5-0.5,3.1c-0.3,1.3-0.9,2-1.7,2c-0.4,0-0.8-0.1-1.1-0.4c-0.3-0.3-0.5-0.6-0.5-1c0.1-0.2,0.1-0.3,0.1-0.5
			c2.3-9.1,4-18.3,5.2-27.5c0-0.2,0.1-1,0.2-2.2c0.2-2.7,0.5-4.4,1-5.1c0.7-0.1,1.1-0.1,1.8-0.2c0.5,0,0.9,0,1.2,0.2
			c0.4,0.2,0.5,0.5,0.5,1c0,2.8,0.4,6.9,1.1,12.3S328.3,528.2,328.3,530.6z M325.6,531.8c-0.1-0.5-0.2-1.5-0.2-2.8s-0.1-3-0.2-4.9
			c-0.1-2-0.4-4.2-0.6-6.8c-0.3-2.6-0.5-4.5-0.6-5.6c-1.6,9.3-2.6,15.7-3.1,19.4C321.6,531.4,323.1,531.7,325.6,531.8z"/>
		<path d="M332.1,528.3c0-1.3,0-1.9,0-3.2c0-0.5,0-0.8,0-1.3c0-5.4,0.3-9.2,0.8-11.4c0.6-2.7,1.5-4.6,2.5-5.7
			c1.5-1.5,3.3-2.4,5.6-2.6c0.5,0,0.9,0.1,1.2,0.3c0.3,0.3,0.4,0.6,0.4,1s-0.1,0.7-0.3,1.1c-0.2,0.3-0.5,0.5-0.8,0.5
			c-1,0.1-1.5,0.1-2.4,0.2c-0.7,0.1-1.3,0.6-1.9,1.6c-0.5,1-0.9,2.2-1.1,3.7c-0.4,2.7-0.7,5-0.6,6.7c0,0.1,0,0.2,0,0.3
			c-0.1,4.3-0.1,6.5-0.2,10.8c0,2.3,0.1,3.8,0.3,4.7c0.2,0.9,0.5,1.6,0.7,2.1c0.2,0.5,0.5,1,0.9,1.3c0.8,0.8,1.8,1.2,3,1.2
			c0.4,0,0.8-0.2,1.1-0.5c0.4,0,0.8,0.1,1.1,0.3c0.3,0.2,0.5,0.5,0.5,0.9c0,1.5-1,2.2-2.9,2.3c-0.8,0-1.6-0.1-2.5-0.4
			c-0.9-0.2-1.5-0.5-1.9-0.8C333.3,539.7,332.1,535.4,332.1,528.3z"/>
		<path d="M350.3,540.6c0-1.8-0.1-2.6-0.1-4.4c0,0,0-0.7,0.1-2c-0.1-0.5-0.4-4.8-0.8-12.9c-0.4-8.1-0.6-13-0.7-14.8
			c-0.1,0-0.1,0-0.2,0c-2.8,0.1-4.2-0.3-4.2-1.4c0-0.4,0.2-0.7,0.6-0.9c0.4-0.3,0.7-0.4,1.1-0.4c2.8,0,4.3,0,7.1,0
			c0.3,0,0.5-0.1,0.8-0.1c1.1-0.1,1.6,0.4,1.6,1.3c0,0.5-0.2,0.9-0.5,1.2c-0.4,0.3-0.8,0.5-1.2,0.5c-1-0.1-1.4-0.1-2.4-0.2
			c0,0.2-0.1,0.4-0.1,0.6c0,3.6,0.3,9,0.9,16.2c0.6,7.2,0.9,12.7,0.9,16.3c0,0.4-0.2,0.8-0.6,1.2c-0.4,0.3-0.8,0.5-1.2,0.5
			C350.9,541.1,350.7,540.9,350.3,540.6z"/>
		<path d="M357.7,523.8c0-0.9,0-1.3,0.1-2.2c0-0.2,0-0.3-0.1-0.3c0-0.4,0-0.6,0-1c0-6.1,0.3-10.4,0.9-13c0.5-2.2,1-3.6,1.5-4.1
			c0.5-0.5,1-0.8,1.5-0.9c4-0.3,6.8,1.9,8.4,6.4c0.9,2.6,1.3,5.9,1.3,9.7c0,0.2,0,0.3,0,0.4c0,2.7,0.1,4,0.1,6.7c0,11.3-2.3,17-7,17
			c-1.9,0-3.4-1.2-4.4-3.5c-1-2.3-1.6-4.5-1.8-6.7C357.8,529.1,357.7,526.2,357.7,523.8z M360.7,515.7c-0.1,2.2-0.2,3.2-0.3,5.4
			c0,5.6,0.4,10.5,1.2,14.7c0.9,2.4,1.7,3.9,2.5,4.3c0.6,0,1.2-0.3,1.7-0.9s0.9-1.4,1.2-2.3c0.3-1,0.6-2,0.8-3.1
			c0.2-1,0.3-2.2,0.4-3.4c0.2-2.1,0.3-3.9,0.3-5.3c0-1.5-0.1-3.7-0.3-6.8c-0.2-3-0.3-5.3-0.3-6.8c0-0.4,0-0.6,0-1
			c0-1.4-0.5-2.7-1.3-3.8c-0.8-1.1-1.8-1.6-3.1-1.5c-1.2,0.1-2,0.9-2.4,2.4c-0.3,1.3-0.5,2.8-0.5,4.7
			C360.7,513.7,360.7,514.4,360.7,515.7z"/>
		<path d="M375.4,507.4c-0.1-1.2-0.2-1.8-0.3-3.1c0-0.1,0-0.2,0-0.3c0-0.8,0.1-1.5,0.3-2c0.2-0.5,0.8-0.8,1.8-0.8
			c0.9-0.1,1.9,0.2,2.8,0.7c0.9,0.5,1.6,1.3,2.1,2.2c1,1.9,1.6,4.1,1.6,6.6c0,2.5-0.2,4.5-0.5,5.9c-0.3,1.5-0.9,2.8-1.6,4.1
			c1.4,1.5,2.1,3.9,2.3,7.3c0,0.8,0.1,1.7,0.1,2.8c0,1.1-0.1,2.2-0.2,3.2c-0.2,1.1-0.4,2.1-0.8,3c-0.4,1-0.9,1.8-1.5,2.5
			c-1.3,1.5-3,2.3-5.1,2.3c-0.7,0-1.2-0.4-1.4-1.1c-0.1-0.6-0.2-1.2-0.2-2c0.2-5.1,0.3-7.6,0.5-12.6
			C375.2,518.7,375.3,514.9,375.4,507.4z M377.6,536c0,0.1,0,0.2,0.1,0.3c0,1.1,0,1.6,0,2.7c1.2-0.3,2.1-1.1,2.6-2.4
			c0.6-1.3,0.9-2.5,0.9-3.6c0-1.1,0-2,0-2.6c0-0.6-0.1-1.4-0.2-2.4s-0.3-1.7-0.5-2.4c-0.5-1.7-1.3-2.7-2.4-2.9
			c-0.2,2.6-0.2,5.6-0.2,9C377.7,533.4,377.7,534.3,377.6,536z M377.9,510.3c0,3.5,0,5.3,0,8.9c1.8-0.1,2.8-2.7,2.8-7.6
			c0-5-0.7-7.5-2.1-7.6C378.1,504.9,377.9,507.1,377.9,510.3z"/>
		<path d="M398.7,528.9c0.2,1.5,0.3,2.2,0.6,3.7c0,0.5,0.2,1.7,0.5,3.6c0.3,1.9,0.5,3.2,0.5,3.8c0,0,0,0,0,0.1
			c0,0.9-0.3,1.5-0.9,1.7c-0.7,0-1.3-0.1-1.7-0.4c-0.4-0.3-0.6-0.8-0.6-1.6c0-1.7-0.3-4.2-0.8-7.5c-2.1-0.3-3.1-0.5-5.2-0.8
			c-0.3,1.3-0.6,2.8-0.7,4.4c-0.2,1.6-0.3,2.8-0.5,3.5c-0.3,1.5-0.9,2.2-1.7,2.2c-0.4,0-0.8-0.1-1.1-0.4c-0.3-0.3-0.5-0.7-0.5-1.2
			c0.1-0.2,0.1-0.3,0.1-0.5c2.3-10.1,4-20.4,5.2-30.7c0-0.3,0.1-1.1,0.2-2.4c0.2-3,0.5-4.9,1-5.7c0.7,0,1.1,0,1.8-0.1
			c0.5,0,0.9,0.1,1.3,0.3c0.4,0.2,0.5,0.6,0.5,1.1c0,3.1,0.4,7.6,1.1,13.7C398.4,521.8,398.7,526.2,398.7,528.9z M396,530.2
			c-0.1-0.6-0.2-1.6-0.2-3.1c0-1.5-0.1-3.3-0.2-5.5s-0.4-4.7-0.6-7.6c-0.3-2.9-0.5-5-0.6-6.3c-1.6,10.2-2.6,17.4-3.1,21.5
			C392,529.7,393.5,530,396,530.2z"/>
		<path d="M402.5,526.5c0-1.4,0-2.1,0-3.6c0-0.6,0-0.9,0-1.5c0-6,0.3-10.2,0.8-12.5c0.6-2.9,1.5-5,2.6-6.1c1.5-1.6,3.4-2.5,5.6-2.5
			c0.5,0,0.9,0.1,1.2,0.4c0.3,0.3,0.4,0.6,0.4,1.1c0,0.4-0.1,0.8-0.3,1.1c-0.2,0.3-0.5,0.5-0.8,0.6c-1,0-1.5,0-2.5,0.1
			c-0.7,0-1.3,0.6-1.9,1.7c-0.5,1.1-0.9,2.4-1.1,4c-0.4,3-0.7,5.4-0.6,7.3c0,0.1,0,0.2,0,0.3c-0.1,4.7-0.1,7.1-0.2,11.8
			c0,2.5,0.1,4.2,0.3,5.2c0.2,1,0.5,1.7,0.7,2.3c0.2,0.6,0.5,1.1,0.9,1.4c0.8,0.9,1.8,1.3,3,1.3c0.4,0,0.8-0.2,1.1-0.5
			c0.4,0,0.8,0.1,1.1,0.3c0.3,0.2,0.5,0.6,0.5,1c0,1.6-1,2.4-2.9,2.4c-0.8,0-1.6-0.1-2.5-0.4c-0.9-0.3-1.5-0.6-1.9-0.9
			C403.7,539.1,402.5,534.3,402.5,526.5z"/>
		<path d="M421.5,520.6c0.1,5.3,0.2,7.9,0.3,13.1c0,0.7,0,1.1,0,1.8c0,0.7,0,1,0,1.7c0.3,0,0.4,0,0.7,0c0.6,0,0.9,0,1.5-0.1
			c1.4,0,2.1,0.5,2.1,1.5c0,0.5-0.2,1-0.5,1.4c-0.3,0.4-0.8,0.6-1.2,0.6c-0.9,0-1.4,0-2.3,0c-1.6,0-2.6,0-3-0.1
			c-0.3,0-0.5,0.1-0.6,0.1c-1.2,0-1.9-0.5-1.9-1.4c0-0.4,0.1-0.7,0.3-1.1s0.4-0.5,0.6-0.5c0.6,0,0.9,0,1.5,0c0-0.3,0.1-0.5,0.1-0.8
			c-0.1-5.2-0.2-7.9-0.4-13.1c0.1-5.5,0.2-8.3,0.3-13.8c0-2.4-0.1-4.6-0.3-6.6c-0.4,0-0.6,0-1,0c-0.5,0-0.7,0.1-1.2,0.1
			c-0.5,0-0.9-0.1-1.2-0.3c-0.3-0.2-0.4-0.7-0.4-1.3c0-0.9,0.9-1.4,2.6-1.5c2.5-0.1,3.7-0.1,6.2-0.2c1.4,0,2.1,0.4,2.1,1.2
			c0,0.4-0.2,0.7-0.5,1.1c-0.3,0.3-0.7,0.5-1,0.5c-1.1,0-1.6,0-2.7,0.1c0.1,1.7,0.2,3.6,0.2,5.7
			C421.7,513.5,421.7,515.9,421.5,520.6z"/>
		<path d="M431.8,506.3c0.1,6,0.1,9,0.2,14.9c-0.2,0.6-0.3,1.3-0.3,2.1c0,0.5,0,0.7,0,1.2c-0.1,4-0.1,5.9-0.2,9.9
			c0,2.9,0.6,4.3,1.8,4.3c0.9,0,1.3-0.1,2.2-0.1c1.9,0,2.8,0.6,2.8,1.8c0,0.4-0.2,0.8-0.5,1.1c-0.3,0.3-0.7,0.5-1.1,0.5
			c-1.3-0.5-2.8-0.7-4.7-0.7c-0.6,0.4-1.1,0.6-1.6,0.6c-0.5,0-0.9-0.2-1.2-0.6c-0.3-0.4-0.4-0.9-0.4-1.4c0-3.1,0.1-7.7,0.3-13.9
			c0.2-6.2,0.3-10.8,0.3-13.9c0-0.2,0-0.3,0-0.5c-0.2-2.6-0.3-4.5-0.3-5.8c0-3.9,0.6-5.9,1.8-5.9c0.4,0,0.7,0.1,0.9,0.4
			c0.3,0.3,0.4,0.7,0.4,1.1C432.1,503.4,432,504.4,431.8,506.3z"/>
		<path d="M443.8,506.1c0.1,6,0.1,9,0.2,15c-0.2,0.6-0.3,1.3-0.3,2.1c0,0.5,0,0.8,0,1.3c-0.1,4-0.1,6-0.2,10c0,2.9,0.6,4.3,1.8,4.3
			c0.9,0,1.3-0.1,2.2-0.1c1.9,0,2.8,0.6,2.8,1.8c0,0.4-0.2,0.8-0.5,1.1c-0.3,0.3-0.7,0.5-1.1,0.5c-1.3-0.5-2.8-0.7-4.7-0.7
			c-0.6,0.4-1.1,0.6-1.6,0.6c-0.5,0-0.9-0.2-1.2-0.6c-0.3-0.4-0.4-0.9-0.4-1.4c0-3.1,0.1-7.7,0.3-14c0.2-6.2,0.3-10.9,0.3-14
			c0-0.2,0-0.3,0-0.5c-0.2-2.6-0.3-4.6-0.3-5.9c0-3.9,0.6-5.9,1.8-5.9c0.4,0,0.7,0.1,0.9,0.4c0.3,0.3,0.4,0.7,0.4,1.1
			C444,503.2,443.9,504.2,443.8,506.1z"/>
		<path d="M465.2,513.1c0,0.4,0,0.6,0.1,1.1c0.1,7.6,0.3,26.2-6.7,27.9c-1.3,0.3-3-0.8-3.9-2.5c-0.9-1.8-1.4-3.5-1.6-5.2
			c-0.3-2.7-0.5-5.7-0.5-9.2c0-3.5-0.1-8.4-0.1-15c-0.1-3.6-0.1-5.4-0.2-9c0.3-0.9,0.7-1.3,1.1-1.3c0.4,0,0.8,0.4,1.1,1.1
			c0.3,0.8,0.5,1.6,0.5,2.4c0,6.8,0,10.2,0,17c0,1.5,0.1,3.7,0.4,6.6c0.2,2.9,0.4,5.2,0.4,6.6c0,3.1,2.3,5.1,3.3,4.6
			c4.9-2.5,3.6-24.2,3.7-33.7c0-1.4,0-2.1,0-3.5c0-0.4,0-0.6,0-1c0-0.5,0.1-0.9,0.3-1.1c0.2-0.2,0.5-0.4,1-0.4
			c0.5,0,0.8,0.1,1.1,0.3c0.2,0.2,0.4,0.4,0.5,0.7c0.1,0.5,0.2,1.2,0.2,2c-0.1,2.5-0.2,3.8-0.4,6.3C465.3,510,465.3,511,465.2,513.1
			z"/>
		<path d="M469.1,538.5c0.9,0.2,1.3,0.3,2.2,0.5c0.7,0,1.2-0.3,1.7-1c0.5-0.7,0.9-1.6,1.1-2.6c0.5-2,0.7-3.8,0.7-5.3
			c0-1.5-0.2-3.1-0.6-4.6c-0.4-1.5-0.9-2.9-1.6-4.2c-0.6-1.3-1.2-2.6-1.9-4c-1.5-3.2-2.2-6.3-2.2-9.4c0-1.9,0.3-3.5,0.8-5
			c1-2.7,2.3-4,3.9-4c0.6,0,1.2,0.2,1.8,0.7c0.6,0.5,0.8,1,0.8,1.5c0,1-0.4,1.4-1.3,1.4c-0.4,0-0.7-0.1-1.1-0.4
			c-1.1,0.1-1.9,1.5-2.2,4.4c-0.1,0.6-0.1,1.4-0.1,2.2c0,0.8,0.2,1.9,0.5,3.1c0.3,1.2,0.7,2.4,1.2,3.3c0.5,1,1,2,1.5,3.2
			c0.5,1.2,1,2.3,1.5,3.4c1.1,2.6,1.6,5.5,1.6,8.8c0,2.5-0.5,4.9-1.5,7.3c-0.5,1.1-1.2,2.1-2,2.8c-0.9,0.7-1.9,1.1-3,1.1
			c0,0.1,0,0.1,0,0.2c-1.4-0.2-2.2-1.1-2.4-2.4C468.7,539.1,468.8,538.9,469.1,538.5z"/>
		<path d="M486.4,533.3c0.1-7.9,0.1-11.8,0.2-19.7c0-1.3-0.1-3.4-0.3-6.2c-0.2-2.8-0.3-4.5-0.3-5.3c0-0.8,0.2-1.3,0.6-1.8
			c0.4-0.4,0.8-0.6,1.3-0.6c3.6,0,6.5,2.6,8.8,7.7c1.3,2.9,1.9,5.9,1.9,9.1c0,1.3-0.1,1.9-0.1,3.1c0,1.4,0,2.1,0,3.4
			c0,4.2-0.2,7-0.5,8.4c-0.3,1.4-0.6,2.6-1,3.5c-0.3,0.9-0.8,1.8-1.2,2.5c-1.1,1.7-2.5,3-4.2,4c-1.5,0-2.3,0-3.8,0
			C486.9,541.5,486.4,538.7,486.4,533.3z M490.1,536.8c0,0.6,0,0.9,0,1.5c3,0,4.9-3.6,5.5-11c0.1-1.7,0.2-3.3,0.2-4.9
			c0-12.6-2-19.2-6.1-19.8c-0.3,1.6-0.4,3.9-0.4,6.8s0.1,7.4,0.4,13.5C490,529.1,490.1,533.7,490.1,536.8z"/>
		<path d="M502.3,509.7c-0.1-2.1-0.2-3.2-0.3-5.3c0-2.9,0.7-4.4,2.2-4.4c0.9,0,2.2,0.3,3.8,0.9c1.6,0.6,2.4,1.2,2.4,2
			c0,0.8-0.5,1.5-1.5,1.9c-1.6-0.7-2.9-1.1-4-1.3c0.1,0.9,0.1,1.8,0.1,2.7c-0.1,3.6-0.1,5.4-0.2,8.9c0,0,0.1,0.4,0.2,1
			c0.7,0,1.1,0,1.9-0.1c1.7,0,2.5,0.6,2.5,1.7c0,0.4-0.2,0.8-0.5,1.2c-0.3,0.3-0.7,0.5-1.2,0.5c-0.5,0-1-0.1-1.5-0.1
			c-0.5,0-0.8,0-1.3,0c0.1,1.6,0.2,3.2,0.2,4.7c-0.1,4.5-0.1,6.8-0.2,11.3c0,2.3,0,3.5,0.1,3.5c1.5-0.1,2.3-0.1,3.9-0.1
			c1.3,0,2,0.5,2,1.5c0,0.6-0.2,1.1-0.7,1.4c-0.5,0.3-1,0.4-1.6,0.4c-1.8,0-2.7,0-4.4,0c-0.5,0-0.9-0.2-1.3-0.6
			c-0.4-0.4-0.6-0.8-0.6-1.4c0-0.7,0-1,0-1.6c-0.1-4.2-0.2-6.3-0.3-10.5C502.1,520.6,502.2,517,502.3,509.7z"/>
		<path d="M516.6,506.5c0.1,5.9,0.1,8.9,0.2,14.9c-0.2,0.6-0.3,1.3-0.3,2.1c0,0.5,0,0.7,0,1.2c-0.1,3.9-0.1,5.9-0.2,9.8
			c0,2.8,0.6,4.3,1.8,4.3c0.9,0,1.3,0,2.2-0.1c1.9,0,2.8,0.6,2.8,1.8c0,0.4-0.2,0.8-0.5,1.1c-0.3,0.3-0.7,0.5-1.1,0.5
			c-1.3-0.5-2.8-0.7-4.7-0.7c-0.6,0.4-1.1,0.6-1.6,0.6c-0.5,0-0.9-0.2-1.2-0.6c-0.3-0.4-0.4-0.9-0.4-1.4c0-3.1,0.1-7.7,0.3-13.8
			c0.2-6.2,0.3-10.8,0.3-13.8c0-0.2,0-0.3,0-0.5c-0.2-2.6-0.3-4.5-0.3-5.8c0-3.9,0.6-5.9,1.8-5.8c0.4,0,0.7,0.2,0.9,0.5
			c0.3,0.3,0.4,0.7,0.4,1.1C516.8,503.7,516.8,504.6,516.6,506.5z"/>
		<path d="M526.1,506c-0.1-1.3-0.2-1.9-0.3-3.2c0-0.1,0-0.2,0-0.3c0-0.9,0.1-1.5,0.3-2c0.2-0.5,0.8-0.7,1.8-0.7c0.9,0,1.9,0.4,2.8,1
			c0.9,0.6,1.6,1.4,2.1,2.5c1,2,1.6,4.3,1.6,6.9c0,2.5-0.2,4.5-0.5,6c-0.3,1.5-0.9,2.8-1.6,4.1c1.4,1.6,2.1,4.1,2.3,7.6
			c0,0.8,0.1,1.7,0.1,2.9c0,1.1-0.1,2.2-0.2,3.3c-0.2,1.1-0.4,2.1-0.8,3.1c-0.4,1-0.9,1.8-1.5,2.5c-1.3,1.5-3,2.3-5.1,2.3
			c-0.7,0-1.2-0.4-1.4-1.1c-0.1-0.6-0.2-1.3-0.2-2.1c0.2-5.2,0.3-7.8,0.5-13.1C526,517.7,526,513.8,526.1,506z M528.3,535.6
			c0,0.1,0,0.2,0.1,0.3c0,1.1,0,1.7,0,2.8c1.2-0.3,2.1-1.1,2.6-2.4s0.9-2.5,0.9-3.6c0-1.1,0-2,0-2.7c0-0.7-0.1-1.5-0.2-2.4
			c-0.1-1-0.3-1.8-0.5-2.5c-0.5-1.8-1.3-2.8-2.4-3.1c-0.2,2.6-0.2,5.7-0.2,9.3C528.4,533,528.4,533.9,528.3,535.6z M528.7,509.2
			c0,3.7,0,5.5,0,9.1c1.8,0,2.8-2.6,2.8-7.7c0-5.1-0.7-7.8-2.1-8C528.9,503.7,528.7,505.9,528.7,509.2z"/>
		<path d="M540.5,520.9c0,2.6,0,3.9-0.1,6.6c0,5.4,0.3,9.6,1,12.7c-0.2,0.6-0.4,1-0.6,1.6c-0.6,0-0.9,0-1.5,0
			c-0.3-0.4-0.4-0.5-0.7-0.9c0-1.8,0.1-3.9,0.1-6.1c0-2.3-0.1-7.1-0.4-14.5c-0.3-7.4-0.4-13-0.4-16.6c0-1.9,0.6-2.9,1.7-2.8
			c1.8,0.1,3.4,0.7,4.6,1.9c1.2,1.2,1.9,2.8,1.9,4.8c0,1.7,0,2.5,0,4.2c0,1.2-0.2,2.2-0.6,3.1c-0.4,0.9-0.8,1.9-1.3,3
			s-0.8,1.6-0.8,1.7c0.2,1,0.5,2.9,1,5.8c1,6.3,2.2,10.8,3.4,13.6c0.4,0.8,0.5,1.4,0.5,1.8c0,0.4-0.1,0.8-0.3,1.1
			c-0.2,0.3-0.5,0.5-0.9,0.5c-0.7,0-1.4-1-2.1-2.9c-0.7-1.9-1.2-4.1-1.6-6.5c-1.2-7.2-2-11.3-2.3-12
			C540.9,520.9,540.7,520.9,540.5,520.9z M540.7,503.1c-0.1,0.3-0.1,0.5-0.2,0.9c0,1.7,0,4.1,0.1,7.2c0.1,3.1,0.1,5.4,0.1,6.8
			c0.8-0.5,1.5-1.7,2-3.8c0.5-2.1,0.8-3.6,0.8-4.7c0-1.1,0-1.9-0.1-2.4c-0.1-0.5-0.2-1.1-0.3-1.7
			C542.7,503.9,541.9,503.2,540.7,503.1z"/>
		<path d="M563.4,515c0,0.4,0,0.6,0.1,1c-0.3,8.6-0.1,24.2-6.7,26.2c-1.2,0.4-3-0.8-3.9-2.4c-0.9-1.7-1.4-3.4-1.6-5
			c-0.3-2.6-0.5-5.5-0.5-8.8c0-3.3-0.1-8.1-0.1-14.4c-0.1-3.4-0.1-5.2-0.2-8.6c0.3-0.8,0.7-1.2,1.1-1.2c0.4,0,0.8,0.4,1.1,1.2
			c0.3,0.7,0.5,1.5,0.5,2.3c0,6.5,0,9.8,0,16.3c0,1.4,0.1,3.5,0.4,6.4c0.2,2.8,0.4,4.9,0.4,6.3c0,2.9,2.2,4.9,3.3,4.4
			c4.8-2.3,3.6-23,3.7-31.9c0-1.3,0-2,0-3.3c0-0.4,0-0.6,0-1c0-0.5,0.1-0.8,0.3-1c0.2-0.2,0.5-0.3,1-0.3s0.8,0.1,1.1,0.3
			c0.2,0.2,0.4,0.4,0.5,0.7c0.1,0.5,0.2,1.1,0.2,1.9c-0.1,2.4-0.2,3.6-0.4,5.9C563.5,512.1,563.5,513,563.4,515z"/>
		<path d="M567.7,511.7c-0.1-2-0.2-3-0.3-5c0-2.8,0.7-4.1,2.2-4c0.9,0.1,2.2,0.4,3.8,1c1.6,0.6,2.4,1.3,2.4,2c0,0.8-0.5,1.4-1.5,1.7
			c-1.6-0.7-2.9-1.1-4-1.3c0.1,0.8,0.1,1.7,0.1,2.5c-0.1,3.4-0.1,5-0.2,8.4c0,0,0.1,0.3,0.2,0.9c0.7,0,1.1,0,1.9,0
			c1.7,0.1,2.5,0.6,2.5,1.7c0,0.4-0.2,0.8-0.5,1.1c-0.3,0.3-0.7,0.4-1.2,0.4c-0.5,0-1-0.1-1.5-0.2c-0.5,0-0.8,0-1.3,0
			c0.1,1.5,0.2,3,0.2,4.4c-0.1,4.2-0.1,6.4-0.2,10.6c0,2.2,0,3.3,0.1,3.3c1.5,0,2.3-0.1,3.9-0.1c1.3,0,2,0.5,2,1.4
			c0,0.6-0.2,1-0.7,1.3c-0.5,0.3-1,0.4-1.6,0.4c-1.8,0-2.6,0-4.4,0c-0.5,0-0.9-0.2-1.2-0.5s-0.6-0.8-0.6-1.3c0-0.6,0-0.9,0-1.6
			c-0.1-4-0.2-6-0.3-9.9C567.5,522,567.5,518.6,567.7,511.7z"/>
		<path d="M578.3,527.5c0-1.4,0-2,0-3.4c0-0.6,0-0.8,0-1.4c0-5.7,0.3-9.6,0.8-11.8c0.6-2.7,1.5-4.6,2.6-5.5c1.5-1.4,3.3-2,5.6-1.8
			c0.5,0,0.9,0.2,1.2,0.5c0.3,0.3,0.4,0.6,0.4,1s-0.1,0.7-0.3,1c-0.2,0.3-0.5,0.4-0.8,0.4c-1-0.1-1.5-0.1-2.4-0.2
			c-0.7,0-1.3,0.4-1.9,1.4c-0.5,1-0.9,2.2-1.1,3.6c-0.4,2.8-0.7,5-0.6,6.9c0,0.1,0,0.2,0,0.3c-0.1,4.4-0.1,6.7-0.2,11.1
			c0,2.3,0.1,4,0.3,4.9c0.2,0.9,0.5,1.6,0.7,2.2c0.2,0.6,0.5,1,0.9,1.4c0.8,0.8,1.8,1.3,3,1.3c0.4,0,0.8-0.2,1.1-0.5
			c0.4,0,0.8,0.1,1.1,0.3c0.3,0.2,0.5,0.5,0.5,1c0,1.5-1,2.2-2.9,2.2c-0.8,0-1.6-0.1-2.5-0.4c-0.9-0.3-1.5-0.5-1.9-0.8
			C579.4,539.5,578.3,534.9,578.3,527.5z"/>
		<path d="M598.9,516.6c0,1.3-0.1,2-0.1,3.3c0,1.6,0.6,4.6,1.8,9.1c1.2,4.4,2.2,7.3,3,8.7c0.1,0.2,0.3,0.5,0.7,1
			c0.3,0.5,0.6,1,0.8,1.3c0.2,0.4,0.2,0.8,0.2,1.2c0,0.4-0.1,0.8-0.4,1c-0.3,0.3-0.6,0.4-1,0.4c-0.8,0-1.7-0.9-2.5-2.8
			c-0.9-1.9-1.7-4.1-2.3-6.8c-1.2-4.6-2-8.6-2.6-12.1c-1.3,2.6-1.9,5.9-1.9,9.7c0,4.2,0,6.3,0,10.4c0,0.9-0.4,1.3-1.1,1.3
			c-0.5,0-0.9-0.2-1.3-0.5c-0.3-0.3-0.5-0.8-0.5-1.3c0-6.9,0-10.3,0-17.2c0-2,0.2-5.1,0.5-9.2c0.3-4,0.5-7.1,0.5-9.1
			c0.3-0.7,0.8-1,1.3-1c0.6,0,1,0.2,1.4,0.6c0.3,0.4,0.5,0.8,0.5,1.3c0,0.1,0,0.1,0,0.2c-0.5,0.8-0.7,4.2-0.7,10.2c0,0.8,0,1.2,0,2
			c0.1-0.1,0.7-1.4,1.9-4c3-6.3,4.8-9.3,5.5-9.2c0.5,0,1,0.2,1.4,0.5c0.4,0.3,0.6,0.7,0.6,1.2c0,0-0.4,0.7-1.2,2.1
			C600.7,513.3,599.3,515.8,598.9,516.6z"/>
		<path d="M613.5,523.7c0.1,4.6,0.2,6.9,0.3,11.6c0,0.6,0,1,0,1.6c0,0.6,0,0.9,0,1.5c0.3,0,0.4,0,0.7,0c0.6,0,0.9,0,1.5,0
			c1.4,0,2.1,0.5,2.1,1.4c0,0.5-0.2,0.8-0.5,1.2c-0.3,0.3-0.8,0.5-1.2,0.5c-0.9,0-1.4,0-2.3,0c-1.6,0-2.6-0.1-3-0.1
			c-0.3,0-0.5,0-0.6,0c-1.2,0-1.9-0.4-1.9-1.3c0-0.3,0.1-0.7,0.3-1c0.2-0.3,0.4-0.5,0.6-0.5c0.6,0,0.9,0,1.5,0
			c0-0.3,0.1-0.4,0.1-0.7c-0.1-4.6-0.2-7-0.4-11.6c0.1-4.9,0.2-7.3,0.3-12.2c0-2.1-0.1-4-0.3-5.9c-0.4,0-0.6,0-1-0.1
			c-0.5,0-0.7,0-1.2,0c-0.5,0-0.9-0.2-1.2-0.4c-0.3-0.2-0.4-0.6-0.4-1.2c0-0.8,0.9-1.2,2.6-1.1c2.5,0.2,3.7,0.3,6.2,0.5
			c1.4,0.1,2.1,0.6,2.1,1.3c0,0.3-0.2,0.6-0.5,0.9c-0.3,0.3-0.7,0.4-1,0.3c-1.1-0.1-1.6-0.1-2.7-0.2c0.1,1.5,0.2,3.2,0.2,5.1
			C613.6,517.5,613.6,519.6,613.5,523.7z"/>
		<path d="M626.2,524.4c0.1,4.5,0.2,6.7,0.3,11.2c0,0.6,0,0.9,0,1.6c0,0.6,0,0.9,0,1.5c0.3,0,0.4,0,0.7,0c0.6,0,0.9,0,1.5,0
			c1.4,0,2.1,0.5,2.1,1.3c0,0.4-0.2,0.8-0.5,1.1c-0.3,0.3-0.7,0.5-1.2,0.5c-0.9,0-1.4,0-2.3,0c-1.6,0-2.6-0.1-3-0.1
			c-0.3,0-0.5,0-0.6,0c-1.2,0-1.9-0.4-1.9-1.2c0-0.3,0.1-0.6,0.3-0.9c0.2-0.3,0.4-0.4,0.6-0.5c0.6,0,0.9,0,1.5,0
			c0-0.3,0.1-0.4,0.1-0.7c-0.1-4.5-0.2-6.8-0.4-11.3c0.1-4.7,0.2-7.1,0.3-11.8c0-2-0.1-3.9-0.3-5.7c-0.4,0-0.6-0.1-1-0.1
			c-0.5,0-0.7,0-1.2-0.1c-0.5,0-0.9-0.2-1.2-0.4c-0.3-0.2-0.4-0.6-0.4-1.2c0-0.8,0.9-1.2,2.6-1c2.5,0.2,3.7,0.3,6.2,0.6
			c1.4,0.1,2.1,0.6,2.1,1.3c0,0.3-0.2,0.6-0.5,0.9c-0.3,0.2-0.7,0.3-1,0.3c-1.1-0.1-1.6-0.1-2.7-0.2c0.1,1.5,0.2,3.1,0.2,4.9
			C626.3,518.3,626.3,520.3,626.2,524.4z"/>
		<path d="M359.5,592.4c0.9,0.2,1.3,0.3,2.2,0.6c0.7,0,1.2-0.2,1.7-0.9c0.5-0.6,0.9-1.4,1.1-2.4c0.5-1.8,0.7-3.5,0.7-4.9
			c0-1.4-0.2-2.9-0.6-4.3c-0.4-1.4-0.9-2.8-1.6-4c-0.6-1.2-1.2-2.5-1.8-3.8c-1.5-3-2.2-5.9-2.2-8.8c0-1.7,0.3-3.3,0.8-4.6
			c1-2.5,2.3-3.7,3.9-3.7c0.6,0,1.2,0.2,1.7,0.7c0.6,0.4,0.8,0.9,0.8,1.4c0,0.9-0.4,1.3-1.3,1.3c-0.4,0-0.7-0.1-1.1-0.4
			c-1.1,0-1.9,1.4-2.2,4.1c-0.1,0.6-0.1,1.3-0.1,2.1c0,0.8,0.2,1.8,0.5,2.9c0.3,1.2,0.7,2.2,1.2,3.1c0.5,0.9,1,1.9,1.5,3.1
			c0.5,1.1,1,2.2,1.5,3.3c1.1,2.4,1.6,5.2,1.6,8.3c0,2.4-0.5,4.6-1.5,6.7c-0.5,1-1.2,1.9-2,2.5c-0.9,0.6-1.9,0.9-3,0.8
			c0,0.1,0,0.1,0,0.1c-1.4-0.3-2.2-1.1-2.3-2.4C359.1,593,359.2,592.8,359.5,592.4z"/>
		<path d="M383.3,569.6c0,0.4,0,0.6,0.1,1c-0.3,8.5-0.2,24.5-6.7,26.2c-1.2,0.3-3-1-3.9-2.6c-0.9-1.7-1.4-3.4-1.6-5
			c-0.3-2.5-0.5-5.4-0.5-8.7c0-3.3-0.1-8-0.1-14.1c-0.1-3.4-0.1-5.1-0.2-8.4c0.3-0.8,0.7-1.2,1.1-1.2c0.4,0,0.8,0.4,1.1,1.1
			c0.3,0.7,0.5,1.5,0.5,2.3c0,6.4,0,9.7,0,16.1c0,1.4,0.1,3.5,0.4,6.3c0.2,2.8,0.4,4.9,0.4,6.3c0,2.9,2.3,5,3.3,4.5
			c4.7-2.1,3.6-23.1,3.7-31.9c0-1.3,0-2,0-3.4c0-0.4,0-0.6,0-1c0-0.5,0.1-0.8,0.3-1c0.2-0.2,0.5-0.3,1-0.3c0.5,0,0.8,0.1,1.1,0.3
			c0.2,0.2,0.4,0.4,0.5,0.7c0.1,0.5,0.2,1.1,0.2,1.9c-0.1,2.4-0.2,3.6-0.4,6C383.4,566.6,383.4,567.6,383.3,569.6z"/>
		<path d="M387.7,562.1c-0.1-1.2-0.2-1.9-0.3-3.1c0-0.1,0-0.2,0-0.3c0-0.8,0.1-1.5,0.3-2c0.2-0.5,0.8-0.7,1.8-0.7
			c0.9,0,1.9,0.3,2.8,0.9c0.9,0.6,1.6,1.4,2.1,2.4c1,2,1.6,4.2,1.6,6.8s-0.2,4.5-0.5,6c-0.3,1.5-0.9,2.8-1.6,4.1
			c1.4,1.6,2.1,4.1,2.3,7.6c0,0.8,0.1,1.7,0.1,2.8c0,1.1-0.1,2.2-0.2,3.3c-0.2,1.1-0.4,2.1-0.8,3c-0.4,0.9-0.9,1.8-1.5,2.4
			c-1.3,1.5-3,2.2-5.1,2c-0.7,0-1.2-0.4-1.4-1.2c-0.1-0.6-0.2-1.3-0.2-2.1c0.2-5.1,0.3-7.7,0.5-12.8
			C387.6,573.6,387.6,569.7,387.7,562.1z M389.9,591.2c0,0.1,0,0.2,0.1,0.3c0,1.1,0,1.6,0,2.7c1.2-0.3,2.1-1,2.6-2.3
			c0.6-1.3,0.9-2.5,0.9-3.6c0-1.1,0-2,0-2.6c0-0.7-0.1-1.5-0.2-2.4c-0.1-1-0.3-1.8-0.5-2.5c-0.5-1.8-1.3-2.8-2.4-3.1
			c-0.2,2.6-0.2,5.6-0.2,9.1C390.1,588.6,390,589.5,389.9,591.2z M390.3,565.3c0,3.6,0,5.4,0,9c1.8,0,2.8-2.5,2.8-7.6
			c0-5-0.7-7.7-2.1-7.9C390.5,559.8,390.3,562,390.3,565.3z"/>
		<path d="M399.7,594.6c0.9,0.2,1.3,0.3,2.2,0.5c0.7,0,1.2-0.3,1.7-0.9c0.5-0.7,0.9-1.5,1.1-2.5c0.5-1.9,0.7-3.7,0.7-5.2
			c0-1.5-0.2-3-0.6-4.5c-0.4-1.5-0.9-2.9-1.6-4.1s-1.2-2.6-1.9-3.9c-1.5-3.1-2.2-6.2-2.2-9.1c0-1.8,0.3-3.4,0.8-4.8
			c1-2.6,2.3-3.9,3.9-3.9c0.6,0,1.2,0.2,1.7,0.7c0.6,0.5,0.8,1,0.8,1.5c0,0.9-0.4,1.4-1.3,1.4c-0.4,0-0.7-0.1-1.1-0.4
			c-1.1,0-1.9,1.5-2.2,4.3c-0.1,0.6-0.1,1.3-0.1,2.2c0,0.8,0.2,1.8,0.5,3.1c0.3,1.2,0.7,2.3,1.2,3.3c0.5,1,1,2,1.5,3.2
			c0.5,1.2,1,2.3,1.5,3.4c1.1,2.5,1.6,5.4,1.6,8.6c0,2.5-0.5,4.8-1.5,7c-0.5,1.1-1.2,2-2,2.7c-0.9,0.7-1.9,1-3,1c0,0.1,0,0.1,0,0.1
			c-1.4-0.3-2.2-1.1-2.3-2.5C399.3,595.2,399.5,595,399.7,594.6z"/>
		<path d="M411.4,571.1c0-2.3,0-3.5,0.1-5.9c0-2.5-0.1-4.4-0.4-5.7c0.2-1.4,0.7-2.2,1.4-2.2c0.9,0,1.4,0,2.3,0c2,0,3.4,1,4.2,3
			c0.7,1.8,1.1,3.8,1.1,6c0,2.9-0.1,4.6-0.2,5.3c-0.1,0.7-0.2,1.3-0.4,1.9c-0.1,0.6-0.3,1.1-0.5,1.4c-0.2,0.4-0.4,0.8-0.8,1.2
			c-0.3,0.4-0.7,0.8-1,1.1c-0.9,0.6-1.9,1.2-3.1,1.6c0,2.6,0,4,0,6.6c0.2,4.7,0.2,7,0.4,11.7c0,0.5-0.2,0.9-0.5,1.3
			c-0.4,0.3-0.8,0.5-1.2,0.5c-0.4-0.3-0.7-0.5-1.1-0.8c-0.4-2.3-0.6-5.3-0.6-9.1c0.1-4.4,0.1-6.6,0.2-10.9c-0.2-0.5-0.3-1-0.3-1.5
			c0-0.1,0-0.1,0-0.2C411.2,575.6,411.4,573.8,411.4,571.1z M414,564.2c0,4.8,0.1,7.2,0.1,12c0,0,0,0.1,0,0.1
			c2.1-0.3,3.1-3.7,3.1-10.4c0-1.9-0.2-3.3-0.6-4c-0.4-0.7-1.1-1.1-2-1.1c0-0.1-0.2-0.1-0.6-0.1C414,562.1,414,562.8,414,564.2z"/>
		<path d="M427.2,599.1c-0.5,0-1-0.3-1.3-0.7c-0.3-0.5-0.5-1-0.5-1.6c0-0.6,0.2-1.1,0.6-1.6c0.4-0.5,0.8-0.7,1.4-0.7
			c0.5,0,1,0.3,1.3,0.8c0.4,0.5,0.6,1.1,0.6,1.7c0,0.6-0.2,1.2-0.6,1.6C428.2,599,427.7,599.2,427.2,599.1z"/>
		<path d="M441.3,562.7c-0.1-1.3-0.2-1.9-0.3-3.2c0-0.1,0-0.2,0-0.3c0-0.9,0.1-1.6,0.3-2.1c0.2-0.5,0.8-0.8,1.8-0.8
			c0.9,0,1.9,0.3,2.8,0.9c0.9,0.6,1.6,1.4,2.1,2.5c1,2,1.6,4.4,1.6,7c0,2.6-0.2,4.7-0.5,6.2c-0.3,1.5-0.9,2.9-1.6,4.2
			c1.4,1.6,2.1,4.2,2.4,7.8c0,0.8,0.1,1.8,0.1,2.9c0,1.1-0.1,2.3-0.2,3.4c-0.2,1.1-0.4,2.2-0.8,3.1c-0.4,1-0.9,1.9-1.5,2.6
			c-1.3,1.6-3,2.3-5.1,2.3c-0.7,0-1.2-0.4-1.4-1.2c-0.1-0.6-0.2-1.3-0.2-2.1c0.2-5.3,0.3-8,0.5-13.3
			C441.1,574.6,441.2,570.6,441.3,562.7z M443.5,592.9c0,0.1,0,0.2,0.1,0.3c0,1.1,0,1.7,0,2.8c1.2-0.3,2.1-1.1,2.6-2.5
			c0.6-1.3,0.9-2.6,0.9-3.7s0-2.1,0-2.7s-0.1-1.5-0.2-2.5c-0.1-1-0.3-1.8-0.5-2.6c-0.5-1.8-1.3-2.8-2.4-3.1
			c-0.2,2.7-0.2,5.8-0.2,9.5C443.6,590.2,443.6,591.1,443.5,592.9z M443.8,565.9c0,3.7,0,5.6,0,9.3c1.8,0,2.8-2.7,2.8-7.9
			s-0.7-7.9-2.1-8.1C444,560.3,443.8,562.5,443.8,565.9z"/>
		<path d="M465.7,570.8c0,0.4,0,0.6,0.1,1.1c0.1,7.5,0.3,26.2-6.7,27.8c-1.3,0.3-3-0.9-3.9-2.6c-0.9-1.8-1.4-3.5-1.6-5.2
			c-0.3-2.7-0.5-5.7-0.5-9.2c0-3.5-0.1-8.4-0.1-15c-0.1-3.6-0.1-5.4-0.2-9c0.3-0.9,0.7-1.3,1.1-1.3c0.4,0,0.8,0.4,1.1,1.1
			c0.3,0.8,0.5,1.6,0.5,2.4c0,6.8,0,10.2,0,17.1c0,1.5,0.1,3.7,0.4,6.6c0.2,2.9,0.4,5.2,0.4,6.6c0,3.1,2.3,5.1,3.3,4.6
			c4.9-2.5,3.6-24.2,3.7-33.7c0-1.4,0-2.1,0-3.5c0-0.4,0-0.6,0-1c0-0.5,0.1-0.9,0.3-1.1c0.2-0.2,0.5-0.4,1-0.4
			c0.5,0,0.8,0.1,1.1,0.3c0.2,0.2,0.4,0.4,0.5,0.7c0.1,0.5,0.2,1.2,0.2,2c-0.1,2.5-0.2,3.8-0.4,6.3
			C465.9,567.6,465.8,568.7,465.7,570.8z"/>
		<path d="M472.7,563.6c0.1,6,0.1,9,0.2,15.1c-0.2,0.6-0.3,1.3-0.3,2.1c0,0.5,0,0.8,0,1.3c-0.1,4-0.1,6-0.2,10
			c0,2.9,0.6,4.3,1.8,4.3c0.9,0,1.3-0.1,2.2-0.1c1.9,0,2.8,0.6,2.8,1.8c0,0.4-0.2,0.8-0.5,1.1c-0.3,0.3-0.7,0.5-1.1,0.5
			c-1.3-0.5-2.8-0.7-4.7-0.7c-0.6,0.4-1.1,0.6-1.6,0.6c-0.5,0-0.9-0.2-1.2-0.6c-0.3-0.4-0.4-0.9-0.4-1.4c0-3.1,0.1-7.8,0.3-14
			c0.2-6.2,0.3-10.9,0.3-14c0-0.2,0-0.3,0-0.5c-0.2-2.6-0.3-4.6-0.3-5.9c0-4,0.6-5.9,1.8-5.9c0.4,0,0.7,0.2,0.9,0.5
			c0.3,0.3,0.4,0.7,0.4,1.1C472.9,560.7,472.8,561.6,472.7,563.6z"/>
		<path d="M494.1,586c0.1,2.6,0.2,4,0.3,6.6c0,2.1-0.6,3.6-1.8,4.8c-1.2,1.1-2.6,1.7-4.2,1.7c-2.4,0-4.2-1-5.3-3.2
			c-0.8-1.5-1.3-3-1.5-4.3c-0.2-1.4-0.4-2.4-0.4-3.1c-0.1-0.7-0.1-1.7-0.2-3c-0.1-1.7-0.1-3.1-0.1-4.2c0-1.1,0-1.6,0-2.7
			c0-5.9,0.1-9.6,0.4-11.2c0.3-1.6,0.6-3,1-4.4c0.4-1.3,0.8-2.4,1.4-3.1c1.3-1.8,2.8-2.7,4.5-2.7c1.7,0,2.6,0.5,2.6,1.6
			c0,0.5-0.2,0.9-0.5,1.2c-0.3,0.3-0.7,0.5-1.2,0.5c-0.4-0.1-0.7-0.1-1.1-0.1c-1.2,0-2.1,1.4-2.7,4.3c-0.9,4.1-1.3,9-1.3,14.8
			c0,3.9,0.1,6.6,0.3,8.1s0.5,2.7,0.7,3.7c0.2,1,0.5,1.8,0.9,2.4c0.8,1.4,1.8,2.2,3.1,2.1c1.7,0,2.5-3.4,2.5-10c0-1.1,0-1.7,0-2.9
			c-0.3-0.2-0.7-0.2-1.2-0.2c-0.4,0-0.6,0-1,0c-1.2,0-1.8-0.5-1.8-1.4c0-0.6,0.2-1,0.5-1.3c0.3-0.3,0.8-0.5,1.3-0.5c0,0,0,0,0,0
			c0.3,0,0.4,0,0.7,0c3.1,0,4.7,0.6,4.7,1.9C494.5,583.2,494.4,584.1,494.1,586z"/>
		<path d="M509.3,585.6c0.2,1.5,0.3,2.3,0.6,3.8c0,0.5,0.2,1.7,0.5,3.7c0.3,2,0.5,3.2,0.5,3.8c0,0,0,0,0,0.1c0,0.9-0.3,1.5-0.9,1.8
			c-0.7,0-1.3-0.1-1.7-0.4c-0.4-0.3-0.6-0.8-0.6-1.6c0-1.8-0.3-4.3-0.8-7.7c-2.1-0.3-3.1-0.5-5.2-0.8c-0.3,1.4-0.6,2.9-0.7,4.5
			c-0.2,1.6-0.3,2.8-0.5,3.6c-0.3,1.5-0.9,2.3-1.7,2.3c-0.4,0-0.8-0.1-1.1-0.4c-0.3-0.3-0.5-0.7-0.5-1.2c0.1-0.2,0.1-0.3,0.1-0.6
			c2.3-10.5,4-21,5.2-31.7c0-0.3,0.1-1.1,0.2-2.5c0.2-3,0.5-5,1-5.8c0.7,0,1.1,0,1.8,0c0.5,0,0.9,0.1,1.3,0.4
			c0.4,0.3,0.5,0.7,0.5,1.2c0,3.2,0.4,7.8,1.1,14C508.9,578.4,509.3,582.8,509.3,585.6z M506.6,586.9c-0.1-0.6-0.2-1.7-0.2-3.2
			s-0.1-3.4-0.2-5.6s-0.4-4.8-0.6-7.8c-0.3-3-0.5-5.1-0.6-6.4c-1.6,10.4-2.6,17.8-3.1,22.1C502.5,586.4,504.1,586.7,506.6,586.9z"/>
		<path d="M516.2,577.3c0,2.7,0,4-0.1,6.7c0,5.5,0.3,9.7,1,12.9c-0.2,0.7-0.4,1-0.6,1.7c-0.6,0-0.9,0-1.5,0
			c-0.3-0.4-0.4-0.5-0.7-0.9c0-1.9,0.1-3.9,0.1-6.2c0-2.3-0.1-7.2-0.4-14.8c-0.3-7.6-0.4-13.2-0.4-16.9c0-2,0.6-2.9,1.7-2.9
			c1.8,0,3.4,0.5,4.6,1.7c1.2,1.1,1.9,2.7,1.9,4.8c0,1.7,0,2.6,0,4.3c0,1.2-0.2,2.3-0.6,3.2c-0.4,1-0.8,2-1.3,3.1
			c-0.5,1.1-0.8,1.7-0.8,1.8c0.2,1,0.5,3,1,5.9c1,6.4,2.2,11,3.4,13.7c0.4,0.8,0.5,1.4,0.5,1.9c0,0.5-0.1,0.8-0.3,1.2
			c-0.2,0.3-0.5,0.5-0.9,0.5c-0.7,0-1.4-0.9-2.1-2.9c-0.7-2-1.2-4.1-1.6-6.5c-1.2-7.3-2-11.4-2.3-12.1
			C516.5,577.2,516.4,577.2,516.2,577.3z M516.4,559c-0.1,0.4-0.1,0.5-0.2,0.9c0,1.7,0,4.1,0.1,7.3c0.1,3.2,0.1,5.5,0.1,7
			c0.8-0.5,1.5-1.8,2-4c0.5-2.1,0.8-3.8,0.8-4.9c0-1.1,0-2-0.1-2.5s-0.2-1.1-0.3-1.8C518.4,559.8,517.6,559.1,516.4,559z"/>
		<path d="M532.1,577.1c0.1,5.2,0.2,7.8,0.3,13c0,0.7,0,1.1,0,1.8c0,0.7,0,1,0,1.7c0.3,0,0.4,0,0.7,0c0.6,0,0.9-0.1,1.5-0.1
			c1.4-0.1,2.1,0.4,2.1,1.4c0,0.5-0.2,1-0.5,1.3c-0.3,0.4-0.8,0.6-1.2,0.6c-0.9,0-1.4,0.1-2.3,0.1c-1.6,0.1-2.6,0.1-3,0
			c-0.3,0.1-0.5,0.1-0.6,0.1c-1.2,0-1.9-0.4-1.9-1.3c0-0.4,0.1-0.7,0.3-1.1c0.2-0.3,0.4-0.5,0.6-0.6c0.6,0,0.9,0,1.5-0.1
			c0-0.3,0.1-0.5,0.1-0.8c-0.1-5.2-0.2-7.8-0.4-13c0.1-5.5,0.2-8.2,0.3-13.6c0-2.3-0.1-4.5-0.3-6.6c-0.4,0-0.6,0-1,0
			c-0.5,0-0.7,0-1.2,0.1c-0.5,0-0.9-0.1-1.2-0.3c-0.3-0.2-0.4-0.7-0.4-1.3c0-0.9,0.9-1.4,2.6-1.4c2.5,0,3.7,0,6.2-0.1
			c1.4,0,2.1,0.4,2.1,1.3c0,0.4-0.2,0.7-0.5,1c-0.3,0.3-0.7,0.5-1,0.5c-1.1,0-1.6,0-2.7,0c0.1,1.7,0.2,3.6,0.2,5.7
			C532.3,570,532.2,572.4,532.1,577.1z"/>
		<path d="M538.7,582.4c0-1.4,0-2.1,0-3.6c0-0.6,0-0.9,0-1.5c0-6,0.3-10.1,0.8-12.5c0.6-2.9,1.5-4.9,2.6-6c1.5-1.6,3.4-2.3,5.6-2.4
			c0.5,0,0.9,0.1,1.2,0.4c0.3,0.3,0.4,0.6,0.4,1.1c0,0.4-0.1,0.8-0.3,1.1c-0.2,0.3-0.5,0.5-0.8,0.5c-1,0-1.5,0-2.5,0
			c-0.7,0-1.3,0.6-1.9,1.6c-0.5,1.1-0.9,2.4-1.1,3.9c-0.4,2.9-0.7,5.3-0.6,7.3c0,0.1,0,0.2,0,0.3c-0.1,4.7-0.1,7-0.2,11.7
			c0,2.5,0.1,4.2,0.3,5.1c0.2,0.9,0.5,1.7,0.7,2.3c0.2,0.6,0.5,1,0.9,1.4c0.8,0.8,1.8,1.2,3,1.2c0.4,0,0.8-0.2,1.1-0.6
			c0.4,0,0.8,0.1,1.1,0.3s0.5,0.5,0.5,1c0,1.6-1,2.4-2.9,2.5c-0.8,0-1.6,0-2.5-0.3c-0.9-0.2-1.5-0.5-1.9-0.8
			C539.9,594.9,538.7,590.2,538.7,582.4z"/>
		<path d="M564.7,569.3c0,0.4,0,0.6,0.1,1c-0.3,8.8,0,24.2-6.7,26.6c-1.2,0.4-3-0.6-3.9-2.2c-0.9-1.6-1.4-3.3-1.6-4.9
			c-0.3-2.5-0.5-5.5-0.5-8.8c0-3.3-0.1-8.1-0.1-14.3c-0.1-3.4-0.1-5.1-0.2-8.6c0.3-0.8,0.7-1.3,1.1-1.3c0.4,0,0.8,0.4,1.1,1.1
			c0.3,0.7,0.5,1.5,0.5,2.3c0,6.5,0,9.8,0,16.3c0,1.4,0.1,3.5,0.4,6.3c0.2,2.8,0.4,4.9,0.4,6.3c0,2.9,2.2,4.8,3.3,4.2
			c4.9-2.7,3.6-23,3.7-32.1c0-1.3,0-2,0-3.3c0-0.4,0-0.6,0-1c0-0.5,0.1-0.8,0.3-1c0.2-0.2,0.5-0.4,1-0.4c0.5,0,0.8,0.1,1.1,0.2
			c0.2,0.2,0.4,0.4,0.5,0.7c0.1,0.5,0.2,1.1,0.2,1.9c-0.1,2.4-0.2,3.6-0.4,5.9C564.9,566.4,564.8,567.3,564.7,569.3z"/>
		<path d="M568.6,592.9c0.9,0.1,1.3,0.2,2.2,0.3c0.7,0,1.2-0.4,1.7-1.1c0.5-0.7,0.9-1.5,1.1-2.5c0.5-1.9,0.7-3.5,0.7-5
			c0-1.4-0.2-2.8-0.6-4.2c-0.4-1.4-0.9-2.7-1.6-3.8c-0.6-1.2-1.2-2.4-1.8-3.6c-1.5-2.9-2.2-5.8-2.2-8.7c0-1.8,0.3-3.3,0.8-4.7
			c1-2.5,2.3-3.8,3.9-3.8c0.6,0,1.2,0.2,1.7,0.6c0.6,0.4,0.8,0.9,0.8,1.4c0,0.9-0.4,1.3-1.3,1.4c-0.4,0-0.7-0.1-1.1-0.3
			c-1.1,0.1-1.9,1.5-2.2,4.2c-0.1,0.6-0.1,1.3-0.1,2.1c0,0.8,0.2,1.8,0.5,2.9c0.3,1.2,0.7,2.2,1.2,3.1c0.5,0.9,1,1.9,1.5,2.9
			c0.5,1.1,1,2.1,1.5,3.1c1.1,2.3,1.6,5,1.6,8c0,2.3-0.5,4.6-1.5,6.8c-0.5,1.1-1.2,2-2,2.7c-0.9,0.7-1.9,1.2-3,1.2
			c0,0.1,0,0.1,0,0.1c-1.4-0.1-2.2-0.8-2.3-2.1C568.3,593.6,568.4,593.3,568.6,592.9z"/>
	</g>
</g>
</svg>
