<?xml version="1.0" encoding="utf-8"?>
<!-- Generator: Adobe Illustrator 18.0.0, SVG Export Plug-In . SVG Version: 6.00 Build 0)  -->
<!DOCTYPE svg PUBLIC "-//W3C//DTD SVG 1.1//EN" "http://www.w3.org/Graphics/SVG/1.1/DTD/svg11.dtd">
<svg version="1.1" id="Layer_1" xmlns="http://www.w3.org/2000/svg" xmlns:xlink="http://www.w3.org/1999/xlink" x="0px" y="0px"
	 viewBox="0 0 536.1 192" enable-background="new 0 0 536.1 192" xml:space="preserve">
<path fill="#114A56" d="M472.6,108.8c-14.8,2-13.3-7.1-11.2-16.5c4.2-8.7,1.7-17.9,2-26.8c0.4-12.2,0.4-24.5-0.1-36.8
	c-0.5-7.2,4.8-5.1,8.2-4.6c12.5,1.9,25,4.3,36.7,9.3c21,9,24.7,29.2,8.9,45.9c-1.1,1.1-2.4,2-2.9,3.6c1.9,10.2,8.2,18.7,11.6,28.4
	c1,3,2.8,5.9,0.3,8.9c-2.6,3.2-5.7,1.4-8.7,0.9c-10.6-1.9-19.8-5.1-21.5-18c-0.4-3.2-1.4-8.3-5.4-8.2c-4.2,0.2-3.9,5.1-4.2,8.5
	C485.3,114.4,478.8,111.2,472.6,108.8z"/>
<path fill="#114A56" d="M196.2,185.8c-0.7,2.3-2.6,1.7-4.3,1.8c-16.7,4.2-32.1,2-45.4-9.6c-16.4-14.3-19.4-33.7-8.6-54.8
	c15.1-21.7,36.1-22.1,58.9-16.3c3.6,1,8.8,0.6,8.6,6.2c-0.3,6.8-2.5,13.1-9.8,16c-6.5-1.7-13.1-3.1-19.8-2.3
	c-9.7,1.1-17.6,5.8-20.6,15.3c-3.1,10.1,2.9,17.2,10.6,22.9c3.1,1.8,6.4,3.3,10.1,3.4c4,0.1,8.4,0.2,10-4.5c1.6-4.6-1.9-5.4-5.3-7.3
	c-5.7-3.2-5.4-14.6,0.2-15.5c9.4-1.4,19.4-4.5,28.4,2.1c0.2,6.6-0.7,13.4,0.3,19.8C211.1,174.5,205.9,181.2,196.2,185.8z"/>
<path fill="#114A56" d="M403.7,13.4c5.4,0,10.8,0,16.2,0c6.2,2.7,13,3.2,19.5,4.5c7.4,1.5,13.7,12.4,10.9,19.5
	c-1.2,3.1-3.7,4.2-6.6,3.6c-3.9-0.7-7.7-1.7-11.6-2.6c-4.1-1-9.1-3.5-11,2.5c-2.1,6.5,3,8.7,7.9,8.9c8.3,0.3,8.8,5.5,7.9,11.3
	c-1.7,10.4-9.8,4.7-15.2,5.7c-6.4,4.3-4.2,8.2,1,11.4c3.8,2.3,8.2,1.8,12.5,1.8c6.7,0.2,14.5-1.1,13.7,9.7
	c-0.7,9.7-5.4,13-15.5,12.3c-11.9-0.9-23.4-4.5-35.2-5.7c-6.5-0.7-9.2-3.4-7.9-12c3.4-22.4,2.2-45.1,0.6-67.7
	C394.2,12,399.9,16.4,403.7,13.4z"/>
<path fill="#114A56" d="M215.1,54.5c0.8,1.2,1.7,2.4,2.5,3.7c2.3,2.2,2.2,4.8,1.1,7.5c0.6,5.5,5.1,10.2,3.6,16.2
	c-4,6.6-16.8,7.8-22.1,2.1c-6.4-6.9-14.6-7-20.2,0.2c-2,2.6-3.7,5-6.9,6c-5.3,1.6-11.3,4.4-15.6,0.5c-4-3.6,0.1-9,1.5-13.3
	c6.6-19.5,9.4-40.1,15.6-59.7c0-2.8,0.1-5.5,0.1-8.3c7.1-5.6,15.6-3.2,23.5-3.9c5.4-0.5,4.5,5.1,5.1,8.8
	C205.6,28.1,207.8,42,215.1,54.5z"/>
<path fill="#00313B" d="M392.1,15.7c3.9,23.3,3.7,46.7,0.1,69.9c-0.9,6.2,0.5,7.8,5.6,8.6c12.1,2,24.3,3.6,36.3,6.1
	c7.7,1.6,11-1.1,12.5-8.4c1.9-9.4-3.9-9.5-10.3-9.4c-1.2,0-2.4-0.2-3.6-0.3c4.1-6.9,11.1-1,16.2-3.7c0.7-0.2,2.1-0.8,2.1-0.7
	c4.3,8.7-1.8,15.9-3.6,23.7c-1.5,6.4-6.5,4.1-10.7,3.4c-18-2.9-36.1-5.7-54.1-8.6c12.2-26.4,7.8-53.8,5.2-81.2
	c0-0.3,1.1-0.8,1.6-1.2C390.6,14.1,391.5,14.7,392.1,15.7z"/>
<path fill="#00313B" d="M146.2,90.5c0.1,4.7-0.6,8.1-6.5,9.3c-14.7,3.2-29.2,7.1-43.8,11c-5.9,1.6-7.7,1-5.9-6
	c6.5-24.6,6.2-50.9,0.7-74.3c-4.2-18.1,5.7-13.1,12.5-15.4c6.6-2.3,13.6-3.5,23.2-5.9c-4.9,8.1-4,15.2-6.3,21.7
	c-2.5-1-3.6-3.2-4.8-5.3c-2.3-5.3-6.4-5-10.9-3.5c-4.5,1.6-5.8,4.8-5.6,9.3c0.6,11.1-0.8,22.2,1.7,33.2c2.7,11.9-2.2,23.6-1.5,36.4
	c12.4-1,23.8-5.4,35.5-8c3.4-0.8,4.7-4,6.3-6.7c1.3-2.1,2-5.8,6-3.2C147.2,85.6,147.3,88.1,146.2,90.5z"/>
<path fill="#00313B" d="M174.6,17.6c-1.4,20.7-8.3,40.2-13.7,60c-1.1,4.1-6.5,10.1-0.8,12.2c4.6,1.7,12,0.6,16.5-4.3
	c9.8-10.6,13.6-10.2,26.3-2.2c5.5,3.5,13.4,4,19.5-1.6c2.4,1.7,5.7,2.3,7,6.9c-9.9,0.5-19.4,1-28.9,1.5c-2,0.1-5-0.4-4.1-2.5
	c2.9-6.5,0.1-7.8-5.5-6.9c-4.1,0.7-9.1-1.2-8.6,7.3c0.4,7.4-9.6,1.5-13.1,5.9c-5.8,0.8-11.6,1.6-17.4,2.4c-2.8-2.8-0.3-5.2,0.6-7.5
	c7.7-19.9,12.8-40.6,17.4-61.4C170.5,23.9,169.9,19.3,174.6,17.6z"/>
<path fill="#00313B" d="M260.4,125.5c-0.1-7.9-0.2-15.7-0.3-23.6c2.4-4.4,6.1-4.4,10.2-3.1c-3.2,22.4-0.4,45-2.4,67.4
	c-0.4,4.6,0.5,7.9,5.8,8.3c4.5,0.3,9,0.6,10.1-5.4c0.3-1.5-0.3,0.3,0.2-1.2c1.7-5.1,0.4-14.3,8.2-13c8.1,1.3,11.3,9.1,9.7,17.7
	c-0.9,1.3-1.9,1.5-3.2,0.7c-1.7-2.6-3.3-5.2-5.7-8.9c-2.3,6.9,0,12.5,0.7,17.9c-1,0.4-1.8,1-2.5,1c-10.2-0.4-22.9,2.6-30.1-2.3
	c-7.1-4.8,0.3-17.6-0.4-27C260,144.5,260.5,135,260.4,125.5z"/>
<path fill="#00313B" d="M418.2,65.9c3.5-0.2,7.1-0.6,10.6-0.5c4.8,0.2,6.2-2.3,6.2-6.6c0-4-0.7-7.1-5.7-7.2c-2.3,0-4.8-0.2-7-1
	c-5.4-2-4.4-6.9-4.2-11.1c0.3-5.1,4.2-5.2,7.8-4.7c3.5,0.4,6.9,1.8,10.4,2.2c4.2,0.5,10.9,7,11.9-2.2c0.6-6,1-14.3-10.1-15.3
	c-6.1-0.5-13.9,0.5-18.4-6.2c2,0,4-0.2,5.9,0c27.6,2.7,28.3,3.6,27,32.8c-6.8-1.9-13.4-4.1-20.2-5.6c-3.3-0.7-8.4-4.7-9.9,1.1
	c-1.7,7,5.1,6.2,8.7,5.8c6.7-0.7,8.8,1,8.7,8.1c-0.4,15.4,0,15.4-18.7,12.9C418.9,69.5,417.9,68.5,418.2,65.9z"/>
<path fill="#00313B" d="M472.6,108.8c9.6,1.3,13.8-2.4,12.3-12.4c-0.5-3.1,0.1-7.2,3.4-8.2c4.1-1.3,4.7,3.4,6,5.9
	c1.7,3.1,3.5,6.4,3.9,9.8c1.7,14,13.8,13.5,23,15.9c6.1,1.6,3.7-3.8,2.8-7c-2.9-10.7-10.5-19.4-12.5-30.4c0.8-1.3,1.6-2.8,3.4-2.6
	c1.2,0.1,1.6,1.2,1.1,2.4c4.5,15.5,12.8,29.4,20.1,46.6c-19.5-6.8-42.7-3.8-44.2-33.8c-5.5,7.9-2.4,13.6-1.9,20.4
	C483.7,113.7,476.8,115.7,472.6,108.8z"/>
<path fill="#00313B" d="M50.4,53.7c-7.8,3.2-15.2,6.7-19.1,15c-4.6,9.8-2,18.4,5.6,24.6c7.6,6.1,16.4,5.2,23.7-1.8
	c7-6.7,13.7-15.1,23.9-5.3c6.9,6.7,4.3,17.1-6.1,26.9c-3.8,3.5-7.6,7-13,8c-2.3,1.2-3.2-0.1-3.7-2.1c2.7-6.6,9.7-9.1,13.8-14.4
	c2.9-3.8,7.2-7.9,2.8-12.4c-4.3-4.3-7.8,0.5-11.1,3.1c-16.7,13.1-31.1,10.9-41.3-5.1c-10.3-16.1,2.6-39.4,21.7-40.3
	C49.4,50.5,50.8,51.4,50.4,53.7z"/>
<path fill="#00313B" d="M359.8,187.9c-20.2-0.2-20.1-0.2-18.7-19.6c0.5-7.1,0.7-14.3,1-21.4c1.5-11.9,1-23.7,0.3-35.6
	c-0.6-3.1-3.9-5.1-2.8-9.9c11.9,1.7,23.9,3.4,35.9,5.1c1.9,4.9-5.3,7.3-2.9,12c-0.6,2.7-1.2,5.3-1.8,8c-4.2-2.5-2.9-8-6-11
	c-12-6.6-14.6-5.3-15,7.8c-0.5,15.9,1.2,31.8-1.4,47.6c-1.2,7.6,3.8,9.4,9.8,10.6c5.1,1.1,11.4-1,15,5
	C369.2,190.8,364.4,188.5,359.8,187.9z"/>
<path fill="#00313B" d="M515.9,82.3c-1.6-2.3-3,0-4.4,0.2c-0.2-5.6,5.9-5.5,8.3-9.1c6.4-9.8,7.5-22-0.7-29.3
	c-15.6-13.9-34.8-18-55.3-16.5c-0.3,0.3-0.5,0.7-0.8,1c-0.9,0.2-1.7,0-2.4-0.7c-2.3-1.5-5.2-2.9-3.9-6.3c1.2-2.9,4.3-1.6,6.2-1.3
	c15.4,2.9,31,5.1,45.6,10.8C533.1,40.6,536.6,65.5,515.9,82.3z"/>
<path fill="#00313B" d="M219.9,139.8c0.6-11.9,0.6-23.8-1.8-35.6c-0.2-0.8-0.9-1.9-0.7-2.2c7-7.5,16.4-3.2,24.6-4.8
	c3.6-0.7,8.2-1.7,6.8,5.6c-1.1,5.7,0,11.9,0.1,17.8c0,19.1-0.1,38.1-0.1,57.2c-1.5,0.8-2.7,0.5-3.7-0.8c-4.1-9.2-1.4-18.8-2.2-28.3
	c-1.1-13.8,2.1-27.7-1.9-41.3c-12.4-5.2-14.8-3.6-15.3,10.5c-1,14.8,1.9,29.7-1.8,44.3c-0.9,1.5-2.1,1.9-3.7,1.3
	C220.1,155.7,220,147.8,219.9,139.8z"/>
<path fill="#00313B" d="M50.4,53.7c-0.9-0.8-1.8-1.6-2.7-2.4c1.3-6.1,6.5-4.8,10.5-5.2c6.2-0.7,9.8-3.8,9.3-10
	c-0.5-6.3-6.1-5.2-10.2-5.2c-8.9-0.1-17.3,2.1-25.2,6c-3.9,1.9-7.3,4.9-12.1,4.4c-1.2-0.2-2.2-0.8-3-1.8
	c11.5-13.7,27.5-15.9,43.6-15.8c17.6,0.1,16.1,0.7,14.2,18.4C72.8,61.6,59.2,51.3,50.4,53.7z"/>
<path fill="#00313B" d="M360.5,3.9c10.5,5.1,20.8,10.2,19.8,24.6c-3.8,1.5-5.8-0.8-7.8-3.5c-11.4-14.8-32.2-20-49.5-12.5
	c-3.7,6.6-1.1,13.8-2,20.6c-0.6,4.3,1.1,9.7-5.3,11.3c0.2-7.1,0.4-14.3,0.5-21.4c0.1-7,0.3-14-4.1-20.6C329,0.9,344.8,2.2,360.5,3.9
	z"/>
<path fill="#00313B" d="M139.4,123.3c-15.2,36.1,4.6,64.9,44.2,64.1c2.8-0.1,5.5,0.1,8.3,0.1c-17.8,7.5-37.5,3.6-49.2-9.8
	c-15.8-18.1-18-34.9-6.9-55C137.1,121.8,138.4,122,139.4,123.3z"/>
<path fill="#00313B" d="M359.8,187.9c4.3-0.9,9,0.9,13-2c1.5-3.3,4.5-2.6,7.2-2.6c6.9,0,8.7-5.3,9.2-10.3c0.6-6.8-5.2-3.8-8.6-4.3
	c-3.5-0.5-7.2-0.3-8.8-4.4c-0.1-1.2,0.3-2.2,1.1-3c9.7,0.1,19.7,2.7,31.2-5.3c-4.8,12.9-8.5,22.9-12.2,32.9c-1.6,4.3-5,2.9-8,2.7
	c-7.5-0.6-14.9-1.3-22.4-1.9C360.9,189.1,360.3,188.5,359.8,187.9z"/>
<path fill="#00313B" d="M215.1,54.5c-10.7-9.5-11-23.4-13-35.6C200.2,7.6,197,4.6,186.5,8.2c-3.6,1.2-7.9,0.7-11.8,1
	c-1.4-0.8-2.7-1.7-1.4-3.5c1.6-2.2,4-2,6.4-2.1c7.9-0.4,16.7-3.2,23.4-0.6c8.1,3.1-0.1,13,3.4,19.5c2.3,4.4,3.1,9.7,4.5,14.6
	C212.3,42.9,213.7,48.7,215.1,54.5z"/>
<path fill="#00313B" d="M17,39.5c1,0.1,2.1,0.2,3.1,0.3c1.9,3.9-0.5,6.9-2.5,9.7c-10.7,15-12.4,31-5.3,48c1.2,2.9,2.2,5.9,0.5,9.1
	c-1.1,1-2.2,1.1-3.3,0.1C-5.3,83.3-2.8,60.5,17,39.5z"/>
<path fill="#00313B" d="M139.4,123.3c-1.2-0.2-2.4-0.3-3.6-0.5c7.1-12.3,18.8-17.9,31.7-21.7c10.8,0.4,21.6,0.2,31.8,4.8
	c-0.4,1.6-1.9,1.7-3,2.3C174.9,104.1,154.6,104.1,139.4,123.3z"/>
<path fill="#00313B" d="M305.6,54c0.1,4.8,0.1,9.5,0.2,14.3c-1.9,1.3-0.4,7.4-5.7,4.1c-5.8-17.6-9.8-35.4-4-53.9
	c0.7-2.4,1.2-5.1,4.6-5.1c3.5,9.4,5.4,18.2-1.1,27.8C296.1,46.1,304.1,49.3,305.6,54z"/>
<path fill="#00313B" d="M315.8,44.3c4.2-7,1.2-14.7,2.1-22c0.6-4.6-1.7-9.6,2-13.7c6.9,8.8,3.8,19.2,3.6,28.8
	c-0.4,15.4-0.2,31-5.8,45.8c-2.5,3-4.7,3.1-6.6-0.5c2.1-7.9,2.6-15.8,2.2-23.9C314.2,53.8,315,49.1,315.8,44.3z"/>
<path fill="#00313B" d="M9.4,106.6c1.3-0.2,2.6-0.4,3.9-0.5c3.4-0.3,6.1,1.4,8.7,3.2c9.8,7,20.7,9.3,32.5,8.2
	c2.7-0.2,5.5-0.8,7.9,1.2c1,0.8,2,1.6,3,2.3C44.6,130.4,25.9,125.5,9.4,106.6z"/>
<path fill="#00313B" d="M298.8,173.2c1,0,2,0,3,0c8.2,2.7,16.3,6.9,25.1,1.8c4.3-0.8,4.3,4.3,7.4,5.3c-0.5,5.6-4.7,5.1-8.6,5
	c-6.6-0.1-13.2-0.2-19.7-0.2C299.7,183.5,299.7,178.1,298.8,173.2z"/>
<path fill="#00313B" d="M117.8,25.2c0.8,1.9,1.6,3.8,2.4,5.7c0.1,12.3,0.9,24.6,0.2,36.8c-0.5,8.6,2.5,11.3,10.5,9.7
	c3.5-0.6,4.1,0.8,2.4,3.6c-15,6.2-19.2,3.7-19.6-12.3c-0.3-10.2-0.2-20.4,0-30.6C113.8,33.5,113.5,28.6,117.8,25.2z"/>
<path fill="#00313B" d="M196.2,185.8c17.3-10.8,9.6-28.3,11.7-43.2c-0.5-2.5-5.8-0.6-4.5-4.9c3.8,0.3,8.3-3.4,11.4,1.9
	c-7.8,8.4-3.8,18.8-3.6,28.1C211.3,179.1,206.8,184.4,196.2,185.8z"/>
<path fill="#00313B" d="M239.2,13.3c-0.8-4.2-3.4-7.1-6.6-9.7c4.5-4.6,10.2-1.8,15.3-2.6c10.8-1.1,21.6-1.3,32.4,0.1
	c1.4,0.2,2.8,0.4,4.2,0.7c0.1,3.6-2.7,4-5.1,4.8c-7.8,1-15.6,0.5-23.4,0.5c-5.5,0-10,1.6-13.3,6.1C241.5,14,240.3,14,239.2,13.3z"/>
<path fill="#00313B" d="M463.8,27.5c4.7,20.7,2.2,41.5,1.2,62.3c0,0.9-2.3,1.7-3.6,2.6c0-1.7,0.1-3.4,0.1-5.2
	c1.8-15.6,0.3-31.2,0.9-46.8c0.2-4.2-1.1-8.6,1.1-12.7L463.8,27.5z"/>
<path fill="#00313B" d="M220.2,163.7c0.7,0,1.3,0.1,2,0.2c1.5,1,2.2,2.6,2.7,4.3c0,9.4,6.3,9.7,13.2,9.2c2.7-0.1,5.5,0.1,8.2,0.7
	c0.8,0,1.7-0.1,2.5-0.1c4,3.8,2.3,5.2-2.2,5.2c-9.8,0-19.5,0-30.5,0C219.2,176.6,219.8,170.2,220.2,163.7z"/>
<path fill="#00313B" d="M418.2,65.9c1.1,0.9,2.2,1.8,3.2,2.8c-2.4,5.4-0.5,8.1,5.2,8.5c7.4,0.4,14.8,0.8,22.2,1.2
	c-4.7,4.3-11.6-0.9-16.2,3.7C415.6,80.4,413.5,78,418.2,65.9z"/>
<path fill="#00313B" d="M463.5,27.7c-0.7,19.8,2.8,39.8-1.9,59.5c-0.4-19.8,1.8-39.6-1-59.3C461.5,27.8,462.5,27.7,463.5,27.7z"/>
<path fill="#00313B" d="M134,79.7c-1-0.8-2.1-1.5-3.1-2.3c6.4-2.8,12.9-5.6,19.4-11.1c1.1,9.7-1.7,16.9-4,24.2
	c-0.2-2.8-0.3-5.6-0.5-8.4C142.2,79.8,137.5,82.6,134,79.7z"/>
<path fill="#00313B" d="M372.8,161.3c0,0.9,0,1.8,0,2.6c-3.2,1.4-6.1,0.2-6.5-2.8c-2.1-16-6.1-32.1,2.5-47.6
	c2.7,3.9,0.6,8.6,2.1,12.7C372.7,137.9,369.5,149.8,372.8,161.3z"/>
<path fill="#00313B" d="M279.3,4c1.7-0.8,3.4-1.6,5.1-2.4c7.5,1,13,4.9,16.3,11.7c-0.7,1.6-1.4,3.2-2,4.8
	C291.5,14.4,284.2,10.8,279.3,4z"/>
<path fill="#00313B" d="M392.1,15.7c-0.9-0.6-1.8-1.2-2.6-1.8c1.6-0.5,3.2-0.9,4.8-1.4c3.1,0.3,6.3,0.7,9.4,1
	C400.4,17.1,396,14.9,392.1,15.7z"/>
<path fill="#114A56" d="M315.4,84.9c4.1-25.3,6.4-50.7,4.6-76.4c16-5,31.5-2.1,46.8,3.3c7.9,2.8,5.8,13.7,13.6,16.6
	c1,1.9,0.9,3.8-0.4,5.5c-2.6,3.1-2.8,7.4-5.9,10.2c-3.4,3.1-2.5,6.3-0.1,9.5c4.5,5.7,5,12.4,4.2,19.2c-1.6,13.4-8.5,19-21.7,17.5
	c-5.6-0.6-11.1-0.4-16.6-0.7c-6.2-1-12.4-1.3-18.6-1.2C318.8,88.4,315.3,89.4,315.4,84.9z"/>
<path fill="#00313B" d="M303.5,97.4c28.2,1.7,38.4,35.6,18.6,51.6c-7.8,6.3,3.1,9.6,2.6,14.8c-0.6,1.9-1.7,3.2-3.9,2.8
	c-11.4-10.6-11.7-13.7-2.2-25.2c11.5-13.8,4.6-31.7-13.7-36.1c-4.8-1.2-11.7,1.7-13.7-6.1C295,96.7,299.5,99.2,303.5,97.4z"/>
<path fill="#00313B" d="M239.2,13.3c0.8,0,1.6,0,2.4,0c1.1,1,1.9,2.2,2.4,3.6c2.1,19.9-0.2,39.8,1.3,59.7c1.2,2.7,3.3,4.7,6.3,4.6
	c17-0.4,34.9,4.5,50-8.2c1.4-1.6,2.8-3.2,4.2-4.8c0.8,15.5-10.3,18.6-22,21.1c-2.7,2.9-5.4,2.9-8-0.1c-10.8-2.6-21.8-1-32.8-1.2
	c-5.7-0.1-8-0.9-5.2-7.3c2.7-6.2,1.4-13.1,1-19.7c-5.8-9.6-2.9-19.1,0.2-28.6C239,26,239.1,19.6,239.2,13.3z"/>
<path fill="#00313B" d="M203.4,137.8c1.5,1.6,3,3.2,4.5,4.9c-7.9-0.1-15.8-0.3-23.7-0.3c-2.8,0-6.1,0.6-5.6,4.4
	c0.4,2.8-1.2,7.9,2.7,8c7.3,0.2,8.2,4.2,6.8,9.2c-1.6,6.2-7.4,6.8-12.5,6.4c-3.8-0.3-7.8-1.1-10.9-4.1c0.5-1.1,1.4-1.7,2.6-2.1
	c5.5,1,11.2,4.2,17.9-1.7c-17.2-0.5-9.4-12.7-11-20.2c-0.9-4.4,3.2-4.6,6.5-4.6C188.3,137.6,195.9,137.7,203.4,137.8z"/>
<path fill="#00313B" d="M341.8,87.4c3.6,0.1,7.3-0.5,10.7,0.3c7.9,1.9,15.6,1.7,20.5-5.2c5.4-7.6,6.3-18,0.9-24.7
	c-9.6-12.1,0.3-16.9,6.1-23.8c-2.3,9.2-4.8,17.2-0.6,27.8c6,15.2-2.3,34.2-25.9,30.7c-3.9-0.6-7.9-0.5-11.8-0.8
	C340.3,90.2,340.4,88.8,341.8,87.4z"/>
<path fill="#00313B" d="M167.4,164.2c-0.9,0.7-1.7,1.4-2.6,2.1c-9.4-6.2-15.1-14.6-10.8-25.9c4-10.5,12.7-15.7,24.3-15.1
	c5.4,0.3,11.1-1.5,15.9,2.4c-2.8,2.2-5.7,1.5-8.7,0.5c-2,0.1-3.9,0.1-5.9,0.3c-9.8,1-19,3.6-22.6,14
	C153.6,152.6,160.7,158.4,167.4,164.2z"/>
<path fill="#00313B" d="M185.6,128.1c2.9-0.2,5.8-0.3,8.6-0.5c6.2-2.3,8.5-7.4,9.1-13.5c0.5-5.1-3.8-5-7.1-5.9c1-0.8,2-1.6,3-2.3
	c3.8,0,7.7,0,11.6,0C205.4,130.4,201.8,133.5,185.6,128.1z"/>
<path fill="#00313B" d="M303.5,97.4c-3.7,2.9-8.2,1-12.1,2.1c-7,4.5-14,4.5-20.9,0c-3.9-0.9-7.1,0.6-10.3,2.5
	c-4.3-4.2-2.8-5.9,2.6-5.7C276.3,96.6,289.9,97,303.5,97.4z"/>
<path fill="#00313B" d="M341.8,87.4c0,1.4,0,2.9-0.1,4.3c-9.4-0.7-18.9-1.5-28.3-2.2c-6.4-0.5-4.9-3.5-2.2-6.9
	c1.4,0.8,2.8,1.6,4.2,2.4C323.8,89.4,333.1,85.3,341.8,87.4z"/>
<path fill="#00313B" d="M342.5,111.3c2.7,11.9,3,23.8-0.3,35.6C342.3,135,342.4,123.1,342.5,111.3z"/>
<path fill="#00313B" d="M322.5,166.3c0.7-0.9,1.4-1.7,2.2-2.6c3.6,5.3,7.8,10.3,9.5,16.6c-3.6,0.4-4.3-3.4-6.6-4.7
	C323.2,174,321.5,170.9,322.5,166.3z"/>
<path fill="#00313B" d="M484.7,55.7c-0.1-5,0-10.2,6.4-8.8c5.7,1.3,13.9,1.3,14.3,9.4c0.4,6.3-4.9,9.4-11.2,9.1
	C487.9,65.1,483.7,62.5,484.7,55.7z"/>
<path fill="#00313B" d="M189.2,37.2c4.6,10.5,10.8,17.3,6,24.9c-2.1,3.3-10.9,3.8-12.6-0.1C179,54.3,185.8,47.9,189.2,37.2z"/>
<path fill="#114A56" d="M134,79.7c4,0.2,9.5-6.4,11.7,2.4c-2,9.8-7.1,15-17.9,16.1c-10.8,1.1-21.2,5.1-33.3,8.3
	c5.6-26.8,2-52.4,0.9-77.8c-0.6-14.3,10.1-8.9,15.6-11.5c8.1-3.9,5.7,4.3,6.8,8.1c-0.2,16.4-0.4,32.9-0.8,49.3
	c-0.1,5.7,1.8,7.9,7.7,6.1C127.7,79.8,130.9,80,134,79.7z"/>
<path fill="#114A56" d="M322.5,166.3c1.7,3.1,3.4,6.2,5.1,9.3c-7.1,7.7-17.2,6.8-25.8-2.4c-4-11.7-4-11.7-11.5-17.7
	c-1,3.5-2.2,6.7-2.7,10.1c-2.1,12.1-5.7,14.5-18.5,12.5c-4.8-0.7-6.1-2.9-5.4-7.1c3.2-19.7,1.4-39.6,1.5-59.4c0-5,0.2-9.5,5.2-12.1
	c7,0,14,0,20.9,0c3.4,2.9,7.5,1.6,11.3,2.1c11,1.3,19.7,6.6,23.4,17.2c3.6,10.4,1.7,19.7-7.7,27.3
	C307.4,154.8,319.8,159.8,322.5,166.3z"/>
<path fill="#114A56" d="M62.5,118.7c-18.9,5.6-35.1,0.7-49.1-12.6c-15.4-23.9-8.9-45.5,6.7-66.3c13-7.9,26.8-13.4,42.4-11.8
	c4,0.4,10.4-1.2,8.9,5.7c-1.2,5.6,1.9,14.7-8.7,15.3c-5,0.3-10.4-1.2-14.9,2.3c-20.5,7.3-28,21.1-20,36.7c7.6,14.9,23,17.6,35.7,6.7
	c4.9-4.2,9.7-13.6,17.3-5.9c7.5,7.6,0.9,14.3-4.9,20.1C71.9,112.9,67.3,116,62.5,118.7z"/>
<path fill="#114A56" d="M368.8,113.6c-2.1,14.6-0.6,29.2-1,43.8c-0.1,3.5,0.7,6.3,5,6.6c4.3,3.4,8.9,1.5,13.5,1.2
	c5.6-0.3,8.5,1.5,6.6,8.5c-2.9,11.3-9.2,15.2-20.1,12.2c-7-0.8-14.1-2-21.1-2.4c-6.7-0.4-8-4.2-7-9.6c3.1-17.7,1-35.6,2.1-53.3
	c0.3-4.6-3.2-12.6,3.4-13.1C356,107.1,364.6,105.5,368.8,113.6z"/>
<path fill="#114A56" d="M238.8,180.1c-7.6-0.7-18.5,3.5-16.1-11.3c1.6-17.8,1.5-35.7,0-53.5c0.2-13.8,0.2-13.8,20.7-13.5
	c3.5,10.3,1.1,20.9,1.5,31.3c0.5,12.6-0.1,25.2,0.2,37.7C245.2,175.8,244.1,179.2,238.8,180.1z"/>
<path fill="#00313B" d="M238.8,180.1c3.5-2.3,5.2-5.2,5.2-9.7c-0.4-22.9-0.4-45.7-0.6-68.6c4.7,3.1,2.7,7.9,2.8,12
	c0.2,21.4,0.1,42.8,0.2,64.3C244.4,180.9,241.6,180.5,238.8,180.1z"/>
<path fill="#00313B" d="M222.7,115.3c3.4,17.8,3.4,35.7,0,53.5c-0.1-1.6-0.3-3.3-0.4-4.9C222.4,147.7,222.5,131.5,222.7,115.3z"/>
<path fill="#114A56" d="M241.7,15.5c0.1-0.7,0.1-1.5-0.1-2.2c-0.5-5.9,0.8-9.8,8.2-9.5c9.8,0.5,19.7,0.2,29.6,0.2
	c7.7,3,15.3,6.2,19.3,14.2c0.6,7.9,1.4,15.8-4.5,22.3c-1.5,1.7-1.8,3.8-0.1,5.2c8.8,7.4,7,17.7,7.5,27.3
	c-1.7,6.5-6.4,10.6-12.5,10.9c-14.5,0.7-29,0.4-43.5,0.4c-2.3,0-3.3-1.8-3.8-3.8C243.2,58.9,243.5,37.2,241.7,15.5z"/>
<path fill="#00313B" d="M344.8,20.6c7.7,0.1,13.4,1.7,13.4,9.5c0,7.1-5.5,7.5-10.9,7.5c-5.3,0-10.5,0.3-10.3-7.6
	C337.2,23.9,339.3,20.2,344.8,20.6z"/>
<path fill="#00313B" d="M346.1,72.8c-5.6,0.5-9.2-1.8-9.4-8.5c-0.2-6,2.2-8.6,8.3-8.5c6.6,0.1,12.7,1.5,12.7,9
	C357.7,70.7,352.5,73,346.1,72.8z"/>
<path fill="#00313B" d="M241.7,15.5c4.1,21.7,3.2,43.4,0.1,65.1C241.7,58.9,241.7,37.2,241.7,15.5z"/>
<path fill="#2F7D90" d="M189.9,49.7c1.3,3.2,4.3,5.9,1.6,9.3c-0.6,0.8-3.7,0.9-4.1,0.3C185.1,55.6,187.4,52.8,189.9,49.7z"/>
<path fill="#00313B" d="M290.5,122.6c6.8,0,11.6,1.8,11.9,7.3c0.3,5.4-5.1,6.6-9.3,6.8c-4.9,0.2-9.2-1.6-8.9-8.1
	C284.4,123.1,287.7,122.3,290.5,122.6z"/>
<path fill="#00313B" d="M269.7,34.9c-5.3,0.4-9-1.7-9.3-8.6c-0.3-6.1,2.1-8.6,8.3-8.5c6.5,0.1,12.9,0.9,12.9,8.7
	C281.6,32.5,276.3,34.8,269.7,34.9z"/>
<path fill="#00313B" d="M270.4,68.6c-6.4,0.9-7.8-3.1-7.9-9.3c-0.1-6.5,3.1-8.2,8.8-7.9c6.2,0.3,11.8,2.6,11.9,9
	C283.4,67.5,277.1,68.5,270.4,68.6z"/>
<path fill="#2F7D90" d="M354.3,29.3c-1.1,4.6-4.2,4.9-7.4,5c-3.2,0.1-5.2-1.2-5.2-4.9c0-3.8,2.2-4.6,5.4-4.3
	C350.4,25.4,353.2,26.2,354.3,29.3z"/>
<path fill="#2F7D90" d="M347.4,68.2c-3.8,0.2-6.5,0-6.4-4c0.1-3.1,0.9-5.6,4.7-5c3.1,0.5,6.9,0.6,7.4,4.5
	C353.7,68.3,349.6,67.9,347.4,68.2z"/>
<path fill="#2F7D90" d="M298.3,130c-0.9,2.9-3.4,2.6-5.6,2.5c-2.5-0.1-4.8-1-4.5-3.9c0.4-3.2,3.1-3,5.3-2.6
	C295.8,126.4,298.3,126.8,298.3,130z"/>
<path fill="#2F7D90" d="M277.3,26c-1,4-4.2,4-7.3,4.3c-3.5,0.3-4.9-1.4-4.7-4.8c0.1-3.2,2.1-3.8,4.7-3.5
	C272.9,22.3,276.3,22,277.3,26z"/>
<path fill="#2F7D90" d="M279.1,60.4c-2.4,3.8-5.8,4.4-9.4,4.6c-3.5,0.2-3.5-2.1-3.5-4.6c0.1-5,3.7-4,6.8-4.1
	C276.2,56.2,278.1,57.7,279.1,60.4z"/>
<path fill="#2F7D90" d="M501.5,55.4c-1.3,5.5-5.1,5.9-8.9,6c-3.8,0.1-6.2-1.5-6.2-5.8c0-4.6,2.7-5.5,6.5-5.2
	C496.8,50.7,500.2,51.7,501.5,55.4z"/>
</svg>
