<?xml version="1.0" encoding="utf-8"?>
<!-- Generator: Adobe Illustrator 18.0.0, SVG Export Plug-In . SVG Version: 6.00 Build 0)  -->
<!DOCTYPE svg PUBLIC "-//W3C//DTD SVG 1.1//EN" "http://www.w3.org/Graphics/SVG/1.1/DTD/svg11.dtd">
<svg version="1.1" id="Layer_1" xmlns="http://www.w3.org/2000/svg" xmlns:xlink="http://www.w3.org/1999/xlink" x="0px" y="0px"
	 viewBox="585.3 388.5 231.3 191.2" enable-background="new 585.3 388.5 231.3 191.2" xml:space="preserve">
<path fill="none" stroke="#000000" stroke-width="5" stroke-miterlimit="10" d="M814.1,441.3c0.1-1.4-0.3-2.5-1.3-3.6
	c-0.1-0.2-0.3-0.4-0.4-0.5c-5.3-5-11.5-5.1-17.7-4.4c-0.9,0.1-1.8,0.2-2.7,0.3c-5.5,0.7-11,1.7-16.5,1.5c-0.7,0-1.3-0.1-2-0.2
	c-4.5-0.9-8.5-3.7-12.2-8.1l-0.3-0.2c-0.2-0.8-5.3-17.7-16.4-19.2c-11.5-1.6-12.4-11.8-25.9-14.5c-7.3-1.4-13.6-1.6-17.8-1.5
	c-4.2-0.1-10.5,0.1-17.8,1.5c-13.5,2.7-14.4,12.9-25.9,14.5c-11.1,1.6-16.2,18.4-16.4,19.2l-0.3,0.2c-3.7,4.4-7.7,7.2-12.2,8.1
	c-0.6,0.1-1.3,0.2-2,0.2c-5.5,0.1-11-0.8-16.5-1.5c-0.9-0.1-1.8-0.2-2.7-0.3c-6.2-0.7-12.3-0.6-17.7,4.4c-0.1,0.1-0.3,0.3-0.4,0.5
	c-0.9,1-1.4,2.1-1.3,3.6c-0.1,0.5,0,0.9,0.1,1.3c6.2,18.1,16.6,30,32.8,33.1c3.3,0.6,6.7,0.7,10,1.1c0.2,0.8,0.4,1.5,0.5,2.2
	c1.9,18.3,7.8,34.3,17.9,48c0.7,1,0.9,3.2,0.7,4.6c-2.9,21.8,8.2,41.8,25.8,44.3c1.5,0.3,3.1,0.6,4.7,0.7c2.9,0.2,5.7,0.3,8.6,0.4
	c4,0.2,8,0.3,12,0.2c4,0,8-0.1,12-0.2c2.9-0.1,5.7-0.2,8.6-0.4c1.6-0.1,3.2-0.3,4.7-0.7c17.7-2.5,28.7-22.6,25.8-44.3
	c-0.2-1.5,0-3.6,0.7-4.6c10.1-13.7,16-29.7,17.9-48c0.1-0.7,0.3-1.3,0.5-2.2c3.3-0.3,6.7-0.4,10-1.1c16.2-3.1,26.7-15,32.8-33.1
	C814.1,442.2,814.2,441.8,814.1,441.3z"/>
</svg>
