<?xml version="1.0" encoding="utf-8"?>
<!-- Generator: Adobe Illustrator 18.0.0, SVG Export Plug-In . SVG Version: 6.00 Build 0)  -->
<!DOCTYPE svg PUBLIC "-//W3C//DTD SVG 1.1//EN" "http://www.w3.org/Graphics/SVG/1.1/DTD/svg11.dtd">
<svg version="1.1" id="Layer_1" xmlns="http://www.w3.org/2000/svg" xmlns:xlink="http://www.w3.org/1999/xlink" x="0px" y="0px"
	 viewBox="0 0 288 212" enable-background="new 0 0 288 212" xml:space="preserve">
<g>
	<g>
		<path d="M0,28.1c0,28.7,0,57.3,0,86c0,1,0.6,2.2,1.5,2.6c11,5,22,10,33,15c4.9,2.2,9.8,4.5,14.7,6.7c1.6,0.7,2.7,0.6,4.3,0.1
			c18.5-5.1,37-10.1,55.4-15.2c55.4-15.2,110.8-30.3,166.1-45.5c3.6-1,7.1-2,10.7-2.9c1.3-0.4,2.2-1.6,2.2-2.9c0-22,0-44,0-66
			c0-1.7-1.4-2.9-3-3c-11.8-0.6-23.5-1.2-35.3-1.9c-7.3-0.4-15.3-1.8-22.7-1c-19.3,2.1-38.6,4.3-57.9,6.4c-54.2,6-108.3,12-162.5,18
			C5.5,24.8,4.2,25,3,25.1c-3.8,0.4-3.8,6.4,0,6c47.4-5.3,94.7-10.5,142.1-15.8c24.8-2.8,49.7-5.5,74.5-8.3
			c17.6-1.9,35.4,0.5,53,1.4c4.1,0.2,8.3,0.4,12.4,0.7c-1-1-2-2-3-3c0,22,0,44,0,66c0.7-1,1.5-1.9,2.2-2.9
			C239.5,81.5,194.8,93.7,150,106c-26.8,7.3-53.6,14.7-80.5,22c-6,1.7-12.1,3.3-18.1,5c-0.3,0.1-0.7,0.2-1,0.3
			c1.3-0.4,3.1,0.7,1.7,0.1c-0.8-0.4-1.6-0.7-2.4-1.1c-6.2-2.8-12.3-5.6-18.5-8.4c-8.9-4.1-17.9-8.2-26.8-12.2
			c0.5,0.9,1,1.7,1.5,2.6c0-28.7,0-57.3,0-86C6,24.3,0,24.3,0,28.1z"/>
	</g>
</g>
<g>
	<g>
		<path d="M54.8,136.1c-0.1-32.1-0.2-64.2-0.4-96.3c0-1.3-0.9-2.6-2.2-2.9c-16-3.9-31.9-7.8-47.9-11.7c-3.8-0.9-5.4,4.9-1.6,5.8
			c16,3.9,31.9,7.8,47.9,11.7c-0.7-1-1.5-1.9-2.2-2.9c0.1,32.1,0.2,64.2,0.4,96.3C48.8,140,54.8,140,54.8,136.1L54.8,136.1z"/>
	</g>
</g>
<g>
	<g>
		<path d="M52.2,42.7c46.5-6.8,93.1-13.5,139.6-20.3c30.2-4.4,60.4-8.8,90.6-13.2c3.8-0.6,2.2-6.3-1.6-5.8
			c-46.5,6.8-93.1,13.5-139.6,20.3C111,28.2,80.8,32.6,50.6,37C46.8,37.5,48.4,43.3,52.2,42.7L52.2,42.7z"/>
	</g>
</g>
<g>
	<path d="M13.3,193.4l0-4.2v-1.7c0-7.1,0.4-12,1.1-14.8c0.8-3.4,2-5.8,3.5-7.1c2-1.8,4.6-2.7,7.7-2.7c0.8,0,1.3,0.2,1.7,0.5
		c0.4,0.4,0.5,0.8,0.5,1.3s-0.1,0.9-0.4,1.3c-0.3,0.4-0.7,0.6-1.1,0.6h-3.4c-1,0-1.8,0.6-2.6,1.9c-0.7,1.3-1.2,2.8-1.5,4.6
		c-0.6,3.5-0.9,6.3-0.9,8.6v0.4L17.6,196c0,2.9,0.2,5,0.5,6.1s0.6,2,1,2.7c0.3,0.7,0.7,1.3,1.2,1.7c1.1,1,2.5,1.5,4.1,1.5
		c0.6,0,1.1-0.2,1.5-0.6c0.6,0,1.1,0.1,1.5,0.4c0.4,0.3,0.7,0.7,0.7,1.2c0,1.9-1.3,2.8-4,2.8c-1.1,0-2.2-0.2-3.4-0.5
		c-1.2-0.3-2.1-0.7-2.7-1C14.9,208.2,13.3,202.6,13.3,193.4z"/>
	<path d="M49.1,178.7l0.1,1.2c0,21.3-3.1,32-9.3,32c-2.4,0-4.2-0.9-5.3-2.9c-1.2-2-1.9-4-2.2-6c-0.4-3.1-0.6-6.6-0.7-10.6
		c-0.1-4-0.1-9.7-0.1-17.2l-0.3-10.3c0.4-1,1-1.5,1.5-1.5c0.6,0,1.1,0.4,1.5,1.3c0.4,0.9,0.7,1.8,0.7,2.8v19.6
		c0,1.7,0.2,4.3,0.5,7.6c0.3,3.4,0.5,5.9,0.5,7.6c0,3.5,1.5,5.3,4.6,5.3c3.4,0,5.1-12.9,5.1-38.7v-4l0-1.2c0-0.6,0.1-1,0.4-1.3
		c0.3-0.3,0.7-0.4,1.4-0.4c0.6,0,1.1,0.1,1.5,0.3c0.3,0.2,0.5,0.5,0.7,0.8c0.2,0.6,0.3,1.4,0.3,2.3l-0.5,7.2L49.1,178.7z"/>
	<path d="M58.6,170.4l0.2,17.3c-0.3,0.7-0.4,1.5-0.4,2.5v1.4l-0.3,11.5c0,3.3,0.8,5,2.4,5l3-0.1c2.6,0,3.9,0.7,3.9,2.1
		c0,0.5-0.2,0.9-0.7,1.3c-0.4,0.3-0.9,0.5-1.5,0.6c-1.8-0.6-3.9-0.8-6.4-0.8c-0.8,0.4-1.5,0.7-2.2,0.7c-0.7,0-1.3-0.2-1.7-0.7
		c-0.4-0.5-0.6-1-0.6-1.6c0-3.6,0.2-8.9,0.5-16.1c0.3-7.2,0.5-12.5,0.5-16.1v-0.5c-0.3-3-0.4-5.2-0.4-6.8c0-4.5,0.8-6.8,2.5-6.8
		c0.5,0,0.9,0.2,1.3,0.5c0.4,0.4,0.5,0.8,0.5,1.3L58.6,170.4z"/>
	<path d="M77.4,209.6l-0.1-5.5c0,0,0-0.8,0.1-2.5c-0.2-0.6-0.6-6-1.1-16.2c-0.6-10.2-0.9-16.5-0.9-18.7c-0.1,0-0.2,0-0.3,0
		c-3.9-0.1-5.8-0.8-5.8-2.1c0-0.4,0.3-0.8,0.8-1.1c0.5-0.3,1-0.4,1.5-0.4l9.8,0.7l1.2,0c1.5,0,2.2,0.6,2.2,1.7
		c0,0.6-0.2,1.1-0.7,1.4s-1,0.5-1.7,0.5l-3.3-0.5l-0.1,0.7c0,4.5,0.4,11.4,1.2,20.4c0.8,9.1,1.2,15.9,1.2,20.5
		c0,0.6-0.3,1.1-0.8,1.5c-0.5,0.4-1.1,0.7-1.7,0.7L77.4,209.6z"/>
	<path d="M105.4,178.7l0.1,1.2c0,21.3-3.1,32-9.3,32c-2.4,0-4.2-0.9-5.3-2.9c-1.2-2-1.9-4-2.2-6c-0.4-3.1-0.6-6.6-0.7-10.6
		c-0.1-4-0.1-9.7-0.1-17.2l-0.3-10.3c0.4-1,1-1.5,1.5-1.5c0.6,0,1.1,0.4,1.5,1.3c0.4,0.9,0.7,1.8,0.7,2.8v19.6
		c0,1.7,0.2,4.3,0.5,7.6c0.3,3.4,0.5,5.9,0.5,7.6c0,3.5,1.5,5.3,4.6,5.3c3.4,0,5.1-12.9,5.1-38.7v-4l0-1.2c0-0.6,0.1-1,0.4-1.3
		c0.3-0.3,0.7-0.4,1.4-0.4c0.6,0,1.1,0.1,1.5,0.3c0.3,0.2,0.5,0.5,0.7,0.8c0.2,0.6,0.3,1.4,0.3,2.3l-0.5,7.2L105.4,178.7z"/>
	<path d="M114.1,186.7l-0.1,7.8c0,6.4,0.5,11.4,1.4,15l-0.8,1.9h-2l-0.9-1.1c0-2.2,0.1-4.6,0.1-7.3s-0.2-8.4-0.6-17.2
		c-0.4-8.8-0.6-15.4-0.6-19.7c0-2.3,0.8-3.4,2.4-3.4c2.5,0,4.6,0.7,6.3,2c1.7,1.3,2.6,3.2,2.6,5.6v5.1c0,1.4-0.3,2.6-0.8,3.8
		c-0.5,1.1-1.1,2.3-1.8,3.6c-0.7,1.3-1.1,2-1.1,2.1c0.3,1.2,0.7,3.5,1.4,6.9c1.4,7.5,3,12.9,4.7,16.1c0.5,0.9,0.7,1.7,0.7,2.2
		s-0.1,1-0.4,1.3c-0.3,0.4-0.7,0.5-1.2,0.5c-1,0-2-1.2-2.9-3.5c-0.9-2.3-1.7-4.9-2.2-7.7c-1.7-8.6-2.8-13.3-3.1-14.2H114.1z
		 M114.4,165.5l-0.2,1c0,2,0,4.8,0.1,8.5c0.1,3.7,0.1,6.4,0.1,8.1c1.1-0.6,2-2.1,2.7-4.6c0.7-2.5,1-4.4,1-5.7s0-2.3-0.1-2.9
		s-0.2-1.3-0.5-2.1C117.1,166.4,116,165.5,114.4,165.5z"/>
	<path d="M129,174.4l-0.4-6.1c0-3.4,1-5.1,3-5.1c1.3,0,3,0.3,5.3,0.9c2.2,0.6,3.3,1.4,3.3,2.3c0,1-0.7,1.7-2.1,2.2
		c-2.2-0.8-4-1.2-5.4-1.4c0.1,1,0.1,2.1,0.1,3.1l-0.3,10.3c0,0,0.1,0.4,0.2,1.1l2.6-0.1c2.3,0,3.5,0.7,3.5,2c0,0.5-0.2,1-0.6,1.4
		s-1,0.6-1.6,0.6c-0.6,0-1.3,0-2.1-0.1h-1.8c0.1,1.8,0.2,3.6,0.2,5.4l-0.3,13c0,2.7,0,4,0.1,4l5.3-0.2c1.8,0,2.7,0.6,2.7,1.8
		c0,0.7-0.3,1.3-0.9,1.6s-1.3,0.5-2.1,0.5h-6.1c-0.6,0-1.2-0.2-1.7-0.7c-0.5-0.4-0.8-1-0.8-1.6v-1.9l-0.5-12.2L129,174.4z"/>
	<path d="M144.5,201.8l0.2-22.7c0-1.5-0.1-3.9-0.4-7.1s-0.4-5.2-0.4-6.1s0.3-1.5,0.8-2c0.5-0.5,1.1-0.7,1.7-0.7
		c4.9,0,9,2.9,12.1,8.7c1.8,3.3,2.7,6.8,2.7,10.5L161,186v4c0,4.8-0.2,8.1-0.7,9.7c-0.4,1.6-0.9,3-1.4,4c-0.5,1.1-1,2-1.7,2.9
		c-1.5,1.9-3.4,3.5-5.8,4.6h-5.2C145.1,211.2,144.5,208.1,144.5,201.8z M149.5,205.8v1.7c4.2,0,6.7-4.2,7.5-12.7
		c0.2-1.9,0.3-3.8,0.3-5.6c0-14.5-2.8-22.1-8.4-22.7c-0.4,1.9-0.5,4.5-0.5,7.8s0.2,8.5,0.5,15.6C149.4,197,149.5,202.3,149.5,205.8z
		"/>
	<path d="M174.9,169.5l-0.4-3.7v-0.4c0-1,0.2-1.8,0.5-2.4s1.1-0.9,2.4-0.9s2.6,0.3,3.8,1c1.2,0.7,2.2,1.6,3,2.8c1.4,2.3,2.1,5,2.1,8
		s-0.2,5.4-0.7,7.1c-0.4,1.7-1.2,3.4-2.2,4.9c1.9,1.8,3,4.8,3.2,8.9c0,0.9,0.1,2.1,0.1,3.4c0,1.3-0.1,2.6-0.3,3.9
		c-0.2,1.3-0.6,2.5-1.2,3.6c-0.6,1.1-1.2,2.1-2,3c-1.8,1.8-4.1,2.7-7.1,2.7c-1,0-1.7-0.4-1.9-1.3c-0.2-0.7-0.3-1.5-0.3-2.5l0.7-15.3
		L174.9,169.5z M178,204.2l0.1,0.4v3.2c1.6-0.4,2.8-1.3,3.6-2.9s1.2-3,1.2-4.3s0-2.4-0.1-3.1s-0.1-1.7-0.3-2.8
		c-0.2-1.1-0.4-2.1-0.7-3c-0.7-2.1-1.8-3.2-3.3-3.6c-0.2,3.1-0.3,6.7-0.3,10.9L178,204.2z M178.4,173.2V184c2.5-0.1,3.8-3.1,3.8-9.1
		s-1-9.1-3-9.4C178.7,166.7,178.4,169.3,178.4,173.2z"/>
	<path d="M208.5,178.7l0.1,1.2c0,21.3-3.1,32-9.3,32c-2.4,0-4.2-0.9-5.3-2.9c-1.2-2-1.9-4-2.2-6c-0.4-3.1-0.6-6.6-0.7-10.6
		c-0.1-4-0.1-9.7-0.1-17.2l-0.3-10.3c0.4-1,1-1.5,1.5-1.5c0.6,0,1.1,0.4,1.5,1.3c0.4,0.9,0.7,1.8,0.7,2.8v19.6
		c0,1.7,0.2,4.3,0.5,7.6c0.3,3.4,0.5,5.9,0.5,7.6c0,3.5,1.5,5.3,4.6,5.3c3.4,0,5.1-12.9,5.1-38.7v-4l0-1.2c0-0.6,0.1-1,0.4-1.3
		c0.3-0.3,0.7-0.4,1.4-0.4c0.6,0,1.1,0.1,1.5,0.3c0.3,0.2,0.5,0.5,0.7,0.8c0.2,0.6,0.3,1.4,0.3,2.3l-0.5,7.2L208.5,178.7z"/>
	<path d="M220.4,209.6l-0.1-5.5c0,0,0-0.8,0.1-2.5c-0.2-0.6-0.6-6-1.1-16.2c-0.6-10.2-0.9-16.5-0.9-18.7c-0.1,0-0.2,0-0.3,0
		c-3.9-0.1-5.8-0.8-5.8-2.1c0-0.4,0.3-0.8,0.8-1.1c0.5-0.3,1-0.4,1.5-0.4l9.8,0.7l1.2,0c1.5,0,2.2,0.6,2.2,1.7
		c0,0.6-0.2,1.1-0.7,1.4s-1,0.5-1.7,0.5l-3.3-0.5l-0.1,0.7c0,4.5,0.4,11.4,1.2,20.4c0.8,9.1,1.2,15.9,1.2,20.5
		c0,0.6-0.3,1.1-0.8,1.5c-0.5,0.4-1.1,0.7-1.7,0.7L220.4,209.6z"/>
	<path d="M237.8,209.6l-0.1-5.5c0,0,0-0.8,0.1-2.5c-0.2-0.6-0.6-6-1.1-16.2c-0.6-10.2-0.9-16.5-0.9-18.7c-0.1,0-0.2,0-0.3,0
		c-3.9-0.1-5.8-0.8-5.8-2.1c0-0.4,0.3-0.8,0.8-1.1c0.5-0.3,1-0.4,1.5-0.4l9.8,0.7l1.2,0c1.5,0,2.2,0.6,2.2,1.7
		c0,0.6-0.2,1.1-0.7,1.4s-1,0.5-1.7,0.5l-3.3-0.5l-0.1,0.7c0,4.5,0.4,11.4,1.2,20.4c0.8,9.1,1.2,15.9,1.2,20.5
		c0,0.6-0.3,1.1-0.8,1.5c-0.5,0.4-1.1,0.7-1.7,0.7L237.8,209.6z"/>
	<path d="M249.1,174.4l-0.4-6.1c0-3.4,1-5.1,3-5.1c1.3,0,3,0.3,5.3,0.9c2.2,0.6,3.3,1.4,3.3,2.3c0,1-0.7,1.7-2.1,2.2
		c-2.2-0.8-4-1.2-5.4-1.4c0.1,1,0.1,2.1,0.1,3.1l-0.3,10.3c0,0,0.1,0.4,0.2,1.1l2.6-0.1c2.3,0,3.5,0.7,3.5,2c0,0.5-0.2,1-0.6,1.4
		s-1,0.6-1.6,0.6c-0.6,0-1.3,0-2.1-0.1h-1.8c0.1,1.8,0.2,3.6,0.2,5.4l-0.3,13c0,2.7,0,4,0.1,4l5.3-0.2c1.8,0,2.7,0.6,2.7,1.8
		c0,0.7-0.3,1.3-0.9,1.6s-1.3,0.5-2.1,0.5h-6.1c-0.6,0-1.2-0.2-1.7-0.7c-0.5-0.4-0.8-1-0.8-1.6v-1.9l-0.5-12.2L249.1,174.4z"/>
	<path d="M267.9,186.7l-0.1,7.8c0,6.4,0.5,11.4,1.4,15l-0.8,1.9h-2l-0.9-1.1c0-2.2,0.1-4.6,0.1-7.3s-0.2-8.4-0.6-17.2
		c-0.4-8.8-0.6-15.4-0.6-19.7c0-2.3,0.8-3.4,2.4-3.4c2.5,0,4.6,0.7,6.3,2c1.7,1.3,2.6,3.2,2.6,5.6v5.1c0,1.4-0.3,2.6-0.8,3.8
		c-0.5,1.1-1.1,2.3-1.8,3.6c-0.7,1.3-1.1,2-1.1,2.1c0.3,1.2,0.7,3.5,1.4,6.9c1.4,7.5,3,12.9,4.7,16.1c0.5,0.9,0.7,1.7,0.7,2.2
		s-0.1,1-0.4,1.3s-0.7,0.5-1.2,0.5c-1,0-2-1.2-2.9-3.5c-0.9-2.3-1.7-4.9-2.2-7.7c-1.7-8.6-2.8-13.3-3.1-14.2H267.9z M268.2,165.5
		l-0.2,1c0,2,0,4.8,0.1,8.5c0.1,3.7,0.1,6.4,0.1,8.1c1.1-0.6,2-2.1,2.7-4.6c0.7-2.5,1-4.4,1-5.7s0-2.3-0.1-2.9s-0.2-1.3-0.5-2.1
		C270.9,166.4,269.9,165.5,268.2,165.5z"/>
</g>
</svg>
