<?xml version="1.0" encoding="utf-8"?>
<!-- Generator: Adobe Illustrator 18.0.0, SVG Export Plug-In . SVG Version: 6.00 Build 0)  -->
<!DOCTYPE svg PUBLIC "-//W3C//DTD SVG 1.1//EN" "http://www.w3.org/Graphics/SVG/1.1/DTD/svg11.dtd">
<svg version="1.1" id="Layer_1" xmlns="http://www.w3.org/2000/svg" xmlns:xlink="http://www.w3.org/1999/xlink" x="0px" y="0px"
	 viewBox="548.1 414.9 307.5 135.5" enable-background="new 548.1 414.9 307.5 135.5" xml:space="preserve">
<path fill="#00313B" d="M546.8,490.6c0-12.9,0.1-23.6,0.2-34.2c0-2.3-0.1-4.6,0.2-6.9c0.4-3.9,2.6-6.7,6.2-8.2
	c9.9-4.1,20.2-7.4,30.5-10.3c15.6-4.3,31.5-7.6,47.5-10.1c12.2-1.9,24.5-3.3,36.8-4.1c7.3-0.5,14.7-0.9,22.1-1.1
	c6.8-0.2,13.6-0.2,20.4-0.1c11,0.2,21.9,0.9,32.9,1.9c11.7,1.1,23.4,2.6,35,4.6c18.3,3.1,36.3,7.3,53.9,13.1
	c5.5,1.8,10.9,3.7,16.2,5.9c4.6,1.9,6.7,5.1,6.8,10.1c0.1,9.2,0.1,18.3,0.3,27.5c0.2,9.1-0.1,18.2-0.2,27.2c0,1.6-0.1,3.2-0.1,4.8
	c0,4.8-2.2,8.1-6.7,9.9c-9.9,4.1-20,7.8-30.2,11.1c-18.8,6.2-37.9,11.1-57.3,14.5c-14.8,2.6-29.7,4.4-44.6,5.1
	c-7.7,0.4-15.5,0.5-23.2,0.3c-12.9-0.4-25.8-1.4-38.6-3.2c-24.3-3.4-48.1-9.2-71.4-16.9c-10.1-3.3-20-7-29.8-11
	c-4.2-1.7-6.5-5.1-6.5-9.7C547,503.4,546.7,495.8,546.8,490.6z M734.3,524.9c0-0.6-0.3-1.2-0.5-1.7c-0.4-1.1-0.9-2.2-1.9-3
	c-1.6-1.3-3.3-2.4-5.3-3c-2.8-0.9-5.6-1.7-8.5-2.3c-1.1-0.2-2.1-0.1-3.1-0.4c-1.9-0.5-3.9-0.6-5.8-0.8c-1.4-0.1-2.7-0.1-4.1-0.3
	c-1.7-0.2-3.5,0.1-5.2-0.1c-0.6-0.1-1.2,0.5-1.8,0.3c-1.2-0.4-2.4-0.2-3.5,0c-2.7,0.6-5.4,0.8-8,1.3c-3,0.6-6,1.2-8.8,2.2
	c-2.2,0.8-4.3,1.8-6.1,3.3c-1.1,0.9-2.3,1.9-2,3.6c0.1,0.5-0.4,0.8-0.5,1.2c-4.7-0.7-9.2-1.8-13.8-3.1c-11-3-21.5-7.3-32-11.8
	c-2.3-1-4.5-1.9-6.9-2.4c-0.9-0.2-1.9-0.4-2.6,0.5c-0.7,0.9-0.1,1.7,0.4,2.5c1,1.6,2.4,2.9,3.8,4.2c4.9,4.2,10.4,7.6,16.2,10.5
	c23.1,11.7,47.6,17.3,73.5,16c14.9-0.7,29.4-3.8,43.4-9c10.3-3.8,20.1-8.5,29-15c2.5-1.8,4.9-3.7,6.7-6.3c0.6-0.8,1.3-1.8,0.6-2.7
	c-0.7-1-1.8-0.6-2.8-0.4c-3.4,0.8-6.5,2.2-9.7,3.6C761.9,517.3,748.5,522.2,734.3,524.9z M686.3,472.8c-0.1,0-0.1,0-0.2,0.1
	c-0.3-0.4-0.5-0.7-0.8-1.1c-5.4-7.7-11.9-14.3-19.1-20.2c-0.9-0.7-1.8-1.1-2.9-1c-1.9,0.1-3.8,0.1-5.7,0c-1.1-0.1-1.3,0.3-1.3,1.3
	c0,14.5,0,29,0,43.5c0,0.4,0.1,0.8-0.1,1.1c-0.5,1,0.1,0.9,0.7,0.9c2.8,0,5.6-0.1,8.4,0c1,0,1.1-0.3,1.1-1.2c0-9.8,0-19.5,0-29.3
	c0-0.4-0.1-0.8,0.2-1.3c0.9,0.8,1.7,1.6,2.5,2.4c2.5,2.5,4.9,5.2,7.1,8.1c2.3,2.9,4.3,6,6,9.2c2,3.6,3.5,7.4,4.7,11.3
	c0.2,0.6,0.5,0.8,1.1,0.8c2.5,0,5-0.1,7.5,0c0.7,0,0.9-0.2,0.9-0.9c0-15,0-29.9,0-44.9c0-0.7-0.2-0.9-1-0.9c-2.7,0-5.4,0.1-8.2,0
	c-0.9,0-1.1,0.3-1.1,1.1c0,4.5,0,9.1,0,13.6C686.3,467.8,686.3,470.3,686.3,472.8z M731.6,472.9c-0.5-0.2-0.6-0.6-0.8-0.9
	c-5.5-8-12.2-14.9-19.9-20.9c-0.5-0.4-0.9-0.7-1.6-0.7c-2.3,0-4.6,0-6.9,0c-0.7,0-0.9,0.2-0.9,0.9c0,15,0,29.9,0,44.9
	c0,0.8,0.3,1,1,1c2.7,0,5.4-0.1,8.2,0c0.9,0,1.1-0.3,1.1-1.1c0-9.8,0-19.6,0-29.4c0-0.4,0-0.8,0-1.4c0.6,0.5,1,0.8,1.4,1.2
	c3.6,3.3,6.8,7,9.7,10.9c4.2,5.8,7.5,12,9.5,18.9c0.2,0.6,0.4,0.9,1.1,0.9c2.5-0.1,4.9-0.1,7.4,0c0.6,0,0.9-0.1,0.9-0.8
	c0-15,0-30,0-45c0-0.7-0.2-0.9-0.9-0.9c-2.7,0-5.4,0.1-8.2,0c-0.9,0-1.1,0.3-1.1,1.1c0,6.7,0,13.3,0,20
	C731.6,472.1,731.6,472.4,731.6,472.9z M803.9,465.3c1.7,1.5,3.1,2.9,4.5,4.3c7.4,7.7,13,16.5,16.1,26.8c0.2,0.6,0.4,0.8,1.1,0.8
	c2.5,0,4.9,0,7.4,0c0.8,0,0.9-0.3,0.9-1c0-14.9,0-29.9,0-44.8c0-0.8-0.3-1-1-1c-2.6,0-5.3,0.1-7.9,0c-0.9,0-1.2,0.3-1.2,1.2
	c0,6.7,0,13.3,0,20c0,0.4,0.1,0.8-0.2,1.2c-0.2-0.3-0.4-0.5-0.5-0.7c-5.4-7.9-12.1-14.7-19.5-20.7c-0.9-0.7-1.7-1-2.8-1
	c-1.9,0.1-3.9,0.1-5.8,0c-1-0.1-1.2,0.3-1.2,1.3c0,5.7,0,11.3,0,17c0,9.2,0,18.3,0,27.5c0,0.5-0.2,1,0.7,1c2.9,0,5.8,0,8.7,0
	c0.6,0,0.7-0.2,0.7-0.8c0-1.5,0-2.9,0-4.4C803.9,483.3,803.9,474.5,803.9,465.3z M583,449.1c-4.5,0-8.5,0.3-12.4,0.9
	c-0.5,0.1-0.9,0.1-0.8,0.9c0.7,4.3,0.5,8.7,0.6,13c0.1,7.7,0,15.5,0,23.2c0,3.3-0.1,6.5-0.4,9.8c-0.1,0.6,0.1,0.8,0.7,0.9
	c1.9,0.4,3.9,0.6,5.9,0.8c6.1,0.5,12.1,0.2,17.9-1.9c5.9-2.1,10.8-5.5,13.8-11.1c2.6-4.9,3.3-10.1,2.9-15.6
	c-0.6-8.6-4.7-14.8-12.7-18.2C593.4,449.7,588,449.1,583,449.1z M767.3,498.9c3.3,0,6.2-0.4,9.1-1.3c6.7-2.1,11.7-6.1,13.8-13
	c1.3-4.3,1.2-8.8,0.2-13.1c-1.5-6.9-4.5-13.1-9.9-17.8c-6.7-5.9-15.4-6.5-22.8-1.4c-5.4,3.7-9,8.9-11.2,15
	c-2.3,6.2-2.9,12.5-0.8,18.9c1.4,4.2,4,7.5,7.9,9.7c3.1,1.8,6.6,2.5,10,3.1C764.8,499.1,766.2,499.1,767.3,498.9z M631.8,487.1
	c3.3,0,6.6,0,9.8,0c0.7,0,1,0.1,1.1,0.9c0.4,2.8,0.8,5.7,1,8.5c0,0.6,0.3,0.8,0.9,0.8c3.1,0,6.1,0,9.2,0c0.6,0,0.7-0.2,0.7-0.8
	c-1-9.6-2.9-18.9-6.5-27.9c-2.5-6.3-5.8-12.2-10.3-17.3c-0.4-0.5-0.9-0.8-1.6-0.8c-2.7,0-5.4,0-8,0c-0.7,0-1.1,0.2-1.5,0.7
	c-1.7,2-3.2,4-4.6,6.1c-4.9,7.7-8,16.1-10.1,25c-1,4.4-1.7,8.9-2.2,13.4c-0.2,1.5-0.2,1.5,1.2,1.5c2.7,0,5.4,0,8.2,0
	c0.6,0,0.9-0.1,0.9-0.8c0.2-2.8,0.6-5.6,1-8.4c0.1-0.8,0.4-0.9,1.1-0.9C625.4,487.1,628.6,487.1,631.8,487.1z"/>
<path fill="#114A56" d="M734.3,524.9c14.1-2.8,27.6-7.6,40.8-13.3c3.2-1.4,6.3-2.8,9.7-3.6c1-0.2,2.1-0.6,2.8,0.4
	c0.7,1,0,1.9-0.6,2.7c-1.8,2.6-4.2,4.5-6.7,6.3c-8.9,6.5-18.7,11.2-29,15c-14,5.2-28.5,8.3-43.4,9c-25.9,1.2-50.4-4.4-73.5-16
	c-5.8-2.9-11.3-6.3-16.2-10.5c-1.4-1.2-2.8-2.5-3.8-4.2c-0.5-0.8-1.1-1.6-0.4-2.5c0.7-0.9,1.7-0.6,2.6-0.5c2.4,0.5,4.7,1.4,6.9,2.4
	c10.5,4.5,21,8.7,32,11.8c4.5,1.3,9.1,2.4,13.8,3.1c0.3,0.1,0.6,0.2,1,0.3c7.7,1.3,15.3,2.3,23.1,2.6
	C707.1,528.8,720.8,527.7,734.3,524.9z"/>
<path fill="#00313B" d="M580.5,473.9c0-4.9,0-9.8,0-14.7c0-0.4-0.2-1,0.6-1c4.3-0.2,8.5,0,12.4,2c5.9,2.9,8.1,8,8,14.3
	c-0.2,9.5-6.2,14-14.3,15.2c-1.9,0.3-3.8,0.3-5.7,0.2c-0.8,0-1.1-0.3-1.1-1.1C580.6,483.8,580.5,478.8,580.5,473.9z"/>
<path fill="#00313B" d="M767.7,489.9c-2,0.1-3.9-0.2-5.8-0.8c-5-1.6-7.8-5.5-7.7-11.1c0.1-6.4,2.4-12,6.9-16.6
	c0.5-0.5,1-0.9,1.5-1.3c3.4-2.6,6.9-2.6,10.2,0.1c3.9,3.1,6.1,7.3,7.5,12c0.8,2.8,1.2,5.8,0.6,8.7c-1,4.9-4.5,8-9.7,8.8
	C770.1,489.8,768.9,489.9,767.7,489.9z"/>
<path fill="#00313B" d="M631.9,459.3c2.4,3.5,4.3,7.3,5.9,11.2c1,2.4,1.8,4.8,2.6,7.2c0.2,0.6,0,0.7-0.5,0.7c-5.3,0-10.6,0-15.9,0
	c-0.5,0-0.8,0-0.6-0.7c2-6.5,4.6-12.6,8.3-18.3C631.7,459.4,631.8,459.4,631.9,459.3z"/>
</svg>
