<?xml version="1.0" encoding="utf-8"?>
<!-- Generator: Adobe Illustrator 18.0.0, SVG Export Plug-In . SVG Version: 6.00 Build 0)  -->
<!DOCTYPE svg PUBLIC "-//W3C//DTD SVG 1.1//EN" "http://www.w3.org/Graphics/SVG/1.1/DTD/svg11.dtd">
<svg version="1.1" id="Layer_1" xmlns="http://www.w3.org/2000/svg" xmlns:xlink="http://www.w3.org/1999/xlink" x="0px" y="0px"
	 viewBox="548.1 414.9 307.5 135.5" enable-background="new 548.1 414.9 307.5 135.5" xml:space="preserve">
<path fill="#00313B" d="M855.6,479.9c0,9.7,0,19.4,0,29.2c0,5.4-2.5,8.8-7.5,10.8c-28,11.2-56.8,19.9-86.6,25.2
	c-17.2,3-34.6,4.9-52,5.3c-26.9,0.6-53.4-2.2-79.7-7.8c-25.6-5.4-50.5-13.3-74.7-23.1c-4.2-1.7-6.4-4.8-6.5-9.3
	c-0.5-20.2-0.4-40.3,0-60.5c0.1-4.6,2.5-7.6,6.8-9.3c13.4-5.4,27.1-9.5,41.1-12.9c16-3.9,32.2-6.8,48.6-8.8
	c16.5-2.1,33-3.2,49.6-3.5c17.3-0.3,34.5,0.4,51.7,2.1c28.1,2.8,55.7,7.8,82.7,16.1c6.5,2,13,4.4,19.4,6.8c4.8,1.9,7.3,5.2,7.3,10.4
	C855.6,460.3,855.6,470.1,855.6,479.9C855.6,479.9,855.6,479.9,855.6,479.9z M741.6,522.1c-0.3-2.3-1.6-4-3.1-5.6
	c-2.2-2.3-3.9-5.1-7.1-6.5c-3.7-1.7-7.3-3.5-11.3-4.6c-5.7-1.6-11.5-2.3-17.4-2.6c-2.5-0.1-5,0-7.4,0.2c-4.3,0.3-8.6,1.2-12.7,2.4
	c-3.3,1-6.7,1.9-9.6,3.8c-2.3,1.5-4.8,2.7-7,4.6c-0.8,0.8-0.3,1.8-1.1,2.5c-1.7,1.5-2.8,3.6-3.3,5.8c-2-0.5-4-0.8-5.9-1.4
	c-7.6-2.3-15.1-4.9-22.4-7.9c-4.9-2-9.7-4.3-14.7-5.8c-1.2-0.4-2.7-0.9-3.5,0.1c-1,1.3,0.2,2.5,1.1,3.5c2.6,3.2,6,5.6,9.4,7.8
	c19.2,12.2,40.3,18.9,62.8,21.2c12.3,1.3,24.6,0.7,36.8-1.5c16.4-2.8,31.8-8.1,46.3-16.3c5.2-2.9,10.2-6.1,14.4-10.4
	c0.8-0.9,1.6-1.8,2.1-2.9c0.5-1.3-0.1-2.1-1.4-2.1c-0.7,0-1.3,0.1-2,0.3c-2,0.5-3.9,1.2-5.7,2C766.7,514.2,754.5,519.2,741.6,522.1z
	 M780,472.1c-0.4-0.5-0.6-0.7-0.7-0.9c-4.7-7-10.6-12.9-16.9-18.5c-2.4-2.1-4.8-3.5-8.1-3c-1,0.2-2.1,0.1-3.1,0
	c-0.9-0.1-1.2,0.2-1.2,1.1c0,14.7,0,29.4-0.1,44.1c0,1,0.4,1.2,1.3,1.2c2.4-0.1,4.8-0.1,7.2,0c1.4,0,1.8-0.3,1.8-1.8
	c-0.1-9.4,0-18.7,0-28.1c0-0.5-0.2-1.1,0.2-1.7c4.9,4,8.7,8.9,12.2,13.9c3.6,5,6.2,10.6,8,16.5c0.2,0.8,0.6,1.1,1.4,1.1
	c2.2-0.1,4.5-0.1,6.7,0c1.1,0,1.3-0.4,1.3-1.4c0-14.6,0-29.1,0-43.7c0-1.1-0.2-1.4-1.4-1.4c-2.4,0.1-4.8,0.1-7.2,0
	c-1.2,0-1.6,0.3-1.6,1.5C780,458.1,780,464.9,780,472.1z M688.2,472.2c-0.5-0.7-0.8-1.1-1-1.4c-5.4-7.7-11.9-14.4-19.4-20.3
	c-0.5-0.4-1-0.8-1.8-0.8c-2.2,0.1-4.4,0.1-6.5,0c-0.9,0-1.1,0.3-1.1,1.2c0,2.5,0,5.1,0,7.6c0,12,0,23.9,0,35.9
	c0,1.5,0.4,1.8,1.8,1.8c2.2-0.1,4.5-0.1,6.7,0c1.3,0.1,1.6-0.3,1.6-1.6c-0.1-9.5,0-18.9,0-28.4c0-0.5,0-1,0-1.8
	c3.4,2.8,6.1,5.8,8.6,8.9c5.3,6.5,9.3,13.7,11.8,21.7c0.2,0.8,0.4,1.3,1.4,1.3c2.3-0.1,4.6-0.1,6.9-0.1c1,0,1.2-0.4,1.2-1.3
	c0-14.7,0-29.3,0-44c0-0.9-0.3-1.1-1.2-1.1c-2.5,0-5,0.1-7.5,0c-1.2-0.1-1.4,0.4-1.4,1.5C688.2,458.1,688.2,464.9,688.2,472.2z
	 M834.5,487.3c-3.1-0.7-6-1.4-8.9-2.1c-0.6-0.2-0.9,0.1-1.4,0.4c-8,6.7-18.8,3.1-21.4-7.1c-0.5-1.9-0.5-1.9,1.4-1.9
	c9.7,0,19.4-0.1,29.1,0c1.5,0,1.8-0.5,1.9-1.8c0.2-2.6,0.3-5.2,0-7.8c-1-8.3-5.8-17.8-18.4-18.8c-9.9-0.7-18.5,4.1-22.1,13.4
	c-3.1,8-3,16.2,0.1,24.2c2.3,5.8,6.6,9.5,12.6,11.2c5.9,1.6,11.8,1,17.3-1.5C828.8,493.9,831.9,491,834.5,487.3z M585.1,448.3
	c-4.4,0.1-8.1,0.4-11.8,0.9c-0.6,0.1-1.2,0-1.1,1c1,15,0.7,30,0.1,45c0,1.2,0.4,1.5,1.4,1.7c5.7,0.9,11.5,1.2,17.2,0.2
	c6-1.1,11.5-3.2,15.9-7.7c6-6.2,7.4-13.9,6.3-22.1c-1-8.2-5.6-13.7-13.2-16.6C594.9,448.7,589.7,448.2,585.1,448.3z M747.6,474.7
	c0.1-10-4-18-10.6-22.5c-11.3-7.8-26.7-3.8-33.2,8.3c-6.2,11.4-3.4,27.1,9.4,34.4c6.9,3.9,14.2,3.9,21.2,0.2
	C743.2,490.5,747.3,482.8,747.6,474.7z M633.9,486c3.1,0,6.2,0.1,9.4,0c1.1,0,1.4,0.3,1.6,1.4c0.3,2.6,0.7,5.1,0.9,7.7
	c0.1,0.9,0.3,1.3,1.3,1.2c2.8-0.1,5.5-0.1,8.3-0.1c0.8,0,1.2-0.1,1.1-1.1c-0.9-8.2-2.4-16.2-5.2-24c-2.4-6.8-5.6-13.2-10.1-18.9
	c-1.3-1.7-2.6-2.8-4.9-2.4c-1.1,0.2-2.2,0.2-3.3,0c-3-0.6-4.8,1-6.5,3.3c-9.2,12.6-13,26.9-14.7,42.1c-0.1,1,0.3,1,1,1
	c2.6,0,5.3,0,7.9,0c0.9,0,1.1-0.3,1.2-1.1c0.3-2.6,0.7-5.2,1-7.9c0.1-0.9,0.5-1.2,1.4-1.2C627.5,486,630.7,486,633.9,486z"/>
<path fill="#114A56" d="M741.6,522.1c12.9-3,25.1-8,37.2-13.1c1.9-0.8,3.7-1.6,5.7-2c0.6-0.2,1.3-0.3,2-0.3c1.3,0,1.9,0.8,1.4,2.1
	c-0.4,1.1-1.2,2-2.1,2.9c-4.2,4.3-9.2,7.5-14.4,10.4c-14.5,8.1-30,13.4-46.3,16.3c-12.2,2.1-24.5,2.7-36.8,1.5
	c-22.5-2.3-43.6-9-62.8-21.2c-3.5-2.2-6.8-4.6-9.4-7.8c-0.8-1-2.1-2.2-1.1-3.5c0.8-1,2.3-0.4,3.5-0.1c5.1,1.5,9.9,3.8,14.7,5.8
	c7.3,3,14.8,5.6,22.4,7.9c1.9,0.6,3.9,0.9,5.9,1.4c9.7,2.4,19.5,3.9,29.5,4.5C708.2,527.8,725,526.2,741.6,522.1z"/>
<path fill="#00313B" d="M814.4,468.7c-3.5,0-7,0-10.4,0c-0.7,0-1.2,0.1-1-1c0.9-7.6,8.9-12.6,16.1-10c4.1,1.5,7,5.6,7.1,9.9
	c0,0.9-0.4,1.1-1.1,1c-0.1,0-0.1,0-0.2,0C821.4,468.7,817.9,468.7,814.4,468.7z"/>
<path fill="#00313B" d="M582.8,473c0-4.8,0-9.7,0-14.5c0-1,0.3-1.3,1.3-1.3c4.9-0.2,9.5,0.3,13.7,3.1c2.4,1.6,4,3.7,5,6.4
	c3.2,8.6-0.4,17.5-8.4,20.6c-2.8,1.1-5.8,1.5-8.8,1.5c-2.7,0-2.7,0-2.7-2.7C582.8,481.7,582.8,477.4,582.8,473z"/>
<path fill="#00313B" d="M710.1,475.2c-0.1-9.3,4.2-15.4,10.4-17.4c6.2-2,14.2,2.2,16.4,8.3c1.7,4.6,2,8.9,0.2,13.3
	c-3.7,9-13.6,11.6-20.5,6.5C712.1,482.8,710.1,478.4,710.1,475.2z"/>
<path fill="#00313B" d="M633.8,458.2c3.7,5.9,6.5,11.9,8.4,18.3c0.2,0.8-0.1,0.9-0.7,0.9c-5.1,0-10.2,0-15.3,0c-0.7,0-1-0.1-0.8-1
	C627.4,470.1,630,464,633.8,458.2z"/>
</svg>
