<?xml version="1.0" encoding="utf-8"?>
<!-- Generator: Adobe Illustrator 18.0.0, SVG Export Plug-In . SVG Version: 6.00 Build 0)  -->
<!DOCTYPE svg PUBLIC "-//W3C//DTD SVG 1.1//EN" "http://www.w3.org/Graphics/SVG/1.1/DTD/svg11.dtd">
<svg version="1.1" id="Layer_1" xmlns="http://www.w3.org/2000/svg" xmlns:xlink="http://www.w3.org/1999/xlink" x="0px" y="0px"
	 viewBox="443.4 246.2 515.3 474.9" enable-background="new 443.4 246.2 515.3 474.9" xml:space="preserve">
<g>
	<g>
		<path d="M445.2,412.2c0.2-21.7,0.4-43.5,0.6-65.2c0-4.4-0.4-11.1-1.2-19.9c-0.8-8.8-1.2-14.4-1.2-16.9c0-2.5,0.7-4.7,2.2-6.7
			c1.5-2,3.1-3.3,4.7-4c13.8-6,26.8,1.5,33.4,14.2c5.2,9.4,7.6,20,7.5,30.7c-0.2,4.6-0.2,6.9-0.4,11.5c0,5,0,7.5,0,12.5
			c0,10.1,0.3,20.8-1.8,30.6c-1.1,5.2-2.5,9.6-3.8,13.1c-1.3,3.5-2.9,6.7-4.7,9.5c-4.2,6.4-9.6,11.6-16,15.8
			c-5.8,0.5-8.6,0.8-14.3,1.4C443.7,432.6,445.4,420.5,445.2,412.2z M459,421.9c0,2,0,3.1,0,5.1c17.2-2.8,19.8-27.8,20.8-41.3
			c0.5-6.1,0.8-12,0.8-17.5c-0.1-11.8,2.1-68.3-23.2-61.8c-1,6-1.5,13.8-1.5,23.5c0,15.1,0.8,30.2,1.5,45.3
			C458.2,390.8,458.9,406.4,459,421.9z"/>
		<path d="M525.8,351.7c0.3,16.8,0.7,33.7,1,50.5c0,2.8,0,4.3,0,7.1c0,2.7-0.1,4-0.1,6.6c1.1-0.1,1.6-0.1,2.7-0.2
			c2.4-0.3,3.5-0.4,5.9-0.7c5.6-0.5,8.4,1.3,8.4,5.4c0,2.1-0.7,3.9-2.1,5.4c-1.4,1.6-3,2.4-4.8,2.5c-3.6,0.2-5.4,0.4-9,0.6
			c-6.2,0.4-10.1,0.6-11.8,0.4c-1.1,0.2-1.9,0.4-2.5,0.4c-4.8,0.4-7.2-1.2-7.2-4.6c0-1.4,0.4-2.8,1.2-4.2c0.8-1.4,1.6-2.1,2.4-2.3
			c2.3-0.2,3.4-0.3,5.8-0.5c0.2-1.3,0.2-1.9,0.4-3.1c-0.5-16.6-0.9-33.1-1.4-49.7c0.4-17.5,0.7-35,1.1-52.5c0-8.9-0.3-17.3-1-25
			c-1.5,0.4-2.3,0.7-3.9,1.1c-1.9,0.6-2.8,0.9-4.7,1.6c-2,0.6-3.5,0.6-4.6,0.1c-1.1-0.5-1.7-2-1.7-4.4c0-3.5,3.3-6.4,10-8.4
			c9.7-2.9,14.5-4.3,24.3-6.9c5.5-1.5,8.3-0.4,8.3,3c0,1.5-0.6,3-1.8,4.6c-1.2,1.6-2.6,2.5-4.1,2.9c-4.2,1-6.3,1.6-10.5,2.7
			c0.5,6.4,0.8,13.7,0.8,21.9C526.6,321.3,526.2,336.5,525.8,351.7z"/>
		<path d="M563.8,345.3c-0.1,10.8-0.1,16.2-0.2,27c0.2,17.3,0.5,34.6,3.9,51.6c-0.9,2.7-1.4,4.1-2.3,6.8c-2.3,0.1-3.4,0.2-5.7,0.3
			c-1.1-1.4-1.6-2.1-2.7-3.5c0.1-7.4,0.2-15.7,0.2-24.9c-0.1-19.5-1-39.2-1.8-58.8c-0.8-22.3-1.7-44.7-1.8-67
			c0-7.8,2.3-12.2,6.8-13.2c7.2-1.6,13.2-0.5,18.2,3.2c4.9,3.7,7.4,9.9,7.4,18.5c0,7.1,0,10.7,0,17.8c0,4.9-0.7,9.4-2.2,13.6
			c-1.5,4.2-3.2,8.6-5.2,13.3c-2,4.6-3,7.2-3.2,7.7c0.7,4,2.1,11.9,3.9,23.6c3.1,18.8,6,38.2,13.5,55.8c1.4,3.3,2.1,5.8,2.1,7.7
			c0,1.9-0.4,3.5-1.3,4.8c-0.8,1.3-2,2-3.4,2.1c-2.9,0.1-5.7-3.9-8.4-11.8c-2.7-8-4.8-16.8-6.4-26.5c-2.7-16.1-4.6-32.7-9-48.5
			C565.3,345.1,564.8,345.2,563.8,345.3z M564.6,271.9c-0.3,1.5-0.4,2.2-0.7,3.7c0,9.8,0.2,19.6,0.4,29.4c0.3,12.8,0.4,22.1,0.4,28
			c3.2-2.5,5.8-8.2,7.8-17.1c2-8.9,3-15.7,3-20.3c0-4.6-0.1-7.9-0.3-10.1c-0.2-2.1-0.6-4.4-1.3-6.9
			C572.6,273.4,569.5,271.2,564.6,271.9z"/>
		<path d="M606.7,296.7c-0.4-8.6-0.7-13-1.1-21.6c0-12.1,2.9-18.7,8.8-19.4c3.7-0.5,8.8-0.1,15.3,1.4c6.5,1.5,9.7,4,9.7,7.4
			c0,3.6-2,6.5-6.1,8.7c-6.5-2.1-11.7-3.2-15.8-3.3c0.2,3.7,0.3,7.4,0.3,11.1c-0.3,12.4-0.6,24.9-0.9,37.3c0,0.2,0.2,1.5,0.6,4
			c3-0.4,4.5-0.6,7.4-1c6.7-0.6,10.1,1.6,10.1,6.4c0,1.9-0.6,3.6-1.8,5c-1.2,1.5-2.8,2.3-4.6,2.4c-1.9,0.1-3.9,0.1-6.1-0.1
			c-2.1,0.2-3.2,0.3-5.3,0.4c0.4,6.5,0.6,13.1,0.6,19.6c-0.3,15.7-0.6,31.3-0.9,47c0,9.7,0.1,14.5,0.4,14.5
			c6.2-0.5,9.2-0.7,15.4-1.2c5.3-0.2,8,1.9,8,6.2c0,2.6-0.9,4.6-2.8,5.8c-1.8,1.2-3.9,1.9-6.2,1.9c-7.1,0.2-10.6,0.3-17.6,0.5
			c-1.8,0.1-3.5-0.7-5-2.2c-1.5-1.5-2.3-3.3-2.3-5.5c0-2.7,0-4.1,0-6.8c-0.4-14.5-0.9-28.9-1.3-43.4
			C605.8,346.9,606.3,321.8,606.7,296.7z"/>
		<path d="M649.2,362c0-6.2-0.1-9.2-0.1-15.4c0-2.5,0-3.8,0-6.3c0.1-17.9-0.2-36.4,3.1-54.1c2.3-9.5,4.1-18.7,10.2-26.6
			c5.9-7,13.5-10.8,22.5-11c2.2-0.1,3.8,0.6,4.9,1.8c1.1,1.3,1.6,2.8,1.6,4.6c0,1.8-0.4,3.4-1.3,4.9c-0.9,1.4-1.9,2.2-3.2,2.3
			c-3.9,0.1-5.9,0.1-9.8,0.3c-2.9,0.1-5.4,2.5-7.5,7.3c-2.1,4.7-3.6,10.5-4.5,17.2c-1.3,10.6-2.5,21-2.6,31.7c0,0.5,0,0.8,0,1.3
			c-0.3,17-0.6,33.9-0.9,50.9c0,10.7,0.5,18.2,1.4,22.3c0.9,4.1,1.9,7.4,2.9,9.9c1,2.5,2.2,4.6,3.5,6.2c3.1,3.7,7.2,5.6,12.1,5.5
			c1.6,0,3.1-0.8,4.5-2.4c1.6,0,3.1,0.5,4.4,1.4c1.3,0.9,1.9,2.4,1.9,4.4c0,7-3.9,10.5-11.6,10.5c-3.1,0-6.4-0.5-9.9-1.7
			c-3.4-1.1-6-2.4-7.7-3.7C647.8,409.3,649.5,380.8,649.2,362z"/>
		<path d="M722.4,420.8c-0.2-8.1-0.2-12.2-0.4-20.3c0-0.1,0.1-3.1,0.3-9c-2.3-19.8-2.4-39.9-3.3-59.8c-1-23-2.2-46-2.7-69
			c-0.3,0-0.5,0-0.8,0c-11.3-0.5-17-3-17-8c0-1.6,0.8-3,2.3-4.1c1.5-1.1,3-1.6,4.4-1.6c9.5,0.9,19,2,28.5,3.2c1.4,0,2,0,3.4,0
			c4.4,0.2,6.6,2.5,6.6,6.7c0,2.1-0.7,3.8-2.2,5.1c-1.4,1.2-3,1.8-4.8,1.7c-3.9-0.9-5.8-1.4-9.6-2.2c-0.2,1.1-0.2,1.6-0.4,2.7
			c0,25.1,1.8,50.1,3.5,75.2c1.7,25,3.5,50.1,3.5,75.2c0,2.1-0.8,3.9-2.3,5.5c-1.5,1.6-3.1,2.4-4.9,2.3
			C724.8,422.9,724,422.2,722.4,420.8z"/>
		<path d="M804.3,329.4c1.4,1.5,2.1,3.4,2.1,5.5c0,2.1-1.7,3.7-5,4.9c-3.2,1.2-7.3,1.9-12.1,2.2c-8.7,0.4-15.7,0.6-21.1,0.2
			c-1.8-0.1-3.4-0.9-4.7-2.5c-1.4-1.5-2.1-3.4-2.1-5.5c0-2.1,1.7-3.9,5-5.2c3.3-1.3,7.3-2.1,12.1-2.4c8.4-0.5,15.4-0.4,21.1,0.2
			C801.3,327,802.9,327.9,804.3,329.4z"/>
		<path d="M828.4,417.6c3.4,0.9,5.1,1.4,8.6,2.3c2.6,0.2,4.9-1.1,6.8-3.7c1.9-2.6,3.4-5.9,4.3-9.9c1.8-7.7,2.7-14.5,2.7-20.6
			c0-6-0.8-12.1-2.5-18.2c-1.7-6.1-3.7-11.9-6.2-17.4c-2.4-5.5-4.9-11-7.3-16.7c-5.3-12.2-8.7-25.4-8.7-38.8c0-7.5,1-14,3.1-19.4
			c3.9-10.1,9.1-14.3,15.5-12.8c2.4,0.5,4.7,2,6.9,4.4c2.2,2.3,3.3,4.6,3.3,6.7c0,3.7-1.7,5.2-5,4.5c-1.5-0.3-2.9-1.1-4.3-2.4
			c-4.4-0.7-7.3,4.6-8.9,15.8c-0.3,2.5-0.5,5.4-0.5,8.7c0,3.4,0.6,7.6,1.8,12.8c1.2,5.1,2.7,9.8,4.6,13.9c1.8,4.1,3.8,8.7,5.9,13.6
			c2.1,4.9,4.1,9.7,6,14.2c3.9,12,5.9,22.5,6.3,34.8c0.3,9.3-1.8,19-5.7,27.7c-1.9,4.3-4.5,7.8-8,10.4c-3.5,2.6-7.4,3.9-11.8,3.8
			c0,0.2,0,0.4,0,0.6c-5.6-1.3-8.7-4.6-9.3-10.1C827,420.1,827.4,419.2,828.4,417.6z"/>
		<path d="M874.4,310.3c-0.4-8.2-0.7-12.3-1.1-20.4c0-11.3,2.9-16.2,8.6-14.5c3.6,1,8.6,3.5,14.9,7.3c6.3,3.8,9.4,7.3,9.4,10.2
			c0,3.1-2,4.9-5.9,5.4c-6.3-4.2-11.4-7.1-15.4-8.8c0.2,3.4,0.3,6.8,0.3,10.2c-0.3,11.2-0.6,22.4-0.9,33.6c0,0.2,0.2,1.4,0.6,3.8
			c2.9,0.5,4.3,0.7,7.2,1.2c6.5,1.4,9.8,4.3,9.8,8.4c0,1.6-0.6,3-1.8,3.9c-1.2,1-2.7,1.3-4.5,0.9c-1.8-0.4-3.8-0.9-5.9-1.6
			c-2.1-0.4-3.1-0.6-5.2-1c0.4,6.1,0.6,12,0.6,17.9c-0.3,14.2-0.6,28.4-0.9,42.5c0,8.8,0.1,13.2,0.4,13.3c6,0.3,9,0.4,15,0.8
			c5.1,0.5,7.7,2.6,7.7,6.3c0,2.3-0.9,3.9-2.7,4.8c-1.8,0.9-3.8,1.3-6,1.1c-6.8-0.5-10.3-0.8-17.1-1.2c-1.8-0.1-3.4-0.9-4.9-2.5
			c-1.5-1.5-2.2-3.3-2.3-5.3c0-2.5,0-3.8,0-6.3c-0.4-13.5-0.9-27-1.3-40.5C873.5,356.6,874,333.4,874.4,310.3z"/>
		<path d="M936.1,432.4c-0.2-6.6-0.2-10-0.4-16.6c0-0.1,0.1-2.5,0.3-7.3c-1.9-16.4-2.3-33-3.2-49.5c-1-19.1-2.1-38.3-2.6-57.5
			c-0.3-0.1-0.5-0.2-0.8-0.3c-10.8-4-16.2-7.9-16.2-12.2c0-1.4,0.7-2.3,2.2-2.7c1.4-0.4,2.8-0.4,4.2,0.1c9.1,3.9,18.1,8,27.1,12.2
			c1.3,0.5,1.9,0.7,3.2,1.2c4.1,1.7,6.2,4.2,6.2,7.5c0,1.7-0.7,2.8-2,3.3c-1.3,0.5-2.9,0.5-4.5-0.2c-3.6-2-5.4-2.9-9.1-4.9
			c-0.2,0.8-0.2,1.2-0.4,2.1c0.1,20.6,1.7,41.1,3.3,61.6c1.6,20.2,3.3,40.6,3.3,60.8c0,1.6-0.7,3-2.1,4.2c-1.4,1.1-3,1.6-4.7,1.5
			C938.3,434.3,937.6,433.7,936.1,432.4z"/>
	</g>
	<g>
		<path d="M466.6,525.6c-0.3,19.2-0.6,38.4-0.8,57.7c2.6,1.3,6.5,2.4,11.7,3.4c3.1,0.6,4.7,0.9,7.8,1.5c0.4-0.6,0.6-3.2,0.5-7.6
			c-0.1-9.8-0.8-19.7-1.4-29.6c-0.7-11.4-1.4-22.8-1.4-34.2c0-1.8,0.6-3.3,1.9-4.4c1.3-1.1,2.5-1.7,3.6-1.6c1.1,0.1,2,0.2,2.7,0.5
			c0.7,0.3,1.5,0.6,2.3,1.1c0.8,0.4,1.9,0.8,2,0.9c7.6,10.9,1,62.1,2.1,93.1c0.7,21.3,1.8,42.8,2.1,63.9c0,1.3-0.8,2.5-2.3,3.3
			c-1.5,0.9-3.2,1-5.1,0.4c-1.9-0.6-3.4-2.6-4.5-6c-1.1-3.4-1.9-8.2-2.3-14.3c-0.4-6.1-0.6-11.3-0.8-15.8c-0.1-1.9,0-4.1,0-6.4
			c0-3.2,0-7,0.1-11.2c0.1-7.4,0.2-11.7,0.2-12.8c0-0.4,0-0.6,0-0.9c0.1-2.7,0.2-4.1,0.3-6.8c-0.5-1-0.8-1.5-1.3-2.5
			c0-0.1,0-0.1,0-0.2c-1.2,0.1-2.5,0-3.9-0.3c-5.5-2-8.3-3-13.8-5.1c0,10.6,0,16,0,26.6c0.4,12.9,0.8,25.7,1.3,38.6
			c0,2.2-0.5,4-1.6,5.3c-1,1.3-2.5,1.6-4.5,0.9c-2.8-1.1-4.8-4.6-5.9-10.5c-1.1-5.9-1.6-13.5-1.6-23c0.2-11.4,0.4-22.8,0.6-34.3
			c0-7.1-0.1-11.1-0.3-11.9c0-0.4,0-0.7,0-1.1c0.6-7.8,0.8-12.1,0.8-13.1c-0.5-17.1-1-34.1-1.5-51.2c0-1.8,0.6-3.3,1.8-4.6
			c1.2-1.3,2.6-1.9,4.3-1.8C464.3,511.6,466.6,516.4,466.6,525.6z"/>
		<path d="M515.7,553.7c-0.5-8.6-0.7-12.8-1.2-21.4c0-11.9,3-17.7,9.2-17.4c3.9,0.2,9.3,1.4,16.1,3.9c6.8,2.4,10.2,5.4,10.2,8.8
			c0,3.6-2.2,6.2-6.5,7.8c-6.8-3.1-12.3-5.1-16.6-5.9c0.2,3.7,0.3,7.4,0.3,11c-0.3,12.2-0.6,24.4-1,36.6c0,0.2,0.2,1.5,0.6,4.1
			c3.1,0.2,4.7,0.4,7.8,0.6c7.1,0.9,10.6,3.6,10.6,8.4c0,1.9-0.6,3.4-1.9,4.7c-1.3,1.2-2.9,1.7-4.9,1.5c-2-0.3-4.1-0.7-6.4-1.4
			c-2.2-0.3-3.3-0.5-5.6-0.8c0.4,6.6,0.6,13,0.6,19.5c-0.3,15.4-0.6,30.8-1,46.1c0,9.6,0.1,14.4,0.4,14.5c6.5,1.4,9.7,2,16.2,3.2
			c5.6,1.2,8.4,4,8.4,8.3c0,2.7-1,4.4-2.9,5.1c-1.9,0.8-4.1,0.8-6.6,0.2c-7.4-1.8-11.1-2.7-18.5-4.8c-1.9-0.5-3.7-1.8-5.2-3.7
			c-1.6-2-2.4-4-2.4-6.2c0-2.7,0-4,0-6.6c-0.5-14.3-0.9-28.6-1.4-42.8C514.7,602.5,515.2,578.1,515.7,553.7z"/>
		<path d="M586.2,606.2c0.4,19.3,0.7,38.6,1.1,57.9c0,3.2,0,4.9,0,8.1c0,3-0.1,4.5-0.1,7.6c1.2,0.2,1.8,0.3,2.9,0.4
			c2.6,0.3,3.8,0.4,6.4,0.7c6.1,0.9,9.2,3.5,9.2,8.1c0,2.3-0.7,4.2-2.2,5.7c-1.5,1.5-3.2,2-5.2,1.7c-3.9-0.6-5.9-0.9-9.8-1.5
			c-6.7-1.1-11-2.1-12.9-2.8c-1.2,0-2.1-0.1-2.7-0.2c-5.3-1-7.9-3.5-7.9-7.5c0-1.7,0.4-3.1,1.3-4.5c0.9-1.3,1.7-1.9,2.6-1.9
			c2.5,0.5,3.8,0.7,6.3,1.1c0.2-1.4,0.3-2.1,0.4-3.5c-0.5-19.2-1-38.3-1.5-57.5c0.4-20,0.8-39.9,1.2-59.9c0-9.7-0.3-19.4-1.1-29
			c-1.7-0.1-2.5-0.1-4.2-0.2c-2,0-3.1,0-5.1,0c-2.2-0.1-3.9-0.7-5.1-1.7c-1.2-1-1.8-3-1.8-5.7c0-4.1,3.6-6,10.9-5.7
			c10.6,0.3,15.9,0.5,26.5,0.7c6,0.1,9,2.1,9,6c0,1.7-0.7,3.3-2,4.7c-1.3,1.4-2.8,2.1-4.5,2c-4.6-0.1-6.9-0.2-11.4-0.4
			c0.6,7.5,0.9,15.9,0.9,25.3C587,571.6,586.6,588.9,586.2,606.2z"/>
		<path d="M627.5,608.8c-0.1,10.1-0.1,20.2-0.2,30.3c0.2,19.6,0.6,39.3,4.3,58.7c-1,2.9-1.5,4.4-2.5,7.3c-2.5-0.3-3.7-0.4-6.2-0.7
			c-1.2-1.8-1.8-2.7-3-4.4c0.2-9.3,0.2-18.7,0.2-28c-0.1-22.2-1.1-44.4-1.9-66.6c-0.9-25.3-1.9-50.7-1.9-76.1c0-8.8,2.5-13.1,7.4-13
			c7.8,0.1,14.4,2.8,19.7,8c5.3,5.2,8,12.6,8,22.1c0,7.9,0,11.9,0,19.8c0,5.4-0.8,10.3-2.4,14.7c-1.6,4.4-3.5,9-5.6,13.8
			c-2.1,4.8-3.3,7.5-3.5,8c0.8,4.6,2.2,13.6,4.3,27.1c3.4,21.5,6.5,43.7,14.6,64c1.5,3.8,2.3,6.7,2.3,8.8s-0.5,3.8-1.4,5.2
			c-0.9,1.4-2.1,2-3.7,1.9c-3.1-0.2-6.2-5-9.1-14.2c-3.1-10-5.4-20.2-7-30.5c-2.9-18.6-5.2-37.6-9.7-55.9
			C629.1,608.9,628.6,608.8,627.5,608.8z M628.4,526.5c-0.3,1.6-0.5,2.4-0.8,3.9c0,11,0.2,22.1,0.4,33.1c0.2,10.5,0.4,21,0.4,31.5
			c3.5-2.1,6.3-7.9,8.5-17.4c2.2-9.5,3.2-16.9,3.2-22c0-5.1-0.1-8.9-0.3-11.3c-0.2-2.4-0.7-5.1-1.4-8.1
			C637,530.1,633.6,526.9,628.4,526.5z"/>
		<path d="M685.4,546.8c0.2,22.8,0.4,45.5,0.7,68.3c-0.9,2.6-1.3,5.8-1.3,9.7c0,2.3,0,3.4,0,5.7c-0.3,15.1-0.6,30.1-0.9,45.2
			c0,13,2.5,19.6,7.6,19.7c3.7-0.1,5.6-0.2,9.3-0.4c8.1,0,12.1,2.7,12.1,8.2c0,2-0.7,3.7-2.1,5.1c-1.4,1.4-3,2.2-4.7,2.5
			c-5.5-2.2-12.2-3.3-20.1-3.5c-2.4,1.7-4.7,2.5-7,2.4c-2.2-0.1-4-1.1-5.2-3.1c-1.2-2-1.9-4.1-1.9-6.4c0-21.1,0.7-42.2,1.4-63.3
			c0.7-21.1,1.4-42.2,1.4-63.3c0-0.8,0-1.2,0-2.1c-0.9-11.8-1.4-20.8-1.3-26.6c0.2-8.8,0.3-24.9,7.8-26.8c1.1-0.3,2.9,0.7,4,2.1
			c1.1,1.4,1.7,3.1,1.7,5C686.3,533.8,686,538.2,685.4,546.8z"/>
		<path d="M721.5,619.2c0.1-4.3,0.1-6.5,0.2-10.8c0-0.9-0.1-1.4-0.3-1.4c0-2.1,0-3.1,0-5.1c0.1-21.1-0.2-42.8,4.1-63.5
			c2.3-10.6,4.5-17.2,6.6-19.7c2.1-2.5,4.2-3.8,6.3-3.8c19.1-0.3,31.1,15.3,36,32.3c4.5,14.9,5.7,30.6,5.7,46.1c0,0.8,0,1.2,0,2
			c0.1,10.5,0.3,21,0.4,31.5c-0.3,20.8,2,80.5-29.9,83c-8.2,0.6-15-5-19-16.2c-3.8-10.4-6.7-21.1-7.7-32.4
			C722.6,647.1,721.5,633.2,721.5,619.2z M734.8,580.1c-0.4,10.5-0.7,15.7-1.1,26.2c0.3,23.9,1.2,47.8,5.3,71.4
			c3.7,11.7,7.3,18.5,10.6,20.4c2.7-0.2,5.2-1.7,7.3-4.7c2.2-2.9,3.9-6.7,5.2-11.5c1.3-4.7,2.4-9.7,3.2-14.9
			c0.8-5.1,1.4-10.5,1.9-16.3c0.7-10,1.1-18.5,1.1-25.5c0-10.7-0.7-21.5-1.5-32.2c-0.8-10.8-1.4-21.6-1.5-32.4c0-2,0-3,0-4.9
			c-0.1-6.8-1.9-12.9-5.4-18.2c-3.4-5.3-7.8-7.9-13.2-7.8c-5.1,0.1-8.5,3.7-10.2,11c-1.4,6.1-2.1,13.6-2.1,22.6
			C734.6,570.1,734.7,573.4,734.8,580.1z"/>
		<path d="M792.8,615.6c0.1-4.2,0.1-6.3,0.2-10.5c0-0.9-0.1-1.3-0.3-1.3c0-2,0-3,0-5c0.1-20.6-0.2-41.8,4-62
			c2.3-10.4,4.4-16.8,6.5-19.3c2.1-2.5,4.2-3.7,6.2-3.8c18.4-0.5,30.6,13.6,35.5,30.1c4.4,14.2,5.2,28.6,5.6,43.4c0,0.8,0,1.2,0,1.9
			c0.1,9.9,0.3,19.9,0.4,29.8c-0.4,22.5,1.2,75.9-29.5,81.8c-8.1,1.5-14.5-3.1-18.8-13.6c-4-9.8-6.6-20.2-7.6-30.8
			C793.9,642.7,792.9,629.2,792.8,615.6z M806,577c-0.4,10.1-0.7,15.2-1.1,25.4c0.3,23,1.2,46,5.2,68.7c3.7,11,7.2,17.1,10.5,18.6
			c2.7-0.5,5.1-2.2,7.3-5.2c2.2-3,3.9-6.8,5.1-11.5c1.3-4.6,2.4-9.5,3.2-14.5c0.8-4.9,1.4-10.1,1.8-15.7c0.7-9.6,1.1-17.7,1.1-24.4
			c0-10.2-0.8-20.4-1.5-30.6c-0.7-10.3-1.4-20.5-1.5-30.8c0-1.9,0-2.8,0-4.7c-0.1-6.5-1.9-12.2-5.3-17.2c-3.4-5-7.7-7.4-13-7.2
			c-5.1,0.2-8.4,3.8-10.1,10.9c-1.4,5.9-2.1,13.2-2.1,21.9C805.9,567.3,805.9,570.5,806,577z"/>
		<path d="M945,659.3c0-9.7,0.1-19.4,0.1-29.1c-0.1-9.8-0.8-19.5-1.6-29.2c-1-12.8-1.6-21.5-1.6-26.1c0-4.5,0.1-10,0.4-16.3
			c0.3-6.3,0.4-11,0.4-14.2c-2.7,10.9-4.9,21.9-7.2,32.9c-4.3,20.1-8.3,40.5-14,60.3c-2.1,7.3-4.2,19.1-9.4,22.1
			c-1.9,1.1-5,0.5-6.6-0.9c-1.6-1.5-2.3-3.9-2.4-7c-0.3-15.4-4.6-31.3-8.1-46.4c-4.2-18.3-8.5-36.8-13.8-55
			c-1.9,40.6-4.1,81.3-4.2,122c0.1,3,0.2,4.5,0.3,7.5c0,2.7-0.5,5-1.5,6.7c-1,1.7-2.6,2.9-4.7,3.4c-2.1,0.6-3.9,0.4-5.2-0.5
			c-1.4-0.9-2-2.2-2-3.9c0-26.6,1.7-53.2,3.4-79.8c1.6-26.3,8.3-60.1,3.4-79.2c-0.3-1.3-1.3-3.3-1.3-5.3c0-2,0.9-3.5,2.7-4.6
			c1.8-1.1,4.6-2.2,5.8-1.7c8.9,3.3,14.4,34.9,18.5,49.1c6.2,21.4,12.9,43,16.9,65c0.6-2.5,1.9-8.8,3.9-18.7
			c2.1-10.2,4.2-20.5,6.4-30.7c2.2-10.6,4.7-21.2,7.3-31.7c2.6-9.9,6.4-33.6,15.2-36.1c1.4-0.4,3.6,0.3,5.3,1.3
			c1.7,1,2.5,2.4,2.5,4.3c0,15.9,0.7,31.9,1.3,47.9c0.6,15.3,1.3,30.6,1.3,45.9c-0.2,9.4-0.3,14.1-0.5,23.5c0,0,0,0.1,0,0.1
			c0,1.7,0.4,6.8,1.2,15.3c0.2,1.7,0.2,2.5,0.4,4.2c0.6,1.3,0.9,2.9,0.9,4.6c0,1.8-0.7,3.9-2,6.5c-1.3,2.6-3,4.3-5.2,5.2
			C947.2,672.6,945,668.8,945,659.3z"/>
	</g>
	<g>
		<path d="M705,493.6c1-6.3,2.2-15.4,3.7-27.4c1.4-11.9,2.3-18.8,2.6-20.8c0.6,0,0.9,0,1.5,0c0.4,0,0.8,0.2,1.1,0.5
			c0.3,0.4,0.5,0.8,0.5,1.3c0,3.2-0.5,7.2-1.6,12.1c-1.1,4.9-1.7,8-1.9,9.4c-0.2,1.4-0.4,3.7-0.6,6.8c-0.2,3.2-0.4,6.3-0.7,9.3
			s-0.6,6.1-1.1,9.3c-0.4,3.2-1.1,5.7-1.9,7.7c-0.8,2-1.8,2.9-2.9,2.9c-0.5-0.5-0.8-0.8-1.3-1.3c0-7-0.5-14-1.6-21.3
			c-1.1-7.2-2.1-13.3-3.1-18.2c-1-4.9-1.7-8-2-9.3c-0.8-3.1-1.2-5-1.2-5.8c0-0.8,0.2-1.3,0.5-1.7c0.3-0.4,0.7-0.6,1.1-0.6
			c1.3,0,2.5,2.7,3.6,8.2c1.2,5.5,2,10.6,2.6,15.4c0.6,4.8,1,8.5,1.3,11c0.3,2.5,0.6,5.1,0.8,7.6C704.8,491.6,705,493.1,705,493.6z"
			/>
		<path d="M718.2,500.3c1.1,0.2,1.7,0.4,2.8,0.6c0.9,0,1.6-0.5,2.3-1.4c0.6-0.9,1.1-2.1,1.4-3.6c0.6-2.7,0.9-5.2,0.9-7.3
			c0-2.1-0.3-4.2-0.8-6.3c-0.6-2.1-1.2-4-2-5.8c-0.8-1.8-1.6-3.6-2.4-5.4c-1.9-4.4-2.9-8.6-2.9-12.8c0-2.6,0.3-4.8,1-6.8
			c1.3-3.7,3-5.5,5.1-5.5c0.8,0,1.6,0.3,2.3,1c0.7,0.6,1.1,1.3,1.1,2.1c0,1.3-0.6,2-1.7,2c-0.5,0-1-0.2-1.4-0.5
			c-1.4,0.1-2.4,2.1-2.9,6.1c-0.1,0.9-0.2,1.9-0.2,3c0,1.2,0.2,2.6,0.6,4.3c0.4,1.7,0.9,3.2,1.5,4.5c0.6,1.3,1.3,2.8,2,4.4
			c0.7,1.6,1.4,3.2,2,4.7c1.4,3.5,2.1,7.5,2.1,12c0,3.4-0.6,6.8-1.9,9.9c-0.6,1.6-1.5,2.8-2.6,3.8c-1.1,1-2.4,1.5-3.9,1.5
			c0,0.1,0,0.1,0,0.2c-1.9-0.3-2.9-1.4-3.1-3.3C717.7,501.2,717.8,500.9,718.2,500.3z"/>
		<path d="M737.8,505.2c-0.7,0-1.3-0.3-1.7-0.9c-0.5-0.6-0.7-1.3-0.7-2.2c0-0.8,0.3-1.6,0.8-2.2c0.5-0.7,1.1-1,1.8-1
			c0.7,0,1.2,0.3,1.7,1c0.5,0.7,0.7,1.4,0.7,2.3c0,0.9-0.3,1.6-0.8,2.2C739.1,504.9,738.5,505.2,737.8,505.2z"/>
	</g>
</g>
</svg>
