<?xml version="1.0" encoding="utf-8"?>
<!-- Generator: Adobe Illustrator 18.0.0, SVG Export Plug-In . SVG Version: 6.00 Build 0)  -->
<!DOCTYPE svg PUBLIC "-//W3C//DTD SVG 1.1//EN" "http://www.w3.org/Graphics/SVG/1.1/DTD/svg11.dtd">
<svg version="1.1" id="Layer_1" xmlns="http://www.w3.org/2000/svg" xmlns:xlink="http://www.w3.org/1999/xlink" x="0px" y="0px"
	 viewBox="0 0 521.5 885.1" enable-background="new 0 0 521.5 885.1" xml:space="preserve">
<g>
	<path d="M2.9,21.5L1.8,11V9.9c0-2.9,0.4-5.1,1.3-6.8C4,1.4,6.3,0.6,10,0.6s7.3,1,10.8,2.9c3.5,1.9,6.3,4.6,8.4,8
		c4,6.6,6.1,14.2,6.1,22.7c0,8.5-0.6,15.2-1.9,20.2c-1.3,4.9-3.4,9.5-6.4,13.8c5.3,5.1,8.4,13.5,9.2,25.2c0.1,2.7,0.2,5.8,0.2,9.6
		c0,3.7-0.3,7.4-0.9,11c-0.7,3.6-1.8,7-3.3,10.3c-1.6,3.3-3.5,6.1-5.8,8.5c-5,5.2-11.6,7.8-20,7.8c-2.9,0-4.7-1.3-5.5-3.8
		c-0.5-1.9-0.8-4.2-0.9-7l2-43.4L2.9,21.5z M11.5,119.8l0.2,1v9.2c4.6-1.1,8-3.8,10.3-8.1c2.3-4.3,3.4-8.4,3.4-12.1
		c0-3.7,0-6.7-0.1-8.9c-0.1-2.2-0.4-4.9-0.9-8.1c-0.5-3.2-1.2-6-2-8.4c-2-5.8-5.1-9.2-9.3-10.1c-0.6,8.8-0.9,19-0.9,30.9L11.5,119.8
		z M12.8,32v30.4c7.2-0.2,10.8-8.8,10.8-25.8c0-17-2.8-25.8-8.4-26.5C13.6,13.5,12.8,20.8,12.8,32z"/>
	<path d="M98.2,47.4l0.2,3.5c0,60.3-8.8,90.5-26.3,90.5c-6.8,0.1-11.8-2.7-15-8.3c-3.4-5.7-5.4-11.4-6.2-17
		c-1.1-8.7-1.8-18.7-1.9-29.9c-0.2-11.2-0.2-27.5-0.2-48.7L47.8,8.3C49,5.4,50.5,4,52.1,4c1.6,0,3.1,1.2,4.3,3.7
		c1.3,2.5,1.9,5.1,1.9,7.9v55.5c0,4.8,0.5,12,1.4,21.6c1,9.6,1.4,16.8,1.4,21.6c0,10,4.3,14.9,12.9,14.9c9.7,0,14.5-36.5,14.5-109.6
		V8.2l-0.1-3.4c0-1.6,0.4-2.8,1.1-3.6c0.7-0.8,2-1.2,3.8-1.2c1.8,0,3.2,0.3,4.1,0.9c0.9,0.5,1.5,1.3,1.9,2.4
		c0.5,1.7,0.8,3.8,0.9,6.6l-1.4,20.5L98.2,47.4z"/>
	<path d="M125.1,24l0.6,49c-0.8,1.9-1.2,4.2-1.2,7V84l-0.8,32.5c0,9.4,2.3,14,6.9,14l8.5-0.3c7.3,0,11,2,11,6c0,1.5-0.6,2.7-1.9,3.6
		c-1.3,1-2.7,1.5-4.3,1.7c-5-1.6-11.1-2.4-18.2-2.4c-2.2,1.3-4.3,1.9-6.3,1.9c-2,0-3.6-0.7-4.7-2.1c-1.1-1.4-1.7-2.9-1.7-4.6
		c0-10.1,0.4-25.3,1.3-45.5c0.9-20.3,1.3-35.5,1.3-45.5v-1.5c-0.8-8.5-1.2-14.9-1.2-19.1c0-12.9,2.4-19.3,7.1-19.3
		c1.4,0,2.6,0.5,3.6,1.5c1,1,1.5,2.2,1.5,3.6L125.1,24z"/>
	<path d="M208.8,97.4l1,21.6c0,6.7-2.3,11.9-7,15.5c-4.7,3.6-10.1,5.4-16.4,5.4c-9.4,0-16.3-3.5-20.5-10.6c-3.1-5-5-9.7-5.8-14.1
		c-0.8-4.4-1.4-7.8-1.7-10.2c-0.3-2.4-0.6-5.6-0.7-9.7c-0.3-5.6-0.4-10.2-0.4-13.6V73c0-19.2,0.6-31.3,1.7-36.4
		c1.1-5.1,2.4-9.8,3.9-14.2c1.5-4.4,3.3-7.8,5.4-10.2c5.1-5.8,11-8.8,17.7-8.8c6.7,0,10.1,1.7,10.1,5.2c0,1.6-0.7,2.9-2,3.9
		c-1.3,1-2.8,1.5-4.5,1.5l-4.3-0.5c-4.7,0-8.3,4.6-10.7,13.9c-3.5,13.3-5.2,29.3-5.2,48.1c0,12.8,0.4,21.6,1.2,26.4
		c0.8,4.8,1.7,8.8,2.7,12.1c0.9,3.3,2.1,6,3.4,8c3.1,4.7,7.1,7.1,12,7.1c6.6,0,9.9-10.8,9.9-32.5v-9.4c-1-0.5-2.6-0.8-4.8-0.8
		l-4,0.1c-4.7,0-7.1-1.6-7.1-4.7c0-1.9,0.7-3.4,2-4.4c1.4-1,3-1.5,4.9-1.5v0.1h2.8c12.2,0,18.3,2.1,18.3,6.3L208.8,97.4z"/>
	<path d="M267.8,96.9l2.2,12.5c0,1.7,0.6,5.7,1.9,12.1c1.3,6.4,1.9,10.7,1.9,12.6v0.2c0,3-1.1,4.9-3.4,5.8c-2.9,0-5.1-0.5-6.7-1.4
		c-1.6-0.9-2.4-2.7-2.4-5.4c0-5.8-1-14.2-3-25.2l-20.1-3c-1.3,4.5-2.2,9.5-2.9,14.8c-0.7,5.4-1.3,9.3-1.9,11.7
		c-1.2,5-3.4,7.6-6.7,7.6c-1.6,0-3.1-0.5-4.4-1.5c-1.4-1-2-2.3-2-3.9l0.5-1.8c9.2-35.4,16-69.8,20.4-103.3c0.1-0.9,0.3-3.6,0.6-8.2
		c0.7-10,1.9-16.3,3.8-19h6.9c1.9,0,3.5,0.4,4.9,1.3c1.4,0.9,2.1,2.2,2.1,3.9c0,10.4,1.4,25.7,4.1,46.1
		C266.4,73.2,267.8,87.9,267.8,96.9z M257.1,100.9c-0.4-2-0.6-5.5-0.6-10.4c0-4.9-0.3-11.1-0.8-18.4c-0.6-7.3-1.4-15.9-2.4-25.6
		c-1.1-9.7-1.8-16.8-2.2-21.2c-6.2,34.2-10.2,58.3-11.9,72.3C241.5,99.2,247.5,100.3,257.1,100.9z"/>
	<path d="M294.6,70l-0.2,22.1c0,18,1.3,32.2,3.9,42.5l-2.3,5.5h-5.7l-2.7-3c0.1-6.1,0.2-13,0.2-20.6c0-7.6-0.6-23.8-1.7-48.7
		c-1.2-24.9-1.7-43.5-1.7-55.8c0-6.4,2.3-9.7,6.8-9.7c7.1,0,13.1,1.9,17.9,5.6c4.8,3.7,7.3,9,7.3,15.9v14.3c0,3.9-0.7,7.5-2.2,10.7
		c-1.5,3.2-3.2,6.6-5.1,10.2c-1.9,3.6-3,5.5-3.2,5.9c0.7,3.3,2,9.8,3.9,19.5c4,21.2,8.4,36.4,13.2,45.7c1.4,2.7,2.1,4.7,2.1,6.2
		s-0.4,2.8-1.2,3.8c-0.8,1-1.9,1.5-3.3,1.5c-2.9,0-5.6-3.3-8.2-9.8c-2.6-6.5-4.7-13.8-6.3-21.8c-4.8-24.4-7.8-37.8-8.9-40.2H294.6z
		 M295.4,10l-0.7,2.9c0,5.6,0.1,13.6,0.4,24.1c0.3,10.5,0.4,18.2,0.4,22.9c3.2-1.7,5.8-6,7.7-13c2-7,2.9-12.4,2.9-16.1
		c0-3.7-0.1-6.5-0.3-8.2c-0.2-1.8-0.6-3.7-1.3-5.8C303.2,12.4,300.2,10.2,295.4,10z"/>
	<path d="M356.7,70.5l1,43.3v6.1l-0.1,5.7h2.7l5.9-0.2c5.6,0,8.4,1.7,8.4,5.1c0,1.7-0.7,3.2-2,4.4c-1.4,1.2-2.9,1.8-4.7,1.8h-9
		c-6.2,0-10.1-0.1-11.8-0.4c-1.1,0.1-1.9,0.2-2.5,0.2c-4.8,0-7.3-1.5-7.3-4.6c0-1.3,0.4-2.5,1.2-3.6c0.8-1.1,1.6-1.7,2.4-1.8h5.8
		l0.4-2.7l-1.4-43.3l1.1-45.4c0-7.8-0.3-15.1-1-21.9h-3.9l-4.7,0.2c-2,0-3.6-0.4-4.7-1.1c-1.1-0.8-1.7-2.2-1.7-4.3
		c0-3.1,3.4-4.7,10.1-4.7h24.3c5.5,0,8.3,1.4,8.3,4.3c0,1.3-0.6,2.4-1.8,3.5c-1.2,1.1-2.6,1.6-4.1,1.6H357
		c0.5,5.6,0.8,11.9,0.8,18.9L356.7,70.5z"/>
	<path d="M429.5,96.9l2.2,12.5c0,1.7,0.6,5.7,1.9,12.1c1.3,6.4,1.9,10.7,1.9,12.6v0.2c0,3-1.1,4.9-3.4,5.8c-2.9,0-5.1-0.5-6.7-1.4
		c-1.6-0.9-2.4-2.7-2.4-5.4c0-5.8-1-14.2-3-25.2l-20.1-3c-1.3,4.5-2.2,9.5-2.9,14.8c-0.7,5.4-1.3,9.3-1.9,11.7
		c-1.2,5-3.4,7.6-6.7,7.6c-1.6,0-3.1-0.5-4.4-1.5c-1.4-1-2-2.3-2-3.9l0.5-1.8c9.2-35.4,16-69.8,20.4-103.3c0.1-0.9,0.3-3.6,0.6-8.2
		c0.7-10,1.9-16.3,3.8-19h6.9c1.9,0,3.5,0.4,4.9,1.3c1.4,0.9,2.1,2.2,2.1,3.9c0,10.4,1.4,25.7,4.1,46.1
		C428.1,73.2,429.5,87.9,429.5,96.9z M418.8,100.9c-0.4-2-0.6-5.5-0.6-10.4c0-4.9-0.3-11.1-0.8-18.4c-0.6-7.3-1.4-15.9-2.4-25.6
		c-1.1-9.7-1.8-16.8-2.2-21.2c-6.2,34.2-10.2,58.3-11.9,72.3C403.1,99.2,409.1,100.3,418.8,100.9z"/>
	<path d="M446.1,55.8l1.2-38c0-6.3,2.5-11.3,7.5-15V4c0.5-0.3,1-0.5,1.5-0.5c3.2,0,7.2,5.5,11.9,16.5c4.8,11,9.1,23,12.9,36.2
		c3.8,13.1,7.7,26.4,11.5,39.8c3.8,13.4,6.2,21.2,7.1,23.5c2.7-28.5,4.1-63,4.1-103.4l-0.3-5.5c0-4,1.7-6.1,5.1-6.1
		c1.9,0,3.4,0.8,4.3,2.4c1,1.6,1.4,3.5,1.4,5.6v15.4c-0.1,16-0.8,37.3-2.1,64.1c-1.3,26.7-3,41.8-5.2,45.2c-3.7,1.1-6.3,1.7-7.7,1.7
		c-1.4,0-2.5-0.5-3.3-1.4c-0.8-1-1.4-2.4-1.8-4.4c-0.5-2-0.9-3.3-1.2-4l0.1-0.9c0-5-4.9-21.1-14.6-48.1c-9.8-27-16.8-45.6-21.2-55.8
		v102.6c0.1,0.3,0.4,0.7,0.8,1.4c0.9,1.5,1.3,2.8,1.3,4.1c0,1.3-0.6,2.5-1.8,3.8c-1.2,1.3-2.7,1.9-4.3,1.9c-4.4,0-6.7-4.1-6.7-12.4
		L446.1,55.8z"/>
</g>
<g>
	<path d="M68.6,382.7c6-29.9,13.3-73.1,21.9-129.6c8.7-56.5,13.8-89.3,15.4-98.4h9.1c2.4,0,4.5,0.9,6.4,2.6c1.9,1.7,2.9,3.8,2.9,6.3
		c0,15.2-3.2,34.4-9.7,57.4c-6.5,23.1-10.3,38-11.4,44.6c-1.1,6.7-2.3,17.5-3.5,32.4c-1.2,14.9-2.6,29.6-4.2,44
		c-1.6,14.4-3.7,29.1-6.3,44c-2.6,14.9-6.4,27.1-11.2,36.3c-4.8,9.3-10.6,13.9-17.2,13.9l-7.5-6.2c0-32.9-3.1-66.5-9.4-100.8
		c-6.3-34.3-12.4-63-18.5-86.3c-6-23.3-10.1-38-12.2-44.2c-4.8-14.7-7.1-23.8-7.1-27.4c0-3.6,1-6.3,3.1-8.1c2-1.9,4.3-2.8,6.8-2.8
		c7.5,0,14.7,13,21.6,38.9c6.9,26.1,12,50.4,15.5,73.1c3.4,22.7,6,40,7.7,52.1c1.7,12,3.3,24.1,4.9,36.2
		C67.2,373.1,68.2,380.4,68.6,382.7z"/>
	<path d="M189.4,296.6l2,86.3v12.1l-0.2,11.3h5.4l11.7-0.4c11.1,0,16.7,3.4,16.7,10.1c0,3.4-1.4,6.4-4.1,8.8
		c-2.7,2.4-5.9,3.7-9.4,3.7h-17.9c-12.3,0-20.2-0.3-23.6-0.8c-2.1,0.3-3.8,0.4-5,0.4c-9.7,0-14.5-3-14.5-9.1c0-2.5,0.8-4.9,2.4-7.1
		c1.6-2.2,3.2-3.4,4.8-3.6h11.5l0.8-5.4l-2.8-86.3l2.2-90.5c0-15.5-0.7-30-2-43.7h-7.7l-9.3,0.4c-4,0-7.1-0.8-9.3-2.3
		c-2.3-1.5-3.4-4.4-3.4-8.6c0-6.2,6.7-9.3,20-9.3h48.4c11,0,16.5,2.8,16.5,8.5c0,2.5-1.2,4.8-3.6,6.9c-2.4,2.1-5.1,3.2-8.1,3.2H190
		c1.1,11.1,1.6,23.7,1.6,37.7L189.4,296.6z"/>
	<path d="M288.4,296.6l2,86.3v12.1l-0.2,11.3h5.4l11.7-0.4c11.1,0,16.7,3.4,16.7,10.1c0,3.4-1.4,6.4-4.1,8.8
		c-2.7,2.4-5.9,3.7-9.4,3.7h-17.9c-12.3,0-20.2-0.3-23.6-0.8c-2.1,0.3-3.8,0.4-5,0.4c-9.7,0-14.5-3-14.5-9.1c0-2.5,0.8-4.9,2.4-7.1
		c1.6-2.2,3.2-3.4,4.8-3.6h11.5l0.8-5.4l-2.8-86.3l2.2-90.5c0-15.5-0.7-30-2-43.7h-7.7l-9.3,0.4c-4,0-7.1-0.8-9.3-2.3
		c-2.3-1.5-3.4-4.4-3.4-8.6c0-6.2,6.7-9.3,20-9.3h48.4c11,0,16.5,2.8,16.5,8.5c0,2.5-1.2,4.8-3.6,6.9c-2.4,2.1-5.1,3.2-8.1,3.2H289
		c1.1,11.1,1.6,23.7,1.6,37.7L288.4,296.6z"/>
	<path d="M368.4,204l1.2,97.6c-1.6,3.7-2.4,8.3-2.4,13.9v8.1l-1.6,64.7c0,18.7,4.6,28,13.7,28l16.9-0.6c14.5,0,21.8,4,21.8,11.9
		c0,2.9-1.3,5.3-3.8,7.2c-2.5,1.9-5.4,3.1-8.5,3.5c-9.9-3.2-22-4.8-36.3-4.8c-4.4,2.5-8.6,3.8-12.6,3.8c-4,0-7.2-1.4-9.4-4.2
		c-2.3-2.8-3.4-5.8-3.4-9.1c0-20.1,0.9-50.4,2.6-90.8c1.7-40.4,2.6-70.7,2.6-90.8v-3c-1.6-16.9-2.4-29.6-2.4-38.1
		c0-25.7,4.7-38.5,14.1-38.5c2.8,0,5.2,1,7.2,3c2,2,3.1,4.4,3.1,7.1L368.4,204z"/>
	<path d="M480.1,296.6l2,86.3v12.1l-0.2,11.3h5.4l11.7-0.4c11.1,0,16.7,3.4,16.7,10.1c0,3.4-1.4,6.4-4.1,8.8
		c-2.7,2.4-5.9,3.7-9.4,3.7h-17.9c-12.3,0-20.2-0.3-23.6-0.8c-2.1,0.3-3.8,0.4-5,0.4c-9.7,0-14.5-3-14.5-9.1c0-2.5,0.8-4.9,2.4-7.1
		c1.6-2.2,3.2-3.4,4.8-3.6h11.5l0.8-5.4l-2.8-86.3l2.2-90.5c0-15.5-0.7-30-2-43.7h-7.7l-9.3,0.4c-4,0-7.1-0.8-9.3-2.3
		c-2.2-1.5-3.4-4.4-3.4-8.6c0-6.2,6.7-9.3,20-9.3h48.4c11,0,16.5,2.8,16.5,8.5c0,2.5-1.2,4.8-3.6,6.9c-2.4,2.1-5.1,3.2-8.1,3.2
		h-20.8c1.1,11.1,1.6,23.7,1.6,37.7L480.1,296.6z"/>
</g>
<g>
	<path d="M15.7,501.3L15.3,461c0-4.5,0.1-9,0.2-13.5l2.9-1.6c2.1,0.1,4.4,5.7,7.1,16.6c2.1,8.9,3.9,16.9,5.2,24
		c1.3,7.1,2.1,11,2.2,11.6c0.5-2.2,1.4-6.2,2.6-12c1.3-5.8,2.3-10.2,2.9-13.4c1.9-9.3,3.1-17.6,3.5-24.9v-0.6
		c0.1-0.9,0.6-1.6,1.3-2.1c0.7-0.5,1.5-0.8,2.2-0.8c0.8,0,1.4,0.3,1.9,0.8c0.5,0.6,0.7,1.2,0.7,1.8c0,8.3,0.3,20.8,0.9,37.3
		c0.6,16.6,0.9,29,0.9,37.3c0,1.7-0.4,3.1-1.3,4.3c-0.9,1.2-1.7,1.8-2.5,1.8c-1.7,0-2.5-1.4-2.5-4.1l-0.4-43.9v-5.3
		c-0.5,2.7-1.5,7.4-3.2,14.1c-1.7,6.7-2.7,11.8-3.2,15.4v0.7c-0.1,0.3-0.2,0.9-0.3,1.9c-0.1,1-0.3,1.9-0.4,2.5
		c-0.2,0.7-0.4,1.4-0.7,2.2c-0.6,1.6-1.7,2.4-3.2,2.4c-2.5,0-3.7-3.2-3.7-9.7c0-6.4-1.6-15.4-4.7-26.9c-1.6-5.8-2.6-9.7-3-11.7
		c-0.1,5.6-0.2,9.8-0.2,12.6l0.9,42.8c0,1.5-0.5,2.8-1.6,3.9c-1.8,0-3-0.6-3.6-1.7c-0.6-1.2-0.9-2.7-0.9-4.7L15.7,501.3z"/>
	<path d="M79.7,503.8l1.1,6.4c0,0.8,0.3,2.9,1,6.2c0.7,3.3,1,5.4,1,6.5v0.1c0,1.5-0.6,2.5-1.7,3c-1.5,0-2.6-0.2-3.4-0.7
		c-0.8-0.5-1.2-1.4-1.2-2.7c0-3-0.5-7.2-1.5-12.9L64.7,508c-0.6,2.3-1.1,4.8-1.5,7.6c-0.3,2.7-0.7,4.7-1,6c-0.6,2.6-1.7,3.9-3.4,3.9
		c-0.8,0-1.6-0.3-2.3-0.8c-0.7-0.5-1-1.2-1-2l0.3-0.9c4.7-18.1,8.2-35.7,10.4-52.8c0.1-0.5,0.2-1.9,0.3-4.2c0.3-5.1,1-8.3,1.9-9.7
		H72c0.9,0,1.8,0.2,2.5,0.7c0.7,0.4,1.1,1.1,1.1,2c0,5.3,0.7,13.1,2.1,23.6C79,491.7,79.7,499.2,79.7,503.8z M74.3,505.9
		c-0.2-1-0.3-2.8-0.3-5.3c0-2.5-0.1-5.7-0.4-9.4c-0.3-3.7-0.7-8.1-1.2-13.1c-0.5-5-0.9-8.6-1.1-10.8C68,484.7,66,497,65.1,504.2
		C66.3,505,69.3,505.5,74.3,505.9z"/>
	<path d="M95.5,523.3l-0.2-8c0,0,0.1-1.2,0.2-3.6c-0.3-0.9-0.8-8.7-1.7-23.5c-0.8-14.8-1.3-23.8-1.3-27.1c-0.1,0-0.3,0-0.4,0
		c-5.6-0.1-8.4-1.1-8.4-3.1c0-0.6,0.4-1.2,1.1-1.6c0.7-0.4,1.5-0.6,2.2-0.6l14.1,1l1.7-0.1c2.2,0,3.3,0.8,3.3,2.5
		c0,0.8-0.4,1.5-1.1,2.1c-0.7,0.5-1.5,0.8-2.4,0.8l-4.8-0.7l-0.2,1.1c0,6.6,0.6,16.4,1.7,29.6c1.2,13.1,1.7,23,1.7,29.6
		c0,0.8-0.4,1.5-1.1,2.2c-0.7,0.6-1.6,0.9-2.4,0.9L95.5,523.3z"/>
	<path d="M111.2,520.6l4.3,0.8c1.3,0,2.5-0.6,3.5-1.7c1-1.2,1.7-2.6,2.2-4.3c0.9-3.3,1.4-6.3,1.4-8.8c0-2.6-0.4-5.1-1.3-7.6
		c-0.8-2.5-1.9-4.8-3.1-7c-1.2-2.2-2.5-4.3-3.7-6.6c-2.9-5.3-4.4-10.5-4.4-15.6c0-3.1,0.5-5.9,1.6-8.3c2-4.5,4.6-6.7,7.8-6.7
		c1.2,0,2.4,0.4,3.5,1.2c1.1,0.8,1.7,1.6,1.7,2.5c0,1.6-0.8,2.4-2.5,2.4c-0.7,0-1.5-0.2-2.2-0.6c-2.2,0.1-3.7,2.6-4.5,7.4
		c-0.2,1.1-0.3,2.3-0.3,3.7s0.3,3.1,0.9,5.2s1.4,3.9,2.3,5.5c0.9,1.6,1.9,3.4,3,5.3s2.1,3.8,3,5.7c2.2,4.2,3.2,9.1,3.2,14.6
		c0,4.2-0.9,8.2-2.9,12.1c-0.9,1.9-2.3,3.5-4,4.7c-1.7,1.2-3.7,1.8-6,1.9v0.3c-2.8-0.4-4.4-1.7-4.7-4L111.2,520.6z"/>
	<path d="M132.7,493.1l0.1-4c0-0.3-0.1-0.5-0.2-0.5v-1.9c0-10.9,0.6-18.7,1.9-23.3c1.1-3.9,2.1-6.3,3.1-7.2c1-0.9,1.9-1.4,2.9-1.4
		c8.1,0,13.6,4.1,16.7,12.2c1.8,4.7,2.6,10.4,2.6,17.3v0.8l0.2,11.8c0,20-4.6,30-13.9,30c-3.8,0-6.8-2.1-8.8-6.4
		c-1.9-4.1-3.1-8.1-3.6-12C133.1,502.6,132.7,497.4,132.7,493.1z M138.9,478.8l-0.5,9.6c0,10.1,0.8,18.9,2.4,26.4
		c1.7,4.4,3.4,7,4.9,7.7c1.3,0,2.4-0.5,3.4-1.5s1.8-2.4,2.4-4.1c0.6-1.7,1.1-3.5,1.5-5.4c0.4-1.9,0.7-3.9,0.9-6
		c0.3-3.7,0.5-6.9,0.5-9.5c0-2.6-0.2-6.6-0.7-12s-0.7-9.4-0.7-12.1v-1.8c-0.1-2.5-0.9-4.8-2.5-6.8c-1.6-2-3.6-3-6.1-3
		c-2.4,0-4,1.3-4.7,4c-0.6,2.2-1,5-1,8.3L138.9,478.8z"/>
	<path d="M166.5,482.8l0.6-19.4c0-3.2,1.3-5.8,3.8-7.7v0.7c0.3-0.2,0.5-0.3,0.8-0.3c1.6,0,3.7,2.8,6.1,8.4
		c2.4,5.6,4.6,11.8,6.6,18.5c2,6.7,3.9,13.5,5.9,20.3c1.9,6.8,3.2,10.8,3.6,12c1.4-14.5,2.1-32.2,2.1-52.9l-0.2-2.8
		c0-2.1,0.9-3.1,2.6-3.1c1,0,1.7,0.4,2.2,1.2c0.5,0.8,0.7,1.8,0.7,2.8v7.9c-0.1,8.2-0.4,19.1-1.1,32.7c-0.7,13.7-1.6,21.4-2.7,23.1
		c-1.9,0.6-3.2,0.9-3.9,0.9c-0.7,0-1.3-0.2-1.7-0.7c-0.4-0.5-0.7-1.2-0.9-2.3c-0.2-1-0.4-1.7-0.6-2l0.1-0.5c0-2.6-2.5-10.8-7.5-24.6
		c-5-13.8-8.6-23.3-10.8-28.5v52.5c0.1,0.1,0.2,0.4,0.4,0.7c0.4,0.7,0.7,1.4,0.7,2.1c0,0.6-0.3,1.3-0.9,1.9c-0.6,0.6-1.4,1-2.2,1
		c-2.3,0-3.4-2.1-3.4-6.4L166.5,482.8z"/>
	<path d="M219.9,490.3l0.5,22.1v3.1l-0.1,2.9h1.4l3-0.1c2.8,0,4.3,0.9,4.3,2.6c0,0.9-0.3,1.6-1,2.3c-0.7,0.6-1.5,0.9-2.4,0.9H221
		c-3.2,0-5.2-0.1-6.1-0.2c-0.5,0.1-1,0.1-1.3,0.1c-2.5,0-3.7-0.8-3.7-2.3c0-0.6,0.2-1.3,0.6-1.8c0.4-0.6,0.8-0.9,1.2-0.9h3l0.2-1.4
		l-0.7-22.1l0.6-23.2c0-4-0.2-7.7-0.5-11.2h-2l-2.4,0.1c-1,0-1.8-0.2-2.4-0.6c-0.6-0.4-0.9-1.1-0.9-2.2c0-1.6,1.7-2.4,5.1-2.4h12.4
		c2.8,0,4.2,0.7,4.2,2.2c0,0.6-0.3,1.2-0.9,1.8c-0.6,0.5-1.3,0.8-2.1,0.8H220c0.3,2.8,0.4,6.1,0.4,9.7L219.9,490.3z"/>
	<path d="M291.7,501.3l-0.4-40.3c0-4.5,0.1-9,0.2-13.5l2.9-1.6c2.1,0.1,4.4,5.7,7.1,16.6c2.1,8.9,3.9,16.9,5.2,24
		c1.3,7.1,2.1,11,2.2,11.6c0.5-2.2,1.4-6.2,2.6-12c1.3-5.8,2.3-10.2,2.9-13.4c1.9-9.3,3.1-17.6,3.5-24.9v-0.6
		c0.1-0.9,0.6-1.6,1.3-2.1c0.7-0.5,1.5-0.8,2.2-0.8c0.8,0,1.4,0.3,1.9,0.8c0.5,0.6,0.7,1.2,0.7,1.8c0,8.3,0.3,20.8,0.9,37.3
		s0.9,29,0.9,37.3c0,1.7-0.4,3.1-1.3,4.3c-0.9,1.2-1.7,1.8-2.5,1.8c-1.7,0-2.5-1.4-2.5-4.1l-0.4-43.9v-5.3
		c-0.5,2.7-1.5,7.4-3.2,14.1c-1.7,6.7-2.7,11.8-3.2,15.4v0.7c-0.1,0.3-0.2,0.9-0.3,1.9c-0.1,1-0.3,1.9-0.4,2.5s-0.4,1.4-0.7,2.2
		c-0.6,1.6-1.7,2.4-3.2,2.4c-2.5,0-3.7-3.2-3.7-9.7c0-6.4-1.6-15.4-4.7-26.9c-1.6-5.8-2.6-9.7-3-11.7c-0.1,5.6-0.2,9.8-0.2,12.6
		l0.9,42.8c0,1.5-0.5,2.8-1.6,3.9c-1.8,0-3-0.6-3.6-1.7c-0.6-1.2-0.9-2.7-0.9-4.7L291.7,501.3z"/>
	<path d="M355.7,503.8l1.1,6.4c0,0.8,0.3,2.9,1,6.2c0.7,3.3,1,5.4,1,6.5v0.1c0,1.5-0.6,2.5-1.7,3c-1.5,0-2.6-0.2-3.4-0.7
		c-0.8-0.5-1.2-1.4-1.2-2.7c0-3-0.5-7.2-1.5-12.9l-10.3-1.5c-0.6,2.3-1.1,4.8-1.5,7.6c-0.3,2.7-0.7,4.7-1,6
		c-0.6,2.6-1.7,3.9-3.4,3.9c-0.8,0-1.6-0.3-2.3-0.8c-0.7-0.5-1-1.2-1-2l0.3-0.9c4.7-18.1,8.2-35.7,10.4-52.8
		c0.1-0.5,0.2-1.9,0.3-4.2c0.3-5.1,1-8.3,1.9-9.7h3.5c0.9,0,1.8,0.2,2.5,0.7c0.7,0.4,1.1,1.1,1.1,2c0,5.3,0.7,13.1,2.1,23.6
		S355.7,499.2,355.7,503.8z M350.3,505.9c-0.2-1-0.3-2.8-0.3-5.3c0-2.5-0.1-5.7-0.4-9.4c-0.3-3.7-0.7-8.1-1.2-13.1
		c-0.5-5-0.9-8.6-1.1-10.8c-3.2,17.5-5.2,29.8-6.1,36.9C342.3,505,345.3,505.5,350.3,505.9z"/>
	<path d="M371.5,523.3l-0.2-8c0,0,0.1-1.2,0.2-3.6c-0.3-0.9-0.8-8.7-1.7-23.5c-0.8-14.8-1.3-23.8-1.3-27.1c-0.1,0-0.3,0-0.4,0
		c-5.6-0.1-8.4-1.1-8.4-3.1c0-0.6,0.4-1.2,1.1-1.6c0.7-0.4,1.5-0.6,2.2-0.6l14.1,1l1.7-0.1c2.2,0,3.3,0.8,3.3,2.5
		c0,0.8-0.4,1.5-1.1,2.1c-0.7,0.5-1.5,0.8-2.4,0.8l-4.8-0.7l-0.2,1.1c0,6.6,0.6,16.4,1.7,29.6c1.2,13.1,1.7,23,1.7,29.6
		c0,0.8-0.4,1.5-1.1,2.2c-0.7,0.6-1.6,0.9-2.4,0.9L371.5,523.3z"/>
	<path d="M398.3,524.3l-6.2-0.3c-0.4,0-1.1,0.2-1.8,0.6c-0.8,0.4-1.5,0.6-2.1,0.6c-0.6,0-1.2-0.2-1.8-0.7c-0.6-0.5-0.9-1.3-0.9-2.4
		c0-6.2,2.3-17,7-32.5c4.7-15.4,7.5-24.9,8.4-28.5l-8.5,0.6c-0.7,0-1.4-0.3-1.9-0.9c-0.5-0.6-0.8-1.3-0.8-2c0-2,3.8-3,11.4-3
		c3.4,0,5.1,1,5.1,2.9c0,2.4-0.8,5.8-2.3,9.9c-1.5,4.2-2.4,7.1-2.7,8.8c-0.9,5.5-2.7,13.6-5.4,24.2c-2.7,10.6-4.3,16.6-4.5,18h1.8
		l4.4-0.3v-0.1c2.8,0,4.2,0.8,4.2,2.5c0,0.8-0.4,1.5-1.1,1.9S399.2,524.3,398.3,524.3z"/>
	<path d="M411.2,493.1l0.1-4c0-0.3-0.1-0.5-0.2-0.5v-1.9c0-10.9,0.6-18.7,1.9-23.3c1.1-3.9,2.1-6.3,3.1-7.2c1-0.9,2-1.4,2.9-1.4
		c8.1,0,13.6,4.1,16.7,12.2c1.8,4.7,2.6,10.4,2.6,17.3v0.8l0.2,11.8c0,20-4.6,30-13.9,30c-3.8,0-6.8-2.1-8.8-6.4
		c-1.9-4.1-3.1-8.1-3.6-12C411.5,502.6,411.2,497.4,411.2,493.1z M417.3,478.8l-0.5,9.6c0,10.1,0.8,18.9,2.4,26.4
		c1.7,4.4,3.4,7,4.9,7.7c1.3,0,2.4-0.5,3.4-1.5c1-1,1.8-2.4,2.4-4.1c0.6-1.7,1.1-3.5,1.5-5.4c0.4-1.9,0.7-3.9,0.9-6
		c0.3-3.7,0.5-6.9,0.5-9.5c0-2.6-0.2-6.6-0.7-12s-0.7-9.4-0.7-12.1v-1.8c-0.1-2.5-0.9-4.8-2.5-6.8c-1.6-2-3.6-3-6.1-3
		c-2.4,0-4,1.3-4.7,4c-0.6,2.2-1,5-1,8.3L417.3,478.8z"/>
	<path d="M444.3,493.1l0.1-4c0-0.3-0.1-0.5-0.2-0.5v-1.9c0-10.9,0.6-18.7,1.9-23.3c1.1-3.9,2.1-6.3,3.1-7.2c1-0.9,2-1.4,2.9-1.4
		c8.1,0,13.6,4.1,16.7,12.2c1.8,4.7,2.6,10.4,2.6,17.3v0.8l0.2,11.8c0,20-4.6,30-13.9,30c-3.8,0-6.8-2.1-8.8-6.4
		c-1.9-4.1-3.1-8.1-3.6-12C444.6,502.6,444.3,497.4,444.3,493.1z M450.4,478.8l-0.5,9.6c0,10.1,0.8,18.9,2.4,26.4
		c1.7,4.4,3.4,7,4.9,7.7c1.3,0,2.4-0.5,3.4-1.5c1-1,1.8-2.4,2.4-4.1c0.6-1.7,1.1-3.5,1.5-5.4c0.4-1.9,0.7-3.9,0.9-6
		c0.3-3.7,0.5-6.9,0.5-9.5c0-2.6-0.2-6.6-0.7-12s-0.7-9.4-0.7-12.1v-1.8c-0.1-2.5-0.9-4.8-2.5-6.8c-1.6-2-3.6-3-6.1-3
		c-2.4,0-4,1.3-4.7,4c-0.6,2.2-1,5-1,8.3L450.4,478.8z"/>
	<path d="M478.1,482.8l0.6-19.4c0-3.2,1.3-5.8,3.8-7.7v0.7c0.3-0.2,0.5-0.3,0.8-0.3c1.6,0,3.7,2.8,6.1,8.4
		c2.4,5.6,4.6,11.8,6.6,18.5c2,6.7,3.9,13.5,5.9,20.3s3.2,10.8,3.6,12c1.4-14.5,2.1-32.2,2.1-52.9l-0.2-2.8c0-2.1,0.9-3.1,2.6-3.1
		c1,0,1.7,0.4,2.2,1.2c0.5,0.8,0.7,1.8,0.7,2.8v7.9c-0.1,8.2-0.4,19.1-1.1,32.7s-1.6,21.4-2.7,23.1c-1.9,0.6-3.2,0.9-3.9,0.9
		c-0.7,0-1.3-0.2-1.7-0.7c-0.4-0.5-0.7-1.2-0.9-2.3s-0.4-1.7-0.6-2l0.1-0.5c0-2.6-2.5-10.8-7.5-24.6c-5-13.8-8.6-23.3-10.8-28.5
		v52.5c0.1,0.1,0.2,0.4,0.4,0.7c0.4,0.7,0.7,1.4,0.7,2.1c0,0.6-0.3,1.3-0.9,1.9c-0.6,0.6-1.4,1-2.2,1c-2.3,0-3.4-2.1-3.4-6.4
		L478.1,482.8z"/>
</g>
<g>
	<path d="M244.5,491.9l0.1-2.1c0-0.2,0-0.3-0.1-0.3v-1c0-5.9,0.3-10,1-12.5c0.6-2.1,1.1-3.4,1.6-3.9c0.5-0.5,1-0.7,1.6-0.7
		c4.3,0,7.3,2.2,9,6.6c0.9,2.5,1.4,5.6,1.4,9.3v0.4l0.1,6.3c0,10.7-2.5,16.1-7.5,16.1c-2.1,0-3.6-1.1-4.7-3.4
		c-1-2.2-1.7-4.3-1.9-6.5C244.7,497,244.5,494.2,244.5,491.9z M247.8,484.2l-0.3,5.2c0,5.4,0.4,10.1,1.3,14.2
		c0.9,2.4,1.8,3.7,2.7,4.2c0.7,0,1.3-0.3,1.8-0.8c0.5-0.5,1-1.3,1.3-2.2c0.3-0.9,0.6-1.9,0.8-2.9c0.2-1,0.4-2.1,0.5-3.2
		c0.2-2,0.3-3.7,0.3-5.1c0-1.4-0.1-3.6-0.4-6.5c-0.2-2.9-0.4-5.1-0.4-6.5v-1c0-1.4-0.5-2.6-1.3-3.6c-0.9-1.1-2-1.6-3.3-1.6
		c-1.3,0-2.1,0.7-2.5,2.2c-0.3,1.2-0.5,2.7-0.5,4.5L247.8,484.2z"/>
	<path d="M265.5,490.3l-0.1,6.1c0,4.9,0.4,8.8,1.1,11.7l-0.6,1.5h-1.6l-0.7-0.8c0-1.7,0.1-3.6,0.1-5.6c0-2.1-0.2-6.5-0.5-13.4
		c-0.3-6.8-0.5-11.9-0.5-15.3c0-1.8,0.6-2.7,1.9-2.7c2,0,3.6,0.5,4.9,1.5c1.3,1,2,2.5,2,4.4v3.9c0,1.1-0.2,2.1-0.6,2.9
		c-0.4,0.9-0.9,1.8-1.4,2.8c-0.5,1-0.8,1.5-0.9,1.6c0.2,0.9,0.6,2.7,1.1,5.4c1.1,5.8,2.3,10,3.6,12.5c0.4,0.7,0.6,1.3,0.6,1.7
		s-0.1,0.8-0.3,1c-0.2,0.3-0.5,0.4-0.9,0.4c-0.8,0-1.5-0.9-2.3-2.7c-0.7-1.8-1.3-3.8-1.7-6c-1.3-6.7-2.1-10.4-2.4-11H265.5z
		 M265.7,473.8l-0.2,0.8c0,1.5,0,3.7,0.1,6.6c0.1,2.9,0.1,5,0.1,6.3c0.9-0.5,1.6-1.6,2.1-3.6c0.5-1.9,0.8-3.4,0.8-4.4
		c0-1,0-1.8-0.1-2.3c-0.1-0.5-0.2-1-0.4-1.6C267.8,474.5,267,473.8,265.7,473.8z"/>
</g>
<g>
	<g>
		<path d="M13.3,593.6l0.2-11.9c0-5.1-0.3-8.9-1-11.5c0.6-2.9,1.7-4.4,3.3-4.4h5.5c4.8,0,8.1,2,10.1,6c1.7,3.5,2.6,7.6,2.6,12.2
			c0,5.8-0.1,9.3-0.4,10.7c-0.3,1.3-0.6,2.6-0.9,3.7c-0.3,1.2-0.7,2.1-1.2,2.9c-0.5,0.7-1.1,1.5-1.8,2.4c-0.7,0.9-1.6,1.6-2.5,2.2
			c-2.1,1.3-4.6,2.5-7.5,3.4v13.3l1,23.6c0,1-0.4,1.9-1.3,2.6c-0.9,0.7-1.8,1.1-2.9,1.1l-2.6-1.5c-1-4.6-1.5-10.7-1.5-18.3l0.5-22.2
			c-0.5-1.1-0.7-2.1-0.7-3v-0.4C12.9,602.7,13.3,599.2,13.3,593.6z M19.5,579.7l0.2,24.2v0.2c4.9-0.6,7.4-7.7,7.4-21
			c0-3.9-0.5-6.6-1.5-8c-1.1-1.5-2.7-2.2-4.9-2.2c0-0.1-0.4-0.2-1.3-0.2V579.7z"/>
		<path d="M55,606l0.6,26.4v3.7l-0.1,3.5h1.6l3.6-0.1c3.4,0,5.1,1,5.1,3.1c0,1.1-0.4,2-1.2,2.7c-0.8,0.8-1.8,1.1-2.9,1.1h-5.5
			c-3.8,0-6.2-0.1-7.2-0.2c-0.6,0.1-1.2,0.1-1.5,0.1c-3,0-4.4-0.9-4.4-2.8c0-0.8,0.2-1.5,0.7-2.2c0.5-0.7,1-1.1,1.5-1.1h3.5l0.2-1.6
			l-0.9-26.4l0.7-27.7c0-4.7-0.2-9.2-0.6-13.4h-2.4l-2.9,0.1c-1.2,0-2.2-0.2-2.9-0.7c-0.7-0.5-1-1.3-1-2.6c0-1.9,2-2.9,6.1-2.9h14.8
			c3.4,0,5,0.9,5,2.6c0,0.8-0.4,1.5-1.1,2.1c-0.7,0.6-1.6,1-2.5,1h-6.4c0.3,3.4,0.5,7.3,0.5,11.5L55,606z"/>
		<path d="M85.3,606l0.6,26.4v3.7l-0.1,3.5h1.6l3.6-0.1c3.4,0,5.1,1,5.1,3.1c0,1.1-0.4,2-1.2,2.7c-0.8,0.8-1.8,1.1-2.9,1.1h-5.5
			c-3.8,0-6.2-0.1-7.2-0.2c-0.6,0.1-1.2,0.1-1.5,0.1c-3,0-4.4-0.9-4.4-2.8c0-0.8,0.2-1.5,0.7-2.2c0.5-0.7,1-1.1,1.5-1.1h3.5l0.2-1.6
			l-0.9-26.4l0.7-27.7c0-4.7-0.2-9.2-0.6-13.4h-2.4l-2.9,0.1c-1.2,0-2.2-0.2-2.9-0.7c-0.7-0.5-1-1.3-1-2.6c0-1.9,2-2.9,6.1-2.9h14.8
			c3.4,0,5,0.9,5,2.6c0,0.8-0.4,1.5-1.1,2.1c-0.7,0.6-1.6,1-2.5,1h-6.4c0.3,3.4,0.5,7.3,0.5,11.5L85.3,606z"/>
		<path d="M148.3,646.2l0.1-15.9c0-3.7-0.3-9.1-0.9-16.2c-0.6-7.1-0.9-11.9-0.9-14.4c0-2.5,0.1-5.4,0.2-8.8c0.2-3.4,0.2-6,0.2-7.7
			c-0.4,1.1-1.8,6.8-4.2,17.2c-6.3,26.8-10.8,40.2-13.6,40.2c-1.6,0-2.9-0.5-3.8-1.5c-0.9-1-1.4-2.3-1.4-3.9c0-3.9-1.5-12-4.6-24.3
			c-3.1-12.3-5.7-21.6-7.9-28.2c-1.6,29.3-2.4,49-2.4,59.3l0.2,3.7c0,1.3-0.3,2.4-0.9,3.1c-0.6,0.7-1.5,1.1-2.7,1.1s-2.2-0.3-3-0.9
			c-0.8-0.6-1.2-1.3-1.2-2.1c0-8.5,0.6-21.1,1.9-38c1.3-16.9,1.9-29.6,1.9-38c-0.5-0.8-0.7-1.6-0.7-2.6c0-1,0.5-1.7,1.5-2.2
			c1-0.5,2.1-0.7,3.3-0.7c1.8,0,5.3,8.3,10.6,25c5.3,16.7,8.5,28.2,9.7,34.6c0.4-1.2,1.1-4.3,2.3-9.2c1.2-4.9,2.4-10,3.7-15.3
			c1.3-5.3,2.7-10.7,4.3-16.2c3.5-12.5,6.4-18.7,8.9-18.7c1.1,0,2.1,0.3,3.1,0.9c1,0.6,1.5,1.4,1.5,2.5c0,6,0.3,14.9,0.8,26.9
			c0.5,11.9,0.8,20.6,0.8,26l-0.3,13.1v0.1c0,0.9,0.2,3.9,0.7,8.9l0.2,2.4c0.4,0.9,0.5,1.8,0.5,2.8c0,1-0.4,2.1-1.2,3.2
			c-0.8,1.1-1.8,1.7-3,1.7C149.6,653.9,148.3,651.3,148.3,646.2z"/>
		<path d="M191.3,622.2l1.3,7.7c0,1,0.4,3.5,1.2,7.4c0.8,3.9,1.2,6.5,1.2,7.7v0.1c0,1.8-0.7,3-2.1,3.5c-1.7,0-3.1-0.3-4.1-0.9
			c-1-0.6-1.5-1.7-1.5-3.3c0-3.5-0.6-8.6-1.8-15.4l-12.3-1.8c-0.8,2.8-1.4,5.8-1.8,9.1c-0.4,3.3-0.8,5.7-1.2,7.2
			c-0.7,3.1-2.1,4.6-4.1,4.6c-1,0-1.9-0.3-2.7-0.9c-0.8-0.6-1.2-1.4-1.2-2.4l0.3-1.1c5.6-21.6,9.7-42.6,12.5-63.1
			c0.1-0.6,0.2-2.2,0.4-5c0.4-6.1,1.2-9.9,2.3-11.6h4.2c1.1,0,2.1,0.3,3,0.8c0.9,0.5,1.3,1.3,1.3,2.4c0,6.3,0.8,15.7,2.5,28.1
			C190.4,607.7,191.3,616.7,191.3,622.2z M178.4,553.1c0,1.2-0.5,2.2-1.5,3.1c-1,0.9-2.1,1.3-3.3,1.3c-1.2,0-2.1-0.4-2.7-1.2
			c-0.6-0.8-0.9-1.8-0.9-3c0-1.2,0.4-2.3,1.2-3.1c0.8-0.9,1.8-1.3,3-1.3c1.2,0,2.2,0.4,3.1,1.2C178,550.9,178.4,552,178.4,553.1z
			 M184.8,624.6c-0.2-1.2-0.4-3.3-0.4-6.4s-0.2-6.8-0.5-11.2c-0.3-4.5-0.8-9.7-1.5-15.6c-0.6-5.9-1.1-10.2-1.3-12.9
			c-3.8,20.9-6.2,35.6-7.3,44.1C175.2,623.6,178.9,624.2,184.8,624.6z M190.9,557.5c-1.2,0-2.1-0.4-2.9-1.3c-0.8-0.9-1.2-1.8-1.2-3
			c0-1.1,0.4-2.2,1.3-3.1c0.9-0.9,1.9-1.4,3-1.4c1.1,0,2.1,0.5,2.9,1.4c0.8,0.9,1.2,2,1.2,3.2c0,1.2-0.5,2.2-1.4,3
			C193.1,557.1,192,557.5,190.9,557.5z"/>
		<path d="M254,641.7l-0.3,0.8c0.2,0.5,0.2,1.1,0.2,1.9s-0.4,1.5-1.2,2.2c-0.8,0.6-1.8,1-3,1c-2.4,0-3.6-2.7-3.6-8
			c0-7.9-0.4-22.8-1.2-44.8c-0.8-22-1.7-33.6-2.5-34.9c0-4.3,3-6.6,8.8-6.9c0.9,0,2.1-0.1,3.6-0.1c1.5,0,2.7,0.3,3.6,0.9
			c0.9,0.6,1.3,1.7,1.3,3.5s-1.2,2.6-3.5,2.6l-3-0.1c-2.3,0-3.5,0.5-3.5,1.4c0,3.8,0.3,9.5,0.9,16.9c0.6,7.4,0.9,12.9,1,16.5
			c0.5-0.1,1.2-0.2,2.1-0.5c2.1-0.6,3.7-0.9,4.7-0.9c1,0,1.9,0.4,2.5,1.2s1,1.7,1,2.6c0,2.7-3.4,4.1-10.3,4.1
			c0,4.5,0.4,11.2,1.2,20.2C253.6,630.4,254,637.2,254,641.7z"/>
		<path d="M281.2,606l0.6,26.4v3.7l-0.1,3.5h1.6l3.6-0.1c3.4,0,5.1,1,5.1,3.1c0,1.1-0.4,2-1.2,2.7c-0.8,0.8-1.8,1.1-2.9,1.1h-5.5
			c-3.8,0-6.2-0.1-7.2-0.2c-0.6,0.1-1.2,0.1-1.5,0.1c-3,0-4.4-0.9-4.4-2.8c0-0.8,0.2-1.5,0.7-2.2c0.5-0.7,1-1.1,1.5-1.1h3.5l0.2-1.6
			l-0.9-26.4l0.7-27.7c0-4.7-0.2-9.2-0.6-13.4H272l-2.9,0.1c-1.2,0-2.2-0.2-2.9-0.7c-0.7-0.5-1-1.3-1-2.6c0-1.9,2-2.9,6.1-2.9h14.8
			c3.4,0,5,0.9,5,2.6c0,0.8-0.4,1.5-1.1,2.1c-0.7,0.6-1.6,1-2.5,1h-6.4c0.3,3.4,0.5,7.3,0.5,11.5L281.2,606z"/>
		<path d="M305.6,577.7l0.4,29.9c-0.5,1.1-0.7,2.6-0.7,4.3v2.5l-0.5,19.8c0,5.7,1.4,8.6,4.2,8.6l5.2-0.2c4.5,0,6.7,1.2,6.7,3.6
			c0,0.9-0.4,1.6-1.2,2.2c-0.8,0.6-1.6,0.9-2.6,1.1c-3-1-6.7-1.5-11.1-1.5c-1.3,0.8-2.6,1.2-3.9,1.2c-1.2,0-2.2-0.4-2.9-1.3
			c-0.7-0.9-1-1.8-1-2.8c0-6.2,0.3-15.4,0.8-27.8s0.8-21.6,0.8-27.8v-0.9c-0.5-5.2-0.7-9.1-0.7-11.7c0-7.9,1.4-11.8,4.3-11.8
			c0.9,0,1.6,0.3,2.2,0.9c0.6,0.6,0.9,1.3,0.9,2.2L305.6,577.7z"/>
		<path d="M372.6,646.2l0.1-15.9c0-3.7-0.3-9.1-0.9-16.2c-0.6-7.1-0.9-11.9-0.9-14.4c0-2.5,0.1-5.4,0.2-8.8c0.2-3.4,0.2-6,0.2-7.7
			c-0.4,1.1-1.8,6.8-4.2,17.2c-6.3,26.8-10.8,40.2-13.6,40.2c-1.6,0-2.9-0.5-3.8-1.5c-0.9-1-1.4-2.3-1.4-3.9c0-3.9-1.5-12-4.6-24.3
			c-3.1-12.3-5.7-21.6-7.9-28.2c-1.6,29.3-2.4,49-2.4,59.3l0.2,3.7c0,1.3-0.3,2.4-0.9,3.1s-1.5,1.1-2.7,1.1s-2.2-0.3-3-0.9
			c-0.8-0.6-1.2-1.3-1.2-2.1c0-8.5,0.6-21.1,1.9-38c1.3-16.9,1.9-29.6,1.9-38c-0.5-0.8-0.7-1.6-0.7-2.6c0-1,0.5-1.7,1.5-2.2
			c1-0.5,2.1-0.7,3.3-0.7c1.8,0,5.3,8.3,10.6,25s8.5,28.2,9.7,34.6c0.4-1.2,1.1-4.3,2.3-9.2c1.2-4.9,2.4-10,3.7-15.3
			c1.3-5.3,2.7-10.7,4.3-16.2c3.5-12.5,6.4-18.7,8.9-18.7c1.1,0,2.1,0.3,3.1,0.9c1,0.6,1.5,1.4,1.5,2.5c0,6,0.3,14.9,0.8,26.9
			c0.5,11.9,0.8,20.6,0.8,26l-0.3,13.1v0.1c0,0.9,0.2,3.9,0.7,8.9l0.2,2.4c0.4,0.9,0.5,1.8,0.5,2.8c0,1-0.4,2.1-1.2,3.2
			c-0.8,1.1-1.8,1.7-3,1.7C373.9,653.9,372.6,651.3,372.6,646.2z"/>
		<path d="M404.2,571.8l1.3,52.4v13.2c0,4.1-0.3,7.1-1,9c-0.7,1.8-1.3,3.4-1.9,4.6c-0.6,1.2-1.4,2.3-2.3,3.2c-1,0.9-2.1,1.8-3.3,2.6
			c-2.6,1.6-6,2.4-10.4,2.4c-1,0-1.5-0.5-1.5-1.5l0.1-2.1c0-0.5,0.6-0.9,1.8-1.3c4.3-1.5,7-2.8,8.1-4c2.4-2.6,3.6-7.3,3.6-14.2
			l-1.4-63.6V572c-3.2,0-5.4-0.3-6.8-0.8s-2.2-1-2.4-1.2c-0.2-0.3-0.4-0.7-0.4-1.3c0-0.6,0.5-1.2,1.4-1.7c0.9-0.5,2.4-0.8,4.5-0.8
			s6,0.3,11.7,0.8c5.7,0.5,8.6,1.2,8.6,2.1c0,0.9-0.3,1.6-1,2.1c-0.7,0.5-1.5,0.8-2.4,0.8H404.2z"/>
		<path d="M418.7,609.4l0.1-4.7c0-0.4-0.1-0.6-0.2-0.6v-2.2c0-13,0.7-22.3,2.2-27.8c1.3-4.7,2.5-7.5,3.6-8.6
			c1.2-1.1,2.3-1.6,3.5-1.6c9.6,0,16.3,4.9,19.9,14.6c2.1,5.6,3.2,12.5,3.2,20.7v0.9l0.2,14.1c0,23.9-5.5,35.8-16.6,35.8
			c-4.6,0-8.1-2.5-10.5-7.6c-2.3-4.9-3.7-9.6-4.3-14.3C419.2,620.7,418.7,614.6,418.7,609.4z M428.2,553.1c0,1.2-0.5,2.2-1.5,3.1
			c-1,0.9-2.1,1.3-3.3,1.3c-1.2,0-2.1-0.4-2.7-1.2c-0.6-0.8-0.9-1.8-0.9-3c0-1.2,0.4-2.3,1.2-3.1c0.8-0.9,1.8-1.3,3-1.3
			c1.2,0,2.2,0.4,3.1,1.2C427.8,550.9,428.2,552,428.2,553.1z M426.1,592.4l-0.6,11.5c0,12,1,22.5,2.9,31.5c2.1,5.2,4,8.3,5.9,9.2
			c1.5,0,2.9-0.6,4.1-1.8c1.2-1.2,2.2-2.8,2.9-4.9c0.7-2,1.3-4.2,1.8-6.5c0.4-2.2,0.8-4.6,1-7.2c0.4-4.4,0.6-8.2,0.6-11.3
			c0-3.1-0.3-7.9-0.8-14.3c-0.5-6.4-0.8-11.2-0.8-14.4V582c-0.1-3-1.1-5.7-3-8.1c-1.9-2.4-4.3-3.6-7.3-3.6c-2.8,0-4.7,1.6-5.7,4.8
			c-0.8,2.7-1.2,6-1.2,9.9L426.1,592.4z M440.7,557.5c-1.2,0-2.1-0.4-2.9-1.3c-0.8-0.9-1.2-1.8-1.2-3c0-1.1,0.4-2.2,1.3-3.1
			c0.9-0.9,1.9-1.4,3-1.4c1.1,0,2.1,0.5,2.9,1.4c0.8,0.9,1.2,2,1.2,3.2c0,1.2-0.5,2.2-1.4,3C442.9,557.1,441.9,557.5,440.7,557.5z"
			/>
		<path d="M466.8,577.7l0.4,29.9c-0.5,1.1-0.7,2.6-0.7,4.3v2.5l-0.5,19.8c0,5.7,1.4,8.6,4.2,8.6l5.2-0.2c4.5,0,6.7,1.2,6.7,3.6
			c0,0.9-0.4,1.6-1.2,2.2c-0.8,0.6-1.6,0.9-2.6,1.1c-3-1-6.7-1.5-11.1-1.5c-1.3,0.8-2.6,1.2-3.9,1.2c-1.2,0-2.2-0.4-2.9-1.3
			c-0.7-0.9-1-1.8-1-2.8c0-6.2,0.3-15.4,0.8-27.8s0.8-21.6,0.8-27.8v-0.9c-0.5-5.2-0.7-9.1-0.7-11.7c0-7.9,1.4-11.8,4.3-11.8
			c0.9,0,1.6,0.3,2.2,0.9c0.6,0.6,0.9,1.3,0.9,2.2L466.8,577.7z"/>
		<path d="M505,591.6l-0.2,7.4c0,3.6,1.4,10.2,4.3,20c2.9,9.8,5.2,16.2,7.1,19.4c0.2,0.4,0.8,1.1,1.6,2.2c0.8,1.1,1.4,2.1,1.8,3
			c0.4,0.9,0.6,1.7,0.6,2.7s-0.4,1.7-1.1,2.3c-0.7,0.6-1.5,0.9-2.5,0.9c-1.9,0-4-2.1-6.1-6.2c-2.1-4.1-4-9.1-5.6-15.1
			c-2.8-10.2-4.9-19-6.2-26.6c-3,6-4.5,13.2-4.5,21.6v23c0,1.9-0.9,2.9-2.6,2.9c-1.3,0-2.3-0.4-3-1.1c-0.8-0.7-1.1-1.7-1.1-2.9
			v-37.8c0-4.5,0.4-11.2,1.2-20.1c0.8-8.9,1.2-15.6,1.2-20.1c0.7-1.6,1.8-2.4,3.2-2.4c1.4,0,2.5,0.4,3.2,1.1
			c0.8,0.8,1.1,1.7,1.1,2.7v0.4c-1.1,1.9-1.6,9.5-1.6,22.7v4.4c0.1-0.2,1.6-3.2,4.6-9.1c7.1-14.3,11.5-21.4,13.1-21.4
			c1.2,0,2.3,0.3,3.3,0.9c1,0.6,1.5,1.4,1.5,2.5c0,0.1-1,1.7-3,5C509.3,584.1,505.8,589.9,505,591.6z"/>
	</g>
	<g>
		<path d="M226.4,608.2c4.2,0,7.3-0.3,9.3-1c1.6,0.3,2.3,1,2.3,2.2c0,1.5-1.4,2.3-4.3,2.3l-0.2,0h-2.1c0,8.8-1.1,14.6-3.4,17.6
			c1.6,1.7,3.4,2.5,5.2,2.5l3.3-0.2l1.5,1.2c0,1.1-0.4,1.8-1.1,2.2c-0.8,0.4-1.8,0.5-3,0.5c-2.5,0-5.1-1-8-3.1
			c-3.1,2.1-5.9,3.1-8.5,3.1c-2.6,0-4.8-0.7-6.6-2.1c-1.8-1.4-3.2-3.1-4.1-5.2c-0.9-2.1-1.4-4-1.4-5.7s0.1-3.3,0.2-4.6
			c0.1-1.3,0.3-2.5,0.4-3.4c0.1-0.9,0.4-2.1,0.9-3.4c0.5-1.4,0.8-2.3,1-2.9c0.2-0.6,0.7-1.7,1.4-3.3c1-2,2.1-4.2,3.3-6.6l-0.6-11.3
			V580c0-2,0.5-3.5,1.4-4.5s2.3-1.5,4.1-1.5c1.8,0,3.6,0.7,5.3,2.2c1.8,1.5,2.7,3.2,2.7,5.2c0,3.3-0.6,6.3-1.7,8.9
			c-1.1,2.6-2.8,5.2-5,7.8c-0.1,0.2-0.4,0.6-0.8,1.2c-0.9,1.2-1.3,2.2-1.3,2.8c0,2.4,1,6.7,3,12.9c2,6.2,3.8,10.1,5.2,11.6
			c1.7-3.9,2.6-8.8,2.6-14.6v-0.4c-0.4,0-0.7-0.1-0.8-0.2c-0.1-0.2-0.2-0.3-0.2-0.3c0-0.1-0.1-0.2-0.2-0.4c-0.1-0.2-0.2-0.4-0.2-0.4
			V608.2z M213.5,604.4c-2.9,4.6-4.3,9.9-4.3,16.1c0,2.8,0.6,5.3,1.8,7.6c1.4,2.6,3.5,3.9,6.4,3.9c0.9,0,2-0.2,3.3-0.7
			c1.3-0.5,2.2-1,2.8-1.5C218.4,622.5,215.1,614,213.5,604.4z M215.9,584.3l0.1,11.1v0.9c1.4-1.7,2.7-3.8,4.1-6.2s2-4.2,2-5.4
			s-0.4-2.6-1.3-4.3c-0.9-1.6-1.8-2.4-2.6-2.4c-0.9,0-1.6,0.7-2.2,2V584.3z"/>
	</g>
</g>
<g>
	<path d="M11.5,719.5l0-6v-2.4c0-10,0.5-17,1.5-20.9c1.2-4.8,2.9-8.2,5-10c2.9-2.6,6.5-3.9,10.9-3.9c1.1,0,1.8,0.2,2.4,0.7
		c0.5,0.5,0.8,1.1,0.8,1.8s-0.2,1.3-0.6,1.9c-0.4,0.5-0.9,0.8-1.6,0.9H25c-1.4,0-2.6,0.9-3.6,2.7c-1,1.8-1.7,4-2.2,6.6
		c-0.9,4.9-1.3,9-1.2,12.2v0.5l-0.4,19.6c0,4.1,0.2,7,0.7,8.6s0.9,2.9,1.4,3.9c0.5,1,1.1,1.8,1.7,2.4c1.5,1.5,3.5,2.2,5.9,2.2
		c0.8,0,1.5-0.3,2.2-0.9c0.8,0,1.5,0.2,2.1,0.5c0.6,0.4,0.9,0.9,0.9,1.7c0,2.7-1.9,4-5.6,4c-1.5,0-3.1-0.2-4.8-0.7
		c-1.7-0.4-2.9-0.9-3.8-1.5C13.7,740.5,11.5,732.5,11.5,719.5z"/>
	<path d="M62.1,698.7l0.1,1.7c0,30.1-4.4,45.2-13.1,45.2c-3.4,0-5.9-1.3-7.5-4.1c-1.7-2.9-2.7-5.7-3.1-8.5c-0.6-4.3-0.9-9.3-1-14.9
		c-0.1-5.6-0.1-13.7-0.1-24.4l-0.4-14.6c0.6-1.4,1.4-2.1,2.2-2.1c0.8,0,1.5,0.6,2.2,1.9c0.6,1.2,0.9,2.6,0.9,4v27.7
		c0,2.4,0.2,6,0.7,10.8c0.5,4.8,0.7,8.4,0.7,10.8c0,5,2.2,7.5,6.5,7.5c4.8,0,7.3-18.3,7.3-54.8v-5.7l0-1.7c0-0.8,0.2-1.4,0.5-1.8
		c0.4-0.4,1-0.6,1.9-0.6c0.9,0,1.6,0.1,2.1,0.4c0.4,0.3,0.7,0.7,0.9,1.2c0.3,0.8,0.4,1.9,0.4,3.3l-0.7,10.2L62.1,698.7z"/>
	<path d="M75.6,687l0.3,24.5c-0.4,0.9-0.6,2.1-0.6,3.5v2l-0.4,16.2c0,4.7,1.1,7,3.4,7l4.2-0.1c3.6,0,5.5,1,5.5,3
		c0,0.7-0.3,1.3-0.9,1.8c-0.6,0.5-1.3,0.8-2.1,0.9c-2.5-0.8-5.5-1.2-9.1-1.2c-1.1,0.6-2.1,0.9-3.2,0.9c-1,0-1.8-0.3-2.4-1
		c-0.6-0.7-0.8-1.5-0.8-2.3c0-5,0.2-12.6,0.6-22.8c0.4-10.1,0.6-17.7,0.6-22.8v-0.7c-0.4-4.2-0.6-7.4-0.6-9.6c0-6.4,1.2-9.7,3.5-9.7
		c0.7,0,1.3,0.2,1.8,0.7c0.5,0.5,0.8,1.1,0.8,1.8L75.6,687z"/>
	<path d="M102.2,742.5l-0.2-7.8c0,0,0-1.2,0.1-3.5c-0.3-0.9-0.8-8.5-1.6-23c-0.8-14.5-1.3-23.3-1.3-26.5c-0.1,0-0.3,0-0.4,0
		c-5.5-0.1-8.3-1.1-8.3-3c0-0.6,0.4-1.2,1.1-1.6c0.7-0.4,1.4-0.6,2.1-0.6l13.8,0.9l1.6,0c2.1,0,3.2,0.8,3.2,2.4c0,0.8-0.3,1.5-1,2
		c-0.7,0.5-1.5,0.8-2.3,0.8l-4.7-0.7l-0.2,1c0,6.4,0.6,16.1,1.7,28.9c1.1,12.8,1.7,22.5,1.7,29c0,0.8-0.4,1.5-1.1,2.1
		c-0.7,0.6-1.5,0.9-2.4,0.9L102.2,742.5z"/>
	<path d="M141.8,698.7l0.1,1.7c0,30.1-4.4,45.2-13.1,45.2c-3.4,0-5.9-1.3-7.5-4.1c-1.7-2.9-2.7-5.7-3.1-8.5c-0.6-4.3-0.9-9.3-1-14.9
		c-0.1-5.6-0.1-13.7-0.1-24.4l-0.4-14.6c0.6-1.4,1.4-2.1,2.2-2.1c0.8,0,1.5,0.6,2.2,1.9c0.6,1.2,0.9,2.6,0.9,4v27.7
		c0,2.4,0.2,6,0.7,10.8c0.5,4.8,0.7,8.4,0.7,10.8c0,5,2.2,7.5,6.5,7.5c4.8,0,7.3-18.3,7.3-54.8v-5.7l0-1.7c0-0.8,0.2-1.4,0.5-1.8
		c0.4-0.4,1-0.6,1.9-0.6c0.9,0,1.6,0.1,2.1,0.4c0.4,0.3,0.7,0.7,0.9,1.2c0.3,0.8,0.4,1.9,0.4,3.3l-0.7,10.2L141.8,698.7z"/>
	<path d="M154,710l-0.1,11c0,9,0.6,16.1,1.9,21.2l-1.1,2.7h-2.8l-1.3-1.5c0.1-3.1,0.1-6.5,0.1-10.3c0-3.8-0.3-11.9-0.9-24.4
		c-0.6-12.4-0.9-21.7-0.9-27.9c0-3.2,1.1-4.8,3.4-4.8c3.5,0,6.5,0.9,9,2.8c2.4,1.9,3.6,4.5,3.6,8v7.2c0,2-0.4,3.7-1.1,5.3
		c-0.7,1.6-1.6,3.3-2.5,5.1c-1,1.8-1.5,2.8-1.6,3c0.4,1.7,1,4.9,1.9,9.8c2,10.6,4.2,18.2,6.6,22.8c0.7,1.3,1,2.4,1,3.1
		c0,0.7-0.2,1.4-0.6,1.9c-0.4,0.5-1,0.8-1.7,0.8c-1.4,0-2.8-1.6-4.1-4.9c-1.3-3.3-2.4-6.9-3.2-10.9c-2.4-12.2-3.9-18.9-4.4-20.1H154
		z M154.4,680l-0.3,1.4c0,2.8,0.1,6.8,0.2,12.1c0.1,5.3,0.2,9.1,0.2,11.5c1.6-0.8,2.9-3,3.9-6.5c1-3.5,1.5-6.2,1.5-8
		c0-1.9,0-3.2-0.1-4.1s-0.3-1.8-0.6-2.9C158.4,681.2,156.8,680.1,154.4,680z"/>
	<path d="M175.1,692.7l-0.5-8.6c0-4.8,1.4-7.2,4.3-7.2c1.8,0,4.3,0.4,7.5,1.3c3.2,0.8,4.7,1.9,4.7,3.3c0,1.4-1,2.5-3,3.2
		c-3.2-1.1-5.7-1.7-7.7-1.9c0.1,1.5,0.1,2.9,0.1,4.4l-0.4,14.6c0,0.1,0.1,0.6,0.3,1.6l3.6-0.1c3.3,0,4.9,0.9,4.9,2.8
		c0,0.7-0.3,1.4-0.9,1.9s-1.4,0.8-2.3,0.8c-0.9,0-1.9-0.1-3-0.2h-2.6c0.2,2.6,0.3,5.2,0.3,7.7l-0.4,18.5c0,3.8,0.1,5.7,0.2,5.7
		l7.5-0.2c2.6,0,3.9,0.8,3.9,2.5c0,1-0.4,1.8-1.3,2.2c-0.9,0.5-1.9,0.7-3,0.7h-8.6c-0.9,0-1.7-0.3-2.4-0.9c-0.7-0.6-1.1-1.4-1.1-2.2
		v-2.7l-0.6-17.2L175.1,692.7z"/>
	<path d="M197.1,731.4l0.3-32.1c0-2.2-0.2-5.5-0.6-10c-0.4-4.5-0.6-7.4-0.6-8.6c0-1.2,0.4-2.2,1.1-2.9c0.8-0.7,1.6-1,2.4-1
		c7,0,12.7,4.1,17.1,12.3c2.5,4.7,3.8,9.6,3.8,14.8l-0.2,5.1v5.6c0,6.8-0.3,11.4-0.9,13.7c-0.6,2.3-1.3,4.2-1.9,5.7
		c-0.7,1.5-1.5,2.9-2.4,4.1c-2.2,2.7-4.9,4.9-8.2,6.6h-7.4C198,744.7,197.1,740.3,197.1,731.4z M204.2,737.1v2.4
		c5.9,0,9.5-6,10.6-17.9c0.3-2.8,0.4-5.4,0.4-8c0-20.5-3.9-31.2-11.8-32.1c-0.5,2.7-0.7,6.4-0.7,11.1c0,4.7,0.3,12,0.8,22
		C204,724.6,204.2,732.1,204.2,737.1z"/>
	<path d="M239.8,717.3l-0.7-41.4v-0.6c0-3.6,0.6-6,1.7-7c0.6-0.5,1.3-0.7,2.1-0.7c4.8,0,8.6,1.6,11.3,4.7c2.7,3.1,4.1,7.1,4.1,12
		c0,3.1-0.8,6.3-2.4,9.6c-1.6,3.3-3.6,5.8-5.8,7.4c4.1,2.8,7.1,6.3,8.9,10.6c1.8,4.3,2.7,8.8,2.7,13.5c0,2.5-0.6,5-1.9,7.7
		c-1.2,2.6-2.5,4.7-3.7,6.3s-2.9,2.9-4.9,3.9c-2,1.1-4.2,1.6-6.7,1.6h-0.4c-3.2,0-4.8-0.8-4.8-2.5L239.8,717.3z M246.1,673.4
		c-1,0-1.4,1.2-1.4,3.7s0.1,6.3,0.2,11.5c0.1,5.2,0.2,9,0.2,11.4c1.8-0.4,3.3-1.9,4.5-4.4c1-2.1,1.9-4.2,2.5-6.1
		c0.7-2,1.1-3.2,1.3-3.7v-3.6c0-2-0.7-3.9-2.2-5.8C249.7,674.4,248,673.4,246.1,673.4z M253.5,735c1.9-2.6,2.9-5.6,2.9-9
		s-0.3-6.4-0.8-8.9c-0.6-2.6-1.2-4.5-1.9-5.8c-0.7-1.3-1.5-2.4-2.4-3.4c-1.1-1.1-2-1.8-2.7-2H245c0.3,9.4,0.5,20.6,0.5,33.8
		C248.9,739.1,251.6,737.5,253.5,735z"/>
	<path d="M291.9,698.7l0.1,1.7c0,30.1-4.4,45.2-13.1,45.2c-3.4,0-5.9-1.3-7.5-4.1c-1.7-2.9-2.7-5.7-3.1-8.5c-0.6-4.3-0.9-9.3-1-14.9
		c-0.1-5.6-0.1-13.7-0.1-24.4l-0.4-14.6c0.6-1.4,1.4-2.1,2.2-2.1c0.8,0,1.5,0.6,2.2,1.9c0.6,1.2,0.9,2.6,0.9,4v27.7
		c0,2.4,0.2,6,0.7,10.8c0.5,4.8,0.7,8.4,0.7,10.8c0,5,2.2,7.5,6.5,7.5c4.8,0,7.3-18.3,7.3-54.8v-5.7l0-1.7c0-0.8,0.2-1.4,0.5-1.8
		c0.4-0.4,1-0.6,1.9-0.6s1.6,0.1,2.1,0.4c0.4,0.3,0.7,0.7,0.9,1.2c0.3,0.8,0.4,1.9,0.4,3.3l-0.7,10.2L291.9,698.7z"/>
	<path d="M308.8,742.5l-0.2-7.8c0,0,0-1.2,0.1-3.5c-0.3-0.9-0.8-8.5-1.6-23c-0.8-14.5-1.3-23.3-1.3-26.5c-0.1,0-0.3,0-0.4,0
		c-5.5-0.1-8.3-1.1-8.3-3c0-0.6,0.4-1.2,1.1-1.6c0.7-0.4,1.4-0.6,2.1-0.6l13.8,0.9l1.6,0c2.1,0,3.2,0.8,3.2,2.4c0,0.8-0.3,1.5-1,2
		c-0.7,0.5-1.5,0.8-2.3,0.8l-4.7-0.7l-0.2,1c0,6.4,0.6,16.1,1.7,28.9c1.1,12.8,1.7,22.5,1.7,29c0,0.8-0.4,1.5-1.1,2.1
		c-0.7,0.6-1.5,0.9-2.4,0.9L308.8,742.5z"/>
	<path d="M333.3,742.5l-0.2-7.8c0,0,0-1.2,0.1-3.5c-0.3-0.9-0.8-8.5-1.6-23c-0.8-14.5-1.3-23.3-1.3-26.5c-0.1,0-0.3,0-0.4,0
		c-5.5-0.1-8.3-1.1-8.3-3c0-0.6,0.4-1.2,1.1-1.6s1.4-0.6,2.1-0.6l13.8,0.9l1.6,0c2.1,0,3.2,0.8,3.2,2.4c0,0.8-0.3,1.5-1,2
		c-0.7,0.5-1.5,0.8-2.3,0.8l-4.7-0.7l-0.2,1c0,6.4,0.6,16.1,1.7,28.9c1.1,12.8,1.7,22.5,1.7,29c0,0.8-0.4,1.5-1.1,2.1
		c-0.7,0.6-1.5,0.9-2.4,0.9L333.3,742.5z"/>
	<path d="M349.3,692.7l-0.5-8.6c0-4.8,1.4-7.2,4.3-7.2c1.8,0,4.3,0.4,7.5,1.3s4.7,1.9,4.7,3.3c0,1.4-1,2.5-3,3.2
		c-3.2-1.1-5.7-1.7-7.7-1.9c0.1,1.5,0.1,2.9,0.1,4.4l-0.4,14.6c0,0.1,0.1,0.6,0.3,1.6l3.6-0.1c3.3,0,4.9,0.9,4.9,2.8
		c0,0.7-0.3,1.4-0.9,1.9c-0.6,0.5-1.4,0.8-2.3,0.8c-0.9,0-1.9-0.1-3-0.2h-2.6c0.2,2.6,0.3,5.2,0.3,7.7l-0.4,18.5
		c0,3.8,0.1,5.7,0.2,5.7l7.5-0.2c2.6,0,3.9,0.8,3.9,2.5c0,1-0.4,1.8-1.3,2.2c-0.9,0.5-1.9,0.7-3,0.7h-8.6c-0.9,0-1.7-0.3-2.4-0.9
		c-0.7-0.6-1.1-1.4-1.1-2.2v-2.7l-0.6-17.2L349.3,692.7z"/>
	<path d="M375.9,710l-0.1,11c0,9,0.6,16.1,1.9,21.2l-1.1,2.7h-2.8l-1.3-1.5c0.1-3.1,0.1-6.5,0.1-10.3c0-3.8-0.3-11.9-0.9-24.4
		c-0.6-12.4-0.9-21.7-0.9-27.9c0-3.2,1.1-4.8,3.4-4.8c3.5,0,6.5,0.9,9,2.8s3.6,4.5,3.6,8v7.2c0,2-0.4,3.7-1.1,5.3
		c-0.7,1.6-1.6,3.3-2.5,5.1s-1.5,2.8-1.6,3c0.4,1.7,1,4.9,1.9,9.8c2,10.6,4.2,18.2,6.6,22.8c0.7,1.3,1,2.4,1,3.1
		c0,0.7-0.2,1.4-0.6,1.9c-0.4,0.5-1,0.8-1.7,0.8c-1.4,0-2.8-1.6-4.1-4.9c-1.3-3.3-2.4-6.9-3.2-10.9c-2.4-12.2-3.9-18.9-4.4-20.1
		H375.9z M376.3,680l-0.3,1.4c0,2.8,0.1,6.8,0.2,12.1c0.1,5.3,0.2,9.1,0.2,11.5c1.6-0.8,2.9-3,3.9-6.5c1-3.5,1.5-6.2,1.5-8
		c0-1.9,0-3.2-0.1-4.1c-0.1-0.9-0.3-1.8-0.6-2.9C380.2,681.2,378.7,680.1,376.3,680z"/>
	<path d="M433.7,743.1l0-13c0-3-0.2-7.4-0.7-13.3c-0.5-5.8-0.7-9.8-0.7-11.8c0-2,0.1-4.4,0.2-7.2c0.1-2.8,0.2-4.9,0.2-6.3
		c-0.3,0.9-1.4,5.6-3.4,14.1c-5.2,22-8.9,32.9-11.1,32.9c-1.3,0-2.4-0.4-3.1-1.2s-1.1-1.9-1.1-3.2c0-3.2-1.3-9.8-3.8-19.9
		c-2.5-10-4.7-17.7-6.4-23.1c-1.3,23.9-1.9,40.1-1.9,48.6l0.1,3c0,1.1-0.2,1.9-0.7,2.5c-0.5,0.6-1.2,0.9-2.2,0.9
		c-1,0-1.8-0.2-2.4-0.7c-0.6-0.5-0.9-1.1-0.9-1.7c0-6.9,0.5-17.3,1.6-31.1c1-13.8,1.6-24.2,1.6-31.1c-0.4-0.6-0.6-1.3-0.6-2.1
		c0-0.8,0.4-1.4,1.2-1.8c0.8-0.4,1.7-0.6,2.7-0.6c1.5,0,4.3,6.8,8.7,20.5c4.3,13.6,7,23.1,8,28.3c0.3-1,0.9-3.5,1.9-7.5
		c0.9-4,1.9-8.2,3-12.6c1.1-4.4,2.2-8.8,3.5-13.2c2.9-10.2,5.3-15.3,7.3-15.3c0.9,0,1.7,0.2,2.5,0.7c0.8,0.5,1.2,1.2,1.2,2
		c0,4.9,0.2,12.2,0.6,22c0.4,9.8,0.6,16.8,0.6,21.2l-0.2,10.7v0c0,0.8,0.2,3.2,0.6,7.3l0.2,2c0.3,0.7,0.4,1.5,0.4,2.3
		c0,0.8-0.3,1.7-0.9,2.6s-1.5,1.4-2.5,1.4C434.8,749.4,433.7,747.3,433.7,743.1z"/>
	<path d="M457.3,710.2l0.5,21.6v3l0,2.8h1.3l2.9-0.1c2.8,0,4.2,0.8,4.2,2.5c0,0.9-0.3,1.6-1,2.2s-1.5,0.9-2.4,0.9h-4.5
		c-3.1,0-5.1-0.1-5.9-0.2c-0.5,0.1-0.9,0.1-1.2,0.1c-2.4,0-3.6-0.8-3.6-2.3c0-0.6,0.2-1.2,0.6-1.8c0.4-0.6,0.8-0.9,1.2-0.9h2.9
		l0.2-1.3l-0.7-21.6l0.5-22.7c0-3.9-0.2-7.5-0.5-10.9h-1.9l-2.3,0.1c-1,0-1.8-0.2-2.3-0.6c-0.6-0.4-0.8-1.1-0.8-2.2
		c0-1.6,1.7-2.3,5-2.3h12.1c2.8,0,4.1,0.7,4.1,2.1c0,0.6-0.3,1.2-0.9,1.7c-0.6,0.5-1.3,0.8-2,0.8h-5.2c0.3,2.8,0.4,5.9,0.4,9.5
		L457.3,710.2z"/>
	<path d="M477.4,687l0.3,24.5c-0.4,0.9-0.6,2.1-0.6,3.5v2l-0.4,16.2c0,4.7,1.1,7,3.4,7l4.2-0.1c3.6,0,5.5,1,5.5,3
		c0,0.7-0.3,1.3-0.9,1.8c-0.6,0.5-1.3,0.8-2.1,0.9c-2.5-0.8-5.5-1.2-9.1-1.2c-1.1,0.6-2.1,0.9-3.2,0.9c-1,0-1.8-0.3-2.4-1
		c-0.6-0.7-0.8-1.5-0.8-2.3c0-5,0.2-12.6,0.6-22.8c0.4-10.1,0.6-17.7,0.6-22.8v-0.7c-0.4-4.2-0.6-7.4-0.6-9.6c0-6.4,1.2-9.7,3.5-9.7
		c0.7,0,1.3,0.2,1.8,0.7c0.5,0.5,0.8,1.1,0.8,1.8L477.4,687z"/>
	<path d="M508.7,698.4l-0.2,6.1c0,2.9,1.2,8.4,3.5,16.4c2.3,8,4.3,13.3,5.8,15.9c0.2,0.3,0.6,0.9,1.3,1.8s1.2,1.7,1.5,2.4
		s0.5,1.4,0.5,2.2c0,0.8-0.3,1.4-0.9,1.9c-0.6,0.5-1.3,0.8-2,0.8c-1.6,0-3.3-1.7-5-5c-1.7-3.4-3.3-7.5-4.6-12.4
		c-2.3-8.3-4-15.6-5.1-21.7c-2.5,4.9-3.7,10.8-3.7,17.7v18.9c0,1.6-0.7,2.4-2.1,2.4c-1,0-1.8-0.3-2.5-0.9c-0.6-0.6-0.9-1.4-0.9-2.4
		v-30.9c0-3.7,0.3-9.2,1-16.5c0.6-7.3,1-12.8,1-16.4c0.6-1.3,1.5-1.9,2.6-1.9s2,0.3,2.6,0.9c0.6,0.6,0.9,1.4,0.9,2.2v0.3
		c-0.9,1.6-1.3,7.7-1.3,18.6v3.6c0.1-0.2,1.3-2.7,3.7-7.5c5.8-11.7,9.4-17.5,10.7-17.5c1,0,1.9,0.2,2.7,0.7c0.8,0.5,1.2,1.1,1.2,2
		c0,0.1-0.8,1.4-2.4,4.1C512.2,692.3,509.3,697,508.7,698.4z"/>
</g>
<g>
	<path d="M15,835.3l0.2-27c0-4.7-0.3-10.2-1-16.4s-1-10.3-1-12.2c0-1.9,0.4-3.3,1.1-4.2c0.8-0.9,1.7-1.4,2.9-1.4
		c3.5,0,5.3,3.8,5.3,11.5c0,0-0.2,9.8-0.6,29.3c0.3-0.8,1.2-3.1,2.7-7c1.5-3.8,3-7.7,4.6-11.6c1.6-3.8,3.3-7.9,5.1-12
		c4.1-9.4,7-14,8.9-14c1.1,0,2,0.4,2.8,1.1c0.8,0.7,1.2,1.6,1.2,2.6c0,1-2.6,6.9-7.8,17.8c-5.2,10.8-8.1,17.7-8.7,20.7v2.5
		c1.4,3.5,5.2,15,11.4,34.6c6.2,19.5,9.3,29.9,9.3,31c0,1.2-0.5,2.2-1.4,3c-0.9,0.8-2,1.2-3.1,1.2l-3.3-0.6
		c-2.4-13.5-4.8-25.3-7.4-35.3c-2.5-10-5.9-19.6-10-28.7c-2.8,5.1-4.3,8.1-4.4,9.2c-0.3,2.9-0.4,5.1-0.4,6.8l0.9,26.4v11.7
		c0,5.1-1.6,7.6-4.9,7.6c-2.8,0-4.2-2.4-4.2-7.2s0.3-11.5,0.9-20C14.7,846,15,839.6,15,835.3z"/>
	<path d="M73.8,829l-3.5-0.1c-1.4,0-2.4,0.3-2.9,1v43.9c4.9-0.3,7.5-0.4,7.9-0.4c5.4,0,8.1,1.3,8.1,3.8v0.5c-0.6,1.3-1.8,2.3-3.3,3
		c-1.6,0.7-3,1.1-4.2,1.2c-1.2,0.1-2.8,0.1-4.7,0.1h-4.5c-3.5,0-5.7-0.7-6.5-2.1c-0.4-0.6-0.6-1.5-0.6-2.6v-82.7c0-1.6-0.3-4-1-7.2
		c-0.6-3.2-1-5.6-1-7.3v-0.5c1.6-2.6,2.8-4.3,3.5-5l10.6-1.3c1.4,0,2.9,0.4,4.3,1.3c1.5,0.9,2.2,2,2.2,3.4c0,2.8-2.2,4.2-6.5,4.2
		l-4.1-0.1c-0.7,0-1.2,0-1.5,0.1l1.1,23.5c0,1.9-0.1,4.7-0.3,8.3c-0.2,3.6-0.3,6.3-0.3,8c0.5-0.1,1.2-0.3,2.1-0.5
		c1.9-0.5,3.5-0.8,4.6-0.8c1.1,0,2.1,0.4,2.9,1.2c0.9,0.8,1.3,1.7,1.3,2.9s-0.3,2.1-1,3C75.8,828.6,74.9,829,73.8,829z"/>
	<path d="M101.2,874.6l-0.3,0.9c0.2,0.6,0.3,1.3,0.3,2.2c0,0.9-0.4,1.7-1.3,2.5c-0.9,0.7-2,1.1-3.5,1.1c-2.7,0-4.1-3-4.1-9.1
		c0-9-0.5-26.1-1.4-51.2c-1-25.1-1.9-38.4-2.9-39.9c0-4.9,3.4-7.5,10.1-7.9c1,0,2.4-0.1,4.1-0.1s3.1,0.3,4.1,1c1,0.7,1.5,2,1.5,4
		s-1.3,3-4,3l-3.5-0.1c-2.6,0-4,0.5-4,1.6c0,4.4,0.3,10.9,1,19.4c0.7,8.5,1.1,14.8,1.1,18.9c0.6-0.1,1.4-0.3,2.4-0.6
		c2.4-0.6,4.2-1,5.4-1c1.2,0,2.1,0.5,2.9,1.4c0.8,0.9,1.1,1.9,1.1,3c0,3.1-3.9,4.7-11.8,4.7c0,5.1,0.5,12.9,1.4,23.2
		C100.7,861.7,101.2,869.5,101.2,874.6z"/>
	<path d="M133.3,780.9l-2.5-0.1c-0.9,0-1.6,0.2-2.1,0.6c-0.4,0.4-0.7,1.2-0.7,2.3c0,9.3,0.6,23.2,1.7,41.7
		c1.2,18.5,1.7,32.4,1.7,41.6v5.5c1-0.1,1.9-0.2,2.9-0.2c3.9,0,5.9,1.7,5.9,5v0.8l-3.5,2.4l-9.7,0.3c-8.2,0-12.3-1.4-12.3-4.2
		c0-2.3,1.4-3.4,4.3-3.4l3,0.2c1.4,0,2.1-1.1,2.1-3.3c0-7.3-0.4-18.3-1.3-32.9c-0.9-14.6-1.3-25.6-1.3-32.9l0.3-14.5
		c0-3.1-0.1-5.7-0.3-7.9c-1.3,0.4-2.4,0.6-3.3,0.6c-2.2,0-3.3-1.1-3.3-3.4c0-1.2,0.7-2.2,2.2-3c1.4-0.9,3.2-1.5,5.4-1.8
		c4-0.7,6.9-1,8.9-1c1.9,0,3.3,0.4,4.1,1.1c0.8,0.8,1.3,1.7,1.3,2.7s-0.3,1.9-0.9,2.7S134.3,780.9,133.3,780.9z"/>
	<path d="M147.9,877l0.6-83.5V776c0-1.1,0.2-1.9,0.7-2.4c0.5-0.5,1.7-0.7,3.7-0.7c2,0,4,0.5,6,1.4c2,1,3.7,2.2,5.1,3.8
		c1.3,1.7,2.5,3.5,3.5,5.6c1.9,3.9,2.8,8.2,2.8,12.9c0,4.6-1.2,9.9-3.5,15.9c-0.3,0.7-0.8,2-1.7,4.1s-1.3,3.3-1.5,3.7
		c0,7,1.8,16.2,5.4,27.5c1.2,3.8,2.9,9,5.1,15.6c2.2,6.6,3.6,10.8,4.2,12.6v0.3c0,3.2-0.4,5.1-1.1,5.6c-0.7,0.5-1.5,0.8-2.4,0.8
		c-1.8,0-3.5-1.3-5.1-3.8v-0.5c-0.5-8.6-3.4-21.7-8.9-39.1c-2.5-8-4.2-13.9-5.2-17.7v56.1c0,1.4-0.3,2.5-0.8,3.3
		c-0.5,0.8-1.4,1.2-2.8,1.2c-1.3,0-2.4-0.4-3-1.1c-0.7-0.8-1-1.7-1-2.8V877z M155.7,779.5l-0.8,29.1c0,2.9,0,5.1,0.1,6.5
		c1.6-1.5,3.2-3.4,4.8-5.5l2.2-12.3c0.1-0.6,0.2-1.4,0.2-2.2c0-2.3-0.5-5-1.4-8.3C159.6,782.3,157.9,779.9,155.7,779.5z"/>
	<path d="M235.9,835.3l0.2-27c0-4.7-0.3-10.2-1-16.4s-1-10.3-1-12.2c0-1.9,0.4-3.3,1.1-4.2c0.8-0.9,1.7-1.4,2.9-1.4
		c3.5,0,5.3,3.8,5.3,11.5c0,0-0.2,9.8-0.6,29.3c0.3-0.8,1.2-3.1,2.7-7c1.5-3.8,3-7.7,4.6-11.6c1.6-3.8,3.3-7.9,5.1-12
		c4.1-9.4,7-14,8.9-14c1.1,0,2,0.4,2.8,1.1c0.8,0.7,1.2,1.6,1.2,2.6c0,1-2.6,6.9-7.8,17.8c-5.2,10.8-8.1,17.7-8.7,20.7v2.5
		c1.4,3.5,5.2,15,11.4,34.6c6.2,19.5,9.3,29.9,9.3,31c0,1.2-0.5,2.2-1.4,3c-0.9,0.8-2,1.2-3.1,1.2l-3.3-0.6
		c-2.4-13.5-4.8-25.3-7.4-35.3c-2.5-10-5.9-19.6-10-28.7c-2.8,5.1-4.3,8.1-4.4,9.2c-0.3,2.9-0.4,5.1-0.4,6.8l0.9,26.4v11.7
		c0,5.1-1.6,7.6-4.9,7.6c-2.8,0-4.2-2.4-4.2-7.2s0.3-11.5,0.9-20C235.6,846,235.9,839.6,235.9,835.3z"/>
	<path d="M311.3,838.2l-1.3,18v0.6c-0.6,2.6-0.9,5.5-0.9,8.6c0,3.1-0.5,6-1.6,8.9c-1.1,2.9-2.7,5.4-4.9,7.6s-4.6,3.3-7.2,3.3
		c-2.6,0-5-0.9-7.1-2.6c-2.1-1.8-3.9-4-5.3-6.8s-2.6-6-3.7-9.9s-1.9-7.6-2.5-11.2c-0.6-3.6-1.1-7.5-1.4-11.5
		c-0.6-6.2-0.8-11-0.8-14.4c0-3.4,0-6.3,0-8.8c0-2.4-0.1-4.6-0.1-6.6c0-1,0-2.1,0-3.2c0-1.2,0-2.4,0-3.8c0-2.7,0.1-5.2,0.2-7.4
		c0.1-2.2,0.3-4.5,0.6-7.1c0.3-2.5,0.7-4.8,1.1-6.7c0.5-1.9,1.1-3.8,1.9-5.7c0.8-1.9,1.8-3.5,2.8-4.7c2.3-2.7,5-4,8-4
		c3,0,5.6,0.5,7.7,1.6c2.1,1.1,3.9,2.8,5.4,5.2c1.5,2.4,2.7,4.8,3.8,7c1.1,2.3,1.9,5.4,2.6,9.5c0.6,4.1,1.1,7.3,1.5,9.8
		c0.4,2.5,0.6,6.2,0.8,10.9c0.2,6.4,0.3,11.3,0.3,14.9V838.2z M298.7,786.1c-1-2.4-2.1-4.3-3.5-5.6c-1.4-1.3-2.8-2-4.2-2
		s-2.5,0.5-3.4,1.5s-1.7,2.4-2.3,4.1c-0.6,1.8-1.2,3.7-1.7,5.7c-0.5,2-0.9,4.4-1.1,7.1c-0.3,2.7-0.5,5.1-0.7,7.3
		c-0.1,2.1-0.3,4.5-0.3,7.1c-0.1,4.3-0.2,7.7-0.2,10.1v0.6c0,6.4,0.5,13.2,1.5,20.5c1,7.3,2,13.4,3,18c1,4.7,2.4,8.7,4.2,11.9
		c1.8,3.3,3.7,4.9,5.9,4.9c1.9,0,3.5-1.8,4.8-5.4c1.3-3.6,2.2-8.1,2.8-13.3c0.9-9.5,1.4-16.1,1.4-19.9c0-3.8,0-6.6,0-8.4
		c0-1.8-0.1-4.3-0.2-7.7c-0.1-3.4-0.3-6.5-0.6-9.5c-0.3-2.9-0.6-6.2-1.1-9.8c-0.4-3.6-1-6.7-1.7-9.5
		C300.5,791.1,299.7,788.5,298.7,786.1z"/>
	<path d="M319.7,803.7l0.1-22.3c-0.7-0.8-1-1.8-1-2.9c0-1.2,0.4-2.2,1.2-3.1c0.8-0.9,1.8-1.3,2.9-1.3c3.4,0,5.1,3.4,5.1,10.2
		l1.3,49.5c0.6,1.3,1,3.8,1.4,7.6c0.4,3.8,0.6,6.8,0.6,8.9c0,2.1,0.3,4.7,1,7.8c0.7,3.1,1.6,6.2,2.8,9.4c1.2,3.2,2.8,5.8,4.8,8.1
		c2,2.2,3.9,3.3,5.7,3.3c1.8,0,3.2-0.4,4-1.3c0.9-0.9,1.5-2.1,1.8-3.7c0.5-2.5,0.8-5.1,0.8-7.9v-27.8c0-3-0.3-7.5-0.9-13.4
		c-0.6-5.9-0.9-10.4-0.9-13.4v-1l-0.3-8.3l-1-24.4c0-1.2,0.6-2.1,1.7-2.8c1.2-0.7,2.4-1.1,3.6-1.1l3.5,3.3v2.4l-1,8.7
		c0,7.9,0.4,19.9,1.3,35.8s1.3,26.7,1.3,32.4c0,5.6-0.1,9.4-0.2,11.3c-0.2,1.9-0.5,3.9-1.1,6c-0.6,2.1-1.3,3.9-2.3,5.3
		c-2.3,3.2-5.7,4.9-10.4,4.9c-5.8,0-10.5-2.5-14-7.6c-3.7-5.4-6.3-11.8-7.8-19.3c-1.8-8.9-2.8-16.6-3.2-23.3
		C319.9,823.5,319.7,813.5,319.7,803.7z"/>
	<path d="M370.4,848.9l-0.5-55.1c0-6.2,0.1-12.3,0.2-18.4l4-2.2c2.8,0.2,6,7.7,9.7,22.7c2.9,12.2,5.3,23.1,7.1,32.9s2.8,15,3,15.8
		c0.6-3.1,1.9-8.5,3.6-16.4c1.8-7.9,3.1-14,4-18.4c2.6-12.7,4.2-24.1,4.8-34v-0.8c0.2-1.2,0.8-2.2,1.7-2.9c1-0.7,2-1.1,3.1-1.1
		c1.1,0,1.9,0.4,2.6,1.1s1,1.6,1,2.5c0,11.4,0.4,28.4,1.3,51c0.9,22.7,1.3,39.7,1.3,51c0,2.3-0.6,4.2-1.8,5.9
		c-1.2,1.7-2.4,2.5-3.5,2.5c-2.3,0-3.5-1.9-3.5-5.6l-0.6-59.9v-7.2c-0.6,3.7-2.1,10.1-4.4,19.2c-2.3,9.2-3.7,16.2-4.4,21v0.9
		c-0.1,0.4-0.2,1.3-0.4,2.6c-0.2,1.4-0.4,2.5-0.6,3.4c-0.2,0.9-0.5,1.9-0.9,3c-0.9,2.2-2.3,3.3-4.4,3.3c-3.4,0-5.1-4.4-5.1-13.3
		c0-8.8-2.1-21-6.4-36.8c-2.1-7.9-3.5-13.2-4.1-16c-0.2,7.6-0.3,13.3-0.3,17.2l1.2,58.5c0,2-0.7,3.8-2.2,5.4c-2.5,0-4.1-0.8-5-2.4
		c-0.9-1.6-1.3-3.7-1.3-6.4L370.4,848.9z"/>
	<path d="M442.9,780.9l-2.5-0.1c-0.9,0-1.6,0.2-2.1,0.6c-0.4,0.4-0.7,1.2-0.7,2.3c0,9.3,0.6,23.2,1.7,41.7
		c1.2,18.5,1.7,32.4,1.7,41.6v5.5c1-0.1,1.9-0.2,2.9-0.2c3.9,0,5.9,1.7,5.9,5v0.8l-3.5,2.4l-9.7,0.3c-8.2,0-12.3-1.4-12.3-4.2
		c0-2.3,1.4-3.4,4.3-3.4l3,0.2c1.4,0,2.1-1.1,2.1-3.3c0-7.3-0.4-18.3-1.3-32.9c-0.9-14.6-1.3-25.6-1.3-32.9l0.3-14.5
		c0-3.1-0.1-5.7-0.3-7.9c-1.3,0.4-2.4,0.6-3.3,0.6c-2.2,0-3.3-1.1-3.3-3.4c0-1.2,0.7-2.2,2.2-3s3.2-1.5,5.4-1.8c4-0.7,6.9-1,8.9-1
		c1.9,0,3.3,0.4,4.1,1.1c0.8,0.8,1.3,1.7,1.3,2.7s-0.3,1.9-0.9,2.7S443.9,780.9,442.9,780.9z"/>
	<path d="M454.6,879.5c0-2.5,1.1-3.8,3.2-3.8c1.1,0,2.5,0.4,4.2,1.1s3.2,1.1,4.5,1.1c1.3,0,2.7-0.8,4.1-2.4c1.5-1.6,2.6-3.6,3.5-6
		c1.7-4.9,2.6-9.4,2.6-13.3c0-4-0.7-8.2-2.1-12.8c-1.4-4.5-3.1-8.8-5.1-12.8c-2-4-4-8-6-12c-4.8-9.5-7.2-18.2-7.2-26
		c0-7.4,2.3-13.2,7-17.5c2.5-2.2,5.4-3.3,8.8-3.3c1.7,0,3.4,0.5,5,1.4c1.6,1,2.8,2.2,3.4,3.7l-2.4,3.1c-2.4,0-4.2-0.5-5.6-1.4
		c-1.8,0.2-3.3,1-4.6,2.5c-2.4,2.7-3.5,6.1-3.5,10.1c0,4,0.5,7.9,1.5,11.7c1,3.8,2.3,7.2,3.8,10.2c1.5,3,3.2,6.3,4.9,9.8
		c1.8,3.5,3.5,6.9,5,10.2c3.6,7.5,5.4,15.6,5.4,24.3c0,6.1-1.5,12-4.7,17.7c-1.5,2.7-3.5,4.9-6.1,6.6c-2.6,1.7-5.5,2.6-8.7,2.6
		c-3.4,0-6.1-0.5-8.1-1.5C455.6,881.8,454.6,880.7,454.6,879.5z"/>
	<path d="M491,879.5c0-2.5,1.1-3.8,3.2-3.8c1.1,0,2.5,0.4,4.2,1.1s3.2,1.1,4.5,1.1c1.3,0,2.7-0.8,4.1-2.4c1.5-1.6,2.6-3.6,3.5-6
		c1.7-4.9,2.6-9.4,2.6-13.3c0-4-0.7-8.2-2.1-12.8c-1.4-4.5-3.1-8.8-5.1-12.8c-2-4-4-8-6-12c-4.8-9.5-7.2-18.2-7.2-26
		c0-7.4,2.3-13.2,7-17.5c2.5-2.2,5.4-3.3,8.8-3.3c1.7,0,3.4,0.5,5,1.4c1.6,1,2.8,2.2,3.4,3.7l-2.4,3.1c-2.4,0-4.2-0.5-5.6-1.4
		c-1.8,0.2-3.3,1-4.6,2.5c-2.4,2.7-3.5,6.1-3.5,10.1c0,4,0.5,7.9,1.5,11.7c1,3.8,2.3,7.2,3.8,10.2c1.5,3,3.2,6.3,4.9,9.8
		c1.8,3.5,3.5,6.9,5,10.2c3.6,7.5,5.4,15.6,5.4,24.3c0,6.1-1.5,12-4.7,17.7c-1.5,2.7-3.5,4.9-6.1,6.6c-2.6,1.7-5.5,2.6-8.7,2.6
		c-3.4,0-6.1-0.5-8.1-1.5C492,881.8,491,880.7,491,879.5z"/>
</g>
<g>
	<path d="M211.3,832.3c5.2,0,9-0.4,11.5-1.3c1.9,0.4,2.9,1.3,2.9,2.7c0,1.9-1.8,2.8-5.3,2.8l-0.3,0h-2.5c0,10.8-1.4,18.1-4.2,21.8
		c2,2.1,4.2,3.1,6.5,3.1l4.1-0.3l1.9,1.5c0,1.4-0.5,2.3-1.4,2.7c-0.9,0.4-2.2,0.7-3.8,0.7c-3.1,0-6.3-1.3-9.9-3.8
		c-3.8,2.6-7.3,3.9-10.6,3.9c-3.2,0-6-0.9-8.2-2.6c-2.2-1.7-3.9-3.9-5.1-6.4c-1.2-2.6-1.7-4.9-1.7-7c0-2.1,0.1-4,0.3-5.7
		c0.2-1.6,0.4-3,0.5-4.2c0.2-1.2,0.5-2.6,1.1-4.3c0.6-1.7,1-2.9,1.3-3.6c0.3-0.8,0.9-2.1,1.8-4.1c1.2-2.5,2.6-5.2,4.1-8.2l-0.7-14
		v-8.5c0-2.5,0.6-4.3,1.8-5.5c1.2-1.2,2.9-1.8,5.1-1.8s4.4,0.9,6.6,2.7c2.2,1.8,3.3,4,3.3,6.4c0,4.1-0.7,7.8-2.1,11
		c-1.4,3.3-3.4,6.5-6.2,9.7c-0.1,0.3-0.4,0.7-0.9,1.4c-1.1,1.5-1.6,2.7-1.6,3.4c0,3,1.3,8.3,3.8,15.9c2.5,7.7,4.7,12.4,6.4,14.3
		c2.1-4.8,3.2-10.8,3.2-18v-0.4c-0.5,0-0.8-0.1-0.9-0.3c-0.1-0.2-0.2-0.3-0.3-0.4c0-0.1-0.1-0.2-0.2-0.5c-0.1-0.3-0.2-0.5-0.2-0.5
		V832.3z M195.4,827.6c-3.6,5.6-5.4,12.3-5.4,19.9c0,3.5,0.8,6.6,2.3,9.5c1.7,3.2,4.3,4.8,8,4.8c1.1,0,2.4-0.3,4-0.8
		c1.6-0.6,2.7-1.2,3.4-1.9C201.5,850,197.4,839.5,195.4,827.6z M198.3,802.7l0.1,13.7v1.1c1.7-2.2,3.4-4.7,5-7.7
		c1.6-3,2.4-5.2,2.4-6.7c0-1.5-0.5-3.3-1.6-5.3c-1.1-2-2.2-3-3.3-3c-1.1,0-2,0.8-2.7,2.5V802.7z"/>
</g>
</svg>
