<?xml version="1.0" encoding="utf-8"?>
<!-- Generator: Adobe Illustrator 18.0.0, SVG Export Plug-In . SVG Version: 6.00 Build 0)  -->
<!DOCTYPE svg PUBLIC "-//W3C//DTD SVG 1.1//EN" "http://www.w3.org/Graphics/SVG/1.1/DTD/svg11.dtd">
<svg version="1.1" id="Layer_1" xmlns="http://www.w3.org/2000/svg" xmlns:xlink="http://www.w3.org/1999/xlink" x="0px" y="0px"
	 viewBox="465.9 260.7 471.5 447.2" enable-background="new 465.9 260.7 471.5 447.2" xml:space="preserve">
<g>
	<path stroke="#000000" stroke-width="3" stroke-miterlimit="10" d="M712.2,571.2c-2.1,3.4-3.2,7.3-4.2,11.1
		c-1.5,5.6-4.1,10.6-8.6,14.5c-2.8,2.4-4.6,5.7-6.1,9.1c-3.5,8-7.6,15.8-13,22.8c-2.5,3.2-4.3,6.9-5.7,10.8c-1,2.8-2.8,4.9-5.6,6.1
		c-2.4,1-4.3,2.7-5.8,4.9c-3.2,4.5-6.8,8.6-10.9,12.3c-1.2,1.1-2.5,2.2-3.2,3.7c-2.3,5-7,7.5-10.9,10.9c-1.3,1.2-3,1.5-4.6,0.8
		c-1.8-0.8-3.8-0.7-5.7-0.8c-0.7-0.1-1.4-0.1-1.9,0.6c-2.1,3.1-5.2,2.7-8.3,2.3c-0.8-0.1-1.7-0.5-2.3,0.3c-1.9,2.6-4.2,2-6.5,0.6
		c-0.8,3-1.9,3.6-4.8,2.4c-1.5-0.6-2.1-0.1-3.5,0.7c-3,1.8-5.5,4.5-8.6,5.5c-3.1,1-4.1,2.9-5.1,5.2c-0.4,0.9-0.5,2.3-1.8,2.1
		c-1.1-0.1-1-1.4-1.1-2.3c-0.2-1.5-1.1-1.1-2-0.8c-2.5,0.9-5.3,1.3-7.4,2.7c-4.1,2.8-9.3,2.6-13.4,5.5c-1.8,1.3-1-1.5-1.5-2.8
		c-1.3,2.7-3,3.6-5.8,2.2c-1.8-0.9-3.3,0.4-4.7,1.5c-1.4,1.1-2.9,1.8-4.8,1.6c-0.6-0.1-1.3-0.2-1.4-0.9c-0.1-0.6,0.4-0.9,0.8-1.2
		c1.1-0.7,2.3-1.3,2.9-2.9c-0.7,0.3-1.1,0.4-1.6,0.6c-4.4,1.6-5.4,0.9-6.2-3.8c-0.4-2-2.3-3.7-0.5-6.5c-1.8,0.9-2.2,1.8-2.3,3
		c-0.2,2.7-0.9,5.3-3.2,7.1c-1.7,1.4,0.3,2.3,0.7,2.5c4.1,1.7,1.4,2.9-0.2,4.1c-0.2,0-0.4,0-0.6,0c-0.5-2.9-4.2-3.5-4.7-6.5
		c-0.1-0.4-1.1-0.4-1.7-0.3c-1.7,0.4-2.5-0.5-2.8-2c-0.3-1.5,0.5-2.2,2-2.5c1.2-0.3,2.8-0.6,0.8-2.4c-1.1-1-0.3-2.1,1.1-2.3
		c1-0.1,2,0,3-0.4c0-0.2,0-0.5-0.1-0.5c-2.3-0.8-4.6-0.3-6.5,1.6c-0.4,0.4-0.8,0.7-1.3,0.6c-0.8-0.2-0.9-0.8-0.8-1.4
		c0.3-1.6-0.3-1.9-1.8-1.7c-1.1,0.2-1.7-0.7-1.8-1.7c-0.1-1,0.7-1.4,1.5-1.7c1.1-0.4,2.2-0.1,3.3-0.1c1.1,0,2.1-0.7,2.2-1.7
		c0.1-1-1.1-1.1-1.9-1.1c-4.2-0.2-6.5-3.6-9.6-5.6c-2.1-1.4-2.9-1.2-3.6,1c-0.5,1.6-1.1,2.4-2.6,0.8c-0.4-0.4-0.9-1.5-1.6-0.2
		c-1.1,2-2,0.8-3.1-0.1c-1.3-1.1-1-1.9,0.1-3c1.4-1.4,1.4-8.8,0.1-11c-0.6-1-1.3-1.9-1.8-2.8c-1.2-2.2-1.2-4,0.9-5.9
		c3.2-2.9,5.3-6.2,4.3-11.2c-0.8-3.9,1.8-7.6,3.5-11.2c0.6-1.3,0.6-2.2,0.1-3.6c-1.3-3.9-3-7.6-4.6-11.3c-1.3-3-1.6-6.1-0.6-9.3
		c1.3-3.9,0.7-7.6-1.3-11.1c-3.4-5.9-2.4-12.1-1.4-18.4c0.7-4.5,2.2-8.3,5.3-11.7c1-1.1,1.8-2.9-1.2-3.1c-2.6-0.2-3.4-2.4-4.2-4.5
		c-0.2-0.5-0.1-1.3,0.3-1.3c2.3-0.2,3.6-1.4,4.3-3.6c0.2-0.7,1.4-0.7,2.2-0.4c0.9,0.4,1,1.1,0.9,2c-0.3,3.5,1.1,4.8,4.5,4.4
		c1.6-0.2,3.2-0.6,4.8-0.2c0.9,0.2,1.6,0.1,2-0.8c0.5-1.1,1.1-1.3,2.1-0.4c0.6,0.6,1.1,1.8,2.2,0.7c0.8-0.8,1.4-2,0.6-3
		c-1.9-2.3-1.2-4.6-0.3-7c0.3-0.8,0.7-1.3,1.5-1.1c1.9,0.5,2.2-0.8,2.7-2.1c0.9-2.5,2.1-4.4,5.3-4.7c1.8-0.1,2.7-2.4,3.3-4.1
		c-0.8-0.7-1.5-0.1-2.2-0.2c-0.9,0-1.7-0.2-1.9-1.2c-0.2-0.9,0.5-1.2,1.2-1.6c0.5-0.3,1-0.6,1.5-1c1.3-1,2.4-1.4,2.7,0.8
		c0.2,1.3,0.8,1.7,1.8,0.8c2.4-2.2,5.9-3.5,6.1-7.6c0-1.2,1.1-2.6,2.4-2.4c2.3,0.3,3.1-0.6,3.3-2.7c0-0.3,0.2-0.7,0.4-0.8
		c5.6-2.9,5-10.6,10.6-13.6c1.9-1,2.7-3.5,3.5-5.6c1.6-4.3,3.9-8,7.1-11.3c1.9-1.9,3.7-2.3,5.9-0.7c0.6,0.4,1.1,0.9,1.8,1.2
		c0.6,0.3,1.2,0.4,1.7-0.1c0.6-0.5,0.2-1.1-0.1-1.7c-0.5-1.1-1.1-2.2-1.7-3.2c-2.6,2.3-9.3,3.1-12,1.3c-1.3-0.8-1.6-2.1-1.4-3.5
		c0.2-1.6,1-3,2.6-3.4c1.2-0.3,2.4-0.3,3.6-0.3c1.7,0.1,2.6,0.9,1.5,2.6c-0.8,1.2-0.5,2.5,0.3,3c1,0.6,2.1-0.4,2.7-1.3
		c1.3-2,2.7-2.3,4.4-0.4c0.4,0.5,1,0.9,1.5,0.3c0.6-0.6,0.4-1.6-0.3-1.9c-4-2-3-5.5-2.7-8.8c0.2-2.4,0.2-4.9,0.1-7.3
		c-0.1-3.3-1.8-5.8-4.8-7.3c-2.4-1.2-4.7-2.4-6.6-4.4c-0.6-0.7-1.5-1-2.5-1.1c-5-0.4-7.7-3.5-9.1-7.9c-1-3.2-2.6-6.2-4-9.2
		c-3.3-6.6-3.7-13.2,0.4-19.7c3-4.9,2.3-12.8-1.5-17.3c-3.7-4.3-4.3-8.5-1.2-13.4c2-3.2,1.5-4.1-2.1-5.4c-2.1-0.8-2.9-2.4-2.2-4.4
		c0.9-2.7,0.7-5.1-0.2-7.7c-0.9-2.5,0-4.8,1.2-7c2.6-4.5,2.3-6.5-1.9-9.6c-3-2.2-5.2-4.8-6.1-8.5c-0.7-2.7-2.5-4.4-5.1-5.3
		c-2.2-0.8-4.5-1.4-6.7-2.1c-2.8-0.8-5-2.3-6.4-4.8c-1-1.8-2.5-3.2-4.4-4.1c-1.1-0.5-2.3-1.2-2.8-2.3c-1.6-3.1-3.8-5.8-7-7.4
		c-1.3-0.7-1.8-2-1.3-3.4c1-2.6,0-4.3-2-5.8c-0.9-0.7-2.3-1.5-1.5-2.9c0.8-1.4,2.3-0.9,3.6-0.8c1.4,0.1,2.4,2.3,3.7,1
		c1-1,0.2-2.7,0.2-4.1c0.1-3.2,1.7-5.4,4.5-6.1c3.1-0.8,7.4,1.4,8.9,4.6c0.9,2,1.6,4.2,2.3,6.3c1.7,5.2,5.5,9.5,6.8,15
		c0.3,1.2,1.3,1.1,2.2,1.3c2.8,0.8,5.9,0.7,7.9,3.5c0.2,0.3,1.1,0.6,1.4,0.4c2.9-1.6,6.5-1.8,8.5-4.9c2.6-4,3.9-4.1,7.4-0.9
		c2,1.9,4,3.3,6.7,4.1c2.6,0.7,3.7,3.3,5.5,5.3c1.7-3.2,3.7-5.9,4.4-9.3c0.3-1.8,1.4-3.3,3.2-3.8c4.2-1.1,4.9-4.4,5.2-8
		c0.1-1.6-0.1-3.3-0.4-4.9c-0.6-4.4-0.5-8.7,0.8-13c0.5-1.7,1.2-3.3,1.3-5c0.3-4.7,1.6-8.8,5.3-11.9c0.7-0.6,1.2-1.7,1.6-2.6
		c1.5-3.3,3.2-4.5,6.8-3.2c4.1,1.4,6.8,0.6,8.8-3.3c0.7-1.4,2.1-2.5,3.5-3.3c3.7-2,6.3-1.2,7.7,2.8c1,3,2.9,4.8,5.7,6
		c1.5,0.7,3,1.4,4.4,2.2c9.2,5.2,11.6,14.8,6.1,23.8c-0.6,1-1.4,2-2,3.1c-1.1,2-1.5,3.8,0.9,5.2c1.5,0.9,1.1,1.9,0.4,3.1
		c-1.1,1.7-2.8,2.6-4.2,4c-0.7,0.7-1.6,1.4,0.3,2c4,1.2,4.5,2.3,3.2,6.2c-0.8,2.4-2.2,4.6-2.4,7.2c-0.6,7,2.3,12.2,8.2,15.9
		c2.5,1.6,5.6,2.5,7.3,4.9c3.6,5.1,7,10.4,10.3,15.7c2.4,3.8,0.8,8.4-1,12.3c-1.9,4-4.2,7.9-6.3,11.9c-1,1.9-1.9,3.8-2.8,5.8
		c-1.4,2.8-1,5.6,0.6,8.1c4,6,7.1,12.3,8.4,19.5c0.1,0.8,0.4,1.7,0.9,2.3c4.8,5.6,6.3,12.7,9.4,19.1c0.8,1.7,1.5,3.3,1.7,5.2
		c0.3,2.6-0.6,4.5-3.3,4.9c-1.7,0.3-2.6,0.8-1.9,2.8c0.4,1-0.2,2-0.7,2.9c-0.8,1.7-0.8,3.3,0.3,4.9c1.1,1.6,0.9,3.3-0.3,4.8
		c-0.8,1.1-0.7,1.8,0.9,2c2.7,0.3,3.5,2.2,3.6,4.6c0.1,2.4-1.7,2.7-3.5,3.1c-1.2,0.2-1.7,0.9-1.9,2c-0.4,3,2.5,7.8,5.6,8.1
		c3.4,0.3,4.8,2.7,6.5,5c0.9,1.3,0.3,2.5-0.4,3.7c-2.7,4.5-0.9,8.3,4.1,9.9c2.5,0.8,4.6,2.9,5.2,5.7c0.5,2.3,0.7,4.6,2.2,6.6
		c1.5,2.1,1.1,3.9-1.3,5c-2,0.9-3,2.2-2.9,4.5c0,2.4-1.4,3.6-3.6,4.3c-2.8,0.9-3,2.3-0.6,3.9c2.8,1.9,5.8,3.5,8.1,5.9
		c0.7,0.7,1.7,0.7,2.6,0.7c3.4,0.1,5.7,1.7,7.3,4.7c1,1.8,2.3,3.3,4.2,4.3c0.5,0.3,1.2,0.6,1.4,1.1c1.8,4.6,6.7,7.1,8.1,11.9
		C712.2,568.4,712.2,569.8,712.2,571.2z M607.1,682c-0.2-0.4-0.2-0.7-0.4-0.9c-0.7-0.9-2.6-1.4-1.6-2.7c0.8-1.1,2.2-0.1,3.3,0.4
		c0.5,0.2,0.9,0.5,1.3,0.7c1.7,1,3.3,1.6,4.8-0.4c0.7-1,1.8-1,3.1-0.7c2.9,0.6,5.9,1.1,7.8-2.2c0.3-0.6,1-0.8,1.6-0.7
		c2.1,0.4,4.3-0.1,6.3,0.8c1.1,0.5,2.5,1,3.2,0.2c2.9-3,7.4-4.1,9.4-8c1.4-2.7,3.3-4.9,5.5-6.9c3.9-3.8,7.8-7.7,10.9-12.4
		c1.4-2.2,3.4-3.7,5.8-4.8c2.7-1.3,4.5-3.3,5.5-6.2c1.4-4,3.4-7.7,6-11c5.3-6.8,9.2-14.4,12.7-22.3c1.5-3.3,3.1-6.6,5.8-8.9
		c4.5-3.7,6.9-8.5,8.5-13.8c1-3.5,1.9-7.1,3.6-10.4c1.3-2.4,0.7-4.7-0.5-7c-1.8-3.4-5.6-5.3-6.8-9.1c-0.1-0.2-0.4-0.5-0.7-0.6
		c-2.5-1.2-4.1-3.3-5.4-5.7c-1.2-2.1-3-3.3-5.5-3.2c-1.4,0-2.8-0.2-3.7-1.1c-2.3-2.3-5.1-4-7.9-5.7c-1.3-0.8-2.5-1.9-2.2-3.7
		c0.2-1.6,1.5-2.3,3-2.7c1.5-0.5,2.9-1.2,2.8-3.1c-0.2-2.7,1-4.4,3.5-5.4c1.6-0.6,1.9-1.9,0.9-3.2c-1.4-1.9-1.7-4.1-2.3-6.2
		c-0.8-2.7-2.2-5.1-5.6-5.6c-3.8-0.5-6.5-7.2-4.4-10.4c2-3.2,0.5-7.1-3.3-7.6c-4.4-0.6-6.2-3.6-7.4-7.2c-1.2-3.5-0.3-5,3.3-6.1
		c1-0.3,1.8-0.6,1.8-1.7c0-1.2-0.4-2.2-1.6-2.7c-0.6-0.3-1.4-0.3-2.1-0.4c-1.5-0.2-2.1-1.4-1.4-2.4c1.8-2.5,1.5-4.8,0.3-7.4
		c-0.5-1-0.1-2.2,0.3-3.3c0.5-1.5,1.4-3-0.5-4.3c-0.8-0.6-0.1-1.3,0.6-1.6c0.8-0.4,1.7-0.6,2.6-0.9c3.2-0.9,3.8-1.9,3-5.1
		c-0.3-1.2-0.9-2.3-1.4-3.4c-3-6.5-4.8-13.6-9.4-19.4c-0.5-0.7-0.8-1.7-1-2.5c-1.4-6.7-4.1-12.7-7.9-18.4c-2.4-3.5-2.5-7.3-0.5-11
		c1.7-3.2,3.5-6.4,5.3-9.7c2.1-3.8,4.3-7.7,5-12.1c0.6-3.6-0.1-6.9-2.9-9.5c-1.6-1.6-3.3-3.1-4-5.3c-1.6-5.2-5.2-8.3-9.9-10.6
		c-4.5-2.2-7.5-5.8-9.1-10.6c-1.6-4.9-0.5-9.4,1.5-13.9c1.6-3.7,1.1-4.4-2.7-5.1c-2.1-0.4-2.2-1.5-1.3-3c0.9-1.6,2.4-2.5,3.7-3.6
		c1.3-1.1,2.1-2.2,0.3-3.7c-1.6-1.4-1.6-3.3-0.7-5c0.8-1.5,1.7-3,2.6-4.5c4.3-7,3.2-14.1-2.9-19.5c-1.9-1.7-4.2-2.9-6.5-3.9
		c-3.3-1.4-5.9-3.4-7.1-7.1c-1.1-3.2-3.4-3.7-6.2-1.6c-1,0.7-2,1.6-2.6,2.6c-2.3,4.4-5.6,5.4-10.2,3.8c-2.5-0.9-4.6-0.1-5.4,2.8
		c-0.4,1.4-1.3,2.6-2.4,3.5c-2.8,2.3-3.9,5.4-4,8.9c-0.1,1.9-0.5,3.6-1.1,5.4c-1.7,4.7-1.6,9.6-1,14.5c0.2,1.7,0.6,3.5,0.2,5.2
		c-0.8,3.4-1.1,7.4-5.8,8.2c-0.9,0.2-1.7,0.8-2,1.7c-1.1,3.4-2.6,6.6-4.3,9.7c-0.4,0.8,0.1,2.3-1.2,2.5c-1.2,0.1-1.9-1.1-2.6-1.9
		c-1.4-1.7-2.4-3.9-4.9-4.4c-2.5-0.5-4.4-1.9-6.2-3.7c-2.8-2.9-3.5-2.8-5.8,0.5c-2.3,3.4-6.2,3.9-9.7,5.3c-0.8,0.3-1.9-0.1-2.4-0.9
		c-1.2-1.7-3-2.3-4.7-2.4c-3.6-0.3-6.1-1.4-6.3-5.5c0-0.7-0.5-1.3-0.9-1.9c-2.8-4.9-5.2-9.9-6.8-15.3c-0.7-2.4-2.4-3.9-4.8-4.8
		c-3.5-1.2-6.2,0.5-6.4,4.2c-0.1,1.5,0.1,3.1,0.1,4.6c0.1,2.4-0.9,2.9-3,1.8c-1.4-0.8-2.7-2.1-4.6-1.6c0.3,1.4,1.4,1.7,2.1,2.4
		c1.4,1.4,2.3,3,1.6,4.9c-0.7,2,0.2,3,1.7,4.1c4.8,3.4,7.4,9,12.5,12.1c0.1,0,0.1,0.2,0.2,0.3c1.7,3.2,4.4,4.9,7.9,5.7
		c2,0.4,3.9,1.1,5.8,1.9c2.5,1,4.5,2.6,5.1,5.3c0.8,3.7,3,6.3,6,8.5c4.5,3.3,5,6.3,2.2,11c-1.5,2.5-1.9,4.9-0.8,7.6
		c0.8,2,1,3.9,0.1,5.9c-1.1,2.4-0.2,3.7,2.4,4c2.6,0.3,3.1,2,2.7,4.2c-0.2,1-0.5,2-1.1,2.8c-2.9,4.3-2.2,8,1,11.9
		c4.5,5.5,4.8,13.7,1.1,19.8c-1.3,2.2-1.9,4.4-2,6.9c-0.2,4.3,0.6,8.3,2.8,12c1.6,2.6,2.9,5.4,3.6,8.4c0.9,3.9,4,5.2,7.1,6.4
		c5.2,2,9.4,5.4,13.8,8.6c1.2,0.9,1.5,2.6,1.8,4.1c0.8,4,0.1,7.9-0.1,11.9c-0.1,1.6-0.2,3.3,1.7,4.2c1.6,0.8,1.9,2.2,1.8,3.9
		c-0.2,2.1-2.1,1.1-3,1.7c-0.1,1,0.5,1.6,0.9,2.3c0.5,1.1,1.2,2.3,0,3.3c-1.1,1-2.5,0.9-3.7,0.2c-0.5-0.3-1-0.7-1.5-1.1
		c-1.7-1.4-3-1.1-4.4,0.4c-2.9,3.1-5.2,6.5-6.7,10.5c-1.3,3.4-3.2,6.4-6.3,8.4c-1.3,0.9-2.2,2.1-2.6,3.7c-0.6,2.7-1.8,4.9-4.3,6.4
		c-1.4,0.8-1.7,2.2-1.8,3.7c0,1.2-0.4,2.5-1.9,1.9c-3-1.2-3.7,0.8-4,2.9c-0.4,2.4-1.6,3.5-3.7,4.7c-3.2,1.8-6,4.5-7.3,8.1
		c-0.5,1.6-1,1.8-2.2,0.9c-1.1-0.8-1.9-0.2-2.6,0.7c-1.7,2-1.4,5.5-4.8,6.2c-0.1,0,0,0.4-0.1,0.6c-1.1,2.2-1.2,4.3,0,6.5
		c0.4,0.7-0.2,1.5-0.5,2.3c-1.4,3.3-4.6,2.1-6.6,1.9c-2.7-0.2-5.2-0.1-7.8,0.2c-0.5,0-1.4,0.3-1.2,0.6c1.3,2.2-1,2.4-1.8,3.5
		c-2.7,4-5.6,7.8-6.2,13c-0.7,6.3-1.8,12.5,1.7,18.3c2.1,3.5,2.4,7.1,1.2,10.9c-0.9,2.8-0.9,5.6,0.3,8.4c1.6,3.8,3.3,7.5,4.6,11.3
		c0.8,2.3,3.1,3.5-0.3,6.5c-2.6,2.3-4.5,7.1-2.6,11.6c0.4,1,0,2-0.4,2.9c-1.2,2.6-2.5,5.1-4.8,7c-0.8,0.6-1.4,1.3-0.9,2.3
		c2.5,4.7,3.7,9.7,3.4,15.1c-0.1,1.1,1,2.3,2.2,2.7c1.6,0.5,1.5-1.3,2.3-2c0.9-0.8,1.8-2.6,3.1-0.8c3.7,4.9,9.4,6.6,14.7,8.6
		c1.9,0.7,2.1,1.4,1.9,2.9c-0.1,0.9-0.3,1.3,1,2.2c2.7,1.8,3.3-0.6,4.5-1.5c1.3-0.9,2.5-2,4.1-0.9c1.6,1.1,1.2,2.7,0.5,4.1
		c-1.2,2.4-1.4,4.2,1.7,5.2c1.1,0.3,2.1,1.2,1.8,2.5c-0.5,1.7-1.9,0.1-2.9,0.5c0.6,1.6,1.5,2.1,3.1,1.5c1.3-0.6,2.6-1.2,3.9-1.7
		c0.8-0.3,1.6-0.4,2.1,0.5c0.4,0.8-0.1,1.4-0.6,1.9c-0.7,0.7-1.8,1.2-2.2,2.6c2.6-1.3,4.5-3.8,7.5-2.5c1.6,0.7,2.8,0.6,3.7-1.2
		c0.6-1.1,1.8-2,3.1-1.5c1.3,0.5-0.1,1.8,0.4,2.7c0.8-0.4,1.6-1,2.4-1.2c5.1-1.3,9.8-3.6,14.7-5.7c1.8-0.8,4.3-2.5,6.3-0.9
		c1.4,1.1,1.3,0.2,1.7-0.5c0.8-1.2,0.8-3.1,2.9-3.1c4.1,0,5.5-5.3,9.8-5.1c0.2,0,0.4-0.8,0.6-1.3c0.5-1.7,1.5-1.9,3-1
		C604.3,681.7,605.5,682.8,607.1,682z M532.3,691.8c-0.6,0.2-2.3-0.3-2.2,0.5c0.2,2-2.1,2.8-1.9,4.6c0.1,0.7,0.5,0.8,1.1,0.6
		c0.7-0.3,1.4-0.2,2,0.3c1.2,0.9,1.9,0.5,2.1-0.8c0.1-0.8,0.6-1.5,1-2.2C535.6,692.7,535.1,691.8,532.3,691.8z"/>
	<path stroke="#000000" stroke-width="3" stroke-miterlimit="10" d="M470.8,687.1c0.3-2.1,1-3.6-0.3-5c-0.6-0.7-0.3-1.6,0.3-2.2
		c0.6-0.6,1.6-1.2,2.1-0.6c1.7,2,4.4,2.5,6,4.4c0.9,1,2.2,2.1,1.3,3.8c-0.9,1.6-2.3,0.5-3.6,0.6c-0.8,0.1-1.7-1.2-2.4,0
		c-0.5,0.9,0.3,1.4,0.8,2.1c1,1.4,0.1,2.7-1,3.3c-1.9,1.1-3.9,0.7-5.2-1c-1.3-1.7-1.7-3.9-1.3-6.1c0.2-1.1,0.6-2.4,2-2.4
		C471.3,684,470.2,685.7,470.8,687.1z M479.2,686.8c-1-2.5-2.4-4-4.6-4c-2.3-0.1-1.7,2.3-2.3,3.6c-0.5,1-0.7,2.2-2.1,2.3
		c-1.7,0.1-1,1.1-0.8,1.9c0.5,1.8,2.3,1.7,3.5,1.7c1.3-0.1,0.6-1.2,0.2-2.1c-0.8-1.6-0.6-3.3,0.4-4.6c1.1-1.5,2,0.6,3.1,0.7
		C477.3,686.4,478,686.6,479.2,686.8z"/>
	<path stroke="#000000" stroke-width="3" stroke-miterlimit="10" d="M510.1,691.5c1.7-2.5,4.7-0.6,7.2-1.5c0.8-0.3,1.5-1,2.2-0.2
		c1.1,1.2-0.2,2.3-0.6,3.3c-0.3,0.9-1.4,1.3-2,0.6c-1.5-1.6-2.2-0.8-3.6,0.4c-1.4,1.2-3.5-0.4-5.4,0.3c-0.5,0.2-0.8-1.1-0.6-1.8
		C507.5,691.4,508.3,691,510.1,691.5z"/>
</g>
<g>
	<path d="M790.6,505.7l-0.6,1.4c0.3,0.9,0.5,2,0.5,3.4c0,1.4-0.7,2.7-2.2,3.8c-1.5,1.2-3.4,1.7-5.7,1.7c-4.5,0-6.8-4.7-6.8-14.2
		c0-14.1-0.8-40.7-2.4-79.8c-1.6-39.1-3.2-59.9-4.8-62.2c0.1-7.7,5.6-11.7,16.6-12.2c1.7-0.1,4-0.1,6.8-0.1c2.9,0,5.1,0.5,6.8,1.5
		c1.6,1,2.5,3.1,2.5,6.2c0,3.1-2.2,4.7-6.5,4.7l-5.7-0.2c-4.4,0-6.5,0.8-6.5,2.5c0,6.9,0.6,16.9,1.7,30.2
		c1.1,13.2,1.8,23.1,1.8,29.4c1-0.1,2.3-0.4,4-0.9c4-1,6.9-1.5,8.8-1.5c1.9,0,3.5,0.7,4.8,2.1c1.3,1.4,1.9,3,1.9,4.7
		c0,4.8-6.5,7.3-19.5,7.3c0,8,0.7,20,2.2,36.1C789.9,485.5,790.6,497.6,790.6,505.7z"/>
	<path d="M843.6,359.7l-4.1-0.1c-1.5,0-2.7,0.3-3.4,0.9c-0.7,0.6-1.1,1.8-1.1,3.6c0,14.4,1,36.1,2.9,64.9
		c1.9,28.8,2.9,50.4,2.9,64.9v8.6c1.6-0.2,3.2-0.3,4.8-0.3c6.5,0,9.8,2.6,9.8,7.8v1.3l-5.9,3.8l-16,0.5c-13.5,0-20.3-2.2-20.3-6.6
		c0-3.5,2.4-5.3,7.1-5.3l4.9,0.3c2.3,0,3.4-1.7,3.4-5.2c0-11.4-0.7-28.5-2.2-51.3c-1.5-22.8-2.2-39.9-2.2-51.3l0.5-22.6
		c0-4.8-0.2-8.9-0.6-12.3c-2.1,0.7-3.9,1-5.5,1c-3.7,0-5.5-1.8-5.5-5.3c0-1.8,1.2-3.4,3.6-4.7c2.4-1.3,5.3-2.3,8.8-2.9
		c6.6-1.1,11.5-1.6,14.6-1.6c3.2,0,5.5,0.6,6.8,1.8s2.1,2.6,2.1,4.2c0,1.6-0.5,3-1.5,4.2C846.6,359.1,845.2,359.7,843.6,359.7z"/>
	<path d="M866.3,399.6l1.6-40.7v-1.4c0-7.4,1.7-11,5.2-11c3.1,0,7.3,6.9,12.6,20.6c9.6,24.9,21.2,66,34.7,123.4l0.2,1.1l0.9-77.3
		v-65.6c0.9-3.7,3.5-5.5,7.7-5.5c4.2,0,6.3,2.9,6.3,8.7v1.3c-0.9,1.8-1.4,4-1.4,6.5l-1.5,82v67.8c0,2.2-0.7,4.4-2,6.6
		c-1.3,2.2-2.9,3.2-4.8,3.2c-3.3,0-9.7-15.2-19.3-45.6c-9.6-30.4-19-63.2-28.3-98.2v72.8c0,7.1,0.6,17.6,1.7,31.6
		c1.1,14,1.7,24.5,1.7,31.6c0,1.4-0.9,2.5-2.6,3.4c-1.8,0.9-4,1.4-6.7,1.4c-2.7,0-4.1-1.2-4.1-3.5l1.1-15.9c0-7.7-0.5-20.1-1.5-37.3
		c-1-17.2-1.5-27.7-1.5-31.5V399.6z"/>
</g>
<g>
	<path d="M787.2,590.2l0.1,4.4v0.6c0.4,8,0.5,20,0.5,36.1v3.5h10.5c2,1.3,3,2.6,3,3.8c0,1.2-0.3,2.2-1,3c-0.7,0.8-1.4,1.2-2.1,1.2
		s-1.6-0.2-2.5-0.5c-0.8,0.2-1.6,0.3-2.6,0.3l-4.5-0.2c-0.9,1.1-2.1,1.7-3.5,1.7s-2.6-0.4-3.6-1.3c-1-0.9-1.5-1.9-1.5-3.1l0.9-6.1
		c0-10.5-0.5-26.2-1.4-47.2c-0.9-21-1.4-36.7-1.4-47.2c0-0.9,0.3-1.5,1-2.1c0.7-0.5,1.5-0.8,2.5-0.8s1.9,0.4,2.8,1.1
		c0.8,0.8,1.2,1.7,1.2,2.8L787.2,590.2z"/>
	<path d="M838.9,642.4c-2.8,0-4.3-1.2-4.3-3.6v-18c-1.3-0.9-3.7-1.7-7.1-2.3c-3.4-0.6-6.4-1-9.1-1.2c-0.9,1.6-1.7,4-2.3,7
		c-0.6,3.1-1.2,6.1-1.9,9.2c-0.7,3.1-1.5,5.6-2.6,7.4c-3.6,0-5.6-0.9-6.1-2.8c1.3-1.8,3.3-11,6.1-27.6c2.8-16.6,5.2-29.6,7-39
		c1.8-9.4,3.8-17.3,5.9-23.7c2.1-6.4,4.1-9.6,6.1-9.6c1.9,0,3.4,0.4,4.5,1.2c0,3.3,0.9,12.2,2.7,26.7c1.8,14.5,2.7,23.9,2.7,28.1
		c0,4.3,0.5,11.3,1.5,21.2c1,9.9,1.5,17.3,1.5,22.2C843.5,640.9,842,642.4,838.9,642.4z M833.1,597.3c-0.8-8.2-1.5-16-2.2-23.4
		c-0.7-7.4-1-11.9-1-13.4s0-2.4,0.1-2.7c-1.4,1.5-3.5,9.7-6.2,24.8c-2.7,15-4.2,24.6-4.4,28.6c3.8,1,7,1.6,9.6,1.6
		c2.6,0,4.4-0.1,5.5-0.4C834.4,610.5,833.9,605.5,833.1,597.3z"/>
	<path d="M852.1,570.1l0.9-25.4v-0.9c0-4.6,1-6.9,3-6.9c1.8,0,4.3,4.3,7.4,12.8c5.7,15.5,12.5,41.2,20.4,76.9l0.1,0.7l0.5-48.2
		v-40.9c0.5-2.3,2-3.4,4.5-3.4c2.5,0,3.7,1.8,3.7,5.4v0.8c-0.5,1.1-0.8,2.5-0.8,4.1l-0.9,51.1v42.3c0,1.4-0.4,2.8-1.1,4.1
		s-1.7,2-2.8,2c-1.9,0-5.7-9.5-11.3-28.5c-5.6-19-11.2-39.4-16.7-61.2v45.4c0,4.4,0.3,11,1,19.7c0.7,8.7,1,15.3,1,19.7
		c0,0.9-0.5,1.6-1.6,2.1c-1,0.6-2.4,0.8-4,0.8s-2.4-0.7-2.4-2.2l0.7-9.9c0-4.8-0.3-12.5-0.9-23.2c-0.6-10.7-0.9-17.3-0.9-19.6V570.1
		z"/>
	<path d="M937.1,591.6l0.3,2.9c0,6.5-1.7,14.2-5.2,23.1c-4,10.1-8.6,17.3-14,21.5c-3.1,2.4-6.2,3.7-9.5,3.7c-1.7,0-3.3-0.4-4.7-1.2
		c-1.4-0.8-2.1-2-2.1-3.5c2-2.1,3-7.5,3-16.3c0-5.1-0.4-12.8-1.3-22.9c-0.9-10.1-1.3-17.7-1.3-22.8l0.4-15.1c0-2.4-0.5-5.7-1.5-9.8
		s-1.5-7-1.5-8.7c0-3.2,3.5-4.8,10.6-4.8h2.1c9.4,0,16.2,5.3,20.5,15.8c3,7.3,4.5,17.5,4.5,30.4v6.4
		C937.2,590.7,937.1,591.1,937.1,591.6z M911.6,621.6v13.2c3.5-2.2,6.5-5.4,9-9.4c2.6-4,4.5-8.4,5.9-13.2c2.5-9.1,3.8-18.3,3.8-27.3
		c0-10.4-1.3-18.7-3.9-24.7c-2.7-6.2-5.9-10.3-9.9-12.3c-2.4-1.3-5.2-1.9-8.2-1.8v0.1c0,8.3,0.6,20.9,1.7,37.6
		C911.1,600.5,911.6,613.1,911.6,621.6z"/>
</g>
</svg>
