<?xml version="1.0" encoding="utf-8"?>
<!-- Generator: Adobe Illustrator 18.0.0, SVG Export Plug-In . SVG Version: 6.00 Build 0)  -->
<!DOCTYPE svg PUBLIC "-//W3C//DTD SVG 1.1//EN" "http://www.w3.org/Graphics/SVG/1.1/DTD/svg11.dtd">
<svg version="1.1" id="Layer_1" xmlns="http://www.w3.org/2000/svg" xmlns:xlink="http://www.w3.org/1999/xlink" x="0px" y="0px"
	 viewBox="0 0 1400 900" enable-background="new 0 0 1400 900" xml:space="preserve">
<g id="V6NAQo_1_">
	<g>
		<path d="M928.4,427.2c-1.2-5.1-2-5.8-5.4-4.9c-0.7,0.2-1.7,1-1.7,1.3c0.5,3.5,0.7,7.2,2.1,10.4c1.2,2.7,2.4,5.1,1.7,8.2
			c-0.8,3.5-2.6,5.1-6.3,5.2c-6.8,0.1-10,5.3-7.4,11.8c1.2,2.9,2.8,5.8,3.4,8.8c0.6,3.2,0.9,6.8,0.2,10c-1,4.9-3.5,6.1-8.4,4.8
			c-0.6-0.2-1.4-0.6-1.9-0.4c-2.3,0.9-5.2,1.4-6.7,3.1c-1,1.1-0.7,4.4,0.2,6c2.5,4.4,3.7,8.8,3,13.9c-0.8,5.3-2.1,7.2-7.2,8.6
			c-1.6,0.4-3.6,0.7-4.7,1.8c-1.4,1.3-2.6,3.2-2.8,5c-0.2,2.4,0.8,4.9,1,7.4c0.1,1.4,0,3.9-0.6,4.1c-2,0.7-4.4,0.7-6.6,0.7
			c-1.5,0-3-0.5-4.5-0.7c-1.3-0.2-2.5-0.5-3.8-0.4c-2.1,0.1-4.2,0.5-6.3,0.8c-1.6,0.2-3.3,0.7-4.9,0.7c-1.6,0.1-3.2-0.6-4.7-0.3
			c-2.1,0.4-4.3,1.3-6.2,2.3c-3.9,2,0.7,3.4,0.5,5.3c-0.2,1.8,0.5,3.7,0.4,5.5c-0.4,5,1.2,9.6,2.5,14.3c0.9,3.2,2.2,6.8-0.1,10.1
			c-0.2,0.2,0.5,1.5,0.9,1.6c1.1,0.3,2.4,0.3,3.5,0.1c1.2-0.2,2.4-0.7,3.6-1c-0.6,1.2-1.1,2.6-2,3.7c-3.1,4.1-6.3,8.3-11.8,9.6
			c-0.6,0.1-1,1.1-1.5,1.6c-0.7,0.7-1.6,1.3-2.3,2c-0.8,0.8-2.1,2-1.9,2.7c0.8,3.5-1.6,4.1-3.9,4.7c-3.4,0.9-6.5,1.4-7.1,6.2
			c-0.3,2.1-3.6,5.1-6,5.6c-9.1,1.9-16.2,7.2-23.7,11.9c-1.7,1-3.4,2-5.1,2.8c-6.8,3.3-13.5,6.8-20.5,9.9c-6.4,2.8-13,5.3-19.6,7.7
			c-15.7,5.6-32.2,3.7-48.3,5.2c-7.6,0.7-15.2,1.5-22.7,1.4c-10.5-0.1-20.9-0.9-31.4-1.5c-1.1-0.1-2.4-0.7-3.1-1.5
			c-2.5-2.8-5.6-3.3-9-3c-9.1,0.9-17.7-1.1-26.4-3.4c-1.7-0.5-3.7-1.2-4.9-2.4c-6.1-5.8-14.1-7.9-21.6-10.8
			c-5.3-2-11.2-2.5-16.7-3.9c-2.4-0.6-4.7-1.6-7-2.5c-4.6-1.9-9.4-3.5-13.7-5.8c-4.5-2.4-9.6-4.7-12.6-8.5
			c-10.5-13.3-23.4-24.1-35-36.2c-3.5-3.7-7.2-7.2-10.7-11c-0.9-0.9-1.9-2.3-1.9-3.4c0.1-4.8-3-7.7-6.1-10.6
			c-6.2-5.8-12.3-12-14.8-20.1c-2-6.3-4.5-12-7.6-17.7c-1.4-2.6-2.3-5.6-3.8-8.1c-2.9-4.7-5.7-9.2-6.8-14.9
			c-1.2-6-4.2-11.5-5.9-17.4c-1.8-6-2.9-12.2-4.3-18.3c-0.3-1.1-0.1-2.6-0.7-3.4c-2.8-3.8-2.4-8.2-2.5-12.5
			c-0.5-13.8-1-27.5-1.7-41.3c-0.2-3.8-1.2-7.5-1.4-11.3c-0.6-14,1-27.7,5.3-41.1c2.5-7.9,3.9-16.3,5.9-24.4
			c0.3-1.1,0.9-2.1,1.4-3.2c1.9-4.6,5.3-8.5,4.9-13.9c-0.1-0.8,0.3-2,0.9-2.5c3.6-3.3,4-7.5,3.7-11.9c-0.1-0.9,0-1.9,0.4-2.7
			c2.7-4.7,5.3-9.5,8.3-14c2.8-4.2,4.8-8.4,5.7-13.6c0.6-3.7,3.6-7.1,5.8-10.4c4.1-6.2,8.3-12.4,12.8-18.4
			c3.2-4.3,7.1-8.1,10.5-12.2c6.5-7.9,14.4-13.9,23.6-18.6c4.9-2.5,8.4-7.5,12.8-11.2c3.1-2.6,6.2-5.4,9.7-7.3
			c10.6-5.5,21.4-10.6,32-15.8c6.2-3.1,12.2-6.5,18.5-9.2c2.3-1,4.5-2.3,6.7-3.3c3.5-1.6,7.3-2.6,11-3.7c4.7-1.3,9.5-2.5,14.3-3.6
			c0.9-0.2,2.4-0.1,3,0.6c3.3,3.4,3.6,0.4,4.4-1.9c0.3-0.7,1.1-1.2,1.6-1.8c0.5,0.6,1.6,1.3,1.5,1.9c-0.7,6.5,2.3,8.4,8.5,8.8
			c4.2,0.3,8.2,3.4,13,2.3c0.5-0.1,1.4,0.9,1.9,1.6c1,1.2,1.7,2.7,2.9,3.7c5.1,4.3,11.4,2.7,14.6-3.4c2.5-4.8,6.4-7,11.8-6.2
			c4.9,0.7,9.8,1.4,14.6,2.3c1.6,0.3,3.2,1,4.7,1.8c4.2,2.2,8.1,3.2,12.4-0.1c4.4-3.3,5-3,7.8,1.6c0.5,0.8,0.9,1.6,1.5,2.3
			c2.6,3.8,5.8,4.2,8.6,0.5c2.9-3.9,5.8-4,10.4-3.3c8.1,1.2,13.9,6,19.6,10.8c1.1,0.9,1.4,3.2,1.6,4.9c0.1,1.4-0.5,2.8-1,4.2
			c-2.8,7.5,0.8,8.5,6.2,10.4c3.3,1.1,4.9-2.1,7-4c2.1-1.9,4.2-4.2,6.7-5.2c6.3-2.5,10.2-0.7,13.2,5.4c2.3,4.7,4.8,5.9,9.8,4.4
			c3.9-1.1,8.1,2,7.6,6c-0.6,4.5-1.7,9.1-3.2,13.4c-0.6,1.6-2.9,2.6-4.4,3.9c-0.8-1.7-2.3-3.4-2.4-5.2c-0.4-6-1.2-7.3-6.8-9.7
			c-3.3-1.5-6.5-3.3-9.8-4.9c-0.9-0.5-2-1.1-2.9-1c-7.3,0.7-14.6,1.5-21.9,2.4c-0.6,0.1-1.4,0.5-1.6,1c-1.5,4.3-6.2,2.5-9,4.6
			c-0.5,0.3-2.8-0.7-3.1-1.6c-0.4-1.1,0-2.8,0.6-3.9c2.6-5.1,3.2-16-1.9-19.2c-1-0.6-2-1.4-3.1-1.5c-12.5-1.4-24.8-3.9-36.8-7.9
			c-3.3-1.1-4.7,1-4.7,3.5c-0.1,4.7-1.6,8.7-4.3,12.4c-1.5,2-0.4,3.2,1.7,3.6c0.7,0.2,1.6-0.3,2.3-0.1c1.3,0.3,2.5,1,3.7,1.5
			c-0.6,1.1-1,2.3-1.9,3.1c-2,1.9-4.3,3.4-6.3,5.3c-2,1.9-3.6,0.4-4.7-0.9c-0.7-0.8-0.5-2.6-0.3-3.9c0.1-0.8,1.1-1.4,1.6-2.2
			c1.6-2.6,2.2-4.5-1.7-5.9c-5.2-1.9-10.2-4.5-15.3-6.5c-1.5-0.6-3.4-0.6-5-0.4c-3.2,0.4-6.5,1-9.6,1.9c-3.4,1-4.7,3.7-3.7,7
			c0.1,0.3,0.3,0.5,0.3,0.7c0.4,5.5-4.7,4.3-7.4,5.7c-1.6,0.9-4.2,2.4-5.3-1.4c-0.3-1-2.2-2.1-3.4-2.2c-8.1-0.9-15.2,2.2-21.9,6.4
			c-1.3,0.8-2.6,1.8-3.9,2.7c-4.2,2.9-4,7.1,0.6,9.3c2.4,1.1,5.4,1.1,8,2c2.2,0.8,4.7,1.8,6.2,3.5c2.9,3.1,5.8,5.3,10.1,6.3
			c5.1,1.3,10,3.5,14.9,5.4c0.5,0.2,1.2,0.8,1.3,1.3c1.8,5.7-4.4,13.3-10.7,12.6c-3.5-0.4-6.5,0.2-9.8,1.5c-7.4,2.8-10,0.9-13.6-6.8
			c-2.2-4.7-4.6-9.6-8-13.3c-2.5-2.7-6.6-4.7-10.9-3.5c-0.7,0.2-1.6,1.6-1.5,2.4c0.3,5.2,0.9,10.4,1.2,15.6c0.3,4.1,1.2,4.9,5.2,4
			c2.7-0.6,4.7-0.5,5.3,2.8c0.1,0.7,0.7,1.4,1.3,1.9c3.7,2.9,7.6,5.6,11.1,8.8c2.8,2.5,5.9,3.5,9.4,3.2c3.4-0.3,4.2,1.4,4,4.2
			c-0.2,1.7-0.6,3.4-0.9,5c-0.8,4.3,0.9,7,5.1,8.4c1.6,0.5,3.3,0.8,4.9,1.5c2.6,1.2,4.9,2.5,5.6,6c0.4,2,2.6,3.7,4.1,5.5
			c0.7-0.9,1.8-1.7,1.9-2.7c0.6-4.3,1.9-5.8,5.5-5.5c3.2,0.2,5.4,2.5,5.1,5.7c-0.4,3.7,0.4,6.6,3.5,9c1.3,1,1.7,3.1,2.3,4.8
			c1.5,3.7,2.8,7.6,4.6,11.1c0.7,1.4,2.8,2.4,4.5,2.9c1.5,0.4,3.4-0.4,5.1-0.5c0.7,0,1.4,0.5,2.1,0.8c-0.6,0.5-1.1,1.4-1.7,1.4
			c-6.8,0.1-9.7,5.2-13.2,9.8c-2.9,3.8-5.9,7.8-11.8,6.4c-1.2-0.3-2.6,0.3-3.8,0.8c-5.5,2-9.9-1.6-14.7-2.9c-0.1,0,0.1-2,0.4-2.1
			c2.5-0.7,5-1.5,7.5-1.6c4.4-0.2,9.3,1.2,11.8-3.9c0.7-1.3,0.5-3.3,0.2-4.9c-0.3-1.3-1.4-2.5-2.1-3.7c-2-3.5-4.5-5.8-9.1-5.8
			c-2.4,0-4.9-1.6-7.2-2.7c-3.2-1.6-6.2-3.8-9.6-5.1c-4.4-1.7-7.9-3.3-9.5-8.7c-1.5-4.8-5.1-9-7.9-13.3c-2.6-4.1-5.4-8-8.3-12
			c-3.4-4.7-6.8-9.5-12.7-11.3c-2.7-0.8-5.8-0.6-8.7-0.6c-0.3,0-1,1.7-0.8,1.9c4.8,5.3,1.9,11.3,1.1,16.9c-0.4,3-0.7,5.2,1.7,7.5
			c0.9,0.9,0.6,3,0.8,4.6c-1,0-2.1,0.3-2.9,0c-1.3-0.6-2.4-1.7-3.6-2.4c-1.7-1-3.9-1.5-5.1-2.8c-1.8-2.1-3.2-2.7-6.2-2.3
			c-3.8,0.6-5.4,2.1-6.4,5.6c-1,3.9,0.2,6.7,3,9c0.9,0.8,2.6,0.9,3.9,0.9c3.3-0.2,4.2,0.9,3.1,3.8c-1.2,2.9,0.3,6.4,3,8
			c1.8,1.1,3.5,2.7,4.6,4.4c2,3.2,3.4,6.7,5.1,10c2,3.9,5.5,5.3,9.6,5.8c1.3,0.2,2.7,0.9,3.8,1.7c0.9,0.7,1.6,1.7,2.3,2.7
			c1,1.3,2.9,3.1,2.6,3.7c-0.9,1.7-2.7,3.9-4.3,3.9c-3.8,0.2-6.1,2.4-8.8,4.3c-4.8,3.3-4.7,7.3-0.8,11.4c1.9,2.1,2.9,5.5,3.2,8.5
			c0.7,6.6,0.9,13.4,1.1,20c0,1.9-0.7,3.8-1.2,5.7c-1.3,4.8-3.3,9.8,2,13.6c1,0.7,2.6,1.7,3.3,1.3c1-0.5,1.7-2.1,2.2-3.3
			c1.9-4.7,0-9.1-1.6-13.3c-1.3-3.5-1.2-6,2.4-7.7c8-3.6,7.2-10.6,6.7-17.4c-0.2-2.4-1-4.7-1-7c-0.1-4.5,0.2-8.7,3.5-12.5
			c1.8-2.1,2.3-5.2,3.3-7.9c1.2-3.2,2.5-6.3,3.3-9.5c0.5-1.9-0.1-4-0.1-6.1c0-1.1,0.3-2.3,0.5-3.4c1.2,0.6,3.3,1,3.4,1.7
			c0.5,4.3,2.8,6.4,7,7.2c0.8,0.2,1.1,2.7,1.8,4c0.9,1.7,1.6,3.8,3.1,4.9c2.9,2.1,4.7,4.3,4.3,8.1c-0.1,1.3,1,2.7,1.6,4
			c0.4,0.8,1,1.6,1.5,2.4c-1,0.1-1.9,0.4-2.9,0.3c-3-0.4-6.1-1.2-9.1-1.2c-4.9,0-6.8,2.9-3.6,6.5c3.3,3.6,0.8,6.1-0.5,8.4
			c-5.4,9.4-8.6,18.7-3.1,29.2c0.5,1,0,2.9-0.5,4.2c-1.5,3.5-3,6.9-2.1,11c0.6,3,0.4,5.7-3,8.2c-2.7,2-4,6-5.7,9.1
			c-0.3,0.5,0.1,1.8,0.6,2.1c4.1,2.8,6.8,7.9,12.6,8.4c1.1,0.1,2.2,0.8,3.1,1.5c0.8,0.5,1.3,1.4,2,2.1c-0.8-0.1-1.7-0.2-2.5-0.4
			c-2.8-0.6-3.1,2-2.8,3.1c1.1,4.2,0,7.3-3.1,10.1c-0.7,0.6-0.8,3.2-0.2,3.7c1.9,1.6,4.2,3.6,6.4,3.8c4.9,0.4,9.3-3.9,11.5-9
			c3-6.8,1.7-14.2,3.6-21.1c0.2-0.7,0.1-1.7-0.3-2.3c-0.9-1.7-1.2-2.6,1.3-2.6c0.7,0,1.9-0.8,2.1-1.4c1.4-5,4-10.1,3.5-15
			c-0.5-4.9,0.4-11.1-5.7-14.8c-3.1-1.9-5.2-5.7-7.1-9c-0.9-1.6-0.4-4.1-0.5-6.1c1.6,0.3,3.2,0.4,4.6,1.1c2.9,1.3,5.4,3.6,9.1,2.7
			c5-1.3,6.5-3,6.6-8.2c0.1-5,2.9-8.8,5.1-13c1.9-3.5,3.2-7.4,5.1-11c1-1.9,2.1-4.3,3.8-5.1c3.5-1.5,7.4-2.2,11.2-3
			c0.6-0.1,2.3,1.2,2.2,1.4c-0.9,3-2,6-3.1,8.9c-0.5,1.3-1.2,2.5-1.7,3.8c-1.6,4-3,7.9-4.6,11.9c-0.4,0.9-1.2,1.8-1.4,2.7
			c-0.9,4.1-2.1,4.7-5.7,3c-0.6-0.3-1.3-0.6-1.9-0.9c0,0.8-0.1,1.6,0.1,2.3c1.2,4.1,1.2,7.9-1.3,11.7c-0.7,1.1,0.2,3.4,0.5,5.1
			c0.3,2.2,0.7,4.5,1.2,6.7c0.3,1.6,0.5,3.4,1.4,4.7c2.1,3.3,2.2,6-0.1,9.4c-1.5,2.2-2.4,5-2.8,7.7c-0.4,2.6-0.2,5.4,3.3,6.6
			c1.6,0.6,2.8,2.6,4,4.2c1.8,2.4,3,2.4,4.8,0.1c1.8-2.4,3.6-4.7,5.6-7c3.3-3.8,3-9.2-0.9-11.9c-4.1-2.8-0.3-6-0.6-9
			c-0.2-1.9,0.9-4.1,1.9-5.9c0.7-1.3,2.2-2.6,3.6-3c1.1-0.3,3.1,0.4,3.9,1.3c4.6,5,5.6,5,9.7-0.6c1.1-1.5,2.1-3,3.1-4.5
			c2.5-4.3,6.4-3.8,10.3-3c1.8,0.3,2.1,1.1,1.2,2.8c-0.6,1.2-0.9,2.7-0.9,4c0.1,2,1.1,2.8,3.2,1.7c3.7-2,7.1-0.9,10.6,1.2
			c6.4,3.7,12.2,9.3,20.4,7.8c2.7-0.5,5.6-1.6,7.8-3.2c4.2-3,8.4-3.9,13.4-2.9c3.5,0.7,7,0.9,10.6,1.1c2.3,0.1,3.6,0.9,4,3.4
			c1.8,12.2,9.5,19.6,20.2,24.8c2.8,1.4,5.6,4.1,7,6.9c2.9,5.7,4.2,11.9,4.5,18.6c0.2,5.3,2.3,10.7,4.1,15.8c1.2,3.4,6.7,3.6,9.3,1
			c7.3-6.8,4.4-13.6,0.7-19.5c-6.5-10.5-13.1-21-16.1-33.2c-0.8-3-1.7-4.3-5.1-2.9c-3.7,1.5-8.4,0-10.7-3.6
			c-1.9-2.9-3.4-6.2-4.5-9.5c-1.6-5.2-5.5-8.1-10.7-7.2c-4,0.6-8.3-3.3-7.6-7.4c0.1-0.8,1.9-1.8,3-2c8.1-1.5,14.1,2.9,19.7,7.8
			c1.8,1.6,3.3,3.4,4.8,5.2c3.6,4.1,7.2,4.1,9.4-0.8c2.5-5.4,6.5-7.8,12.1-8.6c4.5-0.7,8.9-2,13.4-3c1-0.2,2.1-0.3,3.1-0.1
			c10.3,2.2,19.9-0.1,29.5-3.6c1-0.4,3.3-0.4,3.3-0.1c0.4,1.4,0.8,3.1,0.2,4.4c-1.3,3-3.7,4.9-7.3,5.2c-5.4,0.5-11.3,0.3-16.1,2.3
			c-5.2,2.2-10.2,2.1-15.4,2.5c-4,0.2-8,0.3-12,0c-2.5-0.2-4.1,0.7-5.1,2.7c-1.6,3-3.1,6-4.6,9.1c-0.3,0.6-0.2,1.5-0.2,2.2
			c0.9,0,1.8,0.3,2.6,0c4.4-1.7,8.5-4,13-5.1c5.4-1.3,11.3-2.2,16.1,1.9c1.7,1.4,3.1,1.8,4.9,0.5c8.8-6.6,17.3-1,23.4,4.8
			c1.3,1.3,2.7,2.5,3.8,4c2.6,3.4,5.6,4.4,9.6,2.5c2.3-1.1,3.7,0,4,2.6c0.2,1.4,0.5,2.9,0.9,4.2c0.6,1.9,1.7,2.6,3.9,2.1
			c6.5-1.5,10.2,0.2,13.4,5.8c1,1.8,2.4,3.4,3.4,5.2c0.4,0.7,0.6,1.6,0.4,2.4C929.8,422.7,929.1,424.8,928.4,427.2z M862.1,396
			c-0.1-0.3-0.1-0.5-0.2-0.8c-1.4,0-2.9,0-4.3,0c-5.5,0-6.8,1.5-6.2,6.9c0.1,1,0.4,2,0.8,3c2.1,5.6,6,10.4,6.5,17
			c0.2,2.7,3.2,5.9,5.8,7.5c4.5,2.9,5.8,8,1.4,11.3c-3.8,2.8-4.7,6.1-5.2,10.2c-0.6,4.4-2.9,6.9-7.2,7.1c-3.9,0.2-7.8-0.2-11.7-0.8
			c-3.2-0.5-6,0.5-6.6,3.7c-0.6,3.3-0.8,6.8-0.6,10.1c0.3,5,1.3,9.9,1.7,14.9c0.5,6.3-3.7,9.5-9.5,7.5c-5-1.7-8.3-5.5-10.6-9.8
			c-3.2-6-6.1-12.2-3.8-19.5c1-3.2,1.4-6.6,2-10c1.3-6.8,2.8-13.6,3.7-20.4c0.7-4.9,1.2-9.9,0.7-14.8c-0.4-3.8-0.9-8.6-7.2-7.9
			c-1.8,0.2-3.8-1.5-5.8-2.3c-1.2-0.5-2.5-1-3.7-1c-7.8,0-11.8-6.1-15.6-11.2c-1.7-2.2-3-3.8-5.4-4.7c-4.1-1.5-5.5-0.3-5,4.1
			c0.4,3.4,0.5,6.8,0.8,10.1c0.2,3,1.5,5.3,4.3,6.5c2.6,1.1,5.1,2.2,7.7-0.1c0.9-0.8,2.3-0.9,3.5-1.3c0.4,1.3,1.1,2.5,1.2,3.8
			c0.5,5.4,2.3,9.8,7.6,12.4c3.8,1.9,5.7,8.2,5.2,12.4c-0.6,5.5-2.3,10-5.1,15c-3,5.3-5.9,10.7-9.3,15.8c-4.2,6.4-2.3,10.5,5.1,11.8
			c5,0.9,10.8,0.7,14.3,5.5c5.2,7.1,8.8,14.6,4.7,23.7c-1.1,2.4-1.4,5.3-1.7,8c-0.4,3.1,0.6,5.5,4.3,5.8c0.7,0.1,1.3,0.7,2,1
			c-0.4,0.7-0.7,1.7-1.4,2.1c-2.3,1.7-4.6,3.8-7.3,4.5c-2.2,0.6-5.5,0.3-7.1-1c-2.1-1.7-3-4.6-1.1-7.8c3.3-5.6,1.8-11.7,0.9-17.7
			c-0.1-0.4-0.6-0.9-0.9-1.2c-2.4-1.8-5.2-3.3-7.3-5.5c-5.3-5.5-12.1-5.7-18.9-6.1c-1.3-0.1-3-0.1-3.8-0.8
			c-3.6-3.4-7.7-6.6-10.2-10.7c-5.2-8.9-3.1-19.2,4.4-26.1c0.7-0.7,1.5-2.5,1.2-2.7c-3.2-3.2-2.1-7.2-2.4-10.9
			c-0.2-3.5,1.9-4.8,5-3.1c3.4,1.8,6.6,3.9,9.9,5.8c0.9,0.5,2,0.9,3,0.8c1.1-0.1,2.1-0.9,3.2-1.3c-0.4-0.8-0.7-1.8-1.3-2.5
			c-1.6-1.6-3.6-2.9-5.1-4.6c-0.7-0.8-1.5-2.7-1-3.3c1.5-2.3-0.2-1.8-1.3-1.7c-0.8,0.1-1.5,0.5-2.2,0.7c-0.7,0.2-1.4,0.2-2.1,0.3
			c0.1-0.8,0-1.6,0.3-2.2c0.3-0.7,1-1.3,1.3-1.9c2.2-4,0.5-7.7-3.7-8.7c-1-0.2-2.5-1.4-2.4-2c0.4-3.7-1.5-6.5-3.1-9.3
			c-1.9-3.4-3.7-7.1-6.4-9.8c-2.4-2.4-5.8-4.3-9.7-2.7c-2.6,1-4.2,0.3-5.4-2.3c-0.4-0.9-1.9-2.2-2.6-2.1c-3.8,1.1-8,1.8-11.1,4.1
			c-4.6,3.4-9.2,6.7-14.6,8.6c-1.3,0.5-2.8,0.7-3.8,1.5c-1.6,1.4-2.4,3.9-4.1,4.8c-5.6,3.2-6.8,8.8-8.2,14.1
			c-1.2,4.5-3.2,6.4-7.8,5.5c-4.5-0.9-8.8-2.5-13.2-3.6c-1.9-0.5-4.4-1.4-5.7-0.6c-2.5,1.5-5,3.7-6.3,6.2c-1.3,2.5,1,4.1,3.2,5.5
			c1.3,0.9,1.9,2.9,2.9,4.2c1,1.3,2.2,2.7,3.6,3.5c2,1.2,4.4,1.7,6.5,2.7c0.5,0.3,0.5,1.5,0.7,2.3c-3.7,1.1-1.3,3.1-0.5,4.5
			c4,6.8,3.8,7.2-4.2,7.8c-0.3,0-0.6-0.1-0.8,0c-1.4,0.8-2.8,1.7-4.2,2.6c1.1,1.1,2.1,2.4,3.4,3.3c0.8,0.5,2.1,0.2,3,0.6
			c2.3,1,4.5,2.2,6.9,3.1c1.2,0.5,2.6,1,3.9,0.8c1.7-0.2,3.2-1.1,4.8-1.7c0.6-0.2,1.2,0,1.8-0.1c-0.2,0.6-0.2,1.4-0.6,1.8
			c-1.2,1.3-2.9,2.3-3.8,3.8c-0.9,1.5-2,4.2-1.4,5c1.6,1.8,0.6,6.6,5.8,5c4.9-1.5,9.7-0.1,14,3.3c2.3,1.8,5.5,2.6,8.4,3.6
			c2.7,0.9,3.3-0.9,2.8-3.1c-0.6-2.7-1.5-5.3-2-8c-0.3-1.7-0.8-4.3,0.1-5.1c1.1-1.1,3.5-0.9,5.4-1c0.7-0.1,1.5,0.5,2.2,0.7
			c2.4,0.8,4,0.1,3.9-2.6c-0.1-3.8-0.5-7.5-0.8-11.3c-0.2-2.6-0.8-5.3-0.3-7.7c0.3-1.4,2.2-3.2,3.6-3.5c1.3-0.3,3.5,0.9,4.4,2.1
			c1.6,2.3,3.3,2.6,6,2.4c3.2-0.3,6.4,0.4,9.6,1c0.6,0.1,1.3,1.7,1.2,2.5c-0.1,0.8-1.1,1.7-1.9,2.1c-0.9,0.4-2.1,0.2-3.1,0.5
			c-3.7,1.2-6.2,7.4-3.6,9.8c3,2.8,2.5,5.1,0.1,7.6c-1.1,1.1-2.3,2.1-3.5,3c-3.3,2.6-3.3,7.2,0.1,9.5c2.2,1.4,1.9,3.2,1.3,5.1
			c-1.1,3.7,0.6,6.9,4.4,6.8c6.1-0.2,12.3-0.8,18.3-2c7.7-1.5,15.2-3.1,22.3,1.8c0.7,0.5,1.7,0.8,2.5,1c3.9,0.6,5.3,3.1,4.9,6.8
			c-0.5,4-1.3,8-1.8,12c-0.9,6.3,3.4,14.2,9,16.6c1.9,0.8,4.2,0.8,6.1,1.6c2.3,1,4.9,2.1,6.5,4c2.4,2.9,4,6.4,5.9,9.7
			c1,1.9,2.3,3.9,2.5,5.9c0.3,3.2-0.3,6.5-0.2,9.8c0,0.9,0.9,1.9,1.4,2.8c1-0.6,2.2-1,2.9-1.9c1.1-1.4,2-3.1,2.5-4.8
			c0.5-1.7,1-3.7,0.7-5.5c-1.1-6.3-4.4-11.6-7.9-16.8c-2.5-3.8-4.5-8.1-3.9-13.2c0.9-7.2,3.9-12,11.5-13c2.1-0.3,4.1-1.3,6.1-1.4
			c2.6-0.2,5.4,0,8,0.5c5.3,1,10.4,2.7,15.7,3.4c5.1,0.6,8-1.2,9.3-6c1.5-5.7,4.7-9.4,9.8-12c0.7-0.4,1.2-1.9,1.2-2.8
			c0-1.4-0.6-2.8-1.1-4.2c-2.7-8.6-0.9-13.1,7.1-17.5c3.6-2,7.1-4.2,11-5.3c4.4-1.2,3.7-3.6,2.9-6.7c-2.3-8.6,0.5-16.3,4.8-23.5
			c1.3-2.2,4-4.4,6.4-4.8c3.2-0.6,3.6-2.2,3.5-4.5c-0.1-2.1-0.7-4.2-0.6-6.3c0.1-2.6,0-5.4,1-7.7c1.7-4.4-0.2-7.9-4.8-8.2
			c-2.4-0.2-4.9-0.8-7.1-1.7c-5-2.2-10.1-4.4-14.6-7.4c-3.3-2.2-5.9-5.6-8.9-8.2c-3.1-2.7-6.7-3.9-11-2.7
			C870,394.4,866.1,395.1,862.1,396z M556.8,420.2c0.1,0.4,0.3,0.8,0.4,1.2c2.5-1,5.7-1.4,7.3-3.2c2.5-2.8,0.1-5.8-1.4-8.6
			c-1.7-3.1-3.1-6.3-4.5-9.6c-1.5-3.6-4-5.1-7.7-4.3c-4.7,0.9-6.2-0.2-6.5-4.9c-0.1-1.2,0.1-2.4,0.2-3.5c0.4-3.9-0.3-4.6-4.2-4.4
			c-0.7,0-1.6,0-2.1-0.5c-2.4-2.2-4.5-4.5-6.9-6.6c-1-0.9-2.4-1.2-3.7-1.8c-0.7,1.9-1.5,3.8-1.9,5.7c-0.1,0.7,0.8,1.6,1.1,2.4
			c1.9,4.4,0.4,11.7-3,12.7c-5.6,1.6-6.3,6.9-9.2,10.6c-1.2,1.6-0.2,3.1,2.3,3.1c1.5,0,3.7,0.1,4.3,1c3.9,5.6,10.8,6.6,15.7,10.7
			c1.6,1.3,4.4,1.6,6.7,1.5C548.1,421.5,552.4,420.7,556.8,420.2z M668.6,484.1c-3.5-1.1-8-2.1-12.1-3.9c-1.6-0.7-3.1-3.4-3.2-5.2
			c-0.1-3.6,0.8-7.2,1.6-10.8c0.8-3.8,1.8-7.5,2.7-11.2c0.4-1.4,0.9-2.9,1-4.3c0-0.9-0.6-2.3-1.2-2.5c-4.7-1.4-9.3-2.1-12.6,2.9
			c-1.5,2.3-3.3,4.4-4.6,6.8c-0.6,1.3-0.3,3-0.4,4.6c1.8,0,3.6,0.2,5.4-0.1c0.8-0.1,1.3-1.2,2.1-1.7c0.7-0.5,1.8-1.1,2.3-0.9
			c0.6,0.3,1.1,1.5,1.1,2.3c0,2.5-0.8,4.3-3.8,4.4c-2.4,0-5-0.3-7,0.7c-2,1.1-4.7,3.6-4.6,5.4c0.1,2.2,3.2,2.7,5.5,1.7
			c2.4-1,3.5,0.4,4.2,2.2c0.6,1.6,1,3.3,1.2,5c0.4,3.9,2.5,6.7,6,8.1c4.1,1.7,8.5,2.6,12.5,4.3c5.6,2.5,11.4,5.2,14.1,11.2
			c2.3,5,6.2,6.2,11.1,6.3c1.4,0,3.3,0.7,3.9,1.7c2.3,3.9,4.5,8.1,6.3,12.3c1.7,4.1,4.5,5.3,7.6,2.4c2.4-2.3,4.7-4.9,6.3-7.8
			c0.8-1.4,0.3-4-0.6-5.7c-1.3-2.5-3.3-4.8-5.1-7c-3.3-3.9-7.3-6-12.8-5.3c-2.7,0.4-6.2,0.2-8.1-1.3c-3.5-2.7-5.9-6.7-9.1-9.8
			C676,486.5,674.1,482.9,668.6,484.1z M551.6,434c-1.7,0.5-4.3,0.9-6.7,2c-2.7,1.2-3.5,3-1.3,5.9c2.8,3.6,4.8,7.8,7.3,11.6
			c1.3,2,3.1,3.6,4.6,5.4c1.5-1.7,3.1-3.4,4.3-5.2c1.4-2.2,9.1-4.7,10.7-3c3.3,3.6,6.4,1.1,9.7,0.5c1.3-0.2,3-0.3,4,0.3
			c2.8,1.8,5.3,4.2,8.2,5.8c2.2,1.3,3.3,0.3,3.8-2.5c0.5-2.7,1.7-5.6,3.5-7.5c1.6-1.8,0.9-2.2,0-3.7c-4.2-6.9-12.5-9.9-15.9-17.5
			c-0.4-0.9-1.9-1.2-2.9-1.8c-1-0.6-2.1-1.1-2.9-1.9c-4.1-4-7.2-3.2-10.7,1.3C563.4,428.6,560.9,435.8,551.6,434z M624.8,402
			c0.2-0.2,0.5-0.4,0.7-0.6c-1.7-2.3-3.3-4.6-5-6.9c-1-1.3-1.8-2.8-2.9-4c-0.9-0.9-2.1-1.9-3.2-1.9c-4.4,0-8.8,0.4-13.2,0.5
			c-1.8,0.1-3.7,0.3-5.4-0.2c-4.8-1.4-8.8-3.8-10.4-9c-0.3-0.8-1-1.5-1.7-2.1c-2.6-2.5-5.2-5.2-8-7.4c-1.3-1-3.2-1.3-4.9-1.6
			c-1.3-0.2-2.8,0-4.1,0.2c-1.7,0.3-3.9,0.4-5,1.5c-0.7,0.7,0,3,0.2,4.6c0.2,1.1,0.9,2.2,1.1,3.4c1,4.5,3.2,7.6,8.3,8
			c3,0.3,5,1.8,4.8,5.4c0,0.7,2,2.4,2.6,2.2c3.2-1.1,5.5,0.6,8.2,1.8c3.5,1.7,7.2,3.2,10.9,4.4c4.3,1.4,8.8,2,11.1,6.9
			c1,2.1,3.5,4.2,6.2,2.9c3.2-1.6,6.2-3.7,9.1-5.8C624.7,403.8,624.6,402.7,624.8,402z M587.4,312.4c0.3-0.1,0.7-0.1,1-0.2
			c-0.8-3-1.7-6-2.4-9.1c-0.4-2.2-0.4-4.4-0.7-6.6c-0.1-0.6-0.9-1.1-1.3-1.7c-0.4,0.4-1.2,0.8-1.3,1.3c-0.4,2.5-1.2,5.2-0.9,7.6
			c0.8,4.9-0.2,7.5-4.6,9.5c-4.6,2.1-5.1,5.8-0.9,8.5c2.2,1.4,2.5,2.7,1.2,4.8c-0.8,1.3-1.3,3-2.3,4c-2.8,2.7-1.6,5.5-0.6,8.4
			c1,2.6,2.7,4,5.7,3.9c0.7,0,2,0.7,2.1,1.2c0.1,0.9-0.3,2.1-0.9,2.7c-0.8,0.8-2.1,1-3.1,1.5c-2.8,1.3-5.3,3-5.8,6.4
			c-0.4,2.7,2.7,8.5,5,9.4c2.7,1.1,9.8-1.1,11.8-3.6c2.7-3.6,2.8-3.6,5.5-0.2c1.8,2.3,3.8,2,4.2-0.5c0.5-3.1,0.9-7.6-0.8-9.3
			c-4.3-4.1-5.4-8.9-6.1-14.2c-0.5-3.4-1.5-6.6-2.2-10C589.2,321.6,588.3,317,587.4,312.4z M519.1,281.5c-0.9,0.6-2.2,1.6-3.6,2.6
			c1.2,1.1,2.2,2.3,3.6,3.2c1.8,1.2,4.5,1.6,5.7,3.1c2.8,3.5,4.7,7.9,9.1,10c0.4,0.2,0.5,0.9,0.7,1.4c1.4,4.6,2.9,9.2,4.2,13.9
			c1,3.6,3.5,4.9,6.8,3c4-2.4,7.7-3.3,12-0.1c1.2,0.9,4.1-0.3,6.1-0.9c0.6-0.2,1.2-1.4,1.2-2.1c-0.2-2.9-0.5-5.7-1.1-8.5
			c-0.6-2.5-1.2-5.1-2.6-7.2c-3-4.6-7.2-7.9-12.7-9.3c-0.9-0.2-2-0.7-2.3-1.3c-2.5-5.2-8.4-2.7-11.9-5.7c-4.6,2.3-8.5-0.8-12.7-1.6
			C521.1,281.8,520.6,281.7,519.1,281.5z M654.1,527.3c-0.1-4.6,3.2-8.3,7.6-9.5c2.1-0.6,6,2.3,7.3,5.3c0.4,0.8,0.8,1.7,1.2,2.5
			c2.9,5.6,6.5,10.9,8.5,16.8c2.9,8.6,9.7,12.5,16.7,16.5c2.2,1.3,3.7-0.2,4.6-2.2c1-2.1-0.4-2.8-1.9-3.9c-3.4-2.7-6.8-5.5-9.4-8.9
			c-3.3-4.4-5.1-9.8-8.5-14c-5.4-6.8-11.6-13-17.6-19.4c-1.2-1.3-2.7-1.5-3.9,0.4c-0.6,1.1-1.8,1.9-2.6,2.8c-2,2.2-4.3,4.1-6,6.5
			c-1.7,2.4-2.7,5.3-4.2,7.9c-2.3,3.9-1.7,7.4,1.8,10.6c3.2,3.1,6.7,6.4,5.6,11.4c-1.6,8-3.7,15.9-5.4,23.8
			c-0.3,1.3,0.2,2.8,0.3,4.2c1.4-0.6,3.6-0.7,4.2-1.8c3.3-5.4,8.5-10.1,7.5-17.4c-0.7-5-0.7-10.1-1.7-15
			C657.1,537.9,655.4,532.3,654.1,527.3z M547.7,344.9c1.7,0.9,3.1,1.6,4.5,2.3c-1.1,1.1-2.3,2.2-3.5,3.3c-0.3,0.2-0.8,0.2-1.1,0.5
			c-2.3,1.9-4.9,3.5-6.6,5.8c-0.6,0.8,1.1,3.3,1.7,5.1c0.4,1,0.6,2.1,0.9,3.2c1.2-1,2.6-1.8,3.6-3c0.8-1,1-2.4,1.7-3.6
			c1.8-3.3,7-5.1,9.5-3.2c2.2,1.6,4.4,2.2,6.1-0.3c2.6-3.6,2-5.1-0.8-7.6c-4.1-3.6-8-7.4-11.7-11.5c-2.4-2.7-4.2-2.7-7.3-0.8
			c-2.5,1.5-5.8,2.8-8.6,2.6c-7.6-0.7-9.1-0.1-12.6,6.7c-1.2,2.4-2.5,5.5-4.7,6.6c-4.5,2.2-6.2,5.4-6.2,10.1c0,3,0.1,6.1-0.5,9
			c-0.9,4.6-2.3,9-3.6,13.5c-0.4,1.6-1.1,3.3,1.5,3.4c1.6,0.1,7.2-5.3,7.2-7c-0.1-3.3-0.5-6.7-0.6-10c-0.1-2.2-0.4-4.5,0.1-6.6
			c1.1-5.1,4.3-8.3,8.7-11.3C532.4,347.4,540.6,348.6,547.7,344.9z M608.8,459.9c-0.2-0.4-0.7-1.4-1.2-2.3c-0.8,0.9-1.8,1.7-2.3,2.8
			c-0.4,0.9-0.2,2.1-0.4,3.1c-1.9,9.1,2.8,17.3,11.5,20.1c1.2,0.4,2.6,0.6,3.8,1.1c2.9,1.1,5.9,2.2,8.6,3.7c1,0.6,1.3,2.6,1.9,3.9
			c-1.4,0.3-2.9,0.8-4.3,0.7c-1.4-0.1-2.7-1.2-4-1.5c-1.4-0.2-3.5-0.3-4.1,0.4c-1.1,1.3-1.8,3.4-1.6,5c0.2,2,1.6,3.8,2.4,5.7
			c1.5,3.6,3.7,3,6.7,1.9c2.1-0.7,4.7-0.5,6.9,0.1c1.5,0.4,2.6,2.1,4,3.1c0.6,0.4,1.8,0.8,2.3,0.5c3.1-2,3-2,1-5.7
			c-0.9-1.7-1.4-3.6-1.7-5.5c-3.1-15.2-7.7-18.4-19.7-18.1c-3.1,0.1-4.2-1.5-5-3c-0.8-1.4-0.9-4.2,0-5.3c2.1-2.5,0.5-3.3-1.1-4.6
			C610.8,464.5,607.9,463.8,608.8,459.9z M823.3,576.8c-0.1,0.3-0.3,0.6-0.4,1c-2.7-0.9-5.5-1.7-8-2.8c-2.9-1.3-7.9-10.3-7-13
			c1.3-3.8-0.4-5.7-3.2-7.4c-0.6-0.4-1.4-0.5-2.1-0.8c-0.2,0.7-0.7,1.4-0.7,2.1c0.3,7-3,11.9-8.3,16.1c-3.3,2.7-7.8,5.1-6.4,10.8
			c0.1,0.5-0.6,1.4-0.5,1.9c0.6,1.7,1.1,4,2.4,4.6c1.2,0.6,3.8-0.1,5-1.2c2.6-2.5,4.6-5.7,7.1-8.2c1.2-1.2,3.4-2.6,4.7-2.3
			c4.1,1,8.1,2.7,12,4.3c1,0.4,1.8,1.5,2.7,1.5c1.5,0,3.3-0.4,4.3-1.2c0.7-0.6,0.8-2.5,0.6-3.7C825.5,577.7,824.1,577.3,823.3,576.8
			z M566.3,255.4c0.3,0,0.6,0,0.9-0.1c-0.3-1.2-0.3-2.8-1-3.7c-2.8-3.2-5.8-6.4-8.9-9.3c-0.9-0.9-2.8-0.8-4.2-1.1
			c-0.3,1.6-0.6,3.2-0.8,4.9c-0.1,0.6,0.3,1.3,0.7,1.8c1.9,2.3,1.2,4.2-0.6,6.2c-1.8,2-1.8,8.9-0.3,10.8c2.2,2.9,4.2,6,6.5,8.7
			c0.9,1.1,2.6,2.3,3.7,2.2c1.1-0.1,2.5-1.7,3.1-3c0.7-1.5,0.8-3.3,0.9-5C566.4,263.8,566.3,259.6,566.3,255.4z M619.2,466.9
			c4.3-1.2,8.3-2.2,12.3-3.5c0.6-0.2,1-2.3,0.7-3.2c-2.8-7.1-2.5-14.3-1.3-21.6c0.6-3.6,0.7-7.5,0.4-11.1c-0.2-2.4-1.7-4.6-2.6-6.9
			c-1-2.8-2.8-3.4-5-1.5c-1.2,1-2.4,2.1-3.2,3.4c-0.5,0.8-0.7,2.9-0.3,3.1c4.1,2.3,3.1,6.4,3.5,9.8c0.6,4.7,1,9.4,1,14.1
			c0,5.2-3.1,9.3-6,13.4c-0.6,0.9-0.9,2.1-1,3.2C617.5,466.2,618.6,466.6,619.2,466.9z M718.4,565.3c-0.1-0.4-0.2-0.8-0.3-1.2
			c-2.4,1.5-4.7,3-7.1,4.6c-0.2,0.1-0.3,0.9-0.2,1c0.4,0.3,0.9,0.5,1.4,0.5c5.8-0.1,11.5,0.3,17.4,1.2c6.8,1.1,12.7,3.3,18.5,6.7
			c2,1.2,4,2.7,6.2,3.4c1.2,0.4,3.6-0.3,4.2-1.3c3.1-4.8,1.9-8.5-3.7-9.6c-7.8-1.6-15.3-5.1-23.7-4.3
			C726.9,566.6,722.6,565.7,718.4,565.3z M773.7,523c0.2-4.3-4.2-8.8-7.1-7.2c-2.4,1.3-4.8,3.4-6.1,5.7c-3,5.4-5.4,11.2-8,16.8
			c-0.8,1.7-1.5,3.4-1.8,5.2c-0.2,1.1,0.6,2.3,0.9,3.5c0.9-0.7,1.8-1.3,2.7-2c0.8-0.7,1.5-1.8,2.4-2.3c7.4-4.4,12-11.3,16.6-18.2
			C773.5,524.1,773.6,523.3,773.7,523z M525.3,458.6c-0.1,2.6,1.3,4.6,3.2,6.4c3.5,3.3,6.9,6.6,9.7,10.4c2.8,3.8,7.1,4.8,10.4,2
			c2.9-2.5,6.3-4.4,9.5-6.5c1.2-0.8,2.5-1.5,3.4-2.6c0.6-0.7,1.1-2.4,0.7-2.9c-0.5-0.7-2.1-1.3-3-1.1c-2.1,0.6-4.1,1.6-6.2,2.5
			c-5.7,2.6-11.6,1.2-16.4-2.3c-2.9-2.1-4.6-4.6-6.4-7.5c-0.9-1.4-3.2-2-4.9-2.9c0,1.2,0.1,2.5,0.1,3.7
			C525.4,458.1,525.3,458.4,525.3,458.6z M597.1,493.1c1-3.8-1.5-5.2-4-6.5c-2.7-1.4-3.6,1.3-5.1,2.6c-1.7,1.4-3.3,2.9-5,4.4
			c-3.2,2.8-3.1,6.3-0.1,9.4c1.1,1.1,1.7,2.8,2.3,4.4c0.5,1.3,0.4,2.9,0.9,4.2c1.3,3.2,3.5,3.5,5.4,0.6
			C595.2,506.4,599.2,500.6,597.1,493.1z M727.5,604.8c0.1,0.3,0.4,1.7,0.8,1.8c0.8,0.1,2-0.3,2.6-0.9c1.3-1.2,2.5-2.7,3.6-4.2
			c4.2-5.9,4.2-7,0.4-11.9c-0.8-1.1-2.1-1.8-3.1-2.6c-0.9,1.3-2.4,2.6-2.6,4.1C728.4,595.4,728.1,599.8,727.5,604.8z M524.5,442.6
			c-0.3-1.1-0.4-1.8-0.7-2.3c-3.4-4.1-6.9-8.2-10.4-12.3c-0.6-0.7-1.7-0.9-2.5-1.3c-0.4,1.2-1,2.4-1.1,3.6c-0.1,0.7,0.4,1.5,0.8,2.2
			c2.9,4.2,5.8,8.3,8.8,12.4c0.5,0.6,2.1,1,2.7,0.7C523.1,444.8,523.8,443.5,524.5,442.6z M562.4,495.1c1.7-1.1,2.6-1.5,3.2-2.1
			c1.5-1.5,2.7-3.2,4.3-4.6c1.4-1.3,3.2-2.3,4.7-3.6c0.5-0.4,0.7-1.3,1-1.9c-0.7-0.2-1.3-0.5-2-0.7c-2.1-0.4-4.3-0.7-6.4-1.3
			c-2.4-0.7-3.7-0.3-4.1,2.5c-0.4,2.5-1.3,4.9-1.7,7.5C561.3,492.1,562,493.4,562.4,495.1z M581.7,464c-0.9,0-1.2-0.1-1.4,0
			c-1.2,0.6-2.4,1.2-3.5,1.8c1,0.5,1.9,1.1,2.9,1.4c5.4,1.8,10.9,3.5,16.3,5.2c0.9,0.3,1.9,0.2,2.9,0.3c-0.4-1-0.6-2.1-1.2-2.9
			C593.3,464.3,586.7,465.6,581.7,464z M508.5,326.3c-0.9-1.9-1.1-3.4-1.9-4.2c-2.6-2.4-5.4-4.7-8.3-6.9c-0.5-0.4-1.9-0.3-2.5,0.1
			c-0.4,0.3-0.5,1.8-0.1,2.3c0.6,1,1.6,2.2,2.6,2.5c2.2,0.4,2.7,1.6,2.5,3.6c-0.1,0.9-0.1,2,0.4,2.7c1,1.4,2.3,2.5,3.5,3.7
			C506,328.8,507.3,327.5,508.5,326.3z M606.7,451c-0.9,4.1,2.2,4.1,3.6,4.4c1.5,0.3,3.6-0.7,4.9-1.7c0.6-0.5,0.5-2.6,0.1-3.7
			c-1.5-3.5-6.2-5.1-9.8-3.9c-2,0.7-2,1.3-0.7,2.6C605.6,449.5,606.3,450.5,606.7,451z M547,504.8c0.6,2.1,1.2,4.2,1.9,6.2
			c0.2,0.6,1.2,1.2,1.8,1.1c0.5-0.1,1-1,1.3-1.7c1.1-2.1,2-4.2,3.1-6.2c0.7-1.2,1.6-2.3,2.4-3.4c-1.4-0.2-2.8-0.3-4.2-0.5
			C547.7,499.8,547.7,499.8,547,504.8z M726.4,550.9c-1.9-1.8-3.1-3.9-4.8-4.3c-2.7-0.6-6,4.4-5.1,7c0.1,0.4,0.9,1,1.3,1
			c1.8-0.1,3.7-0.1,5.4-0.7C724.2,553.7,724.8,552.4,726.4,550.9z M550.7,223.7c-2.9-0.7-4.6,1.6-4.2,3.9c0.3,1.5,3.1,2.6,4.8,3.9
			c1.1-1.4,2.7-2.7,3-4.3C554.7,225,553.8,223.1,550.7,223.7z M525.2,333.6c0.3-0.6,1.3-2.4,1.2-2.5c-2.4-1.8-5-3.3-7.6-4.8
			c-0.2-0.1-1.4,0.8-1.3,1.1C517.6,330.2,521.5,333.7,525.2,333.6z M583.1,415c0-0.5,0-1,0-1.5c-1.7-1-3.3-2.5-5-2.7
			c-0.9-0.1-2.1,2-3.2,3.2c1.4,1.1,2.7,2.7,4.3,3.1C580.4,417.3,581.8,415.7,583.1,415z M770.4,561c0.2,0.3,0.6,1.7,1.2,1.8
			c0.9,0.1,2.3-0.4,2.8-1.1c1.5-2.1,2.7-4.4,4-6.7c0.1-0.2-0.1-1-0.3-1C776,553.5,770.7,557.8,770.4,561z"/>
		<path d="M803.9,239.6c-0.2,4.2-0.6,8.4-0.6,12.6c0,1.6,0.8,3.3,1,4.9c0.1,1.5,0.2,3.3-0.4,4.6c-2.8,5.2-0.4,15.3,4.6,17.8
			c0.7,0.4,1.6,1,2.2,0.8c4.7-1.3,3.2,1.5,2.6,3.8c-1.3,4.4-3.1,8.3-6.7,11.3c-1.1,0.9-2,2.5-2.5,3.9c-1.9,5.9-6.8,9.2-11.2,12.8
			c-0.5,0.4-1.2,0.8-1.8,0.8c-8.4-0.6-10.1,6.2-12.5,11.8c-1.5,3.4-2.3,6.2-7,6.6c-2.9,0.2-5.2,2.1-5.3,6.4c0,4.5-2.1,9.1-3.4,13.5
			c-0.9,2.9,1,8.5,4.1,10.2c3.1,1.7,5-0.5,7.2-2.6c3.4-3.2,7.9-5.5,8.8-10.7c0.7-3.7,1-7.5,1.5-11.3c0.7-4.6,2.4-9,7-10.6
			c5.3-1.9,10.6-0.5,14.5,3.6c1.3,1.4,1.5,4.3,1.4,6.6c0,1.7,0.2,2,1.8,2.5c3.7,1.2,7.2,3.1,11.4,1.3c0.7-0.3,2.1,1,3.1,1.7
			c0.4,0.3,0.4,0.9,0.7,1.4c3.4,7.1,3.8,7.4,9.8,5.4c6.1-2,8.4-5.6,7.2-11.5c-1-5.3,3.4-12.7,8.8-14.3c0.7-0.2,1.6-0.3,2.2,0
			c1.9,0.9,3.7,2.1,5.5,3.2c1.8,1,2.1,4.3,0.3,5.8c-3.8,3.2-6.5,7.2-6.7,12c-0.3,6.5-5.3,9-9.5,11.4c-5.1,2.9-10.6,5.8-16.8,5.6
			c-1.3,0-2.6,0.1-3.8-0.2c-4.8-1.7-9.4-4-14.4-5.1c-3.2-0.8-7-0.7-10,0.3c-4,1.4-7.5,4.2-11.3,6.2c-2.5,1.3-5.4,2.1-7.7,3.7
			c-3.7,2.6-7.1,5.8-10.8,8.4c-4.6,3.2-8.9,2.2-11.2-3.1c-2.3-5.2-4.4-10.6-5.8-16.1c-1.3-5.2-3-10.3-7-13.8c-2.3-2-6-3-9.2-3.2
			c-4.3-0.3-8.2-1.9-10.1-5.7c-0.5-0.9-1.4-1.6-1.6-2.6c-0.6-3.3-2.9-2.5-4.8-2c-3.6,1.1-7.1,2.4-10.7,3.6c-0.7,0.2-1.5,0-2.2-0.1
			c0.2-0.8,0-2,0.5-2.5c2.2-1.9,4.5-4.1,7.1-5.3c5.7-2.8,4.2-7.6,3.4-11.9c-0.7-3.7-0.7-6.9,1.1-10.2c0.6-1.1,0.8-2.7,0.5-4
			c-0.8-4.4-2.1-8.5-5.8-11.6c-3.1-2.6-3.3-10.3-0.6-13.2c1.9-2.1,4.3-1.7,5.9,0.2c3.8,4.5,8.8,6.4,14.4,7.3c1.6,0.3,3,2.1,4.3,3.5
			c1,1,1.4,2.5,2.3,3.6c4.1,4.7,4.1,4.6,9.6,1.5c1.2-0.7,2.7-1.1,4-1.2c3.5-0.3,5.4-2.2,5.4-5.5c-0.1-6.7,4.7-7.8,10.6-5.9
			c0.7,0.2,1.5,1,2.1,0.9c8.1-1.8,8.5,6.6,12.8,9.8c1.7,1.3-0.7,5-3.3,5.2c-4.1,0.5-6.6-1.7-8.7-4.9c-3.8-5.9-6.1-5.8-10.1,0.3
			c-1.7,2.6-2.9,5-2.8,8.3c0.1,3.3-1.9,6.7-5.3,6.7c-2.4,0-4.9-2.5-7.3-4.1c-0.6-0.4-0.5-1.7-1-2.5c-1.1-1.9-2.6-2.4-3.8-0.2
			c-1.6,3-3.7,4.3-7.3,3.8c-2.5-0.4-4,1.5-4.2,4.1c-0.4,5.3,4.1,10.6,9.5,11.2c5.7,0.7,8.4,3.5,8.6,9.1c0,1,0,2.1,0.4,3.1
			c0.9,2.6,2.2,6.2,5,5.4c1.8-0.5,2.8-4.5,3.7-7.1c0.5-1.5-0.2-3.4,0.2-5c0.2-1,1.3-2.3,2.2-2.5c0.8-0.2,2.4,0.8,2.8,1.6
			c2.1,5.3,8.3,3.9,11.6,7.3c0.4,0.4,3.4-0.7,3.7-1.7c0.5-1.4,0.1-3.8-0.9-4.7c-4-3.6-8.6-6.7-12.6-10.3c-4.1-3.6-2.3-11.9,2.8-13.8
			c2.9-1.1,6.8,1.1,8.4,4.8c1,2.3,2.1,4.5,3.2,6.7c1.8,3.4,5.8,3.5,8,0.2c3.7-5.3,7.6-10.5,10.9-16.1c0.9-1.5,0.1-4.2-0.3-6.3
			c-0.2-1.4-1-2.7-1.7-4c-2.7-4.8-2.4-10.3-2.1-15.3c0.3-5.5,3-10.9,4.8-16.4c1.6-4.7,2.4-9.1,0-14c-2-4-3-8.7-3.6-13.2
			c-0.2-1.6,1.7-3.6,2.7-5.4c0.6,0.4,1.6,0.6,1.8,1.1c2.6,6.8,5.1,13.7,7.6,20.5C804.6,239.3,804.2,239.5,803.9,239.6z"/>
		<path d="M895.3,314.7c0-0.1-0.1-0.3,0-0.4c2.5-5.3,4.7-10.6,7.5-15.7c0.9-1.5,3.5-2,5.2-3c0.6-0.4,1.7-1.1,1.6-1.4
			c-0.2-0.7-0.8-1.6-1.5-1.9c-1.2-0.5-2.5-0.6-3.8-1c-3.2-0.9-5.2-2.8-5.9-6.2c-0.7-3.3,0.4-5.8,2.9-8.1c1.5-1.4,2.2-3.5,3.3-5.3
			c-1.9-1-3.7-2.3-5.6-2.8c-3.2-0.8-6-3.3-6.2-7.6c-0.2-5.6-2.4-8.5-8-9.9c-4.9-1.2-9.5-3.7-14.2-5.7c-0.8-0.4-1.4-1.3-2.1-2
			c0.9-0.2,1.7-0.3,2.6-0.5c2.1-0.3,4.2-0.4,6.2-0.8c3.1-0.7,5.6-0.6,7.6,2.4c0.9,1.2,2.6,2.2,4.2,2.6c5.8,1.3,8.3,3.7,8.2,9.6
			c-0.1,4.4,0.6,7.4,5.6,8.8c3.7,1.1,4.7,9.1,2,12.4c-3.6,4.4-3.1,6.4,2,8.8c0.6,0.3,1.2,0.5,1.8,0.7c6,2.2,6.8,5.3,2.1,9.8
			c-5.1,4.9-8.2,10.5-8.1,17.7c0.1,2.3,0.4,5.1-3,5.5C897.3,321.1,895.3,318.2,895.3,314.7z"/>
		<path d="M837.7,304.9c-1,2.4-2.8,7-4.8,11.5c-0.3,0.7-1.8,0.9-2.6,1.5c-1.5,0.9-3.3,1.7-4.2,3c-1.4,2-2.7,2.7-4.9,1.8
			c-2.6-1.1-2.8-3.6-1.7-5.3c2-2.9,0.8-4.9-0.6-7.5c-0.8-1.5-1.4-4.3-0.5-5.4c2.2-2.8,2.2-5.7,2.3-8.9c0.2-5.3,2.7-7.8,7.7-7.9
			c0.6,0,1.5-0.1,1.8,0.3C833.8,292.3,838.5,296,837.7,304.9z"/>
		<path d="M674.2,197.6c-1.6,0.7-3.4,1.2-4.8,2.2c-4.8,3.4-9.3,1.7-10.4-4c-0.2-1.2-0.3-2.4-0.3-3.5c0.1-4.4,1.9-5.9,6.3-5.3
			c0.8,0.1,1.6,0.2,2.3,0.6c7.5,4,14.9,3,22.4-0.1c0.9-0.4,2.3,0,3.3,0.3c1.2,0.4,2.4,1.1,3.5,1.8c1.3,0.7,2.5,1.6,3.7,2.4
			c-1.1,1.6-2,3.2-3.2,4.7c-0.4,0.5-1.2,0.6-1.8,0.8c-2.2,0.9-3.5,2.2-2.6,4.9c0.3,0.8-0.2,1.9-0.4,2.8c-1-0.3-2.5-0.3-3-1.1
			c-3.8-4.9-7.4-10-15-5.3C674.2,198.4,674.2,198,674.2,197.6z"/>
		<path d="M839.5,254.8c-5.4,2.5-5.3,2.4-10-2.5c-3.9-4.1-8.2-7.7-12.3-11.5c-2.5-2.3-3.5-5.2-3.9-8.7c-0.4-3.1-2.1-6.1-3.4-9
			c-2-4.6-4.2-9.2-6.3-13.9c-0.2-0.4,0-1.4,0.1-1.4c0.5-0.1,1.4-0.2,1.7,0.1c1.6,1.7,3.1,3.5,4.7,5.2c4.6,5,7.9,10.7,11.2,16.6
			c3.3,5.8,8.4,10.6,12.5,16C836,248.5,837.6,251.7,839.5,254.8L839.5,254.8z"/>
		<path d="M876.2,299.8c0.2,4.6-2.6,7.1-6.2,8.8c-2.3,1.1-3.9-0.2-3.5-2.8c0.3-1.8,1.8-4.5,1-5.3c-1.7-2-4.3-3.6-6.8-4.4
			c-6.5-1.9-9.2-6.8-11-12.6c-0.2-0.5-0.3-1-0.4-1.5c-0.2-2.5-0.4-4.9-0.6-7.4c2.2,0.2,4.5,0.4,6.7,0.6c2,0.1,4-0.1,5.9,0.2
			c1,0.2,2.3,0.8,2.7,1.7c0.3,0.5-0.7,2.1-1.5,2.6c-2.6,1.7-4.5,4.2-3.4,6.8c0.9,2,3.6,3.4,5.8,4.5c2.3,1.2,5.2,1.2,7.3,2.6
			c2,1.3,3.2,3.7,4.7,5.6C876.8,299.5,876.5,299.7,876.2,299.8z"/>
		<path d="M915.5,389.1c0-1-0.3-2,0.1-2.5c1.4-1.7,3-3.3,4.7-4.7c6-4.9,6.1-9.8,1.3-15.8c-2.7-3.4-5-7.4-6.3-11.6
			c-1.8-5.6,2-10.2,7.8-10.5c0.4,0,0.7,0.1,1.1,0.1c-0.1,0.4-0.1,1-0.4,1.3c-0.7,0.8-1.6,1.4-2.3,2.2c-3,3.4-1.8,8.1,2.7,9
			c3.2,0.7,4.6,2,5.1,5.3c0.6,4.5,1.8,8.9,2.7,13.4c0.5,2.6-3.2,9.1-5.7,10.1c-2.7,1.1-5.4,2.1-8.1,3.1
			C917.7,388.8,917.1,388.8,915.5,389.1z"/>
		<path d="M790.3,191.4c1.5,0.5,3.7,1.1,5.8,2.1c0.6,0.3,0.9,1.3,1.3,2c-0.7,0-1.4,0.1-2.2,0c-3-0.2-6-0.7-8.9-0.6
			c-3.7,0.1-5.4,2.5-4.4,6.1c1,3.7,0.5,5.1-3.7,7c-4.6,2.1-7.8,7.3-11.6,11.2c-2,2-3.9,4.1-5.9,6c-0.3,0.3-1.1,0.1-1.7,0.1
			c0.1-0.6-0.1-1.3,0.2-1.8c0.7-1.1,1.4-2.3,2.3-3.2c6.3-6,8.3-13.8,9.2-22c0.4-3.4,2-4.7,4.7-5.1
			C780,192.5,784.7,192.1,790.3,191.4z"/>
		<path d="M870.7,357.1c-2.6-1.8-4.7-3.3-6.7-4.8c-2.7-2-1.6-3.9-0.6-6.7c1.3-3.6,3.1-6.5,5.8-9c1.9-1.7,3.2-1.2,4.2,1
			c1.6,3.6,3.4,7.2,4.9,10.9c0.4,1,0.3,3-0.4,3.6C875.8,353.9,873.4,355.3,870.7,357.1z"/>
		<path d="M832.8,284c-0.8-0.7-2.1-1.4-2.7-2.5c-1.4-2.6-2.4-5.5-3.7-8.2c-1.4-2.8-2.9-5.5-4.4-8.2c-0.4-0.8-1.1-1.6-1.1-2.5
			c-0.1-1.1,0.3-2.2,0.5-3.2c1,0.2,2,0.4,3,0.7c0.3,0.1,0.6,0.5,0.9,0.8c5.2,5.9,10.3,11.7,15.4,17.6c0.7,0.8,0.9,2,1.3,3
			c-1,0.3-1.9,0.6-2.9,0.9C837.3,282.9,835.4,283.3,832.8,284z"/>
		<path d="M898.4,378.7c0.5-1.2,1.2-3,1.7-4.8c0.9-2.8,1.7-5.7,2.6-8.5c0.4-1,1.2-1.8,1.8-2.7c0.7,0.7,1.7,1.3,2.1,2.1
			c3.2,6.1,1.8,15.5-3.1,20c-1.8,1.7-3.5,0.9-4.4-1C898.7,382.4,898.7,380.9,898.4,378.7z"/>
		<path d="M905.1,334.4c0.8-2.8,6.3-11,8.3-11.5c0.4-0.1,1.7,1.1,1.7,1.5c-0.9,4.1-0.7,7.8,2.5,10.9c0.3,0.3,0.1,1.7-0.1,1.7
			c-2.8,0.7-5.7,1.9-8.5,1.7C907.6,338.6,906.4,335.9,905.1,334.4z"/>
		<path d="M665,247.4c-4.4-0.1-6.3-2.9-4.8-7.1c0.5-1.3,0.5-3.1,1.4-4c1.3-1.2,3.2-2.2,4.8-2.3c0.9,0,2.1,2,2.7,3.3
			c0.6,1.3,0.6,2.8,0.9,4.2C671,246.4,670,247.5,665,247.4z"/>
		<path d="M931.9,390.8c0,4.6,0,9.1,0,13.7c0,0.8-0.5,2.3-0.8,2.3c-1,0-2.3-0.2-2.8-0.9c-5.1-5.9-6.2-4.6-1.4-11.8
			c1.4-2,1.9-4.6,2.9-6.8c0.4-0.8,1.2-1.4,1.8-2.1c0.3,0.8,0.7,1.6,0.8,2.5c0.1,1,0,2.1,0,3.1C932.3,390.8,932.1,390.8,931.9,390.8z
			"/>
		<path d="M745.4,231.9c-1.2,1.6-2.1,4.1-3.5,4.5c-2.3,0.6-4-1.2-4.4-3.8c-0.6-3.7-1.6-7.4-1.9-11.1c-0.1-1.2,1.4-2.5,2.1-3.7
			c0.9,1,2,1.8,2.6,2.9c1.6,3.1,3,6.4,4.4,9.6c0.2,0.3,0.1,0.8,0.1,1.2C744.9,231.6,745.2,231.7,745.4,231.9z"/>
		<path d="M859.9,306.8c0.4,0.2,1.6,0.6,2.7,1.1c-0.9,0.9-1.8,1.7-2.6,2.6c-2.3,2.3-4.5,4.7-6.8,7c-0.6,0.6-1.5,1.7-1.9,1.5
			c-0.8-0.3-1.7-1.2-2.1-2c-2.3-4.9,2.3-7.9,7.8-10C857.7,306.8,858.4,306.9,859.9,306.8z"/>
		<path d="M879.8,556.7c0.2-1.6,0.1-2.1,0.3-2.5c3.4-5.3,6.8-10.6,10.2-15.8c1.1-1.8,2-3.7,3.3-5.4c0.4-0.6,1.4-0.7,2.2-1
			c0,0.7,0.3,1.6,0,2.2c-2.7,5.2-5.1,10.6-8.3,15.6C885.8,552.3,882.9,554,879.8,556.7z"/>
		<path d="M878,221.5c-4.4-5.3-8.7-10.7-13.2-15.9c-3.4-3.9-7.2-7.6-10.8-11.5c-0.3-0.3-0.3-0.9-0.5-1.4c0.3,0,0.8,0,1,0.2
			c6.8,6.8,13.8,13.5,20.3,20.6c1.8,2,2.6,5,3.8,7.6C878.5,221.2,878.3,221.3,878,221.5z"/>
		<path d="M916.7,490.2c-0.3,0.7-0.5,1.3-0.7,1.9c-1.3,4.2-2.3,8.5-4,12.6c-1.3,3.2-3.4,6.1-5.2,9.1c-0.3,0.4-1.1,0.5-1.7,0.8
			c-0.1-0.5-0.3-1-0.1-1.4c3.2-7.8,6.5-15.7,9.8-23.5c0.2-0.4,0.7-0.5,1.1-0.8C916.2,489.3,916.4,489.8,916.7,490.2z"/>
		<path d="M709.7,260.7c1.2,0.2,2.7,0.1,3.6,0.8c0.9,0.7,1.9,2.8,1.5,3.2c-1.1,1.3-2.7,2.3-4.2,3c-0.8,0.4-2-0.3-3.1-0.3
			c-2.2-0.1-3.9-0.8-3.8-3.4c0.1-2.5,1.9-2.8,3.9-2.9c0.7,0,1.3,0,2,0C709.7,261,709.7,260.8,709.7,260.7z"/>
		<path d="M839.5,254.8c2.9,0.9,5.8,1.6,8.6,2.6c2.4,0.8,4.8,1.9,7.1,3c0.9,0.4,1.6,1.1,2.4,1.7c-0.9,0.3-1.7,0.8-2.6,0.7
			c-1.7,0-3.4-0.4-5.1-0.4C844.7,262.2,842,258.6,839.5,254.8L839.5,254.8z"/>
		<path d="M897.4,247.1c0.3,0.6,0.6,1.2,1,1.7c5.1,6.1,7.9,13.4,10.2,20.9c0.1,0.3-0.3,0.8-0.4,1.2c-0.3-0.4-0.8-0.7-1-1.1
			c-2.1-4.2-4.1-8.5-6.3-12.6c-1.4-2.6-3.2-5.1-4.6-7.7c-0.3-0.5,0-1.3,0-2C896.6,247.4,897,247.3,897.4,247.1z"/>
		<path d="M892.7,335.1c-4.9-0.5-9.8-7.4-8.8-11.2c0.1-0.3,1.3-0.6,1.4-0.5c2.6,3.3,5.2,6.6,7.6,10
			C893.2,333.7,892.8,334.6,892.7,335.1z"/>
		<path d="M705.8,210.3c2.5,2,4.2,3.5,6,4.9c-1.7,1-3.5,2.9-5,2.7c-1.4-0.2-2.7-2.6-3.6-4.2C703,213.3,704.6,211.9,705.8,210.3z"/>
		<path d="M882.8,316.5c1.3-3.6,2.5-7,3.8-10.4c0.2-0.6,1-1,1.5-1.5c0.3,0.8,1,1.7,0.8,2.4c-0.7,2.5-1.6,4.9-2.5,7.3
			c-0.3,0.9-0.7,1.7-1,2.5c-0.3,0.8-0.6,1.6-1,2.4C883.9,318.3,883.4,317.4,882.8,316.5z"/>
		<path d="M849.5,512.7c-4.3,0.4-8.8,0.2-12.9,1.2c-3.3,0.8-6.1,3.3-9.2,4.9c-0.9,0.5-2.1,0.7-3.1,1c0.2-1.2-0.1-3,0.6-3.6
			c5-4.3,8.7-9.8,9.8-15.8c1.2-7.1,6.5-9.9,10.4-14.4c3.7-4.2,6.9-8.8,10.7-12.9c1-1.1,2.9-1.6,4.4-1.8c4.8-0.7,8.7-1.7,11.4-6.7
			c5.2-9.4,11.4-18.4,17.3-27.4c1-1.5,2.9-2.8,4.6-3.5c2.5-1,4.4-1.9,5-4.9c0.2-0.9,1.8-1.4,2.7-2.1c0.3,1,1.1,2.2,0.8,3.1
			c-1.2,3.4-2.8,6.7-4.2,10.1c-2.3,5.7-4.1,11.7-6.7,17.2c-2.5,5.2-5.3,10.4-8.9,14.8c-4.5,5.6-9.8,10.7-16.8,13.2
			c-6.8,2.4-8.9,8.1-9.8,14.4c-0.1,1,0.6,2.6,1.5,3.3c1.6,1.3,3.7,2,5.3,3.3c1,0.9,2,2.5,2,3.7c0,0.8-1.9,2-3.1,2.2
			c-3.9,0.6-7.8,0.8-11.7,1.1C849.5,513,849.5,512.9,849.5,512.7z"/>
		<path d="M742.1,436.3c0,2.7-3.7,5.3-5.9,4.3c-3-1.5-5.4-0.9-8.1,0.7c-2.2,1.4-4.9,1.9-7.2,3.2c-2,1.1-4,2.4-5.8,3.9
			c-2.1,1.7-2.1,3.8-0.3,5.8c0.7,0.8,1.1,2,1.9,2.5c5.2,2.9,3.5,7.3,2.5,11.4c-0.3,1-1.3,2.5-2.1,2.5c-3,0.2-3.4,2.2-4,4.5
			c-0.5,1.8-1.6,3.7-3,4.8c-0.9,0.7-2.9,0.2-4.4,0.2c0-1.6-0.7-3.9,0.1-4.6c2.2-1.9,1.9-3.4,1.2-6c-1.1-4.4-2.9-8-5.9-11.4
			c-0.6-0.7-0.3-2.4-0.1-3.6c0.6-3.2-0.3-4.3-3.6-4.4c-2.1-0.1-4.1-0.4-6.2-0.8c-0.6-0.1-1.5-0.8-1.6-1.3c0-0.6,0.6-1.5,1.2-1.8
			c5.4-2.4,10.7-4.7,16.2-6.9c2.7-1.1,5.1-4.6,5.4-7.5c0.4-3.4,0.9-7,2.3-10.1c0.8-1.9,3.3-3.1,5.2-4.3c1.5-1,3.2-1.7,5-2.3
			c4.5-1.4,9.1-2.4,13.4-4.1c3.3-1.3,6.7-2.8,9.4-5.1c1.8-1.5,3.6-2.7,5-1.4c1.4,1.4,2.9,4.3,2.3,5.9c-2.2,6.7-6.5,11.2-14.1,11.7
			c-4.5,0.3-5.4,2.6-3,7.5c0.8,1.6,2,3.1,3,4.6C741.3,435,741.7,435.8,742.1,436.3z"/>
		<path d="M873,407.9c6.2-0.5,7.1,4.6,10.2,6.8c1.8,1.3,3.5,2.8,5.1,4.4c1.3,1.3,3.7,3.2,3.4,4.3c-0.6,2.8-2.5,5.2-3.9,7.8
			c-1.3-0.8-3-1.2-3.8-2.3c-2.4-3.4-4.6-6.2-9.2-7.6c-5.8-1.7-7.5-8-4.2-11.7C871.4,408.6,872.8,408,873,407.9z"/>
		<path d="M754.8,434.7c-0.5,3.3-3.2,6.9-5.1,6.3c-1.3-0.4-2.9-2.5-2.9-3.8c0-2.3,0.5-5.4,3.8-5.3
			C752,431.9,753.4,433.7,754.8,434.7z"/>
	</g>
</g>
<circle fill="none" stroke="#000000" stroke-width="12.6326" stroke-miterlimit="10" cx="683.9" cy="388.9" r="273.9"/>
<g>
	<path d="M942.4,659.9c0.4,0.9,0.9,1.7,1.5,2.4c0.2,0.6,0.1,1.7-0.4,3.1c-0.4,0-0.6,0.1-0.7,0.2v1.7c-0.7,0.4-1.2,0.9-1.5,1.7v0.9
		c-0.2,1.8-1,3.1-2.4,3.7c-1.5,0.5-2.8,0-3.9-1.5l-0.4-0.6c-0.1-0.2-0.5-0.6-1.1-0.9c1.1-3.5,2.5-8.5,4.1-15.2l-0.4-1.8
		c-0.2,0.1-1,1.2-2.4,3.1c0.1,2.2-0.6,3.4-2,3.5c-5.5,12.1-10.1,23.1-13.7,32.9l-0.4,2.2c1.2,0.1,3-0.1,5.2-0.7
		c2.2-0.6,3.8-0.9,4.6-0.9c2-0.1,3.9,0.4,5.9,1.7v0.9c0.1,0.2,0.2,0.4,0.2,0.6l0.2,0.7c0.1,0.2,0.2,0.7,0.2,1.5
		c-4.4,0.6-10.9,2.3-19.2,5.2c-2.2,8.9-4.8,19.1-7.8,30.5c-1.5,5.2-3,10.3-4.4,15.4c-2.3,8.4-3.5,13.3-3.5,14.8
		c-0.7,1.1-1,2.7-0.9,4.8c1.2,0.7,1.9,1.8,2,3.1c0,0.5-0.2,1.9-0.7,4.3c-0.2,0.1-0.6,0.8-1.1,1.9c-0.5,1.2-1.3,1.9-2.4,2.3
		c-2.2-0.5-4.1-2.7-5.5-6.5c-0.1-1.9,0.1-4.7,0.7-8.5c0.2-1.1,1.5-5.9,3.9-14.2c2.1-8,3.2-12.3,3.3-12.8c0.1-0.5,1.1-4.1,2.9-10.9
		c1.8-6.8,2.7-10.6,2.9-11.5c0.1-1.4,0.5-2.3,1.1-2.8c0.7-3.8,1.3-6.7,1.7-8.5c-0.5-0.1-1.4,0-2.6,0.3c-1.2,0.3-2,0.5-2.4,0.5
		c-1.9,0.1-3-0.9-3.5-3.1l-0.2-3.9c0.9-0.5,1.9-0.8,3.1-0.8c1.2-0.1,3.1-0.2,5.7-0.4c2.6-0.2,3.8-1.6,3.5-4.2
		c0.5-1.1,3.1-8.3,8-21.5c3.2-8.9,6.2-15.9,9.1-21.1c2.3-2.3,4.6-4.4,6.7-6.3c1.1-1.1,2.3-1.7,3.7-1.7c1.9-0.1,3.5,1,5,3.3
		c0.5,2,0.7,3.8,0.7,5.5C944.6,655.4,943.9,657.9,942.4,659.9z"/>
	<path d="M975.5,749c-1.6,1.4-3.5,3.1-5.7,5.4c-3.2,1.8-5.9,2.8-8.1,2.8c-3.3,0-5.6-2.2-6.8-6.5c-0.2-0.4-0.5-1.2-0.7-2.4
		c-0.5-2-1-3-1.5-3c-0.1,0-3.8,3.9-10.9,11.7c-4.6,4.1-10.4,6.6-17.6,7.6c-3.5-3.9-5.2-8.6-5.2-13.9c0-2.3,0.4-5.4,1.1-9.2
		c0.7-4.4,1.2-7.5,1.3-9.2c1.8-9.2,5.3-18.2,10.4-27c1.4-0.2,2.8,0.2,4.4,1.3c0.4,1,0.6,1.8,0.6,2.6c0,1-0.5,2.3-1.5,4.1
		c-1.2,2.2-1.9,3.6-2,4.1c-2,5.8-4.3,13.8-7,24c-0.2,3.1-0.4,5.7-0.4,8c0,3.6,0.3,6.1,0.9,7.6c3.2-0.5,5.7-1.4,7.6-2.6
		c0.1-0.1,2.2-1.7,6.1-4.8c0.9-1.7,3.9-6,9.2-12.8c3.9-5.1,6.2-9.6,6.8-13.7c3.3-8,6.5-14.4,9.6-19.2c2.1-1.4,3.5-1,4.3,1.1
		c0.4,1.1,0.6,2.2,0.6,3.1c0,1.8-0.7,4.2-2,7c-1.5,3.2-2.3,5.5-2.6,6.8c-3.5,4.4-5.5,10.9-6.3,19.4c0.1,0.6,0.3,2.3,0.6,5
		c0.2,2.1,0.9,3.3,2,3.7c1.7-0.4,3.3-1,4.6-1.8c2.1-1.5,3.4-2.3,3.9-2.6c1.5-1.5,3.6-3.5,6.5-5.9l2.2,1.5
		C979,744.7,977.6,747.3,975.5,749z"/>
	<path d="M986.4,755.7h0.4c0.4,0,0.8,0.2,1.3,0.6c2.8,0.1,7.8-0.4,15-1.7c6.4-1.1,12.4-1.1,17.9,0c-1,1-1.5,1.8-1.5,2.6
		c-12.7,2.5-24.4,4.1-35,4.8c-1.4-0.6-2.8-1.3-4.3-2c-1.5-0.7-2.7-1.6-3.4-2.6c-0.2-1.8,1-3.8,3.7-5.7c7.3-3.3,15.9-7.9,25.9-13.7
		c2.7-1.6,7.3-5.1,13.9-10.5c0.4-0.6,0.9-1.5,1.5-2.6c-3.3-2.1-7.4-3.1-12.2-3.1c-3,0-8.4,0.8-16.5,2.4c-1.7,0.4-4.1-0.4-7-2.4
		c-0.4-0.7-0.6-1.4-0.6-2c0-1.1,0.8-1.8,2.4-2.2c0.2-0.1,0.7-0.2,1.3-0.4c0.5,0.1,1,0.2,1.5,0.2c0.7,0,1.9-0.2,3.4-0.6
		c1.5-0.4,2.7-0.6,3.6-0.5c4.9-0.5,8.8-0.7,11.7-0.7c8.6,0,15,1.9,19.1,5.7c0.6,0.7,0.9,1.7,0.9,2.8c0,1.1-0.4,2.5-1.1,4.1l-0.9,0.7
		l-0.2,0.4c-0.4,0.5-1,1.2-2,2c-0.1,0.6-0.5,1.1-1.1,1.5l-1.8,0.7c-0.1,0.2-0.2,0.6-0.4,1.1c-1.2,0.5-3.1,1.8-5.6,3.8
		c-2.5,2-4.6,3.3-6.2,3.8c-2.5,1.7-6.4,4-11.8,6.8c-1,1-3,2.2-5.9,3.7C990.4,752.9,988.5,754,986.4,755.7z"/>
	<path d="M1036.4,755.7h0.4c0.4,0,0.8,0.2,1.3,0.6c2.8,0.1,7.8-0.4,15-1.7c6.4-1.1,12.4-1.1,17.9,0c-1,1-1.5,1.8-1.5,2.6
		c-12.7,2.5-24.4,4.1-35,4.8c-1.4-0.6-2.8-1.3-4.3-2c-1.5-0.7-2.7-1.6-3.4-2.6c-0.2-1.8,1-3.8,3.7-5.7c7.3-3.3,15.9-7.9,25.9-13.7
		c2.7-1.6,7.3-5.1,13.9-10.5c0.4-0.6,0.9-1.5,1.5-2.6c-3.3-2.1-7.4-3.1-12.2-3.1c-3,0-8.4,0.8-16.5,2.4c-1.7,0.4-4.1-0.4-7-2.4
		c-0.4-0.7-0.6-1.4-0.6-2c0-1.1,0.8-1.8,2.4-2.2c0.2-0.1,0.7-0.2,1.3-0.4c0.5,0.1,1,0.2,1.5,0.2c0.7,0,1.9-0.2,3.4-0.6
		c1.5-0.4,2.7-0.6,3.6-0.5c4.9-0.5,8.8-0.7,11.7-0.7c8.6,0,15,1.9,19.1,5.7c0.6,0.7,0.9,1.7,0.9,2.8c0,1.1-0.4,2.5-1.1,4.1l-0.9,0.7
		l-0.2,0.4c-0.4,0.5-1,1.2-2,2c-0.1,0.6-0.5,1.1-1.1,1.5l-1.8,0.7c-0.1,0.2-0.2,0.6-0.4,1.1c-1.2,0.5-3.1,1.8-5.6,3.8
		c-2.5,2-4.6,3.3-6.2,3.8c-2.5,1.7-6.4,4-11.8,6.8c-1,1-3,2.2-5.9,3.7C1040.4,752.9,1038.5,754,1036.4,755.7z"/>
	<path d="M1100.8,778.1c-5.2,9.7-10.4,18.4-15.5,25.9c-1.7,1.7-4.6,4.5-8.5,8.3c-1.7,1.6-2.9,2.5-3.4,2.7c-0.6,0.2-2.4,0.5-5.6,0.8
		c6.4-6.2,12.7-15.2,18.9-27.2c5.4-10.5,9.4-20.3,11.8-29.4c-0.1-0.7-0.3-1.5-0.6-2.4c-0.5-1.4-1.4-2.5-2.6-3.3
		c-4.9-3.2-8.8-11.2-11.7-23.9c-0.2-4.2-1.2-11.7-2.8-22.6c0,0.4-0.1-0.8-0.2-3.5c0-0.9,0.3-1.3,0.9-1.3c1.4-0.1,2.7,0.7,4,2.5
		c1.3,1.8,2,3.4,2.1,4.9c0.9,7.4,2.1,14.9,3.7,22.4c2.1,9.9,6,16.2,11.8,18.9c3.5-7.4,8.5-21.6,15.2-42.5c2.6-1.4,4.1-2.1,4.4-2.2
		c0.7,0,1.4,0.4,2,1.1l2,1.9c-0.6,3.3-2.2,7.7-4.8,13.1c-2.3,4.7-6.3,14.8-11.8,30.4C1104.6,768.2,1101.5,776.7,1100.8,778.1z"/>
	<path d="M1228.2,703.5l3.5,0.7c-0.7,1.8-1.7,3.1-3,3.9c-2.3,1.7-4.7,3.5-7.2,5.2c-1.2,0.9-4.2,1.4-8.9,1.5l-1.7-0.6
		c-0.7-0.2-1.3-0.4-1.7-0.4c-0.2,1.8-0.7,4.8-1.3,8.9c-6.7,18.4-14.7,31.6-24.2,39.8c-2.2,1.8-5.2,2.3-8.9,1.5c-4.7-3-7-8.2-7-15.8
		c0-1.9,0.1-4,0.4-6.5c1.7-8.7,3.3-15,4.6-19c0.1-2.7,0.9-5.8,2.2-9.3c2-5.1,3.1-8.1,3.3-8.9c1.1-0.6,2.2-0.9,3.1-0.9
		c1.5,0,2.8,0.7,3.9,2c-0.1,3-0.9,6.2-2.4,9.7c-2.2,5.1-3.5,8.1-3.7,8.9c-0.1,1.5-1,5.3-2.6,11.5c-1.1,4.5-1.7,8.3-1.7,11.4
		c0,5.1,0.9,8.5,2.8,10.2c1.5-0.5,3-1.7,4.6-3.5c2.3-2.7,3.7-4.3,4.1-4.6c5.8-8.8,9.6-15,11.5-18.9c3.5-7.4,5.2-14.4,5.2-21.1
		c0-1.8-0.1-3.7-0.4-5.5c1-0.7,1.9-1.1,2.8-1.1c0.9,0,2,0.7,3.4,2c1.4,1.4,2.4,2.2,2.9,2.4c1.7,0.5,3.4,0.7,5,0.7
		c2.1,0,4.2-0.6,6.3-1.9C1226,704.5,1227.7,703.7,1228.2,703.5z"/>
	<path d="M1238,750.7c-1.1,1.8-3,4.5-5.5,8c-4.8,3-8.3,4.4-10.5,4.3c-2.2-0.1-4.7-2-7.4-5.5c-0.2-2.2-0.4-4.4-0.4-6.7
		c0-12.9,1.9-25.7,5.7-38.3c0.6-2,2.3-6,5-12.2c0.7-0.9,1.7-1.3,3-1.3c1.2,0,2.4,0.4,3.5,1.3c1.1,0.9,1.7,1.8,1.7,3
		c0,0.6-0.2,1.2-0.6,1.7c-2.2,3.6-4.3,8.3-6.3,14.1l-4.1,19.2c-0.9,4.1-1,9.2-0.6,15.4c0.2,0.7,0.9,1.7,1.9,3
		c0.5,0.1,1.2-0.3,2.2-1.2c1-0.9,1.7-1.4,2-1.6c1.5-1,3.5-2.9,6.1-5.7c2.6-2.8,4.9-4.7,6.8-5.5l4.3-5
		C1242.6,744.8,1240.3,749.2,1238,750.7z M1241,685.2l-0.6,0.4c-0.2,0.2-0.5,0.9-0.7,1.9c-5.9,0.5-9.1-0.9-9.4-4.3
		c0-2,0.7-3.2,2-3.7c0.5-0.1,2-0.1,4.4,0c0.6,0,1.4-0.2,2.4-0.6c1,0.4,2,1.5,3.1,3.3C1242.4,683.3,1242,684.2,1241,685.2z"/>
	<path d="M1266.1,750.7c-1.1,1.8-3,4.5-5.5,8c-4.8,3-8.3,4.4-10.5,4.3c-2.2-0.1-4.7-2-7.4-5.5c-0.2-2.2-0.4-4.4-0.4-6.7
		c0-12.9,1.9-25.7,5.7-38.3c0.6-2,2.3-6,5-12.2c0.7-0.9,1.7-1.3,3-1.3c1.2,0,2.4,0.4,3.5,1.3c1.1,0.9,1.7,1.8,1.7,3
		c0,0.6-0.2,1.2-0.6,1.7c-2.2,3.6-4.3,8.3-6.3,14.1l-4.1,19.2c-0.9,4.1-1,9.2-0.6,15.4c0.2,0.7,0.9,1.7,1.9,3
		c0.5,0.1,1.2-0.3,2.2-1.2c1-0.9,1.7-1.4,2-1.6c1.5-1,3.5-2.9,6.1-5.7c2.6-2.8,4.9-4.7,6.8-5.5l4.3-5
		C1270.7,744.8,1268.5,749.2,1266.1,750.7z M1269.1,685.2l-0.6,0.4c-0.2,0.2-0.5,0.9-0.7,1.9c-5.9,0.5-9.1-0.9-9.4-4.3
		c0-2,0.7-3.2,2-3.7c0.5-0.1,2-0.1,4.4,0c0.6,0,1.4-0.2,2.4-0.6c1,0.4,2,1.5,3.1,3.3C1270.5,683.3,1270.1,684.2,1269.1,685.2z"/>
	<path d="M1298.9,657.7c-1.4,1.5-1.8,2.9-1.5,4.3c-1.7,2.1-3.1,5.4-4.3,10c-1.2,5.1-2.4,8.5-3.5,10.4c-0.9,2.7-2.2,7.2-4.1,13.3
		c0.4,0.9,0.2,1.7-0.6,2.4c-0.1,0.5-1.4,5.1-3.9,13.9c-1.6,5.3-2.6,9.9-3,13.9c-0.7,1-1.2,2.7-1.4,5.1c-0.2,2.4-0.6,4-1.4,4.9
		c-1.2,7.6-1.6,12.5-1.1,14.6c-0.4,1.4-0.1,3.3,0.9,5.9c1.2-0.1,2.6-0.8,4.1-2c2-1.6,3.2-2.5,3.7-2.8c1.4-0.7,3.2-1,5.5-0.7
		c-2.2,4.1-5,7.6-8.3,10.5c-0.7,0-1.7,0.2-2.9,0.7c-1.2,0.5-2,0.7-2.5,0.7c-0.7,0-1.6-0.3-2.6-0.9c-2.5-2.2-3.8-3.5-4.1-3.9
		c-1-1.7-1.5-4.4-1.5-8.1c0-1.7,0.1-3.8,0.2-6.1c0.2-0.5,0.7-2.5,1.3-6.1c1.5-8.6,2.9-15.9,4.3-21.8c2.6-12.1,5.8-24.8,9.6-38.1
		c1-3.6,2.5-7.5,4.4-11.8c2.3-5.4,3.6-8.3,3.7-8.5c0.5-1.5,1.7-3.5,3.5-5.9c1.1-1.4,2.3-2,3.7-2c1.2,0,2.5,0.7,3.7,2.2
		C1301.5,653.5,1300.7,655.6,1298.9,657.7z"/>
	<path d="M1312.7,750.7c-1.1,1.8-3,4.5-5.5,8c-4.8,3-8.3,4.4-10.5,4.3c-2.2-0.1-4.7-2-7.4-5.5c-0.2-2.2-0.4-4.4-0.4-6.7
		c0-12.9,1.9-25.7,5.7-38.3c0.6-2,2.3-6,5-12.2c0.7-0.9,1.7-1.3,3-1.3c1.2,0,2.4,0.4,3.5,1.3c1.1,0.9,1.7,1.8,1.7,3
		c0,0.6-0.2,1.2-0.6,1.7c-2.2,3.6-4.3,8.3-6.3,14.1l-4.1,19.2c-0.9,4.1-1,9.2-0.6,15.4c0.2,0.7,0.9,1.7,1.9,3
		c0.5,0.1,1.2-0.3,2.2-1.2c1-0.9,1.7-1.4,2-1.6c1.5-1,3.5-2.9,6.1-5.7c2.6-2.8,4.9-4.7,6.8-5.5l4.3-5
		C1317.4,744.8,1315.1,749.2,1312.7,750.7z M1315.7,685.2l-0.6,0.4c-0.2,0.2-0.5,0.9-0.7,1.9c-5.9,0.5-9.1-0.9-9.4-4.3
		c0-2,0.7-3.2,2-3.7c0.5-0.1,2-0.1,4.4,0c0.6,0,1.4-0.2,2.4-0.6c1,0.4,2,1.5,3.1,3.3C1317.1,683.3,1316.7,684.2,1315.7,685.2z"/>
</g>
</svg>
