<?xml version="1.0" encoding="utf-8"?>
<!-- Generator: Adobe Illustrator 18.0.0, SVG Export Plug-In . SVG Version: 6.00 Build 0)  -->
<!DOCTYPE svg PUBLIC "-//W3C//DTD SVG 1.1//EN" "http://www.w3.org/Graphics/SVG/1.1/DTD/svg11.dtd">
<svg version="1.1" id="Layer_1" xmlns="http://www.w3.org/2000/svg" xmlns:xlink="http://www.w3.org/1999/xlink" x="0px" y="0px"
	 viewBox="284.8 276.2 833.5 413.7" enable-background="new 284.8 276.2 833.5 413.7" xml:space="preserve">
<g id="n3vaSF.tif">
	<g>
		<path stroke="#000000" stroke-width="3" stroke-miterlimit="10" d="M816.8,609.5c-0.7,1.5-1.7,3-1.9,4.5
			c-0.9,7-5.8,11.3-10.6,15.7c-2,1.9-4.1,2.1-5.9,0.3c-4.6-4.4-11.2-5.7-15.5-10.8c-3.4-4-9-3.1-13.7-2.2c-10.8,2-20.2-1.4-29.2-6.8
			c-3.9-2.3-4.5-4.1-3.2-8.3c0.5-1.8-0.8-1.7-1.7-2c-3.7-1.1-7.5-2-11.3-3c-2.6-0.7-5.3-1.3-7.6-2.7c-0.8-0.5-1.7-0.8-2.7-0.5
			c-2.1,0.8-3.9,0.2-5.7-1c-2.6-1.8-5-1.4-7.5,0.3c-3.9,2.6-7.5,5.7-11,8.8c-3,2.5-6.1,4.8-9.5,6.8c-3.3,1.8-6.7,1.9-10.3,1.7
			c-1.5-0.1-3-0.2-1.6,2.2c1.3,2.4-0.5,3.5-2.5,4c-3.2,0.8-6.5,1.3-9.8,0.7c-3.6-0.6-6.6,0-10.2,1.8c-4.4,2.2-10.1,3.3-15-0.1
			c-1.9-1.3-3.7-1.8-5.9-0.6c-2.1,1.1-3.9,0.3-5.5-1c-1.9-1.5-3.5-1.6-5.1,0.5c-1.9,2.4-4.6,3-7.5,3.3c-8.5,0.9-17.1,1.5-24.5,6.5
			c-3.1,2.1-6.8,1.7-10.3,1c-3-0.6-5.8-0.6-8.7,0.5c-4.7,1.7-7.5,0.9-9.7-3.5c-2.5-4.9-6-6.5-11.2-5.5c-2.7,0.6-5.8,1.1-6.4-3.2
			c-0.2-1.4-1.7-1.4-2.8-1.6c-1.4-0.3-3.5,0-3.5-2.2c0-1.9,1.9-2.2,3.3-2.7c0.3-0.1,0.6-0.3,0.5-0.2c-6.7-5.3-14.7-9.3-18.7-17.8
			c-0.9-2-2.5-2.8-4.6-2.3c-1.8,0.4-3.5,0.6-5.2,0c-2.4-0.8-3.4-2.3-2.6-4.9c0.6-2,2.6-4.5,1.4-6c-1.5-1.8-4.6-1.1-7.1-1.2
			c-1.3,0-2.6,0-3.9,0c-3.5-0.1-5.9,1-6.1,5.1c-0.1,2.5-1.5,4.4-3.5,5.9c-0.6,0.4-1.4,0.7-1.7,1.3c-2.9,5.3-7.1,3.6-11.3,2.3
			c-5.2-1.6-10-4.1-15.4-5c-2.1-0.4-4.3-0.7-6.3-0.2c-3.3,0.9-6.2,1.7-9.2-1c-1.4-1.3-3.1,0.3-4.4,1.2c-2.1,1.5-4.1,3.2-6.3,4.6
			c-3,1.9-6,1.8-8.6-1c-2-2.2-4.6-3.3-7.6-3.2c-3.2,0.1-5.9-1.3-8.7-2.7c-2.4-1.2-2.8-2.9-1.7-5.2c2-3.8,4.7-7.1,7.7-10.1
			c9.6-9.4,13.4-20.4,10.2-33.6c-0.4-1.8-0.7-3.8-1.6-5.4c-5.2-9.3-6.8-19.8-9.9-29.7c-0.6-1.9-1.1-3.9-2.3-5.5
			c-3.7-5-4.6-10.7-4.8-16.7c-0.2-6.1-0.4-12.2-2.2-18.2c-1-3.4-3-5.8-6.3-7.1c-2.8-1.1-5.3-2.5-7.5-4.5c-1.6-1.5-3.6-1.6-5.6-1.4
			c-4,0.3-6.4-1.2-8.2-5.1c-2.2-4.9-5.9-9-7.5-14.3c-0.6-1.9-2.6-2.3-4.4-2.3c-2.6-0.1-4.6-1.1-5.7-3.5c-3.3-7.1-9.3-8.4-16.2-7.8
			c-3.7,0.3-6.8,0.7-10.3-2.2c-2.5-2.1-6.7-2.7-9.7-5.2c-0.9-0.7-2-0.2-3,0.2c-3.8,1.2-4.8,0.6-5.7-3.2c-0.8-3.2-1.6-6.4-2.4-9.6
			c-0.8-3.2-2.8-5.3-6-6.4c-3.1-1.1-6.2-2.2-9.2-3.6c-4.1-1.9-5.4-4.7-4.2-8.9c1.8-6.5,4-13,11.2-15.8c2.8,0,5.7,0,8.5,0
			c5.4,1.6,10.7,3.6,15.7,6.4c3.2,1.8,6.5,1.9,9.8,0.3c5.2-2.4,9.8-1.9,13.8,2.4c1.1,1.2,2.6,2.1,4.4,2c4.7-0.2,8,2.2,10.3,5.8
			c3.3,5,7.8,6.7,13.6,6.4c4.5-0.3,8.6,1,12.2,3.8c0.3,0.2,0.6,0.5,0.9,0.6c5,0.9,9.9,1.9,12.3,7.2c3.8-0.1,6,2.7,8.7,4.7
			c1.9,1.4,4.2,1.5,6.5,1.4c3.6-0.2,7,0.1,10.3,2c1.4,0.8,2.9,0.9,4.5,0.5c3-0.8,5.9-0.4,8.6,0.9c4.5,2.2,8.9,1.7,13.2-0.7
			c5.6-3.1,11.7-4.2,18-4.3c4.1-0.1,7.3,1.3,10.1,4.2c1.7,1.8,3.4,3.6,5.7,4.8c2.9,1.5,5.8,1.8,8.8,0.1c4.5-2.7,9.3-2.1,14.1-1.4
			c2.4,0.3,3.9,2,5.1,4c1.1,1.9,2.4,3.3,4.9,3.5c2.6,0.2,4,2,4,4.6c0,2.8,1.1,4.7,3.7,5.8c0.7,0.3,1.4,0.9,2,1.4
			c5,4.6,10.8,7.6,17.3,9.2c4.9,1.3,9.8,2.7,14.7,3.8c4.7,1,8.6,2.9,11.4,7c1.5,2.2,3.7,3.5,6.5,3.7c1.3,0.1,2.6,0.3,3.8,0.7
			c4.4,1.5,5.6,5.8,2.3,9.1c-1.1,1.2-2.5,2.1-3.9,3c-2.5,1.7-2.7,3.9-0.1,5.1c3.9,1.9,8,3.4,12.1,4.8c1.8,0.6,4.1,0.7,5-1.4
			c2.6-5.6,7.7-6.4,12.7-6.6c4.1-0.1,6.7-1.7,8.7-4.9c1.5-2.3,3.6-3.6,6.2-4.4c6-1.9,12.1-3,18.4-3c5.5,0,9.6,1.7,11.6,7.3
			c0.7,1.8,1.1,4.9,3.5,4.8c2.2-0.1,2.5-3.1,3.2-5c3.2-8.4,7.1-9.7,14.8-4.8c2.3,1.4,4.6,2.4,7.3,2.3c7.1-0.2,11.9,3,14.8,9.4
			c0.5,1.2,1.3,2.2,1.9,3.4c2.1,4.2,5.5,5.9,10.1,5.5c4.1-0.4,8.2-0.6,12.3-1c1.8-0.2,3.5-0.1,5.3,0.1c6.1,0.9,8.4,4.3,6.7,10.2
			c-1.4,5-3.4,9.8-4.8,14.8c-1.9,6.9-1,8.7,5,12.6c1.9,1.2,3.6,2.6,5.4,4c1.8,1.5,3.8,2.4,6.1,2.2c3.2-0.3,5.2,1.2,6.1,4.2
			c0.8,2.8,2.6,3.6,5.5,3.8c3.5,0.2,7.2-0.1,10.2,2.9c1.8,1.9,4.7,1.2,7.1,1.1c3.2-0.1,5.9,0.5,7.2,3.8c0.5,1.3,1.6,1.8,3.1,1.9
			c1.4,0.1,2.8,0.3,4.1,0.7c4.5,1.5,5.5,4.3,3.1,8.4c-3.1,5.2-7.4,9.2-13,11.5c-2.8,1.2-3.8,2.8-3.4,5.7c0.3,1.9,0.5,3.7,0.9,5.6
			c0.5,2.6,1.4,4.4,4.8,4.1c3.9-0.3,5.7,2.8,4.3,6.3c-1.3,3.4-0.1,5.8,3.5,6.9c1,0.3,1.8,0.7,2,1.7c0.3,1.2,1.2,1.6,2.4,1.7
			c1.9,0.1,3.3,0.8,4.1,2.7c0.7,1.8,2.6,1.9,4.2,2.3c6,1.6,11.1,4.5,14.7,9.8C816.8,605.3,816.8,607.4,816.8,609.5z M532.4,612.6
			c1.9,0.9,4.8-0.6,5,1.9c0.3,4,2.8,3.5,5.2,3.2c5.6-0.7,9.5,1.1,12,6.4c1.7,3.6,3.7,4.2,7.6,2.8c3.1-1.2,6.2-1.4,9.3-0.5
			c4.4,1.3,8.4,0.4,12-2.2c1.8-1.3,3.8-2.6,6.1-2.7c6.3-0.3,12.1-3.1,18.4-3c1.7,0,3.2-0.9,4.2-2.3c2.3-3.1,4.8-2.9,7.6-0.8
			c1.3,1,2.8,1.4,4.3,0.7c2.5-1.2,4.7-0.6,7,0.8c4.1,2.5,11.3,2,15-0.9c1.9-1.5,4-1.8,6.3-1.4c3.5,0.6,7,0.7,10.6,0.3
			c1.9-0.2,4-0.6,1.7-3.2c-1.1-1.3-0.5-2.1,0.6-2.9c1.2-0.8,2.7-1.2,4.1-0.9c6.6,1.2,11.6-1.9,16.3-5.9c4.3-3.6,8.4-7.6,13.2-10.6
			c1.6-1,3.3-2.3,5.2-1.9c4,0.8,8,1.7,11.9,2.6c4.1,1,8.2,2.6,12.4,3.8c3.4,1,6.9,1.5,10.1,3.1c1.7,0.9,3.5,1.9,0.6,3.6
			c-2.1,1.2-1.7,2.7-0.3,4.1c1,1,2.1,1.9,3.3,2.6c9.1,5.1,18.5,8,29.1,5.5c5.9-1.4,11.2,0.3,15.3,5.1c1.2,1.3,2.4,2.7,4.1,3.3
			c3.1,1.1,6,2.6,8.4,5c1,1,2.4,1.6,3.5,0.4c3.6-4,9.1-6.6,9.6-13c0.1-1.2,0.8-2.5,1.2-3.7c2.7-6.5,1.7-9.5-4.2-13.3
			c-1.9-1.2-4-2-6.1-2.7c-2.8-0.9-6.1-1.1-7.6-4.5c-0.3-0.8-1.4-0.8-2.2-0.7c-1.7,0.1-3.3,0-3.8-2.2c-0.2-0.7-0.8-1.3-1.6-1.2
			c-4,0.2-4.6-2.4-4.6-5.5c0-1.3-1.8-2.5-0.5-3.9c0.8-0.8,2.2-1.3,1.2-2.8c-0.8-1.2-2.2-1.8-3.4-1.3c-3.6,1.5-4.4-0.8-5.3-3.4
			c-0.9-2.7-1.5-5.4-1.9-8.2c-0.5-3.7,0.7-6,4.4-7.3c4.7-1.7,8.3-4.9,11.2-8.9c3.7-5.2,2.7-7.4-3.6-8.1c-0.5-0.1-0.9-0.1-1.4-0.1
			c-1.7,0-3.1-0.7-3.7-2.2c-1.4-3.3-4-3.7-7-3.3c-2.4,0.3-5,0.3-6.8-1.3c-2.9-2.7-6.4-2.7-9.8-3c-3.5-0.3-5.8-1.4-6.9-4.8
			c-0.7-2.4-2.3-3.4-4.8-3.2c-2.4,0.2-4.4-0.6-6.2-2c-2.7-2.2-5.6-4.3-8.6-6.1c-3.3-2.1-4.5-5.3-3.9-9.1c0.7-4.9,2.3-9.6,4.1-14.2
			c3.9-10.1,1.7-12.9-9-12.2c-3.4,0.2-6.8,0.7-10.2,1.1c-6.3,0.7-11.1-1.3-14-7.2c-0.9-1.8-1.9-3.5-3-5.2c-2.4-3.7-5.5-6-10.2-5.7
			c-4.1,0.3-7.5-1.3-10.9-3.5c-4.9-3.3-8.4-2-10.3,3.5c-0.8,2.2-1.4,4.5-3,6.3c-1.8,2.1-3.7,2.1-5.3-0.1c-1.2-1.6-2.2-3.4-2.8-5.3
			c-1.6-4.4-4.9-5.7-9.1-5.8c-6.7-0.1-13.1,1.3-19.3,3.5c-1.3,0.5-2.7,1.1-3.4,2.4c-2.7,4.9-6.8,7-12.5,7c-3.2,0-7.1,0.3-8.8,4.1
			c-1.7,3.6-4.6,4.4-7.9,3.4c-4.4-1.4-8.7-3-12.8-5c-3.8-1.9-3.8-6.1-0.2-8.3c1.5-0.9,3.1-1.7,4.2-3.1c1.7-2.2,1.2-4.4-1.4-5.3
			c-1.3-0.5-2.7-0.6-4.1-0.8c-2.9-0.4-5.6-1.5-7.2-4c-2.7-4-6.5-5.9-11.1-6.8c-3.8-0.7-7.6-1.8-11.3-2.8c-7.7-2-15-4.9-20.9-10.5
			c-0.7-0.6-1.5-1.2-2.3-1.6c-2.7-1.3-4.3-3.2-4.1-6.4c0.1-1.3-0.1-3.1-1.6-3.2c-4.2-0.3-6.3-3.1-8.3-6.3c-0.4-0.6-1.2-1.2-2-1.4
			c-4.4-1.2-9-1.5-13.1,0.8c-4.2,2.5-8.1,2-11.9-0.6c-2.3-1.5-4.3-3.3-6.1-5.3c-2-2.1-4.4-3.1-7.3-2.9c-6,0.3-11.9,1.2-17.4,4.1
			c-3.5,1.9-7.4,3.8-11.4,2.1c-4.3-1.8-8.6-3-13.3-2c-0.8,0.2-1.9-0.1-2.7-0.5c-3.2-1.7-6.5-1.9-10-1.7c-4,0.2-7.4-1.2-10.2-4
			c-1-1-1.9-1.7-3.4-1.7c-2.2,0-3.9-1.2-4.8-3.1c-1.3-2.8-3.2-4-6.3-3.7c-1.9,0.2-3.6-1.1-5.1-2.2c-2.9-2.2-6.2-3.3-9.9-3.1
			c-7.1,0.4-12.9-2-16.8-8.2c-1.6-2.5-4-3.9-7.1-3.9c-2.7,0-5-1.1-6.9-3c-3.2-3.3-6.8-4-10.9-1.9c-4.6,2.3-8.8,1.7-13.1-0.8
			c-4.9-2.9-10.3-4.7-15.9-5.8c-5.1-1-9.1,0.8-11.7,5.2c-1.8,2.9-2.9,6.2-3.8,9.5c-0.9,3.1,0.3,5.1,3,6.3c2.8,1.2,5.7,2.2,8.6,3.2
			c4.2,1.4,6.8,4,7.9,8.3c0.8,3.2,1.8,6.3,2.5,9.6c0.4,1.8,1.1,2.5,2.9,1.7c1.5-0.6,3.2-1.2,4.4-0.2c3.2,2.5,7.4,3.2,10.4,5.3
			c3.5,2.6,6.7,2.1,10.2,1.9c6.9-0.2,12.9,1.4,16.2,8.2c1.1,2.2,2.7,3.4,5.3,3.4c2.3,0,4.5,1,5.2,3.1c1.8,5.5,5.4,9.9,7.9,14.9
			c1.3,2.5,2.9,3.2,5.5,3.4c8.3,0.6,14.1,6,20.2,10.8c1.4,1.1,1.8,3.3,2.2,5.1c1,4,1.4,8.1,1.7,12.2c0.4,7.8,0.3,15.9,5.6,22.5
			c0.8,1,1,2.4,1.4,3.6c3.2,10.3,5.8,20.8,10,30.8c3.8,9.1,4.5,18.8-0.4,28.7c-3.3,6.6-8.5,11.2-12.8,16.7c-1.5,1.9-4.2,4.1-3.2,6.3
			c1.1,2.5,4.5,3,7.3,3.6c0.3,0.1,0.7,0.1,1.1,0.1c3.5-0.2,6.5,1,8.9,3.5c2.2,2.3,4.6,2.2,7,0.5c2.1-1.5,4.1-3.1,6.2-4.6
			c2.4-1.7,4.9-2.4,7.3,0.1c0.9,0.9,1.9,1.3,3.2,0.8c5.7-2.2,11.1-0.8,16.6,1c3.9,1.3,7.7,2.8,11.7,4.1c1.7,0.5,3.8,1.3,5.2-0.6
			c1.1-1.5,2.4-2.5,3.8-3.6c1.5-1.2,2.6-2.7,2.6-4.8c-0.1-3.7,2.1-5.5,5.5-6.2c4.5-0.9,8.9-0.3,13.3,0.6c4,0.9,4.1,1.7,2.2,5.4
			c-0.8,1.6-2.2,3.4-1,5.3c0.8,1.3,2.6,0.9,3.9,0.8c5.3-0.6,6.1-0.2,8.5,4.6c3.3,6.5,9.9,9.5,15,14.1c0.5,0.4,1.3,0.4,2,0.5
			c1.2,0.2,2.5,0.1,2.7,1.6c0.2,1.5-0.9,2.3-2.1,2.9C533.9,612.1,533.3,612.3,532.4,612.6z"/>
	</g>
</g>
<g id="_x31_HnUya.tif">
	<g>
		<path fill="none" stroke="#114A56" stroke-width="3" stroke-miterlimit="10" d="M1018.3,432.3c-0.2,0.4-0.4,1-0.8,1.3
			c-0.8,0.5-1.6,0.3-2.3-0.1c-0.9-0.5,0.1-0.9,0.1-1.3c0.1-0.5,0.2-1,0.2-1.5c0-0.6-0.8-0.9-1.3-0.6c-0.3,0.2-0.5,0.3-0.8,0.5
			c0.1,0.1,0.2,0.1,0.2,0.2c0.6,0.2,1.6,0,1.4,1c-0.1,0.9-0.7,1.6-1.7,1.8c-1.5,0.4-2.8-0.3-3.7-1.3c-0.5-0.6-1.1-0.6-1.8-0.6
			c0,0.7,0.6,0.6,1,0.8c0.3,0.1,0.6,0.3,0.7,0.6c0.1,0.5-0.4,0.5-0.8,0.7c0.6,0.5,1,0.9,1.6,1.3c0.9,0.7,1,1.4,0,2.1
			c-0.6,0.4-1.2,0.7-1.4,1.4c-0.1,0.4-0.5,0.6-0.8,0.4c-0.6-0.4-0.9,0.2-1.4,0.3c-0.7,0.2-0.3,0.8-0.1,1c0.2,0.4,0.5,0,0.7-0.2
			c0.3-0.3,0.6-0.5,1-0.2c0.4,0.3,0.5,0.7,0.4,1.1c-0.3,1.4-0.5,2.9-1.2,4.2c-0.2,0.3-0.2,0.9-0.8,0.9c-0.5,0-0.4-0.7-0.8-1.1
			c-1.1,1.3-2.9,1.1-4.2,1.9c0.3,0.2,0.6,0.3,1,0.1c0.2-0.1,0.5-0.3,0.6-0.2c1,0.7,1.8,0,2.7-0.2c0.8-0.2,1.1,0.2,0.7,0.9
			c-0.8,1.6-1.8,3.2-2.4,5c-0.3,0.7-0.9,0.7-1.4,0c-0.2-0.2-0.2-0.5-0.4-0.8c-0.2-0.4-0.4-0.7-0.9-0.5c-0.5,0.2-0.1,0.6,0,0.8
			c0.3,0.6,0.6,1.1,1.2,1.4c0.5,0.2,0.9,0.6,0.8,1.2c-0.1,0.6-0.7,0.8-1.2,1c-0.7,0.2-1.5,0-2.3-0.1c0.5,0.6,1.1,0.9,1.9,1.1
			c0.9,0.2,1.7,0.6,1.7,1.6c0,0.9-0.6,1.4-1.5,1.4c-0.5,0-0.4,0.4-0.6,0.7c-0.3,0.7-0.7,1.4-1.1,2.1c-0.4,0.6-0.9,0.6-1.6,0.5
			c-0.6-0.1-0.7-0.6-0.7-1.1c0-0.1,0-0.3,0-0.4c-0.1-0.4,0-0.9-0.6-0.8c-0.4,0.1-0.3,0.5-0.3,0.9c0.1,0.7,0.9,1.5,0.1,2.1
			c-0.8,0.7-1.6-0.1-2.6-0.5c0.6,1.1,1.8,1.2,2.3,2c0.2,0.2,0.6-0.2,0.8-0.5c0.2-0.2,0.4-0.6,0.8-0.4c0.4,0.2,0.3,0.6,0.3,0.9
			c0.1,2.1-1.7,4-3.8,4.2c-1.3,0.1-2.5,0.2-3.8,0.3c1.4-0.1,2.8,0.3,4.2,0.3c1,0,1.6,0.4,1.5,1.7c0.3-0.8,0-1.9,0.9-1.8
			c1,0.1,0.9,1.2,0.8,1.9c-0.3,1.8-0.1,3.7-1.5,5.2c-0.4,0.5-0.3,1.1-0.3,1.7c0,0.7,0.1,1.2-1.1,0.9c-1.1-0.3-2.4-0.4-3.6-0.4
			c-1.9-0.1-3.6-1-5.2-1.8c-2.4-1.1-4.7-1.6-7.2-0.4c-2.3,1.1-3,2.6-2.5,5c0.1,0.7,0.3,1.3,0.5,2c0.7,2,0.7,4-0.4,5.9
			c-0.6,0.9-0.7,2-0.5,3.1c0.2,1-0.1,1.6-1.2,1.8c-1,0-2,0-3,0c-1.2-1.6-2.2-3.3-2.1-5.4c0.1-1.5-0.5-2.2-2-2.6
			c-0.8-0.2-1.7-0.3-2.5-0.3c-7-0.2-14-0.8-21-1.2c-4.6-0.3-9.2-0.5-13.8-0.8c-8-0.5-15.9-1-23.9-1.5c-4.6-0.3-9.1-0.6-13.7-0.8
			c-4.1-0.2-8.2-0.6-12.3-0.6c-2.3,0-3-0.9-2.7-3.2c0.1-0.8,0-1.5-0.4-2.2c-0.8-1.3-1-2.8-1.1-4.2c0-1-0.3-1.8-1.3-2.1
			c-0.7-0.3-0.8-0.9-1-1.5c-0.3-1.6-0.8-2.9-2.2-4c-1.9-1.4-1.7-3.5-1.3-5.5c0.2-1,0.6-1.9,1-2.9c0.4-1.1,1-2.1,0.9-3.3
			c-0.1-3.1,0.7-6.1,2-8.9c0.7-1.6,0.2-3.3-0.5-4.9c-0.5-1.3-1.1-2.6-1.6-4c-0.6-1.8-0.8-3.5,0-5.3c0.3-0.6,0.3-1.2,0.2-1.7
			c-0.5-1.9,0.3-3.1,1.9-4c1.3-0.8,2.6-1.4,3.5-2.7c0.8-1.1,0.8-1.7-0.2-2.7c-0.7-0.7-1.6-1-2.4-1.4c-2.2-1.1-2.5-2-1.2-4.1
			c0.2-0.4,0.4-0.7,0.7-1.1c1.1-1.6,1.2-3.2,0.3-4.9c-0.6-1.1-0.9-2.2-0.9-3.4c0-1.1-0.4-2.1-1.2-2.9c-1.4-1.4-2-3.1-1.8-5.1
			c0.1-1.1,0.1-2.3-0.7-3.1c-2.5-2.5-3.1-5.6-3.5-8.9c-0.9-6.9-2.5-13.8-3.8-20.7c-3.2-17.1-6.5-34.1-9.8-51.1
			c-0.1-0.6-0.3-1.1-0.4-1.7c0-0.5,0-1,0-1.5c0.7,0,1.3-0.1,2-0.1c24.7-0.1,49.4,0.3,74.1-0.3c2.7-0.1,5.4-0.3,8.1-0.4c1,0,2,0,3,0
			c0.4,0.8,0.1,1.6-0.3,2.3c-0.2,0.4-0.5,0.9-0.9,1.2c-2.5,1.9-4.3,4.2-5.3,7.1c-0.2,0.5-0.6,0.9-1,1.3c-1.5,1.3-1.5,3.1,0.3,4.1
			c1.4,0.8,2.6,1.7,3.5,3c0,0.1,0.1,0.2,0.2,0.2c3.1,0.9,5.3,3.8,8.9,3.9c3.4,0.1,4.4,1.2,5.3,4.5c0,0.1,0,0.3,0.1,0.4
			c1.5,3.7,3.4,7.1,5.2,10.7c0.3,0.7,1,1.2,1.5,1.7c2.7,2.1,4.7,4.8,6.4,7.6c1.9,3.1,4,5.8,7.5,7.3c1.8,0.8,2.9,2.3,3.7,4
			c0.8,1.6,1.8,2.8,3.6,3.4c1.8,0.6,2.6,2,2.9,3.7c0.5,3.4,2.6,5.6,5.5,6.9c3.4,1.5,6.2,3.8,8.4,6.7c0.2,0.2,0.4,0.5,0.6,0.7
			c3.6,3.2,3.8,7.4,2.8,11.6c-0.5,2.2-0.1,4,1.7,5.1c2.9,1.7,4.9,4,6.2,7.1c0.7,1.8,1.7,3.3,1,5.3c-0.3,0.7,0,1.5,0.5,2.2
			c0.7,0.9,0.8,1.8,0.5,2.9c-0.4,1.5-0.3,1.7,1.3,1.8c0.4,0,0.7,0.2,1,0.5c0.2,0.2,0.4,0.5,0.7,0.4c1.8-0.6,2.7,0.9,3.9,1.6
			c0.7,0.4,0.6,1.1,0.2,1.8c-0.2,0.4-0.7,0.7-0.7,1.2c0.5,0.3,1,0.5,1.4,0.8C1018.3,431.1,1018.3,431.7,1018.3,432.3z M1007.1,431.9
			c-0.3-1.5-0.3-1.3,1-1.4c0.8,0,1.1,0.3,1.6,0.8c0.5,0.5,1,1,1.6,1.4c0.8,0.6,2.5,0.2,3-0.6c0.2-0.3,0.3-0.8-0.2-0.8
			c-1.6,0-1.6-1.5-2.2-2.4c-0.2-0.3-0.2-0.6,0.1-0.8c0.3-0.2,0.5,0.1,0.7,0.3c0.2,0.2,0.3,0.4,0.5,0.6c0.2,0.2,0.2,0.6,0.6,0.5
			c0.3-0.1,0.4-0.5,0.4-0.9c0-0.2-0.1-0.5-0.1-0.7c-0.1-0.4-0.1-0.8,0.4-0.9c0.5-0.2,0.8,0.2,1,0.6c0.2,0.5,0.1,1,0.1,1.5
			c0,0.3,0,0.6,0.3,0.5c0.7-0.2,1.1-0.8,1.4-1.4c0.3-0.5,0-0.9-0.5-1.2c-1.1-0.6-1.9-1.8-3.4-1.2c-0.3,0.1-0.6-0.2-0.9-0.4
			c-0.2-0.2-0.4-0.4-0.7-0.4c-1.8-0.2-2.2-0.6-1.8-2.4c0.2-0.8,0.4-1.5-0.2-2.2c-0.9-1.1-1-2.4-0.6-3.7c0.4-1.3,0.1-2.3-0.6-3.3
			c-0.7-1-1.4-2-1.6-3.1c-0.3-1.3-1-2.1-2.1-2.7c-1-0.6-2-1.2-2.9-2c-1.5-1.3-2.5-2.9-1.9-5.1c1.1-4.3,1-8.5-2.7-11.7
			c-0.1-0.1-0.2-0.2-0.3-0.4c-2.3-3.1-5.2-5.3-8.7-7c-3-1.4-5.1-3.6-5.5-7.1c-0.2-1.7-1.1-2.9-2.7-3.5c-1.7-0.5-2.8-1.7-3.5-3.3
			c-1-2.1-2.5-3.7-4.7-4.6c-1.2-0.5-2.3-1.3-3.2-2.2c-1.4-1.4-2.4-3.1-3.5-4.8c-1.8-2.7-3.7-5.3-6.3-7.4c-1.4-1.1-2.4-2.6-3-4.3
			c-0.6-1.8-1.5-3.5-2.5-5.1c-0.7-1.1-1.1-2.3-1.4-3.5c-0.8-3.1-1.5-3.8-4.7-4.1c-1.3-0.1-2.7-0.1-3.8-0.9c-1.5-1.1-3-2.2-4.8-2.7
			c-0.4-0.1-0.7-0.4-1-0.8c-0.8-1.2-1.9-2-3.1-2.7c-2.3-1.3-2.4-3.6-0.4-5.3c0.5-0.5,0.9-1,1.1-1.7c0.8-2.4,2.2-4.3,4.3-5.8
			c0.3-0.2,0.6-0.6,0.9-0.9c0.5-0.6,1.2-1.3,0.9-2c-0.3-0.8-1.3-0.3-2-0.3c-6.8,0.4-13.6,0.7-20.4,0.7c-20.6,0-41.3,0-61.9,0
			c-2,0-2,0-1.6,1.9c3.3,17.4,6.7,34.8,10,52.1c1.3,6.9,2.8,13.7,3.8,20.7c0.4,2.8,0.8,5.6,3,7.8c1.1,1,1.4,2.5,1.3,4
			c-0.2,1.9,0.3,3.4,1.6,4.7c0.8,0.8,1.2,1.8,1.3,3c0,1.3,0.4,2.6,1,3.8c0.8,1.6,0.7,3.2-0.2,4.7c-0.3,0.6-0.7,1.2-1,1.7
			c-0.8,1.5-0.7,2,0.8,2.8c1,0.5,2,0.9,2.8,1.6c1.3,1.2,1.3,2.1,0.3,3.5c-0.9,1.2-2.2,2-3.5,2.7c-1.8,1-2.1,1.7-1.8,3.7
			c0.1,0.7,0,1.3-0.2,1.9c-0.7,1.7-0.6,3.3,0,4.9c0.5,1.4,1.1,2.7,1.7,4.1c0.7,1.7,1.2,3.6,0.4,5.3c-1.4,2.9-1.7,5.9-1.9,8.9
			c-0.1,1.9-1.2,3.5-1.8,5.3c-0.7,2.4-0.7,4.6,1.7,6.2c0.7,0.5,0.9,1.2,1.2,2c0.3,0.9,0.1,2.1,1.1,2.7c1.2,0.7,1.6,1.7,1.6,3
			c0,1.3,0.3,2.5,0.9,3.6c0.4,0.7,0.6,1.6,0.5,2.4c-0.3,2.1,0.2,2.7,2.3,2.7c5.6,0,11.1,0.5,16.7,0.8c7.6,0.4,15.2,1,22.8,1.4
			c6.4,0.4,12.7,0.7,19.1,1.1c8.7,0.5,17.4,1.2,26.1,1.5c1,0,1.9,0.2,2.9,0.4c1.4,0.5,2.2,1.3,2,2.8c-0.1,1.6,0.5,2.9,1.2,4.2
			c0.5,1,3.1,1.3,3.8,0.5c0.2-0.2,0.2-0.5,0.2-0.7c-0.3-1.5,0.1-2.8,0.8-4.2c0.6-1.3,0.7-2.6,0.3-3.9c-0.2-0.7-0.4-1.5-0.6-2.2
			c-1-3.8,0.5-6.1,4.4-6.9c2.5-0.6,4.7,0.3,6.8,1.4c2,1.1,4.2,1.3,6.3,1.6c0.5,0.1,0.7-0.1,0.6-0.6c-0.3-1.1-1-2-1.7-2.9
			c-0.6-0.6-1.3-1.2,0.2-1.3c0.3,0,0.3-0.2,0.4-0.4c0-0.7,0.5-0.9,1-1.2c0.4-0.3,0.8-0.6,1.3-0.9c0.2-0.2,0.4-0.4,0.3-0.6
			c-0.1-0.2-0.3-0.3-0.5-0.3c-1.2-0.1-2.3-0.2-3.5-0.3c-0.5,0-1.1,0-1.6-0.2c-0.3-0.2-0.6-0.4-0.6-0.7c0-0.5,0.5-0.4,0.8-0.4
			c1.4,0,2.9,0,4.3-0.3c0.4-0.1,1.1,0.2,1.2-0.4c0.1-0.5-0.5-0.6-0.9-0.7c-0.4-0.1-0.7-0.3-0.7-0.8c0-0.5,0.6,0,0.8-0.4
			c-0.4-0.5-0.9-0.8-1-1.5c-0.2-1.1-0.3-2.2-0.8-3.2c-0.3-0.6,0-1,0.5-1.2c0.5-0.2,0.9,0.1,1,0.6c0.1,0.3-0.1,0.7,0,1
			c0.1,0.7,0.7,1.2,1.4,1c0.7-0.1,0.1-0.7,0.1-1.1c0-0.3-0.2-0.6-0.2-0.9c0-0.7,0.2-1.2,0.9-1.3c0.7-0.1,0.9,0.5,1.1,1
			c0,0.2,0.1,0.4,0.1,0.6c0,0.3,0,0.7,0.5,0.8c0.4,0.1,0.6-0.2,0.8-0.5c0.5-0.8,1.1-1.5,1-2.6c0-0.4,0.1-0.9,0.6-0.6
			c0.6,0.3,1.1,0.4,1.3-0.3c0.2-0.7-0.4-1-1.1-1.2c-0.9-0.2-1.7-0.6-2.4-1.1c-0.3-0.2-0.7-0.4-0.5-0.9c0.2-0.4,0.6-0.4,1-0.3
			c0.6,0.1,1.2,0.3,1.9,0.2c0.3,0,0.7-0.1,0.8-0.5c0.1-0.3-0.2-0.6-0.4-0.7c-0.8-0.3-1-1.1-1.4-1.7c-0.3-0.5-0.7-1.1,0.1-1.5
			c0.7-0.3,1.3-0.2,1.8,0.5c0.3,0.3,0.1,0.9,0.6,1.1c0.9-1.7,1.7-3.3,2.5-5c-0.8,0-1.2,0.5-1.6,1c-0.3,0.4-0.7,1.1-1.3,0.7
			c-0.8-0.4-0.1-1,0-1.5c-0.7,0.7-1.3,0.2-2,0.2c-0.4,0-0.8,0-0.8-0.5c0-0.5,0.3-0.7,0.7-0.7c1-0.1,1.8-0.7,2.8-0.8
			c0.6,0,1.3-0.5,1.4-1.1c0.2-0.7-0.6-0.8-1-1.1c-0.7-0.5-1.4-0.9-1.3-1.8c0.1-1,1.1-0.8,1.7-1.1c0.1-0.1,0.2-0.1,0.4-0.1
			c0.2,0,0.5,0,0.6-0.4c0-0.3-0.2-0.4-0.4-0.6c-0.2-0.2-0.5-0.3-0.7-0.5c-0.2-0.2-0.5-0.5-0.2-0.9c0.2-0.3,0.5-0.1,0.8,0
			c0.5,0.1,1,0.7,1.4,0.3c0.4-0.4-0.2-1-0.3-1.5c0-0.1-0.1-0.2-0.2-0.3c-0.6-0.9-0.7-1.8,0.1-2.6c0.4-0.4,0.3-0.6-0.2-0.8
			c-0.5-0.2-1.2-0.4-1-1.1c0.2-0.7,1-0.3,1.6-0.3C1006.6,431.7,1006.8,431.8,1007.1,431.9z M1008.1,434.1c-0.2,0.1-0.4,0.2-0.5,0.3
			c-0.3,0.3-1,0.7-0.7,1.2c0.5,0.8,0.1,1.9,1.1,2.4c0.2,0.1,0.4,0.1,0.5-0.1c0.3-0.7,0.9-0.9,1.5-1.3c0.2-0.2,0.6-0.5,0.4-0.7
			C1009.6,435.2,1008.8,434.7,1008.1,434.1z M998.4,470.8c0.3,0.9-1,1.2-0.8,1.9c0.2,0.8-0.2,0.8-0.7,0.6c-0.5-0.2-1.1,0-0.7,0.5
			c0.7,0.9,0.4,2,0.7,3C998.6,475.1,998.3,472.9,998.4,470.8z M1006.8,444.9c0.6-1.5,1.2-2.9,1.2-4.6c-1,0.5-1.4,1.5-2.3,1.8
			c-0.5,0.1-0.2,0.5,0.1,0.7C1006.5,443.4,1006.9,444,1006.8,444.9z"/>
	</g>
</g>
<circle fill="none" stroke="#114A56" stroke-width="6" stroke-miterlimit="10" cx="923.4" cy="397" r="117.8"/>
<line fill="none" stroke="#114A56" stroke-width="6" stroke-miterlimit="10" x1="862.4" y1="325" x2="862.4" y2="325"/>
<line fill="none" stroke="#114A56" stroke-width="6" stroke-miterlimit="10" x1="1037.7" y1="458" x2="1037.7" y2="458"/>
<line fill="none" stroke="#114A56" stroke-width="6" stroke-miterlimit="10" x1="1016.7" y1="472" x2="829.7" y2="329.4"/>
<g>
	<path d="M881.3,661.3l-5.4,0.5c-3.2,0-4.7-1.3-4.7-3.9c0-2.2,3-3.7,8.9-4.4c1.2-0.1,2.5-0.2,3.8-0.2c1.4,0,2.6,0.7,3.6,2.2
		s1.5,3.4,1.5,5.8c0,2.4,0.5,6.3,1.4,11.8s1.4,9.1,1.4,11c0,3.4-1.1,5.1-3.4,5.1s-3.8-1-4.6-2.9v-0.1c-0.5,0.2-1.6,0.7-3,1.6
		c-2.8,1.5-5.6,2.3-8.3,2.3c-2,0-4-0.4-5.9-1.2c-4.2-1.7-7.5-4.5-9.7-8.4c-2.4-4.2-4-8.2-4.8-12c-0.8-3.8-1.3-6.8-1.6-9
		c-0.3-2.2-0.6-4.8-0.7-7.7c-0.2-3.6-0.3-8-0.3-13.2l-0.1-10.2c0-8.9,0.3-15.3,0.9-19.2c0.6-3.9,1.2-7,1.8-9.5
		c0.6-2.5,1.3-4.7,2.1-6.6s1.8-3.8,3-5.6c1.2-1.8,2.5-3.4,4.1-4.5c3.3-2.6,7-3.9,11.3-3.9s6.3,1.3,6.3,3.9c0,1-0.4,1.8-1.1,2.4
		c-0.7,0.6-1.6,0.9-2.6,0.9l-4-0.7c-3.5,0-6.2,2.1-8.2,6.3c-2.1,4.5-3.5,8.9-4.1,13c-0.6,4.1-1,7.4-1.3,9.9
		c-0.4,2.5-0.6,5.3-0.7,8.4c-0.2,4.4-0.2,8.7-0.2,13.1l-0.1,8.6c0,8.8,0.4,15.1,1.2,18.8c0.8,3.7,1.6,6.7,2.5,8.9
		c0.8,2.3,1.8,4.1,3,5.5c3.8,2.9,7.2,4.6,10.1,4.9c4.1,0,7.5-1.9,10.2-5.8C883.4,668.9,882.7,663.6,881.3,661.3z"/>
	<path d="M900.8,616.5l-0.7-11.7c0-6.5,1.9-9.8,5.8-9.8c2.5,0,5.8,0.6,10.1,1.7c4.3,1.1,6.4,2.6,6.4,4.4c0,1.9-1.4,3.3-4.1,4.3
		c-4.3-1.4-7.8-2.3-10.5-2.6c0.1,2,0.2,4,0.2,5.9l-0.6,19.8c0,0.1,0.1,0.8,0.4,2.2l4.9-0.2c4.5,0,6.7,1.3,6.7,3.8
		c0,1-0.4,1.9-1.2,2.6c-0.8,0.7-1.8,1.1-3.1,1.1s-2.6-0.1-4-0.3h-3.5c0.3,3.5,0.4,7,0.4,10.5l-0.6,25c0,5.2,0.1,7.8,0.3,7.8
		l10.2-0.3c3.5,0,5.3,1.1,5.3,3.4c0,1.4-0.6,2.4-1.8,3c-1.2,0.6-2.6,0.9-4.1,0.9h-11.7c-1.2,0-2.3-0.4-3.3-1.2c-1-0.8-1.5-1.8-1.6-3
		v-3.6l-0.9-23.4L900.8,616.5z"/>
	<path d="M929.1,644.1l0.1-5.3c0-0.4-0.1-0.7-0.2-0.7v-2.5c0-14.5,0.8-24.8,2.5-30.9c1.4-5.2,2.7-8.4,4.1-9.6
		c1.3-1.2,2.6-1.8,3.8-1.8c10.7,0,18.1,5.4,22.1,16.2c2.3,6.2,3.5,13.9,3.5,23v1l0.3,15.7c0,26.5-6.1,39.8-18.4,39.8
		c-5.1,0-9-2.8-11.7-8.4c-2.6-5.4-4.1-10.7-4.7-15.9C929.6,656.6,929.1,649.8,929.1,644.1z M937.3,625.2l-0.7,12.8
		c0,13.4,1.1,25,3.2,35c2.3,5.8,4.5,9.2,6.5,10.3c1.7,0,3.2-0.7,4.5-2c1.4-1.4,2.4-3.2,3.2-5.4c0.8-2.3,1.5-4.7,2-7.2
		c0.5-2.5,0.9-5.1,1.1-8c0.4-4.9,0.7-9.1,0.7-12.6s-0.3-8.8-0.9-15.9s-0.9-12.5-0.9-16v-2.4c-0.1-3.4-1.2-6.4-3.3-9
		c-2.1-2.6-4.8-3.9-8.1-3.9c-3.2,0-5.2,1.8-6.3,5.3c-0.9,3-1.3,6.6-1.3,11L937.3,625.2z"/>
	<path d="M980.8,640l-0.1,15c0,12.2,0.9,21.8,2.6,28.8l-1.6,3.7h-3.8l-1.8-2c0.1-4.1,0.1-8.8,0.1-13.9c0-5.2-0.4-16.2-1.2-33
		c-0.8-16.9-1.2-29.5-1.2-37.8c0-4.4,1.5-6.5,4.6-6.5c4.8,0,8.9,1.3,12.2,3.8c3.3,2.5,4.9,6.1,4.9,10.8v9.7c0,2.7-0.5,5.1-1.5,7.3
		c-1,2.2-2.1,4.5-3.4,6.9c-1.3,2.4-2,3.7-2.2,4c0.5,2.3,1.4,6.7,2.6,13.2c2.7,14.4,5.7,24.7,9,31c0.9,1.8,1.4,3.2,1.4,4.2
		s-0.3,1.9-0.8,2.6c-0.6,0.7-1.3,1-2.3,1c-1.9,0-3.8-2.2-5.6-6.7c-1.8-4.4-3.2-9.4-4.3-14.8c-3.3-16.5-5.3-25.6-6-27.3H980.8z
		 M981.4,599.3l-0.5,2c0,3.8,0.1,9.2,0.3,16.4c0.2,7.1,0.3,12.3,0.3,15.6c2.2-1.1,3.9-4.1,5.2-8.8c1.3-4.7,2-8.4,2-10.9
		c0-2.5-0.1-4.4-0.2-5.6c-0.1-1.2-0.4-2.5-0.9-3.9C986.7,601,984.6,599.4,981.4,599.3z"/>
	<path d="M1040.5,658.6l0.7,14.7c0,4.5-1.6,8-4.8,10.5c-3.2,2.5-6.9,3.7-11.1,3.7c-6.4,0-11-2.4-13.9-7.2c-2.1-3.4-3.4-6.6-3.9-9.6
		c-0.5-3-0.9-5.3-1.1-6.9c-0.2-1.6-0.4-3.8-0.5-6.5c-0.2-3.8-0.3-6.9-0.3-9.2V642c0-13,0.4-21.2,1.1-24.7s1.6-6.6,2.6-9.6
		s2.2-5.3,3.6-6.9c3.5-4,7.5-5.9,12-5.9c4.5,0,6.8,1.2,6.8,3.5c0,1.1-0.5,2-1.3,2.7c-0.9,0.7-1.9,1-3,1l-2.9-0.3
		c-3.2,0-5.6,3.2-7.2,9.5c-2.3,9-3.5,19.9-3.5,32.6c0,8.7,0.3,14.7,0.8,17.9c0.6,3.3,1.2,6,1.9,8.2c0.6,2.3,1.4,4.1,2.3,5.4
		c2.1,3.2,4.8,4.8,8.2,4.8c4.5,0,6.7-7.3,6.7-22v-6.3c-0.7-0.4-1.8-0.5-3.2-0.5l-2.7,0.1c-3.2,0-4.8-1.1-4.8-3.2
		c0-1.3,0.5-2.3,1.4-3c0.9-0.7,2-1,3.3-1v0.1h1.9c8.3,0,12.4,1.4,12.4,4.3L1040.5,658.6z"/>
	<path d="M1064.9,640.3l0.7,29.4v4.1l-0.1,3.8h1.8l4-0.1c3.8,0,5.7,1.1,5.7,3.4c0,1.2-0.5,2.2-1.4,3c-0.9,0.8-2,1.2-3.2,1.2h-6.1
		c-4.2,0-6.9-0.1-8-0.3c-0.7,0.1-1.3,0.1-1.7,0.1c-3.3,0-4.9-1-4.9-3.1c0-0.9,0.3-1.7,0.8-2.4c0.5-0.8,1.1-1.2,1.6-1.2h3.9l0.3-1.8
		l-0.9-29.4l0.7-30.8c0-5.3-0.2-10.2-0.7-14.9h-2.6l-3.2,0.1c-1.4,0-2.4-0.3-3.2-0.8s-1.1-1.5-1.1-2.9c0-2.1,2.3-3.2,6.8-3.2h16.5
		c3.7,0,5.6,1,5.6,2.9c0,0.9-0.4,1.6-1.2,2.4c-0.8,0.7-1.7,1.1-2.8,1.1h-7.1c0.4,3.8,0.5,8.1,0.5,12.8L1064.9,640.3z"/>
	<path d="M1114.2,658.2l1.5,8.5c0,1.1,0.4,3.9,1.3,8.2c0.9,4.4,1.3,7.2,1.3,8.6v0.1c0,2-0.8,3.3-2.3,3.9c-1.9,0-3.4-0.3-4.5-0.9
		s-1.6-1.8-1.6-3.6c0-3.9-0.7-9.6-2-17.1l-13.6-2c-0.9,3.1-1.5,6.4-2,10.1c-0.5,3.6-0.9,6.3-1.3,8c-0.8,3.4-2.3,5.1-4.5,5.1
		c-1.1,0-2.1-0.3-3-1c-0.9-0.7-1.4-1.6-1.4-2.7l0.3-1.2c6.2-24,10.8-47.3,13.8-70.1c0.1-0.6,0.2-2.5,0.4-5.5
		c0.4-6.8,1.3-11,2.6-12.9h4.7c1.3,0,2.4,0.3,3.3,0.9c0.9,0.6,1.4,1.5,1.4,2.6c0,7,0.9,17.4,2.8,31.3
		C1113.3,642.2,1114.2,652.2,1114.2,658.2z M1107,661c-0.3-1.4-0.4-3.7-0.4-7.1c0-3.4-0.2-7.5-0.6-12.5c-0.4-5-0.9-10.8-1.7-17.4
		s-1.2-11.4-1.5-14.3c-4.2,23.2-6.9,39.5-8.1,49C1096.4,659.8,1100.4,660.6,1107,661z"/>
</g>
</svg>
