<?xml version="1.0" encoding="utf-8"?>
<!-- Generator: Adobe Illustrator 18.0.0, SVG Export Plug-In . SVG Version: 6.00 Build 0)  -->
<!DOCTYPE svg PUBLIC "-//W3C//DTD SVG 1.1//EN" "http://www.w3.org/Graphics/SVG/1.1/DTD/svg11.dtd">
<svg version="1.1" id="Layer_1" xmlns="http://www.w3.org/2000/svg" xmlns:xlink="http://www.w3.org/1999/xlink" x="0px" y="0px"
	 viewBox="632.8 418.6 136.3 136.9" enable-background="new 632.8 418.6 136.3 136.9" xml:space="preserve">
<path fill-rule="evenodd" clip-rule="evenodd" fill="none" stroke="#000000" stroke-width="5" stroke-miterlimit="10" d="
	M746.7,458.5c-4.7-0.7-8.4-2.3-11.1-6.9c0.1-0.6,0.2-1.2,0.3-1.8c3.9-24.2,28.7-8.3,28.7-8.3s3.8-0.9-16-15.9
	c-19.8-15-35.8,12.3-35.8,12.3s0,0.1-0.1,0.2c-7.4-1.4-14.6-1.8-21.7-0.2c0,0-16.1-27.3-35.8-12.3c-19.8,15-16,15.9-16,15.9
	s24.8-15.8,28.7,8.3c-1.6,2.1-3.1,4.2-4.8,6.1c-0.8,0.9-1.9,1.8-2.9,1.8c-9.9-0.1-16.6,6.8-23.4,15.3c5.7,2.3,10.6,3.7,15.9,1
	c2.2-1.1,2.8-0.5,2.4,2.5c-0.1,0.7-0.3,1.4-0.4,2.1c-2.4,13.9-2.1,27.4,4.4,39.8c7.8,14.9,18.7,25.3,32,32.1
	c6.9,3.5,13.9,3.5,20.6-0.3c5.1-2.9,10.1-6.2,14.7-10c7.2-6,13-13.8,17.4-23c6-12.5,6-25.7,3.6-39.4c-0.2-1.3,0-2.7,0-4
	c1,0.2,2,0.3,3,0.7c5,2.1,9.7,0.8,14.8-1.4C759.8,465.9,754.3,459.6,746.7,458.5z"/>
</svg>
