<?xml version="1.0" encoding="utf-8"?>
<!-- Generator: Adobe Illustrator 18.0.0, SVG Export Plug-In . SVG Version: 6.00 Build 0)  -->
<!DOCTYPE svg PUBLIC "-//W3C//DTD SVG 1.1//EN" "http://www.w3.org/Graphics/SVG/1.1/DTD/svg11.dtd">
<svg version="1.1" id="Layer_1" xmlns="http://www.w3.org/2000/svg" xmlns:xlink="http://www.w3.org/1999/xlink" x="0px" y="0px"
	 viewBox="323.4 281.5 755.9 406.5" enable-background="new 323.4 281.5 755.9 406.5" xml:space="preserve">
<g>
	<path d="M323.4,613.3c7-7.9,14.1-15.8,21.2-23.6c7.1-7.8,14.3-15.6,21.5-23.3c3.6-3.9,7.3-7.7,10.9-11.5l11-11.5
		c3.7-3.8,7.3-7.6,11-11.4c3.7-3.8,7.4-7.6,11.1-11.4c7.4-7.6,14.9-15,22.4-22.5l11.3-11.2l11.4-11.1c3.8-3.7,7.6-7.3,11.5-11
		c3.8-3.7,7.7-7.3,11.5-10.9l11.6-10.9l11.7-10.8c3.9-3.6,7.9-7.1,11.8-10.6l5.9-5.3l6-5.2c4-3.5,8-7,12-10.4l12.1-10.3
		c4-3.4,8.2-6.8,12.3-10.2l6.2-5.1l6.2-5l6.2-5c2.1-1.7,4.2-3.3,6.3-4.9l12.7-9.7c8.6-6.3,17.1-12.7,25.9-18.7l6.6-4.6l6.7-4.4
		l6.7-4.4c1.1-0.7,2.2-1.5,3.4-2.2l3.4-2.1l6.8-4.2c2.3-1.4,4.5-2.9,6.9-4.1c4.7-2.6,9.3-5.3,14-7.9l14.4-7.4l14.8-6.8l4.6-2.1
		l4.1,3.7l15.6,14.2l15.6,14.1l31.3,28.2l15.6,14.1l15.6,14.2c5.2,4.7,10.3,9.5,15.5,14.3l7.7,7.1l7.7,7.2l-11.1-2l17.1-7.1
		c5.7-2.4,11.5-4.7,17.2-7l17.2-7l17.2-6.9l5.1-2l4.2,3c2.1,1.5,4,2.9,5.9,4.4c1.9,1.5,3.8,2.9,5.7,4.4c3.8,2.9,7.5,5.9,11.3,8.9
		c3.7,3,7.4,6,11.1,9c3.7,3,7.4,6.1,11,9.1c3.6,3.1,7.3,6.1,10.9,9.2l10.8,9.3l10.7,9.5c3.6,3.1,7.1,6.3,10.6,9.5
		c3.5,3.2,7.1,6.3,10.6,9.6l10.4,9.7c3.5,3.2,6.9,6.5,10.4,9.8c3.5,3.3,6.9,6.5,10.3,9.8l10.2,9.9c3.4,3.3,6.8,6.6,10.2,10
		c6.7,6.7,13.4,13.5,20,20.3l-1.3,1.5c-7.5-5.8-15-11.6-22.4-17.5c-3.7-2.9-7.5-5.8-11.2-8.8l-11.1-8.8
		c-7.5-5.8-14.8-11.8-22.3-17.6L988.7,453c-3.7-2.9-7.4-5.8-11.2-8.7l-11.2-8.7L955,427l-11.3-8.6c-3.7-2.9-7.5-5.7-11.3-8.5
		l-11.3-8.4c-3.8-2.8-7.6-5.5-11.4-8.2l-5.7-4c-1.9-1.3-3.9-2.7-5.6-3.9l9.2,0.9l-17,7.4l-17.1,7.4c-5.7,2.4-11.4,4.9-17.1,7.3
		l-17.1,7.2l-6.2,2.6l-4.9-4.6l-7.7-7.2l-7.7-7.2c-5.1-4.8-10.2-9.6-15.3-14.5l-15.2-14.6l-15.2-14.6l-30.3-29.3l-15.2-14.6
		l-15.2-14.6l8.7,1.6l-14.2,6l-14,6.8c-4.6,2.4-9.2,4.9-13.7,7.4c-2.3,1.2-4.5,2.6-6.8,3.9l-6.8,4l-3.4,2c-1.1,0.7-2.2,1.4-3.3,2.1
		l-6.6,4.2l-6.6,4.2l-6.5,4.4c-8.8,5.7-17.3,11.8-25.9,17.8l-12.7,9.3c-2.1,1.5-4.2,3.1-6.3,4.7l-6.3,4.8l-6.3,4.8l-6.2,4.9
		c-4.1,3.3-8.3,6.5-12.4,9.8l-12.3,9.9c-4.1,3.3-8.1,6.7-12.2,10.1l-6.1,5l-6,5.1c-4,3.4-8.1,6.8-12,10.3l-12,10.4l-11.9,10.4
		c-4,3.5-7.9,7-11.8,10.5c-3.9,3.5-7.9,7-11.8,10.6l-11.7,10.7l-11.6,10.8c-7.7,7.2-15.4,14.4-23,21.8c-3.8,3.6-7.6,7.3-11.4,11
		c-3.8,3.7-7.6,7.3-11.4,11l-11.3,11.1c-3.8,3.7-7.5,7.4-11.2,11.2c-15,14.9-29.8,30-44.4,45.3L323.4,613.3z"/>
</g>
<g>
	<path d="M609.3,586.9l0.4-55.5c0-9.7-0.7-20.9-2.1-33.7c-1.4-12.7-2.1-21.1-2.1-25c0-3.9,0.8-6.8,2.4-8.7c1.6-1.9,3.5-2.8,5.9-2.8
		c7.2,0,10.8,7.9,10.8,23.7c0,0.1-0.4,20.1-1.3,60.1c0.7-1.6,2.5-6.4,5.6-14.3c3-7.9,6.2-15.8,9.4-23.8c3.3-7.9,6.8-16.1,10.6-24.7
		c8.4-19.2,14.5-28.8,18.3-28.8c2.2,0,4.1,0.7,5.8,2.2c1.7,1.5,2.5,3.2,2.5,5.3c0,2-5.3,14.2-15.9,36.4
		c-10.6,22.3-16.6,36.4-17.9,42.4v5.1c2.9,7.2,10.6,30.9,23.3,70.9c12.7,40,19,61.3,19,63.7s-1,4.4-2.9,6.1c-1.9,1.6-4,2.4-6.4,2.4
		l-6.8-1.1c-4.9-27.7-9.9-51.8-15.1-72.4c-5.2-20.6-12.1-40.2-20.5-58.8c-5.8,10.4-8.8,16.6-9.1,18.8c-0.6,5.9-0.9,10.6-0.9,14
		l1.9,54.2v24c0,10.4-3.3,15.5-10,15.5c-5.7,0-8.6-4.9-8.6-14.8s0.6-23.5,1.9-41C608.6,608.8,609.3,595.7,609.3,586.9z"/>
	<path d="M700.4,533.6l-1.6-24.7c0-13.8,4.1-20.7,12.3-20.7c5.2,0,12.4,1.2,21.4,3.6c9,2.4,13.6,5.5,13.6,9.3c0,4-2.9,7-8.6,9.1
		c-9-3-16.4-4.9-22.1-5.6c0.3,4.2,0.4,8.4,0.4,12.6l-1.3,41.9c0,0.2,0.3,1.7,0.9,4.6l10.4-0.4c9.4,0,14.1,2.7,14.1,8
		c0,2.1-0.9,3.9-2.6,5.5s-3.9,2.4-6.5,2.4c-2.6,0-5.4-0.2-8.5-0.6H715c0.6,7.4,0.9,14.8,0.9,22.1l-1.3,52.9
		c0,10.9,0.2,16.4,0.6,16.4l21.5-0.7c7.4,0,11.1,2.4,11.1,7.1c0,2.9-1.3,5.1-3.9,6.4c-2.6,1.3-5.5,2-8.7,2h-24.7
		c-2.6,0-4.9-0.9-7-2.6c-2.1-1.8-3.2-3.9-3.3-6.3v-7.7l-1.9-49.4L700.4,533.6z"/>
	<path d="M784.4,507.2l-2.7,58.6v7.8l5.4-0.1c9.4,0,14.1,2.6,14.1,7.7c0,2.6-1,4.6-3.1,6.2c-2.1,1.6-4.8,2.4-8.2,2.4
		c-3.4,0-6.9-0.6-10.5-1.7v82.7c0,8.6-2.5,12.8-7.6,12.8c-3,0-6.5-1.5-10.4-4.4c1.6-17.4,2.8-42.2,3.6-74.2
		c0.8-32.1,1.5-53.1,2.1-63v-7.1c0.8-14.2,1.1-27.4,1.1-39.7c0-2.8,1.2-4.9,3.5-6.4c2.3-1.5,4.9-2.3,7.8-2.3c2.9,0,6,0.1,9.3,0.3
		c3.4,0.2,7.6,0.7,12.4,1.4c11,1.6,16.5,5,16.5,10.1c0,5.5-4.9,8.3-14.8,8.3c-3.9-1.9-9-2.9-15.3-2.9h-3.4V507.2z"/>
	<path d="M862.8,584l1.4,62.1v8.7l-0.1,8.1h3.9l8.4-0.3c8,0,12,2.4,12,7.3c0,2.5-1,4.6-2.9,6.3c-2,1.8-4.2,2.6-6.8,2.6h-12.8
		c-8.8,0-14.5-0.2-17-0.6c-1.5,0.2-2.7,0.3-3.6,0.3c-6.9,0-10.4-2.2-10.4-6.6c0-1.8,0.6-3.5,1.7-5.1c1.1-1.6,2.3-2.5,3.4-2.6h8.3
		l0.6-3.9l-2-62.1l1.6-65c0-11.1-0.5-21.6-1.4-31.4h-5.6l-6.7,0.3c-2.9,0-5.1-0.5-6.7-1.6c-1.6-1.1-2.4-3.2-2.4-6.2
		c0-4.5,4.8-6.7,14.4-6.7h34.8c7.9,0,11.8,2,11.8,6.1c0,1.8-0.9,3.5-2.6,5c-1.7,1.5-3.7,2.3-5.8,2.3h-15c0.8,8,1.1,17,1.1,27.1
		L862.8,584z"/>
	<path d="M916.8,583.2l-0.3,31.7c0,25.8,1.9,46.1,5.6,60.9l-3.3,7.8h-8.1l-3.9-4.3c0.2-8.7,0.3-18.6,0.3-29.5
		c0-10.9-0.8-34.2-2.5-69.8c-1.7-35.7-2.5-62.3-2.5-79.9c0-9.2,3.2-13.8,9.7-13.8c10.2,0,18.7,2.7,25.7,8
		c6.9,5.3,10.4,12.9,10.4,22.8v20.5c0,5.6-1,10.7-3.1,15.3c-2.1,4.6-4.5,9.5-7.3,14.5c-2.8,5.1-4.3,7.9-4.6,8.5
		c1,4.8,2.9,14.1,5.6,28c5.7,30.3,12,52.2,19,65.5c2,3.8,3,6.8,3,8.9s-0.6,3.9-1.8,5.4c-1.2,1.5-2.8,2.2-4.8,2.2
		c-4.1,0-8-4.7-11.8-14c-3.8-9.4-6.8-19.8-9.1-31.2c-6.9-34.9-11.2-54.1-12.7-57.6H916.8z M918,497.2l-1,4.1c0,8,0.2,19.5,0.6,34.6
		c0.4,15.1,0.6,26,0.6,32.9c4.6-2.4,8.2-8.6,11.1-18.6c2.8-10,4.2-17.7,4.2-23c0-5.3-0.1-9.2-0.4-11.8c-0.3-2.5-0.9-5.3-1.9-8.3
		C929.2,500.8,924.8,497.5,918,497.2z"/>
</g>
</svg>
