<?xml version="1.0" encoding="utf-8"?>
<!-- Generator: Adobe Illustrator 18.0.0, SVG Export Plug-In . SVG Version: 6.00 Build 0)  -->
<!DOCTYPE svg PUBLIC "-//W3C//DTD SVG 1.1//EN" "http://www.w3.org/Graphics/SVG/1.1/DTD/svg11.dtd">
<svg version="1.1" id="Layer_1" xmlns="http://www.w3.org/2000/svg" xmlns:xlink="http://www.w3.org/1999/xlink" x="0px" y="0px"
	 viewBox="378.2 264.9 647.8 436.4" enable-background="new 378.2 264.9 647.8 436.4" xml:space="preserve">
<path d="M519.7,319c-2.9,4.1-6.9,7.6-3.5,13.7c1,1.8-2.1,5.4-5,5c-3.6-0.5-3.9,1.7-4.6,3.8c-1.4,4.1-2.4,8.5-4.4,12.3
	c-1.9,3.5-3.6,6.8-4,10.8c-0.2,1.9-1.4,3.3-3.8,2.9c1.8-6.6,3.3-13.3,6.2-19.5c1.5-3.2,2.6-6.6,3-10.1c0.2-1.5-0.1-2.9-1.5-3.4
	c-1.8-0.6-1.9,1.2-2.7,2.2c-5.2,7.2-6,16.2-10.4,23.8c-2,3.4-2.5,7.6-3.8,11.4c-0.8,2.3,0.3,4.2,2.2,5.1c2.3,1.1,2.5-1.5,3.3-2.7
	c1.4-2.3,2.6-4.6,3.9-7c1.1,3.5,0.4,7.1-1,10.1c-1.9,4-1.1,7,1.5,10.1c1.7,2,2.4,4.5,2.1,7.1c-1.3,10.9-0.4,21.8-0.5,32.7
	c0,2.7-0.4,5.1-1.9,7.6c-1.8,3-1.9,5.8,1.3,8.8c8.4,8.1,13.5,18.7,19.7,28.5c1.6,2.6,2.6,5.6,2.7,8.6c0.6,19.7,6,38.5,11.9,57.1
	c1.8,5.9,1.5,12,2.6,17.9c1.4,7.7,5.3,14.1,9.6,20.2c5.9,8.4,12,16.5,16.4,25.9c5.3,11.3,13.6,20.8,18.9,32.1c4.3,9,7.5,18.4,9.8,28
	c0.9,3.9,0.2,7.6-2.3,11c-3.6,5-6.2,10.6-11,14.9c-6.9,6-14.9,9-23.5,10.8c-2.8,0.6-6-0.4-8.9-1.1c-17.4-4.2-34.6-1.9-52,0
	c-11.2,1.2-22.7-0.1-34-2.2c-8.5-1.6-16.7,0-24.9,1.7c-9.5,2-19.2,3-28.8,4c-9.9,1.1-18.2-7.1-22.1-18.7
	c-3.6-10.9-1.3-21.6,0.9-32.3c2-9.5,5.5-18.6,9.3-27.6c2.7-6.6,3.4-13.7,2.1-20.8c-1.4-7.5,0.7-14.1,4.3-20.7
	c5.4-9.7,11.2-19,18.8-27.2c4-4.3,2.2-9.5,1.3-14.4c-0.4-2.3-1-4.5-1.3-6.9c1.4,3.9,3.4,7.5,4,11.7c0.6,4.3,9,10.7,14.1,11.3
	c0.3-1.8-1.3-2.4-2.3-2.7c-5.5-1.6-5.4-6-5-10.1c1-9.7,1.3-19.3,0.7-29c0-0.6-0.1-1.4,0.2-1.9c3-5.5,0.1-9.4-3.5-12.9
	c-1.7-1.7-2.4-2.9-1.3-5c1.3,0.2,1.4,1.2,1.7,1.9c0.9,2.4,2.3,5.9,4.3,5.6c2.7-0.3,3.2-4.2,3.2-6.7c0.1-3.4,1.8-6.8-0.2-10.7
	c1.9,1.6,3.3,2.5,4.3-0.5c1.5-4.4,3.5-8.7,6.2-12.4c2.1-2.9-1-5.1-0.5-7.6c1.3,2.3,2.4,4.4,4.9,0.7c1-1.4,1.9-3.1,3.2-4.3
	c2.6-2.5,2-5.2-0.1-7.5c-2.3-2.4-3,1.8-4.8,1.6c2.2-3.4,4.6-6.6,7.6-9.4c2.6-2.5,2.9-5.2,1.2-8.6c-5.1-10.1-9.1-20.6-10.4-31.9
	c-0.5-4,0.7-7.7,2-11.3c1.7-4.8,4.8-9.2,4-14.7c-0.2-1.4,0.6-2.9,2.5-3.2c4.7-0.8,4.7-0.8,5-5.9c2.5,4.6,6.5,0,9.5,2.6
	c1,0.9,1.6-1.1,1.8-2.3c0.2-1.2-0.5-3,1.4-3.3c1.5-0.2,3,0.4,3.9,1.8c1.1,1.7,2.2,3.4,3.3,5.1c0.5,0.8,0.9,2,2,2
	c1.2-0.1,1.4-1.4,1.7-2.3c3.3-8.8,6.6-17.6,9.9-26.4c1.1-2.8,2-5.7,3.3-8.4c1.3-2.7,2.4-4.5-0.7-7.3c-3.2-2.9-1.5-6.9,3.1-8.4
	c3.1-1,3.4-1.9,1.7-4.5c-3.5-5.1-2.1-8.9,3.9-10.3c2.3-0.6,2.1-1.6,1.3-3.2c-2.2-4.8-1.4-7.5,3.3-10.2c1.3-0.7,2.3-1.3,2.4-2.8
	c0.1-1.8-2.6-5.3,2.6-4c0.6,0.2,1.2-2.2,0.4-3.1c-3.3-3.6,0-3.5,2.1-4c3.7-0.8,5.2-3.9,2.9-7.1c-1.6-2.2-0.6-3.8,0.3-5.5
	c1.1-1.9,2.8-3.1,5.1-2.3c4.6,1.5,9.5,2.2,13.7,4.9c2.3,1.4,3.7,2.9,3.2,5.6c-0.4,2.5-1.3,4.5-4.5,4.2c-2.6-0.2-3.2,2-4,3.8
	c-0.8,1.8,0.2,2.3,1.6,3.4c2.7,2.1,0.1,7.9-3.8,8.8c-1.3,0.3-2.8,0-3.3,1.6c-0.6,2,1.4,1.9,2.3,2.8c2.7,2.6,0.8,8.6-3.8,9.7
	c-3.6,0.9-5.5,1.5-2.7,5.3c1.1,1.5,0.1,2.9-1.2,3.9c-0.3-0.7-0.5-1.9-1-2.1c-5.4-2.3-10.8-4.5-16.2-6.6c-1.4-0.6-2.3,0.2-2.6,1.5
	c-0.3,1.3,0.1,2.8,1.5,2.5c3.1-0.6,4.9,1.6,7.3,2.5C512.1,318.4,515.5,321.4,519.7,319z M450.7,541.6c1.4-5.8-3.4-3.4-5.6-4.2
	c-1.6-0.6-2.8,0.1-2.3,1.9c0.8,2.9,3.1,3.1,5.6,2.7c0.8-0.1,1.6-0.4,2.4-0.5c-3.7,3.9-3.7,7.9-0.5,12.1c1.6-5.2,2.5,2.9,4.2-0.3
	C453.6,549.5,453.8,545.1,450.7,541.6z M517.4,303.4c1.4,4.3,4.8,1.9,7.3,1.9c0.8,0,0.9-1.2,0.3-2c-1.5-2.1-6-1.9-7.7,0.3
	c0-0.7,0.3-1.8,0-1.9c-3.5-1.8-7-3.9-10.7-5.1c-1.7-0.6-2.8,1.4-3.1,3.2c-0.1,1,0,2.4,1.2,2.3c3.5-0.4,6.4,0.9,9.1,2.8
	C515.9,306.1,516.4,304.3,517.4,303.4z M420.7,575.7c-1.2,4,4.4,6.4,2.5,10.6c2.1-0.1,3.5,1.4,5,2.6c0.5,0.4,1-0.7,0.9-1.4
	c-0.3-1.5,0.5-3.1-1.3-4.5c-2.6-2.1-4.8-4.7-7.2-7.1c-1.3-1.9-2.7-3.7-3.1-6.2c-0.2-1-0.4-3.1-2.9-2.1c-1.9,0.8-2.2,0.3-1.3-1.9
	c0.4-0.9,0.7-1.5,0-2.2c-0.5-0.6-1.1-0.5-1.7,0c-3.4,2.8-4.5,12.6-1.3,15.8c2.1,2.2,4.6,5,7.5,4.9c1.9-0.1,0.7-4.2,2-6.1
	C420.2,577.3,420.4,576.5,420.7,575.7z M469.9,656.3c-2.5-1.8,0.2-4.9-1.8-6.9c-1.8,0.2-0.6,2.2-1.8,2.7c-1.4-4.1,2.4-7.5,1.1-11.4
	c2.1-0.3,0.8,2.3,3.6,2.1c0-14.1-1.9-28.3,0.4-42.5c-0.8,0.5-1.3,1-1.3,1.6c-1.3,8.9-2.7,17.8-1.7,26.9c0.2,1.9-0.5,3.9-1.1,5.8
	c-1.8,5.7-3.9,11.6-4.6,17.5c-0.3,2.3,0.8,5.5,1.3,8.3c0.7,4.1,1.5,8.2,4.6,11.5c-2-3.6,1.1-7.4-0.2-10.4c-1.3-2.8-0.3-3.9,1.4-5.4
	c1.4,5.3,2.7,10.7,3.2,16.2c0.4,4.7,1.7,9.2,3.7,13.5c0.9-3.6-1-6.8-1.1-10.3c-0.1-1.5-1.4-3.8,1.1-4.1c1.8-0.2,2,1.9,2.2,3.4
	c0.7,5.2,3,9.4,7.1,13.1c0.2-2.7,0.3-4.7-1.7-7.2c-2.7-3.5-5.1-7.6-3.3-12.9c1-3,0.5-6.7-1.7-11.1c-0.1,2.5-0.2,3.6-0.3,4.8
	c-0.2,2.6-0.5,6-3.3,6.1c-3.6,0.1-2.2-3.7-2.7-6c-1.7-7.9,1.3-15.8-0.5-24.3c-0.5,3.5-1,6.5-1.4,9.5
	C470.7,650,470.3,653.2,469.9,656.3z M500.4,477.8c-1.5-0.5-2.6-3.3-4.1-2.1c-1.2,1-2.2,3.2-1.4,5.3c0.3,0.9,0.6,2.5-0.7,2.4
	c-3.9-0.2-7.4,2.1-11.3,1.8c-6.4-0.6-12.7-0.3-19,0.3c-7.4,0.7-7.3,0.9-6.3-6.5c0.3-2.2,1.4-5.6-0.2-6.5c-2.7-1.4-3,3-5.1,3.8
	c-1.7,0.7-0.8,1.8-0.9,2.9c-0.1,1.6,0.2,3.4-1.7,4.3c-2.4,1.2-2.6,3.5-3.1,5.9c-1.1,5.7-0.2,11.6-1.8,17.3c-0.5,1.9-1.8,5.4,0.6,5.7
	c2.9,0.4,1.4-3.4,1.9-5.2c1.1-4,0.5-8.3,2.6-12.2c0.8,2.3,0.8,4.7,1.9,6.8c0.6,1.1,0.3,3.2,1.9,3.2c2.2,0,1.3-2.3,1.8-3.6
	c0.3-0.9,0.2-2.1,1.9-1.7c0.8,3.9-3.3,7.9-0.3,11.7c3.4-2.8,3.5-6.7,4-10.5c0.1-1.2,0-3.5,1.9-2.5c2.4,1.2,4.8,3.2,4.8,6.3
	c0,1.7-1.9,3.8,1.2,4.3c2.9,0.5,2.3-2.2,2.7-3.8c0.1-0.6,0.4-1.2,0.6-2c1.3,1.8-1.4,3.7,0.9,5.2c1.7-1.8,0-5.1,3.1-6.4
	c0.5,3,1.1,5.9,1.7,9.3c1.2-4.8,2.2-9,3.2-13.2c2.9,6.6-1.5,13.3,1.8,19.6c0.1,0.1,0,0.4-0.1,0.5c-6.3,4.4-0.2,8.6,0,12.8
	c2.2-2.8-1.2-5.7,0.2-8c3.2-5.6,1.5-11.7,2.4-17.5c0.4-2.8-2.8-6.9,3.1-7.4c0.3,0,0.5-0.2,1-0.3c-0.3,4.4-3,8.3-2.1,12.8
	c0.2,1.1-0.3,2.5,1.4,2.7c1.3,0.1,2.1-0.7,2.7-1.9c1.2-2.6,0.3-5.3,1.1-8.1c1.3,3,0.9,6.6,3.3,9.2c1.8-6.4-1.9-12.4-0.8-18.6
	c2.6,3.8,4,7.9,5.3,12.3c3.7-7.3-0.9-14.5-0.4-21.6c1.7-0.6,1.8,2.3,3.4,1.1c0.3-3.3-2.3-5.3-3-8c0.9,0.4,1.3,1.6,3.7,1.1
	c-4.7-7-3.7-15.7-8-23.4C493.1,464.3,495.1,471.4,500.4,477.8z M531.7,640.9c-5,2.2-3.6,7.9-6.8,11.2c-1.5-2.7,1-7.2-0.9-7.2
	c-4.9,0-1.8-2.9-1.7-3.8c1.8-10.7,1.4-21.7,5.9-31.9c0.7-1.6-0.1-3.7-1.3-3.9c-3-0.5-2.6-3-3.7-4.7c-2.3-3.5-2.9-7.8-5.2-11.4
	c-1.4-2.1-2-2.3-3.5-0.6c-3.2,3.5-4.7,8.2-8.2,11.6c-2.8,2.6-0.5,6.1-0.9,9.2c-0.6,5.7-2.3,11.2-2.6,16.9
	c-0.4,6.5-0.6,13.1,1.7,19.7c1.9-1.3,1.7-2.7,1.8-4c0.1-1.2-1.4-2.4,0.1-3.6c1.5,7.1,1.2,10.1-1.5,15.9c-0.6,1.3,0.1,2.2,0.7,3.2
	c2.3,3.8,3,7.8,1.5,12c-0.9,2.4,0.1,4.2,1.7,6.7c2.1-12.5,1.3-24.1,2.1-35.6c1.7,6-1.5,13,4.1,17.9c0.6-8.3,1.1-16.8,1.7-25.2
	c-0.2,15.1,1.2,30,2.7,46.2c3.4-5.6,5.7-10.2,7.6-14.9C530.1,656.9,527.1,648.2,531.7,640.9z M473.1,565.8c0.1,4.2,2.1,5.2,5.5,4.6
	c1.2-0.2,2.6,0.5,3.9,0.4c6-0.7,12.1-0.1,17.8-2.9c2.6-1.3,5.1-3.1,8.2-3.4c5.4-0.6,5.8-3.7,3.8-7.9c-0.2-0.4-0.4-0.9-0.5-1.4
	c-0.4-2.2-1.1-2.6-3.4-1.6c-12,5-24.2,9.1-37.3,10.1c-1.9,0.1-4.2,0.4-3.8,3.4c0.2,1.6-0.1,3.2,2.6,3.4
	C473.2,570.7,471.8,567.7,473.1,565.8z M529.7,555.9c-1.1-2.5-2.2-5-3.4-7.4c-0.5-1-2-1.2-2.6-0.4c-2,2.7-5.4,1.8-7.9,3.2
	c-1.5,0.8-3.9,0.9-2.8,2.9c1.5,2.7-0.4,7.7,4.3,8.1c4.3,0.4,7.5-3.5,11.6-4.6C529.3,557.5,529.4,556.5,529.7,555.9z M463.1,508.3
	c-3.1,4.8-3.7,9.3-2.3,14c1.4,4.5,1.4,9.1,1.3,13.8c-0.2,5.3,0.5,10.7,3.8,16.6c-0.7-13.1-2.2-24.8-3.7-36.7c1,1.1,1.4,3.3,3.3,2.2
	c1.4-0.8,0.8-2.4,0.3-3.6C464.9,512.6,464.1,510.7,463.1,508.3z M525.6,643.6c4.9-5.6,7.5-21.8,4.3-26.2
	C526.6,625.8,524.8,634.3,525.6,643.6z M486.5,588.1c-0.4-2.6-4.6-4.5-6.5-2.9c-1.9,1.7-4.6,1.6-6.7,3.2c-1,0.7-3.7-0.4-3.1,2.3
	c0.4,1.8,2.1,3.1,4.2,2.7c3.9-0.6,7.2-3.4,11.2-3.8C486.2,589.5,486.7,588.9,486.5,588.1z M526.5,293.5c3.2,0.3,3.8-2.2,3.6-3.9
	c-0.4-3.7-4.1-3.5-6.7-4.3c-2.8-0.9-3.5,1.3-3.5,3.4C520,293.3,524.6,291.7,526.5,293.5z M459.7,545.7c0.7,0,1.3,0,2,0.1
	c-1.6-8.6-3.2-17.1-4.7-25.7C455.1,529.1,457.8,537.3,459.7,545.7z M465.9,569c-0.1-0.5-0.1-1.2-0.3-1.8c-0.6-2.7-1.7-5-3.9-7
	c-0.8-0.7-0.9-2.6-2.6-2.1c-1.8,0.5-1.4,2.1-0.9,3.4c1,3.2,4,5.6,4,9.3c0,0.8,1.5,1.5,2.5,1.3C466.2,571.7,465.8,570.3,465.9,569z
	 M445.5,523.9c-0.7,2.9-1,5.9-0.2,8.7c0.5,1.8,2,3.6,3.8,3.3c1.9-0.3,0.9-2.5,1-3.9c0.1-1.8,0.5-3.6,0.4-5.4
	c-0.1-1.1-0.8-3.6-2.1-1.9C445.7,528.4,447.4,522.3,445.5,523.9z M472.8,540.3c1-1.1,0.7-2.1,0.3-2.6c-2.9-4.2-5.2-8.5-5.1-13.8
	c0-0.7-0.8-1.1-1.5-0.9c-1.2,0.4-1.6,1.4-1.3,2.4C466.4,530.9,466.3,537.2,472.8,540.3z M500.2,637.4c-4.2,7.6,0.1,14.4,1.5,22.7
	C503.7,651.6,500.6,644.6,500.2,637.4z M534.5,277.2c0-5-1.7-7.1-5.9-8c-1.5-0.3-2.8-0.6-2.8,1.4c0,1.6,0.6,4.6,1.4,4.2
	C530.7,273.2,531.4,277.9,534.5,277.2z M473.5,517.5c-1,4.8-0.9,9.6,0.6,14.3c0.3,1,1.1,1.8,2.3,1.5c0.7-0.2,0.9-1,0.7-1.6
	C475.7,527.1,476.2,521.9,473.5,517.5z M481.1,651.1c1.1-0.4,0.8-1.4,0.8-2.1c0.5-6.4-1.5-12.8,0.5-19.2c0.3-0.9,1.4-2.1-0.1-3
	C479.5,632.3,479.4,635.5,481.1,651.1z M475.4,420.7c-1.5-6.5-3.1-7.9-8.8-8c-1.3,0-2.9-0.3-3.8,0.9c-0.7,1,0.3,1.9,1.1,2.4
	c1.3,1,3,2.6,4.3,0.9c1.9-2.4,2.5-1,3.6,0.5C472.8,418.5,473.3,420.1,475.4,420.7z M490.9,684c-0.4-7.1-2.7-14-3.6-21
	C486.2,670.3,488.6,677.1,490.9,684z M492.4,523.5c1.9,0,2.8-0.8,2.7-2.4c-0.2-2.9-0.6-5.7-4.3-6.2c-1.5-0.2-2.6,0.4-2.2,1.7
	C489.5,519.1,489.5,522.3,492.4,523.5z M441.1,520.2c-2.2,4.6-0.9,8.7-1.3,12.5c-0.1,0.8,1,1.4,1.9,1.4c1.2,0,2-0.8,1.9-1.9
	C443.4,528.5,443.2,524.6,441.1,520.2z M436.4,595.1c-0.1,6.8,3.4,13,3.2,19.9C442.2,607.7,439,601.4,436.4,595.1z M411.7,646.5
	c1.3-3.7,0.5-6.3-0.6-8.6c-0.9-1.7-4.1-2.7-0.9-5.2c0,0-0.4-0.9-0.8-1.1c-0.8-0.3-1.2,0.4-1.5,0.9c-1.3,2.5-1.7,5.5,0.1,7.6
	C409.4,641.8,409.9,643.9,411.7,646.5z M451.8,556.8c-1.4,0.4-4-0.8-4,1.5c0.1,2.3,2.7,3.7,4.8,3.3c1.4-0.3,4.2,1.6,4.3-1.7
	C457.1,555.9,453.8,557.5,451.8,556.8z M424.8,649.3c2.1-5-3.2-7.1-3.6-11.1c-0.1-0.9-0.1-2.7-2-1.9c-1.2,0.5-1.3,1.5-0.9,2.9
	C419.3,643.3,422.5,645.7,424.8,649.3z M459.2,642.9c1.1-6.8,2.2-13.6,1.3-20.5C456.2,629.1,460.2,636.1,459.2,642.9z M509.2,334.6
	c1.8-0.1,4.2,0.3,3.8-1.7c-0.7-3.5-4.9-2.9-7.3-4.6c-1.2-0.8-1.3,1-1.4,1.8C503.7,334.3,507.6,333.3,509.2,334.6z M416.7,558.6
	c1.1-1.3,2.2-2.2,2.7-3.3c0.5-1.1-0.5-2.2-1.5-1.5c-2,1.6-4.5,3.3-3.2,6.5c0.5,1.3,1.2,3.7,3.5,2.1c1.3-0.9,4.3-0.8,3.5-3.3
	C420.9,556.7,418.9,559.2,416.7,558.6z M520.6,587.1c-0.5,0.3-1,0.5-1.4,0.8c2.5,4.2,4.9,8.4,7.4,12.6
	C527.1,594.7,524.7,590.5,520.6,587.1z M482.3,420.2c-0.1-4.1-3.2-5.8-4.9-8.3c-0.7-1.1-2.1-0.9-3.1-0.1c-1,0.9-0.5,1.9,0.3,2.5
	C477,416.3,478.7,419.3,482.3,420.2z M458.9,584.5c-0.3-1.7-1.9-3.2-2.7-2.7c-2.2,1.3-5.2,2-6.3,4.7c-0.5,1.3,1.3,1.7,2,1.4
	C454.3,586.7,457.8,587.8,458.9,584.5z M448.8,634c-1.1-5.1-2.2-10.2-3.3-15.3c-0.2-0.9-0.8-1.6-1.8-1.2c-0.9,0.4-0.8,1.4-0.6,2.2
	C444.5,624.6,445.6,629.6,448.8,634z M456.9,623.7c2.2-7-1-13.8-0.3-20.8C456,609.9,455.1,616.8,456.9,623.7z M493.9,669.4
	c0.8-3.7,1.1-7.4,0.6-11.1c-0.2-1.1-1-1.9-2-1.9c-1.6,0-1.1,1.4-1.1,2.2C491.6,662.3,492,666,493.9,669.4z M481.8,544.9
	c0.1-6.2-0.6-12.2-3.9-17.6C479.2,533.1,480.5,539,481.8,544.9z M426.4,616.7c1.1-4.4,1.6-8.9-1.6-13.5
	C424.2,608.2,425.4,612.4,426.4,616.7z M516.4,289.9c2.1,0.2,2.5-1.4,2.8-2.8c0.6-2.9-2-2.6-3.5-3.1c-2.3-0.8-2.2,1.5-2.4,2.7
	C513,288.9,514.9,289.3,516.4,289.9z M413.9,621.1c-1.8,7.1-1.3,10.5,1.9,13.8C415.1,629.8,414.5,625.5,413.9,621.1z M438.8,646.4
	c-0.6-4.1-0.6-8.5-4.4-12.2C433.9,639.3,435.9,643,438.8,646.4z M426,575.1c1.2-0.5,3.3,0.1,3.2-2.1c-0.1-1.5-0.7-3.2-2.7-2.9
	c-1.5,0.3-3.5,0.7-3.4,2.9C423.2,574.5,424.3,575.3,426,575.1z M403.5,612.8c0.5,5.1-1,10.4,2,16.8C405.9,623,403.5,618,403.5,612.8
	z M442.1,659.5c-0.7-3.9-0.8-8.1-4.5-11.2C437.5,653,440.6,655.9,442.1,659.5z M441.1,510.2c0.1-3.7,1.1-7.4-0.2-12
	C438.4,502.9,440.1,506.6,441.1,510.2z M470,520.7c1-2.6,1.9-5.2,0.4-7.9c-0.3-0.6-1.4-0.6-1.7,0c-1.3,2.5-1.3,5,0.3,7.5
	C469.1,520.4,469.3,520.4,470,520.7z M501.2,523.8c2.2,3.6-2.9,7.7,1,11.6C503.8,531.1,502.3,527.4,501.2,523.8z M502.5,508.7
	c-2,3.1-1.3,5.9,0.6,8.6C504.4,514.3,503.3,511.5,502.5,508.7z M487.9,582.2c-1.1,0.1-2.6,0.3-2.5,1.3c0.3,1.9,1.6,3.3,3.7,3.5
	c1,0.1,2.3-0.3,2-1.6C490.8,583.7,489.7,582.4,487.9,582.2z M531.4,668.4c-5.3,7.6-5.3,7.6-3,10.7
	C529.2,675.4,529.7,671.8,531.4,668.4z M432.4,603.6c0.6,3.9,1.2,7.7,1.8,11.6C435.8,611,434.7,607.2,432.4,603.6z M458.1,592.2
	c-2.2-1.7-4.9-2.1-7.6-2c-0.6,0-1.2,0.8-0.7,1.5c1.6,2.5,4.2,1.1,6.4,1.5C456.8,593.3,457.4,593.6,458.1,592.2z M443.7,546.1
	c-0.5,3.5,0,6.2,2.5,8.3c0.2,0.2,1.2-0.1,1.2-0.3c0.8-2.9-1.2-4.9-2.2-7.3C445.1,546.7,444.7,546.6,443.7,546.1z M463.1,578.3
	c1.3-0.1,2-1,2-2.3c0-1.9-1.5-2.4-3-2.8c-1.2-0.4-1.9,0.4-2.1,1.5C459.8,576.9,461.4,577.5,463.1,578.3z M536.6,625.3
	c0.4,0,0.9-0.1,1.3-0.1c-0.3-4.1-0.5-8.2-0.8-12.3C537.1,617,536.2,621.2,536.6,625.3z M453.4,638.4c1.4-4.8,0-9.3-1-14.2
	C450.9,629.4,453,633.8,453.4,638.4z M426.6,567.4c-0.3-1.1-0.8-2-2-1.7c-1.7,0.5-3.7,1-4.3,2.9c-0.4,1.3,1.1,1.5,2,1.3
	C423.9,569.4,426.1,569.8,426.6,567.4z M483.3,662.6c-2,4.7-0.3,7.8,0.5,11C484.9,670.3,484.6,667.1,483.3,662.6z"/>
<g>
	<path d="M954.5,519.8c5.3-1.3,8.7,1.5,11.5,5.8c1,1.6,2,3.9,1,5c-5.1,5-2.8,10.8-2.8,16.6c0,10.5-13.3,16.7-22.7,11.3
		c-2.1-1.2-2.1-4-0.8-4.2c6.4-0.7,4.4-5.7,5.1-9.1c0.8-3.9,0.9-8,1.3-12c0.2-2.3,0-4.4-2.5-5.6c-1.5-0.7-3.6-1.2-3.2-3.6
		c0.4-2.5,2.8-2.6,4.6-3.3C948.5,519.6,951.3,519,954.5,519.8z M951,532.6c0.3,2.2-0.5,4.9,2.9,4.1c3.9-0.8,8.8-1.5,8.8-6.5
		c0-3.3-3.3-6.3-6.9-6.1C950.1,524.4,952.2,529.7,951,532.6z M951.1,540.1c-0.5,2.6-1.3,5-1.5,7.4c-0.2,2-1.6,5.1,1.7,5.5
		c2.8,0.3,6.8,1.5,8.4-2.1c1.2-2.8,1.3-6.3-2.1-8.2C955.7,541.5,953.5,541,951.1,540.1z"/>
	<path d="M630,524.9c-4-0.9-6.1,3.7-11.2,1.9c6.9-4.3,12.7-8.2,18.3-12.3c2.3-1.7,4.1-6.3,7.3-4.4c2.5,1.4,0.5,5.4,0.4,8.2
		c-0.2,10.7-0.7,21.5-1.2,32.2c-0.1,1.9,0.2,4.9-2.4,4.7c-2.8-0.2-1.4-3.2-1.6-5c-0.1-0.9,0.3-1.8,0.2-2.7c-0.4-2.9,1.5-7.9-1.9-8.2
		c-4.4-0.4-10.2-2.1-13.4,4.4c-2.4,4.8-4.4,10.4-9.7,13.3C619.2,546,626.3,536.5,630,524.9z M641.1,524.3c0-1.1,0.1-2.2,0-3.3
		c-0.2-1.4,0.8-3.5-1.2-4c-2.2-0.6-3.1,1.6-3.8,3.1c-1.8,3.8-3.2,7.8-5,11.6c-1.2,2.6-0.6,3.5,2.2,3.8
		C639.7,535.9,640.9,534.2,641.1,524.3z"/>
	<path d="M706,519.7c-4-0.2-7.2-0.2-10.3-0.6c-1.3-0.1-2.7-0.9-2.5-2.5c0.2-1.5,1.6-1.4,2.6-1.4c4.4,0.2,8.8,0.9,13.3-0.5
		c2.5-0.8,2,1.5,1.4,3c-1.2,2.9-2.6,5.7-3.8,8.6c-0.8,2-2.8,4.4-0.8,6.1c2,1.8,4.6,0.7,6.7-0.9c5.8-4.4,10.8-9.4,13.9-16.1
		c0.7-1.5,0.4-5,3.5-3.3c2.1,1.1,0.2,3.2-0.5,4.7c-3.2,6.6-7.8,12.1-13.8,16.1c-4.8,3.2-4.8,6-1.2,10c2,2.3,3.3,5.2,4.9,8
		c0.8,1.4,4.3,2.6,1.3,4.6c-1.9,1.3-4.2-0.3-4.8-2.3c-1.8-5.6-7-8.7-9.4-13.8c-0.4-0.8-0.9-1.5-1.9-3.1c-3.4,5.7-4.1,10.9-5.6,15.9
		c-0.5,1.6-0.1,4.3-2.7,3.7c-3-0.7-0.7-2.8-0.4-4.2C698.6,541.1,701.4,530.6,706,519.7z"/>
	<path d="M1017.7,538.6c2.7,0.6,6.1,0.9,7.8,4c1.8,3.1-0.6,5.3-2.1,7.8c-3.4,5.5-5.9,11.5-6.8,18c-0.7,4.9-1.6,9.8-4.3,14
		c-2.9,4.5-8.8,5.6-12.9,2.6c-4.6-3.2-3-7.4-1.6-11.5c0.5-1.5,1.6-2.3,3-1.7c1.9,0.8,0.6,2,0.2,3.3c-1,2.7-4,6,0.9,7.7
		c4.3,1.5,7.5-0.2,8.6-4.8c1.5-6.3,2.8-12.6,4.3-18.9c0.7-2.9-0.9-2.4-3-2.5c-6.6-0.3-8.6-4.3-5.2-9.9
		C1009.6,541.3,1013.4,538.6,1017.7,538.6z M1012.4,553c5.3-0.4,6.8-4.4,8-8.1c0.9-2.6-1.7-2.7-3.4-2.5c-4.3,0.3-6.8,3.1-7.8,6.9
		C1008.6,551.7,1010.5,552.7,1012.4,553z"/>
	<path d="M818.3,570.1c3.1,2.2,0.9,6.8,4.8,6.8c3.6,0,5.2-3.3,6.6-6c1.2-2.3,1.9-5,2.6-7.6c1-4.3,3.8-9.3-5.2-7.8
		c-4.7,0.8-7.8-2.4-6.5-8.2c0.6-2.4,2.5-5.6-1.4-7.7c-1.1-0.6-0.5-2,0.5-2.8c1.4-1.1,3-2.3,4.9-1.7c1.7,0.5,2.5,2.1,2.2,3.7
		c-0.4,2.2-1.4,4.3-1.6,6.4c-0.3,2.4-0.8,5.5,2.6,5.9c2.8,0.4,5.9,0.2,7.1-3.5c1.2-3.6,2.7-7.1,4.2-10.6c0.3-0.8,1.1-1.5,2.2-1.1
		c1,0.4,1.2,1.3,0.7,2.2c-4.5,9.7-3.4,20.8-7.9,30.5c-1.4,3-3.2,5.9-5.1,8.7c-2.2,3.1-5.5,4.5-8.8,2.6
		C816.8,577.9,816.5,574.4,818.3,570.1z"/>
	<path d="M782.3,539.2c4.6-2.2,7.4-9,12.8-2.3c0.2,0.3,1.6-0.3,2.4-0.6c5.7-1.8,7.8-0.3,7.7,5.9c0,3.5-2,6.9,0.5,10.4
		c1,1.3-0.2,2.5-1.7,2.9c-1.9,0.5-3-0.6-3.7-2.1c-1.2-2.8-0.3-5.7-0.2-8.6c0.1-1.4,0.9-3.4-1.1-4.1c-1.8-0.6-2.5,1.4-3.7,2.3
		c-1.6,1.2-1.8,2.8-2.1,4.7c-0.4,2.4-0.1,6.7-3.2,6.2c-2.7-0.5-0.9-4.5-0.9-7.1c0-0.7,0.2-1.3,0.2-2c-0.1-2,2.1-5.5-0.8-5.7
		c-2.4-0.2-5.9,1.9-6.8,5.2c-0.9,3.2-1.4,6.5-2.1,9.8c-0.3,1.5,0.4,4.3-2.4,3.6c-2.2-0.6-1.3-2.9-0.9-4.6c0.6-3.3,1.3-6.6,1.7-9.9
		c0.3-2.2,0.5-4.6-1.8-6.1c-1.3-0.9-3.3-1.5-1.5-3.4c1.5-1.5,3.3-0.8,4.9,0.2C781.5,535.1,781.3,537.4,782.3,539.2z"/>
	<path d="M884.3,557.8c-1.7,0.1-3.8,0-5.4-1.4c-1.6-1.3-4.2-2.6-2.7-5.3c1.8-3.3,3.5-0.4,5.4,0.2c1.9,0.6,3.3,3.5,5.8,1.7
		c0.6-0.4,1-1.6,0.9-2.4c-0.5-2.9-2.9-2.9-5.1-3.3c-2.4-0.5-5.1-1-5.4-4.1c-0.4-3.7,2.7-5.4,5-7.4c2.2-1.8,4.9-2.5,6.6-0.3
		c2.1,2.7,9.5,4.4,2.8,9.9c-0.5,0.4,0.4,2.5,0.3,3.8C892.1,554,890.6,557.9,884.3,557.8z"/>
	<path d="M752.7,543.3c-0.9,4.3,0.3,7.8,5.8,8.8c1.1,0.2,2.3,0.6,2,2c-0.2,1.3-1.6,2-2.5,1.6c-7.1-2.7-14.4-1.1-21.6-1.7
		c-4.1-0.3-4.3-4.4-3.6-8c0.5-2.7,2.4-5.4-0.1-8.2c-1.6-1.7-1.6-3.3,1-3.8c2.2-0.4,4.3,0,4.4,2.6c0.1,2.4-0.2,4.9-0.9,7.2
		c-1,3.5-0.3,5.7,3.5,6.3c3.6,0.6,6.8,0.3,7.5-4.2c0.3-2,0.3-4,0.5-6c0.2-2,0.4-4.7,2.9-4.5c2.4,0.2,1,2.9,1.3,4.5
		C753,540.9,752.8,541.8,752.7,543.3z"/>
	<path d="M864.5,552.5c-1.6-3.2-4.7-3.5-7.3-4.6c-2.9-1.1-5-2.9-3.4-6c1.6-3.2,3.1-7.5,8-6.8c3.2,0.4,5.9,2.3,6.7,5.8
		c0.3,1.4-0.6,2.6-2,3c-1.5,0.4-1.9-0.7-1.9-1.9c0-2.8-1.9-3.4-4-3.1c-1.6,0.3-2.9,1.6-2.6,3.4c0.3,2.3,2.4,2.4,4.1,2.5
		c4.5,0.3,6.5,3.1,6.4,7.1c-0.1,4.6-3.7,5.9-7.5,5.8c-4-0.1-8.1-0.3-11.2-3.6c-1.2-1.2-2-2.6-0.7-4.1c1.2-1.4,2.3,0,3.4,0.6
		C856.1,552.5,859.7,556.1,864.5,552.5z"/>
	<path d="M991.2,548.2c-1.2,3.6,0.1,5.3,4.1,5.4c1.1,0,2.4,0.6,2,2c-0.2,0.7-1.4,1.7-1.9,1.5c-6.2-1.5-12,1.9-18.1,1.4
		c-4.3-0.4-5.6-2.8-4.7-6.3c1.4-4.9,4-9,9-11.1C988.2,538.3,991.8,540.8,991.2,548.2z M980.8,555.3c5.6-0.9,5-6,6.2-9.7
		c0.5-1.6-0.6-2.3-2.3-2.3c-3.4,0.1-8.2,5.2-8.2,8.6C976.6,554.8,978.6,555,980.8,555.3z"/>
</g>
<g>
	<path d="M708.6,399.4c7.5,0.6,13.1,0.6,14.3,7.3c1.2,6.4-2.4,10.6-7.8,13.4c-0.6,0.3-1.2,0.8-1.8,0.8c-12.3-0.1-13.1,8.6-13.5,17.6
		c0,0.9-0.1,1.8-0.3,2.7c-0.4,1.5-1.1,3.3-2.9,3.1c-2-0.3-1.9-2.3-1.6-3.8c1.3-7.3,2.7-14.5,4-21.8c0.3-1.8,0.6-3.5,0.9-5.3
		c0.8-4.6,1.1-8.6-5.6-5.3c-0.9,0.5-2.2,1-2.7-0.6c-0.3-1,0.2-1.9,1-2.2C698.6,403.2,704,398.9,708.6,399.4z M710,404.1
		c-4.4,0.1-6,2.9-6.1,9.7c0,3,1.2,4.7,4.3,4.8c5,0,10.7-4.1,10.4-7.8C718.2,405,713.7,404.6,710,404.1z"/>
	<path d="M788.5,439.5c0,1.8-0.6,3.2-2.4,3.5c-1.9,0.3-3-0.9-3.3-2.6c-1.1-6.4-5.3-7.2-10.9-6.6c-4.1,0.4-4.9,3.3-6.4,5.9
		c-0.7,1.3-1.3,3.5-3.1,2.7c-1.8-0.7-1.1-2.6-0.4-4.1c4.1-7.4,8.1-14.9,12.3-22.3c0.6-1.2,1.4-2.6,2.9-2.4c1.8,0.2,1.3,2,1.9,3.1
		c3.1,6.4,6.1,12.9,8.1,19.7C787.5,437.5,788.1,438.5,788.5,439.5z"/>
	<path d="M842.3,437.3c0-7.2,1.9-13.2,3-19.4c0.5-2.5,1.4-4,4.6-3c2.3,0.8,4.9,0.5,7.3,0.8c1.6,0.2,4.3-0.5,4.3,2
		c0,2.6-2.5,2.6-4.6,2.7c-1.6,0-3.1,0.2-4.7,0.3c-2.3,0.1-4.1,0.7-4,3.4c0.1,2.9,2.2,2,4,2c1.1,0,2.2,0.3,3.3,0.5
		c1.4,0.2,2.8,0.8,2.7,2.4c-0.1,1.6-1.7,1.9-3,2.1c-0.9,0.1-1.8,0.2-2.7,0.2c-3.1,0.1-5.5,1.3-5.5,4.6c0.1,3.9,3.4,2.7,5.6,2.8
		c1.3,0.1,2.7-0.2,4-0.2c1.1,0.1,2.3,0.3,2.6,1.6c0.3,1.4-0.9,2-1.9,2.3c-4.1,1.4-8.3,2.3-12.6,1.6
		C839.2,443.3,844.2,438.7,842.3,437.3z"/>
	<path d="M811.5,413.2c4.6,0.3,9.2,1.6,13.9,0.6c2-0.4,4.4,0.4,4.6,2.8c0.3,3-2.4,2.8-4.3,2.7c-6.2-0.3-8.8,2.9-8.8,8.8
		c0,4.2-2,8.3-1.4,12.6c0.3,1.7-0.6,3.4-2.4,3.3c-2.7-0.1-2.2-2.3-2-4c0.6-4.6,1.2-9.3,1.9-13.9c0.6-4.1-0.3-6.6-5.2-5.9
		c-1.1,0.2-2.3,0.1-3.3-0.2c-1.8-0.5-3.4-1.5-3.3-3.6c0.2-2.1,2.2-2,3.6-2.3C807,413.4,809.3,413.4,811.5,413.2z"/>
	<path d="M934.6,444.5c-1.8-0.7-4.9,1.4-5.8-1.4c-0.9-3.2,1.7-3.9,4.4-4.2c1.9-0.2,2-2,2.2-3.6c0.4-3.8,0.8-7.5,1.2-11.3
		c0.3-2.2,0.5-4.2-2.8-3.6c-1.9,0.3-3-0.5-2.8-2.6c0.2-1.6,0.6-3.3,2.4-3.6c2.2-0.3,4.4-0.4,6.6-0.4c2,0,4.5-0.6,5.5,1.4
		c1.4,2.6-1.6,3.1-2.9,4.3c-1.9,1.9-3,14.7-1.5,17.3c3.5,6.3,2.9,7.3-4.6,7.7C936.1,444.5,935.4,444.5,934.6,444.5z"/>
	<path d="M732.4,436.1c5,0,9.6,0,14.3,0c1.3,0,2.9,0,3.2,1.7c0.5,2.1-1.1,2.8-2.7,3.1c-5.9,1-12,0.3-18,1.9
		c-2.8,0.8-3.7-1.8-2.9-3.8c3.2-7.1,3.6-14.7,5.3-22.1c0.3-1.4,0.2-3.7,2.4-3.4c2.4,0.3,2.3,2.7,2,4.3
		C735,423.9,733.6,429.9,732.4,436.1z"/>
</g>
</svg>
