<?xml version="1.0" encoding="utf-8"?>
<!-- Generator: Adobe Illustrator 18.0.0, SVG Export Plug-In . SVG Version: 6.00 Build 0)  -->
<!DOCTYPE svg PUBLIC "-//W3C//DTD SVG 1.1//EN" "http://www.w3.org/Graphics/SVG/1.1/DTD/svg11.dtd">
<svg version="1.1" id="Layer_1" xmlns="http://www.w3.org/2000/svg" xmlns:xlink="http://www.w3.org/1999/xlink" x="0px" y="0px"
	 viewBox="308.8 270.3 786.3 426.3" enable-background="new 308.8 270.3 786.3 426.3" xml:space="preserve">
<g id="XMLID_3_">
	<g>
	</g>
	<g>
		<path fill="none" stroke="#000000" stroke-width="6.7876" stroke-miterlimit="10" d="M594,626.7c-0.4-0.4-0.9-0.7-1.4-0.6
			c0,0,9.4-13-4.5-13.8c0,0-1-12.4-0.7-11.7c0.2,0.7-0.2-6.6,0.7-6.8c0,0,15.3-25.1,15.3-38.8s0-201.4,0-201.4s-1-20.7-9.1-32.4
			c0,0-14.7-28.1-14.7-30.5c0,0-25-16.7-89.6-17"/>
		<path fill="none" stroke="#000000" stroke-width="6.7876" stroke-miterlimit="10" d="M589.8,656.1c1.8-3.1,4.9-9.4,5-16.1
			c0,0,1.4-3.9,1.1-7.1c0,0-0.3-4.5-1.9-6.1"/>
		<path fill="none" stroke="#000000" stroke-width="6.7876" stroke-miterlimit="10" d="M588.6,658c0.1-0.2,0.5-0.8,1.2-1.9"/>
		<path fill="none" stroke="#000000" stroke-width="6.7876" stroke-miterlimit="10" d="M490.2,693.2c8.2,0,15.7-0.2,22.7-0.5
			c12.3-0.5,22.8-1.5,31.8-2.6c5-0.7,9.6-1.4,13.7-2.1c3.2-0.6,6.1-1.2,8.7-1.8c1.7-0.4,3.3-0.8,4.8-1.2c16.9-4.5,21.9-9.3,21.9-9.3
			s2.2-8.6,0.1-17.6h-5.2h0"/>
		<path fill="none" stroke="#000000" stroke-width="6.7876" stroke-miterlimit="10" d="M387.6,657.9c-0.4-1-3.8-9.2-4-17.9
			c0,0,0.2-2.2-0.7-6.8c0,0,0.1-5.3,1.9-6.7c0.3-0.3,0.7-0.4,1.1-0.4c0,0-9.4-13,4.5-13.8c0,0,0.9-12.4,0.7-11.7
			c-0.2,0.7,0-6.6-0.9-6.8c0,0-15.4-25.1-15.4-38.8s0-201.4,0-201.4s1.1-20.7,9.2-32.4c0,0,14.8-28.1,14.8-30.5c0,0,25-16.7,89.7-17
			c0.5,0,1,0,1.5,0"/>
		<path fill="none" stroke="#000000" stroke-width="6.7876" stroke-miterlimit="10" d="M490.2,693.2c-0.7,0-1.3,0-1.9,0
			c-9.2,0-17.6-0.2-25.3-0.7c-10.3-0.5-19.4-1.3-27.3-2.3c-1.5-0.2-3-0.4-4.5-0.6c-5-0.7-9.6-1.5-13.6-2.3c-3.2-0.6-6.2-1.3-8.8-2
			c-6-1.5-10.6-3.1-14.2-4.5c-1.5-0.6-2.8-1.2-3.9-1.7c-2.1-1-3.6-1.9-4.5-2.5c-1-0.7-1.4-1.1-1.4-1.1s-2.2-8.6-0.1-17.6h3.1"/>
		<path fill="none" stroke="#000000" stroke-width="6.7876" stroke-miterlimit="10" d="M386.5,656.1c0,0,0.1,0.7,1.1,1.8
			c0,0,0,0.1,0,0.1c1.2,1.3,3.4,3.1,7.8,5c4.7,2,11.8,4.2,22.6,6c4,0.7,8.5,1.3,13.5,1.9c1.4,0.2,2.9,0.3,4.5,0.5
			c7.8,0.8,16.7,1.4,27.1,1.7c7.6,0.3,16,0.4,25.1,0.4c8.9,0,17.1-0.1,24.5-0.4c12.4-0.4,22.8-1.2,31.5-2.1
			c5.1-0.5,9.5-1.2,13.5-1.8c5.2-0.9,9.6-1.8,13.3-2.8c11.2-3,15.7-6.2,17.5-8.2c0.9-1,1.1-1.7,1.2-1.9c0,0,0,0,0,0"/>
		<path fill="none" stroke="#000000" stroke-width="6.7876" stroke-miterlimit="10" d="M594,626.7L594,626.7
			C594,626.7,594,626.7,594,626.7"/>
		<path fill="none" stroke="#000000" stroke-width="6.882" stroke-miterlimit="10" d="M385,626.7c0,0,3,17.3,104.6,17.3
			c97.8,0,104.1-16,104.4-17.3"/>
		<line fill="none" stroke="#000000" stroke-width="2.2625" stroke-miterlimit="10" x1="485.7" y1="674.9" x2="485.7" y2="690.8"/>
		<line fill="none" stroke="#000000" stroke-width="2.2625" stroke-miterlimit="10" x1="490.2" y1="674.9" x2="490.2" y2="690.8"/>
		<line fill="none" stroke="#000000" stroke-width="2.2625" stroke-miterlimit="10" x1="494.7" y1="674.9" x2="494.7" y2="690.8"/>
		<line fill="none" stroke="#000000" stroke-width="2.2625" stroke-miterlimit="10" x1="499.2" y1="674.9" x2="499.2" y2="690.8"/>
		<line fill="none" stroke="#000000" stroke-width="2.2625" stroke-miterlimit="10" x1="503.8" y1="674.9" x2="503.8" y2="690.8"/>
		<line fill="none" stroke="#000000" stroke-width="2.2625" stroke-miterlimit="10" x1="508.3" y1="674.9" x2="508.3" y2="690.8"/>
		<line fill="none" stroke="#000000" stroke-width="2.2625" stroke-miterlimit="10" x1="512.8" y1="674.9" x2="512.8" y2="690.8"/>
		<line fill="none" stroke="#000000" stroke-width="2.2625" stroke-miterlimit="10" x1="517.3" y1="674.9" x2="517.3" y2="690.8"/>
		<line fill="none" stroke="#000000" stroke-width="2.2625" stroke-miterlimit="10" x1="521.9" y1="674.9" x2="521.9" y2="690.8"/>
		<line fill="none" stroke="#000000" stroke-width="2.2625" stroke-miterlimit="10" x1="526.4" y1="672.7" x2="526.4" y2="688.5"/>
		<line fill="none" stroke="#000000" stroke-width="2.2625" stroke-miterlimit="10" x1="530.9" y1="672.7" x2="530.9" y2="688.5"/>
		<line fill="none" stroke="#000000" stroke-width="2.2625" stroke-miterlimit="10" x1="535.4" y1="672.7" x2="535.4" y2="688.5"/>
		<line fill="none" stroke="#000000" stroke-width="2.2625" stroke-miterlimit="10" x1="540" y1="672.7" x2="540" y2="688.5"/>
		<line fill="none" stroke="#000000" stroke-width="2.2625" stroke-miterlimit="10" x1="544.5" y1="672.7" x2="544.5" y2="688.5"/>
		<line fill="none" stroke="#000000" stroke-width="2.2625" stroke-miterlimit="10" x1="549" y1="672.7" x2="549" y2="688.5"/>
		<line fill="none" stroke="#000000" stroke-width="2.2625" stroke-miterlimit="10" x1="553.5" y1="670.4" x2="553.5" y2="686.2"/>
		<line fill="none" stroke="#000000" stroke-width="2.2625" stroke-miterlimit="10" x1="558.1" y1="670.4" x2="558.1" y2="686.2"/>
		<line fill="none" stroke="#000000" stroke-width="2.2625" stroke-miterlimit="10" x1="562.6" y1="670.4" x2="562.6" y2="686.2"/>
		<polyline fill="none" stroke="#000000" stroke-width="2.2625" stroke-miterlimit="10" points="567.1,670.4 567.1,686.1 
			567.1,686.2 		"/>
		<line fill="none" stroke="#000000" stroke-width="2.2625" stroke-miterlimit="10" x1="571.6" y1="668.1" x2="571.6" y2="684"/>
		<line fill="none" stroke="#000000" stroke-width="2.2625" stroke-miterlimit="10" x1="576.2" y1="665.9" x2="576.2" y2="681.7"/>
		<line fill="none" stroke="#000000" stroke-width="2.2625" stroke-miterlimit="10" x1="580.7" y1="663.6" x2="580.7" y2="679.5"/>
		<line fill="none" stroke="#000000" stroke-width="2.2625" stroke-miterlimit="10" x1="585.2" y1="663.6" x2="585.2" y2="679.5"/>
		<line fill="none" stroke="#000000" stroke-width="2.2625" stroke-miterlimit="10" x1="589.7" y1="661.4" x2="589.7" y2="677.2"/>
		<line fill="none" stroke="#000000" stroke-width="2.2625" stroke-miterlimit="10" x1="481.1" y1="674.9" x2="481.1" y2="690.8"/>
		<line fill="none" stroke="#000000" stroke-width="2.2625" stroke-miterlimit="10" x1="476.6" y1="674.9" x2="476.6" y2="690.8"/>
		<line fill="none" stroke="#000000" stroke-width="2.2625" stroke-miterlimit="10" x1="472.1" y1="674.9" x2="472.1" y2="690.8"/>
		<line fill="none" stroke="#000000" stroke-width="2.2625" stroke-miterlimit="10" x1="467.6" y1="674.9" x2="467.6" y2="690.8"/>
		<line fill="none" stroke="#000000" stroke-width="2.2625" stroke-miterlimit="10" x1="463" y1="674.9" x2="463" y2="690.8"/>
		<line fill="none" stroke="#000000" stroke-width="2.2625" stroke-miterlimit="10" x1="458.5" y1="674.9" x2="458.5" y2="690.8"/>
		<line fill="none" stroke="#000000" stroke-width="2.2625" stroke-miterlimit="10" x1="454" y1="674.9" x2="454" y2="690.8"/>
		<line fill="none" stroke="#000000" stroke-width="2.2625" stroke-miterlimit="10" x1="449.5" y1="672.7" x2="449.5" y2="688.5"/>
		<line fill="none" stroke="#000000" stroke-width="2.2625" stroke-miterlimit="10" x1="444.9" y1="672.7" x2="444.9" y2="688.5"/>
		<line fill="none" stroke="#000000" stroke-width="2.2625" stroke-miterlimit="10" x1="440.4" y1="672.7" x2="440.4" y2="688.5"/>
		<line fill="none" stroke="#000000" stroke-width="2.2625" stroke-miterlimit="10" x1="435.9" y1="672.7" x2="435.9" y2="688.5"/>
		<line fill="none" stroke="#000000" stroke-width="2.2625" stroke-miterlimit="10" x1="431.4" y1="672.7" x2="431.4" y2="688.5"/>
		<line fill="none" stroke="#000000" stroke-width="2.2625" stroke-miterlimit="10" x1="426.8" y1="672.7" x2="426.8" y2="688.5"/>
		<line fill="none" stroke="#000000" stroke-width="2.2625" stroke-miterlimit="10" x1="422.3" y1="670.4" x2="422.3" y2="686.2"/>
		<line fill="none" stroke="#000000" stroke-width="2.2625" stroke-miterlimit="10" x1="417.8" y1="670.4" x2="417.8" y2="686.2"/>
		<line fill="none" stroke="#000000" stroke-width="2.2625" stroke-miterlimit="10" x1="413.3" y1="670.4" x2="413.3" y2="686.2"/>
		<polyline fill="none" stroke="#000000" stroke-width="2.2625" stroke-miterlimit="10" points="408.7,670.4 408.7,685.5 
			408.7,686.2 		"/>
		<line fill="none" stroke="#000000" stroke-width="2.2625" stroke-miterlimit="10" x1="404.2" y1="668.1" x2="404.2" y2="684"/>
		<line fill="none" stroke="#000000" stroke-width="2.2625" stroke-miterlimit="10" x1="399.7" y1="665.9" x2="399.7" y2="681.7"/>
		<line fill="none" stroke="#000000" stroke-width="2.2625" stroke-miterlimit="10" x1="395.2" y1="663.6" x2="395.2" y2="679.5"/>
		<polyline fill="none" stroke="#000000" stroke-width="2.2625" stroke-miterlimit="10" points="390.6,663.6 390.6,679.2 
			390.6,679.5 		"/>
		<line fill="none" stroke="#000000" stroke-width="6.7876" stroke-miterlimit="10" x1="386.1" y1="676.7" x2="386.1" y2="677.2"/>
		<line fill="none" stroke="#000000" stroke-width="2.2625" stroke-miterlimit="10" x1="386.1" y1="661.4" x2="386.1" y2="676.7"/>
	</g>
</g>
<g>
	<path d="M399.5,655c0,0,0.1,0.2,0.4,0.4c0.3,0.2,0.7,0.5,1.4,0.9c1.3,0.7,3.2,1.4,5.8,2c2.6,0.6,5.7,1.2,9.4,1.6
		c3.7,0.5,7.8,0.8,12.4,1c4.5,0.2,9.5,0.3,14.7,0.4c5.2,0.1,10.7-0.1,16.4-0.1c5.7-0.1,11.6-0.4,17.5-0.6c6-0.2,12.1-0.5,18.1-0.9
		c6.1-0.3,12.1-0.7,18.1-1.2c6-0.5,11.8-0.9,17.5-1.5c5.7-0.6,11.1-1.2,16.3-1.9c5.2-0.7,10-1.5,14.5-2.4c4.5-0.9,8.5-1.8,12.1-2.8
		c3.5-1,6.6-2.1,9-3.1c2.4-1.1,4.2-2.1,5.3-3c1.1-0.9,1.5-1.6,1.5-1.6s-0.3,0.7-1.3,1.8c-1,1-2.7,2.3-5.1,3.7
		c-4.7,2.7-12,5.4-20.9,7.7c-4.5,1.2-9.3,2.2-14.5,3.2c-5.2,0.9-10.7,1.8-16.4,2.6c-5.7,0.7-11.6,1.4-17.6,1.9
		c-6,0.5-12.1,0.9-18.2,1.3c-6.1,0.3-12.2,0.6-18.2,0.7c-3,0.1-6,0.2-8.9,0.2c-2.9,0-5.9,0-8.7,0c-5.7,0-11.3-0.2-16.5-0.5
		c-5.3-0.3-10.2-0.7-14.8-1.2c-9.1-1-16.7-2.6-21.8-4.4c-2.6-0.9-4.4-1.9-5.6-2.7c-0.6-0.4-1-0.8-1.3-1
		C399.6,655.2,399.5,655,399.5,655z"/>
</g>
<g>
	<path d="M397.9,618.1c0,0,0.1,0.2,0.3,0.4c0.1,0.1,0.3,0.3,0.5,0.4c0.2,0.2,0.4,0.3,0.7,0.5c0.6,0.4,1.3,0.7,2.2,1.1
		c0.4,0.2,0.9,0.4,1.5,0.6c0.5,0.2,1.1,0.4,1.7,0.6c1.2,0.3,2.5,0.8,4,1.1c0.7,0.2,1.5,0.4,2.3,0.5c0.8,0.2,1.6,0.3,2.5,0.5
		c0.9,0.2,1.8,0.3,2.7,0.5c0.9,0.2,1.9,0.3,2.8,0.4c1,0.1,2,0.3,3,0.4c1,0.2,2.1,0.2,3.2,0.4c4.3,0.5,9,0.8,13.9,1.3
		c5,0.3,10.2,0.6,15.6,0.8c5.4,0.3,11,0.2,16.7,0.4c5.7,0.1,11.5,0.1,17.2,0.1c2.9,0,5.8,0,8.7-0.1c2.9,0,5.8,0,8.6-0.1
		c2.8-0.1,5.6-0.2,8.4-0.2c2.8,0,5.5-0.2,8.2-0.3c2.7-0.1,5.4-0.3,8-0.5c2.6-0.2,5.1-0.3,7.6-0.5c2.5-0.3,4.9-0.5,7.2-0.7
		c2.3-0.2,4.5-0.6,6.7-0.9c2.2-0.2,4.2-0.7,6.1-1c2-0.3,3.7-0.8,5.5-1.1c0.4-0.1,0.8-0.2,1.3-0.3c0.4-0.1,0.8-0.2,1.2-0.3
		c0.8-0.2,1.5-0.4,2.3-0.6c1.5-0.4,2.7-0.9,3.9-1.4c2.3-1,4.1-1.9,5.1-2.7c0.3-0.2,0.5-0.4,0.7-0.6c0.2-0.2,0.4-0.3,0.5-0.5
		c0.2-0.3,0.3-0.4,0.3-0.4s-0.1,0.2-0.3,0.5c-0.1,0.2-0.2,0.3-0.4,0.5c-0.2,0.2-0.4,0.4-0.6,0.7c-1,1-2.7,2.1-4.9,3.4
		c-1.2,0.5-2.4,1.2-3.9,1.8c-0.7,0.3-1.5,0.6-2.3,0.9c-0.4,0.1-0.8,0.3-1.2,0.5c-0.4,0.1-0.8,0.3-1.3,0.4c-3.4,1.1-7.3,2.2-11.6,3.1
		c-2.2,0.4-4.4,0.9-6.7,1.3c-2.3,0.4-4.7,0.7-7.2,1.1c-5,0.6-10.2,1.3-15.7,1.6c-5.4,0.5-11.1,0.8-16.8,1c-2.9,0.1-5.7,0.2-8.6,0.2
		c-2.9,0-5.8,0.1-8.7,0.1c-5.9-0.1-11.6-0.1-17.4-0.3c-5.7-0.2-11.4-0.4-16.8-0.8c-2.7-0.2-5.4-0.3-8-0.6c-2.6-0.3-5.2-0.5-7.7-0.8
		c-5-0.6-9.7-1.2-14-2.1c-2.2-0.3-4.2-0.8-6.2-1.2c-1-0.2-1.9-0.4-2.8-0.7c-0.9-0.2-1.8-0.5-2.7-0.7c-1.7-0.4-3.3-1-4.8-1.5
		c-1.5-0.5-2.8-1.1-4-1.5c-2.3-1-4.1-2.1-5.2-3c-0.3-0.2-0.5-0.4-0.7-0.6c-0.2-0.2-0.4-0.3-0.4-0.5
		C398,618.3,397.9,618.1,397.9,618.1z"/>
</g>
<path d="M379.4,361.4c2.8,0,5.6,0,8.4,0c0.7,0.2,1.3,0.4,2,0.4c20.2,1.2,40.1,3.9,59.6,9.1c24.4,6.5,48.8,7,73.4,1.9
	c15.6-3.3,31.3-6.3,46.9-9.2c5.8-1.1,11.6-1.5,17.5-2.2c4.6,0,9.2,0,13.8,0c0.9,0.2,1.7,0.4,2.6,0.5c7.9,1.2,15.9,1.9,23.6,3.5
	c11.4,2.4,22.6,5.6,33.9,8.3c3.2,0.7,5.5,2.1,6.9,5c0,6.2,0,12.4,0,18.6c-1.5,1.7-3,3.4-4.4,5.1c-1.7,2-3.8,3.9-5,6.3
	c-1.6,3.3-2.8,6.8-3.8,10.4c-2.7,10.2-5,20.5-7.9,30.7c-4.8,17.3-14.7,30.6-31.1,38.6c-16.7,8.1-34.3,9.2-52.2,5.1
	c-19-4.3-33.8-14.6-43.8-31.6c-6.4-10.9-10.6-22.7-14.2-34.8c-1.2-4.1-2.8-8.1-4.8-11.9c-1.1-2.1-3.4-4.3-5.5-5
	c-3.1-0.9-6.7-0.7-10.1-0.7c-2.7,0-4.8,1.4-5.8,4c-1.1,2.6-2.4,5.1-3.1,7.8c-3.4,13.4-7.7,26.3-14.9,38.3
	c-11.6,19.3-26.6,33.4-50.3,35.8c-18.2,1.8-35.9,0.4-52.5-7.9c-9.4-4.7-16.4-11.6-20.4-21.7c-6-15.1-11.2-30.5-14.7-46.4
	c-1.1-4.9-3.2-9.2-6.5-12.9c-4-4.6-7.9-9.2-8.4-15.7c0-5.2,0-10.4,0-15.6c2.1-0.7,4.2-1.5,6.4-2c15.3-3.3,30.5-6.6,45.9-9.6
	C367.1,362.3,373.3,362.1,379.4,361.4z M583.1,485.2c5.1-0.6,10.1-1,15.1-1.7c16.2-2.3,28.3-10.6,34.2-26
	c6.7-17.1,10.6-34.9,10.4-53.4c-0.2-12.2-5.5-19.8-16.9-24.1c-9.5-3.6-19.5-4.7-29.6-5.8c-19.7-2.3-39.3-2.1-58.1,5.2
	c-5.9,2.3-11.7,5.2-16.7,9.1c-9,7-9.7,17-7.9,27.5c1.9,10.8,6.4,20.7,10.7,30.7C535.2,471.5,556.4,485.2,583.1,485.2z M400.9,372.9
	c-5.6,0.4-10.5,0.6-15.4,1.1c-11,1.1-22,2.1-32.5,6.2c-10.7,4.2-15.9,11.5-16.3,23c-0.6,18.8,3.5,36.7,10.1,54
	c4.9,12.7,14.1,21.6,27.7,24.7c7.6,1.7,15.6,2.8,23.4,2.8c20.7,0.1,37.9-7.8,49.7-25.1c9.6-13.9,15.7-29.6,18.5-46.3
	c2.3-13.7-2.7-23.3-15-29.7C435.2,375.4,418,372.6,400.9,372.9z"/>
<polygon points="337.9,383.8 373.5,398.7 372.9,409.2 322,402.9 "/>
<polygon points="640.2,384.5 602.5,398.7 603.3,409.2 657.6,403.9 "/>
<g>
	<path d="M741.1,335.2l0.1,4.1v0.6c0.4,7.5,0.5,18.8,0.5,33.8v3.3h10.5c2,1.3,3,2.5,3,3.6s-0.3,2.1-1,2.8c-0.7,0.7-1.4,1.1-2.1,1.1
		c-0.7,0-1.5-0.1-2.5-0.4c-0.8,0.2-1.6,0.3-2.6,0.3l-4.4-0.2c-0.9,1.1-2.1,1.6-3.5,1.6c-1.4,0-2.6-0.4-3.6-1.2
		c-1-0.8-1.4-1.8-1.4-2.9l0.9-5.7c0-9.8-0.5-24.6-1.4-44.2c-0.9-19.6-1.4-34.4-1.4-44.2c0-0.8,0.3-1.4,1-1.9
		c0.7-0.5,1.5-0.7,2.5-0.7c1,0,1.9,0.4,2.8,1.1c0.8,0.7,1.2,1.6,1.2,2.7L741.1,335.2z"/>
	<path d="M763,318.8l-0.7-11c0-6.1,1.9-9.2,5.8-9.2c2.5,0,5.8,0.5,10.1,1.6c4.2,1.1,6.4,2.5,6.4,4.1c0,1.8-1.3,3.1-4,4.1
		c-4.2-1.4-7.7-2.2-10.4-2.5c0.1,1.9,0.2,3.7,0.2,5.6l-0.6,18.6c0,0.1,0.1,0.8,0.4,2l4.9-0.2c4.4,0,6.6,1.2,6.6,3.5
		c0,0.9-0.4,1.7-1.2,2.4s-1.8,1-3.1,1c-1.2,0-2.6-0.1-4-0.3h-3.5c0.3,3.3,0.4,6.6,0.4,9.8l-0.6,23.5c0,4.9,0.1,7.3,0.3,7.3L780,379
		c3.5,0,5.2,1.1,5.2,3.2c0,1.3-0.6,2.3-1.8,2.8c-1.2,0.6-2.6,0.9-4.1,0.9h-11.6c-1.2,0-2.3-0.4-3.3-1.2c-1-0.8-1.5-1.7-1.5-2.8v-3.4
		l-0.9-21.9L763,318.8z"/>
	<path d="M822.5,357.9l1.5,8c0,1.1,0.4,3.6,1.3,7.7s1.3,6.8,1.3,8v0.1c0,1.9-0.8,3.1-2.3,3.7c-1.9,0-3.4-0.3-4.5-0.9
		s-1.6-1.7-1.6-3.4c0-3.7-0.7-9-2-16l-13.6-1.9c-0.9,2.9-1.5,6-1.9,9.4c-0.4,3.4-0.9,5.9-1.3,7.5c-0.8,3.2-2.3,4.8-4.5,4.8
		c-1.1,0-2.1-0.3-3-1c-0.9-0.7-1.4-1.5-1.4-2.5l0.3-1.1c6.2-22.5,10.8-44.4,13.8-65.7c0.1-0.6,0.2-2.3,0.4-5.2
		c0.4-6.3,1.3-10.4,2.5-12.1h4.6c1.3,0,2.3,0.3,3.3,0.8c0.9,0.5,1.4,1.4,1.4,2.5c0,6.6,0.9,16.4,2.8,29.3
		C821.5,342.9,822.5,352.2,822.5,357.9z M815.3,360.5c-0.3-1.3-0.4-3.5-0.4-6.6c0-3.1-0.2-7-0.6-11.7c-0.4-4.7-0.9-10.1-1.6-16.3
		c-0.7-6.2-1.2-10.7-1.5-13.5c-4.2,21.7-6.8,37.1-8.1,46C804.7,359.4,808.7,360.1,815.3,360.5z"/>
	<path d="M840.5,340.8l-0.1,14.1c0,11.4,0.9,20.4,2.6,27l-1.5,3.5h-3.8l-1.8-1.9c0.1-3.9,0.1-8.2,0.1-13.1c0-4.8-0.4-15.2-1.2-31
		c-0.8-15.8-1.2-27.6-1.2-35.5c0-4.1,1.5-6.1,4.6-6.1c4.8,0,8.8,1.2,12.1,3.5c3.3,2.4,4.9,5.7,4.9,10.1v9.1c0,2.5-0.5,4.8-1.5,6.8
		c-1,2-2.1,4.2-3.4,6.5c-1.3,2.3-2,3.5-2.1,3.8c0.5,2.1,1.4,6.2,2.6,12.4c2.7,13.5,5.7,23.1,8.9,29.1c0.9,1.7,1.4,3,1.4,4
		c0,0.9-0.3,1.8-0.8,2.4s-1.3,1-2.2,1c-1.9,0-3.8-2.1-5.5-6.2c-1.8-4.2-3.2-8.8-4.3-13.8c-3.3-15.5-5.3-24-6-25.6H840.5z M841,302.6
		l-0.5,1.8c0,3.5,0.1,8.7,0.3,15.4c0.2,6.7,0.3,11.6,0.3,14.6c2.1-1.1,3.9-3.8,5.2-8.3c1.3-4.5,2-7.9,2-10.2c0-2.4-0.1-4.1-0.2-5.2
		c-0.1-1.1-0.4-2.4-0.9-3.7C846.3,304.2,844.3,302.7,841,302.6z"/>
	<path d="M867.5,331.7l0.8-24.2c0-4,1.7-7.2,5-9.6v0.8c0.4-0.2,0.7-0.3,1-0.3c2.1,0,4.8,3.5,8,10.5c3.2,7,6.1,14.7,8.7,23
		c2.6,8.4,5.2,16.8,7.7,25.3c2.6,8.5,4.2,13.5,4.8,15c1.8-18.1,2.8-40,2.8-65.8l-0.2-3.5c0-2.6,1.1-3.9,3.4-3.9
		c1.3,0,2.3,0.5,2.9,1.5c0.6,1,1,2.2,1,3.5v9.8c-0.1,10.2-0.6,23.8-1.4,40.7c-0.9,17-2,26.6-3.5,28.8c-2.5,0.7-4.2,1.1-5.2,1.1
		c-1,0-1.7-0.3-2.2-0.9c-0.5-0.6-0.9-1.6-1.2-2.8c-0.3-1.3-0.6-2.1-0.8-2.5l0.1-0.6c0-3.2-3.3-13.4-9.9-30.6
		c-6.6-17.2-11.3-29-14.3-35.5V377c0.1,0.2,0.3,0.5,0.5,0.9c0.6,0.9,0.9,1.8,0.9,2.6c0,0.8-0.4,1.6-1.2,2.4
		c-0.8,0.8-1.8,1.2-2.9,1.2c-3,0-4.5-2.6-4.5-7.9L867.5,331.7z"/>
	<path d="M939.8,354.8l-0.5-50.2c0-5.6,0.1-11.2,0.2-16.8l3.8-2c2.7,0.2,5.8,7,9.3,20.6c2.8,11.1,5.1,21.1,6.8,29.9
		c1.7,8.8,2.7,13.6,2.9,14.4c0.6-2.8,1.8-7.8,3.5-14.9c1.7-7.2,3-12.7,3.8-16.7c2.5-11.6,4-21.9,4.6-31v-0.8c0.2-1.1,0.7-2,1.7-2.7
		c0.9-0.7,1.9-1,3-1c1,0,1.9,0.3,2.5,1s1,1.4,1,2.2c0,10.3,0.4,25.8,1.2,46.5c0.8,20.6,1.2,36.1,1.2,46.5c0,2.1-0.6,3.9-1.7,5.4
		c-1.2,1.5-2.3,2.3-3.4,2.3c-2.2,0-3.4-1.7-3.4-5.1l-0.5-54.6v-6.6c-0.6,3.3-2,9.2-4.2,17.5s-3.6,14.7-4.2,19.1v0.8
		c-0.1,0.3-0.2,1.1-0.4,2.4c-0.2,1.3-0.4,2.3-0.6,3.1c-0.2,0.8-0.5,1.7-0.9,2.8c-0.8,2-2.3,3-4.2,3c-3.3,0-4.9-4-4.9-12.1
		c0-8-2.1-19.1-6.2-33.5c-2.1-7.2-3.4-12-4-14.6c-0.2,6.9-0.3,12.1-0.3,15.6l1.1,53.3c0,1.9-0.7,3.5-2.1,4.9c-2.4,0-4-0.7-4.8-2.2
		c-0.8-1.4-1.2-3.4-1.2-5.8L939.8,354.8z"/>
	<path d="M993,344.6l0.1-4.9c0-0.4-0.1-0.6-0.2-0.6v-2.3c0-13.6,0.8-23.3,2.5-29c1.4-4.9,2.7-7.8,4-9c1.3-1.1,2.6-1.7,3.8-1.7
		c10.6,0,18,5.1,22,15.2c2.3,5.8,3.5,13,3.5,21.5v0.9l0.3,14.7c0,24.9-6.1,37.3-18.3,37.3c-5.1,0-8.9-2.6-11.6-7.9
		c-2.5-5.1-4.1-10-4.7-14.9C993.4,356.4,993,350,993,344.6z M1001.1,326.9l-0.7,12c0,12.5,1.1,23.5,3.2,32.8
		c2.3,5.4,4.4,8.7,6.5,9.6c1.7,0,3.2-0.6,4.5-1.9c1.3-1.3,2.4-3,3.2-5.1c0.8-2.1,1.4-4.4,2-6.7c0.5-2.3,0.9-4.8,1.1-7.5
		c0.4-4.6,0.7-8.5,0.7-11.8c0-3.2-0.3-8.2-0.9-14.9c-0.6-6.7-0.9-11.7-0.9-15V316c-0.1-3.2-1.2-6-3.3-8.5c-2.1-2.5-4.8-3.7-8.1-3.7
		c-3.1,0-5.2,1.7-6.2,5c-0.8,2.8-1.3,6.2-1.3,10.3L1001.1,326.9z"/>
	<path d="M1044.4,340.8l-0.1,14.1c0,11.4,0.9,20.4,2.6,27l-1.5,3.5h-3.8l-1.8-1.9c0.1-3.9,0.1-8.2,0.1-13.1c0-4.8-0.4-15.2-1.2-31
		c-0.8-15.8-1.2-27.6-1.2-35.5c0-4.1,1.5-6.1,4.6-6.1c4.8,0,8.8,1.2,12.1,3.5c3.3,2.4,4.9,5.7,4.9,10.1v9.1c0,2.5-0.5,4.8-1.5,6.8
		c-1,2-2.1,4.2-3.4,6.5c-1.3,2.3-2,3.5-2.1,3.8c0.5,2.1,1.4,6.2,2.6,12.4c2.7,13.5,5.7,23.1,8.9,29.1c0.9,1.7,1.4,3,1.4,4
		c0,0.9-0.3,1.8-0.8,2.4s-1.3,1-2.2,1c-1.9,0-3.8-2.1-5.5-6.2c-1.8-4.2-3.2-8.8-4.3-13.8c-3.3-15.5-5.3-24-6-25.6H1044.4z
		 M1044.9,302.6l-0.5,1.8c0,3.5,0.1,8.7,0.3,15.4c0.2,6.7,0.3,11.6,0.3,14.6c2.1-1.1,3.9-3.8,5.2-8.3c1.3-4.5,2-7.9,2-10.2
		c0-2.4-0.1-4.1-0.2-5.2c-0.1-1.1-0.4-2.4-0.9-3.7C1050.2,304.2,1048.1,302.7,1044.9,302.6z"/>
	<path d="M1072.8,318.8l-0.7-11c0-6.1,1.9-9.2,5.8-9.2c2.5,0,5.8,0.5,10.1,1.6c4.2,1.1,6.4,2.5,6.4,4.1c0,1.8-1.3,3.1-4,4.1
		c-4.2-1.4-7.7-2.2-10.4-2.5c0.1,1.9,0.2,3.7,0.2,5.6l-0.6,18.6c0,0.1,0.1,0.8,0.4,2l4.9-0.2c4.4,0,6.6,1.2,6.6,3.5
		c0,0.9-0.4,1.7-1.2,2.4s-1.8,1-3.1,1c-1.2,0-2.6-0.1-4-0.3h-3.5c0.3,3.3,0.4,6.6,0.4,9.8l-0.6,23.5c0,4.9,0.1,7.3,0.3,7.3l10.1-0.3
		c3.5,0,5.2,1.1,5.2,3.2c0,1.3-0.6,2.3-1.8,2.8c-1.2,0.6-2.6,0.9-4.1,0.9h-11.6c-1.2,0-2.3-0.4-3.3-1.2c-1-0.8-1.5-1.7-1.5-2.8v-3.4
		l-0.9-21.9L1072.8,318.8z"/>
</g>
<g>
	<path d="M764.5,420.7l-1,22v2.9l2-0.1c3.5,0,5.3,1,5.3,2.9c0,1-0.4,1.7-1.2,2.3c-0.8,0.6-1.8,0.9-3.1,0.9c-1.3,0-2.6-0.2-3.9-0.6
		v31c0,3.2-0.9,4.8-2.8,4.8c-1.1,0-2.4-0.6-3.9-1.7c0.6-6.5,1.1-15.8,1.4-27.9c0.3-12,0.6-19.9,0.8-23.6v-2.7
		c0.3-5.3,0.4-10.3,0.4-14.9c0-1,0.4-1.8,1.3-2.4c0.9-0.6,1.8-0.9,2.9-0.9s2.2,0,3.5,0.1c1.3,0.1,2.8,0.2,4.6,0.5
		c4.1,0.6,6.2,1.9,6.2,3.8c0,2.1-1.8,3.1-5.5,3.1c-1.5-0.7-3.4-1.1-5.7-1.1h-1.3V420.7z"/>
	<path d="M783.1,430.6l-0.6-9.3c0-5.2,1.5-7.8,4.6-7.8c2,0,4.6,0.5,8,1.4c3.4,0.9,5.1,2.1,5.1,3.5c0,1.5-1.1,2.6-3.2,3.4
		c-3.4-1.1-6.1-1.8-8.3-2.1c0.1,1.6,0.2,3.1,0.2,4.7l-0.5,15.7c0,0.1,0.1,0.6,0.3,1.7l3.9-0.2c3.5,0,5.3,1,5.3,3
		c0,0.8-0.3,1.5-1,2.1c-0.6,0.6-1.4,0.9-2.4,0.9c-1,0-2-0.1-3.2-0.2h-2.8c0.2,2.8,0.3,5.5,0.3,8.3l-0.5,19.9c0,4.1,0.1,6.2,0.2,6.2
		l8-0.3c2.8,0,4.2,0.9,4.2,2.7c0,1.1-0.5,1.9-1.4,2.4c-1,0.5-2,0.7-3.3,0.7h-9.2c-1,0-1.8-0.3-2.6-1c-0.8-0.7-1.2-1.5-1.2-2.4v-2.9
		l-0.7-18.5L783.1,430.6z"/>
	<path d="M811.6,449.2l-0.1,11.9c0,9.7,0.7,17.3,2.1,22.8l-1.2,2.9h-3l-1.4-1.6c0.1-3.3,0.1-7,0.1-11c0-4.1-0.3-12.8-0.9-26.2
		c-0.6-13.4-0.9-23.4-0.9-30c0-3.5,1.2-5.2,3.6-5.2c3.8,0,7,1,9.6,3s3.9,4.9,3.9,8.6v7.7c0,2.1-0.4,4-1.2,5.8
		c-0.8,1.7-1.7,3.5-2.7,5.5c-1,1.9-1.6,3-1.7,3.2c0.4,1.8,1.1,5.3,2.1,10.5c2.1,11.4,4.5,19.6,7.1,24.6c0.7,1.4,1.1,2.5,1.1,3.3
		s-0.2,1.5-0.7,2s-1,0.8-1.8,0.8c-1.5,0-3-1.8-4.4-5.3c-1.4-3.5-2.5-7.4-3.4-11.7c-2.6-13.1-4.2-20.3-4.7-21.6H811.6z M812.1,417
		l-0.4,1.6c0,3,0.1,7.3,0.2,13c0.1,5.7,0.2,9.8,0.2,12.3c1.7-0.9,3.1-3.2,4.1-7c1-3.8,1.6-6.6,1.6-8.6s-0.1-3.5-0.2-4.4
		c-0.1-0.9-0.3-2-0.7-3.1C816.3,418.3,814.6,417.1,812.1,417z"/>
	<path d="M873.6,484.8l0.1-14c0-3.2-0.3-8-0.8-14.3c-0.5-6.3-0.8-10.5-0.8-12.7s0.1-4.8,0.2-7.8c0.1-3,0.2-5.3,0.2-6.8
		c-0.3,1-1.5,6-3.7,15.1c-5.5,23.6-9.5,35.4-11.9,35.4c-1.4,0-2.5-0.4-3.3-1.3c-0.8-0.9-1.2-2-1.2-3.4c0-3.5-1.4-10.6-4.1-21.4
		c-2.7-10.8-5-19.1-6.9-24.8c-1.4,25.8-2.1,43.2-2.1,52.2l0.2,3.3c0,1.2-0.2,2.1-0.7,2.7c-0.5,0.6-1.3,0.9-2.3,0.9s-1.9-0.3-2.6-0.8
		c-0.7-0.5-1-1.1-1-1.8c0-7.5,0.6-18.6,1.7-33.5c1.1-14.9,1.7-26,1.7-33.5c-0.4-0.7-0.6-1.4-0.6-2.3c0-0.8,0.4-1.5,1.3-1.9
		c0.9-0.4,1.8-0.6,2.9-0.6c1.6,0,4.7,7.3,9.3,22c4.6,14.7,7.5,24.8,8.5,30.5c0.3-1.1,1-3.8,2-8.1c1-4.3,2.1-8.8,3.2-13.5
		c1.1-4.7,2.4-9.5,3.7-14.2c3.1-11,5.7-16.5,7.8-16.5c1,0,1.9,0.3,2.7,0.8c0.9,0.5,1.3,1.3,1.3,2.2c0,5.3,0.2,13.2,0.7,23.7
		c0.5,10.5,0.7,18.1,0.7,22.8l-0.3,11.6v0.1c0,0.8,0.2,3.4,0.6,7.8l0.2,2.1c0.3,0.8,0.5,1.6,0.5,2.5s-0.3,1.8-1,2.8
		c-0.7,1-1.6,1.5-2.7,1.5C874.7,491.7,873.6,489.4,873.6,484.8z"/>
	<path d="M913.5,437.1l0.1,1.9c0,32.4-4.7,48.6-14.1,48.6c-3.6,0-6.3-1.4-8-4.4c-1.8-3.1-2.9-6.1-3.3-9.2c-0.6-4.7-1-10-1-16.1
		s-0.1-14.8-0.1-26.2l-0.5-15.7c0.7-1.5,1.4-2.3,2.3-2.3c0.9,0,1.6,0.7,2.3,2c0.7,1.3,1,2.8,1,4.3v29.8c0,2.6,0.3,6.5,0.8,11.6
		c0.5,5.1,0.8,9,0.8,11.6c0,5.4,2.3,8,6.9,8c5.2,0,7.8-19.6,7.8-58.9V416l-0.1-1.8c0-0.9,0.2-1.5,0.6-1.9c0.4-0.4,1.1-0.6,2.1-0.6
		s1.7,0.2,2.2,0.5c0.5,0.3,0.8,0.7,1,1.3c0.3,0.9,0.4,2.1,0.5,3.5l-0.7,11L913.5,437.1z"/>
	<path d="M922.3,438.6l0.2-10.4c0-4.5-0.3-7.8-0.9-10.2c0.5-2.6,1.5-3.9,2.9-3.9h4.8c4.2,0,7.1,1.7,8.8,5.2
		c1.5,3.1,2.2,6.7,2.2,10.7c0,5.1-0.1,8.2-0.4,9.4c-0.2,1.2-0.5,2.3-0.8,3.3c-0.3,1-0.6,1.9-1,2.5s-0.9,1.3-1.6,2.1
		c-0.6,0.8-1.4,1.4-2.2,2c-1.8,1.2-4,2.2-6.6,3v11.7l0.9,20.8c0,0.9-0.4,1.7-1.1,2.3s-1.6,0.9-2.6,0.9l-2.3-1.3
		c-0.9-4-1.3-9.4-1.3-16.1l0.4-19.5c-0.4-1-0.6-1.9-0.6-2.7V448C922,446.6,922.3,443.4,922.3,438.6z M927.7,426.3l0.2,21.4v0.2
		c4.3-0.6,6.5-6.7,6.5-18.5c0-3.5-0.4-5.8-1.3-7.1c-0.9-1.3-2.3-2-4.3-2c0-0.1-0.4-0.2-1.2-0.2V426.3z"/>
	<path d="M955.3,487.7c-1.1,0-2-0.4-2.8-1.2c-0.7-0.8-1.1-1.7-1.1-2.8c0-1.1,0.4-2,1.2-2.9c0.8-0.9,1.8-1.3,2.8-1.3
		c1.1,0,2,0.4,2.8,1.3c0.8,0.9,1.2,1.8,1.2,3s-0.4,2.1-1.2,2.8S956.5,487.7,955.3,487.7z"/>
	<path d="M969.8,459.5l-0.1-6.4v-2.6c0-10.8,0.5-18.3,1.6-22.5c1.3-5.2,3.1-8.8,5.3-10.8c3.1-2.8,7-4.2,11.7-4.2
		c1.1,0,2,0.3,2.5,0.8c0.6,0.5,0.8,1.2,0.8,1.9c0,0.7-0.2,1.4-0.7,2c-0.4,0.6-1,0.9-1.7,0.9h-5.1c-1.5,0-2.8,1-3.9,2.9
		c-1.1,1.9-1.8,4.3-2.3,7.1c-0.9,5.3-1.4,9.7-1.3,13.1v0.5l-0.5,21.1c0,4.5,0.2,7.5,0.7,9.3c0.5,1.7,1,3.1,1.5,4.1
		c0.5,1.1,1.1,1.9,1.8,2.6c1.6,1.6,3.7,2.4,6.3,2.4c0.9,0,1.6-0.3,2.3-1c0.9,0,1.6,0.2,2.3,0.6s1,1,1,1.8c0,2.9-2,4.3-6,4.3
		c-1.6,0-3.3-0.2-5.1-0.7c-1.8-0.5-3.1-1-4-1.6C972.2,482.1,969.8,473.5,969.8,459.5z"/>
	<path d="M996.9,452.4l0.1-4.2c0-0.4-0.1-0.5-0.2-0.5v-2c0-11.5,0.7-19.7,2-24.5c1.1-4.1,2.2-6.6,3.2-7.6c1-1,2-1.4,3-1.4
		c8.5,0,14.3,4.3,17.5,12.8c1.8,4.9,2.8,11,2.8,18.2v0.8l0.2,12.4c0,21-4.9,31.5-14.6,31.5c-4,0-7.1-2.2-9.2-6.7
		c-2-4.3-3.3-8.5-3.7-12.6C997.3,462.4,996.9,457,996.9,452.4z M1003.4,437.5l-0.5,10.1c0,10.6,0.9,19.8,2.6,27.7
		c1.8,4.6,3.5,7.3,5.2,8.1c1.3,0,2.5-0.5,3.6-1.6c1.1-1.1,1.9-2.5,2.5-4.3c0.6-1.8,1.1-3.7,1.6-5.7c0.4-2,0.7-4.1,0.9-6.3
		c0.4-3.9,0.5-7.2,0.5-10s-0.2-7-0.7-12.6c-0.5-5.7-0.7-9.9-0.7-12.7v-1.9c-0.1-2.7-0.9-5.1-2.6-7.1c-1.7-2.1-3.8-3.1-6.4-3.1
		c-2.5,0-4.1,1.4-5,4.2c-0.7,2.4-1,5.3-1,8.7L1003.4,437.5z"/>
	<path d="M1072.9,484.8l0.1-14c0-3.2-0.3-8-0.8-14.3c-0.5-6.3-0.8-10.5-0.8-12.7s0.1-4.8,0.2-7.8c0.1-3,0.2-5.3,0.2-6.8
		c-0.3,1-1.5,6-3.7,15.1c-5.5,23.6-9.5,35.4-11.9,35.4c-1.4,0-2.5-0.4-3.3-1.3c-0.8-0.9-1.2-2-1.2-3.4c0-3.5-1.4-10.6-4.1-21.4
		c-2.7-10.8-5-19.1-6.9-24.8c-1.4,25.8-2.1,43.2-2.1,52.2l0.2,3.3c0,1.2-0.2,2.1-0.7,2.7c-0.5,0.6-1.3,0.9-2.3,0.9s-1.9-0.3-2.6-0.8
		c-0.7-0.5-1-1.1-1-1.8c0-7.5,0.6-18.6,1.7-33.5c1.1-14.9,1.7-26,1.7-33.5c-0.4-0.7-0.6-1.4-0.6-2.3c0-0.8,0.4-1.5,1.3-1.9
		c0.9-0.4,1.8-0.6,2.9-0.6c1.6,0,4.7,7.3,9.3,22c4.6,14.7,7.5,24.8,8.5,30.5c0.3-1.1,1-3.8,2-8.1c1-4.3,2.1-8.8,3.2-13.5
		c1.1-4.7,2.4-9.5,3.7-14.2c3.1-11,5.7-16.5,7.8-16.5c1,0,1.9,0.3,2.7,0.8c0.9,0.5,1.3,1.3,1.3,2.2c0,5.3,0.2,13.2,0.7,23.7
		c0.5,10.5,0.7,18.1,0.7,22.8l-0.3,11.6v0.1c0,0.8,0.2,3.4,0.6,7.8l0.2,2.1c0.3,0.8,0.5,1.6,0.5,2.5s-0.3,1.8-1,2.8
		c-0.7,1-1.6,1.5-2.7,1.5C1074,491.7,1072.9,489.4,1072.9,484.8z"/>
</g>
<g>
	<path d="M733.8,433.3c-4.1,0.7-6.9-3.6-8.4-12.8l-0.1-0.7c-0.6-3.7-0.9-6.2-0.8-7.2s0.2-2.1,0.3-3c0.2-0.9,0.4-1.6,0.8-2.2
		c0.8-1.3,2.1-2.2,3.7-2.4c1.6-0.3,3.1,0.1,4.3,1c0.8,0.6,2.7,6.2,5.7,16.9c0.5,1.7,0.8,2.7,0.8,3l0.7,0.2c0.7,0.9,1.2,1.3,1.5,1.2
		c1.6-0.3,1.9-3.3,0.9-9.2c-1-5.9-3.1-11.5-6.3-16.8c-0.9-1.4-1.7-2.5-2.6-3.3c-1.8-1.6-4.2-2.1-7.2-1.6c-2.9,0.5-4.9,1.7-5.9,3.6
		c-0.8,1.6-1.1,3.8-0.9,6.5c0,0.8,0.1,1.7,0.2,2.7c0.1,1,0.2,1.6,0.2,1.7c0,0.2,0,0.5,0,0.9c0,0.5,0,0.8,0,1c0,0.9-0.1,1.5-0.2,1.8
		c0.2,1,0.4,1.9,0.5,2.5c0.1,0.7,0.1,1.2,0,1.6c0.1,0.1,0.2,0.5,0.3,1c0.1,0.6,0.2,1.3,0.5,2.3c0.2,0.9,0.4,1.7,0.5,2.2
		c0.1,0.5,0.4,1.4,0.7,2.6c0.4,1.3,0.6,2.2,0.8,2.7c0.1,0.5,0.3,1.2,0.6,2.2s0.4,1.8,0.6,2.4c0.1,0.6,0.3,1.3,0.6,2.1
		c0.3,0.8,0.6,1.5,0.9,2.1c0.8,1.5,1.9,2.9,3.4,4.3s2.9,2,4.2,1.8c2.2-0.4,4.2-1.1,5.8-2c1.6-1,3.1-2.4,4.4-4.4
		c0.2-0.2,0.3-0.5,0.5-0.6c0.3-0.4,0.5-0.6,0.7-0.7l0.6,0.4c-0.1,1-0.6,2-1.5,3s-1.9,1.9-3.1,2.6c-2.6,1.6-4.9,2.6-6.9,2.9
		c-3,0.5-6-1.3-8.9-5.5c-0.1-0.5-0.3-0.9-0.6-1.3c-0.3-0.4-0.5-0.7-0.6-0.9c-0.6-1.1-1.6-4-2.8-8.6c-1.2-4.6-2-7.9-2.4-9.9
		c-1.3-7.8-1.4-13.8-0.5-18.2c0.5-2.3,1.6-4,3.4-5c1.3-0.8,2.7-1.3,4.2-1.5c1.6-0.3,2.9-0.3,3.8-0.2c1,0.1,1.9,0.3,2.6,0.5
		c0.8,0.2,1.5,0.7,2.3,1.3c0.7,0.6,1.4,1.1,1.9,1.7c0.5,0.5,1.1,1.2,1.6,2.2c0.6,0.9,1,1.7,1.3,2.3c0.3,0.6,0.7,1.5,1.1,2.6
		c1.1,3,1.8,4.8,2,5.4c0.2,0.6,0.4,1.3,0.7,2.2c0.3,0.8,0.5,1.4,0.6,1.6c0.1,0.3,0.2,0.7,0.4,1.4c0.3,0.9,0.5,1.9,0.7,3.1
		c1.1,6.4,0.1,9.8-3,10.4c-0.6,0.1-1.2,0-1.9-0.4s-1.2-0.5-1.5-0.6c-0.4,1.8-1.4,3.2-3,4.3C735.4,432.8,734.6,433.1,733.8,433.3z
		 M731.4,406.8c-0.2-0.2-0.5-0.3-0.9-0.3s-0.7,0-1.1,0.1c-0.4,0.1-0.8,0.3-1.2,0.6c-0.4,0.3-0.6,0.6-0.9,1c-0.2,0.4-0.4,0.9-0.4,1.4
		c-0.1,0.6-0.1,1.1-0.2,1.6c0,0.5,0,1.1,0,1.7c0.1,0.9,0.2,2,0.4,3.3l1.2,7.5c0.4,2.7,0.9,4.4,1.3,5.2c0.4,0.8,0.8,1.4,1.2,1.8
		c0.7,0.9,1.7,1.2,3,1c0.7-0.1,1.3-0.6,1.9-1.5c0.6-0.9,1-1.8,1.2-2.9s0.3-1.9,0.2-2.6l-0.7-4.4c-0.1-0.6-0.2-1.3-0.4-1.8
		c-0.2-0.6-0.3-1-0.3-1.3c-0.1-0.3-0.2-0.6-0.3-1.1c-0.2-0.4-0.3-0.8-0.3-1s-0.2-0.6-0.4-1.1c-0.2-0.5-0.3-0.8-0.4-1
		c-0.3-0.6-0.6-1.4-0.9-2.3c-0.3-0.9-0.5-1.5-0.6-1.7c-0.1-0.2-0.2-0.5-0.4-0.9c-0.2-0.3-0.3-0.6-0.5-0.8S731.6,407,731.4,406.8z"/>
</g>
<g>
	<path d="M736.9,648.2l-0.3-3.1v-0.3c0-0.8,0.1-1.5,0.4-2c0.3-0.5,1-0.7,2.1-0.7s2.2,0.3,3.3,0.8c1.1,0.6,1.9,1.3,2.6,2.3
		c1.2,1.9,1.9,4.1,1.9,6.6c0,2.5-0.2,4.4-0.6,5.9s-1,2.8-2,4c1.6,1.5,2.6,3.9,2.8,7.3c0,0.8,0.1,1.7,0.1,2.8c0,1.1-0.1,2.1-0.3,3.2
		s-0.5,2-1,3c-0.5,0.9-1.1,1.8-1.8,2.5c-1.5,1.5-3.6,2.3-6.2,2.3c-0.9,0-1.4-0.4-1.7-1.1c-0.2-0.6-0.3-1.2-0.3-2l0.6-12.6
		L736.9,648.2z M739.6,676.8l0.1,0.3v2.7c1.4-0.3,2.5-1.1,3.2-2.4c0.7-1.3,1.1-2.4,1.1-3.5c0-1.1,0-2,0-2.6c0-0.6-0.1-1.4-0.3-2.3
		c-0.2-0.9-0.4-1.7-0.6-2.4c-0.6-1.7-1.6-2.7-2.9-2.9c-0.2,2.5-0.3,5.5-0.3,9L739.6,676.8z M740,651.3v8.8c2.2-0.1,3.3-2.6,3.3-7.5
		c0-4.9-0.9-7.5-2.6-7.7C740.2,645.9,740,648,740,651.3z"/>
	<path d="M754.2,662.4l-0.1,6.4c0,5.2,0.4,9.4,1.2,12.4l-0.7,1.6h-1.8l-0.8-0.9c0-1.8,0.1-3.8,0.1-6s-0.2-6.9-0.5-14.2
		s-0.5-12.6-0.5-16.2c0-1.9,0.7-2.8,2.1-2.8c2.2,0,4,0.5,5.5,1.6c1.5,1.1,2.2,2.6,2.2,4.6v4.2c0,1.1-0.2,2.2-0.7,3.1
		c-0.5,0.9-1,1.9-1.6,3c-0.6,1-0.9,1.6-1,1.7c0.2,1,0.6,2.9,1.2,5.7c1.2,6.2,2.6,10.6,4.1,13.3c0.4,0.8,0.6,1.4,0.6,1.8
		s-0.1,0.8-0.4,1.1c-0.3,0.3-0.6,0.4-1,0.4c-0.9,0-1.7-1-2.5-2.9c-0.8-1.9-1.5-4-1.9-6.3c-1.5-7.1-2.4-11-2.7-11.7H754.2z
		 M754.4,644.9l-0.2,0.8c0,1.6,0,4,0.1,7s0.1,5.3,0.1,6.7c1-0.5,1.8-1.7,2.4-3.8c0.6-2,0.9-3.6,0.9-4.7c0-1.1,0-1.9-0.1-2.4
		s-0.2-1.1-0.4-1.7C756.8,645.6,755.9,644.9,754.4,644.9z"/>
	<path d="M779.5,670.2l0.7,3.7c0,0.5,0.2,1.7,0.6,3.5c0.4,1.9,0.6,3.1,0.6,3.7v0.1c0,0.9-0.3,1.4-1,1.7c-0.9,0-1.6-0.1-2.1-0.4
		c-0.5-0.3-0.7-0.8-0.7-1.6c0-1.7-0.3-4.1-0.9-7.3l-6.2-0.9c-0.4,1.3-0.7,2.8-0.9,4.3c-0.2,1.6-0.4,2.7-0.6,3.4
		c-0.4,1.5-1.1,2.2-2.1,2.2c-0.5,0-0.9-0.1-1.4-0.4c-0.4-0.3-0.6-0.7-0.6-1.1l0.2-0.5c2.8-10.3,4.9-20.3,6.3-30.1
		c0-0.3,0.1-1.1,0.2-2.4c0.2-2.9,0.6-4.7,1.2-5.5h2.1c0.6,0,1.1,0.1,1.5,0.4s0.6,0.6,0.6,1.1c0,3,0.4,7.5,1.3,13.4
		C779.1,663.3,779.5,667.6,779.5,670.2z M776.3,671.4c-0.1-0.6-0.2-1.6-0.2-3s-0.1-3.2-0.3-5.4c-0.2-2.1-0.4-4.6-0.8-7.4
		s-0.6-4.9-0.7-6.2c-1.9,9.9-3.1,17-3.7,21C771.4,670.9,773.3,671.2,776.3,671.4z"/>
	<path d="M784.7,658.2l0.4-11.1c0-1.8,0.8-3.3,2.3-4.4v0.4c0.2-0.1,0.3-0.1,0.5-0.1c1,0,2.2,1.6,3.7,4.8c1.5,3.2,2.8,6.7,4,10.5
		c1.2,3.8,2.4,7.7,3.5,11.6c1.2,3.9,1.9,6.2,2.2,6.9c0.8-8.3,1.3-18.3,1.3-30.1l-0.1-1.6c0-1.2,0.5-1.8,1.6-1.8c0.6,0,1,0.2,1.3,0.7
		c0.3,0.5,0.4,1,0.4,1.6v4.5c0,4.7-0.3,10.9-0.7,18.6c-0.4,7.8-0.9,12.2-1.6,13.2c-1.1,0.3-1.9,0.5-2.4,0.5c-0.4,0-0.8-0.1-1-0.4
		c-0.2-0.3-0.4-0.7-0.6-1.3c-0.1-0.6-0.3-1-0.4-1.2l0-0.3c0-1.5-1.5-6.1-4.5-14c-3-7.9-5.2-13.3-6.5-16.2v29.9
		c0,0.1,0.1,0.2,0.2,0.4c0.3,0.4,0.4,0.8,0.4,1.2c0,0.4-0.2,0.7-0.6,1.1c-0.4,0.4-0.8,0.6-1.3,0.6c-1.4,0-2.1-1.2-2.1-3.6
		L784.7,658.2z"/>
	<path d="M810.3,674.8l0.2-18.7c0-1.3-0.1-3.2-0.4-5.8c-0.2-2.6-0.4-4.3-0.4-5c0-0.7,0.2-1.3,0.7-1.7c0.5-0.4,1-0.6,1.5-0.6
		c4.3,0,7.8,2.4,10.5,7.2c1.6,2.7,2.3,5.6,2.3,8.6l-0.1,3v3.3c0,4-0.2,6.6-0.6,8s-0.8,2.4-1.2,3.3c-0.4,0.9-0.9,1.7-1.5,2.4
		c-1.3,1.6-3,2.9-5,3.8h-4.5C810.9,682.6,810.3,680,810.3,674.8z M814.7,678.1v1.4c3.6,0,5.8-3.5,6.6-10.4c0.2-1.6,0.2-3.1,0.2-4.6
		c0-11.9-2.4-18.2-7.3-18.7c-0.3,1.6-0.5,3.7-0.5,6.4s0.2,7,0.5,12.8C814.6,670.9,814.7,675.2,814.7,678.1z"/>
	<path d="M829.5,652.3l-0.3-5c0-2.8,0.9-4.2,2.6-4.2c1.1,0,2.7,0.2,4.6,0.7c1.9,0.5,2.9,1.1,2.9,1.9c0,0.8-0.6,1.4-1.8,1.9
		c-1.9-0.6-3.5-1-4.8-1.1c0.1,0.9,0.1,1.7,0.1,2.5l-0.3,8.5c0,0,0.1,0.3,0.2,0.9l2.2-0.1c2,0,3,0.5,3,1.6c0,0.4-0.2,0.8-0.6,1.1
		c-0.4,0.3-0.8,0.5-1.4,0.5s-1.2,0-1.8-0.1h-1.6c0.1,1.5,0.2,3,0.2,4.5l-0.3,10.7c0,2.2,0,3.3,0.1,3.3l4.6-0.1
		c1.6,0,2.4,0.5,2.4,1.4c0,0.6-0.3,1-0.8,1.3c-0.6,0.3-1.2,0.4-1.9,0.4h-5.3c-0.6,0-1.1-0.2-1.5-0.5c-0.5-0.4-0.7-0.8-0.7-1.3v-1.6
		l-0.4-10L829.5,652.3z"/>
	<path d="M842.7,658.2l0.4-11.1c0-1.8,0.8-3.3,2.3-4.4v0.4c0.2-0.1,0.3-0.1,0.5-0.1c1,0,2.2,1.6,3.7,4.8c1.5,3.2,2.8,6.7,4,10.5
		c1.2,3.8,2.4,7.7,3.5,11.6c1.2,3.9,1.9,6.2,2.2,6.9c0.8-8.3,1.3-18.3,1.3-30.1l-0.1-1.6c0-1.2,0.5-1.8,1.6-1.8c0.6,0,1,0.2,1.3,0.7
		c0.3,0.5,0.4,1,0.4,1.6v4.5c0,4.7-0.3,10.9-0.7,18.6c-0.4,7.8-0.9,12.2-1.6,13.2c-1.1,0.3-1.9,0.5-2.4,0.5c-0.4,0-0.8-0.1-1-0.4
		c-0.2-0.3-0.4-0.7-0.6-1.3c-0.1-0.6-0.3-1-0.4-1.2l0-0.3c0-1.5-1.5-6.1-4.5-14c-3-7.9-5.2-13.3-6.5-16.2v29.9
		c0,0.1,0.1,0.2,0.2,0.4c0.3,0.4,0.4,0.8,0.4,1.2c0,0.4-0.2,0.7-0.6,1.1c-0.4,0.4-0.8,0.6-1.3,0.6c-1.4,0-2.1-1.2-2.1-3.6
		L842.7,658.2z"/>
	<path d="M908.5,646.9l-0.6,11.9v1.6l1.2,0c2,0,3,0.5,3,1.6c0,0.5-0.2,0.9-0.7,1.3c-0.5,0.3-1,0.5-1.8,0.5s-1.5-0.1-2.3-0.3v16.8
		c0,1.7-0.5,2.6-1.6,2.6c-0.7,0-1.4-0.3-2.2-0.9c0.3-3.5,0.6-8.6,0.8-15.1s0.3-10.8,0.4-12.8v-1.4c0.2-2.9,0.2-5.6,0.2-8.1
		c0-0.6,0.3-1,0.8-1.3c0.5-0.3,1.1-0.5,1.7-0.5s1.3,0,2,0.1c0.7,0,1.6,0.1,2.7,0.3c2.4,0.3,3.6,1,3.6,2.1c0,1.1-1.1,1.7-3.2,1.7
		c-0.8-0.4-1.9-0.6-3.3-0.6h-0.7V646.9z"/>
	<path d="M919.2,652.3l-0.3-5c0-2.8,0.9-4.2,2.6-4.2c1.1,0,2.7,0.2,4.6,0.7c1.9,0.5,2.9,1.1,2.9,1.9c0,0.8-0.6,1.4-1.8,1.9
		c-1.9-0.6-3.5-1-4.8-1.1c0.1,0.9,0.1,1.7,0.1,2.5l-0.3,8.5c0,0,0.1,0.3,0.2,0.9l2.2-0.1c2,0,3,0.5,3,1.6c0,0.4-0.2,0.8-0.6,1.1
		c-0.4,0.3-0.8,0.5-1.4,0.5s-1.2,0-1.8-0.1h-1.6c0.1,1.5,0.2,3,0.2,4.5l-0.3,10.7c0,2.2,0,3.3,0.1,3.3l4.6-0.1
		c1.6,0,2.4,0.5,2.4,1.4c0,0.6-0.3,1-0.8,1.3c-0.6,0.3-1.2,0.4-1.9,0.4h-5.3c-0.6,0-1.1-0.2-1.5-0.5c-0.5-0.4-0.7-0.8-0.7-1.3v-1.6
		l-0.4-10L919.2,652.3z"/>
	<path d="M935.7,662.4l-0.1,6.4c0,5.2,0.4,9.4,1.2,12.4l-0.7,1.6h-1.8l-0.8-0.9c0-1.8,0.1-3.8,0.1-6s-0.2-6.9-0.5-14.2
		s-0.5-12.6-0.5-16.2c0-1.9,0.7-2.8,2.1-2.8c2.2,0,4,0.5,5.5,1.6c1.5,1.1,2.2,2.6,2.2,4.6v4.2c0,1.1-0.2,2.2-0.7,3.1
		c-0.5,0.9-1,1.9-1.6,3c-0.6,1-0.9,1.6-1,1.7c0.2,1,0.6,2.9,1.2,5.7c1.2,6.2,2.6,10.6,4.1,13.3c0.4,0.8,0.6,1.4,0.6,1.8
		s-0.1,0.8-0.4,1.1c-0.3,0.3-0.6,0.4-1,0.4c-0.9,0-1.7-1-2.5-2.9c-0.8-1.9-1.5-4-1.9-6.3c-1.5-7.1-2.4-11-2.7-11.7H935.7z
		 M935.9,644.9l-0.2,0.8c0,1.6,0,4,0.1,7s0.1,5.3,0.1,6.7c1-0.5,1.8-1.7,2.4-3.8c0.6-2,0.9-3.6,0.9-4.7c0-1.1,0-1.9-0.1-2.4
		s-0.2-1.1-0.4-1.7C938.3,645.6,937.4,644.9,935.9,644.9z"/>
	<path d="M971.3,681.6l0-7.6c0-1.8-0.2-4.3-0.5-7.7c-0.3-3.4-0.5-5.7-0.5-6.9s0-2.6,0.1-4.2c0.1-1.6,0.1-2.9,0.1-3.7
		c-0.2,0.5-0.9,3.3-2.1,8.2c-3.2,12.8-5.5,19.2-6.8,19.2c-0.8,0-1.5-0.2-1.9-0.7c-0.5-0.5-0.7-1.1-0.7-1.9c0-1.9-0.8-5.7-2.3-11.6
		s-2.9-10.3-4-13.4c-0.8,13.9-1.2,23.4-1.2,28.3l0.1,1.8c0,0.6-0.1,1.1-0.4,1.5c-0.3,0.3-0.7,0.5-1.4,0.5c-0.6,0-1.1-0.1-1.5-0.4
		s-0.6-0.6-0.6-1c0-4,0.3-10.1,1-18.1c0.6-8.1,1-14.1,1-18.1c-0.2-0.4-0.4-0.8-0.4-1.2c0-0.5,0.3-0.8,0.8-1s1.1-0.3,1.7-0.3
		c0.9,0,2.7,4,5.3,11.9c2.7,7.9,4.3,13.4,4.9,16.5c0.2-0.6,0.6-2,1.2-4.4c0.6-2.3,1.2-4.8,1.9-7.3c0.7-2.5,1.4-5.1,2.1-7.7
		c1.8-5.9,3.3-8.9,4.5-8.9c0.6,0,1.1,0.1,1.6,0.4s0.7,0.7,0.7,1.2c0,2.9,0.1,7.1,0.4,12.8c0.3,5.7,0.4,9.8,0.4,12.4l-0.2,6.3v0
		c0,0.4,0.1,1.9,0.4,4.2l0.1,1.2c0.2,0.4,0.3,0.9,0.3,1.3c0,0.5-0.2,1-0.6,1.5s-0.9,0.8-1.5,0.8C972,685.3,971.3,684.1,971.3,681.6z
		"/>
	<path d="M994.3,655.8l0.1,1c0,17.6-2.7,26.3-8.1,26.3c-2.1,0-3.6-0.8-4.6-2.4c-1-1.7-1.7-3.3-1.9-5c-0.3-2.5-0.5-5.4-0.6-8.7
		c-0.1-3.3-0.1-8-0.1-14.2l-0.3-8.5c0.4-0.8,0.8-1.2,1.3-1.2c0.5,0,0.9,0.4,1.3,1.1c0.4,0.7,0.6,1.5,0.6,2.3v16.1
		c0,1.4,0.1,3.5,0.4,6.3c0.3,2.8,0.4,4.9,0.4,6.3c0,2.9,1.3,4.3,4,4.3c3,0,4.5-10.6,4.5-31.9v-3.3l0-1c0-0.5,0.1-0.8,0.3-1
		c0.2-0.2,0.6-0.3,1.2-0.3c0.6,0,1,0.1,1.3,0.3c0.3,0.2,0.5,0.4,0.6,0.7c0.2,0.5,0.3,1.1,0.3,1.9l-0.4,6L994.3,655.8z"/>
	<path d="M999.4,656.6l0.1-5.6c0-2.4-0.2-4.2-0.5-5.5c0.3-1.4,0.8-2.1,1.7-2.1h2.8c2.4,0,4.1,0.9,5.1,2.8c0.9,1.7,1.3,3.6,1.3,5.8
		c0,2.8-0.1,4.5-0.2,5.1c-0.1,0.6-0.3,1.2-0.5,1.8c-0.2,0.6-0.4,1-0.6,1.4s-0.5,0.7-0.9,1.1c-0.4,0.4-0.8,0.8-1.3,1.1
		c-1,0.6-2.3,1.2-3.8,1.6v6.3l0.5,11.2c0,0.5-0.2,0.9-0.6,1.2c-0.4,0.3-0.9,0.5-1.5,0.5l-1.3-0.7c-0.5-2.2-0.8-5.1-0.8-8.7l0.2-10.6
		c-0.2-0.5-0.4-1-0.4-1.4v-0.2C999.2,660.9,999.4,659.2,999.4,656.6z M1002.5,649.9l0.1,11.6v0.1c2.5-0.3,3.7-3.7,3.7-10
		c0-1.9-0.2-3.1-0.7-3.8c-0.5-0.7-1.4-1.1-2.5-1.1c0-0.1-0.2-0.1-0.7-0.1V649.9z"/>
	<path d="M1018.4,683.2c-0.6,0-1.2-0.2-1.6-0.7c-0.4-0.4-0.6-0.9-0.6-1.5c0-0.6,0.2-1.1,0.7-1.5c0.5-0.5,1-0.7,1.6-0.7
		s1.1,0.2,1.6,0.7c0.5,0.5,0.7,1,0.7,1.6s-0.2,1.1-0.7,1.5S1019.1,683.2,1018.4,683.2z"/>
	<path d="M1026.7,667.9l0-3.5V663c0-5.8,0.3-9.9,0.9-12.2c0.7-2.8,1.8-4.8,3.1-5.9c1.8-1.5,4-2.3,6.8-2.3c0.7,0,1.1,0.1,1.5,0.4
		c0.3,0.3,0.5,0.6,0.5,1c0,0.4-0.1,0.8-0.4,1.1c-0.3,0.3-0.6,0.5-1,0.5h-2.9c-0.9,0-1.6,0.5-2.2,1.6c-0.6,1-1.1,2.3-1.4,3.8
		c-0.5,2.9-0.8,5.2-0.8,7.1v0.3l-0.3,11.4c0,2.4,0.1,4.1,0.4,5s0.6,1.7,0.9,2.2s0.6,1,1.1,1.4c0.9,0.8,2.1,1.3,3.6,1.3
		c0.5,0,0.9-0.2,1.4-0.5c0.5,0,0.9,0.1,1.3,0.3c0.4,0.2,0.6,0.5,0.6,1c0,1.6-1.2,2.3-3.5,2.3c-0.9,0-1.9-0.1-3-0.4s-1.8-0.5-2.3-0.9
		C1028.1,680.1,1026.7,675.5,1026.7,667.9z"/>
	<path d="M1042.4,664.1l0.1-2.3c0-0.2,0-0.3-0.1-0.3v-1.1c0-6.2,0.4-10.6,1.1-13.3c0.6-2.2,1.2-3.6,1.8-4.1c0.6-0.5,1.2-0.8,1.7-0.8
		c4.9,0,8.2,2.3,10.1,7c1.1,2.7,1.6,5.9,1.6,9.8v0.4l0.1,6.7c0,11.4-2.8,17.1-8.4,17.1c-2.3,0-4.1-1.2-5.3-3.6
		c-1.2-2.3-1.9-4.6-2.1-6.8C1042.6,669.5,1042.4,666.6,1042.4,664.1z M1046.1,656l-0.3,5.5c0,5.7,0.5,10.7,1.5,15c1,2.5,2,4,3,4.4
		c0.8,0,1.4-0.3,2.1-0.9s1.1-1.4,1.5-2.3c0.4-1,0.7-2,0.9-3.1c0.2-1.1,0.4-2.2,0.5-3.4c0.2-2.1,0.3-3.9,0.3-5.4s-0.1-3.8-0.4-6.8
		c-0.3-3.1-0.4-5.4-0.4-6.9v-1c0-1.4-0.5-2.7-1.5-3.9s-2.2-1.7-3.7-1.7c-1.4,0-2.4,0.8-2.9,2.3c-0.4,1.3-0.6,2.8-0.6,4.7L1046.1,656
		z"/>
	<path d="M1086.1,681.6l0-7.6c0-1.8-0.2-4.3-0.5-7.7c-0.3-3.4-0.5-5.7-0.5-6.9s0-2.6,0.1-4.2c0.1-1.6,0.1-2.9,0.1-3.7
		c-0.2,0.5-0.9,3.3-2.1,8.2c-3.2,12.8-5.5,19.2-6.8,19.2c-0.8,0-1.5-0.2-1.9-0.7c-0.5-0.5-0.7-1.1-0.7-1.9c0-1.9-0.8-5.7-2.3-11.6
		s-2.9-10.3-4-13.4c-0.8,13.9-1.2,23.4-1.2,28.3l0.1,1.8c0,0.6-0.1,1.1-0.4,1.5c-0.3,0.3-0.7,0.5-1.4,0.5c-0.6,0-1.1-0.1-1.5-0.4
		s-0.6-0.6-0.6-1c0-4,0.3-10.1,1-18.1c0.6-8.1,1-14.1,1-18.1c-0.2-0.4-0.4-0.8-0.4-1.2c0-0.5,0.3-0.8,0.8-1s1.1-0.3,1.7-0.3
		c0.9,0,2.7,4,5.3,11.9c2.7,7.9,4.3,13.4,4.9,16.5c0.2-0.6,0.6-2,1.2-4.4c0.6-2.3,1.2-4.8,1.9-7.3c0.7-2.5,1.4-5.1,2.1-7.7
		c1.8-5.9,3.3-8.9,4.5-8.9c0.6,0,1.1,0.1,1.6,0.4s0.7,0.7,0.7,1.2c0,2.9,0.1,7.1,0.4,12.8c0.3,5.7,0.4,9.8,0.4,12.4l-0.2,6.3v0
		c0,0.4,0.1,1.9,0.4,4.2l0.1,1.2c0.2,0.4,0.3,0.9,0.3,1.3c0,0.5-0.2,1-0.6,1.5s-0.9,0.8-1.5,0.8
		C1086.7,685.3,1086.1,684.1,1086.1,681.6z"/>
</g>
<g>
	<path d="M882,676.7c-4.2,0-6.2-4.7-6.2-14.1v-0.7c0-3.8,0.1-6.3,0.4-7.3s0.5-2,0.8-2.9c0.3-0.9,0.7-1.6,1.1-2
		c1.1-1.2,2.4-1.8,4.1-1.8c1.7,0,3,0.6,4.1,1.7c0.7,0.7,1.6,6.6,2.9,17.7c0.2,1.8,0.3,2.8,0.3,3.1l0.7,0.3c0.5,1,1,1.5,1.3,1.5
		c1.6,0,2.4-3,2.4-9c0-6-1.2-11.9-3.5-17.8c-0.6-1.5-1.3-2.8-2-3.7c-1.5-1.9-3.8-2.8-6.9-2.8c-3,0-5.1,0.9-6.4,2.6
		c-1.1,1.5-1.7,3.6-2,6.3c-0.1,0.8-0.2,1.7-0.2,2.7s-0.1,1.6-0.1,1.8s-0.1,0.5-0.1,0.9c-0.1,0.5-0.1,0.8-0.2,1
		c-0.2,0.8-0.3,1.4-0.5,1.8c0.1,1,0.1,1.9,0.1,2.6s-0.1,1.2-0.2,1.6c0.1,0.2,0.1,0.5,0.1,1.1c0,0.6,0,1.3,0.1,2.3
		c0.1,1,0.1,1.7,0.2,2.2c0.1,0.5,0.2,1.4,0.3,2.8c0.2,1.3,0.3,2.2,0.3,2.8s0.1,1.3,0.2,2.3c0.1,1,0.1,1.8,0.2,2.4
		c0,0.6,0.1,1.4,0.3,2.2c0.1,0.8,0.3,1.6,0.5,2.2c0.5,1.6,1.4,3.2,2.7,4.9c1.2,1.7,2.5,2.5,3.9,2.5c2.3,0,4.3-0.4,6-1.1
		c1.7-0.7,3.4-1.9,5.1-3.6c0.2-0.2,0.4-0.4,0.6-0.6c0.4-0.3,0.6-0.5,0.8-0.6l0.6,0.5c-0.3,1-1,1.9-2,2.8c-1,0.9-2.2,1.6-3.5,2.1
		c-2.8,1.2-5.3,1.7-7.4,1.7c-3,0-5.7-2.3-8-7c0-0.5-0.2-0.9-0.4-1.4c-0.2-0.4-0.4-0.8-0.4-1c-0.5-1.2-0.9-4.2-1.4-9
		c-0.5-4.8-0.7-8.2-0.7-10.2c0-7.9,0.8-14,2.5-18.1c0.9-2.2,2.3-3.7,4.2-4.5c1.4-0.6,2.9-0.8,4.5-0.8c1.6,0,2.9,0.1,3.9,0.4
		c1,0.3,1.8,0.6,2.5,1c0.7,0.4,1.4,0.9,2,1.6c0.6,0.7,1.2,1.4,1.6,2c0.4,0.6,0.8,1.4,1.2,2.4c0.4,1,0.7,1.8,0.9,2.5s0.5,1.6,0.7,2.8
		c0.7,3.1,1,5,1.1,5.7c0.1,0.6,0.2,1.4,0.3,2.3s0.2,1.4,0.3,1.7s0.1,0.8,0.2,1.4c0.1,0.9,0.2,2,0.2,3.2c0,6.5-1.6,9.8-4.7,9.8
		c-0.6,0-1.2-0.2-1.8-0.7c-0.6-0.5-1.1-0.7-1.4-0.8c-0.7,1.7-2,2.9-3.7,3.7C883.7,676.5,882.8,676.7,882,676.7z M884,650
		c-0.2-0.2-0.5-0.4-0.8-0.4s-0.7-0.1-1.2-0.1c-0.5,0-0.9,0.1-1.3,0.3c-0.4,0.2-0.7,0.5-1,0.9c-0.3,0.3-0.5,0.8-0.7,1.3
		c-0.2,0.5-0.3,1.1-0.4,1.5c-0.1,0.5-0.2,1.1-0.2,1.7c-0.1,0.9-0.1,2-0.1,3.3v7.6c0,2.7,0.1,4.5,0.4,5.3c0.3,0.9,0.6,1.5,0.9,2
		c0.6,1,1.5,1.5,2.8,1.5c0.7,0,1.4-0.4,2.1-1.2c0.7-0.8,1.3-1.7,1.7-2.7c0.4-1,0.6-1.8,0.6-2.5v-4.5c0-0.7,0-1.3-0.1-1.9
		s-0.1-1.1-0.1-1.3c0-0.3-0.1-0.7-0.2-1.1c-0.1-0.5-0.1-0.8-0.2-1c0-0.2-0.1-0.6-0.2-1.1c-0.1-0.5-0.2-0.9-0.2-1
		c-0.2-0.7-0.4-1.5-0.5-2.4c-0.2-1-0.3-1.6-0.3-1.8c-0.1-0.2-0.1-0.5-0.2-0.9s-0.2-0.7-0.4-0.9C884.4,650.4,884.2,650.2,884,650z"/>
</g>
</svg>
