<?xml version="1.0" encoding="utf-8"?>
<!-- Generator: Adobe Illustrator 18.0.0, SVG Export Plug-In . SVG Version: 6.00 Build 0)  -->
<!DOCTYPE svg PUBLIC "-//W3C//DTD SVG 1.1//EN" "http://www.w3.org/Graphics/SVG/1.1/DTD/svg11.dtd">
<svg version="1.1" id="Layer_1" xmlns="http://www.w3.org/2000/svg" xmlns:xlink="http://www.w3.org/1999/xlink" x="0px" y="0px"
	 viewBox="0 0 1400 900" enable-background="new 0 0 1400 900" xml:space="preserve">
<g>
	<path fill="#1D1D1D" d="M574.2,256.6c0,12.6,0,25.2,0,37.8c-0.1,21-19.7,20.9-24.8,12.7c-14.6-23.4-28.4-6.5-41-2.2
		c-11.2,3.9-17.9,10.5-28.8-3.1c-10.9-13.6-25.8-2.4-38.1,3.3c-23.1,10.7-28.2,7.1-26.7-18.5c1.2-21.3,2.3-42.7,2.5-64
		c0.1-11.7,5.9-15.4,16.4-14.7c10.7,0.7,11.7,6.8,10.3,16.1c-1.8,12.4-2.3,25.1-2.3,37.7c0,8.7-4,21.7,12.7,19.2
		c11.7-1.8,26.5,0.4,27.2-18.6c0.6-14.5,2.4-29,3.7-43.4c0.8-8.7,6.2-11.1,14.1-10.9c8.8,0.2,11.8,4.7,11.4,13
		c-0.6,12.6-1.8,25.3-0.8,37.8c0.7,8.2-9.7,23.9,11.1,22.2c13.7-1.1,28.1-1.9,28.2-21.6c0-11.6,1.3-23.2,1.6-34.9
		c0.2-9.9,2.3-17.2,14.6-16.5c11.3,0.7,11.5,8.6,11.3,16.5c-0.2,10.7-0.9,21.3-1.4,32C575.1,256.6,574.6,256.6,574.2,256.6z"/>
	<path fill="#1D1D1D" d="M343.6,178.2c16.1,12.8,16.5,29.9,15.4,47.4c-1.2,19.3-2.5,38.6-3.8,57.9c-2.1,31.4-1.3,29.8-29.9,15
		c-12.2-6.3-27.7-0.9-40.4,6.8c-17.5,10.7-27.2,7.3-25.9-15c1.3-22.2,2.5-44.4,3.7-66.7c0.5-10,3.9-16.8,15.8-15.5
		c11.6,1.2,10.3,9.6,10.3,17.2c-0.1,10.7-1.4,21.3-0.8,31.9c0.5,8.6-10.5,23.9,9,23.6c14.1-0.2,33.4,2.8,32.8-21.8
		c-0.7-29.1,11.8-59-10.4-86.6c-7.9-9.8-4.1-25.2,8.8-32.9c14.2-8.5,29.8-9.3,43.6,0.4c7.8,5.5,7.4,15.3,5.2,24.1
		C372.7,182.2,356.2,173.2,343.6,178.2z"/>
	<path fill="#1D1D1D" d="M1081.7,137.3c-15.1,15.8-30.4,4.5-43.2,17.1c50,21.1,29.9,62.4,30.3,98.7c0.1,9.9-11.2,27.9,12.3,27.6
		c17.4-0.3,33.4-3.1,31-27.4c-1.1-11.5,0.8-23.3,1-35c0.2-10.1,5.5-13.1,14.9-13c10.4,0.1,13.5,4.9,12.8,14.6
		c-1.8,26.2-2.8,52.4-4.9,78.5c-1.4,17.7-16.8,15.7-22.4,8.4c-15.7-20.4-31.1-7.7-45.4-2c-24.1,9.6-28.6,7.5-27.8-18.9
		c0.8-24.3,1.4-48.6,3-72.9c1.2-19,1.9-34.4-21.1-44.6c-18.3-8.1-9.6-23.5,4.9-30.2C1043,130.9,1060,133.1,1081.7,137.3z"/>
	<path fill="#1E1E1E" d="M774.6,264.1c0-8.7-0.4-17.5,0.1-26.2c1.8-31.2,2.7-30.8,31.8-18.2c12.5,5.4,26.8-1,38.5-7.1
		c24.2-12.5,29.5-1.6,27.9,20.1c-1.5,20.3-3.1,40.6-4.5,61c-0.6,9.2-1.3,17.4-14.3,16.6c-14.1-0.9-11.1-10.5-11-18.8
		c0.1-10.7,1.6-21.5,0.3-32c-1.1-8.6,7.8-24.8-10.4-23.6c-13.6,0.9-33.1-0.8-31.5,23.8c0.7,11.5-1.8,23.2-2.6,34.8
		c-0.7,9.7-3.2,16.8-15.5,15.8c-12-1-10.1-9.7-10.3-17c-0.3-9.7-0.1-19.4-0.1-29.2C773.5,264.1,774,264.1,774.6,264.1z"/>
	<path fill="#202020" d="M919,262.1c1.3-13.3,2.8-28.6,4.4-43.9c0.9-8.8,6.9-10.5,14.5-10.2c8.9,0.3,11.4,5.3,11.1,13.2
		c-0.5,11.6-0.3,23.1-1,34.7c-1.3,19.6-9.2,43.2,26.2,37.3c5.1-0.9,9.2,2.6,8.5,8.7c-0.6,5.8-4.8,8.1-10,8.2
		c-14.5,0.2-28.9,0.2-43.4,0.1c-9.4-0.1-10.2-7-10.2-14.1C919,285.4,919,274.8,919,262.1z"/>
	<path fill="#1E1E1E" d="M732,215.1c-0.5-4.3-4.1-5.5-8-7c-44.2-16.6-57.7-33.6-57.5-72.5c-56.9,27.4,4.5,45.7,4.8,68.5
		c-5.5,6.8-14.1,5.2-21.2,7.7c-26.3,9.1-35.5,29.1-32.3,54.8c3.1,24.9,18,41,43.4,43.3c27.3,2.5,39.6-16.4,46.9-39
		c2.6-8.1,2.9-17.2,3.2-25.9c0.4-10.5-2.9-22.4,14-22.5C729.9,222.7,732.5,219.5,732,215.1z M667.8,292.2
		c-16.9-0.2-23-15.3-23.6-30.9c-0.9-21.1,12.4-35,30.3-35.3c21.1-0.4,6.6,21.4,13.3,30.6C684.3,271.3,691.3,292.5,667.8,292.2z"/>
</g>
<g>
	<path fill="#020202" d="M739.8,645.2c10.4-33.5,32.3-38.8,56.7-32.3c23.1,6.1,29.7,26,29.6,48.1c-0.1,9.8-0.7,19.5-1.2,29.3
		c-0.4,7.3-9.1,18.8,9,16.1c6-0.9,6.3,4.6,6.5,9.1c0.3,7-3.7,9.2-9.9,9.1c-13.6-0.2-26.2,4.1-39,7.9c-5.5,1.6-12.1,6.8-15.8-1.8
		c-2.8-6.7,0.9-11.9,7.1-15.2c25.9-13.9,22.5-37.9,20.3-60.9c-1.3-13.3-8.5-25.1-22.9-25.2c-14.4-0.2-20.8,12-24.2,24.6
		c-1.6,5.9-2,12.3-1.9,18.5c0.1,10.9-1,18.8-15.5,18.7c-15.1-0.1-14.4-9.8-14.9-19.6c-0.6-9.8-1.7-19.5-6.8-28.2
		c-11.4-19.2-30.5-19-41.8,0.3c-13.9,23.9-5.8,58.5,18.9,73.9c6.7,4.2,9.1,7.6,7.5,14.2c-2.3,9.9-9.5,4.9-15,4.4
		c-3.5-0.3-7.1-0.9-10.4-2.2c-25.9-10.1-37.5-51.2-25.4-89.6c8.5-27,28.6-38,58.3-32.7C725.4,614.6,731.1,627.4,739.8,645.2z"/>
	<path fill="#030303" d="M979,678c-0.2-33.1,14.6-56.9,40.3-64.9c29.4-9.1,63,0.8,76.5,22.6c15.1,24.4,12.1,67.5-6.1,87.5
		c-5.5,6-11.9,10.7-19.9,12.5c-5,1.2-11.1,4.3-13.9-2.3c-2.4-5.6-2.8-11.4,5-15.4c13.6-6.9,20.1-19,21.9-34.2
		c3.1-25.7-7.7-46.9-29-53.3c-19.4-5.8-35,1.2-46,17.5c-12.4,18.4-8.8,49.3,7,63.8c3.2,2.9,7.2,5.2,11.2,7c6.6,2.9,6.4,8.2,4.8,13.2
		c-2.2,6.8-7.8,5-13.2,4.3C994,733.4,979.2,711.2,979,678z"/>
	<path fill="#040404" d="M500.2,694.1c0.4,29.3-15.4,44.6-43.2,44.2c-27.5-0.4-41.8-14-40.2-38.1c0.4-6.1-0.8-13,8.4-13.6
		c8.3-0.5,13.3,1.6,13.5,11.4c0.2,12.2,6.4,20.1,19.4,20.7c7.8,0.4,14.5-2.8,17.6-9.7c5.1-11.5,3.7-23.1-5.8-31.8
		c-13-11.9-28.8-21.5-29.8-41.8c-0.2-5-1.8-11.5,5.3-13c5.8-1.3,14.2-3.4,15.5,4.8c3.1,19.6,18.3,29.5,30.5,42
		C498.7,676.7,501,686.2,500.2,694.1z"/>
	<path fill="#020202" d="M550.9,588.6c10.8-7.8,13,4.6,17.8,12c6.1,9.5,15.8,10.8,21.2-1.1c9.1-19.9,16.8-20,24.2,0.5
		c2.4,6.8,7,7.6,12.4,6.3c7.2-1.8,5.5-8.1,5.2-13.1c-1.4-20.8-19.4-31-41-23.7c-5.7,1.9-7.8,9.3-18,5.1
		c-35.5-14.6-51.3-3.5-47.5,34.3c5.6,55.8,22.2,109.4,37.6,163.1c4.6,16.1,18.1,15.9,25.3,3.5c19.6-33.8,36-69.2,38.6-101.1
		c0.1-45.9-23-62.6-59.7-52.7c-5.7,1.5-14.8,13.4-18.8-0.5C545,610.6,540.3,596.3,550.9,588.6z M580.3,639
		c20-1.5,25.5,12.7,25.2,29.8c-0.6,28.2-13.7,52.7-29.1,77.9c-5.9-24.7-13.2-49.2-17.3-74.2C556.5,656.9,560.4,640.5,580.3,639z"/>
	<path fill="#020202" d="M879.3,628.6c-2.3-35.6-2.3-35.7,30.6-33.2c12.7,1,24.7-2.2,36.7-5.3c7.8-2,8.3-8.4,7.1-14.9
		c-1.1-6.1-5.6-5.9-10.1-4.2c-22.1,8.2-43.6,3.1-65.3-2.6c-13.3-3.5-22.8-1.6-22.4,15.8c0.7,34.7-0.8,69.4,1.1,104
		C859,722.4,876,738,907,738.6c32.2,0.6,52.8-18.4,56-51.6C968.4,631,937.9,609.3,879.3,628.6z M910.4,718.9
		c-19.5,0.7-33.1-15.2-33.5-39.1c-0.5-23.1,13.8-41.6,32.6-40.2c22.6,1.7,31.3,16.8,32.1,31C941.8,701.9,929.5,718.2,910.4,718.9z"
		/>
	<path fill="#020202" d="M394.7,600.1c-3.2-17.8-13.7-30.6-33.7-31.9c-21.5-1.4-43.3-3.3-56.3,19.5c-4.4,7.7-9.2,17.8,0.3,23.2
		c7.9,4.5,15.5,1.2,19.1-10.6c4.3-14,17.5-17.3,30.7-14c12.4,3.1,18.7,13.2,20,25.5c0.8,7.1,3.8,14.2-11.4,12.1
		c-52.3-7-73.1,15.3-68,69c2.6,27.8,18.2,43.3,46,45.7c28,2.4,45.1-10.3,52-37.9c4.4-17.5,3.3-35.2,4.3-53
		C396.8,631.9,397.5,615.7,394.7,600.1z M375.7,678.8c-0.5,19.6-3.4,38.3-28.1,40.2c-19.8,1.6-31-13.8-30.8-40.2
		c-0.1-20.6,6.5-38.8,29.6-38.9C369.8,639.8,376.3,658,375.7,678.8z"/>
</g>
</svg>
