<?xml version="1.0" encoding="utf-8"?>
<!-- Generator: Adobe Illustrator 18.0.0, SVG Export Plug-In . SVG Version: 6.00 Build 0)  -->
<!DOCTYPE svg PUBLIC "-//W3C//DTD SVG 1.1//EN" "http://www.w3.org/Graphics/SVG/1.1/DTD/svg11.dtd">
<svg version="1.1" id="Layer_1" xmlns="http://www.w3.org/2000/svg" xmlns:xlink="http://www.w3.org/1999/xlink" x="0px" y="0px"
	 viewBox="324.6 270.1 754 425.3" enable-background="new 324.6 270.1 754 425.3" xml:space="preserve">
<g id="eKUloS.tif">
	<g>
		<path fill="none" stroke="#000000" stroke-width="3" stroke-miterlimit="10" d="M716,693.9c-3.6-1.7-7.8-2.2-9.8-6.7
			c-1.1-2.5-4.4-2.1-6.7-1.8c-10.4,1.5-19.5-1.6-28.1-7c-5.3-3.4-11-5.5-17.2-6.4c-6.6-1-12.3-3.4-15-10.2c-0.4-0.9-1-1.9-1.8-2.5
			c-9.5-6.2-20.2-9.8-31-13c-1.5-0.4-3.5,1-5.2,1.5c-1.6,0.5-3.8,1.9-4.6,1.3c-6.9-4.9-13.9-0.8-20.6-0.4
			c-17.9,1.1-33.9-5.4-50-11.6c-6.1-2.3-11.9-4.3-18.5-2.2c-3.9,1.2-7-0.1-7.4-4.8c-0.2-2.3-1.2-3.7-3.2-4.9
			c-10.9-6.4-14.3-16.1-13.7-28.4c0.2-5.1-0.3-11.5-6-15.1c-2.7-1.7-4.1-4.3-2.3-7.3c1.8-3,1.1-3.8-2.2-4
			c-9.6-0.7-16.3-5.3-20.8-14.1c-4.3-8.3-12.2-13.3-20.3-17.4c-13.2-6.6-26.8-12.5-41.8-14.1c-3.7-0.4-7.3-1.3-10.7-2.9
			c-8.3-3.9-12.5-11.5-8.6-19.7c5.2-11,7-23.2,12.5-34c2.6-5,2.5-10.4,1.6-15.7c-3-17.2-11.3-32.5-17.1-48.7
			c-1.1-3.2-4.2-4.4-7.4-4.9c-7.7-1.4-12.5-6.3-16.1-13.1c-5.7-10.6-11.9-21-17.9-31.4c0-0.8,0-1.6,0-2.5
			c4.7-4.5,10.1-8.5,12.3-15.1c0.2-0.7,0.7-1.5,1.3-2c1-0.9,17.4,0,18.6,1.1c2.3,2.3,4.4,2.7,6.8,0c1.4-1.6,3.4-2.2,5.5-2.5
			c1.2-0.2,3.2-0.2,3.4-0.9c3.2-8.6,13.9-7.5,18.5-14.3c1.3-2,3.7-2.1,6.2-1.7c11.1,1.9,21-0.5,29.5-8.2c3.6-3.3,15.6-4.6,20.5-3.6
			c4.9,1,8,3.2,11.3,7c3.5,4.1,9.4,3.6,14.5,4c11.5,0.8,13.5,3.2,10.8,14c-0.9,3.5,0.1,6.4,2.7,8.2c6.3,4.2,12.5,8.6,20.2,10
			c0.6,0.1,1.4,0.5,1.8,0.2c9.8-6.3,16.1,2.5,23.8,5.3c1.1,0.4,2.2,1.2,3.2,1.8c12.6,7.7,28.7-2.9,32.2-12.2c1.3-3.3,1.2-6-1.2-9.1
			c-8.1-10.4-7.1-25.9,2-35.2c1.2-1.2,2.1-2.5,2.4-4.2c1.1-4.9,4.1-8.5,7.8-11.5c2.4-2,4.3-4,5.4-7.2c1.7-5,4.7-5.9,8.9-2.5
			c3.8,3.1,7.1,6.9,10.6,10.3c1.9,1.9,3.9,4.3,6.8,3.7c9.8-2.2,16.5,3.6,23.3,8.7c3.5,2.6,6.8,3.9,11.2,3.6
			c8.6-0.6,15.1,7.2,13.7,15.6c-1.1,6.6,0.1,13.3,1.5,19.3c1.3,6,8.1,9.3,14.1,11.9c1.5,0.6,2.8,1.7,4,2.8c8.7,8.1,16.9,8.6,26.9,2
			c5.9-3.9,13.2-5,19.2-9.1c3.7-2.5,7.8,1.1,10.7,4.1c3.4,3.6,6.3,5,10.9,1.1c4.8-4.1,9.6-1.4,12.7,2.8c4,5.3,7.9,8.7,15.4,7
			c5.9-1.3,12.6,5.7,13.1,12c1,12.1,8.3,17.5,19.9,14.2c4.4-1.3,8.1-0.1,11.7,2c6.3,3.7,12.8,4.1,20.1,3.4
			c15.6-1.5,28.9-8.4,41.9-16.2c4.6-2.7,10.5-2,14.7-5.8c1.2-1.1,2.9-1.6,3.5-3.3c3.2-10.4,11.9-16.6,18.5-24.4
			c8.1-9.5,16.9-9,25.3,0.1c0.8,0.9,1.6,1.9,2.4,2.8c6.6,7.3,9,7.5,15.6,0.2c3.3-3.6,7.3-5.2,12.1-4.9c6.4,0.5,9.8,4.3,9,10.7
			c-0.4,3.6-1.2,7.3-2.6,10.7c-2.5,6.4-4.7,12.7-4.7,19.6c0,2-0.5,4.2-1.5,5.9c-3.6,5.9-5.2,11.8-3.2,18.7c1,3.4-0.7,6.4-3.2,8.9
			c-5.6,5.5,0.8,7.6,3.1,10.8c2.3,3.3,3.9,2.3,7.1-0.1c6.6-4.9,15.7-6.7,22.8-4c8.5,3.2,10.6-1.8,13.4-6.4
			c5.2-8.6,15.7-10.9,24.2-5.6c15.2,9.5,25.9,23.1,35.9,37.5c1.7,2.4,3.3,4.9,1.7,8c-1.7,3.2-4.7,3.7-7.9,3.6
			c-0.6,0-1.4,0.1-1.8-0.2c-11.4-7.1-20.5-0.9-29.9,4.9c-5.2,3.2-9.7,7.7-16,9.1c-0.8,0.2-1.9,1.4-1.9,2.1
			c-0.3,6.6-4.9,8.5-10.1,9.7c-6.3,1.5-8.9,7.6-13.7,10.9c-2,1.4-1.4,4.2-0.6,6.4c2.4,5.9,0.5,10.1-4.5,13.8
			c-3.5,2.5-5.8,6.3-9.4,8.8c-5.1,3.5-10.4,5.8-16.6,5.7c-4.8-0.1-7,2.2-8.9,6.6c-6.7,15.3-25.6,28.1-42.9,16.4
			c-10.2-6.9-19.7-2.7-23.6,9.3c-1.5,4.6-4.8,8.7-4.3,14c0.5,5.5,3.7,9.3,7.3,13.1c10.9,11.4,11.1,15.7-2.6,23.3
			c-11.1,6.2-18.2,13.6-22.4,25.8c-3.1,9-13.3,11.6-21.6,15c-0.9,0.4-2.2,0.2-3,0.8c-7.6,5.7-15.7,8.7-25.1,4.7
			c-10.8,4.8-23.2,1.7-33.5,5.7c-10.6,4.1-20.6,8.3-32.1,10.3c-10,1.8-17.4,11.1-25.8,17.3c-1.1,0.8-1.4,2.9-2,4.4
			C720.9,693.9,718.5,693.9,716,693.9z M347.7,338.7c-3.1-0.7-5.8-1.8-7.3,1.7c-1.7,3.8-4.5,6.9-7.6,9.6c-2.4,2.2-2,4.2-1.2,7.1
			c3.3,10.6,11.5,18.5,15.9,28.5c2.6,5.8,7.1,9.4,13.5,10.5c4.1,0.7,7.6,2.5,9.1,6.5c6,16.3,14.4,31.9,17.4,49.3
			c1,5.9,1.2,12-1.6,17.5c-5.5,10.8-7,23.1-12.6,34c-3.2,6.4,0.4,13,7.3,16c2.6,1.1,5.5,2.1,8.3,2.3c13.4,1,25.6,6.1,37.6,11.4
			c10.7,4.8,21.7,10.1,27.5,20.9c5,9.4,12.1,13.5,22.2,13.6c5.1,0,5.9,2,3,5.9c-1.7,2.2-2.7,4.5,0.4,6.1c7.5,3.7,6.9,11.3,6.7,17.2
			c-0.4,11.8,2.5,20.8,13.2,26.5c2.1,1.1,3.7,2.8,3.8,5.2c0.2,3.1,1.8,4.1,4.5,3.3c7-2.1,13.3,0.3,19.7,2.7
			c15.4,5.7,30.5,12.1,47.6,11.3c7.2-0.4,14.6-5.1,21.8,0.3c0.4,0.3,1.5-0.4,2.3-0.7c10-3.5,37.5,6,42.7,15.3
			c2.7,4.8,6.4,7.3,11.5,8.2c7.2,1.1,13.9,3.4,20.1,7.4c8,5,16.6,7.9,26.4,5.9c4-0.8,7.4,0.8,10,4.5c3.5,4.9,8.3,4.8,12.8,1.2
			c7.6-6,15.4-11.6,23.3-17.2c3.6-2.6,8-3.1,12.4-2.9c3.5,0.1,7.3,0.8,10.2-1.6c7.7-6.3,16.5-8.8,26.2-9c7.8-0.1,15.5-3.8,22.7-3.3
			c8.4,0.6,15.5,0.8,22.2-4.7c0.9-0.7,2.3-0.8,3.5-1.1c11.4-3.7,21-9,24.3-22c1.9-7.1,6.2-12.9,14.2-14.9c1.5-0.4,2.9-1.5,4.3-2.4
			c13-8.6,13.1-9.6,2.3-20.9c-7.6-7.9-8.9-15.2-4.3-25.3c0.6-1.3,1.3-2.6,1.7-3.9c4.8-14.2,16.2-18.9,28.7-10.6
			c15.5,10.3,32.1-2.1,37.6-14.6c2.9-6.5,6.3-9.9,13-9.6c8.2,0.3,14-4,19.3-9.4c1.3-1.3,2.3-3,3.8-4c4.1-2.7,4.9-6.3,3.5-10.7
			c-1-3-1.6-6.6,0.9-8.8c5-4.4,8.7-10.6,15.8-12.2c4.3-1,7.6-2.8,7.8-8c0.1-1.7,1.1-3.4,2.8-3.7c8.8-1.7,15.3-7.8,22.5-12.3
			c7.7-4.9,14.6-7.1,22.9-2.6c1.2,0.7,2.7,0.9,4.2,1c1.9,0.2,3.8,0.1,5-1.7c1.2-2-0.2-3.5-1.2-5c-7-10.6-15.2-20.1-24.3-29
			c-2.7-2.6-6.7-2.9-9.2-5.9c-3.3-4.1-7.7-4.3-12.8-3.6c-7.2,0.9-9.3,7.1-11.4,11.6c-2.9,6.2-5.8,5.6-10.5,3.5
			c-7-3.1-20.1-0.7-25,4.8c-2.2,2.4-4.2,2.5-6.4,0.6c-2.2-1.8-4.3-3.8-6.2-5.9c-3.9-4.2-4.8-8.5,0.1-12.8c2-1.8,3-4.2,2.2-6.7
			c-2.3-6.9-0.3-12.9,3.2-18.8c1-1.7,1.6-3.9,1.6-5.9c0-7,2.2-13.3,4.7-19.6c1.3-3.2,2.1-6.7,2.5-10.1c0.5-4.6-1.6-7.3-6.7-7.5
			c-4.6-0.1-7.6,1.9-10.4,5.4c-5.1,6.3-9.8,6.5-15.7,1.2c-2.6-2.3-4.9-5-7.4-7.4c-5.8-5.6-11.3-6.3-16.7-0.4
			c-7.2,7.7-16.1,14.3-19.8,24.9c-0.8,2.4-2.8,3.7-4.8,5.3c-4.5,3.7-10.5,3.4-15.2,6.1c-13.3,7.4-26.5,14.2-42,16.1
			c-8.3,1-15.9,0.7-23.1-3.8c-3.6-2.2-7.1-2.4-11.1-1c-10.3,3.5-21.7-5.1-22-16.2c-0.2-5.7-4.5-11.3-9.7-10.2
			c-8.9,1.8-13.9-2.4-18.5-8.8c-1.7-2.4-4.1-4-7.5-2.2c-8.9,4.9-8.9,4.9-16.5-1.8c-2.1-1.8-4.8-4.3-7-2.4
			c-5.3,4.6-12.5,4.9-18.1,8.7c-11.1,7.5-20.9,6.8-30.4-2.2c-1.2-1.1-2.6-2.1-4-2.8c-15.6-7.7-19.7-15.7-17-33.4
			c1.2-7.8-3.7-13.7-11.4-12.7c-4.8,0.6-8.2-1.1-11.7-3.9c-6.4-5.2-12.9-10.3-22.1-8.6c-3,0.6-5.6-1.2-7.7-3.3
			c-2.7-2.6-5.1-5.4-7.6-8c-5.4-5.6-5.4-5.6-9,1.2c-0.4,0.7-0.9,1.4-1.5,1.9c-9.5,7.8-14.2,18.6-19.2,29.5
			c-3.7,8.1,0.6,14.1,3.8,19.7c2.5,4.5,3.3,8,1.6,12.5c-5.2,13.3-21.1,20.4-34.3,15c-2.8-1.1-5.3-3.3-8.1-4.4
			c-6.1-2.5-11.8-8.4-19.2-3.1c-0.4,0.3-1.2,0.2-1.8,0.1c-8.6-2.3-16.5-6.2-23.4-11.8c-3.2-2.6-4.2-6.3-3.2-10.6
			c2.2-8.8,1.2-9.9-7.7-10.4c-5.7-0.3-12.1-0.1-16.3-4.4c-3.3-3.5-6.9-6-11.1-6.3c-5.5-0.4-11.9-1.4-16.5,2.5
			c-9.5,8.1-20.2,11-32.4,9.2c-0.9-0.1-2.6-0.2-2.8,0.3c-3.9,7.4-15.7,5.1-17.9,14.6c-0.1,0.6-1.6,1.3-2.5,1.4
			c-3.6,0.2-6.8,0.9-9.1,4.1c-1.2,1.6-3.7,1.6-5.2,0.7C356.4,338.3,352,337.8,347.7,338.7z"/>
	</g>
</g>
<g>
	<path d="M532.2,538.2l0.1-21c0-4.9-0.4-12-1.2-21.4c-0.8-9.4-1.2-15.7-1.2-19c0-3.3,0.1-7.1,0.3-11.6c0.2-4.5,0.3-7.9,0.3-10.1
		c-0.5,1.4-2.3,9-5.5,22.7c-8.3,35.3-14.3,53-17.8,53c-2.1,0-3.8-0.6-5-1.9c-1.2-1.3-1.8-3-1.8-5.1c0-5.2-2-15.8-6.1-32
		c-4.1-16.1-7.5-28.5-10.4-37.1c-2.1,38.5-3.1,64.6-3.1,78.1l0.2,4.9c0,1.8-0.4,3.1-1.1,4c-0.7,0.9-1.9,1.4-3.5,1.4
		s-2.9-0.4-3.9-1.2c-1-0.8-1.5-1.7-1.5-2.8c0-11.2,0.8-27.9,2.5-50.1c1.7-22.3,2.5-39,2.5-50.1c-0.6-1-1-2.1-1-3.4
		c0-1.3,0.7-2.2,2-2.8c1.3-0.6,2.8-1,4.3-1c2.3,0,7,11,13.9,32.9c6.9,22,11.2,37.2,12.8,45.6c0.5-1.6,1.5-5.6,3-12.1
		c1.5-6.5,3.1-13.2,4.8-20.2c1.7-7,3.6-14.1,5.6-21.3c4.6-16.4,8.5-24.7,11.7-24.7c1.4,0,2.8,0.4,4.1,1.2s1.9,1.9,1.9,3.3
		c0,7.9,0.3,19.7,1,35.4c0.7,15.7,1,27.1,1,34.2l-0.4,17.3v0.1c0,1.2,0.3,5.1,1,11.7l0.3,3.2c0.5,1.2,0.7,2.4,0.7,3.7
		c0,1.3-0.5,2.7-1.5,4.2c-1,1.5-2.3,2.2-4,2.2C534,548.4,532.2,545,532.2,538.2z"/>
	<path d="M551.5,489.7l0.2-6.2c0-0.5-0.1-0.8-0.2-0.8v-3c0-17.2,1-29.4,3-36.7c1.7-6.1,3.3-9.9,4.8-11.4c1.5-1.4,3.1-2.2,4.6-2.2
		c12.7,0,21.5,6.4,26.3,19.2c2.8,7.4,4.2,16.4,4.2,27.2v1.2l0.3,18.6c0,31.4-7.3,47.1-21.9,47.1c-6,0-10.6-3.3-13.8-10
		c-3-6.4-4.9-12.7-5.6-18.9C552,504.7,551.5,496.6,551.5,489.7z M561.1,467.3l-0.8,15.1c0,15.8,1.3,29.7,3.8,41.5
		c2.7,6.9,5.3,10.9,7.8,12.2c2,0,3.8-0.8,5.4-2.4c1.6-1.6,2.9-3.7,3.8-6.4c0.9-2.7,1.7-5.5,2.4-8.5c0.6-2.9,1-6.1,1.4-9.4
		c0.5-5.8,0.8-10.8,0.8-14.9c0-4.1-0.4-10.4-1.1-18.9c-0.7-8.5-1.1-14.8-1.1-19v-2.9c-0.1-4-1.4-7.6-3.9-10.7
		c-2.5-3.1-5.7-4.7-9.6-4.7c-3.7,0-6.2,2.1-7.4,6.3c-1,3.5-1.5,7.9-1.5,13L561.1,467.3z"/>
	<path d="M604.6,473.5l1-30.6c0-5.1,2-9.1,6-12.1v1c0.4-0.3,0.8-0.4,1.2-0.4c2.6,0,5.8,4.4,9.6,13.2c3.8,8.8,7.3,18.5,10.4,29.1
		c3.1,10.6,6.2,21.2,9.2,32c3.1,10.8,5,17.1,5.7,18.9c2.2-22.9,3.3-50.6,3.3-83.2l-0.2-4.4c0-3.3,1.4-4.9,4.1-4.9
		c1.5,0,2.7,0.6,3.5,1.9c0.8,1.3,1.2,2.8,1.2,4.5v12.4c-0.1,12.9-0.7,30-1.7,51.5c-1,21.5-2.4,33.6-4.2,36.4c-3,0.9-5.1,1.4-6.2,1.4
		c-1.1,0-2-0.4-2.6-1.2c-0.6-0.8-1.1-2-1.5-3.6c-0.4-1.6-0.7-2.7-1-3.2l0.1-0.7c0-4.1-3.9-16.9-11.8-38.7
		c-7.8-21.7-13.5-36.7-17-44.8v82.5c0.1,0.2,0.3,0.6,0.6,1.1c0.7,1.2,1,2.3,1,3.3c0,1-0.5,2-1.5,3c-1,1-2.1,1.5-3.5,1.5
		c-3.6,0-5.4-3.3-5.4-10L604.6,473.5z"/>
	<path d="M710.7,507l0.8,17.4c0,5.4-1.9,9.5-5.6,12.4c-3.8,2.9-8.2,4.4-13.2,4.4c-7.6,0-13.1-2.8-16.5-8.5c-2.5-4-4-7.8-4.6-11.3
		c-0.6-3.5-1.1-6.3-1.4-8.2c-0.3-1.9-0.5-4.5-0.6-7.8c-0.2-4.5-0.3-8.2-0.3-11v-7c0-15.4,0.5-25.2,1.4-29.3
		c0.9-4.1,1.9-7.9,3.1-11.4c1.2-3.5,2.6-6.2,4.3-8.2c4.1-4.7,8.9-7,14.2-7s8.1,1.4,8.1,4.2c0,1.3-0.5,2.3-1.6,3.2
		c-1.1,0.8-2.3,1.2-3.6,1.2l-3.4-0.4c-3.8,0-6.6,3.7-8.6,11.2c-2.8,10.7-4.2,23.6-4.2,38.7c0,10.3,0.3,17.4,1,21.3
		c0.7,3.9,1.4,7.1,2.2,9.7c0.7,2.7,1.7,4.8,2.7,6.4c2.5,3.8,5.7,5.7,9.7,5.7c5.3,0,7.9-8.7,7.9-26.1V499c-0.8-0.4-2.1-0.6-3.8-0.6
		l-3.2,0.1c-3.8,0-5.7-1.3-5.7-3.8c0-1.5,0.5-2.7,1.6-3.5c1.1-0.8,2.4-1.2,4-1.2v0.1h2.2c9.8,0,14.7,1.7,14.7,5L710.7,507z"/>
	<path d="M720.8,489.7l0.2-6.2c0-0.5-0.1-0.8-0.2-0.8v-3c0-17.2,1-29.4,3-36.7c1.7-6.1,3.3-9.9,4.8-11.4c1.5-1.4,3.1-2.2,4.6-2.2
		c12.7,0,21.5,6.4,26.3,19.2c2.8,7.4,4.2,16.4,4.2,27.2v1.2l0.3,18.6c0,31.4-7.3,47.1-21.9,47.1c-6,0-10.6-3.3-13.8-10
		c-3-6.4-4.9-12.7-5.6-18.9C721.4,504.7,720.8,496.6,720.8,489.7z M730.5,467.3l-0.8,15.1c0,15.8,1.3,29.7,3.8,41.5
		c2.7,6.9,5.3,10.9,7.8,12.2c2,0,3.8-0.8,5.4-2.4c1.6-1.6,2.9-3.7,3.8-6.4c0.9-2.7,1.7-5.5,2.4-8.5c0.6-2.9,1-6.1,1.4-9.4
		c0.5-5.8,0.8-10.8,0.8-14.9c0-4.1-0.4-10.4-1.1-18.9c-0.7-8.5-1.1-14.8-1.1-19v-2.9c-0.1-4-1.4-7.6-3.9-10.7
		c-2.5-3.1-5.7-4.7-9.6-4.7c-3.7,0-6.2,2.1-7.4,6.3c-1,3.5-1.5,7.9-1.5,13L730.5,467.3z"/>
	<path d="M784.1,448l0.5,39.4c-0.6,1.5-1,3.4-1,5.6v3.3l-0.6,26.1c0,7.5,1.8,11.3,5.5,11.3l6.8-0.2c5.9,0,8.8,1.6,8.8,4.8
		c0,1.2-0.5,2.1-1.5,2.9c-1,0.8-2.2,1.2-3.4,1.4c-4-1.3-8.9-1.9-14.6-1.9c-1.8,1-3.5,1.5-5.1,1.5c-1.6,0-2.9-0.6-3.8-1.7
		c-0.9-1.1-1.4-2.3-1.4-3.7c0-8.1,0.3-20.3,1-36.6c0.7-16.3,1-28.5,1-36.6v-1.2c-0.6-6.8-1-12-1-15.4c0-10.4,1.9-15.5,5.7-15.5
		c1.1,0,2.1,0.4,2.9,1.2c0.8,0.8,1.2,1.8,1.2,2.9L784.1,448z"/>
	<path d="M829.1,485.3l0.8,34.8v4.9l-0.1,4.6h2.2l4.7-0.2c4.5,0,6.7,1.4,6.7,4.1c0,1.4-0.5,2.6-1.6,3.6c-1.1,1-2.4,1.5-3.8,1.5h-7.2
		c-5,0-8.1-0.1-9.5-0.3c-0.9,0.1-1.5,0.2-2,0.2c-3.9,0-5.8-1.2-5.8-3.7c0-1,0.3-2,1-2.9c0.6-0.9,1.3-1.4,1.9-1.4h4.6l0.3-2.2
		l-1.1-34.8l0.9-36.5c0-6.2-0.3-12.1-0.8-17.6h-3.1l-3.8,0.2c-1.6,0-2.9-0.3-3.8-0.9c-0.9-0.6-1.4-1.8-1.4-3.5
		c0-2.5,2.7-3.8,8.1-3.8h19.5c4.4,0,6.6,1.1,6.6,3.4c0,1-0.5,1.9-1.4,2.8c-1,0.9-2.1,1.3-3.3,1.3h-8.4c0.4,4.5,0.6,9.6,0.6,15.2
		L829.1,485.3z"/>
	<path d="M887.6,506.6l1.8,10.1c0,1.3,0.5,4.6,1.6,9.8c1,5.2,1.6,8.6,1.6,10.2v0.2c0,2.4-0.9,3.9-2.7,4.6c-2.3,0-4.1-0.4-5.4-1.1
		c-1.3-0.7-1.9-2.2-1.9-4.3c0-4.6-0.8-11.4-2.4-20.2l-16.2-2.4c-1,3.6-1.8,7.6-2.3,11.9c-0.5,4.3-1,7.5-1.5,9.4
		c-1,4.1-2.7,6.1-5.4,6.1c-1.3,0-2.5-0.4-3.6-1.2c-1.1-0.8-1.6-1.9-1.6-3.2l0.4-1.4c7.4-28.4,12.8-56.1,16.4-83.1
		c0.1-0.7,0.3-2.9,0.5-6.6c0.5-8,1.5-13.1,3-15.3h5.5c1.5,0,2.8,0.3,3.9,1c1.1,0.7,1.7,1.7,1.7,3.1c0,8.3,1.1,20.7,3.3,37.1
		C886.5,487.6,887.6,499.4,887.6,506.6z M879.1,509.8c-0.3-1.6-0.5-4.4-0.5-8.4c0-4-0.2-8.9-0.7-14.8c-0.5-5.9-1.1-12.8-2-20.6
		c-0.9-7.8-1.4-13.5-1.8-17c-5,27.5-8.2,46.9-9.6,58.1C866.4,508.4,871.3,509.3,879.1,509.8z"/>
</g>
</svg>
