<?xml version="1.0" encoding="utf-8"?>
<!-- Generator: Adobe Illustrator 18.0.0, SVG Export Plug-In . SVG Version: 6.00 Build 0)  -->
<!DOCTYPE svg PUBLIC "-//W3C//DTD SVG 1.1//EN" "http://www.w3.org/Graphics/SVG/1.1/DTD/svg11.dtd">
<svg version="1.1" id="Layer_1" xmlns="http://www.w3.org/2000/svg" xmlns:xlink="http://www.w3.org/1999/xlink" x="0px" y="0px"
	 viewBox="0 0 1400 900" enable-background="new 0 0 1400 900" xml:space="preserve">
<g>
	<path fill="none" stroke="#000000" stroke-width="9.1377" stroke-miterlimit="10" d="M563.6,547.1c0-49.3,0-98.7,0-148
		c0-47.3,14.9-90.4,37.7-131.3c14.4-25.9,32-50.2,36.6-80.5c1.1-7.2,2-14.4,2.9-21.7c0.5-4.1-3.1-4-5.4-5.1
		c-5-2.3-10.1-5.1-8.2-11.5c1.8-5.8,6.5-8.5,13-8.5c36.4,0.2,72.8,0.1,109.2,0.1c5.2,0,10.5,0,15.7,0c6.3,0,11.3,2.2,12.3,8.9
		c0.9,6.7-3.6,10.7-9.5,11.6c-5.5,0.8-6,2.2-5.8,7.9c1.1,37.5,20.8,67.4,38.5,98.3c23.6,41.2,38.2,85.1,38.2,133.2
		c-0.1,100.8-0.4,201.5,0.2,302.3c0.2,30-24.8,71.2-66.5,80.2c-11.6,2.5-23.4,4.1-35.2,4c-31.4-0.2-62.8,1.3-94.3-1.6
		c-45-4.2-79.5-42.3-79.3-82.8C563.8,650.6,563.6,598.9,563.6,547.1z"/>
	<path fill="none" stroke="#000000" stroke-width="9.1377" stroke-miterlimit="10" d="M703.7,130.2c-20.6,0-41.3-0.1-61.9,0.1
		c-7.6,0.1-14.2-1.8-14.5-8.3c-0.4-7,6.9-8.9,14-8.9c41.3-0.1,82.6-0.1,123.8-0.1c7.4,0,12.3,3.1,12.5,9.2c0.3,7.2-6,8.1-13,8
		C744.2,130.1,723.9,130.2,703.7,130.2z"/>
</g>
</svg>
