<?xml version="1.0" encoding="utf-8"?>
<!-- Generator: Adobe Illustrator 18.0.0, SVG Export Plug-In . SVG Version: 6.00 Build 0)  -->
<!DOCTYPE svg PUBLIC "-//W3C//DTD SVG 1.1//EN" "http://www.w3.org/Graphics/SVG/1.1/DTD/svg11.dtd">
<svg version="1.1" id="Layer_1" xmlns="http://www.w3.org/2000/svg" xmlns:xlink="http://www.w3.org/1999/xlink" x="0px" y="0px"
	 viewBox="0 0 1400 900" enable-background="new 0 0 1400 900" xml:space="preserve">
<g>
	<path fill="none" stroke="#000000" stroke-width="9.1377" stroke-miterlimit="10" d="M563.6,547.1c0-49.3,0-98.7,0-148
		c0-47.3,14.9-90.4,37.7-131.3c14.4-25.9,32-50.2,36.6-80.5c1.1-7.2,2-14.4,2.9-21.7c0.5-4.1-3.1-4-5.4-5.1
		c-5-2.3-10.1-5.1-8.2-11.5c1.8-5.8,6.5-8.5,13-8.5c36.4,0.2,72.8,0.1,109.2,0.1c5.2,0,10.5,0,15.7,0c6.3,0,11.3,2.2,12.3,8.9
		c0.9,6.7-3.6,10.7-9.5,11.6c-5.5,0.8-6,2.2-5.8,7.9c1.1,37.5,20.8,67.4,38.5,98.3c23.6,41.2,38.2,85.1,38.2,133.2
		c-0.1,100.8-0.4,201.5,0.2,302.3c0.2,30-24.8,71.2-66.5,80.2c-11.6,2.5-23.4,4.1-35.2,4c-31.4-0.2-62.8,1.3-94.3-1.6
		c-45-4.2-79.5-42.3-79.3-82.8C563.8,650.6,563.6,598.9,563.6,547.1z"/>
	<path fill="none" stroke="#000000" stroke-width="9.1377" stroke-miterlimit="10" d="M703.7,130.2c-20.6,0-41.3-0.1-61.9,0.1
		c-7.6,0.1-14.2-1.8-14.5-8.3c-0.4-7,6.9-8.9,14-8.9c41.3-0.1,82.6-0.1,123.8-0.1c7.4,0,12.3,3.1,12.5,9.2c0.3,7.2-6,8.1-13,8
		C744.2,130.1,723.9,130.2,703.7,130.2z"/>
</g>
<g enable-background="new    ">
	<path d="M393.5,495.1l0.7,28.9v4.1l-0.1,3.8h1.8l3.9-0.1c3.7,0,5.6,1.1,5.6,3.4c0,1.2-0.5,2.1-1.4,3c-0.9,0.8-2,1.2-3.2,1.2h-6
		c-4.1,0-6.8-0.1-7.9-0.3c-0.7,0.1-1.3,0.1-1.7,0.1c-3.2,0-4.9-1-4.9-3.1c0-0.8,0.3-1.6,0.8-2.4c0.5-0.8,1.1-1.2,1.6-1.2h3.9
		l0.3-1.8l-0.9-28.9l0.7-30.3c0-5.2-0.2-10.1-0.7-14.6h-2.6l-3.1,0.1c-1.3,0-2.4-0.3-3.1-0.8c-0.8-0.5-1.1-1.5-1.1-2.9
		c0-2.1,2.2-3.1,6.7-3.1h16.2c3.7,0,5.5,1,5.5,2.9c0,0.8-0.4,1.6-1.2,2.3c-0.8,0.7-1.7,1.1-2.7,1.1h-7c0.4,3.7,0.5,7.9,0.5,12.6
		L393.5,495.1z"/>
	<path d="M412.4,534.7l5.7,1c1.7,0,3.2-0.8,4.5-2.3c1.3-1.5,2.2-3.4,2.9-5.7c1.2-4.3,1.8-8.2,1.8-11.5c0-3.3-0.6-6.7-1.7-9.9
		c-1.1-3.3-2.5-6.3-4.1-9.1c-1.6-2.8-3.2-5.7-4.8-8.6c-3.8-6.9-5.7-13.7-5.7-20.3c0-4.1,0.7-7.7,2.1-10.8c2.6-5.8,6-8.8,10.2-8.8
		c1.6,0,3.1,0.5,4.6,1.5c1.4,1,2.2,2.1,2.2,3.3c0,2.1-1.1,3.1-3.3,3.1c-1,0-1.9-0.3-2.9-0.8c-2.9,0.1-4.8,3.3-5.8,9.6
		c-0.2,1.4-0.3,3-0.3,4.8c0,1.8,0.4,4.1,1.2,6.8c0.8,2.7,1.8,5.1,3,7.2c1.2,2.1,2.5,4.4,3.9,7c1.4,2.5,2.7,5,4,7.4
		c2.8,5.5,4.2,11.9,4.2,19c0,5.5-1.2,10.7-3.8,15.8c-1.2,2.5-3,4.5-5.3,6.1c-2.3,1.6-4.9,2.4-7.8,2.4v0.3c-3.7-0.5-5.8-2.3-6.1-5.3
		L412.4,534.7z"/>
	<path d="M471.7,495.1l0.7,28.9v4.1l-0.1,3.8h1.8l3.9-0.1c3.7,0,5.6,1.1,5.6,3.4c0,1.2-0.5,2.1-1.4,3c-0.9,0.8-2,1.2-3.2,1.2h-6
		c-4.1,0-6.8-0.1-7.9-0.3c-0.7,0.1-1.3,0.1-1.7,0.1c-3.2,0-4.9-1-4.9-3.1c0-0.8,0.3-1.6,0.8-2.4c0.5-0.8,1.1-1.2,1.6-1.2h3.9
		l0.3-1.8l-0.9-28.9l0.7-30.3c0-5.2-0.2-10.1-0.7-14.6h-2.6l-3.1,0.1c-1.3,0-2.4-0.3-3.1-0.8c-0.8-0.5-1.1-1.5-1.1-2.9
		c0-2.1,2.2-3.1,6.7-3.1h16.2c3.7,0,5.5,1,5.5,2.9c0,0.8-0.4,1.6-1.2,2.3c-0.8,0.7-1.7,1.1-2.7,1.1h-7c0.4,3.7,0.5,7.9,0.5,12.6
		L471.7,495.1z"/>
	<path d="M503,538.2l-0.3-10.4c0,0,0.1-1.6,0.2-4.7c-0.4-1.2-1.1-11.4-2.2-30.7c-1.1-19.3-1.7-31.1-1.8-35.4c-0.2,0-0.4,0-0.5,0
		c-7.4-0.1-11-1.5-11-4.1c0-0.8,0.5-1.5,1.5-2.1c1-0.6,1.9-0.8,2.9-0.8l18.5,1.3l2.2-0.1c2.8,0,4.3,1.1,4.3,3.3c0,1.1-0.5,2-1.4,2.7
		c-0.9,0.7-2,1-3.1,1l-6.2-0.9l-0.3,1.4c0,8.6,0.8,21.5,2.3,38.6c1.5,17.2,2.3,30,2.3,38.7c0,1.1-0.5,2-1.5,2.8
		c-1,0.8-2,1.2-3.2,1.2L503,538.2z"/>
</g>
<g enable-background="new    ">
	<path d="M881.2,536.2l0.6-85v-17.8c0-1.1,0.2-1.9,0.7-2.4c0.5-0.5,1.7-0.7,3.7-0.7c2,0,4,0.5,6.1,1.5c2.1,1,3.8,2.3,5.2,3.9
		c1.4,1.7,2.5,3.6,3.5,5.7c1.9,4,2.8,8.4,2.8,13.1c0,4.7-1.2,10.1-3.5,16.2c-0.3,0.7-0.8,2.1-1.7,4.2s-1.3,3.4-1.5,3.7
		c0,7.2,1.9,16.5,5.4,27.9c1.2,3.9,3,9.2,5.2,15.9c2.3,6.7,3.7,11,4.2,12.8v0.4c0,3.3-0.4,5.2-1.1,5.7c-0.8,0.5-1.6,0.8-2.4,0.8
		c-1.8,0-3.5-1.3-5.2-3.9v-0.5c-0.5-8.8-3.5-22-9.1-39.8c-2.5-8.1-4.3-14.1-5.3-18v57.1c0,1.5-0.3,2.6-0.8,3.4
		c-0.5,0.8-1.5,1.2-2.8,1.2c-1.4,0-2.4-0.4-3.1-1.2c-0.7-0.8-1-1.7-1-2.9V536.2z M889.2,436.9l-0.8,29.6c0,3,0,5.2,0.1,6.6
		c1.7-1.6,3.3-3.4,4.9-5.6l2.3-12.5c0.1-0.7,0.2-1.4,0.2-2.3c0-2.3-0.5-5.1-1.4-8.4C893.2,439.8,891.4,437.3,889.2,436.9z"/>
	<path d="M920.6,467.3l-0.8-12.2c0-6.8,2-10.3,6.1-10.3c2.6,0,6.1,0.6,10.6,1.8c4.5,1.2,6.7,2.7,6.7,4.6c0,2-1.4,3.5-4.2,4.5
		c-4.5-1.5-8.1-2.4-11-2.8c0.1,2.1,0.2,4.2,0.2,6.2l-0.6,20.8c0,0.1,0.1,0.8,0.4,2.3l5.2-0.2c4.7,0,7,1.3,7,4c0,1-0.4,1.9-1.3,2.7
		c-0.8,0.8-1.9,1.2-3.2,1.2s-2.7-0.1-4.2-0.3h-3.7c0.3,3.7,0.4,7.3,0.4,11l-0.6,26.2c0,5.4,0.1,8.1,0.3,8.1l10.7-0.4
		c3.7,0,5.5,1.2,5.5,3.5c0,1.5-0.6,2.5-1.9,3.2c-1.3,0.7-2.7,1-4.3,1h-12.2c-1.3,0-2.4-0.4-3.5-1.3c-1-0.9-1.6-1.9-1.6-3.1V534
		l-0.9-24.5L920.6,467.3z"/>
	<path d="M983.3,511l1.6,8.9c0,1.2,0.5,4.1,1.4,8.6c0.9,4.6,1.4,7.6,1.4,9v0.1c0,2.1-0.8,3.5-2.4,4.1c-2,0-3.6-0.3-4.7-1
		s-1.7-1.9-1.7-3.8c0-4.1-0.7-10.1-2.1-17.9l-14.3-2.1c-0.9,3.2-1.6,6.7-2.1,10.5c-0.5,3.8-0.9,6.6-1.3,8.3
		c-0.8,3.6-2.4,5.4-4.7,5.4c-1.1,0-2.2-0.4-3.1-1.1c-1-0.7-1.5-1.7-1.5-2.8l0.4-1.3c6.5-25.1,11.3-49.6,14.5-73.4
		c0.1-0.7,0.2-2.6,0.4-5.8c0.5-7.1,1.4-11.6,2.7-13.5h4.9c1.3,0,2.5,0.3,3.5,0.9c1,0.6,1.5,1.5,1.5,2.8c0,7.4,1,18.3,2.9,32.8
		C982.3,494.2,983.3,504.6,983.3,511z M975.7,513.9c-0.3-1.4-0.4-3.9-0.4-7.4c0-3.5-0.2-7.9-0.6-13.1c-0.4-5.2-1-11.3-1.7-18.2
		c-0.8-6.9-1.3-11.9-1.6-15c-4.4,24.3-7.2,41.4-8.5,51.4C964.6,512.6,968.8,513.4,975.7,513.9z"/>
	<path d="M1004,459.2l0.4,34.8c-0.6,1.3-0.8,3-0.8,5v2.9l-0.6,23.1c0,6.6,1.6,10,4.9,10l6-0.2c5.2,0,7.8,1.4,7.8,4.2
		c0,1-0.4,1.9-1.3,2.6c-0.9,0.7-1.9,1.1-3,1.2c-3.5-1.1-7.9-1.7-12.9-1.7c-1.6,0.9-3.1,1.3-4.5,1.3c-1.4,0-2.6-0.5-3.4-1.5
		s-1.2-2.1-1.2-3.3c0-7.2,0.3-18,0.9-32.4c0.6-14.4,0.9-25.2,0.9-32.4v-1.1c-0.6-6-0.8-10.6-0.8-13.6c0-9.1,1.7-13.7,5-13.7
		c1,0,1.9,0.4,2.6,1.1c0.7,0.7,1.1,1.6,1.1,2.5L1004,459.2z"/>
	<path d="M1037.1,459.2l0.4,34.8c-0.6,1.3-0.8,3-0.8,5v2.9l-0.6,23.1c0,6.6,1.6,10,4.9,10l6-0.2c5.2,0,7.8,1.4,7.8,4.2
		c0,1-0.4,1.9-1.3,2.6c-0.9,0.7-1.9,1.1-3,1.2c-3.5-1.1-7.9-1.7-12.9-1.7c-1.6,0.9-3.1,1.3-4.5,1.3c-1.4,0-2.6-0.5-3.4-1.5
		c-0.8-1-1.2-2.1-1.2-3.3c0-7.2,0.3-18,0.9-32.4c0.6-14.4,0.9-25.2,0.9-32.4v-1.1c-0.6-6-0.8-10.6-0.8-13.6c0-9.1,1.7-13.7,5-13.7
		c1,0,1.8,0.4,2.6,1.1c0.7,0.7,1.1,1.6,1.1,2.5L1037.1,459.2z"/>
	<path d="M1075.6,532.7c0,6.5-1.6,9.7-4.7,9.7c-1.7,0-3.1-1.1-4-3.2c1.1-2.1,1.6-10.3,1.6-24.5c0-2.6-0.3-6.3-0.8-11
		c-0.5-4.8-0.8-8.2-0.9-10.2v-3.8c-0.2-0.4-1.7-4.2-4.5-11.5c-6.4-16.2-9.6-25.8-9.6-28.9v-0.8l3.3-2.4c3,0,6.5,7.5,10.6,22.4
		c1.8,6.5,2.7,9.8,2.7,9.8c0.4-1.1,1.1-4.7,2.3-10.8c2.9-15.7,5.9-23.5,9.1-23.5c0.9,0,1.7,0.3,2.4,0.8c0.7,0.6,1.1,1.3,1.1,2.2
		c0,4.8-1.4,11.8-4.1,21c-2.8,9.2-4.2,16.2-4.3,21V532.7z"/>
	<path d="M1095.4,455.3c-2.7,0-4.1-3.2-4.1-9.4c0-3.4,0.3-6,0.8-7.9c0.5-1.9,1.6-3.5,3.1-4.9c1.6-1.4,3.5-2.1,5.8-2.1
		c2.3,0,4.3,0.4,5.8,1.3c1.6,0.9,2.8,1.9,3.6,3.1c0.8,1.2,1.5,2.8,2,4.8c0.8,2.9,1.1,6.7,1.1,11.4s-0.5,9.5-1.4,14.5
		c-0.8,5-1.8,9.3-3,13c-2.9,9.9-4.4,21.7-4.5,35.4c0,4.7,0,7.9,0.1,9.7c-1.7,0-2.7,0.1-2.9,0.2c-0.3,0.1-0.5,0.2-0.7,0.2
		c-1.8,0-3-1.1-3.5-3.3c0-10.7,1.4-22.8,4.1-36.4c2.7-13.6,4.1-24.9,4.1-33.7s-1.4-13.2-4.3-13.2c-1.8,0-2.8,2.1-2.8,6.4
		c0,0.8,0.3,3.4,1,7.9c0,0.4-0.6,1-1.8,1.8C1096.7,454.9,1095.9,455.3,1095.4,455.3z M1107,535.5c0,3.7-2,5.5-5.9,5.5
		c-1.4,0-2.6-0.6-3.6-1.7c-1-1.1-1.5-2.3-1.5-3.7c0-1.4,0.6-2.7,1.8-3.9c1.2-1.2,2.4-1.8,3.8-1.8s2.6,0.6,3.7,1.9
		C1106.5,533.1,1107,534.3,1107,535.5z"/>
</g>
</svg>
