<?xml version="1.0" encoding="utf-8"?>
<!-- Generator: Adobe Illustrator 18.0.0, SVG Export Plug-In . SVG Version: 6.00 Build 0)  -->
<!DOCTYPE svg PUBLIC "-//W3C//DTD SVG 1.1//EN" "http://www.w3.org/Graphics/SVG/1.1/DTD/svg11.dtd">
<svg version="1.1" id="Layer_1" xmlns="http://www.w3.org/2000/svg" xmlns:xlink="http://www.w3.org/1999/xlink" x="0px" y="0px"
	 viewBox="0 0 1400 900" enable-background="new 0 0 1400 900" xml:space="preserve">
<g>
	<path fill="none" stroke="#000000" stroke-width="9.1377" stroke-miterlimit="10" d="M563.6,547.1c0-49.3,0-98.7,0-148
		c0-47.3,14.9-90.4,37.7-131.3c14.4-25.9,32-50.2,36.6-80.5c1.1-7.2,2-14.4,2.9-21.7c0.5-4.1-3.1-4-5.4-5.1
		c-5-2.3-10.1-5.1-8.2-11.5c1.8-5.8,6.5-8.5,13-8.5c36.4,0.2,72.8,0.1,109.2,0.1c5.2,0,10.5,0,15.7,0c6.3,0,11.3,2.2,12.3,8.9
		c0.9,6.7-3.6,10.7-9.5,11.6c-5.5,0.8-6,2.2-5.8,7.9c1.1,37.5,20.8,67.4,38.5,98.3c23.6,41.2,38.2,85.1,38.2,133.2
		c-0.1,100.8-0.4,201.5,0.2,302.3c0.2,30-24.8,71.2-66.5,80.2c-11.6,2.5-23.4,4.1-35.2,4c-31.4-0.2-62.8,1.3-94.3-1.6
		c-45-4.2-79.5-42.3-79.3-82.8C563.8,650.6,563.6,598.9,563.6,547.1z"/>
	<path fill="none" stroke="#000000" stroke-width="9.1377" stroke-miterlimit="10" d="M703.7,130.2c-20.6,0-41.3-0.1-61.9,0.1
		c-7.6,0.1-14.2-1.8-14.5-8.3c-0.4-7,6.9-8.9,14-8.9c41.3-0.1,82.6-0.1,123.8-0.1c7.4,0,12.3,3.1,12.5,9.2c0.3,7.2-6,8.1-13,8
		C744.2,130.1,723.9,130.2,703.7,130.2z"/>
</g>
<g>
	<path d="M802,365.5c3.6,0.9,7.2,1.9,10.1,4.3c3.7,3,6.2,6.7,7.1,11.3c0.2,1.3,0.8,1.7,2,1.9c5.3,0.8,9.7,3.4,13,7.6
		c0.5,0.7,0.9,1.7,0.9,2.6c0.1,5.6,0.1,11.2,0,16.8c0,0.8-0.4,1.8-0.9,2.5c-6.9,9-21.2,10.5-30.4,3.2c-0.4-0.3-0.7-0.6-1.2-1
		c-3.1,2.8-6.1,5.6-9.2,8.5c-1.8,1.7-3.6,3.4-5.5,5c-1,0.8-1.1,1.5-0.4,2.6c5,9.1,7.5,18.9,6.9,29.3c-0.8,13.4-6.1,25-14.9,34.9
		c-3,3.4-6.3,6.3-9.7,9.7c10.8,10,21.8,20.1,32.8,30.3c3.8-3.3,8.1-5.3,13-5.6c7.4-0.5,13.8,1.8,18.6,7.7c0.6,0.7,0.9,1.7,0.9,2.6
		c0.1,5.6,0.1,11.2,0,16.8c0,0.8-0.4,1.8-0.8,2.5c-3.2,4.2-7.5,6.5-12.7,7.4c-0.5,0.1-1,0.2-1.5,0.2c-0.1,0-0.2,0.1-0.5,0.2
		c-0.8,5.2-3.2,9.6-7.4,13c-10.7,8.6-27.4,4.5-32.3-8.2c-2.6-6.8-1.2-13.1,3.5-18.6c0.3-0.4,0.7-0.8,1.1-1.2
		c0.1-0.1,0.1-0.2,0.2-0.5c-10.9-10.1-21.9-20.2-33.3-30.7c-0.1,1.1-0.1,1.8-0.1,2.5c0,7.6,0,15.1,0,22.7c0,1.4-0.2,2.1-1.9,2.1
		c-29.2-0.1-58.5,0-87.7,0c-0.6,0-1.1-0.1-1.9-0.1c0-1.2,0-2.2,0-3.2c0-9.1-0.1-18.1,0-27.2c0-1.7-1-2.1-2.1-2.5
		c-1.1-0.5-2.1-1.3-3.5,0c-13,12.1-26.1,24.2-39.2,36.3c-0.1,0.1-0.2,0.3-0.4,0.5c6.7,7.2,8.3,15.2,2.9,23.6
		c-4.8,7.4-12.2,10.2-20.7,8.7c-9.5-1.6-15.3-7.4-16.7-17.2c-4.6-0.6-8.8-1.8-12.4-4.8c-3.4-2.9-5.6-6.5-6.4-10.9
		c0-0.2-0.2-0.5-0.3-0.7c0-1.4,0-2.9,0-4.3c0.1-0.2,0.3-0.5,0.3-0.7c1.8-10.6,12.3-16.8,22.4-15.9c4.9,0.4,9.2,2.3,12.9,5.6
		c12.9-11.9,25.7-23.8,38.4-35.5c-2.8-3.3-5.6-6.3-8-9.7c-11.5-16.1-14.5-33.4-7.4-52.2c0.4-1,0.3-1.6-0.6-2.3
		c-3.6-3.2-7.1-6.5-10.6-9.8c-3.9-3.6-7.8-7.2-11.8-10.9c-0.5,0.4-0.8,0.6-1.2,0.9c-8,6.6-20.6,6.2-28.3-0.7
		c-3.3-3-5.1-6.8-6.1-11.1c0-1.4,0-2.9,0-4.3c1-2.6,1.7-5.4,3.1-7.7c3.3-5.2,8.4-8,14.5-9c1-0.2,1.7-0.4,1.9-1.7
		c0.9-6.1,4.2-10.4,9.6-13.1c2.4-1.2,5.1-1.8,7.7-2.6c1.8,0,3.7,0,5.5,0c0.9,0.3,1.9,0.5,2.8,0.8c13.7,3.5,19,19.6,10,30.2
		c-0.5,0.6-1,1.1-1.6,1.8c6.5,6,12.9,11.9,19.3,17.8c32.8-33.1,99.7-36.4,137.2-5.2c4.6-4.2,9.1-8.4,13.7-12.7
		c-0.4-0.5-0.7-0.8-0.9-1.1c-7.9-8.5-6.7-21.3,2.9-27.7c2.8-1.9,6.4-2.7,9.6-4C798.3,365.5,800.1,365.5,802,365.5z M742.1,539.3
		c0-0.8,0-1.5,0-2.2c0-8,0.1-15.9-0.1-23.9c-0.1-2.3,0.8-3.2,2.8-4c12.9-5.4,24-13.2,32-24.9c8.8-12.9,11.2-26.8,6.3-41.7
		c-3.5-10.7-10.4-19.2-19.2-26.1c-11.1-8.7-23.7-14-37.5-16.7c-15.7-3.1-31.3-2.8-46.8,1.1c-15.9,4-30.2,11.2-41.3,23.7
		c-9.3,10.4-14.3,22.5-13,36.7c1.1,12.6,7,22.8,15.8,31.5c7.4,7.4,16.2,12.8,25.9,16.8c1.6,0.6,2.1,1.4,2.1,3.1
		c-0.1,8.2,0,16.3,0,24.5c0,0.7,0.1,1.5,0.1,2.1c3.8,0,7.4,0,11.1,0c0-2.5,0-4.8,0-7.1c1.4,0,2.5,0,3.8,0c0,2.5,0,4.8,0,7.2
		c3.6,0,7.1,0,10.8,0c0-2.5,0-4.8,0-7.2c1.4,0,2.6,0,3.9,0c0,2.5,0,4.8,0,7.1c3.7,0,7.2,0,10.8,0c0-2.5,0-4.8,0-7.2
		c1.3,0,2.4,0,3.7,0c0,2.4,0,4.8,0,7.2c3.7,0,7.1,0,10.8,0c0-2.5,0-4.8,0-7.2c1.4,0,2.6,0,3.9,0c0,2.5,0,4.8,0,7.2
		C732.8,539.3,737.3,539.3,742.1,539.3z M642,505.2c-15.7,14.5-31.3,28.9-47.1,43.5c-0.8-1.5-1.6-2.9-2.3-4.2
		c-3.4-6.4-10.6-8.6-17-5.1c-5.9,3.3-7,10.9-2.3,15.6c3.2,3.2,7.1,3.7,11.2,2.9c2.1-0.4,4.2-0.8,6.5-1.3c-0.4,2.1-0.8,3.9-1.2,5.8
		c-1.7,8,3.4,13.9,11.5,13.4c5-0.3,9.3-4.1,10.2-8.8c0.8-4.6-1.8-9.2-6.5-11.3c-1.6-0.7-3.3-1.6-5.2-2.5
		c16-14.8,31.8-29.4,47.7-44.1C645.6,507.7,643.9,506.5,642,505.2z M804.6,548.7c-7.8-7.2-15.5-14.3-23.1-21.3
		c-6-5.5-12-11.1-18-16.6c-0.4-0.4-1.4-0.8-1.8-0.6c-1.8,0.9-3.5,2-5.4,3.1c14.4,13.3,28.7,26.5,43.2,39.9c-1.9,0.9-3.4,1.7-5,2.4
		c-4.7,2.1-7,5.8-6.7,10.6c0.3,4.2,3.5,8,8.1,9.2c8.9,2.4,16.4-5.7,14.2-13.3c-0.5-1.7-0.8-3.4-1.3-5.3c1,0.1,1.7,0.2,2.4,0.3
		c2.8,0.3,5.7,1,8.5,0.9c7.3-0.4,11.6-8.5,8.1-14.7c-4.1-7.2-15.8-7.5-20.1-0.4C806.7,544.8,805.7,546.6,804.6,548.7z M628.2,422.8
		c-9.4-8.7-18.8-17.4-28.4-26.2c2-0.9,3.9-1.7,5.7-2.6c3.6-1.8,5.8-4.6,6.1-8.7c0.3-4.4-1.7-7.8-5.5-9.8c-4.3-2.3-8.6-1.9-12.6,0.8
		c-3.7,2.5-4.5,6.2-3.7,10.4c0.4,1.9,0.7,3.9,1.1,6c-1.2-0.2-2.1-0.5-3-0.6c-2.7-0.3-5.5-0.9-8.1-0.5c-6.6,0.9-10.7,6.8-9.2,12.6
		c1.3,4.7,4.6,7.1,9.3,7.8c4.8,0.7,8.9-0.8,11.7-4.9c1.2-1.8,2.1-3.7,3.2-5.7c9.9,9.1,19.6,18.1,29.4,27.2
		C625.7,426.4,626.9,424.7,628.2,422.8z M781.9,422c3.9-3.6,7.6-7.1,11.4-10.5c3.7-3.4,7.4-6.8,11.3-10.4c0.9,1.7,1.7,3.2,2.5,4.6
		c2.8,5,7.7,7.2,13.2,5.9c4.2-1,7.4-3.4,8.4-7.8c1-4-0.4-7.3-3.5-10c-3-2.6-6.6-3.3-10.5-2.5c-1.9,0.4-3.8,0.6-5.9,0.9
		c0.4-1.8,0.8-3.3,1-4.9c0.2-1.3,0.5-2.6,0.4-3.9c-0.4-4.3-4-8.3-8.3-9.3c-4.5-1.1-10,0.8-12.4,4.4c-3.6,5.3-1.9,12,3.8,15
		c1.9,1,4,1.9,6.1,2.9c-7.5,6.9-14.7,13.6-22.1,20.4C779,418.7,780.4,420.3,781.9,422z"/>
	<path d="M673.1,456.9c10.5,0.4,18.8,7.1,20.2,16.8c0.9,6.9-1.8,12.4-7.2,16.5c-8.1,6.2-20.1,5.6-27.2-1.3
		c-9.7-9.4-6.9-24.3,5.8-29.9C667.3,458,670.2,457.7,673.1,456.9z"/>
	<path d="M737.7,496c-6.6-0.1-12.3-2.5-16.3-7.8c-6.6-8.8-4.3-20.2,5.3-26.2c7.9-5,19.2-3.8,25.9,2.8c9.1,9,6.5,23.6-5.4,29.2
		c-2.9,1.4-6.2,1.8-9.3,2.7C737.8,496.4,737.8,496.2,737.7,496z"/>
	<path d="M704.7,495.2c5.3,8.4,10.3,16.5,15.6,24.9c-10.5,0-20.6,0-31.1,0C694.4,511.7,699.4,503.6,704.7,495.2z"/>
</g>
</svg>
