<?xml version="1.0" encoding="utf-8"?>
<!-- Generator: Adobe Illustrator 18.0.0, SVG Export Plug-In . SVG Version: 6.00 Build 0)  -->
<!DOCTYPE svg PUBLIC "-//W3C//DTD SVG 1.1//EN" "http://www.w3.org/Graphics/SVG/1.1/DTD/svg11.dtd">
<svg version="1.1" id="Layer_1" xmlns="http://www.w3.org/2000/svg" xmlns:xlink="http://www.w3.org/1999/xlink" x="0px" y="0px"
	 viewBox="11.9 -2.3 1381.8 897.6" enable-background="new 11.9 -2.3 1381.8 897.6" xml:space="preserve">
<polyline fill="none" stroke="#000000" stroke-width="7" stroke-miterlimit="10" points="16.1,37.9 16.1,891.8 689.7,891.8 
	689.7,38.5 12.1,38.5 615.7,1.4 615.7,15.3 669.8,38 "/>
<g>
	<path d="M616.5,15.3c0,0-2.1,0.1-6.1,0.5c-4,0.3-9.8,0.8-17.2,1.3c-7.4,0.5-16.4,1.2-26.8,1.8c-10.3,0.7-21.9,1.5-34.7,2.2
		c-12.7,0.8-26.5,1.6-41.1,2.4c-14.5,0.8-30,1.7-45.8,2.5c-15.8,0.8-32.4,1.7-49,2.4c-16.6,0.8-33.7,1.5-50.7,2.2
		c-17,0.7-33.9,1.3-50.7,2c-16.8,0.7-33.2,1.2-49.1,1.7c-16,0.5-31.3,0.9-46,1.3s-28.4,0.8-41.1,1.1c-12.7,0.3-24.4,0.5-34.7,0.7
		c-10.3,0.1-19.4,0.3-26.8,0.4c-7.4,0-13.3,0.1-17.3,0.1c-4,0-6.1,0-6.1,0s2.1-0.1,6.1-0.5c4-0.3,9.8-0.8,17.2-1.3
		s16.4-1.2,26.8-1.8c10.3-0.7,21.9-1.5,34.7-2.2c12.7-0.8,26.5-1.6,41.1-2.4c14.5-0.8,30-1.7,45.8-2.5c15.8-0.8,32.4-1.7,49-2.4
		c16.6-0.8,33.7-1.5,50.7-2.2c17-0.7,33.9-1.3,50.7-2c16.8-0.7,33.2-1.2,49.1-1.7c16-0.5,31.3-0.9,46-1.3s28.4-0.8,41.1-1.1
		c12.7-0.3,24.4-0.5,34.7-0.7s19.4-0.3,26.8-0.4c7.4,0,13.3-0.1,17.3-0.1C614.3,15.3,616.5,15.3,616.5,15.3z"/>
</g>
<g>
	<path d="M634.1,24.3c0,0-1.6,0.1-4.8,0.3c-3,0.3-7.5,0.5-13.2,0.9c-5.7,0.4-12.7,0.8-20.6,1.2c-7.9,0.4-16.9,0.9-26.7,1.3
		c-9.8,0.5-20.5,0.9-31.7,1.5c-11.2,0.4-23.1,0.9-35.3,1.3c-12.3,0.4-25,0.9-37.8,1.2c-12.8,0.4-25.9,0.7-39,1.1
		c-13.1,0.3-26.2,0.5-39,0.8c-12.8,0.3-25.5,0.4-37.8,0.5c-12.3,0.1-24.2,0.3-35.4,0.3c-11.2,0.1-21.9,0-31.7,0s-18.8-0.1-26.8-0.1
		c-7.9,0-14.9-0.1-20.6-0.3c-5.7-0.1-10.2-0.3-13.3-0.3c-3-0.1-4.8-0.1-4.8-0.1s1.6-0.1,4.8-0.3c3-0.3,7.5-0.5,13.2-0.9
		c5.7-0.4,12.7-0.8,20.6-1.2c7.9-0.4,16.9-0.9,26.7-1.3c9.8-0.5,20.5-0.9,31.7-1.5c11.2-0.4,23.1-0.9,35.3-1.3
		c12.3-0.4,25-0.9,37.8-1.2c12.8-0.4,25.9-0.7,39-1.1c13.1-0.3,26.2-0.5,39-0.8c12.8-0.3,25.5-0.3,37.8-0.5
		c12.3-0.1,24.2-0.1,35.4-0.3c11.2-0.1,21.9,0,31.7,0s18.8,0.1,26.8,0.1c7.9,0,14.9,0.1,20.6,0.3c5.7,0.1,10.2,0.3,13.3,0.3
		C632.4,24.3,634.1,24.3,634.1,24.3z"/>
</g>
<g>
	<path d="M640.6,30.8c0,0-1.6,0.1-4.8,0.3c-3,0.3-7.5,0.5-13.2,0.9c-5.7,0.4-12.7,0.8-20.6,1.2c-7.9,0.4-16.9,0.9-26.7,1.3
		c-9.8,0.5-20.5,0.9-31.7,1.5c-11.2,0.4-23.1,0.9-35.3,1.3c-12.3,0.4-25,0.9-37.8,1.2c-12.8,0.4-25.9,0.7-39,1.1
		c-13.1,0.3-26.2,0.5-39,0.8c-12.8,0.3-25.5,0.4-37.8,0.5c-12.3,0.1-24.2,0.3-35.4,0.3c-11.2,0.1-21.9,0-31.7,0S269,40.9,261,40.9
		c-7.9,0-14.9-0.1-20.6-0.3c-5.7-0.1-10.2-0.3-13.3-0.3c-3-0.1-4.8-0.1-4.8-0.1s1.6-0.1,4.8-0.3c3-0.3,7.5-0.5,13.2-0.9
		c5.7-0.4,12.7-0.8,20.6-1.2c7.9-0.4,16.9-0.9,26.7-1.3c9.8-0.5,20.5-0.9,31.7-1.5c11.2-0.4,23.1-0.9,35.3-1.3
		c12.3-0.4,25-0.9,37.8-1.2c12.8-0.4,25.9-0.7,39-1.1c13.1-0.3,26.2-0.5,39-0.8c12.8-0.3,25.5-0.3,37.8-0.5
		c12.3-0.1,24.2-0.1,35.4-0.3c11.2-0.1,21.9,0,31.7,0s18.8,0.1,26.8,0.1c7.9,0,14.9,0.1,20.6,0.3c5.7,0.1,10.2,0.3,13.3,0.3
		C639,30.8,640.6,30.8,640.6,30.8z"/>
</g>
<g>
	<path d="M924.3,182.3c0-3.4,1.5-5.2,4.2-5.2c1.5,0,3.3,0.5,5.7,1.5c2.4,0.9,4.4,1.5,6.1,1.5c1.7,0,3.6-1.1,5.5-3.3
		c2-2.1,3.6-4.9,4.6-8.1c2.2-6.6,3.4-12.5,3.4-17.8c0-5.3-0.9-11-2.8-17c-1.8-6.1-4.1-11.8-6.9-17.2c-2.6-5.3-5.4-10.7-8.1-16
		c-6.5-12.7-9.6-24.3-9.6-34.9c0-9.9,3-17.7,9.4-23.4c3.3-3,7.3-4.5,11.9-4.5c2.2,0,4.5,0.7,6.7,1.8c2.1,1.3,3.7,2.9,4.6,5l-3.3,4.1
		c-3.2,0-5.7-0.7-7.4-1.8c-2.4,0.3-4.4,1.3-6.2,3.3c-3.2,3.7-4.8,8.2-4.8,13.6s0.7,10.6,2.1,15.7c1.3,5.2,3,9.6,5.2,13.7
		c2.1,4.1,4.2,8.5,6.6,13.2c2.4,4.8,4.6,9.2,6.7,13.6c4.8,10,7.1,21,7.1,32.6c0,8.2-2,16.1-6.2,23.6c-2,3.6-4.8,6.6-8.2,8.8
		c-3.4,2.4-7.4,3.4-11.6,3.4c-4.6,0-8.2-0.7-10.8-2.1C925.6,185.3,924.3,183.8,924.3,182.3z"/>
	<path d="M987.2,77.5l0.5,45.8c-0.8,1.7-1.1,4-1.1,6.5v3.8l-0.8,30.4c0,8.7,2.1,13.2,6.5,13.2l7.9-0.3c6.9,0,10.3,1.8,10.3,5.5
		c0,1.3-0.5,2.5-1.7,3.4c-1.2,0.9-2.5,1.5-4,1.6c-4.6-1.5-10.3-2.2-17-2.2c-2.1,1.2-4,1.7-5.9,1.7c-1.8,0-3.4-0.7-4.5-2
		c-1.1-1.3-1.6-2.8-1.6-4.2c0-9.5,0.4-23.6,1.2-42.7c0.8-19,1.2-33.2,1.2-42.7V94c-0.8-7.9-1.1-13.9-1.1-17.8
		c0-12,2.2-18.1,6.6-18.1c1.3,0,2.4,0.5,3.4,1.5c0.9,0.9,1.5,2.1,1.5,3.3L987.2,77.5z"/>
	<path d="M1039.7,121l0.9,40.5v5.7l-0.1,5.3h2.5l5.5-0.1c5.3,0,7.8,1.6,7.8,4.8c0,1.6-0.7,3-1.8,4.1c-1.3,1.2-2.8,1.7-4.5,1.7h-8.3
		c-5.8,0-9.5-0.1-11.1-0.4c-1.1,0.1-1.7,0.1-2.4,0.1c-4.5,0-6.9-1.5-6.9-4.2c0-1.2,0.4-2.2,1.1-3.3c0.8-1.1,1.5-1.6,2.2-1.7h5.4
		l0.4-2.5l-1.3-40.5l1.1-42.5c0-7.3-0.3-14.1-0.9-20.5h-3.7l-4.4,0.1c-1.8,0-3.3-0.4-4.4-1.1c-1.1-0.7-1.6-2.1-1.6-4.1
		c0-2.9,3.2-4.4,9.4-4.4h22.7c5.2,0,7.8,1.3,7.8,4c0,1.2-0.5,2.2-1.7,3.3c-1.1,1.1-2.4,1.5-3.8,1.5h-9.8c0.5,5.3,0.8,11.1,0.8,17.7
		L1039.7,121z"/>
	<path d="M1136.4,182.5l0.1-24.4c0-5.7-0.5-14-1.5-24.8c-0.9-11-1.5-18.4-1.5-22.1c0-3.8,0.1-8.3,0.4-13.6s0.4-9.2,0.4-11.8
		c-0.5,1.7-2.6,10.4-6.5,26.4c-9.6,41.1-16.6,61.7-20.7,61.7c-2.5,0-4.5-0.8-5.8-2.2c-1.5-1.5-2.1-3.4-2.1-5.9
		c0-6.1-2.4-18.5-7.1-37.2c-4.8-18.8-8.7-33.2-12-43.2c-2.4,44.9-3.7,75.2-3.7,91l0.3,5.7c0,2.1-0.4,3.6-1.3,4.8
		c-0.9,1.1-2.2,1.6-4.1,1.6c-1.8,0-3.4-0.4-4.6-1.3c-1.2-0.9-1.7-2-1.7-3.2c0-12.9,0.9-32.5,2.9-58.4c2-25.9,2.9-45.3,2.9-58.4
		c-0.8-1.2-1.1-2.5-1.1-4s0.8-2.5,2.4-3.3s3.2-1.1,5-1.1c2.8,0,8.2,12.8,16.2,38.3c8.1,25.6,13.1,43.3,14.9,53.1
		c0.5-1.8,1.7-6.6,3.4-14.1s3.7-15.5,5.7-23.5c2-8.2,4.2-16.5,6.5-24.8c5.3-19.2,9.9-28.7,13.6-28.7c1.7,0,3.3,0.5,4.8,1.5
		c1.5,0.9,2.2,2.2,2.2,3.8c0,9.2,0.4,23,1.2,41.2c0.8,18.2,1.2,31.6,1.2,39.8l-0.5,20.1v0.1c0,1.5,0.4,5.9,1.1,13.6l0.4,3.7
		c0.5,1.3,0.8,2.8,0.8,4.4c0,1.6-0.5,3.2-1.7,4.9c-1.2,1.7-2.8,2.6-4.6,2.6C1138.4,194.4,1136.4,190.4,1136.4,182.5z"/>
	<path d="M1186.7,174.3c0,8.5-2.1,12.8-6.2,12.8c-2.2,0-4.1-1.5-5.3-4.2c1.5-2.8,2.1-13.6,2.1-32.4c0-3.4-0.4-8.3-1.1-14.5
		c-0.7-6.3-1.1-10.7-1.2-13.5v-4.9c-0.3-0.5-2.2-5.5-5.9-15.1c-8.5-21.3-12.7-34.1-12.7-38.2v-1.1l4.2-3.2c4,0,8.6,9.9,14,29.6
		c2.4,8.6,3.6,12.9,3.6,12.9c0.5-1.5,1.5-6.2,3-14.3c3.8-20.6,7.8-30.9,11.9-30.9c1.2,0,2.2,0.4,3.2,1.1c0.9,0.8,1.5,1.7,1.5,2.9
		c0,6.3-1.8,15.6-5.4,27.6c-3.7,12.2-5.5,21.3-5.7,27.6V174.3z"/>
</g>
<g>
	<path d="M836,637.5l2.1-324.8v-68.2c0-4.3,0.9-7.3,2.8-9.2c1.8-1.8,6.6-2.8,14.2-2.8s15.4,1.8,23.2,5.5c7.8,3.7,14.5,8.6,19.9,14.7
		c5.2,6.4,9.8,13.8,13.5,21.6c7.2,15.3,10.9,32,10.9,50c0,18-4.4,38.7-13.5,61.9c-1.1,2.6-3.2,7.8-6.4,15.9
		c-3.2,8.1-5.2,12.8-5.7,14.4c0.2,27.4,7.2,63,20.8,106.9c4.7,14.8,11.3,35,20,60.7c8.7,25.7,14.1,41.9,16.2,48.8v1.4
		c0,12.4-1.4,19.7-4.3,21.7c-2.9,2.1-6,3.1-9.2,3.1c-6.9,0-13.5-4.9-20-14.8v-1.8c-1.8-33.5-13.3-84.3-34.6-152.3
		c-9.8-31-16.5-54-20.3-69v218.2c0,5.7-0.9,9.9-2.9,13c-2,3.1-5.7,4.6-10.9,4.6c-5.2,0-9.2-1.5-11.8-4.4c-2.6-2.9-4-6.6-4-11v-4H836
		z M866.6,257.9l-2.9,113c0,11.3,0.2,19.9,0.6,25.4c6.3-6,12.5-13,18.7-21.4l8.7-47.9c0.6-2.4,0.8-5.4,0.8-8.7
		c0-8.9-1.8-19.6-5.4-32.1C881.9,269.1,875.2,259.6,866.6,257.9z"/>
	<path d="M977,484.4l0.6-21.1c0-1.8-0.3-2.8-0.8-2.8v-9.9c0-58.1,3.4-99.4,9.9-123.9c5.7-20.8,11-33.5,16.2-38.4
		c5.2-4.9,10.4-7.3,15.4-7.3c43,0,72.5,21.6,88.7,64.8c9.3,24.9,14.1,55.5,14.1,91.9v4.1l1.1,62.7c0,106.1-24.6,159.3-73.9,159.3
		c-20.3,0-35.9-11.3-46.8-33.8c-10.2-21.6-16.5-43-19-63.8C978.9,534.7,977,507.5,977,484.4z M1009.8,408.6l-2.8,51.1
		c0,53.5,4.3,100.3,13,140.1c9.2,23.2,17.9,37,26.3,41.1c6.7,0,12.7-2.8,18-8.1c5.4-5.4,9.6-12.7,12.8-21.7c3.2-9.2,5.8-18.7,8-28.7
		c2-9.9,3.5-20.5,4.6-32c1.8-19.6,2.8-36.4,2.8-50.3c0-13.9-1.2-35.2-3.7-63.8s-3.7-50-3.7-64.1v-9.8c-0.3-13.5-4.7-25.5-13.3-36.1
		c-8.4-10.6-19.3-15.8-32.4-15.8c-12.7,0-21,7.2-25.1,21.4c-3.4,11.9-5.2,26.6-5.2,44L1009.8,408.6z"/>
	<path d="M1161.9,414.4l0.8-52.8c0-22.5-1.4-39.6-4.3-51.4c2.4-13,7.5-19.4,14.8-19.4h24.3c21.3,0,36.2,8.9,45,26.5
		c7.6,15.8,11.3,33.6,11.3,54.1c0,25.8-0.6,41.6-1.8,47.4s-2.6,11.5-4.1,16.7c-1.4,5.2-3.2,9.5-5.2,12.7c-2.1,3.2-4.7,6.9-8,10.7
		c-3.2,3.8-6.9,7.2-11.2,9.9c-9.2,6-20.3,11-33.3,15.1v59.2l4.3,104.9c0,4.4-1.8,8.4-5.7,11.5c-3.8,3.2-8.1,4.7-13,4.7l-11.6-6.7
		c-4.4-20.3-6.7-47.6-6.7-81.4l2.1-98.6c-2.1-4.9-3.2-9.3-3.2-13.5v-1.8C1160.2,454.7,1161.9,438.8,1161.9,414.4z M1189.6,352.1
		l1.1,108v0.8c22-2.9,33-34.1,33-93.6c0-17.4-2.1-29.4-6.4-35.6c-4.7-6.7-11.9-9.9-21.6-9.9c0-0.6-2-0.8-6-0.8v31.2H1189.6z"/>
	<path d="M1361.5,624.2c0,24.8-6.1,37-18,37c-6.7,0-11.8-4.1-15.4-12.2c4.1-8.1,6.3-39.5,6.3-93.9c0-9.9-0.9-24-2.9-42.2
		c-2-18.2-3.2-31.2-3.5-39v-14.4c-0.8-1.7-6.4-16.2-17.3-43.7c-24.5-61.8-36.7-98.6-36.7-110.6v-2.9l12.4-9.2
		c11.3,0.2,24.9,28.7,40.5,85.8c6.9,24.9,10.2,37.5,10.2,37.6c1.4-4.1,4.3-17.9,8.7-41.4c11-59.8,22.5-89.8,34.6-89.8
		c3.4,0,6.6,1.1,9.3,3.2c2.8,2.1,4.1,4.9,4.1,8.4c0,18.4-5.2,45.1-15.8,80.1s-16.1,61.8-16.4,80.1v167H1361.5z"/>
</g>
<g>
	<path d="M924.3,852.6c0-3.4,1.5-5.2,4.2-5.2c1.5,0,3.3,0.5,5.7,1.5c2.4,0.9,4.4,1.5,6.1,1.5c1.7,0,3.6-1.1,5.5-3.3
		c2-2.1,3.6-4.9,4.6-8.1c2.2-6.6,3.4-12.5,3.4-17.8c0-5.3-0.9-11-2.8-17c-1.8-6.1-4.1-11.8-6.9-17.2c-2.6-5.3-5.4-10.7-8.1-16
		c-6.5-12.7-9.6-24.3-9.6-34.9c0-9.9,3-17.7,9.4-23.4c3.3-3,7.3-4.5,11.9-4.5c2.2,0,4.5,0.7,6.7,1.8c2.1,1.3,3.7,2.9,4.6,5l-3.3,4.1
		c-3.2,0-5.7-0.7-7.4-1.8c-2.4,0.3-4.4,1.3-6.2,3.3c-3.2,3.7-4.8,8.2-4.8,13.6s0.7,10.6,2.1,15.7c1.3,5.2,3,9.6,5.2,13.7
		c2.1,4.1,4.2,8.5,6.6,13.2s4.6,9.2,6.7,13.6c4.8,10,7.1,21,7.1,32.6c0,8.2-2,16.1-6.2,23.6c-2,3.6-4.8,6.6-8.2,8.8
		c-3.4,2.4-7.4,3.4-11.6,3.4c-4.6,0-8.2-0.7-10.8-2.1C925.6,855.6,924.3,854.1,924.3,852.6z"/>
	<path d="M993.5,851.6l-0.4-14.7c0,0,0.1-2.2,0.3-6.5c-0.5-1.6-1.5-16-3-43.1c-1.6-27.1-2.4-43.6-2.5-49.7c-0.3,0-0.5,0-0.8,0
		c-10.3-0.1-15.5-2.1-15.5-5.7c0-1.2,0.7-2.1,2.1-2.9c1.3-0.8,2.6-1.2,4-1.2l25.9,1.7l3-0.1c4,0,5.9,1.6,5.9,4.6
		c0,1.6-0.7,2.8-2,3.8c-1.3,0.9-2.8,1.5-4.4,1.5l-8.7-1.3l-0.4,2c0,12,1.1,30.1,3.2,54.2c2.1,24,3.2,42.1,3.2,54.3
		c0,1.5-0.7,2.8-2.1,4c-1.3,1.2-2.9,1.7-4.5,1.7L993.5,851.6z"/>
	<path d="M1030.9,790.9l-0.1,20.7c0,16.9,1.2,30.1,3.7,39.8l-2.1,5.2h-5.3l-2.5-2.8c0.1-5.7,0.1-12.2,0.1-19.3
		c0-7.1-0.5-22.3-1.6-45.6s-1.6-40.7-1.6-52.2c0-6.1,2.1-9,6.3-9c6.6,0,12.3,1.7,16.8,5.3c4.5,3.4,6.9,8.5,6.9,14.9v13.5
		c0,3.7-0.7,7-2.1,10c-1.3,3-2.9,6.2-4.8,9.5c-1.8,3.3-2.8,5.2-3,5.5c0.7,3.2,1.8,9.2,3.7,18.2c3.7,19.8,7.9,34.1,12.4,42.8
		c1.3,2.5,2,4.5,2,5.8c0,1.3-0.4,2.6-1.2,3.6c-0.8,0.9-1.8,1.5-3.2,1.5c-2.6,0-5.3-3-7.7-9.2c-2.5-6.1-4.5-12.9-5.9-20.3
		c-4.5-22.8-7.3-35.4-8.3-37.6h-2.5V790.9z M1031.7,734.6l-0.7,2.6c0,5.3,0.1,12.8,0.4,22.6c0.3,9.9,0.4,17,0.4,21.5
		c3-1.6,5.4-5.5,7.3-12.2c1.8-6.6,2.8-11.6,2.8-15.1c0-3.4-0.1-6.1-0.3-7.7c-0.1-1.6-0.5-3.4-1.2-5.4
		C1039.1,737,1036.2,734.7,1031.7,734.6z"/>
	<path d="M1089.1,791.3l0.9,40.5v5.7l-0.1,5.3h2.5l5.5-0.1c5.3,0,7.8,1.6,7.8,4.8c0,1.6-0.7,3-1.8,4.1c-1.3,1.2-2.8,1.7-4.5,1.7
		h-8.5c-5.8,0-9.5-0.1-11.1-0.4c-1.1,0.1-1.7,0.1-2.4,0.1c-4.5,0-6.9-1.5-6.9-4.2c0-1.2,0.4-2.2,1.1-3.3c0.8-1.1,1.5-1.6,2.2-1.7
		h5.4l0.4-2.5l-1.3-40.5l1.1-42.5c0-7.3-0.3-14.1-0.9-20.5h-3.7l-4.1,0.3c-1.8,0-3.3-0.4-4.4-1.1c-1.1-0.7-1.6-2.1-1.6-4.1
		c0-2.9,3.2-4.4,9.4-4.4h22.7c5.2,0,7.8,1.3,7.8,4c0,1.2-0.5,2.2-1.7,3.3c-1.1,1.1-2.4,1.5-3.8,1.5h-9.8c0.5,5.3,0.8,11.1,0.8,17.7
		L1089.1,791.3z"/>
	<path d="M1114.9,777.5l1.1-35.7c0-5.9,2.4-10.6,7-14.1v1.2c0.5-0.3,0.9-0.5,1.5-0.5c3,0,6.7,5.2,11.2,15.5
		c4.5,10.3,8.5,21.5,12.2,33.9c3.6,12.3,7.1,24.7,10.8,37.2c3.6,12.5,5.8,19.8,6.6,22.1c2.5-26.7,3.8-58.9,3.8-96.8l-0.3-5.2
		c0-3.8,1.6-5.7,4.8-5.7c1.8,0,3.2,0.8,4.1,2.2c0.9,1.5,1.3,3.2,1.3,5.3v14.4c-0.1,14.9-0.8,35-2,60s-2.9,39.1-4.9,42.4
		c-3.4,1.1-5.9,1.6-7.3,1.6s-2.4-0.4-3-1.3c-0.7-0.9-1.3-2.2-1.7-4.1c-0.4-1.8-0.8-3.2-1.1-3.7l0.1-0.8c0-4.8-4.6-19.7-13.7-45
		c-9.1-25.2-15.7-42.7-19.8-52.2v96.2c0.1,0.3,0.4,0.7,0.8,1.3c0.8,1.3,1.2,2.6,1.2,3.8c0,1.2-0.5,2.4-1.7,3.6s-2.5,1.7-4.1,1.7
		c-4.2,0-6.2-3.8-6.2-11.6L1114.9,777.5z"/>
	<path d="M1238.5,816.5l0.9,20.2c0,6.3-2.2,11.1-6.6,14.5s-9.5,5-15.3,5c-8.8,0-15.2-3.3-19.2-9.9c-2.9-4.6-4.6-9.1-5.4-13.2
		s-1.3-7.3-1.6-9.5c-0.3-2.2-0.5-5.3-0.7-9c-0.3-5.3-0.4-9.5-0.4-12.8v-8.2c0-18,0.5-29.3,1.6-34.1s2.2-9.2,3.7-13.3
		c1.3-4.1,3-7.3,5-9.5c4.8-5.4,10.3-8.2,16.6-8.2s9.4,1.6,9.4,4.9c0,1.5-0.7,2.8-1.8,3.7c-1.2,0.9-2.6,1.5-4.2,1.5l-4-0.5
		c-4.4,0-7.8,4.4-10,13.1c-3.2,12.4-4.9,27.5-4.9,45c0,12,0.4,20.2,1.2,24.7c0.8,4.5,1.6,8.3,2.5,11.4c0.9,3.2,2,5.5,3.2,7.4
		c2.9,4.4,6.7,6.6,11.2,6.6c6.2,0,9.2-10.2,9.2-30.4v-8.7c-0.9-0.5-2.4-0.8-4.5-0.8l-3.7,0.1c-4.4,0-6.6-1.5-6.6-4.4
		c0-1.8,0.7-3.2,1.8-4.1c1.3-0.9,2.8-1.5,4.6-1.5v0.1h2.6c11.5,0,17.2,2,17.2,5.8L1238.5,816.5z"/>
	<path d="M1271.7,844.6c0,8.5-2.1,12.8-6.2,12.8c-2.2,0-4.1-1.5-5.3-4.2c1.5-2.8,2.1-13.6,2.1-32.4c0-3.4-0.4-8.3-1.1-14.5
		c-0.7-6.3-1.1-10.7-1.2-13.5V788c-0.3-0.5-2.2-5.5-5.9-15.1c-8.5-21.3-12.7-34.1-12.7-38.2v-1.1l4.2-3.2c4,0,8.6,9.9,14,29.6
		c2.4,8.6,3.6,12.9,3.6,12.9c0.5-1.5,1.5-6.2,3-14.3c3.8-20.6,7.8-30.9,11.9-30.9c1.2,0,2.2,0.4,3.2,1.1c0.9,0.8,1.5,1.7,1.5,2.9
		c0,6.3-1.8,15.6-5.4,27.6c-3.7,12.2-5.5,21.3-5.7,27.6V844.6z"/>
</g>
<g>
	<path d="M80.2,296.6c0-2,0.8-2.9,2.4-2.9c0.8,0,1.8,0.3,3.2,0.8c1.3,0.5,2.5,0.8,3.4,0.8c0.9,0,2-0.7,3.2-1.8s2-2.8,2.6-4.6
		c1.3-3.7,2-7.1,2-10c0-3-0.5-6.2-1.6-9.6c-1.1-3.4-2.4-6.6-3.8-9.6c-1.6-3-3-6.1-4.6-9.1c-3.7-7.1-5.5-13.7-5.4-19.7
		c0-5.5,1.7-10,5.4-13.2c1.8-1.7,4.1-2.5,6.7-2.5c1.3,0,2.6,0.4,3.8,1.1s2.1,1.7,2.6,2.8l-1.8,2.4c-1.8,0-3.2-0.4-4.2-1.1
		c-1.3,0.1-2.5,0.8-3.6,1.8c-1.8,2.1-2.6,4.6-2.6,7.7s0.4,5.9,1.2,8.8c0.8,2.9,1.7,5.4,2.9,7.8c1.2,2.2,2.4,4.8,3.8,7.4
		c1.3,2.6,2.6,5.3,3.8,7.7c2.8,5.7,4.1,11.8,4.1,18.4c0,4.6-1.2,9.1-3.6,13.3c-1.2,2-2.6,3.7-4.6,5c-2,1.3-4.2,2-6.6,2
		c-2.6,0-4.6-0.4-6.2-1.2C80.8,298.4,80.2,297.6,80.2,296.6z"/>
	<path d="M116,237.5l0.3,25.9c-0.4,0.9-0.7,2.2-0.7,3.7v2.1l-0.4,17.2c0,4.9,1.2,7.4,3.7,7.4l4.5-0.1c3.8,0,5.8,1.1,5.8,3.2
		c0,0.8-0.4,1.5-1.1,2c-0.7,0.5-1.5,0.8-2.2,0.9c-2.6-0.8-5.9-1.3-9.6-1.3c-1.2,0.7-2.2,1.1-3.3,1.1c-1.1,0-2-0.4-2.5-1.1
		c-0.7-0.8-0.9-1.6-0.9-2.4c0-5.3,0.3-13.3,0.7-24s0.7-18.8,0.7-24v-0.8c-0.4-4.5-0.7-7.8-0.7-10c0-6.9,1.2-10.2,3.8-10.2
		c0.8,0,1.5,0.3,2,0.8c0.5,0.5,0.8,1.2,0.8,1.8L116,237.5z"/>
	<path d="M145.8,262l0.5,22.8v3.2v3h1.5l3.2-0.1c2.9,0,4.5,0.9,4.5,2.6c0,0.9-0.4,1.7-1.1,2.4s-1.6,0.9-2.5,0.9h-4.8
		c-3.3,0-5.4-0.1-6.3-0.3c-0.5,0.1-1.1,0.1-1.3,0.1c-2.6,0-3.8-0.8-3.8-2.4c0-0.7,0.3-1.3,0.7-1.8c0.4-0.7,0.8-0.9,1.3-0.9h3
		l0.3-1.5l-0.8-22.9l0.5-24c0-4.1-0.1-7.9-0.5-11.6H138l-2.5,0.1c-1.1,0-1.8-0.3-2.5-0.7c-0.7-0.4-0.9-1.2-0.9-2.2
		c0-1.6,1.8-2.5,5.4-2.5h12.9c2.9,0,4.4,0.8,4.4,2.2c0,0.7-0.3,1.3-0.9,1.8c-0.7,0.5-1.3,0.8-2.1,0.8h-5.5c0.3,2.9,0.4,6.3,0.4,10
		L145.8,262z"/>
	<path d="M200.7,296.8V283c0-3.2-0.3-7.9-0.8-14c-0.5-6.2-0.8-10.3-0.8-12.4c0-2.1,0.1-4.8,0.3-7.7c0.1-2.9,0.3-5.2,0.3-6.6
		c-0.3,0.9-1.6,5.9-3.7,14.9c-5.5,23.2-9.5,34.9-11.9,34.9c-1.5,0-2.5-0.4-3.3-1.3c-0.8-0.8-1.2-2-1.2-3.3c0-3.4-1.3-10.4-4.1-21
		c-2.6-10.6-5-18.8-6.9-24.4c-1.3,25.4-2.1,42.4-2.1,51.4l0.1,3.2c0,1.2-0.3,2-0.8,2.6c-0.5,0.7-1.3,0.9-2.4,0.9
		c-1.1,0-2-0.3-2.6-0.8c-0.7-0.5-1.1-1.1-1.1-1.8c0-7.3,0.5-18.4,1.7-32.9c1.1-14.7,1.7-25.6,1.7-32.9c-0.4-0.7-0.7-1.5-0.7-2.2
		c0-0.8,0.4-1.5,1.3-1.8s1.8-0.7,2.9-0.7c1.6,0,4.6,7.3,9.2,21.7c4.6,14.4,7.4,24.4,8.5,30c0.3-1.1,0.9-3.7,2-7.9
		c1.1-4.2,2.1-8.7,3.2-13.3c1.2-4.6,2.4-9.2,3.7-14c3-10.8,5.7-16.2,7.8-16.2c0.9,0,1.8,0.3,2.6,0.8c0.8,0.5,1.3,1.2,1.3,2.1
		c0,5.2,0.3,12.9,0.7,23.2c0.4,10.3,0.7,17.8,0.7,22.5l-0.3,11.4l0,0c0,0.8,0.3,3.3,0.7,7.7l0.3,2.1c0.3,0.8,0.5,1.6,0.5,2.5
		c0,0.9-0.4,1.7-1.1,2.8c-0.7,0.9-1.6,1.5-2.6,1.5C201.9,303.5,200.7,301.3,200.7,296.8z"/>
	<path d="M229.4,292.1c0,4.8-1.2,7.3-3.6,7.3c-1.3,0-2.4-0.8-3-2.4c0.8-1.6,1.2-7.7,1.2-18.2c0-2-0.1-4.6-0.5-8.2
		c-0.4-3.6-0.7-6.1-0.7-7.5v-2.8c-0.1-0.3-1.3-3.2-3.4-8.6c-4.8-12-7.3-19.2-7.3-21.5v-0.5l2.4-1.8c2.2,0,4.9,5.5,7.9,16.6
		c1.3,4.9,2,7.3,2,7.3c0.3-0.8,0.8-3.4,1.7-8.1c2.1-11.6,4.4-17.4,6.7-17.4c0.7,0,1.3,0.3,1.8,0.7c0.5,0.4,0.8,0.9,0.8,1.6
		c0,3.6-1.1,8.7-3,15.6c-2.1,6.9-3.2,12-3.2,15.6v32.5H229.4z"/>
	<path d="M277.6,276l1.2,6.6c0,0.9,0.4,3,1.1,6.5c0.7,3.4,1.1,5.7,1.1,6.7v0.1c0,1.6-0.7,2.6-1.8,3c-1.6,0-2.6-0.3-3.6-0.8
		c-0.8-0.5-1.3-1.5-1.3-2.9c0-3-0.5-7.5-1.6-13.3l-10.7-1.6c-0.7,2.4-1.2,5-1.6,7.8s-0.7,4.9-1.1,6.2c-0.7,2.6-1.8,4-3.6,4
		c-0.8,0-1.6-0.3-2.4-0.8c-0.7-0.5-1.1-1.2-1.1-2.1l0.3-0.9c4.9-18.8,8.5-36.9,10.8-54.5c0.1-0.5,0.1-2,0.3-4.4
		c0.4-5.3,1.1-8.6,2-10h3.7c0.9,0,1.8,0.3,2.6,0.7c0.8,0.4,1.1,1.2,1.1,2.1c0,5.4,0.8,13.6,2.2,24.3
		C276.7,263.4,277.6,271.3,277.6,276z M271.9,278.1c-0.3-1.1-0.3-2.9-0.3-5.5c0-2.6-0.1-5.8-0.4-9.8c-0.3-3.8-0.8-8.3-1.3-13.5
		c-0.5-5.2-0.9-8.8-1.2-11.2c-3.3,18.1-5.4,30.8-6.3,38.2C263.6,277.2,266.8,277.9,271.9,278.1z"/>
	<path d="M286.6,254.2l0.7-20.1c0-3.3,1.3-5.9,4-7.9v0.7c0.3-0.1,0.5-0.3,0.8-0.3c1.7,0,3.8,2.9,6.3,8.7c2.5,5.8,4.9,12.2,6.9,19.2
		c2.1,7,4.1,14,6.1,21c2,7.1,3.3,11.2,3.8,12.4c1.5-15.1,2.1-33.3,2.1-54.7l-0.1-2.9c0-2.1,0.9-3.2,2.6-3.2c1.1,0,1.8,0.4,2.2,1.3
		c0.5,0.8,0.8,1.8,0.8,2.9v8.2c-0.1,8.5-0.4,19.7-1.2,33.8c-0.7,14.1-1.6,22.1-2.8,23.9c-2,0.7-3.3,0.9-4.1,0.9
		c-0.8,0-1.3-0.3-1.7-0.8c-0.4-0.5-0.8-1.3-0.9-2.4c-0.3-1.1-0.4-1.7-0.7-2.1v-0.5c0-2.6-2.6-11.1-7.8-25.4
		c-5.2-14.3-9-24-11.4-29.5v54.3c0.1,0.1,0.3,0.4,0.4,0.8c0.4,0.8,0.7,1.5,0.7,2.1s-0.3,1.3-0.9,2s-1.5,1.1-2.2,1.1
		c-2.4,0-3.6-2.2-3.6-6.6L286.6,254.2z"/>
	<path d="M330.8,284.5l0.3-33.9c0-2.4-0.3-5.8-0.7-10.6c-0.4-4.8-0.7-7.8-0.7-9.1c0-1.3,0.4-2.2,1.2-3c0.8-0.7,1.7-1.1,2.6-1.1
		c7.4,0,13.5,4.4,18.2,12.9c2.6,4.9,4.1,10.2,4.1,15.7l-0.3,5.4v5.9c0,7.3-0.3,12-0.9,14.5c-0.7,2.4-1.3,4.5-2,6.1s-1.6,3-2.5,4.4
		c-2.2,2.9-5.2,5.2-8.7,7h-7.8C331.8,298.5,330.8,293.9,330.8,284.5z M338.5,290.4v2.6c6.3,0,10-6.3,11.4-18.9
		c0.3-2.9,0.4-5.7,0.4-8.5c0-21.7-4.2-33-12.7-33.9c-0.5,2.9-0.8,6.7-0.8,11.8c0,5,0.3,12.7,0.8,23.2
		C338.2,277.2,338.5,285.1,338.5,290.4z"/>
	<path d="M375.9,294.8l0.4-63.1v-13.2c0-0.8,0.1-1.5,0.5-1.8s1.3-0.5,2.8-0.5s3,0.4,4.6,1.1c1.6,0.7,2.8,1.7,4,2.9
		c1.1,1.3,1.8,2.6,2.6,4.2c1.5,3,2.1,6.2,2.1,9.8c0,3.6-0.9,7.5-2.6,12c-0.3,0.5-0.7,1.6-1.3,3.2c-0.7,1.6-1.1,2.5-1.1,2.8
		c0,5.3,1.5,12.3,4.1,20.7c0.9,2.9,2.2,6.9,4,11.8c1.7,5,2.8,8.2,3.2,9.5v0.3c0,2.4-0.3,3.8-0.8,4.2c-0.5,0.4-1.2,0.7-1.8,0.7
		c-1.3,0-2.6-0.9-4-2.9v-0.4c-0.4-6.5-2.6-16.4-6.7-29.6c-1.8-6.1-3.2-10.6-4-13.5v42.4c0,1.1-0.1,2-0.5,2.5
		c-0.4,0.5-1.1,0.9-2.1,0.9c-1.1,0-1.8-0.3-2.2-0.9c-0.5-0.5-0.8-1.3-0.8-2.1v-0.8H375.9z M381.8,221l-0.5,21.9c0,2.2,0,3.8,0.1,4.9
		c1.2-1.2,2.5-2.5,3.7-4.1l1.7-9.2c0.1-0.5,0.1-1.1,0.1-1.7c0-1.7-0.4-3.8-1.1-6.2C384.9,223.1,383.5,221.2,381.8,221z"/>
	<path d="M403.5,264.9l0.1-4.1c0-0.4,0-0.5-0.1-0.5v-1.8c0-11.2,0.7-19.3,2-24c1.1-4.1,2.1-6.5,3.2-7.5c1.1-0.9,2-1.5,3-1.5
		c8.5,0,14.3,4.2,17.4,12.7c1.8,4.9,2.8,10.8,2.8,17.8v0.8l0.3,12.2c0,20.6-4.9,31-14.5,31c-4,0-7-2.2-9.1-6.6
		c-2-4.2-3.3-8.3-3.7-12.4C403.9,274.8,403.5,269.4,403.5,264.9z M409.8,250.3l-0.5,9.9c0,10.4,0.8,19.5,2.5,27.2
		c1.8,4.5,3.6,7.1,5.2,8.1c1.3,0,2.5-0.5,3.6-1.6c1.1-1.1,1.8-2.5,2.5-4.2c0.7-1.7,1.2-3.7,1.6-5.5c0.4-2,0.7-4,0.9-6.2
		c0.4-3.8,0.5-7.1,0.5-9.8c0-2.6-0.3-6.9-0.7-12.4c-0.5-5.5-0.7-9.8-0.7-12.4v-2c-0.1-2.6-0.9-5-2.6-7c-1.7-2.1-3.8-3-6.3-3
		c-2.5,0-4.1,1.3-4.9,4.1c-0.7,2.4-1.1,5.2-1.1,8.6L409.8,250.3z"/>
	<path d="M439.8,251.3l0.1-10.3c0-4.4-0.3-7.7-0.8-10c0.5-2.5,1.5-3.8,2.9-3.8h4.8c4.2,0,7.1,1.7,8.8,5.2c1.5,3,2.2,6.6,2.2,10.6
		c0,5-0.1,8.1-0.4,9.2c-0.3,1.2-0.5,2.2-0.8,3.2c-0.3,1.1-0.7,1.8-1.1,2.5c-0.4,0.7-0.9,1.3-1.6,2.1c-0.7,0.8-1.3,1.5-2.1,2
		c-1.8,1.2-4,2.1-6.5,2.9v11.5l0.8,20.5c0,0.9-0.4,1.6-1.1,2.2c-0.8,0.7-1.6,0.9-2.5,0.9l-2.2-1.3c-0.9-4-1.3-9.2-1.3-15.8l0.4-19.2
		c-0.4-0.9-0.7-1.8-0.7-2.6v-0.4C439.4,259.3,439.8,256.1,439.8,251.3z M445.2,239.3l0.3,21v0.1c4.4-0.5,6.5-6.6,6.5-18.2
		c0-3.4-0.4-5.7-1.3-7c-0.9-1.3-2.4-2-4.2-2c0-0.1-0.4-0.1-1.2-0.1V239.3z"/>
	<path d="M478.9,292.1c0,4.8-1.2,7.3-3.6,7.3c-1.3,0-2.4-0.8-3-2.4c0.8-1.6,1.2-7.7,1.2-18.2c0-2-0.1-4.6-0.5-8.2
		c-0.4-3.6-0.7-6.1-0.7-7.5v-2.8c-0.1-0.3-1.3-3.2-3.4-8.6c-4.8-12-7.3-19.2-7.3-21.5v-0.5l2.4-1.8c2.2,0,4.9,5.5,7.9,16.6
		c1.3,4.9,2,7.3,2,7.3c0.3-0.8,0.8-3.4,1.7-8.1c2.1-11.6,4.4-17.4,6.7-17.4c0.7,0,1.3,0.3,1.8,0.7s0.8,0.9,0.8,1.6
		c0,3.6-1.1,8.7-3,15.6c-2.1,6.9-3.2,12-3.2,15.6v32.5H478.9z"/>
	<path d="M504,273.5l-0.4-41.7c0-4.6,0-9.2,0.1-14l3-1.7c2.1,0.1,4.6,5.8,7.4,17.2c2.2,9.2,4.1,17.6,5.4,24.8
		c1.3,7.4,2.1,11.4,2.2,12c0.5-2.4,1.5-6.5,2.8-12.4c1.3-5.9,2.4-10.6,3-13.9c2-9.6,3.2-18.2,3.7-25.8v-0.5c0.1-0.9,0.5-1.6,1.3-2.2
		c0.8-0.5,1.6-0.8,2.4-0.8s1.5,0.3,2,0.9c0.5,0.5,0.8,1.2,0.8,1.8c0,8.6,0.3,21.5,0.9,38.6c0.7,17.2,0.9,30,0.9,38.6
		c0,1.7-0.4,3.2-1.3,4.5c-0.9,1.3-1.8,1.8-2.6,1.8c-1.7,0-2.6-1.5-2.6-4.2l-0.4-45.3v-5.4c-0.5,2.8-1.6,7.7-3.3,14.5
		s-2.9,12.3-3.3,15.8v0.7c-0.1,0.3-0.1,0.9-0.3,2c-0.1,1.1-0.3,2-0.4,2.6s-0.4,1.5-0.7,2.2c-0.7,1.7-1.8,2.5-3.3,2.5
		c-2.6,0-3.8-3.3-3.8-10c0-6.6-1.6-15.8-4.9-27.9c-1.6-5.9-2.6-10-3.2-12.2c-0.1,5.8-0.3,10-0.3,12.9l0.9,44.2
		c0,1.6-0.5,2.9-1.6,4.1c-1.8,0-3.2-0.7-3.8-1.8s-0.9-2.8-0.9-4.9L504,273.5z"/>
	<path d="M558.6,262l0.5,22.8v3.2v3h1.5l3.2-0.1c2.9,0,4.5,0.9,4.5,2.6c0,0.9-0.4,1.7-1.1,2.4s-1.6,0.9-2.5,0.9h-5
		c-3.3,0-5.4-0.1-6.3-0.3c-0.5,0.1-1.1,0.1-1.3,0.1c-2.6,0-3.8-0.8-3.8-2.4c0-0.7,0.3-1.3,0.7-1.8c0.4-0.7,0.8-0.9,1.3-0.9h3
		l0.3-1.5l-0.8-22.9l0.5-24c0-4.1-0.1-7.9-0.5-11.6h-2.1l-2.5,0.1c-1.1,0-1.8-0.3-2.5-0.7s-0.9-1.2-0.9-2.2c0-1.6,1.8-2.5,5.4-2.5
		h12.9c2.9,0,4.4,0.8,4.4,2.2c0,0.7-0.3,1.3-0.9,1.8c-0.7,0.5-1.3,0.8-2.1,0.8h-5.5c0.3,2.9,0.4,6.3,0.4,10L558.6,262z"/>
	<path d="M579.8,237.5l0.3,25.9c-0.4,0.9-0.7,2.2-0.7,3.7v2.1l-0.4,17.2c0,4.9,1.2,7.4,3.7,7.4l4.5-0.1c3.8,0,5.8,1.1,5.8,3.2
		c0,0.8-0.4,1.5-1.1,2c-0.7,0.5-1.5,0.8-2.2,0.9c-2.6-0.8-5.9-1.3-9.6-1.3c-1.2,0.7-2.2,1.1-3.3,1.1s-2-0.4-2.5-1.1
		c-0.7-0.8-0.9-1.6-0.9-2.4c0-5.3,0.3-13.3,0.7-24c0.4-10.7,0.7-18.8,0.7-24v-0.8c-0.4-4.5-0.7-7.8-0.7-10c0-6.9,1.2-10.2,3.8-10.2
		c0.8,0,1.5,0.3,2,0.8c0.5,0.5,0.8,1.2,0.8,1.8L579.8,237.5z"/>
	<path d="M613.2,249.6l-0.3,6.5c0,3,1.2,8.8,3.7,17.3c2.5,8.5,4.6,14,6.2,16.8c0.3,0.3,0.7,0.9,1.5,2c0.7,0.9,1.3,1.8,1.6,2.6
		c0.3,0.8,0.5,1.5,0.5,2.4c0,0.8-0.3,1.5-0.9,2c-0.7,0.5-1.3,0.8-2.1,0.8c-1.7,0-3.4-1.7-5.3-5.3c-1.8-3.6-3.4-7.9-4.9-13.1
		c-2.4-8.8-4.2-16.5-5.4-23c-2.6,5.2-4,11.4-4,18.8v19.9c0,1.7-0.8,2.5-2.2,2.5c-1.1,0-2-0.3-2.6-0.9s-0.9-1.5-0.9-2.5v-32.8
		c0-3.8,0.4-9.6,1.1-17.4c0.7-7.8,1.1-13.5,1.1-17.4c0.7-1.3,1.6-2.1,2.8-2.1s2.1,0.3,2.8,0.9c0.7,0.7,0.9,1.5,0.9,2.4v0.3
		c-0.9,1.6-1.5,8.2-1.5,19.7v3.8c0.1-0.1,1.5-2.8,4-7.9c6.2-12.3,10-18.5,11.5-18.5c1.1,0,2,0.3,2.9,0.8c0.9,0.5,1.3,1.2,1.3,2.1
		c0,0.1-0.9,1.5-2.6,4.4C616.9,243,613.9,248.2,613.2,249.6z"/>
</g>
<g>
	<path d="M125.6,385.7l0.1-0.3c0-0.1,0-0.1,0-0.3c0.1-0.3,0.5-0.8,1.2-1.8c0.5-0.8,0.9-1.3,1.5-1.7c1.1-2,2.6-2.8,4.8-2.5
		c1.3,0.5,2,1.7,2.1,3.7c0.1,2.9-0.8,5.7-2.8,8.3c-1.1,2-3.2,3.6-6.3,4.9c-0.8,0.4-1.7,0.5-2.6,0.5c-1.8,0-3-0.9-3.3-2.9
		c0.5,0.1,1.1,0.4,1.7,0.9c0.4,0.3,0.7,0.4,1.1,0.4c2-0.1,3.8-0.9,5.5-2.2c1.7-1.3,2.9-3,3.7-4.9c0.8-2.1,1.2-3.6,1.2-4.5
		c0-0.5-0.1-1.1-0.3-1.6c-0.1-0.1-0.3-0.3-0.4-0.7c0.1,0,0.1,0,0,0c-0.3-0.1-0.4-0.1-0.7-0.1c-0.4,0-0.7,0.1-1.2,0.4
		c-0.9,0.5-1.6,1.5-2.2,2.5c-1.1,1.5-2,2.8-2.6,4l0,0l-0.3,0.5c-0.1,0-0.3,0-0.3,0v0.1c-0.1,0.3-0.3,0.4-0.4,0.5
		c-0.3,0.4-0.7,1.1-1.2,1.8c0,0.1-0.4,0.4-0.9,0.9c-0.5,0.1-0.9,0-1.1-0.3c-0.1-0.3-0.3-0.7-0.3-1.2c0-0.1,0-0.3,0-0.3v-0.3
		c2.8-7.5,4.8-13.5,5.8-18c0.3-0.3,0.5-0.3,0.9-0.3c0.4,0,0.7,0.1,0.9,0.5c0.1,0.4,0,1.1-0.3,1.8c-0.3,0.8-0.4,1.5-0.4,1.7
		c-0.1,0.5-0.5,1.3-0.9,2.2c-0.1,0.5-0.5,1.6-0.9,3C126.9,382,126.3,383.5,125.6,385.7z M131.5,382.5c0-0.4,0.1-0.5,0.4-0.5
		s0.4,0.1,0.4,0.5H131.5z"/>
	<path d="M141.4,401.2c-1.5,2.6-2.9,5.2-4.4,7.1c-0.5,0.5-1.3,1.2-2.4,2.4c-0.5,0.4-0.8,0.7-0.9,0.8c-0.1,0.1-0.7,0.1-1.6,0.3
		c1.8-1.7,3.6-4.2,5.3-7.5c1.5-2.9,2.6-5.7,3.3-8.2c0-0.3-0.1-0.4-0.1-0.7c-0.1-0.4-0.4-0.7-0.7-0.9c-1.3-0.9-2.5-3-3.3-6.6
		c-0.1-1.2-0.3-3.3-0.8-6.2c0,0.1,0-0.3,0-0.9c0-0.3,0.1-0.4,0.3-0.4c0.4,0,0.8,0.1,1.1,0.7c0.3,0.5,0.5,0.9,0.7,1.3
		c0.3,2.1,0.5,4.1,1.1,6.2c0.5,2.8,1.7,4.5,3.3,5.3c0.9-2.1,2.4-5.9,4.2-11.8c0.7-0.4,1.2-0.5,1.2-0.7c0.3,0,0.4,0.1,0.5,0.3
		l0.5,0.5c-0.1,0.9-0.7,2.1-1.3,3.7c-0.7,1.3-1.7,4.1-3.3,8.5C142.5,398.5,141.6,400.8,141.4,401.2z"/>
	<path d="M183.1,375.6c-0.1,0.4-0.7,1.1-1.7,2.1c-1.5,1.2-3.2,2.5-5.4,4c-0.4,0.3-1.2,0.8-2.4,1.5c-0.8,0.4-2.2,0.9-4.4,1.6
		c-0.1,0-0.7,0.3-1.3,0.5c-0.4,0.1-0.5,0.3-0.5,0.7c1.1,0.7,2.5,1.8,4.2,3.7c1.8,1.7,3.3,3,4.2,3.6c0.5,0.4,1.7,0.8,3.3,1.2
		c0.5,0.1,1.2,0.3,2,0.3c0.7,0,1.6,0.1,2.5,0.3c-0.5,0.5-1.3,0.9-2.4,1.3c-2.5,0.1-4.9-0.4-7-1.7c-1.5-0.9-3.2-2.4-5.3-4.5
		c-0.3-0.1-0.9-0.5-2.1-1.5c-0.8-0.5-1.6-0.9-2.2-1.2l-0.1,0.1c0,0.4-0.1,1.1-0.5,2.1c-0.3,0.9-0.4,1.6-0.3,2
		c0.1-0.1,0.3-0.5,0.7-1.2c0.3-0.4,0.7-0.7,1.3-0.7c0.1,0.7-0.1,1.6-0.7,2.5c-0.5,0.9-0.8,1.7-0.8,2.1c-0.3,0.5-0.9,1.2-1.7,2
		c-1.2-0.3-1.7-0.9-1.7-2.1c0-0.5,0.1-1.5,0.5-2.6c0.3-1.2,0.4-2,0.4-2.5c0.4-0.8,0.5-1.5,0.4-2.1h-3.7c0-0.3-0.3-0.5-0.7-0.8
		c-0.4-0.3-0.5-0.4-0.5-0.7c0-0.1,0-0.4,0.1-0.7c1.2-0.7,2.9-1.1,5.3-0.9l0.3-0.1c0-0.4,0.1-0.9,0.5-1.8c0.3-0.8,0.4-1.5,0.3-1.8
		l0.7-1.1c0.8-2.4,1.8-6.1,3-10.8c-0.5-0.1-0.8-0.7-0.8-1.3c-0.1-0.4,0.1-0.7,0.5-0.9c0.3-0.1,0.7-0.3,0.9-0.5
		c0.3,0.3,0.8,0.5,1.6,0.7c0.4,0.1,0.9,0.4,1.6,0.8c1.2,0.1,2.8,0.5,5,1.1c2.8,1.1,4.5,1.8,4.9,2.1c1.7,1.1,2.5,2.6,2.5,4.6
		L183.1,375.6z M173.9,370.3c-0.3,0.1-0.4,0.1-0.7,0.1s-0.8-0.1-1.3-0.3c-0.5-0.1-0.9-0.3-1.2-0.3s-0.5,0-0.7,0.1
		c-0.1,0.4-0.3,0.9-0.7,1.7c-0.3,0.8-0.4,1.5-0.4,2h-0.3c-0.1,0.7-0.5,2-1.2,3.8c-0.5,1.6-0.9,2.9-0.9,4c0,0.1-0.3,0.5-0.5,1.1
		c-0.3,0.5-0.5,0.9-0.4,1.3c1.3-0.3,3.3-0.9,5.8-2.1c2.2-1.1,4.1-2.1,5.5-3c0.4-0.3,1.7-1.5,3.7-3.4c0.3-0.5,0.4-1.1,0.4-1.5
		c0-0.3-0.1-0.5-0.3-0.8C179.1,371.9,176.8,371.1,173.9,370.3z"/>
	<path d="M185,394.8c-0.1,1.1-0.7,1.6-1.6,1.6c-0.5-0.3-0.8-0.5-0.8-0.8c-0.1-0.4-0.1-0.7-0.1-0.9c0-0.9,0.4-1.5,1.2-1.5
		c0.3,0.1,0.5,0.1,0.8,0.3c0.3,0.1,0.4,0.3,0.5,0.5L185,394.8L185,394.8z"/>
	<path d="M206,369.3c-1.7,0.1-3.2,0.5-4.4,0.9c-0.8,0-1.2,0.1-1.5,0.3c-0.1,0.7-0.7,1.3-1.3,1.8c-0.4,0.4-0.9,0.9-1.5,1.6
		c-0.4,0.8-0.9,1.8-1.6,3c-0.3,0.5-0.5,1.5-1.1,2.5c0.3,0.1,0.4,0.1,0.5,0.1c0.1,0,0.5-0.1,1.1-0.3c0.5-0.3,1.1-0.3,1.3-0.4
		c0.8-0.1,1.3-0.3,1.7-0.5c0.5-0.1,3.3-1.2,8.6-3.2l2.1,0.3c-1.2,1.2-2,1.7-2.5,1.7c-0.7,0.7-1.6,1.2-2.9,1.7
		c-1.8,0.7-2.9,1.2-3.2,1.3c-0.7,0.1-1.8,0.7-3.3,1.3c-0.9,0-2.4,0.4-4.5,1.2c-1.3,2.8-2,5.4-2,7.7c0,0.5,0,0.9,0.1,1.3
		c0.4,1.6,1.2,2.5,2.4,2.6c1.7,0.1,3.6-0.5,5.4-1.8c0.9-0.7,2.6-2,5.3-4c0,0.7-0.1,1.3-0.7,2c-0.1,0.1-0.7,0.7-1.5,1.6
		c-2.6,3.2-5.5,4.6-8.7,4.5c-2.6-0.9-4.2-2.4-4.6-4.1c-0.4-2.6-0.3-4.6,0.4-6.2c0.4-0.8,0.7-2,1.2-3.6c-0.7-0.3-1.1-0.9-0.9-1.7
		c0.3-0.3,0.5-0.4,1.1-0.5c0.5-0.1,0.8-0.3,0.9-0.4c0-0.5,0.3-1.2,0.8-2.1c0.5-0.9,0.8-1.6,0.8-2.1c0.3-0.1,0.4-0.3,0.5-0.7
		c0.1-0.3,0.1-0.5,0.3-0.7c0.5-0.9,1.3-2.1,2.5-3.8c-0.1-0.1-0.7-0.3-1.6-0.4c-0.1-0.3-0.3-0.5-0.5-0.9c0-0.1,0-0.3,0-0.4
		c0-0.8,0.9-1.2,2.8-1.2c1.2,0,2,0,2.2,0c3.2-0.7,6.2-0.9,8.8-0.9c1.7,0,3.4,0.1,5,0.4l0.3,0.7C212.6,368.6,210.1,368.9,206,369.3z"
		/>
	<path d="M212.6,394.8c-0.1,1.1-0.7,1.6-1.6,1.6c-0.5-0.3-0.8-0.5-0.8-0.8c-0.1-0.4-0.1-0.7-0.1-0.9c0-0.9,0.4-1.5,1.2-1.5
		c0.3,0.1,0.5,0.1,0.8,0.3c0.3,0.1,0.4,0.3,0.5,0.5L212.6,394.8L212.6,394.8z"/>
	<path d="M236.8,380.9c4-0.1,6.9,0.9,8.8,3.2c0.5,0.8,0.8,1.7,0.8,2.6c0,0.5-0.1,1.1-0.4,1.7c-0.3,0.1-0.4,0.4-0.5,0.7
		c-0.1,0.4-0.4,0.5-0.5,0.7l-0.3,0.8c-0.3,0.4-0.8,0.9-1.6,1.6c-0.8,0.7-1.3,1.1-1.6,1.5c-3,2.1-5.9,3.2-8.7,3.2
		c-1.2,0-2.2-0.1-3.2-0.5c-0.4-0.4-0.8-0.7-1.3-1.2c-0.4-0.4-0.7-0.9-0.7-1.5c0.4-0.3,0.7-0.3,0.9-0.1c0.3,0.1,0.4,0.1,0.5,0.1
		c0.5-2.4,1.3-5.5,2.5-9.8c0.1-0.3-0.1-0.5-0.4-0.9c-0.3-0.4-0.5-0.7-0.5-0.8c0-0.3,0.1-0.4,0.5-0.7c0.8-0.4,1.3-1.2,1.6-2.5
		c0.4-1.6,0.7-2.6,0.8-3c0-0.1,0-0.1,0-0.3v-0.1l0.1-0.3c0-0.1,0-0.4-0.1-0.5c0.4-0.4,0.7-1.1,0.8-2c0.1-0.9,0.4-1.5,0.5-2
		c0.4-0.5,0.9-0.8,1.5-0.8c0.1,0,0.3,0,0.4,0.1c0.4,0.3,0.7,0.7,0.7,1.1c0,0.3-0.1,0.8-0.5,1.3s-0.5,1.1-0.5,1.5
		c-0.3,0.9-0.7,2.2-1.2,4.1c0,0.1,0,0.4-0.1,0.7c-0.1,0.3-0.3,0.4-0.3,0.5c4.1-2,7.3-4.2,9.4-6.6c0.4-0.3,0.7-0.8,0.8-1.5
		c-0.9-0.8-2.2-1.2-4.1-1.2c-0.9,0-2.4,0-4.4-0.1c-0.3,0-0.8,0-1.5,0.1c-0.8,0.1-1.3,0.3-1.6,0.3c-0.9,0-1.6-0.3-2-0.9
		c-0.1-0.1-0.1-0.3-0.3-0.5c0-0.1,0-0.1,0-0.3c0-0.3,0.1-0.4,0.3-0.5c0.1-0.1,0.5-0.3,1.2-0.4l0.5-0.1c0.1,0.3,0.3,0.4,0.5,0.4
		c0.1,0,0.3-0.1,0.5-0.3c0.3-0.1,0.5-0.3,0.7-0.3c0.4,0,0.7,0.1,1.1,0.4h5.3c2.1,0.1,3.8,0.5,5,1.3c0.8,0.9,1.2,1.7,1.2,2.5
		c-0.4,0.5-0.9,1.3-1.7,2.4c0,0.3-0.3,0.5-0.8,0.8c-0.4,0.5-2.1,1.8-5.3,4.2c-0.4,0.1-0.9,0.4-1.5,0.7c-0.8,0.5-1.2,0.8-1.5,0.9
		C237.1,380.8,236.9,380.8,236.8,380.9L236.8,380.9z M234.4,383.7l0.3,0.3c-0.3,0.1-0.4,0.3-0.5,0.3c-0.1,0-0.1,0-0.3,0
		c-0.1,0.8-0.5,2.1-1.1,3.7c-0.1,0.5-0.3,1.6-0.7,2.9c-0.4,1.3-0.7,2.4-0.7,3c0,0.3,0,0.5,0.1,0.8c0.4,0.1,1.1,0.1,1.7,0
		c1.1-0.3,1.7-0.3,1.7-0.3c2.6-1.3,4.4-2.2,5.4-3c2-1.5,3.2-3,3.6-4.9c-0.9-2.1-2.5-3-4.6-2.8c-0.4-0.3-0.9-0.4-1.6-0.4h-2
		C235.8,383.4,235.2,383.5,234.4,383.7z"/>
	<path d="M265.1,393.2c-0.4,0.4-0.9,0.9-1.6,1.5c-0.9,0.5-1.7,0.8-2.2,0.8c-0.9,0-1.6-0.7-2-1.8c-0.1-0.1-0.1-0.3-0.3-0.7
		c-0.1-0.5-0.3-0.8-0.4-0.8c0,0-1.1,1.1-3,3.2c-1.3,1.2-2.9,1.8-4.9,2.1c-0.9-1.1-1.5-2.4-1.5-3.8c0-0.7,0.1-1.5,0.3-2.5
		c0.3-1.2,0.3-2.1,0.4-2.5c0.5-2.5,1.5-5,2.9-7.5c0.4-0.1,0.8,0,1.2,0.4c0.1,0.3,0.1,0.5,0.1,0.7c0,0.3-0.1,0.7-0.4,1.2
		c-0.4,0.7-0.5,1.1-0.5,1.2c-0.5,1.6-1.2,3.8-2,6.7c-0.1,0.8-0.1,1.6-0.1,2.2c0,1.1,0.1,1.7,0.3,2.1c0.9-0.1,1.6-0.4,2.1-0.7
		c0,0,0.7-0.5,1.7-1.3c0.3-0.5,1.1-1.7,2.6-3.6c1.1-1.5,1.7-2.6,2-3.8c0.9-2.2,1.8-4,2.6-5.3c0.5-0.4,0.9-0.3,1.2,0.3
		c0.1,0.3,0.1,0.7,0.1,0.9c0,0.5-0.1,1.2-0.5,2c-0.4,0.9-0.7,1.6-0.7,1.8c-0.9,1.2-1.6,3-1.7,5.4c0,0.1,0.1,0.7,0.1,1.5
		c0.1,0.5,0.3,0.9,0.5,1.1c0.5-0.1,0.9-0.3,1.3-0.5c0.5-0.4,0.9-0.7,1.1-0.7c0.4-0.4,1.1-0.9,1.8-1.6l0.7,0.4
		C266,392,265.6,392.7,265.1,393.2z"/>
	<path d="M274.3,393.6c-0.3,0.3-0.7,0.5-1.2,1.1c-1.3,1.1-2.8,1.6-4.6,1.6c-0.9,0-1.7-0.1-2.6-0.5c-1.3-0.8-2-2.5-2-5
		c1.2-5.5,3.2-9.1,6.2-10.7c1.2,0.3,2,0.8,2.2,1.8c0.1,0.3,0,0.4-0.1,0.7c-0.1,0.3-0.3,0.3-0.5,0.3c-0.1,0-0.3,0-0.4-0.1
		c-0.1-0.1-0.3-0.1-0.4-0.1c-0.1,0-0.1,0-0.3,0c-0.1,0.1-0.5,0.5-1.3,1.2c-0.5,0.5-0.8,0.9-0.9,1.3c-0.4,0.5-0.8,1.3-1.3,2.6
		c-0.5,0.7-0.8,1.5-0.9,2.5v2.6c0.4,1.2,1.1,1.7,2.1,1.7c0.9,0,2.8-0.8,5.8-2.2l0,0c0.3-0.3,0.5-0.3,0.9-0.1
		C275.1,392.7,274.8,393.2,274.3,393.6z"/>
	<path d="M277.4,391.2l5-6.2c2-2.4,4-4.2,5.9-5.4c0.5-0.3,1.1-0.3,1.8,0c0.3,0.3,0.5,0.7,0.7,1.1c0.1,0.5,0.3,0.9,0.4,1.1
		c-0.3,0.5-0.4,1.2-0.5,2.1c-0.1,1.1-0.3,1.8-0.3,2.1c-0.8,3.3-1.2,5.2-1.3,5.5c-0.4,2.1-0.8,4-0.9,5.7c-1.1-0.8-1.6-1.7-1.6-2.8
		c0-0.4,0-0.9,0.1-1.6c0.1-0.8,0.3-1.3,0.3-1.6c0.1-0.7,0.4-2.2,1.2-4.6c0.5-2,0.8-3.4,0.7-4.6c-0.3-0.1-0.8,0.3-1.6,0.9
		c-1.5,1.3-3,3-4.6,5.2l-4.2,5.5c-0.3,0.3-0.7,0.7-1.1,1.2c-0.4,0.7-0.8,1.1-0.9,1.3c-0.5,0.3-0.9,0.3-1.2,0.3
		c-0.3-0.5-0.5-1.2-0.5-1.8c0-0.5,0.1-1.5,0.5-2.5c0.4-1.1,0.5-1.8,0.5-2.4c1.2-3.7,3.2-9.2,5.5-16.8c-0.1-0.4,0.1-0.9,0.5-1.3
		c0-0.4,0.1-0.8,0.4-1.1c0.3-0.3,0.5-0.5,0.9-0.5c0.4,0,0.7,0.3,0.9,0.7c0.1,1.1-0.1,2.1-0.7,3.3c-0.8,1.7-1.5,3-1.6,4.2
		c-0.1,0-0.1,0.1-0.1,0.3c-0.8,2.2-1.6,4.5-2.4,6.7C278.8,386.2,278.3,388.2,277.4,391.2z"/>
	<path d="M302.8,395.3c-0.4,0.1-1.1,0.5-1.8,0.9c-0.4,0-1.2-0.3-2.1-0.8c0-0.3-0.1-0.8-0.4-1.3c-0.3-0.7-0.4-1.2-0.4-1.6
		c-0.3,0.3-0.5,0.5-0.5,0.8c-1.3,1.6-2,2.5-2.2,2.6c-1.1,0.8-2.1,1.2-3.2,1.1c-0.9-0.7-1.5-1.7-1.5-3.2c0-2.4,0.3-4.2,0.7-5.5
		c1.2-3.3,3.6-6.2,7.1-8.7h0.8c0.8,0,1.2,0.5,1.2,1.5c0,0.3-0.1,0.9-0.3,1.8c-0.1,0.4-0.5,1.1-1.2,1.7c-0.1,0.3-0.5,0.5-1.2,0.7
		c0.1-0.9,0.4-1.6,0.8-2.1c0-0.1,0.1-0.4,0.3-0.8c0-0.1,0-0.1,0-0.3c0-0.1,0-0.3,0-0.4c0.1-0.1,0.3-0.3,0.3-0.4
		c-0.3,0-0.5,0.3-1.1,0.9c-0.1,0.1-0.3,0.3-0.5,0.5c-3.6,4.1-5.4,7.7-5.4,11c0.1,1.1,0.4,1.6,0.9,1.6c1.2-0.3,2.2-1.2,3-2.6
		c0.9-0.8,1.8-2.4,2.6-4.6c0.4-0.8,1.1-3,2.1-6.5c0.1-0.3,0.5-0.5,1.2-0.8c0.3,0.4,0.5,0.7,0.5,1.2c0,0.3-0.1,0.5-0.3,0.9
		c-0.1,0.5-0.3,0.8-0.3,1.1c-1.3,3.8-2.1,6.2-2.1,7.5c0,1.6,0.3,2.6,0.9,3.3c0.1,0,0.5-0.3,1.3-0.7c0.7-0.4,1.1-0.5,1.2-0.5
		c0,0.1,0,0.4,0,0.5C303.4,394.6,303.1,395,302.8,395.3z"/>
	<path d="M315.5,385.9c-0.3,1.2-0.5,2.2-0.7,3.3c-0.3,1.5-0.4,2.5-0.4,3.3c0,1.5,0.4,2.8,1.2,4c-0.4,0.1-0.7,0.1-0.9,0.1
		c-0.5,0-0.9-0.1-1.3-0.5c-0.7-1.2-0.9-2.5-0.9-4.1c0-1.1,0.1-2.2,0.5-3.7l0.7-3.6v-0.1c-1.3,1.1-2.8,2.8-4.5,5.2
		c-1.7,2.6-3.2,4.4-4.2,5.3c-0.5,0.3-0.9,0.3-1.3,0.3c-0.3,0-0.4,0-0.7-0.1c-0.5-0.4-0.8-1.2-0.5-2.2c0.4-1.5,0.9-3.4,1.6-5.8
		c0.7-2.2,1.1-4.2,1.2-5.9c0.3-0.3,0.5-0.5,0.9-0.5s0.7,0.1,0.9,0.5c0.3,0.4,0.4,0.8,0.4,1.1l-2.2,9.1c0.1-0.4,0.5-0.8,1.1-1.5
		c1.7-2.4,2.9-4,3.4-4.6c1.3-1.6,2.8-2.9,4.4-3.8c1.2,0,1.7,0.7,1.7,1.8c0,0.3,0,0.7-0.1,1.2C315.7,385.4,315.5,385.8,315.5,385.9z"
		/>
	<path d="M328.7,395.3c-0.4,0.1-1.1,0.5-1.8,0.9c-0.4,0-1.2-0.3-2.1-0.8c0-0.3-0.1-0.8-0.4-1.3c-0.3-0.7-0.4-1.2-0.4-1.6
		c-0.3,0.3-0.5,0.5-0.5,0.8c-1.3,1.6-2,2.5-2.2,2.6c-1.1,0.8-2.1,1.2-3.2,1.1c-0.9-0.7-1.5-1.7-1.5-3.2c0-2.4,0.3-4.2,0.7-5.5
		c1.2-3.3,3.6-6.2,7.1-8.7h0.8c0.8,0,1.2,0.5,1.2,1.5c0,0.3-0.1,0.9-0.3,1.8c-0.1,0.4-0.5,1.1-1.2,1.7c-0.1,0.3-0.5,0.5-1.2,0.7
		c0.1-0.9,0.4-1.6,0.8-2.1c0-0.1,0.1-0.4,0.3-0.8c0-0.1,0-0.1,0-0.3c0-0.1,0-0.3,0-0.4c0.1-0.1,0.3-0.3,0.3-0.4
		c-0.3,0-0.5,0.3-1.1,0.9c-0.1,0.1-0.3,0.3-0.5,0.5c-3.6,4.1-5.4,7.7-5.4,11c0.1,1.1,0.4,1.6,0.9,1.6c1.2-0.3,2.2-1.2,3-2.6
		c0.9-0.8,1.8-2.4,2.6-4.6c0.4-0.8,1.1-3,2.1-6.5c0.1-0.3,0.5-0.5,1.2-0.8c0.3,0.4,0.5,0.7,0.5,1.2c0,0.3-0.1,0.5-0.3,0.9
		c-0.1,0.5-0.3,0.8-0.3,1.1c-1.3,3.8-2.1,6.2-2.1,7.5c0,1.6,0.3,2.6,0.9,3.3c0.1,0,0.5-0.3,1.3-0.7c0.7-0.4,1.1-0.5,1.2-0.5
		c0,0.1,0,0.4,0,0.5C329.4,394.6,329.1,395,328.7,395.3z"/>
	<path d="M341.5,385.9c-0.3,1.2-0.5,2.2-0.7,3.3c-0.3,1.5-0.4,2.5-0.4,3.3c0,1.5,0.4,2.8,1.2,4c-0.4,0.1-0.7,0.1-0.9,0.1
		c-0.5,0-0.9-0.1-1.3-0.5c-0.7-1.2-0.9-2.5-0.9-4.1c0-1.1,0.1-2.2,0.5-3.7l0.7-3.6v-0.1c-1.3,1.1-2.8,2.8-4.5,5.2
		c-1.7,2.6-3.2,4.4-4.2,5.3c-0.5,0.3-0.9,0.3-1.3,0.3c-0.3,0-0.4,0-0.7-0.1c-0.5-0.4-0.8-1.2-0.5-2.2c0.4-1.5,0.9-3.4,1.6-5.8
		c0.7-2.2,1.1-4.2,1.2-5.9c0.3-0.3,0.5-0.5,0.9-0.5s0.7,0.1,0.9,0.5c0.3,0.4,0.4,0.8,0.4,1.1l-2.2,9.1c0.1-0.4,0.5-0.8,1.1-1.5
		c1.7-2.4,2.9-4,3.4-4.6c1.3-1.6,2.8-2.9,4.4-3.8c1.2,0,1.7,0.7,1.7,1.8c0,0.3,0,0.7-0.1,1.2C341.7,385.4,341.5,385.8,341.5,385.9z"
		/>
	<path d="M381,383.1c-0.3,0.4-0.5,0.9-0.7,1.3c-0.3,0.1-1.1,0.8-2.1,2.2c-0.7,0.9-1.3,1.7-2.1,2.6c-0.1,0.3-0.5,0.9-1.1,1.7
		c-0.1,0.3-0.3,0.5-0.7,0.8c0.4,0.3,0.8,0.4,1.2,0.7c1.2,0.8,2.1,1.2,3,1.2c0.3,0.1,0.4,0.5,0.5,1.1c0,0.1,0.1,0.3,0.3,0.7
		c-0.3,0.1-0.8,0.3-1.7,0.3c-2-0.8-3.7-1.6-5-2.4c-2.4,2.4-4.9,4.6-7.5,6.6c-1.7,1.3-3.4,2-5.3,2c-1.2,0-2.4-0.3-3.6-0.9
		c-0.7-0.4-0.9-1.3-0.5-3c0.4-0.7,0.9-1.6,1.5-2.9c0.8-1.2,2.1-3,3.7-5.5c1.2-2,2.2-3.8,3.2-5.8c0.9-1.2,1.3-2.5,1.3-4.2
		c0-0.7-0.1-1.6-0.3-2.9c-0.1-1.3-0.3-2.2-0.3-2.9c0-0.7,0.3-2.1,0.7-4.2c0.3-0.9,0.5-1.7,1.2-2.5c0.5,0,0.9,0.1,1.5,0.5
		c0.3,0.4,0.7,0.8,0.9,1.2c0.3,0.7,0.4,1.5,0.4,2.2c0,0.9-0.3,2.2-0.8,4c-0.5,1.7-0.8,3-0.8,4c0,1.1,0.3,2.1,0.9,3
		c0.4,0.5,0.9,2,1.6,4.2c0.5,1.7,1.5,3,2.5,3.8c0.8-0.4,1.6-1.1,2.4-2c0.4-0.4,0.8-0.8,1.2-1.1c1.2-1.3,2.1-2.4,2.8-2.9
		c1.2-1.1,2.5-2.1,4.2-3.3L381,383.1z M369,388.4c-0.5-1.1-1.1-2-1.6-2.6c-0.1-0.7-0.1-0.9-0.1-1.1c-0.1-0.4-0.4-0.5-0.9-0.5
		c-0.5,0.3-1.2,1.2-1.7,2.5c-0.4,0.1-0.7,0.7-0.9,1.3c-0.3,0.7-0.7,1.1-1.1,1.2c-0.3,1.1-1.2,2.6-2.5,4.8c-1.2,1.7-1.7,3.4-1.7,5.3
		c0.5,0.3,1.1,0.3,1.5,0.3c0.4,0,0.9-0.1,1.5-0.4c0.9-0.4,1.5-0.7,1.7-0.7c3.2-2.5,5.7-4.9,7.8-7.3
		C370.2,390.5,369.5,389.5,369,388.4z"/>
	<path d="M404.2,380.9c4-0.1,6.9,0.9,8.8,3.2c0.5,0.8,0.8,1.7,0.8,2.6c0,0.5-0.1,1.1-0.4,1.7c-0.3,0.1-0.4,0.4-0.5,0.7
		c-0.1,0.4-0.4,0.5-0.5,0.7l-0.3,0.8c-0.3,0.4-0.8,0.9-1.6,1.6c-0.8,0.7-1.3,1.1-1.6,1.5c-3,2.1-5.9,3.2-8.7,3.2
		c-1.2,0-2.2-0.1-3.2-0.5c-0.4-0.4-0.8-0.7-1.3-1.2c-0.4-0.4-0.7-0.9-0.7-1.5c0.4-0.3,0.7-0.3,0.9-0.1c0.3,0.1,0.4,0.1,0.5,0.1
		c0.5-2.4,1.3-5.5,2.5-9.8c0.1-0.3-0.1-0.5-0.4-0.9c-0.3-0.4-0.5-0.7-0.5-0.8c0-0.3,0.1-0.4,0.5-0.7c0.8-0.4,1.3-1.2,1.6-2.5
		c0.4-1.6,0.7-2.6,0.8-3c0-0.1,0-0.1,0-0.3v-0.1l0.1-0.3c0-0.1,0-0.4-0.1-0.5c0.4-0.4,0.7-1.1,0.8-2c0.1-0.9,0.4-1.5,0.5-2
		c0.4-0.5,0.9-0.8,1.5-0.8c0.1,0,0.3,0,0.4,0.1c0.4,0.3,0.7,0.7,0.7,1.1c0,0.3-0.1,0.8-0.5,1.3c-0.4,0.5-0.5,1.1-0.5,1.5
		c-0.3,0.9-0.7,2.2-1.2,4.1c0,0.1,0,0.4-0.1,0.7c-0.1,0.3-0.3,0.4-0.3,0.5c4.1-2,7.3-4.2,9.4-6.6c0.4-0.3,0.7-0.8,0.8-1.5
		c-0.9-0.8-2.2-1.2-4.1-1.2c-0.9,0-2.4,0-4.4-0.1c-0.3,0-0.8,0-1.5,0.1c-0.8,0.1-1.3,0.3-1.6,0.3c-0.9,0-1.6-0.3-2-0.9
		c-0.1-0.1-0.1-0.3-0.3-0.5c0-0.1,0-0.1,0-0.3c0-0.3,0.1-0.4,0.3-0.5s0.5-0.3,1.2-0.4l0.5-0.1c0.1,0.3,0.3,0.4,0.5,0.4
		c0.1,0,0.3-0.1,0.5-0.3c0.3-0.1,0.5-0.3,0.7-0.3c0.4,0,0.7,0.1,1.1,0.4h5.3c2.1,0.1,3.8,0.5,5,1.3c0.8,0.9,1.2,1.7,1.2,2.5
		c-0.4,0.5-0.9,1.3-1.7,2.4c0,0.3-0.3,0.5-0.8,0.8c-0.4,0.5-2.1,1.8-5.3,4.2c-0.4,0.1-0.9,0.4-1.5,0.7c-0.8,0.5-1.2,0.8-1.5,0.9
		C404.3,380.8,404.3,380.8,404.2,380.9L404.2,380.9z M401.8,383.7l0.3,0.3c-0.3,0.1-0.4,0.3-0.5,0.3c-0.1,0-0.1,0-0.3,0
		c-0.1,0.8-0.5,2.1-1.1,3.7c-0.1,0.5-0.3,1.6-0.7,2.9c-0.4,1.3-0.7,2.4-0.7,3c0,0.3,0,0.5,0.1,0.8c0.4,0.1,1.1,0.1,1.7,0
		c1.1-0.3,1.7-0.3,1.7-0.3c2.6-1.3,4.4-2.2,5.4-3c2-1.5,3.2-3,3.6-4.9c-0.9-2.1-2.5-3-4.6-2.8c-0.4-0.3-0.9-0.4-1.6-0.4h-2
		C403.1,383.4,402.6,383.5,401.8,383.7z"/>
	<path d="M420.5,394.8c-0.1,1.1-0.7,1.6-1.6,1.6c-0.5-0.3-0.8-0.5-0.8-0.8c-0.1-0.4-0.1-0.7-0.1-0.9c0-0.9,0.4-1.5,1.2-1.5
		c0.3,0.1,0.5,0.1,0.8,0.3c0.3,0.1,0.4,0.3,0.5,0.5L420.5,394.8L420.5,394.8z"/>
	<path d="M454.7,371.7c-0.3,0.9-0.5,1.6-0.7,1.8c-0.3,0.7-0.7,1.3-0.9,1.7c-0.1,0.1-0.7,2.2-2,6.3c-1.1,3.2-2,6.2-3.2,8.7l-1.6,3.7
		c-0.3,0-0.5,0.1-0.8,0.4c-0.3,0.3-0.7,0.4-0.9,0.3c-0.7-0.5-1.6-2.1-2.8-4.6c-0.1-0.7-0.4-1.5-0.7-2.4c-0.5-1.8-1.1-4.1-1.2-6.5
		c-0.1-1.6-0.3-2.9-0.4-3.8c-0.3,0.1-0.4,0.4-0.5,0.8c-0.3,0.5-0.4,0.8-0.5,0.9c-0.8,2.2-2.1,5.3-3.8,9.1c-0.8,1.7-1.5,3-1.8,4
		c-0.8,1.6-1.5,2.8-2.1,3.7c-0.1,0-0.4,0.1-0.8,0.3c-0.3,0.1-0.5,0.3-0.8,0.3c-0.1,0-0.3,0-0.5,0c-1.3-2.1-2-4.1-2-5.7
		c0-0.4,0-0.7,0-0.9c-0.1-0.8-0.3-3.4-0.4-7.8c-0.1-3.2-0.4-5.8-1.1-7.7c-0.1-0.1-0.1-0.3-0.1-0.5c0-0.3,0-0.5,0-0.8
		c0.3,0,0.5-0.1,0.9-0.4c0.4-0.3,0.8-0.3,1.2,0c0.1,0.3,0.3,0.7,0.4,1.3c0.1,0.7,0.3,1.2,0.4,1.3c0.1,0.3,0.3,0.5,0.3,0.8
		c0,0.1,0,0.4-0.1,0.5c-0.1,0.3-0.1,0.4-0.1,0.5c0,0.3,0.1,0.5,0.3,0.7c-0.1,0.5-0.1,1.2,0,1.8c0.1,1.1,0.1,1.7,0.1,1.8
		c0,0.4,0,0.8,0,1.2c0.1,0.7,0.1,1.5,0,2.5c-0.1,1.3-0.1,2.1-0.1,2.5c0.1,0.3,0.3,1.3,0.5,3c0.3,1.2,0.5,2.2,0.8,2.9
		c2.4-4.1,4.6-8.5,6.9-13.1c0.3-0.8,0.7-1.8,1.3-3.3c0.7-1.5,1.2-2.5,1.3-3.2c0.4-0.1,0.7-0.1,0.9-0.1c0.9,0,1.3,0.4,1.5,1.2
		c0.1,0.8,0.3,2,0.4,3.7c0.1,1.5,0.3,2.8,0.3,3.8c0,0.1,0.4,1.6,1.2,4.6c0.4,1.8,1.1,3.3,1.8,4.4c0.1-0.3,1.1-2.5,2.6-6.6
		c2.6-6.7,5.4-12.8,8.2-18.2c0.1,0,0.4,0,0.8,0h0.7c-0.5,1.3-0.9,2.1-1.2,2.6C455.9,370.2,455.4,371,454.7,371.7z"/>
	<path d="M458.8,394.8c-0.1,1.1-0.7,1.6-1.6,1.6c-0.5-0.3-0.8-0.5-0.8-0.8c-0.1-0.4-0.1-0.7-0.1-0.9c0-0.9,0.4-1.5,1.2-1.5
		c0.3,0.1,0.5,0.1,0.8,0.3c0.3,0.1,0.4,0.3,0.5,0.5L458.8,394.8L458.8,394.8z"/>
	<path d="M480.6,383.8c-0.4,0-1.1,0.3-1.8,0.5c-0.1,0.4-0.3,0.9-0.7,1.3l-0.9,3.4c-0.4,1.5-0.8,2.6-1.3,3.3
		c-0.3,0.8-0.3,1.3-0.3,1.8s0.1,0.8,0.4,1.1c0.3,0.3,0.4,0.4,0.4,0.5c0,0.1,0,0.3-0.1,0.4c-0.4,0.3-0.7,0.4-1.1,0.3
		c-0.4-0.1-0.7-0.1-1.1-0.3c-0.3-0.8-0.5-1.6-0.5-2.5c0-1.1,0.3-2.6,0.9-4.6c0.8-2.5,1.2-4.1,1.3-4.8c0.3-0.1,0.3-0.3,0.3-0.3
		c-0.1-0.3-0.3-0.4-0.3-0.5c-1.2-0.4-1.6-1.1-1.5-1.8c0.3-0.3,0.7-0.5,1.1-0.5c0.1,0,0.3,0,0.5,0c0.3,0,0.4,0,0.5,0
		c0.3,0,0.5-0.3,0.7-0.7c0.3-0.9,0.9-2.8,2.1-5.5l1.7-8.1c0.1-0.3,0.7-0.5,1.7-0.7l1.5,1.2c-0.3,0.3-0.5,0.5-0.5,0.7
		c-0.1,0.3-0.1,0.5-0.3,0.7c-0.3,1.5-0.7,2.9-1.5,4.5c0.1,0.5-0.1,1.2-0.4,2.1c-0.4,0.9-0.5,1.6-0.7,2c-0.4,0.9-0.9,2.2-1.3,4
		c1.8-0.3,5.7-0.9,11.2-2.1c0.1-0.1,0.3-0.4,0.5-0.8c0.1-0.4,0.4-0.8,0.5-0.9c0.8-2.2,2.1-5.7,3.8-10.2c0.1-0.1,0.3-0.4,0.5-0.8
		c0.1-0.4,0.4-0.7,0.7-0.8c0.1-0.9,0.5-1.3,1.2-1.2c0.5,0,0.9,0.4,1.2,1.1c0.1,0.1,0.3,0.3,0.4,0.5c-0.7,0.7-1.2,1.7-1.7,2.9
		c-0.5,1.5-0.9,2.4-1.5,3c-0.3,0.9-0.9,2.8-2.2,5.8c-0.1,0.3-0.3,0.7-0.3,1.3c0,0.7-0.1,1.1-0.5,1.2c-1.8,4.6-2.8,8.3-2.8,11.1
		c0,1.3,0.1,2.5,0.5,3.6c0.1,0,0.1,0,0.4,0h0.1c0.5,0,0.8,0.3,0.7,0.7c-0.1,0.3-0.5,0.5-1.2,0.7c-0.1,0-0.3,0-0.5,0.1
		c-1.6-1.3-2.4-3.3-2.4-5.8c0-1.6,0.3-3.4,0.9-5.4l1.1-3.8c-1.1,0.1-2.2,0.4-3.8,0.8l-3.7,1.1c-0.1,0-0.4,0.1-0.7,0.3
		c-0.3,0.3-0.4,0.3-0.7,0.3C481.3,384.1,481,383.9,480.6,383.8z"/>
	<path d="M506.4,395.3c-0.4,0.1-1.1,0.5-1.8,0.9c-0.4,0-1.2-0.3-2.1-0.8c0-0.3-0.1-0.8-0.4-1.3c-0.3-0.7-0.4-1.2-0.4-1.6
		c-0.3,0.3-0.5,0.5-0.5,0.8c-1.3,1.6-2,2.5-2.2,2.6c-1.1,0.8-2.1,1.2-3.2,1.1c-0.9-0.7-1.5-1.7-1.5-3.2c0-2.4,0.3-4.2,0.7-5.5
		c1.2-3.3,3.6-6.2,7.1-8.7h0.8c0.8,0,1.2,0.5,1.2,1.5c0,0.3-0.1,0.9-0.3,1.8c-0.1,0.4-0.5,1.1-1.2,1.7c-0.1,0.3-0.5,0.5-1.2,0.7
		c0.1-0.9,0.4-1.6,0.8-2.1c0-0.1,0.1-0.4,0.3-0.8c0-0.1,0-0.1,0-0.3c0-0.1,0-0.3,0-0.4c0.1-0.1,0.3-0.3,0.3-0.4
		c-0.3,0-0.5,0.3-1.1,0.9c-0.1,0.1-0.3,0.3-0.5,0.5c-3.6,4.1-5.4,7.7-5.4,11c0.1,1.1,0.4,1.6,0.9,1.6c1.2-0.3,2.2-1.2,3-2.6
		c0.9-0.8,1.8-2.4,2.6-4.6c0.4-0.8,1.1-3,2.1-6.5c0.1-0.3,0.5-0.5,1.2-0.8c0.3,0.4,0.5,0.7,0.5,1.2c0,0.3-0.1,0.5-0.3,0.9
		c-0.1,0.5-0.3,0.8-0.3,1.1c-1.3,3.8-2.1,6.2-2.1,7.5c0,1.6,0.3,2.6,0.9,3.3c0.1,0,0.5-0.3,1.3-0.7c0.7-0.4,1.1-0.5,1.2-0.5
		c0,0.1,0,0.4,0,0.5C506.9,394.6,506.8,395,506.4,395.3z"/>
	<path d="M513.1,380.6c0.4,0.7,0.7,1.5,0.7,2.5c0,1.2-0.3,2.4-0.9,3.7c0,0.4-0.1,1.2-0.4,2.1c-0.3,0.9-0.3,1.7-0.3,2.2
		c1.1-1.3,2.8-3.3,5-5.8c1.8-2.1,3.7-3.8,5.5-5c1.1,0.4,1.5,1.2,1.5,2.5c0,0.3,0,0.8-0.1,1.6c-0.1,0.7-0.1,1.2,0,1.6
		c-0.4,1.3-0.9,3.4-1.7,6.3h0.1c0.9-0.9,2.1-2.4,3.4-4.4c1.3-2,2.4-3.4,3.3-4.1c1.6-1.5,2.5-2.2,2.8-2.5c0.4-0.3,1.2-0.8,2.4-1.5
		c0.5,0,0.9,0.3,1.2,0.9c0.1,1.3-0.1,2.8-0.7,4.4c-0.9,2.4-1.3,3.8-1.5,4.2c-0.7,3.8-1.1,6.3-0.9,7.7l0,0c0.1,0,0.4,0.1,0.7,0.3
		c-0.1,0.4-0.3,0.8-0.5,0.9c0,0-0.4,0.1-1.1,0.4c-0.8-0.7-1.2-1.7-1.2-3.2c0-0.4,0-1.1,0.1-1.7c0.1-0.8,0.1-1.3,0.1-1.7
		c0.3-1.2,0.7-2.8,1.3-4.6c0.8-2.2,1.3-3.8,1.5-4.6h-0.1c-0.1,0.1-0.3,0.3-0.4,0.5c-0.1,0.3-0.3,0.4-0.3,0.4
		c-0.7,0.4-1.2,0.9-1.6,1.6c-0.9,1.2-1.6,2-2.1,2.5c-1.1,1.3-2.4,3-4.4,5.3c-0.9,1.1-1.5,1.7-1.8,2c-1.1,0.9-2,1.5-2.5,1.3
		c-0.1-0.3-0.1-0.5,0-0.9c0.1-0.5,0.1-0.9,0.1-1.1c0-0.5,0.1-1.6,0.4-3.3c0.1-0.5,0.4-1.6,0.9-3.2c0.1-0.4,0.3-0.8,0.3-1.2
		c0-0.3,0-0.7,0-1.1c0-0.4,0-0.8,0-0.9c0-0.3,0-0.7,0-0.9c-0.7,0.4-1.6,1.3-2.5,2.5c-1.1,1.5-1.8,2.4-2.4,2.8
		c-0.7,1.1-1.7,2.2-3.3,3.6c-1.3,1.2-2.2,2.4-2.8,3.3c0-0.1-0.1,0-0.4,0.3c-0.3,0.3-0.4,0.3-0.4,0.3c-0.1,0-0.1,0-0.3,0
		c-0.3,0-0.4,0-0.5,0c-0.3,0-0.5-0.1-0.8-0.3c0.1-1.6,0.7-3.7,1.6-6.3c0.9-2.9,1.5-5,1.6-6.3c-0.1-0.8-0.3-1.7-0.5-2.5
		C511.5,380.2,512.2,380.2,513.1,380.6z"/>
	<path d="M540.3,380.6c0.4,0.7,0.7,1.5,0.7,2.5c0,1.2-0.3,2.4-0.9,3.7c0,0.4-0.1,1.2-0.4,2.1c-0.3,0.9-0.3,1.7-0.3,2.2
		c1.1-1.3,2.8-3.3,5-5.8c1.8-2.1,3.7-3.8,5.5-5c1.1,0.4,1.5,1.2,1.5,2.5c0,0.3,0,0.8-0.1,1.6c-0.1,0.7-0.1,1.2,0,1.6
		c-0.4,1.3-0.9,3.4-1.7,6.3h0.1c0.9-0.9,2.1-2.4,3.4-4.4c1.3-2,2.4-3.4,3.3-4.1c1.6-1.5,2.5-2.2,2.8-2.5c0.4-0.3,1.2-0.8,2.4-1.5
		c0.5,0,0.9,0.3,1.2,0.9c0.1,1.3-0.1,2.8-0.7,4.4c-0.9,2.4-1.3,3.8-1.5,4.2c-0.7,3.8-1.1,6.3-0.9,7.7l0,0c0.1,0,0.4,0.1,0.7,0.3
		c-0.1,0.4-0.3,0.8-0.5,0.9c0,0-0.4,0.1-1.1,0.4c-0.8-0.7-1.2-1.7-1.2-3.2c0-0.4,0-1.1,0.1-1.7c0.1-0.8,0.1-1.3,0.1-1.7
		c0.3-1.2,0.7-2.8,1.3-4.6c0.8-2.2,1.3-3.8,1.5-4.6h-0.1c-0.1,0.1-0.3,0.3-0.4,0.5c-0.1,0.3-0.3,0.4-0.3,0.4
		c-0.7,0.4-1.2,0.9-1.6,1.6c-0.9,1.2-1.6,2-2.1,2.5c-1.1,1.3-2.4,3-4.4,5.3c-0.9,1.1-1.5,1.7-1.8,2c-1.1,0.9-2,1.5-2.5,1.3
		c-0.1-0.3-0.1-0.5,0-0.9c0.1-0.5,0.1-0.9,0.1-1.1c0-0.5,0.1-1.6,0.4-3.3c0.1-0.5,0.4-1.6,0.9-3.2c0.1-0.4,0.3-0.8,0.3-1.2
		c0-0.3,0-0.7,0-1.1c0-0.4,0-0.8,0-0.9c0-0.3,0-0.7,0-0.9c-0.7,0.4-1.6,1.3-2.5,2.5c-1.1,1.5-1.8,2.4-2.4,2.8
		c-0.7,1.1-1.7,2.2-3.3,3.6c-1.3,1.2-2.2,2.4-2.8,3.3c0-0.1-0.1,0-0.4,0.3c-0.3,0.3-0.4,0.3-0.4,0.3c-0.1,0-0.1,0-0.3,0
		c-0.3,0-0.4,0-0.5,0c-0.3,0-0.5-0.1-0.8-0.3c0.1-1.6,0.7-3.7,1.6-6.3c0.9-2.9,1.5-5,1.6-6.3c-0.1-0.8-0.3-1.7-0.5-2.5
		C538.7,380.2,539.4,380.2,540.3,380.6z"/>
	<path d="M573.9,393.2l-0.1,0.1c-0.1,0.1-0.3,0.3-0.3,0.5c-2.8,2.1-5,3.2-6.6,3.3c-0.9,0-1.8-0.1-2.8-0.5c-0.8-0.4-1.3-0.9-1.6-1.6
		c-0.3-0.5-0.4-1.5-0.5-2.8c1.1-5.4,3.7-9.6,7.8-12.7c0.1,0,0.5-0.1,1.2-0.3c0.5-0.1,1.1,0,1.3,0.3c0.3,0.3,0.5,0.8,0.5,1.3
		c-0.1,0.4-0.1,0.9-0.1,1.3c-0.5,2-2.6,4.2-5.9,6.9c-0.3,0.1-0.8,0.4-1.7,0.5c-0.5,0.1-0.8,0.4-0.8,0.9c-0.4,0.8-0.7,1.5-0.5,2.1
		c0,0.3,0.1,0.8,0.4,1.6c0.5,0.8,1.6,1.2,2.9,1.2l0.3-0.1c0.5,0,1.3-0.1,2.2-0.5c0.9-0.5,2.5-1.5,4.6-2.5c0,0.1,0,0.3,0,0.4
		C574.1,392.8,574,393.1,573.9,393.2z M570.8,382c-0.1-0.1-0.3-0.3-0.4-0.3c-1.8,1.2-3.4,3-4.8,5.7c0.1,0,0.4-0.1,0.5-0.3
		c0.9-0.8,1.7-1.6,2.6-2.4C569.9,383.7,570.4,382.8,570.8,382z"/>
	<path d="M576.9,384.6c1.1-1.5,2.2-2.8,3.4-4.1c1.2-1.2,2.5-2,4-2.1c0.7-0.1,1.3,0,1.8,0.3c0.4,0.5,0.7,1.1,0.7,1.6
		c0,0.3-0.1,1.2-0.4,2.8l-0.7,0.1c-0.1-0.3-0.3-0.9-0.3-2.1c-0.1-0.7-0.3-1.1-0.5-1.3c-1.7,0.5-3.3,1.6-4.6,3.2
		c-0.7,0.7-1.3,1.3-2,2.1c-0.7,0.8-1.2,1.6-1.5,2.4c-0.3,0-0.5,0.5-0.7,1.3c-0.1,0.7-0.3,1.1-0.5,1.2c-0.3,0.5-0.8,1.7-1.5,3.4
		c0,0.3,0,0.8,0,1.7c-0.1,0.7-0.5,1.2-1.1,1.3c-0.1-0.3-0.3-0.3-0.4-0.3c-0.1,0.1-0.3,0.3-0.5,0.3s-0.5-0.3-0.7-0.7
		c0.5-2,1.7-6.6,3.6-13.7c-0.1-0.3-0.3-0.5-0.3-0.8c0-0.4,0.3-0.7,0.7-0.7c1.2-0.3,1.7,0,1.8,0.7c0,0.1,0,0.3-0.1,0.5
		c-0.1,0.3-0.1,0.8-0.1,1.3c-0.3,0-0.3,0.1-0.4,0.1c0,0.1,0,0.3,0,0.5l-0.1,0.5C576.9,384.5,576.9,384.6,576.9,384.6z"/>
</g>
<g>
	<path d="M308.8,818.8h-2.9c-1.1,0-1.8-0.1-2.2-0.5c-0.5-0.3-0.7-0.9-0.7-1.8c0-0.9,0.1-1.5,0.4-1.7c0.3-0.3,1.1-0.4,2.2-0.4
		c1.2,0,1.8-0.5,1.8-1.6c0-6.2-0.5-15.5-1.5-27.9c-0.9-12.3-1.5-21.4-1.5-27.3l0.1-3.4c0-2.9-1.1-4.5-3.3-4.5l-2.2,0.1
		c-1.8,0-2.8-0.7-2.8-2c0-1.7,2.5-2.5,7.7-2.5c2.6,0,4.4,0.5,4.9,1.6c-0.4,1.7-0.5,3.3-0.5,4.8c0,1.5,0.3,4.1,0.7,7.9
		c0.5,3.8,0.7,7.5,0.7,11s0.4,10.2,1.1,20.2c0.7,10,1.1,17.6,1.1,22.6v0.7c1.5-0.1,2.6-0.3,3.6-0.3l0,0c2.8,0,4.1,0.8,4.1,2.4
		C319.8,817.8,316.2,818.8,308.8,818.8z"/>
	<path d="M340.5,752.4l-1.2,54.9l-0.7,6.9v1.8c0,1.1-0.3,2-0.8,2.8c-0.5,0.8-1.3,1.2-2.4,1.2l-1.5-1.7c1.1-2.9,1.5-13.5,1.5-31.7
		l-0.1-11.4c-3.6-0.8-6.5-2.5-8.7-5.2c-2.2-2.6-3.4-5.8-3.4-9.2c0-8.1,1.7-13.5,5.3-16c1.2-0.8,2.5-1.2,4-1.2c3.2,0,5.3,0.7,6.3,2.1
		C339.8,747,340.5,749.3,340.5,752.4z M335.5,771.6c0.3-4.9,0.4-11.4,0.4-19.4c0-1.5-0.3-2.6-0.7-3.4c-0.4-0.8-1.2-1.2-2.4-1.2
		s-2,0.5-2.6,1.6s-1.2,2.4-1.5,4c-0.5,2.9-0.9,5.2-0.9,6.5c0,1.3,0,2.4,0.1,3c0,0.7,0.1,1.2,0.3,1.7c0.1,0.5,0.3,0.9,0.4,1.5
		c0.3,0.5,0.4,0.8,0.5,1.2c0.1,0.3,0.4,0.7,0.8,1.1c0.4,0.4,0.7,0.7,0.8,0.8c0.1,0.1,0.5,0.4,1.1,0.8c0.5,0.3,0.9,0.5,1.1,0.7
		c0.3,0.1,0.7,0.4,1.3,0.7C334.7,771.2,335.2,771.3,335.5,771.6z"/>
	<path d="M356.3,818.8h-2.9c-1.1,0-1.8-0.1-2.2-0.5c-0.5-0.3-0.7-0.9-0.7-1.8c0-0.9,0.1-1.5,0.4-1.7c0.3-0.3,1.1-0.4,2.2-0.4
		c1.2,0,1.8-0.5,1.8-1.6c0-6.2-0.5-15.5-1.5-27.9c-0.9-12.3-1.5-21.4-1.5-27.3l0.1-3.4c0-2.9-1.1-4.5-3.3-4.5l-2.2,0.1
		c-1.8,0-2.8-0.7-2.8-2c0-1.7,2.5-2.5,7.7-2.5c2.6,0,4.4,0.5,4.9,1.6c-0.4,1.7-0.5,3.3-0.5,4.8c0,1.5,0.3,4.1,0.7,7.9
		c0.5,3.8,0.7,7.5,0.7,11s0.4,10.2,1.1,20.2c0.7,10,1.1,17.6,1.1,22.6v0.7c1.5-0.1,2.6-0.3,3.6-0.3l0,0c2.8,0,4.1,0.8,4.1,2.4
		C367.3,817.8,363.6,818.8,356.3,818.8z"/>
	<path d="M378.8,791.1l0.9-26.5c0-0.7,0.3-1.2,0.8-1.6c0.5-0.4,1.1-0.5,1.6-0.5l1.5,1.7v4.5c0,9.9,0,17.3-0.1,22.1l2.8-0.3
		c1.8,0,2.9,0.7,2.9,2c0,1.6-1.3,2.4-3.8,2.4c-1.1,0-1.6,0.3-1.6,0.8c0,2.1,0.1,5,0.3,8.8c0.1,3.7,0.4,5.9,0.7,6.7
		c-0.1,0.8-0.1,1.5-0.1,2c0,0.7,0.1,1.2,0.4,1.6v1.7c0,2.4-0.8,3.6-2.2,3.6c-0.9,0-1.7-0.5-2.2-1.5c-0.5-1.1-0.8-2-0.8-3v-0.3
		c0.4-1.2,0.5-2.4,0.5-3.4l-0.7-9.2l0.1-4.1c0-1.1,0-2.1-0.1-2.9l-5.3,0.5l0,0c-1.2,0-2.4-0.5-3.7-1.6c0-1.5,0.1-2.6,0.4-3.7
		c-0.3-1.5-0.4-3.3-0.4-5.4s0.3-5.4,0.7-9.8c0.5-4.4,0.7-7.5,0.7-9.6v-17.6c0-0.7,0.1-1.1,0.3-1.5c0.3-0.3,0.7-0.5,1.5-0.5
		c0.8,0,1.5,0.3,2,0.7c0.5,0.4,0.9,1.1,0.9,1.7l-0.4,7.4v1.7c0,0.7,0,1.2,0.1,1.7v0.3c0.1,1.7,0.3,3.6,0.3,5.8
		c0,2.2-0.3,5.9-0.7,11.4c-0.4,5.4-0.7,8.8-0.7,10.6s0,2.9,0.1,3.6C376.4,791.7,377.6,791.4,378.8,791.1z"/>
</g>
</svg>
