<?xml version="1.0" encoding="utf-8"?>
<!-- Generator: Adobe Illustrator 18.0.0, SVG Export Plug-In . SVG Version: 6.00 Build 0)  -->
<!DOCTYPE svg PUBLIC "-//W3C//DTD SVG 1.1//EN" "http://www.w3.org/Graphics/SVG/1.1/DTD/svg11.dtd">
<svg version="1.1" id="Layer_1" xmlns="http://www.w3.org/2000/svg" xmlns:xlink="http://www.w3.org/1999/xlink" x="0px" y="0px"
	 viewBox="626.2 417.6 150.7 132.3" enable-background="new 626.2 417.6 150.7 132.3" xml:space="preserve">
<path fill-rule="evenodd" clip-rule="evenodd" fill="none" stroke="#000000" stroke-width="4.8882" stroke-miterlimit="10" d="
	M657.8,495.9c-0.8,0.3-1.6,0.5-2.4,0.8c-2.9,0.9-5.8,1.6-8.9,1.8c-2.3,0.2-4.6,0.3-6.9,0.2c-2.9-0.1-5.7-0.6-8.5-1.4
	c-1.8-0.5-2.6-2-2.4-4c0.3-2.7,0.8-5.3,1.6-7.8c1.9-6,5.3-11,9.6-15.5c4.4-4.5,9.2-8.3,14.8-11.2c2.1-1.1,4.5-2,6.7-3
	c0.2-0.1,0.3-0.1,0.5-0.2c-0.1-0.2-0.2-0.3-0.3-0.4c-1.8-2.1-2.8-4.5-3.1-7.2c-0.4-4,0.7-7.5,3.5-10.4c0.8-0.8,1.2-1.7,1.5-2.7
	c1-3.8,3.1-6.9,6.4-9c4.5-2.9,9.2-2.9,13.8-0.1c0.2,0.1,0.4,0.2,0.6,0.4c0.2-0.3,0.4-0.6,0.5-0.8c1.4-2.4,3.5-3.8,6.2-4.3
	c1.4-0.3,2.9-0.1,4.2,0.4c0.4,0.1,0.8,0.1,1.2-0.1c1.4-0.7,2.9-1.1,4.4-1.2c2.9-0.2,5.4,0.8,7.6,2.5c0.7,0.5,1.2,1.2,1.9,1.8
	c0.2,0.2,0.6,0.3,0.9,0.3c1.9-0.2,3.7-0.1,5.5,0.6c0.5,0.2,0.8,0.1,1.2-0.2c2.2-1.5,4.6-2.2,7.2-2.1c4.4,0.1,8,1.9,10.6,5.6
	c0.3,0.4,0.7,0.7,1.2,0.8c3.5,0.6,6.5,3.6,7.1,7.1c0.2,1.3,0.2,2.6-0.1,3.9c-0.1,0.4-0.1,0.8,0.1,1.2c0.9,2.2,1.3,4.5,1.1,6.8
	c-0.2,2.4-0.9,4.6-2.2,6.6c-0.1,0.1-0.2,0.3-0.3,0.4c0,0,0,0.1,0,0.2c0.3,0.1,0.7,0.3,1,0.4c6.4,2.3,12.4,5.4,17.7,9.7
	c6.3,5,10.8,11.3,12.9,19.1c0.5,1.9-0.1,3.4-1.9,4.3c-3.8,1.9-7.8,3.1-12,3.8c-2.7,0.4-5.4,0.6-8.1,0.5c-3-0.1-6-0.5-9-1.2
	c-0.2,0-0.4-0.1-0.7-0.1c0.1,1.1,0.2,2.1,0.3,3c0.1,1.9,0.3,3.8,0.4,5.6c0.1,2.3,0.1,4.5,0.1,6.8c-0.2,9.1-3.2,17.2-9,24.3
	c-5.7,6.9-12.9,11.4-21.4,14.1c-3.1,1-6.3,1.6-9.5,1.8c-12.1,0.7-22.6-2.9-31.4-11.2c-5.3-5-9.2-11-11.8-17.8
	c-1.1-3-1.8-6.2-2.2-9.4c-0.2-1.9-0.4-3.8-0.4-5.7c-0.1-2.3,0-4.7,0.1-7C657.9,496.1,657.8,496,657.8,495.9z"/>
</svg>
