<?xml version="1.0" encoding="utf-8"?>
<!-- Generator: Adobe Illustrator 18.0.0, SVG Export Plug-In . SVG Version: 6.00 Build 0)  -->
<!DOCTYPE svg PUBLIC "-//W3C//DTD SVG 1.1//EN" "http://www.w3.org/Graphics/SVG/1.1/DTD/svg11.dtd">
<svg version="1.1" id="Layer_1" xmlns="http://www.w3.org/2000/svg" xmlns:xlink="http://www.w3.org/1999/xlink" x="0px" y="0px"
	 viewBox="389.4 243 623.1 481.5" enable-background="new 389.4 243 623.1 481.5" xml:space="preserve">
<g id="XN9pF0.tif">
	<g>
		<path fill="none" stroke="#000000" stroke-width="2.7777" stroke-miterlimit="10" d="M637.3,594.1c0.4-0.5,0.7-1.1,1.2-1.5
			c1.4-1.4,2.8-3.3,5.2-2.5c2.3,0.8,2.1,3,2.2,4.9c0,0.8-0.3,1.9,0.8,2.2c1,0.2,1.6-0.7,1.9-1.5c1.8-5.3,4.1-10.5,2.8-16.3
			c-0.6-2.8-1-5.3,1.6-7.3c1.2-0.9,1-2.4,0.9-3.6c-0.2-2.3,0.9-3.5,3.2-4.1c4.9-1.3,7.9-5.4,7.9-10.3c0-1.2-0.2-2.6,0.3-3.5
			c3.8-6.5,0-12.4-2-18.1c-1.9-5.4-1.8-6.8,3.8-7.8c2.8-0.5,5.4-5.7,4.8-9.5c-0.5-3.2-1.9-5.9-4.9-7.6c-4.4-2.5-6.2-5.9-4.8-11.1
			c0.8-2.9,1-5.9,2.1-8.8c1.5-3.8,0.2-7.4-1.2-10.7c-2.4-5.8-1-11.5,0.1-17.1c0.5-2.6,0.9-4.8-0.3-7.2c-0.8-1.5-1.3-3.1-0.6-4.7
			c2.8-6.4,3.7-13.5,7.9-19.3c5.3-7.3,12.2-9.9,20.6-6.7c2.4,0.9,3.7,0.5,4-2.2c0.2-1.4,0.4-2.8,0.7-4.2c1.1-5.6,1-5.8-3.9-8.3
			c-2.5-1.3-3-3.1-1.4-6c2.2-4.2,4.4-8.4,6.8-12.5c2.8-4.9,4.5-10,4.4-15.7c-0.1-4.5,2.6-8.7,1.9-13.4c-0.3-1.8-0.5-3.6-0.6-5.5
			c-0.3-3.2,0.8-4.8,3.9-4.6c3.7,0.3,5.6-2.4,8.1-4.1c1-0.7,0.6-1.7,0.4-2.7c-0.5-2.2-0.1-4.3,1.4-6.1c4.4-5.4,6.5-12.1,10.9-17.5
			c2.1-2.4,1.6-5.3-0.3-8.1c-3.4-4.7-3.3-5.9,0.9-10c2.7-2.7,3.7-6.1,4.4-9.6c0.6-3,1.9-5.2,4.8-6.5c0.6-0.3,1.4-0.5,1.6-1
			c1.9-3.8,4.4-2.6,6.9-0.9c2.3,1.6,3.4,1,4-1.7c0.8-3.6,0.4-7.1,0.4-10.7c0-5.1,2.1-6.5,6.7-4.6c0.7,0.3,1.5,0.7,2.1,0.5
			c5.2-1.7,9.4,1.1,14,2.6c1,0.3,2,1,2.9-0.2c0.8-1,1.1-2.2,0.2-3.3c-1.4-1.7-1-3.4-0.2-5.1c0.8-1.8,1.4-3.6,2.2-5.4
			c0.6-1.5,0.3-2.6-0.5-3.9c-3.2-4.7-2.7-5.9,3-6.6c0.5-0.1,1-0.3,1.5-0.5c0.2,0,0.4,0,0.6,0c4,2.1,5,7.5,9.8,8.8
			c0.3,0.1,0.5,0.7,0.6,1.1c0.9,4.4,4.2,6.3,8,7.6c2.8,0.9,5.6,1.6,8.4,2.5c4.6,1.4,8,4.2,9.3,9c0.4,1.5,1.1,2.8,2.1,4
			c4.7,5.5,4.8,12,4,18.5c-0.3,2.4,0,3.6,2.3,4.4c2.9,1,3.2,2.1,1.6,4.7c-2.3,3.8-2.2,4.5,0.9,7.8c0.9,0.9,1.8,1.9,2.6,2.9
			c2.9,3.1,3.6,6.5,1.6,10.4c-1.2,2.2-1.4,4.5-0.8,6.9c0.3,1.4,0.5,2.8,0.1,4.2c-0.9,2.9,0.4,4.8,2.5,6.5c1.8,1.4,3.4,3,4.1,5.3
			c0,1.9,0,3.9,0,5.8c-1.1,2-2.2,2.5-4.7,1.7c-2.6-0.8-5.9-1.7-8,1.8c-0.8,1.4-2.1,0.4-3.1-0.3c-2.3-1.4-5-2.4-6.7,0.2
			c-1.2,1.7-2.7,3.9-2.9,5.7c-0.7,4.5-4.3,6.2-6.9,8.8c-1.2,1.1-2,1.9-1.4,3.5c1,2.7,0,5.6,0.7,8.3c0.3,1.2-0.5,2.3-1.3,3.2
			c-0.8,0.9-1.6,1.7-2,2.9c-2.1,5.8-2,6.4,2.9,10.2c3.7,2.9,4,6.7,0.4,9.7c-4.3,3.7-6.1,8.6-7.9,13.6c-1.5,4.2-5.2,6.3-8.6,8.3
			c-3.2,1.9-5.9,3.7-6.5,7.8c-0.3,2.3-2,2.2-3.6,1c-1-0.7-2.1-1.4-2,0.7c0.1,3.2-1.7,4.7-4.4,5.6c-2.5,0.8-4.1,2-2.7,5
			c0.6,1.3-0.4,2-1.5,2.3c-2.2,0.5-3.9,1.3-3.9,3.9c0,0.5-0.6,1.3-1.1,1.5c-2,0.7-2.6,1.8-1.8,3.9c0.5,1.3-0.7,2.2-2,2.4
			c-1.3,0.2-2.7,0.2-4.4,0.3c2.4,3.8-0.4,7-1.2,10.2c-0.6,2.4-2.9,1.9-4.9,0.9c-0.9-0.5-1.9-1.6-2.8-0.5c-0.7,0.8,0.2,1.8,0.6,2.6
			c1.3,2.2,2.2,4.4,0.5,6.9c-0.5,0.7,0,1.7,0.2,2.5c0.2,1.1,0.7,2.5,0.2,3.1c-2.9,3.7-0.4,6.9,0.6,10.2c0.7,2.3,1,4.1-2.5,3.8
			c-1.8-0.2-1.8,0.9-1.7,2.5c0.6,5.8,2.8,11.4,1.7,17.4c-0.2,0.9-0.1,1.8,0.4,2.5c1,1.6,1,3.1,0.4,4.9c-1.1,3.3-0.3,3.2,2.8,4.6
			c2.4,1.1,4.2,2.8,7.2,2.7c1.1-0.1,2.1,2.2,3.1,3.4c2.5,2.8,6.2,3.8,8.6,6.9c1.7,2.2,1.5,2.9-0.7,3.8c0.8,1.3,1.9,0.7,2.7,0.7
			c1.7-0.1,2.5,0.6,3.1,2.1c1.1,2.8,2.3,5.5,3.7,8c1.1,2,1,3.7-0.7,4.8c-4.5,2.9-7.8,7-11.5,10.7c-0.8,0.2-1.7,0.3-2.5,0.5
			c-2.3,0.5-4.6,0.6-6.6-0.5c-1.7-1,0.3-2.8-0.1-4.2c-0.2-0.5-0.2-1.1-0.3-1.6c-0.5-2-3.6-2.6-2.9-5.3c0.1-0.4-1.3-0.4-1.5,0.3
			c-0.7,1.8-2.6,3.2-1.8,5.6c0.7,2.4-1.2,2.9-2.5,2c-2.2-1.6-4.6,0.2-6.7-0.9c-0.4-0.2-0.8,0.1-1,0.6c-0.2,0.5,0,1,0.4,1.1
			c2.5,0.7,3.5,4.4,6.8,3.7c0.4-0.1,1.3,0.3,1.4,0.6c1,3.2,3.5,1.6,5.3,1.6c1,0,2.2-0.2,3.1-0.6c3-1.1,6.5-0.4,9-2.9
			c0.5,0.1,1.2,0.3,1.6,0.1c0.9-0.4,0.8-2.7,2.4-1.8c1.4,0.7,2.5,2,3.6,3.2c0.8,0.9,0.5,2-0.2,3c-0.8,1.3-1.7,1.5-4.7,1.3
			c1.5,2.2,1.5,3.5-1.4,4.4c-2.9,1-6.2,2.3-5.8,6.5c0.1,1.2-0.8,2.3-2.2,2.3c-1.3,0-2-0.9-2.3-2c-0.3-1-0.3-2.1-0.6-3.3
			c0.6,4.5-2.9,6.7-5.6,8.5c-2.4,1.6-4.7,3.6-7.6,4.7c-1.7,0.6-3,1.9-2.5,4.3c0.4,1.9-1.5,4,0.6,5.8c0.2,0.2,0,1.5-0.4,1.7
			c-2.6,1.8-2.3,4.9-3.5,7.4c-0.4,0.8-0.6,1.6-0.3,2.5c1.2,4.6,0.7,5.2-4.2,5.2c-0.4,1,0.4,1.6,1,2.2c2,2.2,1.9,4.1,1.4,7.2
			c-0.8,4.4-0.4,8.9-2.9,13c0,0.1,0,0.2,0,0.3c2.1,9.2-2.5,16.9-5.5,24.9c-1.2,3.3-1.8,6.7-3,9.9c-1.6,4.3-3.5,5-7.3,2.5
			c-1-0.7-2-0.7-3-0.1c-2.9,1.6-5.9,1.9-9.3,0.9c-2.1-0.6-4.9-1.5-4.5,2.8c0.2,1.9-1.6,2.5-3.3,1.9c-2.9-1.1-4.7,0.1-6.2,2.4
			c-1.7,2.5-2.4,5.1-0.6,7.5c2.1,2.8,2.3,5.2,0.6,8.2c-1.1,2-2.5,3.1-4.3,2.1c-5-2.5-9.2-0.5-13.4,1.8c-0.9,0-1.7,0-2.6,0
			c-2-1.2-4-2.2-6.4-1.6c-1,0.2-2,0-2.5-1.1c-0.5-0.9,0-1.7,0.7-2.3c2.4-1.9,0.8-5.5,3.2-7.4c0.1-0.1-0.1-0.7-0.3-0.9
			c-2.5-1.7-2.4-4.5-3-6.9c-0.9-3.6-3.2-6.3-5-9.3c-0.7-1.2-1.1-2.7-0.1-3.9c1.1-1.3,2.3-0.6,3.6-0.1c0.7,0.3,1.7,1.2,2.2,0.1
			c0.5-1-0.8-1.4-1.4-1.8c-0.4-0.2-0.8-0.4-1.1-0.7c-1.3-0.9-1.9-2.1-1.3-3.6c0.7-1.7,2-1.7,3.5-1.3c1,0.3,2.4,1.4,3-0.4
			c0.4-1.3-0.3-2.7-1.7-3.2c-3.2-1-4.5-3.5-5.1-6.5c-0.3-1.1-1-1.8-1.7-2.6c-4-4.5-5.2-10-5.7-15.8c-0.1-1.1-0.1-3.2-0.9-2.9
			c-3.3,1.2-2.1-1.3-2.2-2.4c-0.1-1.4,0-2.7-0.9-4c-2.6-4-4.9-8.1-0.6-12.5c0.2-0.2,0.1-0.8,0.2-2c-1.3,2.3-2.7,3.4-4.3,1.8
			c-1.7-1.7-0.6-3.2,1.3-4.4c-1.1-0.6-2.8,0.7-3.2-1c-0.7-2.7,2.3-3.2,3.3-4.9c-0.7-0.4-2.1,0.2-2-0.6c0.3-3.8-2.5-3.3-4.7-3.7
			C637.3,609.6,637.3,601.8,637.3,594.1z M749.3,577.3c-1.6-3.6,1-5.5,2.1-7.8c0.7-1.5,3.4-1.5,3.7,0c0.7,2.9,3.4,4.9,3.5,8.1
			c0.1,3.4,0.9,3.9,4.3,3.1c2-0.4,3.7-1.3,5.1-3c2-2.4,4.3-4.5,6.7-6.4c1.9-1.5,4.7-2.4,1.2-5c-0.8-0.6-0.1-1.4-0.2-2.1
			c-0.1-2.5-2.5-3.9-3-6.3c-0.2-1.1-2,0-3-0.3c-1.7-0.4-3.7-1.2-2.3-3.1c2-2.8-0.3-4.1-1.7-4.5c-3-1-4.9-3.3-6.8-5.2
			c-2.7-2.9-6.6-1.9-9.5-4.4c-1.9-1.7-4.1-2.1-3.3-5.1c0.6-2.4,0.9-4.5-0.2-6.8c-0.3-0.6-0.2-1.5-0.1-2.2c0.7-5.9-1.2-11.4-2-17.1
			c-0.2-1.7-0.3-3.5,1.4-3.7c4.8-0.6,2.8-3.3,1.8-5.3c-1.2-2.4-1.5-4.5,0.2-6.7c0.3-0.4,0.6-1.1,0.5-1.5c-1.6-4.3,1.8-9.2-1.7-13.3
			c-0.6-0.7-0.6-1.9,0.3-2.7c0.8-0.8,1.8-0.7,2.7-0.3c0.9,0.4,1.8,0.8,2.7,1.2c0.9,0.4,1.9,0.4,2.3-0.5c0.8-2.2,1.8-4.5,1.7-6.7
			c-0.2-3.9-0.5-3.9,3.6-4.2c1.6-0.1,2.5-0.6,1.7-2.4c-0.6-1.3,0-2.4,1.2-3c3.1-1.6,2.7-6.5,6.9-7c0.1,0,0.4-0.8,0.3-1.2
			c-1-3.4,1.1-4.7,3.8-5.6c2-0.7,3.6-1.7,3.6-4.4c0-3.3,0.9-3.7,3.9-2.2c0.8,0.4,1.6,1.2,1.8-0.4c0.6-4.2,3.5-6.1,6.9-7.9
			c3.2-1.8,6.7-3.8,8.1-7.6c2-5.3,3.9-10.6,8.5-14.5c2.9-2.5,2.6-5.1-0.5-7.3c-4.7-3.3-5.3-5.3-3.5-10.8c1.2-3.6,4.4-6.5,3.2-11
			c-0.3-1.2-0.3-2.7-0.6-4.1c-0.4-2,0.2-3.3,2-4.6c2.8-2,5.4-4.2,6.3-8.1c0.5-2.2,2.1-4.6,3.6-6.6c1.5-2.1,3.5-2.9,6.2-1.3
			c0.9,0.6,2.2,1.7,3.8,0.6c3.1-2.2,6.5-2.3,10-0.9c1,0.4,1.6-0.1,1.7-0.8c0.5-2.7,1-5.9-1.3-7.6c-4.2-3.2-6.3-7-5-12.3
			c0.1-0.3,0-0.7-0.1-1c-0.9-3-0.5-5.7,1-8.4c1.6-2.8,1.1-5.4-1-7.7c-0.9-1-1.9-2.1-2.8-3.1c-3.8-4-3.9-5.1-1.4-9.9
			c0.6-1.1,1.1-2.1-0.5-2.5c-4.1-1-3.9-3.6-3.4-7c0.7-4.9,0.1-10-2.3-14.3c-1.4-2.5-3.3-4.8-4.3-7.6c-1.2-3.5-3.7-5.8-7.2-6.9
			c-2.8-0.9-5.6-1.6-8.4-2.5c-4.4-1.4-8.5-3.3-9.7-8.5c-0.1-0.5-0.5-1.2-0.9-1.3c-3.3-1-4.8-3.6-6.6-6.2c-1.5-2.1-4.4-1.5-6.3-0.5
			c-1.9,1.1,0.2,2.6,0.9,3.7c1.2,1.8,1.3,3.6,0.5,5.5c-0.7,1.8-1.5,3.6-2.3,5.4c-0.4,1-0.9,2,0,3c1.7,1.9,1.2,3.8-0.2,5.5
			c-1.5,1.8-3.2,0.9-5,0.4c-3.5-1-6.7-3.4-10.5-2.6c-2.1,0.4-4,0.4-5.9-0.7c-2.2-1.3-3.5-0.2-3.7,2.1c-0.2,1.7,0,3.5,0.1,5.2
			c0.2,3.2-0.2,6.3-1.3,9.3c-0.6,1.7-1.6,2.8-3.4,1.6c-3.1-2.1-5.4-3-8.7,0.4c-2.1,2.1-4.1,3.7-4.7,6.8c-0.7,3.6-2,7-4.7,9.8
			c-3.3,3.2-3.4,3.9-0.6,7.7c2.5,3.3,2.9,6.8,0.4,9.9c-4.3,5.5-6.7,12.1-10.9,17.5c-1,1.3-1.3,2.7-1.2,4.2c0.2,4.7-3.6,8.8-8.4,9.1
			c-3.9,0.3-4.4,0.7-3.7,4.5c1.5,8.8-1.3,17.1-2.7,25.5c-1.2,7.3-6.1,13.3-9.5,19.8c-1.9,3.7-2,4,1.8,5.8c2.9,1.3,4,3.6,3.6,6.6
			c-0.3,2.5-0.7,4.9-1.2,7.3c-0.8,3.5-2.3,4.4-5.6,2.9c-8.9-4.1-15,0.8-19.3,6.3c-4.4,5.6-4.7,12.7-7.7,18.7
			c-0.5,1.1-0.1,2.2,0.4,3.1c1.6,3,1.1,5.8,0.5,9c-0.9,5.1-2.3,10.2-0.2,15.6c1.4,3.5,2.9,7.4,1.4,11.3c-1.1,3-1.4,6.1-2.2,9.1
			c-1.2,4.6,0.4,7.5,4.2,9.7c3.5,2,5,5.2,5.5,9.1c0.5,4.8-2.6,10.1-6.2,10.8c-4.3,0.7-4,1.1-2.7,5.3c1.9,6.2,6.2,12.3,2.2,19.4
			c-0.5,0.9-0.3,2.3-0.3,3.5c0,4.3-3.1,9.7-7.1,10.9c-3.1,0.9-4.1,2.4-4,5.4c0.1,2.6-4,3.9-2.7,7.2c2.3,6.1-0.6,11.7-2,17.4
			c-0.5,2-2,4.1-4.3,3.8c-2.4-0.3-1.7-2.8-2-4.5c-0.1-0.6-0.1-1.3-0.3-1.9c-0.3-0.8-0.9-1.2-1.8-1c-2.1,0.4-4.5,4-3.4,5.8
			c2.3,3.9,0.6,8.3,1.8,12.4c0.3,1-0.1,2-0.7,2.8c-2.1,2.8-0.7,3.8,2,3.7c3,0,3.9,0.9,2,3.6c6-0.1,7.6,2.3,5.5,7.7
			c-0.2,0.4-0.5,0.8-0.5,1.2c0.1,3.6-3.6,6.1-2.6,10.1c0.5,2,1.8,3.6,2.2,5.5c0.7,3.3,4.3,5.2,4.2,8.9c0,1.3-1.4,2.9-0.5,3.6
			c2.3,1.9,1.7,4.5,2.5,6.8c0.8,2.2,1.3,4.6,3.7,5.8c0.6,0.3,1.1,1.2,1.2,1.8c0.5,3.2,2.1,5.5,5.2,6.8c1.8,0.8,2.3,2.9,1.7,4.8
			c-0.7,2.1-2.4,1.8-4,1.3c-0.8-0.2-1.8-0.7-2.2,0.5c-0.4,1,0.5,1.5,1.2,2c0.5,0.3,1,0.5,1.4,0.8c1.4,1,2.2,2.3,1.2,3.9
			c-0.9,1.5-2.2,0.7-3.5,0.3c-0.9-0.3-1.8-1.4-2.6-0.5c-0.8,0.9,0,2.2,0.6,2.9c3.2,3.5,3.8,8,5.6,12.1c1.3,3.2,3.3,5.3,0.8,9
			c-0.7,1-0.5,3.4-2.8,5c2.6,0,4.5-0.6,6.1,0.5c2.2,1.4,4.2,1.1,6.4,0c2.9-1.4,5.9-2.7,9.3-1.4c4.3,1.6,4.2,1.4,6.1-2.7
			c0.9-2-0.6-3-1.4-4.3c-1.8-3-1.7-5.9,0.2-8.8c1.8-2.7,3.6-5.3,7.5-3.9c1.5,0.5,2.4-0.3,2-1.9c-0.6-2.8,1.2-3,3.2-3.1
			c1.3,0,2.6,0,3.8,0.5c2.5,1,4.9,0.4,7.1-0.6c2.2-1.1,4.2-1.1,6,0.5c1.5,1.4,2.5,0.8,3.4-0.7c0.5-0.8,0.9-1.8,1.1-2.7
			c1.2-5.5,4-10.5,5.4-15.9c1.3-5.4,5.4-10.6,2.7-16.8c-0.2-0.5-0.2-1.4,0.1-1.9c2.4-3.5,3-7.4,2.2-11.5c0-0.2,0-0.5,0.1-0.6
			c2-2.8,0.5-4.8-1.3-7.1c-2-2.6-1.5-3.5,1.8-3.8c1.7-0.2,2.4-0.8,2.1-2.7c-0.6-3.6,0.6-7,2.6-9.9c1.4-2.1,1.6-3.1-0.9-4
			c-0.8-0.3-1.5-1-1.4-2c0.1-1,0.9-0.9,1.7-1c2.2-0.4,1.5-1.7,0.6-2.8c-0.4-0.5-1.3-0.7-2-1c-1.1-0.5-2.4-1.1-1.7-2.6
			c0.7-1.4,2.1-1.2,3.1-0.5c1.8,1.3,3.3,0.9,5-0.2c2.3-1.5,4.9-2.8,6.8-4.5c1.9-1.7,5.1-3,5.1-6.5c0-1.3-0.5-3.3,1.4-3.4
			c2.1-0.1,1.6,2.1,1.9,3.5c0.1,0.3,0,0.7,0.1,1c0.2,0.7,0,1.7,1.1,1.7c0.8-0.1,0.7-0.9,0.8-1.6c0.3-2.9,1.3-5.2,4.6-5.8
			c0.8-0.2,1.5-0.8,2.3-1.2c0.6-0.3,1.3-1,0.7-1.4c-2-1.3-2.3-5.2-6-3.8c-0.9,0.3-1.9,0.6-2.8,0.6c-4.1-0.3-8.8,5.2-12.4-1.2
			c-0.1-0.1-0.4-0.1-0.6-0.1c-1.8,0-3-1-4.1-2.3c-0.7-0.9-1.7-1.4-2.9-1.1c-3.3,1-6.8,0.6-10.2,1c-0.9,0.1-2.2,0.4-2.3-1
			c-0.1-1.2,1.2-1.4,2.1-1.6c2.1-0.4,4.6,0.1,5.5-2.9c0.3-0.9,1.4-0.6,2.3-0.2c0.6,0.3,1.2,1.1,2,0.7
			C742.2,575.2,745.5,575.7,749.3,577.3z"/>
		<path fill="none" stroke="#000000" stroke-width="2.7777" stroke-miterlimit="10" d="M773,634.4c2.4,0.1,4.7-0.1,6.5-2
			c0.6-0.6,1.4-1,2.2-1.2c0.9-0.3,1.7,0.2,2.2,1c0.5,0.9-0.2,1.3-0.8,1.9c-2.2,2.2-4.3,4.4-6.4,6.7c-2.6,2.8-2.6,6.7-0.1,9.4
			c1.6,1.7,1.5,3.1-0.7,3.9c-1.2,0.4-1.9,0.9-2.1,2.4c-0.2,2.1-2,3.5-3.5,4.3c-2.2,1.2-2.9,2.8-3,4.9c-0.1,1-0.2,2-0.8,2.7
			c-0.6,0.7-1.3,1.2-2.3,0.8c-1.1-0.4-1-1.4-0.6-2.2c1.1-1.9,0.3-3.4-0.6-5.1c-1.2-2.3-2.2-4.7-0.8-7.4c0.2-0.4,0.3-0.9,0.2-1.3
			c-1.7-8.2,3.7-13.1,8.5-18.4C771.5,634.2,772.2,634,773,634.4z M779.9,635.1c-2.9-0.6-4.8,3.4-7.6,1.1c-0.1,0-0.4,0.2-0.5,0.3
			c-4.6,4.5-9.6,8.8-7.9,16.4c0.1,0.6,0.1,1.4-0.2,1.9c-1.8,3.4,0.2,5.9,2.2,9c0.6-2.5,2.1-3.6,3.8-4.7c1.1-0.6,2.6-1.8,2.5-2.7
			c-0.1-2.7,1.8-3.5,3.8-4.4c-3.3-2.6-2.9-6.2-2.6-9.3C773.8,639.1,778.1,638.1,779.9,635.1z"/>
		<path fill="none" stroke="#000000" stroke-width="2.7777" stroke-miterlimit="10" d="M729.2,684c1.6-4.8,2.9-9.6,5.7-13.7
			c2.4-3.5,4.7-6.9,5-11.4c0.1-1.3,1-2.6,1.5-3.9c0.3-0.8,0.8-1.3,1.8-0.9c1,0.4,1.4,1.2,1,2.1c-1.2,2.6-0.6,5.8-2.8,8.2
			c-0.6,0.7-1,1.7-1.1,2.7c-0.7,6.8-3.8,13-4.8,19.7c-0.3,2.2-1.2,4.4-2.5,6.3c-0.4,0.5-0.8,1.2-1.5,0.9c-0.4-0.2-0.8-0.8-0.8-1.3
			C730.7,689.7,730.3,686.8,729.2,684z M732.9,691.1c2-7.8,3.5-14.9,5.2-21.9C733.9,675.6,728.8,681.7,732.9,691.1z"/>
	</g>
</g>
<g>
	<path d="M389.4,628.2c0-4.3,1.9-6.4,5.7-6.4c1.9,0,4.4,0.6,7.5,1.8c3.1,1.2,5.8,1.8,8.1,1.8c2.3,0,4.7-1.4,7.4-4.1
		c2.6-2.7,4.7-6.1,6.2-10.2c3.1-8.3,4.6-15.8,4.6-22.4s-1.2-13.8-3.7-21.5c-2.5-7.7-5.5-14.8-9.1-21.5c-3.6-6.7-7.2-13.4-10.8-20.1
		c-8.6-16-12.9-30.6-12.8-43.8c-0.1-12.5,4.1-22.3,12.5-29.4c4.5-3.7,9.7-5.6,15.8-5.6c3.1,0,6,0.8,8.9,2.4c2.9,1.6,4.9,3.7,6.1,6.3
		l-4.3,5.2c-4.2,0-7.5-0.8-9.9-2.3c-3.1,0.3-5.9,1.7-8.2,4.2c-4.2,4.6-6.3,10.3-6.3,17c0,6.8,0.9,13.3,2.7,19.7
		c1.8,6.4,4.1,12.1,6.8,17.2c2.7,5.1,5.7,10.6,8.8,16.5c3.2,5.9,6.2,11.6,8.9,17.1c6.4,12.6,9.6,26.3,9.6,41
		c0.1,10.3-2.7,20.2-8.3,29.7c-2.6,4.5-6.3,8.3-10.9,11.2c-4.6,2.9-9.8,4.4-15.5,4.4c-6.1,0-10.9-0.9-14.5-2.6
		C391.1,632,389.4,630.2,389.4,628.2z"/>
	<path d="M536.1,626c0,2.4-0.6,4.4-1.9,6c-1.3,1.6-3.2,2.3-5.6,2.3c-6.1,0-13.8-30.7-23.1-92.2c-1.3-9.1-2.2-14.3-2.5-15.7
		c-3.1,21.3-5.5,39.7-7.2,55.2c-1.7,15.5-2.5,30.9-2.5,46.1c0,1.7-0.8,3.3-2.3,4.6c-1.5,1.4-3.2,2-5,2c-6.2,0-9.3-6.1-9.3-18.3
		c0-7.5-3.5-34.9-10.5-82.2c-7-47.3-11.4-73.1-13.3-77.6c2.2-3.8,5.2-5.7,9.1-5.7c3.9,0,7.4,8.3,10.6,24.9
		c3.2,16.6,5.9,36.8,8.2,60.5c2.3,23.7,3.5,35.7,3.5,36c0.2-2.2,1.1-8.9,2.5-20.2c1.4-11.3,2.6-20.4,3.4-27.2
		c2.5-20.8,3.7-35.5,3.7-44.3v-4.6c0-1.7,0.7-3.4,2-5c1.4-1.6,2.9-2.4,4.7-2.4c6,0,9.1,2.3,9.1,7v3.6c0,15.5,3.8,37.8,11.4,67.1
		c3.3,12.8,5.7,23.1,7.1,30.8c0.9-8.8,2.6-21.6,5-38.3c5.2-36.4,7.8-64.4,7.8-84.1c0-3.5,0.6-6.1,1.9-7.7c1.2-1.6,3.3-2.4,6.1-2.4
		c2.8,0,5,0.6,6.6,1.9c1.6,1.2,2.4,2.9,2.4,4.8c0,2-0.9,3.7-2.6,5.4c0,23.3-3.2,51.5-9.6,84.6C539.3,574.4,536.1,602.6,536.1,626z"
		/>
	<path d="M597.7,543.2l-6.3-0.2c-2.5,0-4.2,0.6-5.2,1.8v74c8.7-0.5,13.4-0.7,14.1-0.7c9.7,0,14.5,2.1,14.5,6.3v0.8
		c-1.2,2.2-3.1,3.9-6,5c-2.8,1.2-5.3,1.8-7.4,2c-2.2,0.2-4.9,0.2-8.3,0.2h-7.9c-6.3,0-10.2-1.2-11.7-3.5c-0.7-1.1-1-2.5-1-4.3V485.2
		c0-2.7-0.6-6.8-1.7-12.2c-1.2-5.4-1.7-9.5-1.7-12.3v-0.8c2.8-4.4,4.9-7.2,6.3-8.4l18.9-2.1c2.6,0,5.1,0.7,7.8,2.2
		c2.6,1.4,3.9,3.3,3.9,5.7c0,4.8-3.8,7.1-11.5,7.1l-7.3-0.2c-1.2,0-2.2,0-2.7,0.1l2,39.6c0,3.2-0.2,7.9-0.6,14
		c-0.4,6.1-0.6,10.6-0.6,13.4c0.9-0.2,2.2-0.4,3.7-0.8c3.5-0.9,6.2-1.3,8.1-1.3c1.9,0,3.7,0.7,5.2,2c1.5,1.3,2.3,2.9,2.3,4.8
		c0,1.9-0.6,3.6-1.9,5C601.3,542.4,599.7,543.2,597.7,543.2z"/>
	<path d="M864.5,542.7l0.6,5c0.1,11.3-3.1,24.7-9.6,40.1c-7.3,17.6-15.9,30-25.8,37.4c-5.6,4.2-11.4,6.4-17.4,6.4
		c-3.1,0-6-0.7-8.6-2c-2.6-1.4-3.8-3.4-3.8-6.1c3.7-3.7,5.6-13.1,5.6-28.2c0-8.9-0.8-22.1-2.4-39.7c-1.6-17.6-2.4-30.7-2.4-39.5
		l0.7-26.2c0-4.2-0.9-9.9-2.8-17s-2.8-12.2-2.8-15.2c0-5.5,6.5-8.3,19.5-8.3h3.8c17.3,0,29.8,9.1,37.6,27.4
		c5.5,12.7,8.2,30.3,8.2,52.7v11.1C864.7,541.2,864.5,541.9,864.5,542.7z M817.8,594.7v23c6.4-3.9,11.9-9.3,16.6-16.3
		c4.7-7,8.3-14.6,10.8-22.9c4.6-15.8,7-31.7,7-47.4c0-18.1-2.4-32.4-7.2-42.9c-4.9-10.8-10.9-17.9-18.1-21.3
		c-4.5-2.2-9.5-3.2-15.1-3.2v0.2c0,14.4,1,36.2,3,65.2C816.7,558.2,817.8,580,817.8,594.7z"/>
	<path d="M909,543.2l-6.3-0.2c-2.5,0-4.2,0.6-5.2,1.8v74c8.7-0.5,13.4-0.7,14.1-0.7c9.7,0,14.5,2.1,14.5,6.3v0.8
		c-1.2,2.2-3.1,3.9-6,5c-2.8,1.2-5.3,1.8-7.4,2c-2.2,0.2-4.9,0.2-8.3,0.2h-7.9c-6.3,0-10.2-1.2-11.7-3.5c-0.7-1.1-1-2.5-1-4.3V485.2
		c0-2.7-0.6-6.8-1.7-12.2c-1.2-5.4-1.7-9.5-1.7-12.3v-0.8c2.8-4.4,4.9-7.2,6.3-8.4l18.9-2.1c2.6,0,5.1,0.7,7.8,2.2
		c2.6,1.4,3.9,3.3,3.9,5.7c0,4.8-3.8,7.1-11.5,7.1l-7.3-0.2c-1.2,0-2.2,0-2.7,0.1l2,39.6c0,3.2-0.2,7.9-0.6,14
		c-0.4,6.1-0.6,10.6-0.6,13.4c0.9-0.2,2.2-0.4,3.7-0.8c3.5-0.9,6.2-1.3,8.1-1.3c1.9,0,3.7,0.7,5.2,2c1.5,1.3,2.3,2.9,2.3,4.8
		c0,1.9-0.6,3.6-1.9,5C912.6,542.4,911,543.2,909,543.2z"/>
	<path d="M937.6,505.4l1.7-44v-1.5c0-8,1.9-11.9,5.6-11.9c3.4,0,7.9,7.4,13.7,22.2c10.4,26.9,22.9,71.4,37.5,133.4l0.2,1.2l1-83.6
		v-71c1-4,3.8-6,8.3-6c4.5,0,6.8,3.1,6.8,9.4v1.4c-1,2-1.5,4.3-1.5,7l-1.6,88.6v73.3c0,2.4-0.7,4.8-2.1,7.1
		c-1.4,2.3-3.1,3.5-5.2,3.5c-3.6,0-10.5-16.5-20.8-49.4c-10.3-32.9-20.6-68.3-30.7-106.2v78.7c0,7.7,0.6,19,1.8,34.2
		c1.2,15.1,1.8,26.5,1.8,34.2c0,1.5-1,2.7-2.9,3.7c-1.9,1-4.3,1.5-7.3,1.5c-2.9,0-4.4-1.2-4.4-3.7l1.2-17.2c0-8.3-0.5-21.7-1.6-40.3
		c-1.1-18.6-1.6-29.9-1.6-34.1V505.4z"/>
</g>
</svg>
