<?xml version="1.0" encoding="utf-8"?>
<!-- Generator: Adobe Illustrator 18.0.0, SVG Export Plug-In . SVG Version: 6.00 Build 0)  -->
<!DOCTYPE svg PUBLIC "-//W3C//DTD SVG 1.1//EN" "http://www.w3.org/Graphics/SVG/1.1/DTD/svg11.dtd">
<svg version="1.1" id="Layer_1" xmlns="http://www.w3.org/2000/svg" xmlns:xlink="http://www.w3.org/1999/xlink" x="0px" y="0px"
	 viewBox="328.3 253.7 662.3 459.3" enable-background="new 328.3 253.7 662.3 459.3" xml:space="preserve">
<g>
	<path fill="none" stroke="#000000" stroke-width="5.8057" stroke-miterlimit="10" d="M431.7,553.7c0-47.1,0-219.3,0-256.7
		c0-43.4-40-40.4-40-40.4s-40-3.1-40,40.4c0,36.9,0,204.8,0,254.6"/>
	<g>
		<path d="M442.6,659.8l-0.6,3.1l-0.3,1.5l-0.4,1.5l-0.9,3l-1.1,2.9l-0.6,1.5l-0.7,1.4c-0.5,0.9-0.9,1.9-1.4,2.8
			c-1.1,1.8-2.2,3.6-3.5,5.3c-2.5,3.4-5.5,6.4-8.8,9.2l-2.5,2c-0.9,0.6-1.8,1.2-2.7,1.8l-1.3,0.9c-0.5,0.3-0.9,0.5-1.4,0.8l-2.8,1.5
			c-2,0.8-3.9,1.8-5.9,2.4c-1,0.3-2,0.7-3.1,1l-3.1,0.8c-4.2,0.8-8.6,1.4-12.8,1.1c-2.2-0.1-4.3-0.4-6.5-0.8
			c-1.1-0.2-2.1-0.4-3.2-0.7c-1-0.3-2.1-0.5-3.1-0.9c-4.1-1.3-8.1-3.1-11.8-5.3c-3.7-2.2-7.1-4.9-10.2-7.9c-3.1-3-5.8-6.5-8-10.2
			c-2.3-3.7-4-7.7-5.2-11.8c-1.2-4.1-1.9-8.5-2.1-12.8l0-1.6l0-0.2l0-0.1l0-0.2l0-0.4l0-0.8l0.1-3.1c0-1,0.2-2.1,0.3-3.2
			c0.1-1.1,0.2-2.2,0.4-3.2c0.7-4.2,1.7-8.4,3.2-12.5c1.5-4,3.4-7.9,5.7-11.5c0.6-0.9,1.2-1.8,1.8-2.7c0.6-0.9,1.3-1.7,2-2.6
			c1.4-1.7,2.8-3.2,4.6-4.7l-0.1,0.1l1.4-1.4l-0.5,1.3v-57.6h3.6v2.3h-3.6V404v-36.9c0-12.3,0-24.6,0-36.9c0-3.1,0.1-6.2,0.2-9.2
			l0.2-9.2c0.2-6.1,0.1-12.4,1.5-18.6c1.3-6.1,3.9-12.1,8-16.8c4.1-4.8,9.8-7.9,15.7-9.4c-5.8,1.9-11.2,5.3-14.9,10.1
			c-3.8,4.7-6,10.5-6.9,16.5l-0.3,2.2l-0.2,2.2c-0.1,0.7-0.1,1.5-0.2,2.2l0,2.3l0,2.3l0.1,2.3l0.1,4.6l0.2,9.2
			c0.1,3.1,0.2,6.2,0.2,9.2c-0.1,12.3,0,24.6,0,36.9V404v147.7h-3.6v-2.3h3.6V607v0.8l-0.6,0.5l-1.4,1.4l0,0l-0.1,0.1
			c-0.7,0.6-1.4,1.3-2.1,2c-0.7,0.7-1.4,1.5-2,2.2c-0.6,0.8-1.3,1.6-1.8,2.4c-0.6,0.8-1.2,1.6-1.7,2.5c-2.2,3.4-4,7-5.4,10.8
			c-1.4,3.8-2.3,7.8-3,11.8c-0.1,1-0.2,2-0.3,3c-0.1,1-0.3,2-0.3,3l-0.1,3.1l0,0.8l0,0.4l0,0.3l0,1.5c0.1,4,0.8,8,1.9,11.9
			c1.1,3.8,2.7,7.6,4.8,11c2.1,3.4,4.6,6.6,7.4,9.5c2.9,2.8,6,5.3,9.5,7.4c3.4,2.1,7.1,3.8,11,5c3.8,1.3,7.9,1.9,11.8,2.2
			c1,0.1,2.1,0.1,3,0.1l3-0.1c1,0,2-0.1,3-0.2c1-0.1,2-0.2,3-0.4l3-0.6c1-0.2,2-0.5,2.9-0.8c2-0.5,3.8-1.3,5.7-2l2.8-1.3
			c0.5-0.2,0.9-0.4,1.4-0.7l1.3-0.8c0.9-0.5,1.8-1,2.6-1.6l2.5-1.8c3.2-2.5,6.3-5.2,8.9-8.4c1.4-1.5,2.5-3.3,3.7-5
			c0.5-0.9,1-1.8,1.6-2.7l0.8-1.3l0.7-1.4l1.3-2.8l1-2.9l0.5-1.5l0.4-1.5L442.6,659.8z"/>
	</g>
	<path fill="none" stroke="#000000" stroke-width="5.8057" stroke-miterlimit="10" d="M351.8,587.4c0,8.9,0,14,0,14
		s-20.6,15.9-20.6,50.2c0,34.3,29.6,58.5,60.3,58.5c30.8,0,60.7-24.3,60.7-58.5c0-34.3-20.6-50.2-20.6-50.2s0-4.3,0-11.9"/>
	<line fill="none" stroke="#000000" stroke-width="5.8057" stroke-miterlimit="10" x1="351.8" y1="545.4" x2="351.8" y2="600.9"/>
	<line fill="none" stroke="#000000" stroke-width="5.8057" stroke-miterlimit="10" x1="431.7" y1="538" x2="431.7" y2="593.5"/>
	<path fill="none" stroke="#000000" stroke-width="3.6286" stroke-miterlimit="10" d="M359.4,549.4"/>
	<g>
		<path d="M416.7,600.8c0,0,1.1-0.2,2.6-0.3c1.6-0.2,3.7-0.4,5.8-0.6c1.1-0.1,2.1-0.3,3.1-0.3c1,0,1.9,0.1,2.7,0.3
			c1.6,0.3,2.6,0.9,2.6,0.9v0.3c0,0-1.1,0.6-2.6,0.9c-0.8,0.2-1.7,0.3-2.7,0.3c-1,0-2-0.2-3.1-0.3c-2.1-0.2-4.2-0.4-5.8-0.6
			c-1.6-0.2-2.6-0.3-2.6-0.3V600.8z"/>
	</g>
	<g>
		<path d="M416.7,574.8c0,0,1.1-0.2,2.6-0.3c1.6-0.2,3.7-0.4,5.8-0.6c1.1-0.1,2.1-0.3,3.1-0.3c1,0,1.9,0.1,2.7,0.3
			c1.6,0.3,2.6,0.9,2.6,0.9v0.3c0,0-1.1,0.6-2.6,0.9c-0.8,0.2-1.7,0.3-2.7,0.3c-1,0-2-0.2-3.1-0.3c-2.1-0.2-4.2-0.4-5.8-0.6
			c-1.6-0.2-2.6-0.3-2.6-0.3V574.8z"/>
	</g>
	<g>
		<path d="M416.7,548c0,0,1.1-0.2,2.6-0.3c1.6-0.2,3.7-0.4,5.8-0.6c1.1-0.1,2.1-0.3,3.1-0.3c1,0,1.9,0.1,2.7,0.3
			c1.6,0.3,2.6,0.9,2.6,0.9v0.3c0,0-1.1,0.6-2.6,0.9c-0.8,0.2-1.7,0.3-2.7,0.3c-1,0-2-0.2-3.1-0.3c-2.1-0.2-4.2-0.4-5.8-0.6
			c-1.6-0.2-2.6-0.3-2.6-0.3V548z"/>
	</g>
	<g>
		<path d="M416.7,522c0,0,1.1-0.2,2.6-0.3c1.6-0.2,3.7-0.4,5.8-0.6c1.1-0.1,2.1-0.3,3.1-0.3c1,0,1.9,0.1,2.7,0.3
			c1.6,0.3,2.6,0.9,2.6,0.9v0.3c0,0-1.1,0.6-2.6,0.9c-0.8,0.2-1.7,0.3-2.7,0.3c-1,0-2-0.2-3.1-0.3c-2.1-0.2-4.2-0.4-5.8-0.6
			c-1.6-0.2-2.6-0.3-2.6-0.3V522z"/>
	</g>
	<g>
		<path d="M416.7,522c0,0,1.1-0.2,2.6-0.3c1.6-0.2,3.7-0.4,5.8-0.6c1.1-0.1,2.1-0.3,3.1-0.3c1,0,1.9,0.1,2.7,0.3
			c1.6,0.3,2.6,0.9,2.6,0.9v0.3c0,0-1.1,0.6-2.6,0.9c-0.8,0.2-1.7,0.3-2.7,0.3c-1,0-2-0.2-3.1-0.3c-2.1-0.2-4.2-0.4-5.8-0.6
			c-1.6-0.2-2.6-0.3-2.6-0.3V522z"/>
	</g>
	<g>
		<path d="M416.7,496c0,0,1.1-0.2,2.6-0.3c1.6-0.2,3.7-0.4,5.8-0.6c1.1-0.1,2.1-0.3,3.1-0.3c1,0,1.9,0.1,2.7,0.3
			c1.6,0.3,2.6,0.9,2.6,0.9v0.3c0,0-1.1,0.6-2.6,0.9c-0.8,0.2-1.7,0.3-2.7,0.3c-1,0-2-0.2-3.1-0.3c-2.1-0.2-4.2-0.4-5.8-0.6
			c-1.6-0.2-2.6-0.3-2.6-0.3V496z"/>
	</g>
	<g>
		<path d="M416.7,469.2c0,0,1.1-0.2,2.6-0.3c1.6-0.2,3.7-0.4,5.8-0.6c1.1-0.1,2.1-0.3,3.1-0.3c1,0,1.9,0.1,2.7,0.3
			c1.6,0.3,2.6,0.9,2.6,0.9v0.3c0,0-1.1,0.6-2.6,0.9c-0.8,0.2-1.7,0.3-2.7,0.3c-1,0-2-0.2-3.1-0.3c-2.1-0.2-4.2-0.4-5.8-0.6
			c-1.6-0.2-2.6-0.3-2.6-0.3V469.2z"/>
	</g>
	<g>
		<path d="M416.7,443.2c0,0,1.1-0.2,2.6-0.3c1.6-0.2,3.7-0.4,5.8-0.6c1.1-0.1,2.1-0.3,3.1-0.3c1,0,1.9,0.1,2.7,0.3
			c1.6,0.3,2.6,0.9,2.6,0.9v0.3c0,0-1.1,0.6-2.6,0.9c-0.8,0.2-1.7,0.3-2.7,0.3c-1,0-2-0.2-3.1-0.3c-2.1-0.2-4.2-0.4-5.8-0.6
			c-1.6-0.2-2.6-0.3-2.6-0.3V443.2z"/>
	</g>
	<g>
		<path d="M416.7,443.2c0,0,1.1-0.2,2.6-0.3c1.6-0.2,3.7-0.4,5.8-0.6c1.1-0.1,2.1-0.3,3.1-0.3c1,0,1.9,0.1,2.7,0.3
			c1.6,0.3,2.6,0.9,2.6,0.9v0.3c0,0-1.1,0.6-2.6,0.9c-0.8,0.2-1.7,0.3-2.7,0.3c-1,0-2-0.2-3.1-0.3c-2.1-0.2-4.2-0.4-5.8-0.6
			c-1.6-0.2-2.6-0.3-2.6-0.3V443.2z"/>
	</g>
	<g>
		<path d="M416.7,417.2c0,0,1.1-0.2,2.6-0.3c1.6-0.2,3.7-0.4,5.8-0.6c1.1-0.1,2.1-0.3,3.1-0.3c1,0,1.9,0.1,2.7,0.3
			c1.6,0.3,2.6,0.9,2.6,0.9v0.3c0,0-1.1,0.6-2.6,0.9c-0.8,0.2-1.7,0.3-2.7,0.3c-1,0-2-0.2-3.1-0.3c-2.1-0.2-4.2-0.4-5.8-0.6
			c-1.6-0.2-2.6-0.3-2.6-0.3V417.2z"/>
	</g>
	<g>
		<path d="M416.7,390.4c0,0,1.1-0.2,2.6-0.3c1.6-0.2,3.7-0.4,5.8-0.6c1.1-0.1,2.1-0.3,3.1-0.3c1,0,1.9,0.1,2.7,0.3
			c1.6,0.3,2.6,0.9,2.6,0.9v0.3c0,0-1.1,0.6-2.6,0.9c-0.8,0.2-1.7,0.3-2.7,0.3c-1,0-2-0.2-3.1-0.3c-2.1-0.2-4.2-0.4-5.8-0.6
			c-1.6-0.2-2.6-0.3-2.6-0.3V390.4z"/>
	</g>
	<g>
		<path d="M416.7,364.4c0,0,1.1-0.2,2.6-0.3c1.6-0.2,3.7-0.4,5.8-0.6c1.1-0.1,2.1-0.3,3.1-0.3c1,0,1.9,0.1,2.7,0.3
			c1.6,0.3,2.6,0.9,2.6,0.9v0.3c0,0-1.1,0.6-2.6,0.9c-0.8,0.2-1.7,0.3-2.7,0.3c-1,0-2-0.2-3.1-0.3c-2.1-0.2-4.2-0.4-5.8-0.6
			c-1.6-0.2-2.6-0.3-2.6-0.3V364.4z"/>
	</g>
	<g>
		<path d="M416.7,338.4c0,0,1.1-0.2,2.6-0.3c1.6-0.2,3.7-0.4,5.8-0.6c1.1-0.1,2.1-0.3,3.1-0.3c1,0,1.9,0.1,2.7,0.3
			c1.6,0.3,2.6,0.9,2.6,0.9v0.3c0,0-1.1,0.6-2.6,0.9c-0.8,0.2-1.7,0.3-2.7,0.3c-1,0-2-0.2-3.1-0.3c-2.1-0.2-4.2-0.4-5.8-0.6
			c-1.6-0.2-2.6-0.3-2.6-0.3V338.4z"/>
	</g>
	<g>
		<path d="M416.7,311.6c0,0,1.1-0.2,2.6-0.3c1.6-0.2,3.7-0.4,5.8-0.6c1.1-0.1,2.1-0.3,3.1-0.3c1,0,1.9,0.1,2.7,0.3
			c1.6,0.3,2.6,0.9,2.6,0.9v0.3c0,0-1.1,0.6-2.6,0.9c-0.8,0.2-1.7,0.3-2.7,0.3c-1,0-2-0.2-3.1-0.3c-2.1-0.2-4.2-0.4-5.8-0.6
			c-1.6-0.2-2.6-0.3-2.6-0.3V311.6z"/>
	</g>
</g>
<g>
	<path d="M541.3,356.4l-0.3,18.7l1.3,33.3l1.2,26c0,4.7-1.4,7.1-4.2,7.1c-1.6,0-2.8-0.8-3.5-2.3c-0.8-1.5-1.1-3.2-1.1-5l1.1-23.1
		c0-5-0.3-12.5-1-22.6c-0.7-10-1-17.6-1-22.6l0.2-12.7c0-6.9-0.4-11.4-1.3-13.5l-7.9,0.8c-1.2,0-2.3-0.4-3.3-1.1
		c-1-0.7-1.5-1.7-1.5-2.8c0-1.2,1.2-2.1,3.5-2.9c2.4-0.8,5.2-1.5,8.5-1.8c5.8-0.7,10.7-1,14.6-1c1.2,0,2.3,0.4,3.2,1.2
		c1,0.8,1.5,1.8,1.5,2.9c0,1.2-0.4,2.1-1.3,2.8c-0.8,0.7-1.9,1-3.1,1l-5.2-0.3c-0.7,0-1.2,0-1.5,0.1
		C541,344.1,541.3,350.1,541.3,356.4z"/>
	<path d="M566.9,353.3l-0.6,36.1c1.7,0.5,4.4,0.7,7.9,0.7h5.2c0.2-0.4,0.4-2,0.4-4.7s-0.3-8.6-1-17.7c-0.6-9.1-1-16-1-20.6
		c0-1.1,0.4-2,1.3-2.7c0.8-0.7,1.7-1.1,2.4-1.1c0.8,0,1.4,0.1,1.8,0.2c0.5,0.1,1,0.3,1.6,0.6c0.6,0.2,1,0.4,1.3,0.5
		c0,12.5,0.5,30.9,1.4,55c0.9,24.1,1.4,36.6,1.4,37.4c0,0.8-0.5,1.6-1.5,2.4c-1,0.8-2.1,1.2-3.4,1.2c-1.2,0-2.3-0.9-3-2.8
		c-0.8-1.8-1.3-4.6-1.5-8.2c-0.3-3.6-0.4-6.7-0.5-9.4c0-1.1,0-2.4,0-3.9c0-2,0-4.2,0.1-6.8c0.1-4.5,0.1-7.1,0.1-7.8v-0.6l0.2-4.2
		l-0.8-1.3v-0.1c-0.8,0.2-1.7,0.3-2.6,0.3l-9.3-1.3v16.6l0.8,23.8c0,1.4-0.4,2.6-1.1,3.6s-1.7,1.6-3,1.6c-1.9,0-3.3-1.8-4-5.3
		c-0.7-3.5-1.1-8.3-1.1-14.4l0.4-22.1c0-4.6-0.1-7.1-0.2-7.6v-0.7c0.4-5,0.6-7.9,0.6-8.5l-1-32.7c0-1.1,0.4-2.1,1.2-3
		c0.8-0.9,1.8-1.3,2.9-1.3C565.4,344.7,566.9,347.5,566.9,353.3z"/>
	<path d="M599.9,367.4l-0.8-12.2c0-6.8,2-10.3,6.1-10.3c2.6,0,6.1,0.6,10.6,1.8c4.5,1.2,6.7,2.7,6.7,4.6c0,2-1.4,3.5-4.2,4.5
		c-4.5-1.5-8.1-2.4-11-2.8c0.1,2.1,0.2,4.2,0.2,6.2l-0.6,20.8c0,0.1,0.1,0.8,0.4,2.3l5.2-0.2c4.7,0,7,1.3,7,4c0,1-0.4,1.9-1.3,2.7
		c-0.8,0.8-1.9,1.2-3.2,1.2c-1.3,0-2.7-0.1-4.2-0.3h-3.7c0.3,3.7,0.4,7.3,0.4,11l-0.6,26.2c0,5.4,0.1,8.1,0.3,8.1l10.7-0.4
		c3.7,0,5.5,1.2,5.5,3.5c0,1.5-0.6,2.5-1.9,3.2c-1.3,0.7-2.7,1-4.3,1h-12.2c-1.3,0-2.4-0.4-3.5-1.3c-1-0.9-1.6-1.9-1.6-3.1v-3.8
		l-0.9-24.5L599.9,367.4z"/>
	<path d="M637.7,392l-0.1,15.7c0,12.8,0.9,22.8,2.8,30.2l-1.6,3.9h-4l-1.9-2.1c0.1-4.3,0.1-9.2,0.1-14.6c0-5.4-0.4-16.9-1.2-34.6
		c-0.8-17.7-1.2-30.9-1.2-39.6c0-4.6,1.6-6.9,4.8-6.9c5,0,9.3,1.3,12.7,4c3.4,2.6,5.2,6.4,5.2,11.3v10.2c0,2.8-0.5,5.3-1.6,7.6
		c-1,2.3-2.2,4.7-3.6,7.2c-1.4,2.5-2.1,3.9-2.3,4.2c0.5,2.4,1.4,7,2.8,13.9c2.8,15,6,25.9,9.4,32.5c1,1.9,1.5,3.4,1.5,4.4
		s-0.3,2-0.9,2.7c-0.6,0.7-1.4,1.1-2.4,1.1c-2,0-4-2.3-5.8-7c-1.9-4.6-3.4-9.8-4.5-15.5c-3.4-17.3-5.5-26.8-6.3-28.6H637.7z
		 M638.3,349.3l-0.5,2.1c0,4,0.1,9.7,0.3,17.2c0.2,7.5,0.3,12.9,0.3,16.3c2.3-1.2,4.1-4.3,5.5-9.2c1.4-5,2.1-8.8,2.1-11.4
		c0-2.6-0.1-4.6-0.2-5.8c-0.1-1.2-0.4-2.6-0.9-4.1C643.9,351.1,641.7,349.5,638.3,349.3z"/>
	<path d="M719.9,439l0.1-18.5c0-4.3-0.4-10.6-1.1-18.9c-0.7-8.3-1.1-13.9-1.1-16.8c0-2.9,0.1-6.3,0.3-10.3c0.2-4,0.3-7,0.3-8.9
		c-0.4,1.3-2.1,7.9-4.9,20c-7.4,31.2-12.6,46.8-15.8,46.8c-1.9,0-3.4-0.6-4.4-1.7c-1.1-1.1-1.6-2.6-1.6-4.5c0-4.6-1.8-14-5.4-28.3
		c-3.6-14.3-6.7-25.2-9.2-32.8c-1.8,34-2.8,57.1-2.8,69l0.2,4.3c0,1.6-0.3,2.7-1,3.6c-0.7,0.8-1.7,1.2-3.1,1.2c-1.4,0-2.6-0.3-3.5-1
		c-0.9-0.7-1.3-1.5-1.3-2.4c0-9.9,0.7-24.6,2.2-44.3c1.5-19.7,2.2-34.4,2.2-44.3c-0.6-0.9-0.8-1.9-0.8-3c0-1.1,0.6-1.9,1.8-2.5
		c1.2-0.6,2.5-0.8,3.8-0.8c2.1,0,6.2,9.7,12.3,29.1c6.1,19.4,9.9,32.8,11.3,40.3c0.4-1.4,1.3-5,2.7-10.7c1.3-5.7,2.8-11.7,4.3-17.9
		c1.5-6.2,3.2-12.5,5-18.8c4.1-14.5,7.5-21.8,10.3-21.8c1.3,0,2.5,0.4,3.6,1.1c1.1,0.7,1.7,1.7,1.7,2.9c0,7,0.3,17.4,0.9,31.3
		s0.9,23.9,0.9,30.2l-0.4,15.3v0.1c0,1.1,0.3,4.5,0.8,10.3l0.3,2.8c0.4,1,0.6,2.1,0.6,3.3c0,1.2-0.4,2.4-1.3,3.7
		c-0.9,1.3-2.1,2-3.5,2C721.4,448.1,719.9,445.1,719.9,439z"/>
	<path d="M736.9,396.2l0.1-5.5c0-0.5-0.1-0.7-0.2-0.7v-2.6c0-15.2,0.9-26,2.6-32.4c1.5-5.4,2.9-8.8,4.2-10c1.4-1.3,2.7-1.9,4-1.9
		c11.2,0,19,5.7,23.2,17c2.5,6.5,3.7,14.5,3.7,24.1v1.1l0.3,16.4c0,27.8-6.4,41.7-19.3,41.7c-5.3,0-9.4-2.9-12.2-8.8
		c-2.7-5.7-4.3-11.2-5-16.7C737.4,409.4,736.9,402.3,736.9,396.2z M745.5,376.4l-0.7,13.4c0,14,1.1,26.2,3.4,36.6
		c2.4,6.1,4.7,9.7,6.9,10.8c1.7,0,3.3-0.7,4.7-2.1c1.4-1.4,2.5-3.3,3.4-5.7c0.8-2.4,1.5-4.9,2.1-7.5c0.5-2.6,0.9-5.4,1.2-8.3
		c0.5-5.1,0.7-9.5,0.7-13.2c0-3.6-0.3-9.2-1-16.7c-0.6-7.5-1-13.1-1-16.8v-2.5c-0.1-3.5-1.2-6.7-3.5-9.4s-5-4.1-8.5-4.1
		c-3.3,0-5.5,1.9-6.6,5.6c-0.9,3.1-1.3,7-1.3,11.5L745.5,376.4z"/>
	<path d="M785.3,377.9l0.2-13.8c0-5.9-0.4-10.4-1.1-13.4c0.7-3.4,2-5.1,3.9-5.1h6.4c5.6,0,9.5,2.3,11.7,6.9c2,4.1,3,8.8,3,14.1
		c0,6.7-0.2,10.9-0.5,12.4c-0.3,1.5-0.7,3-1.1,4.4c-0.4,1.4-0.8,2.5-1.4,3.3c-0.5,0.8-1.2,1.8-2.1,2.8c-0.8,1-1.8,1.9-2.9,2.6
		c-2.4,1.6-5.3,2.9-8.7,4v15.5l1.1,27.4c0,1.2-0.5,2.2-1.5,3c-1,0.8-2.1,1.2-3.4,1.2l-3-1.8c-1.2-5.3-1.8-12.4-1.8-21.3l0.6-25.8
		c-0.6-1.3-0.8-2.5-0.8-3.5v-0.5C784.8,388.5,785.3,384.3,785.3,377.9z M792.5,361.6l0.3,28.2v0.2c5.8-0.8,8.6-8.9,8.6-24.5
		c0-4.6-0.6-7.7-1.7-9.3c-1.2-1.7-3.1-2.6-5.7-2.6c0-0.1-0.5-0.2-1.6-0.2V361.6z"/>
	<path d="M827,353.3l-0.6,36.1c1.7,0.5,4.4,0.7,7.9,0.7h5.2c0.2-0.4,0.4-2,0.4-4.7s-0.3-8.6-1-17.7c-0.6-9.1-1-16-1-20.6
		c0-1.1,0.4-2,1.3-2.7c0.8-0.7,1.7-1.1,2.4-1.1c0.8,0,1.4,0.1,1.8,0.2c0.5,0.1,1,0.3,1.6,0.6c0.6,0.2,1,0.4,1.3,0.5
		c0,12.5,0.5,30.9,1.4,55c0.9,24.1,1.4,36.6,1.4,37.4c0,0.8-0.5,1.6-1.5,2.4c-1,0.8-2.1,1.2-3.4,1.2c-1.2,0-2.3-0.9-3-2.8
		c-0.8-1.8-1.3-4.6-1.5-8.2c-0.3-3.6-0.4-6.7-0.5-9.4c0-1.1,0-2.4,0-3.9c0-2,0-4.2,0.1-6.8c0.1-4.5,0.1-7.1,0.1-7.8v-0.6l0.2-4.2
		l-0.8-1.3v-0.1c-0.8,0.2-1.7,0.3-2.6,0.3l-9.3-1.3v16.6l0.8,23.8c0,1.4-0.4,2.6-1.1,3.6s-1.7,1.6-3,1.6c-1.9,0-3.3-1.8-4-5.3
		c-0.7-3.5-1.1-8.3-1.1-14.4l0.4-22.1c0-4.6-0.1-7.1-0.2-7.6v-0.7c0.4-5,0.6-7.9,0.6-8.5l-1-32.7c0-1.1,0.4-2.1,1.2-3
		c0.8-0.9,1.8-1.3,2.9-1.3C825.5,344.7,827,347.5,827,353.3z"/>
	<path d="M874.1,392.3l0.7,30.8v4.3l-0.1,4h1.9l4.2-0.1c4,0,5.9,1.2,5.9,3.6c0,1.2-0.5,2.3-1.5,3.1c-1,0.9-2.1,1.3-3.4,1.3h-6.4
		c-4.4,0-7.2-0.1-8.4-0.3c-0.8,0.1-1.3,0.1-1.8,0.1c-3.4,0-5.2-1.1-5.2-3.3c0-0.9,0.3-1.7,0.8-2.5c0.6-0.8,1.1-1.2,1.7-1.3h4.1
		l0.3-1.9l-1-30.8l0.8-32.3c0-5.5-0.2-10.7-0.7-15.6h-2.8l-3.3,0.1c-1.4,0-2.5-0.3-3.3-0.8c-0.8-0.5-1.2-1.6-1.2-3.1
		c0-2.2,2.4-3.3,7.1-3.3h17.3c3.9,0,5.9,1,5.9,3c0,0.9-0.4,1.7-1.3,2.5c-0.8,0.8-1.8,1.1-2.9,1.1h-7.4c0.4,4,0.6,8.4,0.6,13.4
		L874.1,392.3z"/>
	<path d="M902.6,359.3l0.4,34.8c-0.6,1.3-0.8,3-0.8,5v2.9l-0.6,23.1c0,6.6,1.6,10,4.9,10l6-0.2c5.2,0,7.8,1.4,7.8,4.2
		c0,1-0.4,1.9-1.3,2.6c-0.9,0.7-1.9,1.1-3,1.2c-3.5-1.1-7.9-1.7-12.9-1.7c-1.6,0.9-3.1,1.3-4.5,1.3s-2.6-0.5-3.4-1.5
		c-0.8-1-1.2-2.1-1.2-3.3c0-7.2,0.3-18,0.9-32.4c0.6-14.4,0.9-25.2,0.9-32.4V372c-0.6-6-0.8-10.6-0.8-13.6c0-9.1,1.7-13.7,5-13.7
		c1,0,1.9,0.4,2.6,1.1c0.7,0.7,1.1,1.6,1.1,2.5L902.6,359.3z"/>
	<path d="M942.5,392.3l0.7,30.8v4.3l-0.1,4h1.9l4.2-0.1c4,0,5.9,1.2,5.9,3.6c0,1.2-0.5,2.3-1.5,3.1c-1,0.9-2.1,1.3-3.4,1.3h-6.4
		c-4.4,0-7.2-0.1-8.4-0.3c-0.8,0.1-1.3,0.1-1.8,0.1c-3.4,0-5.2-1.1-5.2-3.3c0-0.9,0.3-1.7,0.8-2.5c0.6-0.8,1.1-1.2,1.7-1.3h4.1
		l0.3-1.9l-1-30.8l0.8-32.3c0-5.5-0.2-10.7-0.7-15.6h-2.8l-3.3,0.1c-1.4,0-2.5-0.3-3.3-0.8c-0.8-0.5-1.2-1.6-1.2-3.1
		c0-2.2,2.4-3.3,7.1-3.3h17.3c3.9,0,5.9,1,5.9,3c0,0.9-0.4,1.7-1.3,2.5c-0.8,0.8-1.8,1.1-2.9,1.1h-7.4c0.4,4,0.6,8.4,0.6,13.4
		L942.5,392.3z"/>
	<path d="M960.9,405.5l-0.1-8.5v-3.5c0-14.2,0.7-24.1,2.1-29.7c1.7-6.9,4.1-11.6,7.1-14.3c4.1-3.7,9.3-5.5,15.6-5.5
		c1.5,0,2.6,0.4,3.4,1.1c0.7,0.7,1.1,1.6,1.1,2.5s-0.3,1.9-0.9,2.7c-0.6,0.8-1.3,1.2-2.2,1.2h-6.8c-2,0-3.7,1.3-5.2,3.8
		c-1.4,2.5-2.5,5.7-3.1,9.3c-1.2,7-1.8,12.8-1.8,17.3v0.7l-0.6,27.9c0,5.9,0.3,10,1,12.2s1.3,4.1,2,5.5c0.7,1.4,1.5,2.5,2.4,3.4
		c2.2,2.1,5,3.1,8.3,3.1c1.1,0,2.2-0.4,3.1-1.3c1.1,0,2.1,0.3,3,0.8c0.9,0.5,1.3,1.3,1.3,2.4c0,3.8-2.7,5.7-8,5.7
		c-2.2,0-4.4-0.3-6.8-1c-2.4-0.6-4.2-1.3-5.3-2.1C964.1,435.4,960.9,424,960.9,405.5z"/>
</g>
<g>
	<path d="M624.9,641l0.1-18.5c0-4.3-0.4-10.6-1.1-18.9c-0.7-8.3-1.1-13.9-1.1-16.8c0-2.9,0.1-6.3,0.3-10.3c0.2-4,0.3-7,0.3-8.9
		c-0.4,1.3-2.1,7.9-4.9,20c-7.4,31.2-12.6,46.8-15.8,46.8c-1.9,0-3.4-0.6-4.4-1.7s-1.6-2.6-1.6-4.5c0-4.6-1.8-14-5.4-28.3
		c-3.6-14.3-6.7-25.2-9.2-32.8c-1.8,34-2.8,57.1-2.8,69l0.2,4.3c0,1.6-0.3,2.7-1,3.6c-0.7,0.8-1.7,1.2-3.1,1.2c-1.4,0-2.6-0.3-3.5-1
		c-0.9-0.7-1.3-1.5-1.3-2.4c0-9.9,0.7-24.6,2.2-44.3s2.2-34.4,2.2-44.3c-0.6-0.9-0.8-1.9-0.8-3c0-1.1,0.6-1.9,1.8-2.5
		c1.2-0.6,2.5-0.8,3.8-0.8c2.1,0,6.2,9.7,12.3,29.1c6.1,19.4,9.9,32.8,11.3,40.3c0.4-1.4,1.3-5,2.7-10.7c1.3-5.7,2.8-11.7,4.3-17.9
		c1.5-6.2,3.2-12.5,5-18.8c4.1-14.5,7.5-21.8,10.3-21.8c1.3,0,2.5,0.4,3.6,1.1c1.1,0.7,1.7,1.7,1.7,2.9c0,7,0.3,17.4,0.9,31.3
		c0.6,13.9,0.9,23.9,0.9,30.2l-0.4,15.3v0.1c0,1.1,0.3,4.5,0.8,10.3l0.3,2.8c0.4,1,0.6,2.1,0.6,3.3c0,1.2-0.4,2.4-1.3,3.7
		c-0.9,1.3-2.1,2-3.5,2C626.4,650.1,624.9,647.1,624.9,641z"/>
	<path d="M644.3,569.4l-0.8-12.2c0-6.8,2-10.3,6.1-10.3c2.6,0,6.1,0.6,10.6,1.8c4.5,1.2,6.7,2.7,6.7,4.6c0,2-1.4,3.5-4.2,4.5
		c-4.5-1.5-8.1-2.4-11-2.8c0.1,2.1,0.2,4.2,0.2,6.2l-0.6,20.8c0,0.1,0.1,0.8,0.4,2.3l5.2-0.2c4.7,0,7,1.3,7,4c0,1-0.4,1.9-1.3,2.7
		c-0.8,0.8-1.9,1.2-3.2,1.2c-1.3,0-2.7-0.1-4.2-0.3h-3.7c0.3,3.7,0.4,7.3,0.4,11l-0.6,26.2c0,5.4,0.1,8.1,0.3,8.1l10.7-0.4
		c3.7,0,5.5,1.2,5.5,3.5c0,1.5-0.6,2.5-1.9,3.2s-2.7,1-4.3,1h-12.2c-1.3,0-2.4-0.4-3.5-1.3c-1-0.9-1.6-1.9-1.6-3.1v-3.8l-0.9-24.5
		L644.3,569.4z"/>
	<path d="M675.5,636.4l6,1.1c1.8,0,3.4-0.8,4.8-2.4c1.4-1.6,2.4-3.6,3-6c1.3-4.6,1.9-8.7,1.9-12.3c0-3.6-0.6-7.1-1.8-10.6
		c-1.2-3.5-2.6-6.7-4.4-9.7c-1.7-3-3.4-6-5.1-9.2c-4.1-7.4-6.1-14.6-6.1-21.6c0-4.3,0.7-8.2,2.2-11.5c2.7-6.2,6.4-9.3,10.9-9.3
		c1.7,0,3.3,0.5,4.8,1.6c1.5,1.1,2.3,2.3,2.3,3.5c0,2.2-1.2,3.3-3.5,3.3c-1,0-2.1-0.3-3-0.8c-3.1,0.1-5.1,3.6-6.2,10.3
		c-0.2,1.5-0.4,3.2-0.4,5.1s0.4,4.4,1.3,7.2c0.8,2.9,1.9,5.4,3.2,7.7c1.3,2.2,2.7,4.7,4.2,7.4c1.5,2.7,2.9,5.3,4.2,7.9
		c3,5.9,4.5,12.6,4.5,20.2c0,5.8-1.3,11.4-4,16.8c-1.3,2.6-3.2,4.8-5.6,6.5c-2.4,1.7-5.2,2.5-8.3,2.6v0.4c-4-0.6-6.1-2.4-6.5-5.6
		L675.5,636.4z"/>
	<path d="M705.5,598.2l0.1-5.5c0-0.5-0.1-0.7-0.2-0.7v-2.6c0-15.2,0.9-26,2.6-32.4c1.5-5.4,2.9-8.8,4.2-10c1.4-1.3,2.7-1.9,4-1.9
		c11.2,0,19,5.7,23.2,17c2.5,6.5,3.7,14.5,3.7,24.1v1.1l0.3,16.4c0,27.8-6.4,41.7-19.3,41.7c-5.3,0-9.4-2.9-12.2-8.8
		c-2.7-5.7-4.3-11.2-5-16.7C706,611.4,705.5,604.3,705.5,598.2z M714.1,578.4l-0.7,13.4c0,14,1.1,26.2,3.4,36.6
		c2.4,6.1,4.7,9.7,6.9,10.8c1.7,0,3.3-0.7,4.7-2.1s2.5-3.3,3.4-5.7c0.8-2.4,1.5-4.9,2.1-7.5c0.5-2.6,0.9-5.4,1.2-8.3
		c0.5-5.1,0.7-9.5,0.7-13.2c0-3.6-0.3-9.2-1-16.7c-0.6-7.5-1-13.1-1-16.8v-2.5c-0.1-3.5-1.2-6.7-3.5-9.4s-5-4.1-8.5-4.1
		c-3.3,0-5.5,1.9-6.6,5.6c-0.9,3.1-1.3,7-1.3,11.5L714.1,578.4z"/>
	<path d="M753.9,579.9l0.2-13.8c0-5.9-0.4-10.4-1.1-13.4c0.7-3.4,2-5.1,3.9-5.1h6.4c5.6,0,9.5,2.3,11.7,6.9c2,4.1,3,8.8,3,14.1
		c0,6.7-0.2,10.9-0.5,12.4c-0.3,1.5-0.7,3-1.1,4.4c-0.4,1.4-0.8,2.5-1.4,3.3c-0.5,0.8-1.2,1.8-2.1,2.8c-0.8,1-1.8,1.9-2.9,2.6
		c-2.4,1.6-5.3,2.9-8.7,4v15.5l1.1,27.4c0,1.2-0.5,2.2-1.5,3c-1,0.8-2.1,1.2-3.4,1.2l-3-1.8c-1.2-5.3-1.8-12.4-1.8-21.3l0.6-25.8
		c-0.6-1.3-0.8-2.5-0.8-3.5v-0.5C753.4,590.5,753.9,586.3,753.9,579.9z M761.1,563.6l0.3,28.2v0.2c5.8-0.8,8.6-8.9,8.6-24.5
		c0-4.6-0.6-7.7-1.7-9.3c-1.2-1.7-3.1-2.6-5.7-2.6c0-0.1-0.5-0.2-1.6-0.2V563.6z"/>
	<path d="M795.6,555.3l-0.6,36.1c1.7,0.5,4.4,0.7,7.9,0.7h5.2c0.2-0.4,0.4-2,0.4-4.7c0-2.7-0.3-8.6-1-17.7c-0.6-9.1-1-16-1-20.6
		c0-1.1,0.4-2,1.3-2.7s1.7-1.1,2.4-1.1c0.8,0,1.4,0.1,1.8,0.2c0.5,0.1,1,0.3,1.6,0.6c0.6,0.2,1,0.4,1.3,0.5c0,12.5,0.5,30.9,1.4,55
		c0.9,24.1,1.4,36.6,1.4,37.4c0,0.8-0.5,1.6-1.5,2.4c-1,0.8-2.1,1.2-3.4,1.2c-1.2,0-2.3-0.9-3-2.8c-0.8-1.8-1.3-4.6-1.5-8.2
		c-0.3-3.6-0.4-6.7-0.5-9.4c0-1.1,0-2.4,0-3.9c0-2,0-4.2,0.1-6.8c0.1-4.5,0.1-7.1,0.1-7.8v-0.6l0.2-4.2l-0.8-1.3v-0.1
		c-0.8,0.2-1.7,0.3-2.6,0.3l-9.3-1.3v16.6l0.8,23.8c0,1.4-0.4,2.6-1.1,3.6c-0.7,1.1-1.7,1.6-3,1.6c-1.9,0-3.3-1.8-4-5.3
		c-0.7-3.5-1.1-8.3-1.1-14.4l0.4-22.1c0-4.6-0.1-7.1-0.2-7.6v-0.7c0.4-5,0.6-7.9,0.6-8.5l-1-32.7c0-1.1,0.4-2.1,1.2-3
		c0.8-0.9,1.8-1.3,2.9-1.3C794.1,546.7,795.6,549.5,795.6,555.3z"/>
	<path d="M842.8,594.3l0.7,30.8v4.3l-0.1,4h1.9l4.2-0.1c4,0,5.9,1.2,5.9,3.6c0,1.2-0.5,2.3-1.5,3.1c-1,0.9-2.1,1.3-3.4,1.3h-6.4
		c-4.4,0-7.2-0.1-8.4-0.3c-0.8,0.1-1.3,0.1-1.8,0.1c-3.4,0-5.2-1.1-5.2-3.3c0-0.9,0.3-1.7,0.8-2.5c0.6-0.8,1.1-1.2,1.7-1.3h4.1
		l0.3-1.9l-1-30.8l0.8-32.3c0-5.5-0.2-10.7-0.7-15.6h-2.8l-3.3,0.1c-1.4,0-2.5-0.3-3.3-0.8c-0.8-0.5-1.2-1.6-1.2-3.1
		c0-2.2,2.4-3.3,7.1-3.3h17.3c3.9,0,5.9,1,5.9,3c0,0.9-0.4,1.7-1.3,2.5c-0.8,0.8-1.8,1.1-2.9,1.1H843c0.4,4,0.6,8.4,0.6,13.4
		L842.8,594.3z"/>
	<path d="M871.3,561.3l0.4,34.8c-0.6,1.3-0.8,3-0.8,5v2.9l-0.6,23.1c0,6.6,1.6,10,4.9,10l6-0.2c5.2,0,7.8,1.4,7.8,4.2
		c0,1-0.4,1.9-1.3,2.6c-0.9,0.7-1.9,1.1-3,1.2c-3.5-1.1-7.9-1.7-12.9-1.7c-1.6,0.9-3.1,1.3-4.5,1.3s-2.6-0.5-3.4-1.5
		c-0.8-1-1.2-2.1-1.2-3.3c0-7.2,0.3-18,0.9-32.4c0.6-14.4,0.9-25.2,0.9-32.4V574c-0.6-6-0.8-10.6-0.8-13.6c0-9.1,1.7-13.7,5-13.7
		c1,0,1.9,0.4,2.6,1.1c0.7,0.7,1.1,1.6,1.1,2.5L871.3,561.3z"/>
	<path d="M911.1,594.3l0.7,30.8v4.3l-0.1,4h1.9l4.2-0.1c4,0,5.9,1.2,5.9,3.6c0,1.2-0.5,2.3-1.5,3.1c-1,0.9-2.1,1.3-3.4,1.3h-6.4
		c-4.4,0-7.2-0.1-8.4-0.3c-0.8,0.1-1.3,0.1-1.8,0.1c-3.4,0-5.2-1.1-5.2-3.3c0-0.9,0.3-1.7,0.8-2.5c0.6-0.8,1.1-1.2,1.7-1.3h4.1
		l0.3-1.9l-1-30.8l0.8-32.3c0-5.5-0.2-10.7-0.7-15.6h-2.8l-3.3,0.1c-1.4,0-2.5-0.3-3.3-0.8c-0.8-0.5-1.2-1.6-1.2-3.1
		c0-2.2,2.4-3.3,7.1-3.3H917c3.9,0,5.9,1,5.9,3c0,0.9-0.4,1.7-1.3,2.5c-0.8,0.8-1.8,1.1-2.9,1.1h-7.4c0.4,4,0.6,8.4,0.6,13.4
		L911.1,594.3z"/>
	<path d="M929.5,607.5l-0.1-8.5v-3.5c0-14.2,0.7-24.1,2.1-29.7c1.7-6.9,4.1-11.6,7.1-14.3c4.1-3.7,9.3-5.5,15.6-5.5
		c1.5,0,2.6,0.4,3.4,1.1c0.7,0.7,1.1,1.6,1.1,2.5s-0.3,1.9-0.9,2.7c-0.6,0.8-1.3,1.2-2.2,1.2h-6.8c-2,0-3.7,1.3-5.2,3.8
		c-1.4,2.5-2.5,5.7-3.1,9.3c-1.2,7-1.8,12.8-1.8,17.3v0.7l-0.6,27.9c0,5.9,0.3,10,1,12.2s1.3,4.1,2,5.5c0.7,1.4,1.5,2.5,2.4,3.4
		c2.2,2.1,5,3.1,8.3,3.1c1.1,0,2.2-0.4,3.1-1.3c1.1,0,2.1,0.3,3,0.8c0.9,0.5,1.3,1.3,1.3,2.4c0,3.8-2.7,5.7-8,5.7
		c-2.2,0-4.4-0.3-6.8-1c-2.4-0.6-4.2-1.3-5.3-2.1C932.7,637.4,929.5,626,929.5,607.5z"/>
</g>
<g>
	<path d="M746.1,467.7c1.4,0,3.8,10.9,7.2,32.7c1.3,8.5,2,13.1,2.2,13.8c0.4-2.9,1-7.6,1.9-14c1.9-13.3,2.9-23.7,2.8-31.2
		c0.8-1,1.8-1.6,2.8-1.6l1.6,0.9c-0.1,0.9-0.4,3.4-0.8,7.6c-0.4,4.2-0.8,7.9-1.2,11.2c-0.4,3.3-0.7,6.4-1.1,9.3
		c-0.4,2.9-0.7,6-1.2,9.3s-0.8,6.2-1.2,8.8c-0.4,2.6-0.8,5-1.1,7.1c-0.8,4.5-1.5,6.8-2,6.8c-0.7,0-1.3-0.3-1.8-0.8
		c-1.3-5.2-3.1-15.3-5.5-30.4c-2.4-15-4-24.4-4.8-27.9C744.2,468.2,744.9,467.7,746.1,467.7z"/>
	<path d="M767.7,526.2c0-1.4,0.6-2.1,1.7-2.1c0.6,0,1.3,0.2,2.3,0.6c1,0.4,1.8,0.6,2.5,0.6c0.7,0,1.5-0.4,2.3-1.3
		c0.8-0.9,1.4-2,1.9-3.3c0.9-2.7,1.4-5.1,1.4-7.3s-0.4-4.5-1.1-7c-0.8-2.5-1.7-4.8-2.8-7c-1.1-2.2-2.2-4.4-3.3-6.5
		c-2.6-5.2-3.9-9.9-3.9-14.2c0-4.1,1.3-7.2,3.8-9.5c1.4-1.2,3-1.8,4.8-1.8c0.9,0,1.8,0.3,2.7,0.8c0.9,0.5,1.5,1.2,1.9,2l-1.3,1.7
		c-1.3,0-2.3-0.3-3-0.8c-1,0.1-1.8,0.6-2.5,1.4c-1.3,1.5-1.9,3.3-1.9,5.5c0,2.2,0.3,4.3,0.8,6.4c0.6,2.1,1.3,3.9,2.1,5.6
		c0.8,1.6,1.7,3.4,2.7,5.4c1,1.9,1.9,3.8,2.7,5.5c2,4.1,2.9,8.5,2.9,13.3c0,3.3-0.8,6.6-2.5,9.7c-0.8,1.5-1.9,2.7-3.3,3.6
		c-1.4,1-3,1.4-4.8,1.4c-1.9,0-3.4-0.3-4.4-0.8C768.3,527.4,767.7,526.8,767.7,526.2z"/>
	<path d="M794.5,528.3c-0.8,0-1.5-0.3-2-0.9c-0.5-0.6-0.8-1.2-0.8-2c0-0.7,0.3-1.4,0.9-2c0.6-0.6,1.3-0.9,2-0.9c0.8,0,1.4,0.3,2,0.9
		c0.6,0.6,0.8,1.3,0.8,2.1s-0.3,1.5-0.9,2C796,528,795.3,528.3,794.5,528.3z"/>
</g>
</svg>
