<?xml version="1.0" encoding="utf-8"?>
<!-- Generator: Adobe Illustrator 18.0.0, SVG Export Plug-In . SVG Version: 6.00 Build 0)  -->
<!DOCTYPE svg PUBLIC "-//W3C//DTD SVG 1.1//EN" "http://www.w3.org/Graphics/SVG/1.1/DTD/svg11.dtd">
<svg version="1.1" id="Layer_1" xmlns="http://www.w3.org/2000/svg" xmlns:xlink="http://www.w3.org/1999/xlink" x="0px" y="0px"
	 viewBox="0 0 745 446.7" enable-background="new 0 0 745 446.7" xml:space="preserve">
<g>
	<path d="M253.8,202.1l-1.3,10.1v3.5c0,11.2,0.2,18.7,0.7,22.3c0.5,3.6,1,6.9,1.5,9.8c0.5,2.9,1.2,5.3,2,7.4c0.8,2,1.8,3.9,2.9,5.7
		c2.3,3.6,5.4,5.4,9.4,5.4c1.6,0,3.7-0.9,6.2-2.6c2.5-1.7,4.3-2.6,5.6-2.6c1.3,0,2.6,0.7,4.1,2.2c0,4.9-2.8,8.3-8.3,10.4
		c-2.7,1-5.7,1.5-8.9,1.5c-3.2,0-5.9-0.6-8.2-1.9c-2.3-1.3-4.2-3-5.7-5c-1.5-2.1-2.8-4.7-4-7.9c-1.1-3.2-2-6.4-2.7-9.5
		c-0.6-3.2-1-6.9-1.4-11c-0.6-7-0.9-14.6-0.9-22.9l0.1-17.3c0-5.5,0.3-10,1-13.4c-0.3-1.6-0.4-3.1-0.4-4.5c0-5.9,2.2-10.7,6.6-14.2
		c4.4-3.5,9.9-5.3,16.4-5.3c2.3,0,4.6,0.6,6.8,1.9c2.2,1.3,3.3,3,3.3,5.1c0,1-0.4,1.8-1.2,2.4c-0.8,0.6-2.2,0.8-4.1,0.8
		c-1.9,0-3.2-0.6-3.9-1.8v0.1h-2v-0.4c-5.6,0-9.4,1.7-11.5,5.2c-1.9,3.2-2.8,8.7-2.8,16.6L253.8,202.1z"/>
	<path d="M326.8,208.2l0.1,2.5c0,42.9-6.2,64.3-18.7,64.3c-4.8,0-8.4-1.9-10.7-5.9c-2.4-4.1-3.9-8.1-4.4-12.1
		c-0.8-6.2-1.3-13.3-1.4-21.3c-0.1-8-0.2-19.5-0.2-34.6l-0.6-20.7c0.9-2,1.9-3,3.1-3c1.2,0,2.2,0.9,3.1,2.7c0.9,1.8,1.3,3.6,1.3,5.6
		V225c0,3.4,0.3,8.6,1,15.4c0.7,6.8,1,11.9,1,15.3c0,7.1,3.1,10.6,9.2,10.6c6.9,0,10.3-26,10.3-77.9v-8.1l-0.1-2.4
		c0-1.1,0.3-2,0.8-2.5c0.5-0.6,1.4-0.8,2.7-0.8c1.3,0,2.3,0.2,2.9,0.6c0.6,0.4,1.1,0.9,1.3,1.7c0.4,1.2,0.6,2.7,0.6,4.7l-1,14.6
		L326.8,208.2z"/>
	<path d="M346,191.6l0.4,34.8c-0.6,1.3-0.8,3-0.8,5v2.9l-0.6,23.1c0,6.6,1.6,10,4.9,10l6-0.2c5.2,0,7.8,1.4,7.8,4.2
		c0,1-0.4,1.9-1.3,2.6c-0.9,0.7-1.9,1.1-3,1.2c-3.5-1.1-7.9-1.7-12.9-1.7c-1.6,0.9-3.1,1.3-4.5,1.3c-1.4,0-2.6-0.5-3.4-1.5
		c-0.8-1-1.2-2.1-1.2-3.3c0-7.2,0.3-18,0.9-32.4c0.6-14.4,0.9-25.2,0.9-32.4v-1.1c-0.6-6-0.8-10.6-0.8-13.6c0-9.1,1.7-13.7,5-13.7
		c1,0,1.9,0.4,2.6,1.1c0.7,0.7,1.1,1.6,1.1,2.5L346,191.6z"/>
	<path d="M383.8,270.4l-0.3-11.1c0,0,0.1-1.7,0.2-5c-0.4-1.2-1.1-12.1-2.3-32.7c-1.2-20.6-1.8-33.1-1.9-37.7c-0.2,0-0.4,0-0.6,0
		c-7.8-0.1-11.7-1.6-11.7-4.3c0-0.9,0.5-1.6,1.6-2.2c1-0.6,2.1-0.9,3-0.9l19.7,1.3l2.3-0.1c3,0,4.5,1.2,4.5,3.5
		c0,1.2-0.5,2.1-1.5,2.9c-1,0.7-2.1,1.1-3.3,1.1l-6.6-1l-0.3,1.5c0,9.1,0.8,22.8,2.4,41.1c1.6,18.3,2.4,32,2.4,41.2
		c0,1.1-0.5,2.1-1.6,3c-1,0.9-2.2,1.3-3.4,1.3L383.8,270.4z"/>
	<path d="M440.1,208.2l0.1,2.5c0,42.9-6.2,64.3-18.7,64.3c-4.8,0-8.4-1.9-10.7-5.9c-2.4-4.1-3.9-8.1-4.4-12.1
		c-0.8-6.2-1.3-13.3-1.4-21.3c-0.1-8-0.2-19.5-0.2-34.6l-0.6-20.7c0.9-2,1.9-3,3.1-3c1.2,0,2.2,0.9,3.1,2.7c0.9,1.8,1.3,3.6,1.3,5.6
		V225c0,3.4,0.3,8.6,1,15.4c0.7,6.8,1,11.9,1,15.3c0,7.1,3.1,10.6,9.2,10.6c6.9,0,10.3-26,10.3-77.9v-8.1l-0.1-2.4
		c0-1.1,0.3-2,0.8-2.5c0.5-0.6,1.4-0.8,2.7-0.8c1.3,0,2.3,0.2,2.9,0.6c0.6,0.4,1.1,0.9,1.3,1.7c0.4,1.2,0.6,2.7,0.6,4.7l-1,14.6
		L440.1,208.2z"/>
	<path d="M457.6,224.3l-0.1,15.7c0,12.8,0.9,22.8,2.8,30.2l-1.6,3.9h-4l-1.9-2.1c0.1-4.3,0.1-9.2,0.1-14.6c0-5.4-0.4-16.9-1.2-34.6
		c-0.8-17.7-1.2-30.9-1.2-39.6c0-4.6,1.6-6.9,4.8-6.9c5,0,9.3,1.3,12.7,4c3.4,2.6,5.2,6.4,5.2,11.3v10.2c0,2.8-0.5,5.3-1.6,7.6
		c-1,2.3-2.2,4.7-3.6,7.2c-1.4,2.5-2.1,3.9-2.3,4.2c0.5,2.4,1.4,7,2.8,13.9c2.8,15,6,25.9,9.4,32.5c1,1.9,1.5,3.4,1.5,4.4
		c0,1.1-0.3,2-0.9,2.7c-0.6,0.7-1.4,1.1-2.4,1.1c-2,0-4-2.3-5.8-7c-1.9-4.6-3.4-9.8-4.5-15.5c-3.4-17.3-5.5-26.8-6.3-28.6H457.6z
		 M458.1,181.6l-0.5,2.1c0,4,0.1,9.7,0.3,17.2c0.2,7.5,0.3,12.9,0.3,16.3c2.3-1.2,4.1-4.3,5.5-9.2c1.4-5,2.1-8.8,2.1-11.4
		c0-2.6-0.1-4.6-0.2-5.8c-0.1-1.2-0.4-2.6-0.9-4.1C463.7,183.4,461.5,181.7,458.1,181.6z"/>
	<path d="M487.5,199.6l-0.8-12.2c0-6.8,2-10.3,6.1-10.3c2.6,0,6.1,0.6,10.6,1.8c4.5,1.2,6.7,2.7,6.7,4.6c0,2-1.4,3.5-4.2,4.5
		c-4.5-1.5-8.1-2.4-11-2.8c0.1,2.1,0.2,4.2,0.2,6.2l-0.6,20.8c0,0.1,0.1,0.8,0.4,2.3l5.2-0.2c4.7,0,7,1.3,7,4c0,1-0.4,1.9-1.3,2.7
		c-0.8,0.8-1.9,1.2-3.2,1.2c-1.3,0-2.7-0.1-4.2-0.3h-3.7c0.3,3.7,0.4,7.3,0.4,11l-0.6,26.2c0,5.4,0.1,8.1,0.3,8.1l10.7-0.4
		c3.7,0,5.5,1.2,5.5,3.5c0,1.5-0.6,2.5-1.9,3.2c-1.3,0.7-2.7,1-4.3,1h-12.2c-1.3,0-2.4-0.4-3.5-1.3c-1-0.9-1.6-1.9-1.6-3.1v-3.8
		l-0.9-24.5L487.5,199.6z"/>
	<path d="M518.8,254.7l0.4-45.6c0-3.1-0.3-7.9-0.8-14.3c-0.6-6.4-0.8-10.5-0.8-12.2c0-1.7,0.5-3.1,1.6-4.1c1.1-1,2.2-1.5,3.5-1.5
		c10,0,18,5.8,24.3,17.5c3.6,6.6,5.4,13.7,5.4,21.1l-0.3,7.3v8c0,9.7-0.4,16.2-1.3,19.5c-0.9,3.3-1.8,6-2.7,8.1
		c-0.9,2.2-2.1,4.1-3.4,5.8c-3.1,3.9-6.9,7-11.6,9.3h-10.5C520,273.6,518.8,267.3,518.8,254.7z M528.9,262.8v3.5
		c8.4,0,13.4-8.5,15.1-25.5c0.4-3.9,0.6-7.7,0.6-11.3c0-29.1-5.6-44.4-16.8-45.7c-0.7,3.8-1.1,9.1-1.1,15.7c0,6.7,0.4,17.1,1.1,31.3
		C528.6,245,528.9,255.7,528.9,262.8z"/>
	<path d="M579.2,240l-0.5-56.1c0-6.3,0.1-12.5,0.2-18.7l4-2.3c2.9,0.2,6.2,7.9,9.8,23.1c3,12.4,5.4,23.5,7.2,33.4
		c1.8,9.9,2.9,15.2,3,16.1c0.7-3.1,1.9-8.7,3.7-16.7c1.8-8,3.1-14.2,4-18.7c2.6-13,4.3-24.5,4.9-34.6v-0.8c0.2-1.2,0.8-2.2,1.8-3
		c1-0.8,2-1.1,3.1-1.1c1.1,0,2,0.4,2.7,1.2c0.7,0.8,1,1.6,1,2.5c0,11.6,0.4,28.9,1.3,51.9c0.9,23.1,1.3,40.4,1.3,51.9
		c0,2.3-0.6,4.3-1.8,6c-1.2,1.7-2.4,2.5-3.5,2.5c-2.4,0-3.5-1.9-3.5-5.7l-0.6-61v-7.4c-0.7,3.7-2.1,10.2-4.5,19.6
		c-2.3,9.3-3.8,16.4-4.5,21.4v0.9c-0.1,0.4-0.2,1.3-0.4,2.7c-0.2,1.4-0.4,2.6-0.6,3.5c-0.2,0.9-0.5,1.9-1,3.1
		c-0.9,2.3-2.4,3.4-4.5,3.4c-3.4,0-5.2-4.5-5.2-13.5c0-8.9-2.2-21.4-6.5-37.4c-2.2-8-3.6-13.4-4.2-16.3c-0.2,7.7-0.3,13.6-0.3,17.5
		l1.2,59.6c0,2.1-0.7,3.9-2.2,5.4c-2.5,0-4.2-0.8-5.1-2.4c-0.9-1.6-1.3-3.8-1.3-6.5L579.2,240z"/>
	<path d="M651.8,224.6l0.7,30.8v4.3l-0.1,4h1.9l4.2-0.1c4,0,5.9,1.2,5.9,3.6c0,1.2-0.5,2.3-1.5,3.1c-1,0.9-2.1,1.3-3.4,1.3h-6.4
		c-4.4,0-7.2-0.1-8.4-0.3c-0.8,0.1-1.3,0.1-1.8,0.1c-3.4,0-5.2-1.1-5.2-3.3c0-0.9,0.3-1.7,0.8-2.5c0.6-0.8,1.1-1.2,1.7-1.3h4.1
		l0.3-1.9l-1-30.8l0.8-32.3c0-5.5-0.2-10.7-0.7-15.6h-2.8l-3.3,0.1c-1.4,0-2.5-0.3-3.3-0.8c-0.8-0.5-1.2-1.6-1.2-3.1
		c0-2.2,2.4-3.3,7.1-3.3h17.3c3.9,0,5.9,1,5.9,3c0,0.9-0.4,1.7-1.3,2.5c-0.8,0.8-1.8,1.1-2.9,1.1H652c0.4,4,0.6,8.4,0.6,13.4
		L651.8,224.6z"/>
	<path d="M680.3,191.6l0.4,34.8c-0.6,1.3-0.8,3-0.8,5v2.9l-0.6,23.1c0,6.6,1.6,10,4.9,10l6-0.2c5.2,0,7.8,1.4,7.8,4.2
		c0,1-0.4,1.9-1.3,2.6c-0.9,0.7-1.9,1.1-3,1.2c-3.5-1.1-7.9-1.7-12.9-1.7c-1.6,0.9-3.1,1.3-4.5,1.3s-2.6-0.5-3.4-1.5
		c-0.8-1-1.2-2.1-1.2-3.3c0-7.2,0.3-18,0.9-32.4c0.6-14.4,0.9-25.2,0.9-32.4v-1.1c-0.6-6-0.8-10.6-0.8-13.6c0-9.1,1.7-13.7,5-13.7
		c1,0,1.9,0.4,2.6,1.1c0.7,0.7,1.1,1.6,1.1,2.5L680.3,191.6z"/>
	<path d="M724.8,207.8l-0.3,8.6c0,4.2,1.7,11.9,5,23.3c3.3,11.4,6.1,18.9,8.3,22.6c0.3,0.4,0.9,1.3,1.9,2.6c1,1.3,1.7,2.5,2.1,3.5
		s0.7,2,0.7,3.1c0,1.1-0.4,2-1.2,2.7c-0.8,0.7-1.8,1.1-2.9,1.1c-2.3,0-4.6-2.4-7.1-7.2c-2.5-4.8-4.6-10.6-6.5-17.6
		c-3.3-11.8-5.7-22.1-7.2-30.9c-3.5,6.9-5.2,15.3-5.2,25.2v26.8c0,2.3-1,3.4-3,3.4c-1.5,0-2.6-0.4-3.5-1.2c-0.9-0.8-1.3-1.9-1.3-3.4
		v-44c0-5.2,0.5-13.1,1.4-23.4c0.9-10.4,1.4-18.2,1.4-23.4c0.8-1.8,2.1-2.8,3.7-2.8s2.9,0.4,3.7,1.3c0.9,0.9,1.3,1.9,1.3,3.1v0.4
		c-1.3,2.2-1.9,11-1.9,26.4v5.2c0.1-0.2,1.9-3.8,5.3-10.6c8.3-16.6,13.3-24.9,15.3-24.9c1.4,0,2.7,0.3,3.9,1
		c1.2,0.7,1.7,1.6,1.7,2.9c0,0.1-1.2,2-3.5,5.8C729.8,199.1,725.7,205.8,724.8,207.8z"/>
</g>
<g>
	<path fill="none" stroke="#000000" stroke-width="4" stroke-miterlimit="10" d="M2,287.1c0-32.4,0-64.8,0-97.2
		c0-31.1,9.8-59.4,24.7-86.2c9.4-17,21-33,24.1-52.9c0.7-4.7,1.3-9.5,1.9-14.2c0.3-2.7-2-2.6-3.6-3.3c-3.3-1.5-6.6-3.3-5.4-7.6
		c1.2-3.8,4.2-5.6,8.5-5.6c23.9,0.1,47.8,0,71.7,0c3.4,0,6.9,0,10.3,0c4.1,0,7.4,1.5,8.1,5.8c0.6,4.4-2.3,7-6.3,7.6
		c-3.6,0.5-3.9,1.5-3.8,5.2c0.7,24.6,13.6,44.3,25.3,64.5c15.5,27.1,25.1,55.9,25.1,87.5c-0.1,66.2-0.3,132.3,0.1,198.5
		c0.1,19.7-16.3,46.8-43.7,52.6c-7.6,1.6-15.4,2.7-23.1,2.6c-20.6-0.2-41.3,0.9-61.9-1.1C24.5,440.7,1.9,415.7,2,389.1
		C2.1,355.1,2,321.1,2,287.1z"/>
	<path fill="none" stroke="#000000" stroke-width="4" stroke-miterlimit="10" d="M94,13.3c-13.6,0-27.1-0.1-40.7,0
		c-5,0.1-9.3-1.2-9.6-5.5c-0.3-4.6,4.6-5.8,9.2-5.9C80,2,107.1,2,134.2,2c4.9,0,8.1,2,8.2,6.1c0.2,4.7-4,5.3-8.5,5.3
		C120.6,13.3,107.3,13.3,94,13.3z"/>
</g>
<g>
	<path d="M376.8,316.7l0.2-0.3c0-0.1,0.1-0.2,0.1-0.2c0.2-0.2,0.6-0.9,1.3-2c0.5-0.8,1-1.4,1.5-1.8c1-2,2.7-2.8,4.9-2.6
		c1.3,0.6,2,1.8,2.1,3.8c0.1,3-0.8,5.8-2.8,8.6c-1.1,2-3.2,3.7-6.4,5.1c-0.8,0.4-1.7,0.5-2.6,0.5c-1.9,0-3-1-3.3-3
		c0.6,0.1,1.1,0.5,1.7,1c0.4,0.3,0.7,0.5,1.1,0.4c2.1-0.1,4-0.9,5.7-2.3c1.7-1.4,3-3.1,3.7-5.1c0.8-2.1,1.3-3.7,1.3-4.6
		c0-0.6-0.1-1.1-0.3-1.6c-0.2-0.1-0.3-0.3-0.4-0.7c0.1,0,0.1-0.1,0-0.1c-0.2-0.1-0.4-0.2-0.6-0.2c-0.4,0-0.7,0.1-1.2,0.4
		c-0.9,0.6-1.6,1.5-2.3,2.6c-1.1,1.4-2,2.8-2.7,4.1l0.1,0.1l-0.2,0.6c-0.1,0-0.2,0-0.3,0.1l-0.1,0.2c-0.1,0.3-0.2,0.5-0.4,0.5
		c-0.2,0.4-0.6,1-1.3,1.8c0,0.1-0.4,0.4-1,1c-0.5,0.1-0.9,0-1.1-0.3c-0.2-0.3-0.2-0.7-0.2-1.2c0-0.1,0-0.2,0.1-0.3v-0.3
		c2.9-7.8,4.8-13.9,5.9-18.4c0.3-0.2,0.6-0.3,0.9-0.3c0.4,0,0.7,0.2,0.9,0.6c0.1,0.4,0,1.1-0.3,1.9c-0.3,0.8-0.4,1.5-0.4,1.8
		c-0.2,0.6-0.5,1.3-0.9,2.3c-0.2,0.6-0.5,1.7-1,3.2C378.1,313,377.5,314.6,376.8,316.7z M382.9,313.5c0-0.4,0.1-0.5,0.4-0.5
		c0.2,0,0.4,0.2,0.4,0.5H382.9z"/>
	<path d="M393,332.7c-1.5,2.8-3,5.3-4.4,7.4c-0.5,0.5-1.3,1.3-2.4,2.4c-0.5,0.5-0.8,0.7-1,0.8c-0.2,0.1-0.7,0.1-1.6,0.2
		c1.8-1.8,3.6-4.4,5.4-7.8c1.6-3,2.7-5.8,3.4-8.4c0-0.2-0.1-0.4-0.2-0.7c-0.1-0.4-0.4-0.7-0.7-1c-1.4-0.9-2.5-3.2-3.3-6.8
		c-0.1-1.2-0.3-3.3-0.8-6.4c0,0.1,0-0.2-0.1-1c0-0.2,0.1-0.4,0.3-0.4c0.4,0,0.8,0.2,1.1,0.7s0.6,1,0.6,1.4c0.2,2.1,0.6,4.2,1.1,6.4
		c0.6,2.8,1.7,4.6,3.4,5.4c1-2.1,2.4-6.2,4.3-12.2c0.7-0.4,1.2-0.6,1.3-0.6c0.2,0,0.4,0.1,0.6,0.3l0.6,0.5c-0.2,1-0.6,2.2-1.4,3.8
		c-0.7,1.3-1.8,4.2-3.4,8.7S393.2,332.4,393,332.7z"/>
	<path d="M420.8,311.9c4-0.1,7,1,9,3.2c0.6,0.8,0.8,1.7,0.8,2.7c0,0.6-0.1,1.1-0.4,1.7c-0.2,0.1-0.4,0.3-0.6,0.7
		c-0.2,0.4-0.4,0.6-0.6,0.7l-0.3,0.8c-0.3,0.4-0.9,1-1.6,1.6c-0.8,0.7-1.3,1.2-1.6,1.5c-3.1,2.2-6,3.2-8.9,3.2
		c-1.2,0-2.3-0.2-3.3-0.6c-0.4-0.4-0.9-0.7-1.3-1.2c-0.4-0.4-0.6-0.9-0.6-1.4c0.4-0.2,0.7-0.2,1-0.1c0.2,0.1,0.4,0.1,0.5,0.1
		c0.5-2.4,1.4-5.7,2.6-10c0.1-0.2-0.1-0.5-0.4-1s-0.6-0.7-0.6-0.8c0-0.2,0.2-0.5,0.5-0.6c0.8-0.4,1.3-1.3,1.6-2.5
		c0.4-1.7,0.6-2.7,0.8-3.2c0-0.1,0-0.1,0.1-0.2v-0.2l0.1-0.2c0-0.2,0-0.4-0.2-0.6c0.4-0.5,0.7-1.1,0.9-2c0.2-0.9,0.4-1.6,0.5-2.1
		c0.4-0.5,0.9-0.8,1.5-0.8c0.1,0,0.3,0,0.4,0.1c0.4,0.3,0.6,0.7,0.6,1.1c0,0.3-0.2,0.8-0.5,1.4c-0.3,0.6-0.5,1.1-0.5,1.4
		c-0.2,1-0.6,2.4-1.2,4.2c0,0.2,0,0.4-0.2,0.7c-0.1,0.3-0.2,0.4-0.2,0.5c4.2-2.1,7.4-4.3,9.6-6.7c0.4-0.3,0.7-0.8,0.8-1.5
		c-0.9-0.8-2.3-1.2-4.2-1.3c-1,0-2.5,0-4.5-0.1c-0.3,0-0.8,0-1.5,0.1c-0.8,0.1-1.4,0.2-1.6,0.2c-0.9,0-1.6-0.3-2-1
		c-0.1-0.1-0.2-0.2-0.3-0.5c0-0.1-0.1-0.2-0.1-0.3c0-0.2,0.1-0.4,0.3-0.6c0.2-0.2,0.6-0.3,1.2-0.4l0.6-0.2c0.1,0.3,0.2,0.4,0.5,0.4
		c0.1,0,0.3-0.1,0.6-0.2s0.5-0.2,0.7-0.2c0.4,0,0.7,0.1,1.1,0.4h5.4c2.2,0.1,3.9,0.6,5.1,1.4c0.8,1,1.2,1.8,1.3,2.6
		c-0.4,0.5-1,1.3-1.8,2.4c0,0.2-0.3,0.5-0.8,0.8c-0.4,0.5-2.2,1.9-5.3,4.3c-0.4,0.1-0.9,0.4-1.5,0.7c-0.8,0.5-1.3,0.8-1.4,0.9
		C421,311.7,420.9,311.7,420.8,311.9L420.8,311.9z M418.4,314.7l0.2,0.3c-0.2,0.2-0.4,0.3-0.5,0.3c-0.1,0-0.2,0.1-0.2,0.1
		c-0.1,0.9-0.5,2.2-1.1,3.9c-0.1,0.6-0.3,1.6-0.7,3c-0.4,1.4-0.6,2.4-0.6,3.1c0,0.3,0,0.6,0.1,0.8c0.5,0.1,1.1,0.1,1.8-0.1
		c1.1-0.2,1.7-0.3,1.8-0.3c2.6-1.3,4.5-2.3,5.5-3.1c2-1.5,3.2-3.1,3.6-5c-1-2.1-2.5-3.1-4.7-2.9c-0.4-0.3-0.9-0.4-1.6-0.4h-2
		C419.7,314.4,419.2,314.5,418.4,314.7z"/>
	<path d="M438.3,315.7c1.1-1.5,2.3-2.9,3.5-4.1c1.2-1.3,2.6-2,4.1-2.1c0.7-0.1,1.3,0,1.9,0.3c0.4,0.5,0.6,1.1,0.7,1.7
		c0,0.3-0.1,1.3-0.4,2.9l-0.7,0.1c-0.1-0.2-0.2-0.9-0.3-2.1c-0.1-0.7-0.2-1.1-0.5-1.3c-1.7,0.5-3.3,1.6-4.8,3.3
		c-0.7,0.7-1.3,1.4-2,2.1c-0.7,0.8-1.2,1.7-1.5,2.4c-0.2,0-0.5,0.5-0.7,1.4c-0.2,0.6-0.3,1-0.5,1.2c-0.3,0.6-0.8,1.7-1.4,3.5
		c0,0.3,0,0.9,0,1.7c-0.1,0.7-0.5,1.2-1.1,1.4c-0.1-0.2-0.3-0.3-0.4-0.2c-0.2,0.1-0.3,0.2-0.5,0.2c-0.3,0-0.5-0.2-0.7-0.7
		c0.6-2,1.8-6.8,3.7-14.2c-0.1-0.3-0.2-0.6-0.2-0.8c0-0.4,0.2-0.6,0.7-0.7c1.2-0.2,1.8,0,1.9,0.7c0,0.1-0.1,0.3-0.2,0.6
		c-0.1,0.3-0.1,0.8-0.1,1.3c-0.2,0-0.3,0.1-0.4,0.2c0,0.1,0,0.2,0.1,0.5l-0.2,0.5C438.4,315.5,438.3,315.6,438.3,315.7z"/>
	<path d="M457.5,326.6c-0.4,0.2-1,0.5-1.9,1c-0.5,0-1.2-0.2-2.2-0.8c0-0.3-0.2-0.8-0.4-1.4c-0.2-0.7-0.4-1.2-0.4-1.6
		c-0.3,0.3-0.5,0.6-0.6,0.8c-1.3,1.6-2.1,2.5-2.3,2.7c-1,0.9-2.1,1.2-3.3,1.1c-1-0.7-1.4-1.8-1.4-3.3c0-2.5,0.2-4.4,0.7-5.7
		c1.2-3.4,3.7-6.4,7.3-8.9h0.8c0.8,0,1.2,0.5,1.2,1.4c0,0.3-0.1,1-0.3,1.9c-0.2,0.5-0.6,1.1-1.2,1.8c-0.1,0.2-0.5,0.5-1.3,0.7
		c0.2-0.9,0.5-1.6,0.8-2.1c0-0.1,0.1-0.4,0.3-0.8c0-0.1,0.1-0.2,0.1-0.3c0-0.1,0-0.2-0.1-0.4c0.2-0.1,0.3-0.3,0.3-0.4
		c-0.2,0-0.6,0.3-1.1,0.9c-0.1,0.1-0.3,0.2-0.5,0.5c-3.6,4.2-5.5,7.9-5.6,11.3c0.1,1,0.5,1.6,1,1.7c1.2-0.3,2.2-1.2,3.1-2.7
		c1-0.9,1.9-2.5,2.6-4.8c0.4-0.9,1.1-3.1,2.2-6.7c0.1-0.3,0.5-0.6,1.2-0.8c0.3,0.4,0.5,0.7,0.5,1.2c0,0.2-0.1,0.6-0.2,1
		c-0.1,0.5-0.2,0.9-0.3,1.1c-1.4,3.9-2.1,6.5-2.1,7.7c0,1.7,0.3,2.8,1,3.4c0.1,0,0.6-0.3,1.3-0.7c0.6-0.4,1-0.5,1.2-0.5
		c0,0.2,0.1,0.4,0.1,0.5C458.1,326,457.9,326.4,457.5,326.6z"/>
	<path d="M470.6,317c-0.2,1.2-0.5,2.3-0.7,3.4c-0.3,1.4-0.4,2.6-0.4,3.4c0,1.6,0.4,2.9,1.2,4.1c-0.4,0.1-0.7,0.2-1,0.2
		c-0.5,0-0.9-0.2-1.3-0.5c-0.7-1.2-1-2.6-1-4.2c0-1,0.2-2.3,0.5-3.9l0.7-3.7l-0.1-0.1c-1.3,1-2.9,2.8-4.5,5.3
		c-1.8,2.7-3.2,4.5-4.3,5.5c-0.5,0.2-0.9,0.3-1.3,0.3c-0.2,0-0.4,0-0.6-0.1c-0.6-0.5-0.8-1.2-0.5-2.3c0.4-1.5,0.9-3.5,1.6-6
		c0.6-2.3,1.1-4.4,1.3-6.1c0.2-0.3,0.5-0.5,0.9-0.5c0.4,0,0.7,0.2,1,0.6c0.3,0.4,0.4,0.8,0.3,1.1l-2.3,9.4c0.1-0.4,0.5-0.9,1.1-1.5
		c1.8-2.5,3-4.1,3.5-4.7c1.4-1.7,2.9-3,4.4-3.9c1.2,0,1.7,0.6,1.7,1.9c0,0.2,0,0.6-0.1,1.2C470.6,316.4,470.6,316.8,470.6,317z"/>
	<path d="M481.1,323.6c-0.9,1.2-1.7,2.3-2.6,3.5c-1.1,1.3-2.3,1.9-3.5,1.9c-0.5,0-1.1-0.1-1.6-0.3c-0.8-0.7-1.3-1.7-1.3-3
		c0-0.8,0.1-1.7,0.4-2.7c0.1-1.1,0.7-3.1,1.5-6.1c0.2-0.6,0.6-1.5,1.4-2.7l1.3-2.2c0.7-1.1,1.5-1.6,2.4-1.6c0.6,0,1.3,0.6,2.3,1.8
		c0,0.3,0.2,0.6,0.4,0.8c0.3-1.7,0.9-4.1,1.9-7.4c0-0.2,0.3-1.2,1-2.9c0.2-0.4,0.5-0.6,0.9-0.6c0.6,0,1.1,0.3,1.3,0.9
		c0.1,3.1-0.4,6.6-1.4,10.6c-0.3,1-0.8,2.4-1.7,4c-0.5,1-0.7,2-0.7,3.3c0,1.3,0.2,2.4,0.7,3.4c0.4,0.4,0.7,0.6,1.2,0.6
		c0.2,0,0.4-0.1,0.6-0.2c0.5-0.2,1-0.5,1.5-1.1c0.4-0.5,0.8-0.9,1.2-1.4c0.2-0.3,0.7-0.6,1.5-1c0.1,0.3,0.1,0.6,0.1,0.8
		c-0.1,0.2-0.3,0.9-0.7,1.9c-1.1,1.1-1.7,1.7-1.9,1.9c-0.8,0.7-1.6,1-2.4,1c-0.4,0-0.7-0.1-1.1-0.2
		C482.5,326.1,481.7,325,481.1,323.6z M481,317.2c-0.1-0.3,0-1,0.3-2c-0.5-0.2-1-0.6-1.4-1.2l-0.3-0.4c-0.2-0.3-0.4-0.5-0.6-0.7
		c-1.1,1.2-2.1,2.8-3.1,4.9l-0.1,0.5c-0.4,0.5-0.8,1.7-1.3,3.7c-0.2,2-0.4,3.1-0.4,3.4c0,0.5,0.1,0.9,0.2,1.3c0,0.2,0.3,0.3,0.7,0.3
		c1.9-0.9,3.8-3.1,5.6-6.5c0-0.3,0.1-1.1,0.3-2.4C481,318,481,317.6,481,317.2z"/>
	<path d="M499.2,324.4l-0.2,0.2c-0.2,0.1-0.2,0.3-0.2,0.5c-2.8,2.1-5.1,3.2-6.8,3.4c-1,0-1.9-0.1-2.8-0.5c-0.8-0.4-1.3-1-1.6-1.7
		c-0.2-0.6-0.4-1.5-0.5-2.8c1.1-5.6,3.7-9.9,7.9-13.1c0.1,0,0.5-0.1,1.2-0.2c0.6-0.1,1,0,1.4,0.3c0.4,0.3,0.6,0.8,0.6,1.3
		c-0.1,0.5-0.1,0.9-0.2,1.3c-0.6,2-2.6,4.4-6.1,7.1c-0.2,0.2-0.8,0.4-1.7,0.5c-0.6,0.1-0.8,0.4-0.8,1c-0.5,0.8-0.7,1.5-0.6,2.2
		c0,0.3,0.1,0.8,0.4,1.6c0.6,0.8,1.6,1.3,2.9,1.3l0.2-0.2c0.6,0,1.3-0.2,2.3-0.6c1-0.6,2.6-1.4,4.7-2.5c0,0.1,0.1,0.3,0.1,0.4
		C499.5,324.1,499.4,324.3,499.2,324.4z M496.1,312.9c-0.1-0.1-0.2-0.2-0.4-0.3c-1.9,1.2-3.5,3.1-4.9,5.8c0.2,0,0.4-0.1,0.6-0.2
		c0.9-0.8,1.8-1.6,2.6-2.4C495.2,314.7,495.8,313.7,496.1,312.9z"/>
	<path d="M510.5,317c-0.2,1.2-0.5,2.3-0.7,3.4c-0.3,1.4-0.4,2.6-0.4,3.4c0,1.6,0.4,2.9,1.2,4.1c-0.4,0.1-0.7,0.2-1,0.2
		c-0.5,0-0.9-0.2-1.3-0.5c-0.7-1.2-1-2.6-1-4.2c0-1,0.2-2.3,0.5-3.9l0.7-3.7l-0.1-0.1c-1.3,1-2.9,2.8-4.5,5.3
		c-1.8,2.7-3.2,4.5-4.3,5.5c-0.5,0.2-0.9,0.3-1.3,0.3c-0.2,0-0.4,0-0.6-0.1c-0.6-0.5-0.8-1.2-0.5-2.3c0.4-1.5,0.9-3.5,1.6-6
		c0.6-2.3,1.1-4.4,1.3-6.1c0.2-0.3,0.5-0.5,0.9-0.5c0.4,0,0.7,0.2,1,0.6c0.3,0.4,0.4,0.8,0.3,1.1l-2.3,9.4c0.1-0.4,0.5-0.9,1.1-1.5
		c1.8-2.5,3-4.1,3.5-4.7c1.4-1.7,2.9-3,4.4-3.9c1.2,0,1.7,0.6,1.7,1.9c0,0.2,0,0.6-0.1,1.2C510.5,316.4,510.5,316.8,510.5,317z"/>
	<path d="M533,311.9c4-0.1,7,1,9,3.2c0.6,0.8,0.8,1.7,0.8,2.7c0,0.6-0.1,1.1-0.4,1.7c-0.2,0.1-0.4,0.3-0.6,0.7
		c-0.2,0.4-0.4,0.6-0.6,0.7l-0.3,0.8c-0.3,0.4-0.9,1-1.6,1.6c-0.8,0.7-1.3,1.2-1.6,1.5c-3.1,2.2-6,3.2-8.9,3.2
		c-1.2,0-2.3-0.2-3.3-0.6c-0.4-0.4-0.9-0.7-1.3-1.2c-0.4-0.4-0.6-0.9-0.6-1.4c0.4-0.2,0.7-0.2,1-0.1c0.2,0.1,0.4,0.1,0.5,0.1
		c0.5-2.4,1.4-5.7,2.6-10c0.1-0.2-0.1-0.5-0.4-1s-0.6-0.7-0.6-0.8c0-0.2,0.2-0.5,0.5-0.6c0.8-0.4,1.3-1.3,1.6-2.5
		c0.4-1.7,0.6-2.7,0.8-3.2c0-0.1,0-0.1,0.1-0.2v-0.2l0.1-0.2c0-0.2,0-0.4-0.2-0.6c0.4-0.5,0.7-1.1,0.9-2c0.2-0.9,0.4-1.6,0.5-2.1
		c0.4-0.5,0.9-0.8,1.5-0.8c0.1,0,0.3,0,0.4,0.1c0.4,0.3,0.6,0.7,0.6,1.1c0,0.3-0.2,0.8-0.5,1.4c-0.3,0.6-0.5,1.1-0.5,1.4
		c-0.2,1-0.6,2.4-1.2,4.2c0,0.2,0,0.4-0.2,0.7c-0.1,0.3-0.2,0.4-0.2,0.5c4.2-2.1,7.4-4.3,9.6-6.7c0.4-0.3,0.7-0.8,0.8-1.5
		c-0.9-0.8-2.3-1.2-4.2-1.3c-1,0-2.5,0-4.5-0.1c-0.3,0-0.8,0-1.5,0.1c-0.8,0.1-1.4,0.2-1.6,0.2c-0.9,0-1.6-0.3-2-1
		c-0.1-0.1-0.2-0.2-0.3-0.5c0-0.1-0.1-0.2-0.1-0.3c0-0.2,0.1-0.4,0.3-0.6c0.2-0.2,0.6-0.3,1.2-0.4l0.6-0.2c0.1,0.3,0.2,0.4,0.5,0.4
		c0.1,0,0.3-0.1,0.6-0.2s0.5-0.2,0.7-0.2c0.4,0,0.7,0.1,1.1,0.4h5.4c2.2,0.1,3.9,0.6,5.1,1.4c0.8,1,1.2,1.8,1.3,2.6
		c-0.4,0.5-1,1.3-1.8,2.4c0,0.2-0.3,0.5-0.8,0.8c-0.4,0.5-2.2,1.9-5.3,4.3c-0.4,0.1-0.9,0.4-1.5,0.7c-0.8,0.5-1.3,0.8-1.4,0.9
		C533.2,311.7,533.2,311.7,533,311.9L533,311.9z M530.6,314.7l0.2,0.3c-0.2,0.2-0.4,0.3-0.5,0.3c-0.1,0-0.2,0.1-0.2,0.1
		c-0.1,0.9-0.5,2.2-1.1,3.9c-0.1,0.6-0.3,1.6-0.7,3c-0.4,1.4-0.6,2.4-0.6,3.1c0,0.3,0,0.6,0.1,0.8c0.5,0.1,1.1,0.1,1.8-0.1
		c1.1-0.2,1.7-0.3,1.8-0.3c2.6-1.3,4.5-2.3,5.5-3.1c2-1.5,3.2-3.1,3.6-5c-1-2.1-2.5-3.1-4.7-2.9c-0.4-0.3-0.9-0.4-1.6-0.4h-2
		C532,314.4,531.4,314.5,530.6,314.7z"/>
	<path d="M552.5,332.7c-1.5,2.8-3,5.3-4.4,7.4c-0.5,0.5-1.3,1.3-2.4,2.4c-0.5,0.5-0.8,0.7-1,0.8c-0.2,0.1-0.7,0.1-1.6,0.2
		c1.8-1.8,3.6-4.4,5.4-7.8c1.5-3,2.7-5.8,3.4-8.4c0-0.2-0.1-0.4-0.2-0.7c-0.1-0.4-0.4-0.7-0.7-1c-1.4-0.9-2.5-3.2-3.3-6.8
		c-0.1-1.2-0.3-3.3-0.8-6.4c0,0.1,0-0.2-0.1-1c0-0.2,0.1-0.4,0.3-0.4c0.4,0,0.8,0.2,1.1,0.7s0.6,1,0.6,1.4c0.2,2.1,0.6,4.2,1.1,6.4
		c0.6,2.8,1.7,4.6,3.4,5.4c1-2.1,2.4-6.2,4.3-12.2c0.7-0.4,1.2-0.6,1.3-0.6c0.2,0,0.4,0.1,0.6,0.3l0.6,0.5c-0.2,1-0.6,2.2-1.4,3.8
		c-0.7,1.3-1.8,4.2-3.4,8.7S552.8,332.4,552.5,332.7z"/>
	<path d="M571.4,324.4l-0.2,0.2c-0.2,0.1-0.2,0.3-0.2,0.5c-2.8,2.1-5.1,3.2-6.8,3.4c-1,0-1.9-0.1-2.8-0.5c-0.8-0.4-1.3-1-1.6-1.7
		c-0.2-0.6-0.4-1.5-0.5-2.8c1.1-5.6,3.7-9.9,7.9-13.1c0.1,0,0.5-0.1,1.2-0.2c0.6-0.1,1,0,1.4,0.3c0.4,0.3,0.6,0.8,0.6,1.3
		c-0.1,0.5-0.1,0.9-0.2,1.3c-0.6,2-2.6,4.4-6.1,7.1c-0.2,0.2-0.8,0.4-1.7,0.5c-0.6,0.1-0.8,0.4-0.8,1c-0.5,0.8-0.7,1.5-0.6,2.2
		c0,0.3,0.1,0.8,0.4,1.6c0.6,0.8,1.6,1.3,2.9,1.3l0.2-0.2c0.6,0,1.3-0.2,2.3-0.6c1-0.6,2.6-1.4,4.7-2.5c0,0.1,0.1,0.3,0.1,0.4
		C571.7,324.1,571.6,324.3,571.4,324.4z M568.3,312.9c-0.1-0.1-0.2-0.2-0.4-0.3c-1.9,1.2-3.5,3.1-4.9,5.8c0.2,0,0.4-0.1,0.6-0.2
		c0.9-0.8,1.8-1.6,2.6-2.4C567.4,314.7,568,313.7,568.3,312.9z"/>
	<path d="M574.5,315.7c1.1-1.5,2.3-2.9,3.5-4.1c1.2-1.3,2.6-2,4.1-2.1c0.7-0.1,1.3,0,1.9,0.3c0.4,0.5,0.6,1.1,0.7,1.7
		c0,0.3-0.1,1.3-0.4,2.9l-0.7,0.1c-0.1-0.2-0.2-0.9-0.3-2.1c-0.1-0.7-0.2-1.1-0.5-1.3c-1.7,0.5-3.3,1.6-4.8,3.3
		c-0.7,0.7-1.3,1.4-2,2.1c-0.7,0.8-1.2,1.7-1.5,2.4c-0.2,0-0.5,0.5-0.7,1.4c-0.2,0.6-0.3,1-0.5,1.2c-0.3,0.6-0.8,1.7-1.4,3.5
		c0,0.3,0,0.9,0,1.7c-0.1,0.7-0.5,1.2-1.1,1.4c-0.1-0.2-0.3-0.3-0.4-0.2c-0.2,0.1-0.3,0.2-0.5,0.2c-0.3,0-0.5-0.2-0.7-0.7
		c0.6-2,1.8-6.8,3.7-14.2c-0.1-0.3-0.2-0.6-0.2-0.8c0-0.4,0.2-0.6,0.7-0.7c1.2-0.2,1.8,0,1.9,0.7c0,0.1-0.1,0.3-0.2,0.6
		c-0.1,0.3-0.1,0.8-0.1,1.3c-0.2,0-0.3,0.1-0.4,0.2c0,0.1,0,0.2,0.1,0.5l-0.2,0.5C574.6,315.5,574.6,315.6,574.5,315.7z"/>
	<path d="M585.2,318.1c0.2,0,0.2,0.1,0.2,0.1c0,0-0.1,0.1-0.1,0.1l0.6,0.2c0,0.2,0.1,0.3,0.3,0.4c0,0,0.1,0,0.2,0.1
		c0.1,0,0.2-0.1,0.3-0.1h0.4c0.2,0.3,0.6,0.6,1.4,0.8c0.8,0.2,1.2,0.5,1.5,0.7c1.5,0.8,2.4,1.7,2.7,2.8c0,0.7-0.4,1.5-1.1,2.4
		c-0.1,0-0.3,0.1-0.4,0.3c-0.1,0.2-0.2,0.3-0.3,0.4c-2.1,1.4-4,2.1-5.7,2c-1.1-0.1-2-0.4-2.8-1c-0.3-1.1-0.4-1.6-0.4-1.4
		c0-0.4,0.2-0.7,0.7-1c0.1,0.2,0.4,0.7,1,1.5c0.2,0.4,0.6,0.5,1.1,0.4c1.7-0.4,2.8-0.7,3.3-1c1.3-0.5,2.1-1.3,2.5-2.2
		c-0.1-0.8-1.3-1.7-3.5-2.6c-0.7-0.3-1.6-0.7-2.6-1.2c-0.9-0.6-1.3-1.4-1.3-2.4c0.4-0.5,0.9-1.1,1.7-1.7c1.1-0.8,1.7-1.3,2-1.5
		c0.5-0.4,1.3-0.8,2.3-1.2c0.5-0.3,1.7-0.8,3.6-1.5c0.6,0.1,1,0.2,1,0.2c0.4,0.1,0.6,0.4,0.6,0.7c0,0.3-0.2,0.5-0.7,0.8
		c-0.2,0.1-0.6,0.2-1.1,0.4c-0.5,0.2-0.8,0.4-1.1,0.4c-0.1,0-0.9,0.4-2.4,1.1c-1.7,0.8-3,1.7-3.8,2.6
		C585.4,317.6,585.3,317.8,585.2,318.1L585.2,318.1z"/>
</g>
</svg>
