<?xml version="1.0" encoding="utf-8"?>
<!-- Generator: Adobe Illustrator 18.0.0, SVG Export Plug-In . SVG Version: 6.00 Build 0)  -->
<!DOCTYPE svg PUBLIC "-//W3C//DTD SVG 1.1//EN" "http://www.w3.org/Graphics/SVG/1.1/DTD/svg11.dtd">
<svg version="1.1" id="Layer_1" xmlns="http://www.w3.org/2000/svg" xmlns:xlink="http://www.w3.org/1999/xlink" x="0px" y="0px"
	 viewBox="0 0 1400 900" enable-background="new 0 0 1400 900" xml:space="preserve">
<path fill="none" stroke="#000000" stroke-width="12.7926" stroke-miterlimit="10" d="M1131.8,5.5H268.1c-2,5.8-3.1,13-3.7,21.7
	c-8.1,119.4,35.8,216.2,123.4,294.2c19.5,17.4,27.3,35.1,26.2,60.6c-1.7,39-0.9,78.1-0.2,117.1c0.6,31.9,19.9,47.4,49.8,48.2
	c30.3,0.9,49.5-15.4,52.3-46.1c2-22,0.2-44.2,1.2-66.3c0.5-11.5-5.5-29.9,16.4-27c14.9,1.9,31.5,5.5,30.4,27.8
	c-1,19.5-0.7,39.1,0.1,58.6c1.2,31.9,17.2,51.5,50,53.4c33.5,2,49.9-18.7,56.2-48.2c2.9-13.7,2-28.6,1.1-42.8
	c-1.5-23.2,12.6-24.1,29.9-24.4c17.3-0.3,27.5,4.3,26,24c-0.9,11.6-0.5,23.4-0.1,35.1c1.3,36.2,19.2,55.9,50.7,56.4
	c31.9,0.5,50.7-18.6,52.5-54.6c1-19.5,0.1-39.1,0.8-58.6c0.8-21.2,18.4-25.2,33.2-25.6c18.8-0.5,11.1,16.9,11.9,26.9
	c1.5,19.4-1,39.3,1.8,58.4c4.5,30.9,18.9,54.4,55.2,53.4c32.6-0.9,50.8-21.6,51.7-60.3c0.8-36.4,1.3-72.9-0.2-109.3
	c-0.9-22.4,5.1-37.9,23-53.5c90.6-79.2,136-177.8,127.3-300.4C1134.5,16.6,1133.4,10.5,1131.8,5.5z"/>
<g>
	<g>
		<path d="M147.5,725.2c10.4,2.5,20.9,4.8,31.4,7c5.6,1.2,11.3,2.3,16.9,3.5l17,3.3c5.7,1.1,11.3,2.1,17,3.2l8.5,1.6l8.5,1.5l17,2.9
			l17.1,2.8c5.7,1,11.4,1.8,17.1,2.7l17.1,2.6c11.4,1.6,22.8,3.3,34.2,4.8l17.1,2.2c5.7,0.7,11.4,1.5,17.1,2.1l17.2,2
			c5.7,0.7,11.4,1.4,17.2,1.9l17.2,1.8c5.7,0.6,11.5,1.2,17.2,1.7l34.4,3.1l34.4,2.7l34.5,2.2l8.6,0.5l8.6,0.4l17.3,0.8
			c5.8,0.3,11.5,0.6,17.3,0.8l17.3,0.6l17.3,0.6c2.9,0.1,5.8,0.2,8.6,0.3l8.6,0.2l34.5,0.7c23,0,46.1,0.4,69.1-0.2
			c23-0.1,46.1-1.1,69.1-1.8c11.5-0.5,23-1.2,34.5-1.8l17.3-0.9l17.2-1.3l17.2-1.4c5.7-0.5,11.5-0.9,17.2-1.4l34.4-3.6l8.6-0.9
			l4.3-0.5l4.3-0.5l17.1-2.2c11.4-1.5,22.9-2.9,34.3-4.6l34.1-5.4l8.5-1.4l4.3-0.7l4.2-0.8l17-3.2l17-3.2l8.5-1.6
			c2.8-0.5,5.7-1,8.5-1.7l33.8-7.4c5.6-1.3,11.3-2.4,16.9-3.8l16.8-4.2l33.5-8.4l0.3,4.4c-22.7-2.6-45.5-4.7-68.3-6.8
			c-11.4-1-22.8-2-34.2-2.9l-17.1-1.4l-17.1-1.3c-5.7-0.4-11.4-0.9-17.1-1.3l-17.1-1.2l-34.3-2.3l-34.3-2.1l-34.3-1.9l-34.3-1.7
			l-34.3-1.5c-22.9-0.9-45.7-1.7-68.6-2.3l-17.2-0.5l-17.2-0.4c-11.4-0.2-22.9-0.6-34.3-0.7l-34.3-0.5l-34.3-0.3
			c-11.4-0.2-22.9-0.1-34.3-0.1c-11.4,0-22.9-0.1-34.3,0.1l-34.3,0.3l-34.3,0.6c-11.4,0.1-22.9,0.5-34.3,0.8l-17.2,0.5
			c-5.7,0.1-11.4,0.3-17.2,0.5l-34.3,1.2c-5.7,0.2-11.4,0.4-17.1,0.7l-17.1,0.8c-22.9,1-45.7,2.4-68.6,3.7
			c-11.4,0.7-22.8,1.6-34.3,2.4l-17.1,1.2c-5.7,0.4-11.4,0.9-17.1,1.4l-34.2,2.8l-34.2,3.2l-17.1,1.6l-17.1,1.9L147.5,725.2z
			 M143,724.9l36-4.9l17-2.3l17.1-2l34.1-4l34.2-3.5c5.7-0.6,11.4-1.2,17.1-1.7l17.1-1.5c11.4-1,22.8-2,34.3-2.9
			c22.9-1.6,45.7-3.5,68.6-4.7l17.2-1c5.7-0.3,11.4-0.7,17.2-0.9l34.3-1.6c5.7-0.3,11.5-0.5,17.2-0.7l17.2-0.6
			c11.5-0.4,22.9-0.8,34.4-1.1l34.4-0.9l34.4-0.5c11.5-0.2,22.9-0.2,34.4-0.3c11.5,0,22.9-0.2,34.4,0l34.4,0.2l34.4,0.6
			c11.5,0.1,22.9,0.5,34.4,0.8l17.2,0.4l17.2,0.6c22.9,0.7,45.8,1.7,68.7,2.7l34.3,1.7l34.3,1.9l34.3,2.1l34.3,2.3
			c22.9,1.7,45.7,3.4,68.5,5.5c22.8,2,45.6,4.2,68.4,6.6c22.8,2.4,45.6,4.9,68.3,7.9l12.2,1.6l-11.9,2.8l-33.7,7.9l-16.9,4
			c-5.6,1.3-11.3,2.3-17,3.5l-33.9,6.9c-2.8,0.6-5.7,1.1-8.5,1.6l-8.5,1.5l-17,3.1l-17,3.1l-4.3,0.8l-4.3,0.7l-8.6,1.3l-34.2,5.3
			l-4.3,0.7l-4.3,0.6l-8.6,1.1l-17.2,2.3l-17.2,2.3l-4.3,0.6l-4.3,0.5l-8.6,0.9l-34.4,3.8c-11.5,1.2-23,2.1-34.5,3.2l-17.2,1.6
			l-17.3,1.2c-11.5,0.8-23,1.7-34.5,2.4c-23.1,1.1-46.1,2.5-69.2,3c-23.1,0.9-46.2,0.9-69.3,1.2c-23.1-0.3-46.2-0.3-69.3-1.2
			l-17.3-0.5c-5.8-0.2-11.5-0.5-17.3-0.8l-17.3-0.9l-8.6-0.4l-8.6-0.6l-34.6-2.4l-34.5-2.9c-11.5-1-23-2.3-34.5-3.4
			c-5.7-0.5-11.5-1.2-17.2-1.9l-17.2-2c-5.7-0.6-11.5-1.4-17.2-2.1l-17.2-2.2c-5.7-0.7-11.4-1.5-17.2-2.4l-17.1-2.5
			c-11.4-1.7-22.8-3.5-34.2-5.3l-17.1-2.9c-5.7-1-11.4-1.9-17.1-3c-22.7-4-45.4-8.6-67.9-13.4c-22.6-4.9-45-10.1-67.3-16.2
			L143,724.9z"/>
	</g>
	<g>
		<path d="M156.2,723.4c-2.1,0.6-4.2,1.2-6.2,1.9c-2,0.7-4.1,1.4-6,2.3c-2,0.9-3.9,1.7-5.6,2.8c-1.8,1-3.4,2.3-4.5,3.7
			c-0.5,0.7-0.9,1.4-1.1,2c-0.2,0.7-0.1,1.3,0.2,1.9c0.2,0.7,0.7,1.4,1.2,2c0.6,0.7,1.2,1.3,2,1.9c0.7,0.6,1.5,1.2,2.3,1.8
			c0.8,0.6,1.7,1.1,2.6,1.6c0.9,0.5,1.8,1,2.7,1.5c0.9,0.5,1.8,1,2.8,1.4l1.2,0.6l0.4,1.5c1.7,5.9,3.3,11.9,4.9,17.8l2.4,8.9
			l2.3,8.9l2.2,9l2.2,9c0.7,3,1.4,6,2.1,9l2.1,9c1.4,6,2.7,12,4,18l1.9,9c0.6,3,1.2,6,1.8,9.1l1.7,9.1c0.6,3,1.1,6.1,1.6,9.1
			c0.6,3,1,6.1,1.5,9.1c0.5,3,1,6.1,1.4,9.2c-1-2.9-2.1-5.8-3-8.8c-1-2.9-1.9-5.9-2.9-8.8c-0.9-2.9-1.9-5.9-2.8-8.8l-2.7-8.8
			c-0.9-2.9-1.7-5.9-2.6-8.9l-2.5-8.9c-1.6-5.9-3.3-11.9-4.8-17.8l-2.3-8.9c-0.8-3-1.5-6-2.3-8.9l-2.2-9l-2.2-9l-2.1-9l-2-9
			c-1.3-6-2.7-12-3.9-18l1.6,2.1c-1.9-1.1-3.9-2.3-5.7-3.6c-0.9-0.7-1.9-1.3-2.8-2.1c-0.9-0.7-1.8-1.5-2.6-2.4
			c-0.8-0.9-1.6-1.8-2.3-2.9c-0.7-1.1-1.3-2.3-1.7-3.7c-0.3-1.4-0.3-3,0.2-4.5c0.5-1.4,1.3-2.6,2.2-3.5c0.9-0.9,1.9-1.6,2.9-2.2
			c1-0.6,2.1-1.1,3.1-1.6c2.1-0.9,4.2-1.6,6.4-2.1c2.1-0.5,4.3-1,6.5-1.3C151.9,723.8,154,723.5,156.2,723.4z"/>
	</g>
	<g>
		<path d="M1243.4,723.4c2.2,0.1,4.3,0.4,6.5,0.7c2.2,0.3,4.3,0.8,6.5,1.3c2.1,0.5,4.3,1.2,6.4,2.1c1,0.4,2.1,1,3.1,1.6
			c1,0.6,2,1.3,2.9,2.2c0.9,0.9,1.8,2.1,2.2,3.5c0.5,1.4,0.6,3,0.2,4.5c-0.3,1.4-1,2.7-1.7,3.7c-0.7,1.1-1.5,2-2.3,2.9
			c-0.8,0.9-1.7,1.7-2.6,2.4c-0.9,0.7-1.8,1.4-2.8,2.1c-1.9,1.3-3.8,2.5-5.7,3.6l1.6-2.1c-1.3,6-2.6,12-3.9,18l-2,9l-2.1,9l-2.2,9
			l-2.2,9c-0.7,3-1.5,6-2.3,8.9l-2.3,8.9c-1.6,5.9-3.2,11.9-4.8,17.8l-2.5,8.9c-0.9,3-1.7,5.9-2.6,8.9l-2.7,8.8
			c-0.9,3-1.8,5.9-2.8,8.8c-0.9,2.9-1.9,5.9-2.9,8.8c-1,2.9-2,5.8-3,8.8c0.4-3.1,0.9-6.1,1.4-9.2c0.5-3,1-6.1,1.5-9.1
			c0.5-3,1-6.1,1.6-9.1l1.7-9.1c0.6-3,1.2-6,1.8-9.1l1.9-9c1.3-6,2.6-12,4-18l2.1-9c0.7-3,1.4-6,2.1-9l2.2-9l2.2-9l2.3-8.9l2.4-8.9
			c1.6-5.9,3.2-11.9,4.9-17.8l0.4-1.5l1.2-0.6c0.9-0.5,1.9-0.9,2.8-1.4c0.9-0.5,1.8-1,2.7-1.5c0.9-0.5,1.7-1.1,2.6-1.6
			c0.8-0.6,1.6-1.2,2.3-1.8c0.7-0.6,1.4-1.3,2-1.9c0.6-0.7,1-1.4,1.2-2c0.2-0.7,0.3-1.3,0.2-1.9c-0.1-0.7-0.5-1.4-1.1-2
			c-1.1-1.4-2.7-2.6-4.5-3.7c-1.8-1.1-3.7-1.9-5.6-2.8c-2-0.8-4-1.6-6-2.3C1247.6,724.6,1245.5,724,1243.4,723.4z"/>
	</g>
	<g>
		<path d="M339,789c0,0,2.8,0.4,8.1,1.2c5.3,0.8,13,1.8,22.9,3.2c9.9,1.3,21.9,2.8,35.7,4.4c3.4,0.4,7,0.8,10.7,1.2
			c3.7,0.4,7.4,0.8,11.3,1.2c7.7,0.8,15.9,1.6,24.4,2.5c8.5,0.8,17.4,1.7,26.5,2.4c4.6,0.4,9.2,0.8,14,1.2c4.7,0.4,9.5,0.7,14.4,1.1
			c2.4,0.2,4.9,0.4,7.4,0.6c2.5,0.2,5,0.3,7.5,0.5c5,0.3,10.1,0.7,15.2,1c10.3,0.6,20.7,1.3,31.4,1.8c10.7,0.5,21.5,1.1,32.5,1.5
			c5.5,0.2,11,0.4,16.6,0.6c5.5,0.2,11.1,0.4,16.7,0.5c2.8,0.1,5.6,0.2,8.4,0.3c2.8,0.1,5.6,0.1,8.4,0.2c5.6,0.1,11.3,0.2,17,0.4
			c11.3,0.2,22.7,0.2,34.1,0.3c11.4,0,22.8,0,34.1-0.1c5.7-0.1,11.3-0.2,17-0.2c2.8,0,5.6-0.1,8.4-0.1c2.8,0,5.6-0.1,8.4-0.2
			c22.4-0.6,44.4-1.3,65.7-2.4c21.3-1.1,41.9-2.4,61.4-3.8c9.7-0.8,19.2-1.6,28.4-2.3c9.2-0.9,18-1.7,26.5-2.6
			c8.5-0.8,16.6-1.8,24.4-2.6c7.7-0.9,15.1-1.6,22-2.5c6.9-0.9,13.3-1.7,19.3-2.5c3-0.4,5.8-0.8,8.6-1.1c1.4-0.2,2.7-0.4,4-0.5
			c1.3-0.2,2.6-0.4,3.8-0.6c9.9-1.5,17.6-2.6,22.9-3.4c5.3-0.8,8.1-1.2,8.1-1.2s-2.8,0.5-8,1.5c-5.3,1-12.9,2.5-22.8,4.3
			c-1.2,0.2-2.5,0.5-3.8,0.7c-1.3,0.2-2.6,0.4-4,0.7c-2.7,0.4-5.6,0.9-8.5,1.4c-5.9,1-12.4,2-19.2,3.1c-6.9,1.1-14.2,2.1-21.9,3.2
			c-7.7,1.1-15.8,2.3-24.3,3.2c-8.5,1-17.3,2.1-26.5,3.2c-9.2,0.9-18.7,1.9-28.4,2.8c-4.9,0.5-9.8,0.9-14.8,1.3
			c-5,0.4-10.1,0.8-15.2,1.3c-2.6,0.2-5.1,0.4-7.7,0.6c-2.6,0.2-5.2,0.3-7.8,0.5c-5.2,0.3-10.5,0.7-15.9,1c-2.7,0.2-5.3,0.3-8,0.5
			c-2.7,0.1-5.4,0.3-8.1,0.4c-5.4,0.3-10.9,0.5-16.4,0.8c-11,0.6-22.1,0.8-33.4,1.2c-2.8,0.1-5.6,0.2-8.4,0.2
			c-2.8,0-5.6,0.1-8.5,0.1c-5.7,0.1-11.3,0.2-17,0.3c-5.7,0.1-11.4,0.1-17.1,0.1c-5.7,0-11.4,0-17.1,0.1
			c-11.4-0.1-22.8-0.2-34.2-0.5c-5.7-0.1-11.3-0.3-17-0.4c-2.8-0.1-5.6-0.1-8.5-0.2c-2.8-0.1-5.6-0.2-8.4-0.3
			c-5.6-0.2-11.2-0.4-16.8-0.6c-5.6-0.3-11.1-0.5-16.6-0.8c-11-0.5-21.8-1.2-32.5-1.8c-5.3-0.3-10.6-0.7-15.9-1.1
			c-5.2-0.4-10.4-0.8-15.6-1.1c-5.1-0.4-10.2-0.9-15.2-1.3c-2.5-0.2-5-0.4-7.5-0.6c-2.5-0.2-4.9-0.5-7.4-0.7
			c-19.5-1.7-37.9-3.8-54.9-5.8c-17-2-32.5-4.1-46.3-6.1c-13.8-2-25.7-3.9-35.6-5.5c-9.8-1.6-17.5-3.1-22.8-4.1
			C341.8,789.6,339,789,339,789z"/>
	</g>
</g>
<rect width="0.5" height="0.5"/>
<rect y="899.6" width="0.4" height="0.4"/>
<rect x="1399.5" y="899.5" width="0.5" height="0.5"/>
<rect x="1399.5" width="0.5" height="0.5"/>
</svg>
