<?xml version="1.0" encoding="utf-8"?>
<!-- Generator: Adobe Illustrator 18.0.0, SVG Export Plug-In . SVG Version: 6.00 Build 0)  -->
<!DOCTYPE svg PUBLIC "-//W3C//DTD SVG 1.1//EN" "http://www.w3.org/Graphics/SVG/1.1/DTD/svg11.dtd">
<svg version="1.1" id="Layer_1" xmlns="http://www.w3.org/2000/svg" xmlns:xlink="http://www.w3.org/1999/xlink" x="0px" y="0px"
	 viewBox="0 0 1400 900" enable-background="new 0 0 1400 900" xml:space="preserve">
<path fill="none" stroke="#000000" stroke-width="12.7926" stroke-miterlimit="10" d="M1131.8,5.5H268.1c-2,5.8-3.1,13-3.7,21.7
	c-8.1,119.4,35.8,216.2,123.4,294.2c19.5,17.4,27.3,35.1,26.2,60.6c-1.7,39-0.9,78.1-0.2,117.1c0.6,31.9,19.9,47.4,49.8,48.2
	c30.3,0.9,49.5-15.4,52.3-46.1c2-22,0.2-44.2,1.2-66.3c0.5-11.5-5.5-29.9,16.4-27c14.9,1.9,31.5,5.5,30.4,27.8
	c-1,19.5-0.7,39.1,0.1,58.6c1.2,31.9,17.2,51.5,50,53.4c33.5,2,49.9-18.7,56.2-48.2c2.9-13.7,2-28.6,1.1-42.8
	c-1.5-23.2,12.6-24.1,29.9-24.4c17.3-0.3,27.5,4.3,26,24c-0.9,11.6-0.5,23.4-0.1,35.1c1.3,36.2,19.2,55.9,50.7,56.4
	c31.9,0.5,50.7-18.6,52.5-54.6c1-19.5,0.1-39.1,0.8-58.6c0.8-21.2,18.4-25.2,33.2-25.6c18.8-0.5,11.1,16.9,11.9,26.9
	c1.5,19.4-1,39.3,1.8,58.4c4.5,30.9,18.9,54.4,55.2,53.4c32.6-0.9,50.8-21.6,51.7-60.3c0.8-36.4,1.3-72.9-0.2-109.3
	c-0.9-22.4,5.1-37.9,23-53.5c90.6-79.2,136-177.8,127.3-300.4C1134.5,16.6,1133.4,10.5,1131.8,5.5z"/>
<rect width="0.5" height="0.5"/>
<rect y="899.6" width="0.4" height="0.4"/>
<rect x="1399.5" y="899.5" width="0.5" height="0.5"/>
<rect x="1399.5" width="0.5" height="0.5"/>
</svg>
