<?xml version="1.0" encoding="utf-8"?>
<!-- Generator: Adobe Illustrator 18.0.0, SVG Export Plug-In . SVG Version: 6.00 Build 0)  -->
<!DOCTYPE svg PUBLIC "-//W3C//DTD SVG 1.1//EN" "http://www.w3.org/Graphics/SVG/1.1/DTD/svg11.dtd">
<svg version="1.1" id="Layer_1" xmlns="http://www.w3.org/2000/svg" xmlns:xlink="http://www.w3.org/1999/xlink" x="0px" y="0px"
	 viewBox="0 0 1400 900" enable-background="new 0 0 1400 900" xml:space="preserve">
<path fill="none" stroke="#000000" stroke-width="8.4979" stroke-miterlimit="10" d="M469.5,853l-92.8-195.1l807.3,97.6
	c0,0-80.3,75.5-72.4,127.5"/>
<g>
	<path d="M0.5,802.7c10.9,4.5,21.9,8.6,33,12.5c11.1,3.9,22.3,7.6,33.5,11.1c11.2,3.5,22.5,6.9,33.9,10c11.3,3.2,22.7,6.1,34.1,8.9
		c11.4,2.8,22.9,5.3,34.4,7.7c11.5,2.3,23.1,4.6,34.7,6.5c11.6,1.9,23.2,3.6,34.9,5.1c11.7,1.5,23.3,2.6,35,3.5
		c11.7,0.9,23.4,1.5,35.1,1.9c5.9,0.2,11.7,0.2,17.6,0.3c5.9-0.1,11.7-0.1,17.6-0.3c5.9-0.1,11.7-0.5,17.5-0.8
		c5.8-0.4,11.7-0.8,17.5-1.4c11.6-1.1,23.3-2.6,34.8-4.6c11.5-2,23-4.3,34.3-7.3c11.3-3,22.5-6.3,33.4-10.3
		c10.9-4,21.7-8.5,32.2-13.6c10.4-5.1,20.6-10.8,30.5-17l2.3-1.4l2.3,1.6c2.8,2,5.9,4,8.9,5.9c3.1,1.9,6.2,3.7,9.3,5.5
		c6.3,3.6,12.7,6.9,19.2,10.1c13,6.3,26.4,11.8,40.1,16.4c13.7,4.6,27.6,8.3,41.8,11c7.1,1.3,14.2,2.4,21.4,3.2
		c7.2,0.8,14.3,1.3,21.5,1.5c7.2,0.2,14.4,0.2,21.5-0.3c7.2-0.4,14.3-1.1,21.4-2.1c7.1-1.1,14.2-2.4,21.1-4.1
		c1.8-0.4,3.5-0.9,5.2-1.3c1.7-0.5,3.5-0.9,5.2-1.4l5.2-1.5l5.1-1.7c1.7-0.5,3.4-1.2,5.1-1.8c1.7-0.6,3.4-1.2,5.1-1.9
		c3.3-1.4,6.7-2.6,9.9-4.1c6.6-2.8,13-6.1,19.4-9.5c3.1-1.8,6.3-3.5,9.3-5.4l4.6-2.8l4.5-2.9c3-1.9,6-4,8.9-6.1
		c1.5-1,2.9-2.1,4.4-3.2l4.3-3.2l2.5-1.9l2.5,1.9c2.1,1.6,4.6,3.3,6.9,4.9c2.4,1.6,4.8,3.2,7.3,4.7c4.9,3,9.9,5.9,15,8.7
		c10.2,5.5,20.6,10.5,31.3,15.1c10.7,4.5,21.5,8.6,32.6,12.2c11,3.6,22.2,6.7,33.5,9.3c22.6,5.3,45.6,8.6,68.8,10
		c11.6,0.7,23.2,0.9,34.8,0.6c11.6-0.3,23.2-1,34.8-2.2c11.6-1.2,23.1-2.8,34.6-4.9c2.9-0.5,5.7-1.1,8.6-1.7l4.3-0.8l4.3-0.9
		c2.8-0.6,5.7-1.2,8.5-1.9l8.5-2.1c11.3-2.9,22.5-6.2,33.5-9.9c11.1-3.6,22-7.8,32.8-12.1c10.8-4.5,21.5-9.1,32-14.2l7.9-3.8l7.8-4
		c5.2-2.6,10.3-5.4,15.5-8.2l3.9-2.1l3.8-2.2l7.6-4.3c5.1-2.9,10-6,15.1-9c5-3.1,9.9-6.2,14.9-9.3l14.6-9.7l-14.4,10.1
		c-4.9,3.2-9.7,6.5-14.6,9.7l-7.4,4.7c-2.5,1.6-4.9,3.2-7.4,4.7l-7.5,4.5l-3.8,2.3l-3.8,2.2c-5.1,2.9-10.2,5.8-15.4,8.6l-7.7,4.2
		l-7.8,4c-10.5,5.3-21.1,10.2-31.9,14.9c-10.8,4.5-21.7,8.9-32.8,12.8c-5.5,2-11.1,3.8-16.7,5.6c-2.8,0.9-5.6,1.7-8.4,2.5
		c-2.8,0.8-5.6,1.7-8.5,2.4l-8.5,2.3c-2.8,0.7-5.7,1.4-8.6,2.1l-4.3,1l-4.3,0.9c-2.9,0.6-5.8,1.2-8.6,1.8c-11.6,2.2-23.2,4-34.9,5.4
		c-11.7,1.4-23.5,2.2-35.2,2.6c-11.8,0.4-23.6,0.3-35.4-0.3c-23.6-1.2-47-4.3-70.1-9.4c-11.5-2.6-22.9-5.7-34.2-9.2
		c-11.3-3.5-22.4-7.7-33.3-12.2c-10.9-4.6-21.6-9.6-32.1-15.2c-5.2-2.8-10.4-5.7-15.4-8.8c-2.5-1.5-5-3.1-7.5-4.8
		c-2.5-1.7-4.9-3.3-7.4-5.2l4.9,0c-3,2.2-5.9,4.5-8.9,6.6c-3,2.1-6,4.3-9.2,6.3l-4.7,3l-4.7,2.9c-3.1,2-6.4,3.7-9.6,5.6
		c-6.5,3.5-13.1,6.9-20,9.9c-3.4,1.6-6.8,2.9-10.3,4.3c-1.7,0.7-3.5,1.3-5.2,2c-1.7,0.6-3.5,1.3-5.3,1.9l-5.3,1.8l-5.3,1.6
		c-1.8,0.6-3.6,1-5.4,1.5c-1.8,0.5-3.6,1-5.4,1.4c-7.2,1.8-14.5,3.1-21.9,4.2c-7.4,1.1-14.8,1.8-22.2,2.3
		c-7.4,0.5-14.9,0.5-22.3,0.3c-7.4-0.2-14.8-0.7-22.2-1.6c-7.4-0.8-14.7-1.9-22-3.3c-14.6-2.7-28.9-6.6-42.9-11.3
		c-14-4.8-27.7-10.4-41-16.9c-6.6-3.2-13.2-6.7-19.6-10.4c-3.2-1.8-6.4-3.7-9.5-5.7c-3.2-2-6.2-4-9.4-6.2l4.5,0.2
		c-10.2,6.3-20.6,12-31.4,17.2c-10.8,5.1-21.8,9.6-33,13.7c-11.2,4-22.6,7.3-34.2,10.3c-11.5,3-23.2,5.2-34.9,7.2
		c-11.7,1.9-23.5,3.3-35.3,4.3c-5.9,0.5-11.8,0.9-17.7,1.2c-5.9,0.2-11.8,0.5-17.8,0.6c-5.9,0.2-11.8,0.1-17.8,0.1
		c-5.9-0.1-11.8-0.2-17.7-0.5c-11.8-0.5-23.6-1.2-35.4-2.3c-11.8-1.1-23.5-2.5-35.2-4.1c-11.7-1.6-23.4-3.5-35-5.7
		c-23.2-4.2-46.3-9.5-69.1-15.5c-11.4-3-22.8-6.2-34.1-9.6c-11.3-3.4-22.5-7-33.7-10.8c-11.2-3.8-22.3-7.8-33.3-12
		C22.2,811.8,11.3,807.4,0.5,802.7z"/>
</g>
<polyline fill="none" stroke="#000000" stroke-width="8" stroke-miterlimit="10" points="529,676 529,599.8 691.1,620 1147,676.8 
	1147,751 "/>
<path fill="none" stroke="#000000" stroke-width="8" stroke-miterlimit="10" d="M700.1,491.9c0,0,15.9-12.4,36.9,0.2v131.1
	l-45.9-5.3L700.1,491.9z"/>
<path fill="none" stroke="#000000" stroke-width="8" stroke-miterlimit="10" d="M817,514.5c0,0,16-11.7,37,0.2V638l-46-5L817,514.5z
	"/>
<path fill="none" stroke="#000000" stroke-width="8" stroke-miterlimit="10" d="M933.9,537.2c0,0,15.1-10.9,37.1,0.2v115.6l-46-4.7
	L933.9,537.2z"/>
<path fill="none" stroke="#000000" stroke-width="8" stroke-miterlimit="10" d="M1042.1,559.2c0,0,15.9-10,36.9,0.2v106.3l-45.9-4.3
	L1042.1,559.2z"/>
<text transform="matrix(0.8763 0 0 1 0.5167 183.6412)" font-family="'Amatic-Bold'" font-size="207.7494">Viili comes to the USA</text>
</svg>
