<?xml version="1.0" encoding="utf-8"?>
<!-- Generator: Adobe Illustrator 18.0.0, SVG Export Plug-In . SVG Version: 6.00 Build 0)  -->
<!DOCTYPE svg PUBLIC "-//W3C//DTD SVG 1.1//EN" "http://www.w3.org/Graphics/SVG/1.1/DTD/svg11.dtd">
<svg version="1.1" id="Layer_1" xmlns="http://www.w3.org/2000/svg" xmlns:xlink="http://www.w3.org/1999/xlink" x="0px" y="0px"
	 viewBox="374.9 109.1 652.2 747.5" enable-background="new 374.9 109.1 652.2 747.5" xml:space="preserve">
<g>
	<g>
		<path fill="none" stroke="#000000" stroke-width="7.0468" stroke-miterlimit="10" d="M691.6,304.1c55.8-0.1,111.5,1.2,167.2,3.9
			c0,0,15.6,10.2,0,22.8c-5.3-0.2-8-0.3-13.4-0.6c-11.1,62.1-22.2,124.1-33.2,186.2c-4.9,8.3-14.4,12.8-23.5,14.5
			c-31.7,5.9-65.4,10.2-98.2,9.3"/>
		<path fill="none" stroke="#000000" stroke-width="7.0468" stroke-miterlimit="10" d="M691.6,304.1c-57.4,0.3-114.7,2-172,5.1
			c0,0-15.6,10.2,0,22.7c5.3-0.3,8-0.4,13.3-0.6C544,393,555,454.6,566,516.3c4.9,8.3,14.4,12.8,23.5,14.5c32.4,6,67,10.3,100.6,9.5
			"/>
		<path d="M553.5,307.5c0.5-2.9,1.3-5.8,2.3-8.7c0.5-1.4,1.1-2.8,1.6-4.3c0.7-1.4,1.3-2.8,2-4.2c1.4-2.8,3-5.5,4.8-8.2
			c0.9-1.3,1.9-2.6,2.8-3.9c1-1.2,2-2.6,3.1-3.8c1.1-1.2,2.2-2.5,3.5-3.6c1.2-1.1,2.4-2.3,3.8-3.4c1.3-1.1,2.6-2.2,4-3.1
			c0.8-0.6,1.3-0.9,2.1-1.5c0.7-0.5,1.5-0.9,2.2-1.4c0.9-0.5,1.4-0.8,2.3-1.3c0.7-0.5,1.6-0.8,2.3-1.2c1.6-0.8,3.1-1.6,4.8-2.2
			c3.3-1.4,6.7-2.4,10.1-3.3c2.1-0.4,3.1-0.7,5.2-1.1c1.8-0.3,3.5-0.5,5.3-0.7c1.8-0.3,3.5-0.3,5.3-0.4c1.8-0.1,3.5-0.2,5.3-0.1
			c2.1,0.1,3.2,0.1,5.3,0.2c2.1,0.2,3.1,0.3,5.2,0.6c1,0.1,1.6,0.2,2.6,0.3c0.9,0.1,1.7,0.3,2.5,0.4c2,0.4,3,0.6,5.1,1
			c1.7,0.3,3.3,0.8,5,1.2c1.6,0.4,3.3,0.8,4.9,1.3c3.2,1.1,6.4,2.1,9.6,3.3c3.1,1.3,6.2,2.5,9.3,3.8c3.6,1.7,5.4,2.6,9,4.3
			c-1.6,0.6-2.5,0.9-4.1,1.5c0.1-0.3,0.2-0.5,0.3-0.8c0.1-0.2,0.2-0.4,0.3-0.7c0.2-0.4,0.5-0.8,0.7-1.2c0.5-0.8,1.1-1.6,1.7-2.3
			c0.6-0.7,1.2-1.5,1.9-2.1c0.4-0.4,0.6-0.6,1-1c0.4-0.3,0.7-0.6,1.1-0.9c0.4-0.3,0.7-0.6,1.1-0.9c0.5-0.3,0.7-0.5,1.2-0.8
			c0.5-0.3,0.7-0.5,1.2-0.8c0.5-0.3,0.8-0.4,1.3-0.7c0.9-0.5,1.7-0.9,2.6-1.3c0.9-0.3,1.8-0.8,2.7-1c1.1-0.3,1.7-0.5,2.8-0.8
			c0.9-0.3,1.9-0.4,2.8-0.6c0.9-0.2,1.9-0.4,2.9-0.4c1.1-0.1,1.7-0.1,2.9-0.2c0.9-0.1,1.9,0,2.9,0c1.1,0,1.7,0,2.8,0.1
			c1.9,0.2,3.7,0.4,5.6,0.7c-2.2,0.1-3.4,0.1-5.6,0.2c-1.1,0.1-1.6,0.2-2.7,0.3c-0.9,0.1-1.8,0.2-2.7,0.4c-1.1,0.2-1.6,0.3-2.7,0.6
			c-0.9,0.2-1.7,0.4-2.6,0.7c-0.8,0.3-1.7,0.5-2.5,0.8c-1,0.4-1.4,0.6-2.4,1c-0.8,0.3-1.5,0.8-2.3,1.2c-0.8,0.4-1.5,0.9-2.1,1.3
			c-0.4,0.3-0.6,0.4-1,0.7c-0.4,0.3-0.6,0.5-1,0.8c-0.4,0.3-0.6,0.5-1,0.8c-0.3,0.3-0.6,0.6-0.9,0.8c-0.3,0.3-0.5,0.5-0.9,0.8
			c-0.3,0.4-0.5,0.5-0.8,0.9c-0.5,0.6-0.9,1.2-1.4,1.9c-0.4,0.7-0.8,1.3-1.1,2c-0.2,0.3-0.3,0.7-0.5,1c-0.1,0.2-0.2,0.3-0.2,0.5
			c-0.1,0.2-0.1,0.3-0.1,0.4c-0.3,1.2-0.4,1.7-0.6,2.9c-1.4-0.6-2.1-0.8-3.4-1.4c-3.6-1.4-5.4-2.2-9-3.6c-3-1.1-6.1-2.1-9.2-3.2
			c-1.5-0.6-3.1-0.9-4.6-1.4c-1.9-0.5-2.8-0.8-4.6-1.4c-1.6-0.4-3.1-0.7-4.7-1.1c-1.6-0.3-3.1-0.8-4.7-1.1c-1.9-0.3-2.9-0.5-4.8-0.8
			c-0.8-0.1-1.6-0.3-2.4-0.4c-1-0.1-1.4-0.2-2.4-0.3c-1.9-0.2-2.9-0.3-4.8-0.5c-1.9-0.1-2.9-0.1-4.8-0.2c-1.6-0.1-3.2,0-4.8,0
			c-1.6,0.1-3.2,0-4.8,0.3c-1.6,0.2-3.2,0.3-4.7,0.5c-1.9,0.4-2.8,0.5-4.7,0.9c-3.1,0.7-6.2,1.5-9.1,2.7c-1.5,0.5-2.9,1.2-4.4,1.8
			c-0.7,0.3-1.5,0.6-2.1,1c-0.8,0.4-1.2,0.7-2.1,1.1c-0.7,0.4-1.4,0.7-2.1,1.1c-0.8,0.5-1.2,0.7-2,1.2c-1.4,0.8-2.6,1.7-3.9,2.6
			c-2.5,1.8-4.9,3.9-7.2,6c-1.2,1-2.2,2.2-3.3,3.3c-1,1.1-2.1,2.3-3.1,3.5c-1.9,2.4-3.9,4.8-5.5,7.3c-1.7,2.5-3.3,5.1-4.8,7.8
			C556,302,554.6,304.7,553.5,307.5z"/>
		<path d="M834.5,306.8c0-1.5-0.1-3-0.3-4.5c-0.2-1.5-0.5-3-0.8-4.4c-0.4-1.5-0.8-2.9-1.4-4.3c-0.3-0.7-0.6-1.4-1-2.1
			c-0.4-0.7-0.7-1.3-1.2-1.9c-0.2-0.3-0.4-0.6-0.7-0.9c-0.2-0.3-0.5-0.6-0.7-0.9c-0.5-0.6-1.1-1.1-1.6-1.6c-0.4-0.3-0.5-0.4-0.9-0.7
			c-0.3-0.2-0.6-0.4-1-0.6c-0.3-0.2-0.7-0.4-1-0.6c-0.3-0.2-0.7-0.4-1-0.5c-0.7-0.3-1.5-0.5-2.2-0.7c-0.8-0.1-1.5-0.4-2.3-0.4
			c-0.8-0.1-1.6-0.1-2.4-0.2c-0.8,0-1.6,0.1-2.4,0.1c-0.8,0-1.2,0-2,0c-0.1-0.7-0.1-1.1-0.1-1.8c-0.1-1-0.2-2.1-0.4-3.1
			c-0.2-1.1-0.4-2.1-0.7-3.2c-0.3-1-0.6-2.1-1-3.1c-0.4-1-0.8-2-1.3-3c-0.2-0.5-0.5-1-0.8-1.4c-0.3-0.5-0.6-0.9-0.9-1.4
			c-0.3-0.5-0.6-0.9-1-1.3c-0.3-0.4-0.7-0.9-1-1.3c-0.3-0.4-0.7-0.8-1.1-1.2c-0.2-0.2-0.3-0.3-0.6-0.6c-0.3-0.2-0.4-0.3-0.6-0.5
			c-0.4-0.4-0.8-0.7-1.3-1c-0.4-0.3-0.9-0.6-1.4-0.9c-0.9-0.6-1.9-1.1-2.9-1.5c-0.6-0.2-0.9-0.4-1.6-0.6c-0.5-0.2-1.1-0.3-1.6-0.5
			c-0.5-0.2-1.1-0.3-1.7-0.4c-0.6-0.1-1.1-0.2-1.7-0.3c-0.7-0.1-1-0.1-1.7-0.2c-0.6-0.1-1.2,0-1.7-0.1c-1.2-0.1-2.3,0-3.5,0.1
			c-1.2,0.1-2.4,0.2-3.5,0.3c-1.4,0.2-2.1,0.3-3.5,0.6c-1.4,0.3-2.1,0.5-3.5,0.8c-2.5,0.6-3.8,0.8-6.3,1.4c0.8-2.2,1.2-3.3,2.1-5.4
			c0.5-1.2,0.9-2.6,1.3-4c0.4-1.4,0.7-2.8,1-4.2c0.6-2.8,1-5.6,1.2-8.5c0.1-1.4,0.2-2.8,0.2-4.3c0-1.4,0-2.8,0-4.2
			c-0.1-1.4-0.2-2.8-0.4-4.2c-0.1-0.7-0.2-1.4-0.3-2.1c-0.1-0.7-0.2-1.4-0.4-2.1c-0.2-0.7-0.3-1.4-0.5-2.1c-0.2-0.8-0.3-1.2-0.6-2
			c-0.5-1.3-0.9-2.7-1.5-4c-0.5-1.3-1.2-2.6-1.8-3.9c-0.7-1.2-1.4-2.5-2.3-3.7c-0.8-1.2-1.7-2.3-2.6-3.5c-0.6-0.7-0.9-1-1.5-1.7
			c-0.2-0.3-0.5-0.6-0.7-0.8c-0.3-0.3-0.5-0.5-0.8-0.8c-0.5-0.5-1.1-1.1-1.6-1.6c-0.7-0.6-1-0.9-1.7-1.5c-0.6-0.5-1.2-1-1.8-1.4
			c-0.7-0.5-1.1-0.8-1.8-1.4c2.4-1.4,3.6-2.1,6.1-3.4c0.2,0.5,0.2,0.9,0.3,1.3c0.1,0.4,0.1,0.8,0.2,1.2c0.1,0.8,0.2,1.5,0.2,2.3
			c0,1.5-0.1,3.1-0.3,4.6c-0.3,1.5-0.7,3-1.4,4.5c-0.6,1.5-1.5,2.9-2.5,4.1c-2.1,2.6-4.9,4.6-7.9,6.1c-3,1.5-6.2,2.5-9.4,3.1
			c-3.2,0.6-6.4,1-9.6,1.1c-3.2,0.2-6.4,0.1-9.5,0c-1.9-0.1-2.8-0.2-4.7-0.3c-1.8-0.1-2.7-0.2-4.4-0.3c-1.7,0-2.5,0-4.2,0
			c-1.4,0.1-2.9,0.2-4.3,0.4c-0.9,0.1-1.3,0.2-2.1,0.3c-0.4,0.1-0.6,0.1-1.1,0.2c-0.4,0.1-0.6,0.1-1,0.2c-0.8,0.2-1.3,0.3-2.1,0.5
			c-0.7,0.2-1.4,0.4-2.1,0.6c-2.8,0.7-5.4,1.8-7.9,3.1c-2.5,1.3-4.9,2.7-7.2,4.4c-2.2,1.7-4.4,3.5-6.3,5.5c-2,2-3.8,4.1-5.5,6.3
			c-1.6,2.2-3.2,4.5-4.6,6.9c-1.4,2.4-2.6,4.8-3.8,7.3c-1.1,2.5-2.1,5-2.9,7.6c0.4-2.7,1.1-5.3,1.9-7.9c0.8-2.6,1.8-5.2,3-7.7
			c1.2-2.5,2.5-5,4-7.4c1.5-2.4,3.2-4.7,5.1-7c1.9-2.2,4-4.3,6.3-6.3c2.3-1.9,4.8-3.7,7.5-5.2c2.7-1.5,5.6-2.9,8.6-3.9
			c0.8-0.3,1.5-0.5,2.3-0.8c0.9-0.2,1.4-0.4,2.3-0.6c0.5-0.1,0.7-0.2,1.2-0.3c0.5-0.1,0.7-0.1,1.2-0.2c0.9-0.2,1.4-0.3,2.4-0.4
			c1.6-0.3,3.2-0.4,4.8-0.6c1.6-0.1,3.3-0.2,4.9-0.2c1.9,0,2.8,0.1,4.7,0.1c1.8,0.1,2.7,0.1,4.4,0.1c1.5,0,2.9,0,4.4,0
			c1.5-0.1,2.9-0.1,4.3-0.2c2.9-0.2,5.7-0.6,8.4-1.2c2.7-0.6,5.2-1.5,7.4-2.6c2.2-1.1,4-2.7,5.4-4.4c0.7-0.9,1.3-1.8,1.7-2.8
			c0.4-1,0.8-2.1,0.9-3.2c0.2-1.1,0.3-2.2,0.2-3.4c0-0.6-0.1-1.1-0.2-1.7c0-0.3-0.1-0.6-0.1-0.8c0-0.2-0.1-0.6-0.2-0.7
			c-1.1-3.9-1.6-5.9-2.7-9.9c3.5,2.6,5.3,3.8,8.8,6.4c0.9,0.6,1.3,0.9,2.1,1.6c0.7,0.5,1.4,1,2.1,1.6c0.8,0.7,1.2,1,2,1.7
			c0.6,0.6,1.3,1.2,1.9,1.8c0.4,0.4,0.6,0.5,0.9,0.9c0.3,0.3,0.6,0.6,0.9,1c0.7,0.8,1,1.2,1.7,1.9c1,1.4,2.2,2.7,3,4.1
			c1,1.4,1.8,2.9,2.6,4.3c0.7,1.5,1.5,3,2.1,4.5c0.6,1.5,1.1,3.1,1.6,4.6c0.3,0.9,0.4,1.4,0.6,2.3c0.2,0.8,0.3,1.6,0.5,2.3
			c0.2,0.8,0.3,1.6,0.4,2.3c0.1,0.8,0.2,1.6,0.3,2.3c0.2,1.6,0.3,3.1,0.4,4.7c0,1.6,0,3.1,0,4.7c-0.1,1.5-0.2,3.1-0.4,4.6
			c-0.4,3.1-0.9,6.1-1.6,9.1c-0.4,1.5-0.8,3-1.2,4.5c-0.5,1.5-0.9,2.9-1.6,4.5c-1.7-1.6-2.5-2.4-4.2-4.1c1.6-0.3,2.3-0.5,3.9-0.8
			c1.6-0.2,2.4-0.3,4-0.5c1.4-0.1,2.7-0.2,4.1-0.2c1.4,0,2.8,0,4.2,0.1c0.7,0.1,1.4,0.1,2.1,0.2c0.8,0.1,1.3,0.2,2.1,0.3
			c0.7,0.1,1.4,0.3,2.1,0.4c0.7,0.2,1.4,0.3,2.1,0.6c0.7,0.2,1.4,0.4,2,0.7c0.8,0.3,1.2,0.5,2,0.8c1.3,0.6,2.5,1.3,3.7,2.1
			c0.6,0.4,1.1,0.8,1.7,1.2c0.6,0.4,1.1,0.9,1.6,1.3c0.3,0.3,0.5,0.4,0.8,0.7c0.3,0.3,0.4,0.4,0.7,0.7c0.5,0.5,0.9,1,1.3,1.5
			c0.4,0.5,0.8,1,1.2,1.6c0.4,0.5,0.7,1.1,1,1.6c0.3,0.5,0.6,1.1,0.9,1.7c0.3,0.6,0.6,1.1,0.8,1.7c0.5,1.1,0.9,2.3,1.3,3.4
			c0.4,1.2,0.6,2.3,0.9,3.5c0.2,1.2,0.4,2.3,0.5,3.5c0.1,1.2,0.2,2.3,0.2,3.6c-0.9-0.7-1.3-1.1-2.1-1.8c0.9,0,1.9,0,2.8,0.1
			c0.9,0.1,1.9,0.2,2.8,0.4c0.9,0.1,1.8,0.4,2.8,0.7c0.9,0.3,1.8,0.7,2.6,1.1c0.4,0.2,0.8,0.4,1.2,0.7c0.4,0.2,0.8,0.5,1.2,0.8
			c0.4,0.3,0.7,0.5,1.1,0.8c0.4,0.4,0.6,0.5,1,0.9c0.6,0.6,1.2,1.3,1.7,2c0.3,0.3,0.5,0.7,0.7,1.1c0.2,0.4,0.4,0.7,0.6,1.1
			c0.4,0.7,0.7,1.5,1,2.2c0.3,0.7,0.6,1.5,0.8,2.3c0.4,1.5,0.8,3,0.9,4.5c0.2,1.5,0.3,3,0.3,4.5
			C834.8,303.9,834.7,305.4,834.5,306.8z"/>
		<path fill="none" stroke="#000000" stroke-width="7.0468" stroke-miterlimit="10" d="M622.7,254.6c-28.5-22.1-57.9-43.3-88.2-62.9
			c-30.9-20-71.7-50.1-109.7-53.2c-26.1-2.1-17.6,18.5-6.1,30.5c62.7,25.6,123,56.1,182.2,89"/>
	</g>
	<g>
		<path d="M411.9,818.6c0.7-21.7,1.3-43.4,2-65.1c-0.2-10.1-2.1-19.9-3.9-29.9c-1.8-10.5-3.7-20.9-3.9-31.6
			c-0.2-10-2.3-19.8-4.9-29.1c-2.8-10.4-6.5-21-10.8-31.2c-7.8-19.4-15.5-39.5-15.6-60.7c0-1.6,1.1-2.9,3.5-3.9
			c2.3-1,4.7-1.5,7.2-1.3c2.5,0.1,5.2,2.8,8,8.1c2.8,5.3,5.4,12,7.8,20.1c2.4,8.1,4.6,16.3,6.6,24.5c2,8.2,3.9,16.1,5.7,23.8
			c1.7,7.7,3,12.7,3.8,15c0.5-1.9,1.2-6.6,1.9-14c0.7-7.4,1.5-15.1,2.5-22.8c1-7.8,2.4-15.8,4-23.7c1.6-9.4,5.7-26.2,16.2-26.7
			c6.6-0.3,10.9,1.7,10.9,4.2c-0.1,19.3-5.1,38.5-9.8,57.1c-4.6,18.7-9.6,37.7-9.8,57.1c-0.5,4.7-0.7,7-1.2,11.7c0,2.1,0,3.1,0,5.2
			c0.7,30.3,1.5,60.7,2.2,91c0.6,6.9,0.8,10.4,1.4,17.3c0,3.1,0,4.6,0,7.7c0,3-1.4,5.2-4.1,6.6c-2.7,1.4-5.7,1.7-8.8,1.1
			c-3.2-0.6-5.8-1.9-7.8-3.9C412.9,823.1,411.9,820.9,411.9,818.6z"/>
		<path d="M470,726.3c0.2-5.3,0.2-7.9,0.4-13.2c0-1.1-0.2-1.7-0.6-1.8c0-2.5,0-3.8,0-6.3c0.2-25.5-0.3-52.8,7.4-77.4
			c4.1-12.8,8.1-20.7,12-23.6c3.9-2.9,7.7-4.3,11.4-4.1c29.7,1.2,54.4,16.7,66,44.5c8.1,19.2,10,39.6,10.5,60.2c0,1.1,0,1.6,0,2.6
			c0.3,13.6,0.5,27.2,0.8,40.9c-0.6,34.5-4,104.2-55,98.2c-15.5-1.8-28.1-12.3-34.7-25.9c-6.5-13.3-12-27.1-14-42.1
			C472,761,470.1,743.7,470,726.3z M494.3,680.6c-0.7,10.8-1.3,21.5-2,32.3c0.4,30.3,2.4,60.5,9.6,90c4.9,10.1,9.5,22.1,19.5,28.5
			c5,0.6,9.5-0.7,13.5-3.8c4-3.1,7.2-7.4,9.6-13.1c2.3-5.7,4.4-11.7,5.9-18.1c1.5-6.2,2.6-13.1,3.4-20.4c1-10.8,2-21.6,2-32.4
			c0-13.8-1.4-27.7-2.7-41.5c-1.4-13.8-2.6-27.7-2.7-41.6c0-2.5,0-3.8,0-6.3c-0.3-8.7-3.6-16.7-9.9-23.7
			c-6.3-7.1-14.4-10.8-24.1-11.2c-9.4-0.4-15.6,3.8-18.7,12.7c-2.9,8.9-3.9,18.4-3.8,27.8C494,668.1,494.1,672.3,494.3,680.6z"/>
		<path d="M704.6,776.6c0.7,12.9,1.4,25.8,2,38.7c0.2,11.1-5,21.5-14.3,27.7c-9.8,6.5-21.7,9.5-33.3,9.2
			c-16.2-0.4-32.4-6.5-41.7-20.5c-5.4-7.8-9.8-16.5-11.7-25.7c-1.7-7.9-2.8-14-3.4-18.3c-0.7-4.3-1.1-10.1-1.4-17.2
			c-0.5-10-0.8-18.1-0.8-24.2c0-6.2,0-9.3,0-15.5c0.1-21.2-1.4-44.1,3.4-64.5c2.1-8.8,4.9-17.3,7.9-25c3-7.7,6.6-13.7,10.9-17.8
			c9.6-9.6,22.4-15.3,36-15.1c13.6,0.2,20.5,3.2,20.5,9.4c0,2.9-1.4,5.2-4.1,7c-2.7,1.8-5.7,2.7-9.1,2.7c-3.5-0.4-5.2-0.6-8.7-1
			c-12.6,0-18.9,14.3-21.7,24.6c-8.2,27.8-10.4,56.9-10.5,85.4c0,15.5-0.3,31.8,2.5,47.2c1.6,8.6,3.6,16,5.6,21.8
			c1.9,5.9,4.2,10.8,6.9,14.5c5.7,8.1,14.8,13.4,24.5,13.4c21.9-0.1,19.8-44.2,20.1-57.8c0-6.7,0-10.1,0-16.8c-2-1-5.3-1.5-9.7-1.5
			c-3.2,0-4.9,0-8.1,0.1c-9.6-0.2-14.4-3.1-14.4-8.6c0-3.4,1.4-6,4.2-7.7c2.8-1.7,6.1-2.6,10-2.5c0,0.1,0,0.1,0,0.2
			c2.3,0,3.4,0.1,5.7,0.1c9.7,0.4,34.3-1.8,37.3,11.4C707.3,760.6,706.4,765.9,704.6,776.6z"/>
		<path d="M833.1,684c0.2,2.5,0.2,3.7,0.4,6.1c-0.2,36,4.7,159.4-53.3,163.2c-11.7,0.8-24.2-3.4-30.6-13.5
			c-5.9-9.4-10.8-18.7-12.6-30.1c-2.6-17.7-3.6-35.6-3.9-53.4c-0.6-28.9-0.5-58.1-0.5-87.2c-0.6-17.4-1.2-34.8-1.8-52.2
			c2.6-5.1,5.5-7.7,8.8-7.7c3.3,0,6.2,2.2,8.8,6.6c2.6,4.4,3.8,9.1,3.8,14.1c0,33,0,66,0,99.1c0.1,12.9,1.6,25.7,2.9,38.5
			c1.4,12.8,3.1,25.9,2.9,38.5c-0.2,15.8,10.6,27.4,26.3,25.5c16.2-1.9,19.6-34.2,21.6-46.5c8.1-49.1,7.8-99.7,7.9-149.3
			c0-8.1,0-12.2,0-20.3c-0.1-2.4-0.1-3.6-0.2-6c0-2.8,0.7-5,2.2-6.4c1.5-1.4,4.1-2.2,7.8-2.3c3.7-0.1,6.5,0.4,8.4,1.4
			c1.7,0.9,3,2.3,3.8,4.1c1.1,2.9,1.7,6.7,1.8,11.5c-0.9,12.1-1.9,24.2-2.8,36.2C834.3,663.9,833.7,673.9,833.1,684z"/>
		<path d="M882.9,720.5c-0.1,12.8-0.3,25.6-0.4,38.5c0.3,24.4,0.9,49.4,7.8,73c-1.8,4-2.8,6-4.6,10.1c-4.6,0.6-6.9,0.8-11.5,1.3
			c-2.2-1.8-3.3-2.8-5.4-4.6c0.3-12,0.4-24,0.4-35.9c0-28.2-2-56.6-3.5-84.9c-1.7-32.4-3.5-64.9-3.5-97.3c0-11.3,4.6-17,13.7-17.4
			c12.4-0.5,25.3,1.7,36.1,8.1c9.4,5.6,14.8,15.6,14.6,26.5c0,9.8,0,14.7,0,24.5c0,6.7-1.5,12.9-4.4,18.7
			c-2.9,5.8-6.3,11.8-10.2,18.3c-3.9,6.4-6,10-6.4,10.7c2.8,10.9,5.3,21.9,7.8,32.9c6,25.3,12,52.8,26.6,74.8
			c2.8,4.1,4.2,7.4,4.2,9.9c0,2.5-0.8,4.8-2.5,6.8c-1.7,2-3.9,3.2-6.7,3.7c-5.7,0.9-11.2-3.9-16.5-14.4
			c-5.7-11.4-9.8-23.5-12.7-35.8c-5.4-22.4-9.4-46.3-17.9-67.9C885.9,720.2,884.9,720.3,882.9,720.5z M884.5,616
			c-0.6,2-0.8,3-1.4,5.1c0,14,0.4,28,0.8,41.9c0.4,13.3,0.8,26.6,0.8,39.8c8.4-4.8,13-14.8,15.6-23.6c2.7-9.3,5.7-18.6,5.9-28.2
			c0.1-6.3-0.2-11.1-0.6-14.1c-0.4-3-1.3-6.3-2.6-9.9C900.3,619.6,894.1,615.9,884.5,616z"/>
		<path d="M986.4,818c-0.3-10.3-0.5-15.5-0.8-25.8c0-0.1,0.2-4,0.6-11.7c-4.9-24.5-4.8-50.8-6.5-75.7c-2-29.3-4.4-58.7-5.3-88.1
			c-0.5,0-1.1,0.1-1.6,0.1c-9.3,0.2-31.4,1.8-33.1-8.2c-0.3-1.8,1.5-4,4.4-5.6c2.9-1.6,5.8-2.4,8.6-2.6c18.4,0,36.8-0.1,55.2-0.3
			c2.6-0.2,3.9-0.4,6.5-0.6c8.4-0.6,12.6,1.7,12.6,7c0,2.7-1.4,5-4.1,6.9c-2.8,1.9-5.9,3-9.3,3.3c-7.4-0.3-11.2-0.5-18.6-0.8
			c-0.3,1.4-0.5,2.1-0.8,3.5c0.1,31.7,3.4,63.3,6.7,94.8c3.3,31.3,6.7,62.8,6.7,94.2c0,2.6-1.5,5.2-4.4,7.8
			c-2.9,2.6-6.1,4.2-9.5,4.9C990.9,819.9,989.4,819.2,986.4,818z"/>
	</g>
</g>
</svg>
